G04 #@! TF.GenerationSoftware,KiCad,Pcbnew,(6.0.5)*
G04 #@! TF.CreationDate,2022-12-13T18:03:46-08:00*
G04 #@! TF.ProjectId,pico-ice,7069636f-2d69-4636-952e-6b696361645f,REV1*
G04 #@! TF.SameCoordinates,Original*
G04 #@! TF.FileFunction,Legend,Bot*
G04 #@! TF.FilePolarity,Positive*
%FSLAX46Y46*%
G04 Gerber Fmt 4.6, Leading zero omitted, Abs format (unit mm)*
G04 Created by KiCad (PCBNEW (6.0.5)) date 2022-12-13 18:03:46*
%MOMM*%
%LPD*%
G01*
G04 APERTURE LIST*
%ADD10C,0.120000*%
%ADD11C,0.150000*%
%ADD12C,0.127000*%
%ADD13C,0.002540*%
G04 APERTURE END LIST*
D10*
X66202718Y-114816071D02*
X66202718Y-116213071D01*
X66202718Y-119896071D02*
X66202718Y-121166071D01*
X78648718Y-98433071D02*
X78648718Y-98687071D01*
X78394718Y-115070071D02*
X78394718Y-116213071D01*
X70535800Y-94107000D02*
X70535800Y-94183200D01*
X78394718Y-107323071D02*
X78394718Y-108593071D01*
X65948718Y-98306071D02*
X65567718Y-98306071D01*
X78394718Y-117483071D02*
X78394718Y-118880071D01*
X78648718Y-91956071D02*
X78648718Y-93353071D01*
X65440718Y-84336071D02*
X65948718Y-84336071D01*
X65948718Y-89543071D02*
X65948718Y-90940071D01*
X78648718Y-89670071D02*
X78648718Y-90813071D01*
X78648718Y-94623071D02*
X78648718Y-98433071D01*
X78394718Y-109863071D02*
X78394718Y-111260071D01*
X66202718Y-121166071D02*
X65567718Y-121166071D01*
X79156718Y-107323071D02*
X78394718Y-107323071D01*
X78648718Y-98687071D02*
X79664718Y-98687071D01*
X65948718Y-97290071D02*
X65948718Y-98306071D01*
X78394718Y-118880071D02*
X78775718Y-119261071D01*
X65567718Y-107323071D02*
X66202718Y-107323071D01*
X78775718Y-84526571D02*
X78775718Y-85669571D01*
X78648718Y-87003071D02*
X78648718Y-88146071D01*
X79156718Y-84463071D02*
X78775718Y-84463071D01*
X65948718Y-92083071D02*
X65948718Y-93353071D01*
X78394718Y-112403071D02*
X78394718Y-113800071D01*
X65948718Y-84336071D02*
X65948718Y-88146071D01*
X66202718Y-117483071D02*
X66202718Y-118626071D01*
X78775718Y-119261071D02*
X78775718Y-121674071D01*
X66202718Y-107323071D02*
X66202718Y-113673071D01*
X78775718Y-121674071D02*
X79664718Y-121674071D01*
X65948718Y-94623071D02*
X65948718Y-96020071D01*
D11*
X63815098Y-104509975D02*
X64272241Y-104509975D01*
X64043670Y-104509975D02*
X64043670Y-103709975D01*
X64119860Y-103824261D01*
X64196051Y-103900451D01*
X64272241Y-103938547D01*
X63053194Y-104509975D02*
X63510337Y-104509975D01*
X63281765Y-104509975D02*
X63281765Y-103709975D01*
X63357956Y-103824261D01*
X63434146Y-103900451D01*
X63510337Y-103938547D01*
X79410622Y-81005071D02*
X78648718Y-81005071D01*
X79258241Y-81992880D02*
X79143956Y-82030975D01*
X78953479Y-82030975D01*
X78877289Y-81992880D01*
X78839194Y-81954785D01*
X78801098Y-81878594D01*
X78801098Y-81802404D01*
X78839194Y-81726213D01*
X78877289Y-81688118D01*
X78953479Y-81650023D01*
X79105860Y-81611928D01*
X79182051Y-81573832D01*
X79220146Y-81535737D01*
X79258241Y-81459547D01*
X79258241Y-81383356D01*
X79220146Y-81307166D01*
X79182051Y-81269071D01*
X79105860Y-81230975D01*
X78915384Y-81230975D01*
X78801098Y-81269071D01*
X78648718Y-81005071D02*
X77886813Y-81005071D01*
X78496337Y-81992880D02*
X78382051Y-82030975D01*
X78191575Y-82030975D01*
X78115384Y-81992880D01*
X78077289Y-81954785D01*
X78039194Y-81878594D01*
X78039194Y-81802404D01*
X78077289Y-81726213D01*
X78115384Y-81688118D01*
X78191575Y-81650023D01*
X78343956Y-81611928D01*
X78420146Y-81573832D01*
X78458241Y-81535737D01*
X78496337Y-81459547D01*
X78496337Y-81383356D01*
X78458241Y-81307166D01*
X78420146Y-81269071D01*
X78343956Y-81230975D01*
X78153479Y-81230975D01*
X78039194Y-81269071D01*
X66177289Y-116803642D02*
X66177289Y-117336975D01*
X66367765Y-116498880D02*
X66558241Y-117070309D01*
X66063003Y-117070309D01*
X65834432Y-116536975D02*
X65301098Y-116536975D01*
X65643956Y-117336975D01*
X66304289Y-118899166D02*
X66266194Y-118861071D01*
X66190003Y-118822975D01*
X65999527Y-118822975D01*
X65923337Y-118861071D01*
X65885241Y-118899166D01*
X65847146Y-118975356D01*
X65847146Y-119051547D01*
X65885241Y-119165832D01*
X66342384Y-119622975D01*
X65847146Y-119622975D01*
X82153813Y-121489975D02*
X81658575Y-121489975D01*
X81925241Y-121794737D01*
X81810956Y-121794737D01*
X81734765Y-121832832D01*
X81696670Y-121870928D01*
X81658575Y-121947118D01*
X81658575Y-122137594D01*
X81696670Y-122213785D01*
X81734765Y-122251880D01*
X81810956Y-122289975D01*
X82039527Y-122289975D01*
X82115718Y-122251880D01*
X82153813Y-122213785D01*
X81315718Y-122213785D02*
X81277622Y-122251880D01*
X81315718Y-122289975D01*
X81353813Y-122251880D01*
X81315718Y-122213785D01*
X81315718Y-122289975D01*
X81010956Y-121489975D02*
X80515718Y-121489975D01*
X80782384Y-121794737D01*
X80668098Y-121794737D01*
X80591908Y-121832832D01*
X80553813Y-121870928D01*
X80515718Y-121947118D01*
X80515718Y-122137594D01*
X80553813Y-122213785D01*
X80591908Y-122251880D01*
X80668098Y-122289975D01*
X80896670Y-122289975D01*
X80972860Y-122251880D01*
X81010956Y-122213785D01*
X66723337Y-91136975D02*
X66228098Y-91136975D01*
X66494765Y-91441737D01*
X66380479Y-91441737D01*
X66304289Y-91479832D01*
X66266194Y-91517928D01*
X66228098Y-91594118D01*
X66228098Y-91784594D01*
X66266194Y-91860785D01*
X66304289Y-91898880D01*
X66380479Y-91936975D01*
X66609051Y-91936975D01*
X66685241Y-91898880D01*
X66723337Y-91860785D01*
X65466194Y-91936975D02*
X65923337Y-91936975D01*
X65694765Y-91936975D02*
X65694765Y-91136975D01*
X65770956Y-91251261D01*
X65847146Y-91327451D01*
X65923337Y-91365547D01*
X68052098Y-110117499D02*
X67385432Y-110117499D01*
X67052098Y-110117499D02*
X67099718Y-110069880D01*
X67147337Y-110117499D01*
X67099718Y-110165118D01*
X67052098Y-110117499D01*
X67147337Y-110117499D01*
X67956860Y-111165118D02*
X68004479Y-111117499D01*
X68052098Y-110974642D01*
X68052098Y-110879404D01*
X68004479Y-110736547D01*
X67909241Y-110641309D01*
X67814003Y-110593690D01*
X67623527Y-110546071D01*
X67480670Y-110546071D01*
X67290194Y-110593690D01*
X67194956Y-110641309D01*
X67099718Y-110736547D01*
X67052098Y-110879404D01*
X67052098Y-110974642D01*
X67099718Y-111117499D01*
X67147337Y-111165118D01*
X67528289Y-111593690D02*
X67528289Y-111927023D01*
X68052098Y-112069880D02*
X68052098Y-111593690D01*
X67052098Y-111593690D01*
X67052098Y-112069880D01*
X68052098Y-113260356D02*
X67052098Y-113260356D01*
X67052098Y-113641309D01*
X67099718Y-113736547D01*
X67147337Y-113784166D01*
X67242575Y-113831785D01*
X67385432Y-113831785D01*
X67480670Y-113784166D01*
X67528289Y-113736547D01*
X67575908Y-113641309D01*
X67575908Y-113260356D01*
X68052098Y-114260356D02*
X67052098Y-114260356D01*
X67766384Y-114593690D01*
X67052098Y-114927023D01*
X68052098Y-114927023D01*
X67052098Y-115593690D02*
X67052098Y-115784166D01*
X67099718Y-115879404D01*
X67194956Y-115974642D01*
X67385432Y-116022261D01*
X67718765Y-116022261D01*
X67909241Y-115974642D01*
X68004479Y-115879404D01*
X68052098Y-115784166D01*
X68052098Y-115593690D01*
X68004479Y-115498451D01*
X67909241Y-115403213D01*
X67718765Y-115355594D01*
X67385432Y-115355594D01*
X67194956Y-115403213D01*
X67099718Y-115498451D01*
X67052098Y-115593690D01*
X68052098Y-116450832D02*
X67052098Y-116450832D01*
X67052098Y-116688928D01*
X67099718Y-116831785D01*
X67194956Y-116927023D01*
X67290194Y-116974642D01*
X67480670Y-117022261D01*
X67623527Y-117022261D01*
X67814003Y-116974642D01*
X67909241Y-116927023D01*
X68004479Y-116831785D01*
X68052098Y-116688928D01*
X68052098Y-116450832D01*
X78928098Y-94349975D02*
X79385241Y-94349975D01*
X79156670Y-94349975D02*
X79156670Y-93549975D01*
X79232860Y-93664261D01*
X79309051Y-93740451D01*
X79385241Y-93778547D01*
X78547146Y-94349975D02*
X78394765Y-94349975D01*
X78318575Y-94311880D01*
X78280479Y-94273785D01*
X78204289Y-94159499D01*
X78166194Y-94007118D01*
X78166194Y-93702356D01*
X78204289Y-93626166D01*
X78242384Y-93588071D01*
X78318575Y-93549975D01*
X78470956Y-93549975D01*
X78547146Y-93588071D01*
X78585241Y-93626166D01*
X78623337Y-93702356D01*
X78623337Y-93892832D01*
X78585241Y-93969023D01*
X78547146Y-94007118D01*
X78470956Y-94045213D01*
X78318575Y-94045213D01*
X78242384Y-94007118D01*
X78204289Y-93969023D01*
X78166194Y-93892832D01*
X67409098Y-123931071D02*
X66609098Y-123931071D01*
X66761479Y-124956975D02*
X67028146Y-124576023D01*
X67218622Y-124956975D02*
X67218622Y-124156975D01*
X66913860Y-124156975D01*
X66837670Y-124195071D01*
X66799575Y-124233166D01*
X66761479Y-124309356D01*
X66761479Y-124423642D01*
X66799575Y-124499832D01*
X66837670Y-124537928D01*
X66913860Y-124576023D01*
X67218622Y-124576023D01*
X66609098Y-123931071D02*
X65961479Y-123931071D01*
X66456718Y-124918880D02*
X66380527Y-124956975D01*
X66228146Y-124956975D01*
X66151956Y-124918880D01*
X66113860Y-124842690D01*
X66113860Y-124804594D01*
X66151956Y-124728404D01*
X66228146Y-124690309D01*
X66342432Y-124690309D01*
X66418622Y-124652213D01*
X66456718Y-124576023D01*
X66456718Y-124537928D01*
X66418622Y-124461737D01*
X66342432Y-124423642D01*
X66228146Y-124423642D01*
X66151956Y-124461737D01*
X65961479Y-123931071D02*
X65504337Y-123931071D01*
X65885289Y-124423642D02*
X65580527Y-124423642D01*
X65771003Y-124156975D02*
X65771003Y-124842690D01*
X65732908Y-124918880D01*
X65656718Y-124956975D01*
X65580527Y-124956975D01*
X63764289Y-119216642D02*
X63764289Y-119749975D01*
X63954765Y-118911880D02*
X64145241Y-119483309D01*
X63650003Y-119483309D01*
X63230956Y-119292832D02*
X63307146Y-119254737D01*
X63345241Y-119216642D01*
X63383337Y-119140451D01*
X63383337Y-119102356D01*
X63345241Y-119026166D01*
X63307146Y-118988071D01*
X63230956Y-118949975D01*
X63078575Y-118949975D01*
X63002384Y-118988071D01*
X62964289Y-119026166D01*
X62926194Y-119102356D01*
X62926194Y-119140451D01*
X62964289Y-119216642D01*
X63002384Y-119254737D01*
X63078575Y-119292832D01*
X63230956Y-119292832D01*
X63307146Y-119330928D01*
X63345241Y-119369023D01*
X63383337Y-119445213D01*
X63383337Y-119597594D01*
X63345241Y-119673785D01*
X63307146Y-119711880D01*
X63230956Y-119749975D01*
X63078575Y-119749975D01*
X63002384Y-119711880D01*
X62964289Y-119673785D01*
X62926194Y-119597594D01*
X62926194Y-119445213D01*
X62964289Y-119369023D01*
X63002384Y-119330928D01*
X63078575Y-119292832D01*
X66723337Y-96216975D02*
X66228098Y-96216975D01*
X66494765Y-96521737D01*
X66380479Y-96521737D01*
X66304289Y-96559832D01*
X66266194Y-96597928D01*
X66228098Y-96674118D01*
X66228098Y-96864594D01*
X66266194Y-96940785D01*
X66304289Y-96978880D01*
X66380479Y-97016975D01*
X66609051Y-97016975D01*
X66685241Y-96978880D01*
X66723337Y-96940785D01*
X65770956Y-96559832D02*
X65847146Y-96521737D01*
X65885241Y-96483642D01*
X65923337Y-96407451D01*
X65923337Y-96369356D01*
X65885241Y-96293166D01*
X65847146Y-96255071D01*
X65770956Y-96216975D01*
X65618575Y-96216975D01*
X65542384Y-96255071D01*
X65504289Y-96293166D01*
X65466194Y-96369356D01*
X65466194Y-96407451D01*
X65504289Y-96483642D01*
X65542384Y-96521737D01*
X65618575Y-96559832D01*
X65770956Y-96559832D01*
X65847146Y-96597928D01*
X65885241Y-96636023D01*
X65923337Y-96712213D01*
X65923337Y-96864594D01*
X65885241Y-96940785D01*
X65847146Y-96978880D01*
X65770956Y-97016975D01*
X65618575Y-97016975D01*
X65542384Y-96978880D01*
X65504289Y-96940785D01*
X65466194Y-96864594D01*
X65466194Y-96712213D01*
X65504289Y-96636023D01*
X65542384Y-96597928D01*
X65618575Y-96559832D01*
X63453194Y-88508071D02*
X63529384Y-88469975D01*
X63643670Y-88469975D01*
X63757956Y-88508071D01*
X63834146Y-88584261D01*
X63872241Y-88660451D01*
X63910337Y-88812832D01*
X63910337Y-88927118D01*
X63872241Y-89079499D01*
X63834146Y-89155690D01*
X63757956Y-89231880D01*
X63643670Y-89269975D01*
X63567479Y-89269975D01*
X63453194Y-89231880D01*
X63415098Y-89193785D01*
X63415098Y-88927118D01*
X63567479Y-88927118D01*
X66431289Y-98896642D02*
X66431289Y-99429975D01*
X66621765Y-98591880D02*
X66812241Y-99163309D01*
X66317003Y-99163309D01*
X66088432Y-98629975D02*
X65593194Y-98629975D01*
X65859860Y-98934737D01*
X65745575Y-98934737D01*
X65669384Y-98972832D01*
X65631289Y-99010928D01*
X65593194Y-99087118D01*
X65593194Y-99277594D01*
X65631289Y-99353785D01*
X65669384Y-99391880D01*
X65745575Y-99429975D01*
X65974146Y-99429975D01*
X66050337Y-99391880D01*
X66088432Y-99353785D01*
X79289956Y-127331880D02*
X79175670Y-127369975D01*
X78985194Y-127369975D01*
X78909003Y-127331880D01*
X78870908Y-127293785D01*
X78832813Y-127217594D01*
X78832813Y-127141404D01*
X78870908Y-127065213D01*
X78909003Y-127027118D01*
X78985194Y-126989023D01*
X79137575Y-126950928D01*
X79213765Y-126912832D01*
X79251860Y-126874737D01*
X79289956Y-126798547D01*
X79289956Y-126722356D01*
X79251860Y-126646166D01*
X79213765Y-126608071D01*
X79137575Y-126569975D01*
X78947098Y-126569975D01*
X78832813Y-126608071D01*
X78489956Y-127369975D02*
X78489956Y-126569975D01*
X78489956Y-126874737D02*
X78413765Y-126836642D01*
X78261384Y-126836642D01*
X78185194Y-126874737D01*
X78147098Y-126912832D01*
X78109003Y-126989023D01*
X78109003Y-127217594D01*
X78147098Y-127293785D01*
X78185194Y-127331880D01*
X78261384Y-127369975D01*
X78413765Y-127369975D01*
X78489956Y-127331880D01*
X77842337Y-126836642D02*
X77651860Y-127369975D01*
X77461384Y-126836642D02*
X77651860Y-127369975D01*
X77728051Y-127560451D01*
X77766146Y-127598547D01*
X77842337Y-127636642D01*
X81512527Y-111710928D02*
X81398241Y-111749023D01*
X81360146Y-111787118D01*
X81322051Y-111863309D01*
X81322051Y-111977594D01*
X81360146Y-112053785D01*
X81398241Y-112091880D01*
X81474432Y-112129975D01*
X81779194Y-112129975D01*
X81779194Y-111329975D01*
X81512527Y-111329975D01*
X81436337Y-111368071D01*
X81398241Y-111406166D01*
X81360146Y-111482356D01*
X81360146Y-111558547D01*
X81398241Y-111634737D01*
X81436337Y-111672832D01*
X81512527Y-111710928D01*
X81779194Y-111710928D01*
X81017289Y-111406166D02*
X80979194Y-111368071D01*
X80903003Y-111329975D01*
X80712527Y-111329975D01*
X80636337Y-111368071D01*
X80598241Y-111406166D01*
X80560146Y-111482356D01*
X80560146Y-111558547D01*
X80598241Y-111672832D01*
X81055384Y-112129975D01*
X80560146Y-112129975D01*
X63700789Y-98896642D02*
X63700789Y-99429975D01*
X63891265Y-98591880D02*
X64081741Y-99163309D01*
X63586503Y-99163309D01*
X63319837Y-98706166D02*
X63281741Y-98668071D01*
X63205551Y-98629975D01*
X63015075Y-98629975D01*
X62938884Y-98668071D01*
X62900789Y-98706166D01*
X62862694Y-98782356D01*
X62862694Y-98858547D01*
X62900789Y-98972832D01*
X63357932Y-99429975D01*
X62862694Y-99429975D01*
X66431289Y-114136642D02*
X66431289Y-114669975D01*
X66621765Y-113831880D02*
X66812241Y-114403309D01*
X66317003Y-114403309D01*
X65631289Y-113869975D02*
X66012241Y-113869975D01*
X66050337Y-114250928D01*
X66012241Y-114212832D01*
X65936051Y-114174737D01*
X65745575Y-114174737D01*
X65669384Y-114212832D01*
X65631289Y-114250928D01*
X65593194Y-114327118D01*
X65593194Y-114517594D01*
X65631289Y-114593785D01*
X65669384Y-114631880D01*
X65745575Y-114669975D01*
X65936051Y-114669975D01*
X66012241Y-114631880D01*
X66050337Y-114593785D01*
X80979194Y-106288071D02*
X81055384Y-106249975D01*
X81169670Y-106249975D01*
X81283956Y-106288071D01*
X81360146Y-106364261D01*
X81398241Y-106440451D01*
X81436337Y-106592832D01*
X81436337Y-106707118D01*
X81398241Y-106859499D01*
X81360146Y-106935690D01*
X81283956Y-107011880D01*
X81169670Y-107049975D01*
X81093479Y-107049975D01*
X80979194Y-107011880D01*
X80941098Y-106973785D01*
X80941098Y-106707118D01*
X81093479Y-106707118D01*
X64297622Y-101198071D02*
X63535718Y-101198071D01*
X64145241Y-102185880D02*
X64030956Y-102223975D01*
X63840479Y-102223975D01*
X63764289Y-102185880D01*
X63726194Y-102147785D01*
X63688098Y-102071594D01*
X63688098Y-101995404D01*
X63726194Y-101919213D01*
X63764289Y-101881118D01*
X63840479Y-101843023D01*
X63992860Y-101804928D01*
X64069051Y-101766832D01*
X64107146Y-101728737D01*
X64145241Y-101652547D01*
X64145241Y-101576356D01*
X64107146Y-101500166D01*
X64069051Y-101462071D01*
X63992860Y-101423975D01*
X63802384Y-101423975D01*
X63688098Y-101462071D01*
X63535718Y-101198071D02*
X62773813Y-101198071D01*
X63383337Y-102185880D02*
X63269051Y-102223975D01*
X63078575Y-102223975D01*
X63002384Y-102185880D01*
X62964289Y-102147785D01*
X62926194Y-102071594D01*
X62926194Y-101995404D01*
X62964289Y-101919213D01*
X63002384Y-101881118D01*
X63078575Y-101843023D01*
X63230956Y-101804928D01*
X63307146Y-101766832D01*
X63345241Y-101728737D01*
X63383337Y-101652547D01*
X63383337Y-101576356D01*
X63345241Y-101500166D01*
X63307146Y-101462071D01*
X63230956Y-101423975D01*
X63040479Y-101423975D01*
X62926194Y-101462071D01*
X64269051Y-85984737D02*
X63835718Y-85984737D01*
X64069051Y-86251404D01*
X63969051Y-86251404D01*
X63902384Y-86284737D01*
X63869051Y-86318071D01*
X63835718Y-86384737D01*
X63835718Y-86551404D01*
X63869051Y-86618071D01*
X63902384Y-86651404D01*
X63969051Y-86684737D01*
X64169051Y-86684737D01*
X64235718Y-86651404D01*
X64269051Y-86618071D01*
X63535718Y-86618071D02*
X63502384Y-86651404D01*
X63535718Y-86684737D01*
X63569051Y-86651404D01*
X63535718Y-86618071D01*
X63535718Y-86684737D01*
X63269051Y-85984737D02*
X62835718Y-85984737D01*
X63069051Y-86251404D01*
X62969051Y-86251404D01*
X62902384Y-86284737D01*
X62869051Y-86318071D01*
X62835718Y-86384737D01*
X62835718Y-86551404D01*
X62869051Y-86618071D01*
X62902384Y-86651404D01*
X62969051Y-86684737D01*
X63169051Y-86684737D01*
X63235718Y-86651404D01*
X63269051Y-86618071D01*
X80941098Y-104509975D02*
X81207765Y-104129023D01*
X81398241Y-104509975D02*
X81398241Y-103709975D01*
X81093479Y-103709975D01*
X81017289Y-103748071D01*
X80979194Y-103786166D01*
X80941098Y-103862356D01*
X80941098Y-103976642D01*
X80979194Y-104052832D01*
X81017289Y-104090928D01*
X81093479Y-104129023D01*
X81398241Y-104129023D01*
X77196098Y-111260404D02*
X76719908Y-110927071D01*
X77196098Y-110688975D02*
X76196098Y-110688975D01*
X76196098Y-111069928D01*
X76243718Y-111165166D01*
X76291337Y-111212785D01*
X76386575Y-111260404D01*
X76529432Y-111260404D01*
X76624670Y-111212785D01*
X76672289Y-111165166D01*
X76719908Y-111069928D01*
X76719908Y-110688975D01*
X77196098Y-111688975D02*
X76196098Y-111688975D01*
X76196098Y-112069928D01*
X76243718Y-112165166D01*
X76291337Y-112212785D01*
X76386575Y-112260404D01*
X76529432Y-112260404D01*
X76624670Y-112212785D01*
X76672289Y-112165166D01*
X76719908Y-112069928D01*
X76719908Y-111688975D01*
X77196098Y-113450880D02*
X76196098Y-113450880D01*
X76196098Y-113831832D01*
X76243718Y-113927071D01*
X76291337Y-113974690D01*
X76386575Y-114022309D01*
X76529432Y-114022309D01*
X76624670Y-113974690D01*
X76672289Y-113927071D01*
X76719908Y-113831832D01*
X76719908Y-113450880D01*
X77196098Y-114450880D02*
X76196098Y-114450880D01*
X76910384Y-114784213D01*
X76196098Y-115117547D01*
X77196098Y-115117547D01*
X76196098Y-115784213D02*
X76196098Y-115974690D01*
X76243718Y-116069928D01*
X76338956Y-116165166D01*
X76529432Y-116212785D01*
X76862765Y-116212785D01*
X77053241Y-116165166D01*
X77148479Y-116069928D01*
X77196098Y-115974690D01*
X77196098Y-115784213D01*
X77148479Y-115688975D01*
X77053241Y-115593737D01*
X76862765Y-115546118D01*
X76529432Y-115546118D01*
X76338956Y-115593737D01*
X76243718Y-115688975D01*
X76196098Y-115784213D01*
X77196098Y-116641356D02*
X76196098Y-116641356D01*
X76196098Y-116879451D01*
X76243718Y-117022309D01*
X76338956Y-117117547D01*
X76434194Y-117165166D01*
X76624670Y-117212785D01*
X76767527Y-117212785D01*
X76958003Y-117165166D01*
X77053241Y-117117547D01*
X77148479Y-117022309D01*
X77196098Y-116879451D01*
X77196098Y-116641356D01*
X64145241Y-91086166D02*
X64107146Y-91048071D01*
X64030956Y-91009975D01*
X63840479Y-91009975D01*
X63764289Y-91048071D01*
X63726194Y-91086166D01*
X63688098Y-91162356D01*
X63688098Y-91238547D01*
X63726194Y-91352832D01*
X64183337Y-91809975D01*
X63688098Y-91809975D01*
X63230956Y-91352832D02*
X63307146Y-91314737D01*
X63345241Y-91276642D01*
X63383337Y-91200451D01*
X63383337Y-91162356D01*
X63345241Y-91086166D01*
X63307146Y-91048071D01*
X63230956Y-91009975D01*
X63078575Y-91009975D01*
X63002384Y-91048071D01*
X62964289Y-91086166D01*
X62926194Y-91162356D01*
X62926194Y-91200451D01*
X62964289Y-91276642D01*
X63002384Y-91314737D01*
X63078575Y-91352832D01*
X63230956Y-91352832D01*
X63307146Y-91390928D01*
X63345241Y-91429023D01*
X63383337Y-91505213D01*
X63383337Y-91657594D01*
X63345241Y-91733785D01*
X63307146Y-91771880D01*
X63230956Y-91809975D01*
X63078575Y-91809975D01*
X63002384Y-91771880D01*
X62964289Y-91733785D01*
X62926194Y-91657594D01*
X62926194Y-91505213D01*
X62964289Y-91429023D01*
X63002384Y-91390928D01*
X63078575Y-91352832D01*
X79512241Y-88546166D02*
X79474146Y-88508071D01*
X79397956Y-88469975D01*
X79207479Y-88469975D01*
X79131289Y-88508071D01*
X79093194Y-88546166D01*
X79055098Y-88622356D01*
X79055098Y-88698547D01*
X79093194Y-88812832D01*
X79550337Y-89269975D01*
X79055098Y-89269975D01*
X78331289Y-88469975D02*
X78712241Y-88469975D01*
X78750337Y-88850928D01*
X78712241Y-88812832D01*
X78636051Y-88774737D01*
X78445575Y-88774737D01*
X78369384Y-88812832D01*
X78331289Y-88850928D01*
X78293194Y-88927118D01*
X78293194Y-89117594D01*
X78331289Y-89193785D01*
X78369384Y-89231880D01*
X78445575Y-89269975D01*
X78636051Y-89269975D01*
X78712241Y-89231880D01*
X78750337Y-89193785D01*
X79385241Y-91086166D02*
X79347146Y-91048071D01*
X79270956Y-91009975D01*
X79080479Y-91009975D01*
X79004289Y-91048071D01*
X78966194Y-91086166D01*
X78928098Y-91162356D01*
X78928098Y-91238547D01*
X78966194Y-91352832D01*
X79423337Y-91809975D01*
X78928098Y-91809975D01*
X78166194Y-91809975D02*
X78623337Y-91809975D01*
X78394765Y-91809975D02*
X78394765Y-91009975D01*
X78470956Y-91124261D01*
X78547146Y-91200451D01*
X78623337Y-91238547D01*
X81925241Y-91086166D02*
X81887146Y-91048071D01*
X81810956Y-91009975D01*
X81620479Y-91009975D01*
X81544289Y-91048071D01*
X81506194Y-91086166D01*
X81468098Y-91162356D01*
X81468098Y-91238547D01*
X81506194Y-91352832D01*
X81963337Y-91809975D01*
X81468098Y-91809975D01*
X80972860Y-91009975D02*
X80896670Y-91009975D01*
X80820479Y-91048071D01*
X80782384Y-91086166D01*
X80744289Y-91162356D01*
X80706194Y-91314737D01*
X80706194Y-91505213D01*
X80744289Y-91657594D01*
X80782384Y-91733785D01*
X80820479Y-91771880D01*
X80896670Y-91809975D01*
X80972860Y-91809975D01*
X81049051Y-91771880D01*
X81087146Y-91733785D01*
X81125241Y-91657594D01*
X81163337Y-91505213D01*
X81163337Y-91314737D01*
X81125241Y-91162356D01*
X81087146Y-91086166D01*
X81049051Y-91048071D01*
X80972860Y-91009975D01*
X64164289Y-127331880D02*
X64050003Y-127369975D01*
X63859527Y-127369975D01*
X63783337Y-127331880D01*
X63745241Y-127293785D01*
X63707146Y-127217594D01*
X63707146Y-127141404D01*
X63745241Y-127065213D01*
X63783337Y-127027118D01*
X63859527Y-126989023D01*
X64011908Y-126950928D01*
X64088098Y-126912832D01*
X64126194Y-126874737D01*
X64164289Y-126798547D01*
X64164289Y-126722356D01*
X64126194Y-126646166D01*
X64088098Y-126608071D01*
X64011908Y-126569975D01*
X63821432Y-126569975D01*
X63707146Y-126608071D01*
X62907146Y-127293785D02*
X62945241Y-127331880D01*
X63059527Y-127369975D01*
X63135718Y-127369975D01*
X63250003Y-127331880D01*
X63326194Y-127255690D01*
X63364289Y-127179499D01*
X63402384Y-127027118D01*
X63402384Y-126912832D01*
X63364289Y-126760451D01*
X63326194Y-126684261D01*
X63250003Y-126608071D01*
X63135718Y-126569975D01*
X63059527Y-126569975D01*
X62945241Y-126608071D01*
X62907146Y-126646166D01*
X63688098Y-107049975D02*
X64145241Y-107049975D01*
X63916670Y-107049975D02*
X63916670Y-106249975D01*
X63992860Y-106364261D01*
X64069051Y-106440451D01*
X64145241Y-106478547D01*
X63192860Y-106249975D02*
X63116670Y-106249975D01*
X63040479Y-106288071D01*
X63002384Y-106326166D01*
X62964289Y-106402356D01*
X62926194Y-106554737D01*
X62926194Y-106745213D01*
X62964289Y-106897594D01*
X63002384Y-106973785D01*
X63040479Y-107011880D01*
X63116670Y-107049975D01*
X63192860Y-107049975D01*
X63269051Y-107011880D01*
X63307146Y-106973785D01*
X63345241Y-106897594D01*
X63383337Y-106745213D01*
X63383337Y-106554737D01*
X63345241Y-106402356D01*
X63307146Y-106326166D01*
X63269051Y-106288071D01*
X63192860Y-106249975D01*
X66482098Y-107049975D02*
X66329718Y-107049975D01*
X66253527Y-107011880D01*
X66215432Y-106973785D01*
X66139241Y-106859499D01*
X66101146Y-106707118D01*
X66101146Y-106402356D01*
X66139241Y-106326166D01*
X66177337Y-106288071D01*
X66253527Y-106249975D01*
X66405908Y-106249975D01*
X66482098Y-106288071D01*
X66520194Y-106326166D01*
X66558289Y-106402356D01*
X66558289Y-106592832D01*
X66520194Y-106669023D01*
X66482098Y-106707118D01*
X66405908Y-106745213D01*
X66253527Y-106745213D01*
X66177337Y-106707118D01*
X66139241Y-106669023D01*
X66101146Y-106592832D01*
X63580194Y-111368071D02*
X63656384Y-111329975D01*
X63770670Y-111329975D01*
X63884956Y-111368071D01*
X63961146Y-111444261D01*
X63999241Y-111520451D01*
X64037337Y-111672832D01*
X64037337Y-111787118D01*
X63999241Y-111939499D01*
X63961146Y-112015690D01*
X63884956Y-112091880D01*
X63770670Y-112129975D01*
X63694479Y-112129975D01*
X63580194Y-112091880D01*
X63542098Y-112053785D01*
X63542098Y-111787118D01*
X63694479Y-111787118D01*
X80293289Y-129363975D02*
X80026622Y-130163975D01*
X79759956Y-129363975D01*
X79493289Y-130163975D02*
X79493289Y-129363975D01*
X79493289Y-129668737D02*
X79417098Y-129630642D01*
X79264718Y-129630642D01*
X79188527Y-129668737D01*
X79150432Y-129706832D01*
X79112337Y-129783023D01*
X79112337Y-130011594D01*
X79150432Y-130087785D01*
X79188527Y-130125880D01*
X79264718Y-130163975D01*
X79417098Y-130163975D01*
X79493289Y-130125880D01*
X65923337Y-121756642D02*
X65923337Y-122289975D01*
X66113813Y-121451880D02*
X66304289Y-122023309D01*
X65809051Y-122023309D01*
X79112194Y-104205213D02*
X79074098Y-104167118D01*
X78997908Y-104129023D01*
X78845527Y-104205213D01*
X78769337Y-104167118D01*
X78731241Y-104129023D01*
X78464575Y-103786166D02*
X78426479Y-103748071D01*
X78350289Y-103709975D01*
X78159813Y-103709975D01*
X78083622Y-103748071D01*
X78045527Y-103786166D01*
X78007432Y-103862356D01*
X78007432Y-103938547D01*
X78045527Y-104052832D01*
X78502670Y-104509975D01*
X78007432Y-104509975D01*
X81512527Y-109170928D02*
X81398241Y-109209023D01*
X81360146Y-109247118D01*
X81322051Y-109323309D01*
X81322051Y-109437594D01*
X81360146Y-109513785D01*
X81398241Y-109551880D01*
X81474432Y-109589975D01*
X81779194Y-109589975D01*
X81779194Y-108789975D01*
X81512527Y-108789975D01*
X81436337Y-108828071D01*
X81398241Y-108866166D01*
X81360146Y-108942356D01*
X81360146Y-109018547D01*
X81398241Y-109094737D01*
X81436337Y-109132832D01*
X81512527Y-109170928D01*
X81779194Y-109170928D01*
X80560146Y-109589975D02*
X81017289Y-109589975D01*
X80788718Y-109589975D02*
X80788718Y-108789975D01*
X80864908Y-108904261D01*
X80941098Y-108980451D01*
X81017289Y-109018547D01*
X65866194Y-126481071D02*
X65942384Y-126442975D01*
X66056670Y-126442975D01*
X66170956Y-126481071D01*
X66247146Y-126557261D01*
X66285241Y-126633451D01*
X66323337Y-126785832D01*
X66323337Y-126900118D01*
X66285241Y-127052499D01*
X66247146Y-127128690D01*
X66170956Y-127204880D01*
X66056670Y-127242975D01*
X65980479Y-127242975D01*
X65866194Y-127204880D01*
X65828098Y-127166785D01*
X65828098Y-126900118D01*
X65980479Y-126900118D01*
X78966146Y-116981404D02*
X78585194Y-116981404D01*
X79042337Y-117209975D02*
X78775670Y-116409975D01*
X78509003Y-117209975D01*
X77899479Y-116676642D02*
X77899479Y-117209975D01*
X78089956Y-116371880D02*
X78280432Y-116943309D01*
X77785194Y-116943309D01*
X79112194Y-106745213D02*
X79074098Y-106707118D01*
X78997908Y-106669023D01*
X78845527Y-106745213D01*
X78769337Y-106707118D01*
X78731241Y-106669023D01*
X78502670Y-106249975D02*
X78007432Y-106249975D01*
X78274098Y-106554737D01*
X78159813Y-106554737D01*
X78083622Y-106592832D01*
X78045527Y-106630928D01*
X78007432Y-106707118D01*
X78007432Y-106897594D01*
X78045527Y-106973785D01*
X78083622Y-107011880D01*
X78159813Y-107049975D01*
X78388384Y-107049975D01*
X78464575Y-107011880D01*
X78502670Y-106973785D01*
X82049051Y-98684737D02*
X81615718Y-98684737D01*
X81849051Y-98951404D01*
X81749051Y-98951404D01*
X81682384Y-98984737D01*
X81649051Y-99018071D01*
X81615718Y-99084737D01*
X81615718Y-99251404D01*
X81649051Y-99318071D01*
X81682384Y-99351404D01*
X81749051Y-99384737D01*
X81949051Y-99384737D01*
X82015718Y-99351404D01*
X82049051Y-99318071D01*
X81315718Y-99318071D02*
X81282384Y-99351404D01*
X81315718Y-99384737D01*
X81349051Y-99351404D01*
X81315718Y-99318071D01*
X81315718Y-99384737D01*
X81049051Y-98684737D02*
X80615718Y-98684737D01*
X80849051Y-98951404D01*
X80749051Y-98951404D01*
X80682384Y-98984737D01*
X80649051Y-99018071D01*
X80615718Y-99084737D01*
X80615718Y-99251404D01*
X80649051Y-99318071D01*
X80682384Y-99351404D01*
X80749051Y-99384737D01*
X80949051Y-99384737D01*
X81015718Y-99351404D01*
X81049051Y-99318071D01*
X67163051Y-80834071D02*
X66463051Y-80834071D01*
X66596384Y-81731737D02*
X66829718Y-81398404D01*
X66996384Y-81731737D02*
X66996384Y-81031737D01*
X66729718Y-81031737D01*
X66663051Y-81065071D01*
X66629718Y-81098404D01*
X66596384Y-81165071D01*
X66596384Y-81265071D01*
X66629718Y-81331737D01*
X66663051Y-81365071D01*
X66729718Y-81398404D01*
X66996384Y-81398404D01*
X66463051Y-80834071D02*
X65896384Y-80834071D01*
X66329718Y-81698404D02*
X66263051Y-81731737D01*
X66129718Y-81731737D01*
X66063051Y-81698404D01*
X66029718Y-81631737D01*
X66029718Y-81598404D01*
X66063051Y-81531737D01*
X66129718Y-81498404D01*
X66229718Y-81498404D01*
X66296384Y-81465071D01*
X66329718Y-81398404D01*
X66329718Y-81365071D01*
X66296384Y-81298404D01*
X66229718Y-81265071D01*
X66129718Y-81265071D01*
X66063051Y-81298404D01*
X65896384Y-80834071D02*
X65496384Y-80834071D01*
X65829718Y-81265071D02*
X65563051Y-81265071D01*
X65729718Y-81031737D02*
X65729718Y-81631737D01*
X65696384Y-81698404D01*
X65629718Y-81731737D01*
X65563051Y-81731737D01*
X63891289Y-116676642D02*
X63891289Y-117209975D01*
X64081765Y-116371880D02*
X64272241Y-116943309D01*
X63777003Y-116943309D01*
X63129384Y-116409975D02*
X63281765Y-116409975D01*
X63357956Y-116448071D01*
X63396051Y-116486166D01*
X63472241Y-116600451D01*
X63510337Y-116752832D01*
X63510337Y-117057594D01*
X63472241Y-117133785D01*
X63434146Y-117171880D01*
X63357956Y-117209975D01*
X63205575Y-117209975D01*
X63129384Y-117171880D01*
X63091289Y-117133785D01*
X63053194Y-117057594D01*
X63053194Y-116867118D01*
X63091289Y-116790928D01*
X63129384Y-116752832D01*
X63205575Y-116714737D01*
X63357956Y-116714737D01*
X63434146Y-116752832D01*
X63472241Y-116790928D01*
X63510337Y-116867118D01*
X79258241Y-86133166D02*
X79220146Y-86095071D01*
X79143956Y-86056975D01*
X78953479Y-86056975D01*
X78877289Y-86095071D01*
X78839194Y-86133166D01*
X78801098Y-86209356D01*
X78801098Y-86285547D01*
X78839194Y-86399832D01*
X79296337Y-86856975D01*
X78801098Y-86856975D01*
X78534432Y-86056975D02*
X78001098Y-86056975D01*
X78343956Y-86856975D01*
X66723337Y-93676975D02*
X66228098Y-93676975D01*
X66494765Y-93981737D01*
X66380479Y-93981737D01*
X66304289Y-94019832D01*
X66266194Y-94057928D01*
X66228098Y-94134118D01*
X66228098Y-94324594D01*
X66266194Y-94400785D01*
X66304289Y-94438880D01*
X66380479Y-94476975D01*
X66609051Y-94476975D01*
X66685241Y-94438880D01*
X66723337Y-94400785D01*
X65542384Y-93943642D02*
X65542384Y-94476975D01*
X65732860Y-93638880D02*
X65923337Y-94210309D01*
X65428098Y-94210309D01*
X66145479Y-129392071D02*
X65345479Y-129392071D01*
X65688337Y-129998928D02*
X65574051Y-130037023D01*
X65535956Y-130075118D01*
X65497860Y-130151309D01*
X65497860Y-130265594D01*
X65535956Y-130341785D01*
X65574051Y-130379880D01*
X65650241Y-130417975D01*
X65955003Y-130417975D01*
X65955003Y-129617975D01*
X65688337Y-129617975D01*
X65612146Y-129656071D01*
X65574051Y-129694166D01*
X65535956Y-129770356D01*
X65535956Y-129846547D01*
X65574051Y-129922737D01*
X65612146Y-129960832D01*
X65688337Y-129998928D01*
X65955003Y-129998928D01*
X65345479Y-129392071D02*
X64735956Y-129392071D01*
X65269289Y-129617975D02*
X64812146Y-129617975D01*
X65040718Y-130417975D02*
X65040718Y-129617975D01*
X66723337Y-101296975D02*
X66228098Y-101296975D01*
X66494765Y-101601737D01*
X66380479Y-101601737D01*
X66304289Y-101639832D01*
X66266194Y-101677928D01*
X66228098Y-101754118D01*
X66228098Y-101944594D01*
X66266194Y-102020785D01*
X66304289Y-102058880D01*
X66380479Y-102096975D01*
X66609051Y-102096975D01*
X66685241Y-102058880D01*
X66723337Y-102020785D01*
X65504289Y-101296975D02*
X65885241Y-101296975D01*
X65923337Y-101677928D01*
X65885241Y-101639832D01*
X65809051Y-101601737D01*
X65618575Y-101601737D01*
X65542384Y-101639832D01*
X65504289Y-101677928D01*
X65466194Y-101754118D01*
X65466194Y-101944594D01*
X65504289Y-102020785D01*
X65542384Y-102058880D01*
X65618575Y-102096975D01*
X65809051Y-102096975D01*
X65885241Y-102058880D01*
X65923337Y-102020785D01*
X64354765Y-108789975D02*
X64088098Y-109589975D01*
X63821432Y-108789975D01*
X63554765Y-109589975D02*
X63554765Y-109056642D01*
X63554765Y-108789975D02*
X63592860Y-108828071D01*
X63554765Y-108866166D01*
X63516670Y-108828071D01*
X63554765Y-108789975D01*
X63554765Y-108866166D01*
X63059527Y-109589975D02*
X63135718Y-109551880D01*
X63173813Y-109513785D01*
X63211908Y-109437594D01*
X63211908Y-109209023D01*
X63173813Y-109132832D01*
X63135718Y-109094737D01*
X63059527Y-109056642D01*
X62945241Y-109056642D01*
X62869051Y-109094737D01*
X62830956Y-109132832D01*
X62792860Y-109209023D01*
X62792860Y-109437594D01*
X62830956Y-109513785D01*
X62869051Y-109551880D01*
X62945241Y-109589975D01*
X63059527Y-109589975D01*
X63838102Y-81484928D02*
X64104769Y-81484928D01*
X64104769Y-81903975D02*
X64104769Y-81103975D01*
X63723816Y-81103975D01*
X63457150Y-81180166D02*
X63419055Y-81142071D01*
X63342864Y-81103975D01*
X63152388Y-81103975D01*
X63076197Y-81142071D01*
X63038102Y-81180166D01*
X63000007Y-81256356D01*
X63000007Y-81332547D01*
X63038102Y-81446832D01*
X63495245Y-81903975D01*
X63000007Y-81903975D01*
X66304337Y-103709975D02*
X66456718Y-103709975D01*
X66532908Y-103748071D01*
X66571003Y-103786166D01*
X66647194Y-103900451D01*
X66685289Y-104052832D01*
X66685289Y-104357594D01*
X66647194Y-104433785D01*
X66609098Y-104471880D01*
X66532908Y-104509975D01*
X66380527Y-104509975D01*
X66304337Y-104471880D01*
X66266241Y-104433785D01*
X66228146Y-104357594D01*
X66228146Y-104167118D01*
X66266241Y-104090928D01*
X66304337Y-104052832D01*
X66380527Y-104014737D01*
X66532908Y-104014737D01*
X66609098Y-104052832D01*
X66647194Y-104090928D01*
X66685289Y-104167118D01*
X65739194Y-88508071D02*
X65815384Y-88469975D01*
X65929670Y-88469975D01*
X66043956Y-88508071D01*
X66120146Y-88584261D01*
X66158241Y-88660451D01*
X66196337Y-88812832D01*
X66196337Y-88927118D01*
X66158241Y-89079499D01*
X66120146Y-89155690D01*
X66043956Y-89231880D01*
X65929670Y-89269975D01*
X65853479Y-89269975D01*
X65739194Y-89231880D01*
X65701098Y-89193785D01*
X65701098Y-88927118D01*
X65853479Y-88927118D01*
X81925241Y-88546166D02*
X81887146Y-88508071D01*
X81810956Y-88469975D01*
X81620479Y-88469975D01*
X81544289Y-88508071D01*
X81506194Y-88546166D01*
X81468098Y-88622356D01*
X81468098Y-88698547D01*
X81506194Y-88812832D01*
X81963337Y-89269975D01*
X81468098Y-89269975D01*
X81201432Y-88469975D02*
X80706194Y-88469975D01*
X80972860Y-88774737D01*
X80858575Y-88774737D01*
X80782384Y-88812832D01*
X80744289Y-88850928D01*
X80706194Y-88927118D01*
X80706194Y-89117594D01*
X80744289Y-89193785D01*
X80782384Y-89231880D01*
X80858575Y-89269975D01*
X81087146Y-89269975D01*
X81163337Y-89231880D01*
X81201432Y-89193785D01*
X80979194Y-118988071D02*
X81055384Y-118949975D01*
X81169670Y-118949975D01*
X81283956Y-118988071D01*
X81360146Y-119064261D01*
X81398241Y-119140451D01*
X81436337Y-119292832D01*
X81436337Y-119407118D01*
X81398241Y-119559499D01*
X81360146Y-119635690D01*
X81283956Y-119711880D01*
X81169670Y-119749975D01*
X81093479Y-119749975D01*
X80979194Y-119711880D01*
X80941098Y-119673785D01*
X80941098Y-119407118D01*
X81093479Y-119407118D01*
X79232813Y-124029975D02*
X78737575Y-124029975D01*
X79004241Y-124334737D01*
X78889956Y-124334737D01*
X78813765Y-124372832D01*
X78775670Y-124410928D01*
X78737575Y-124487118D01*
X78737575Y-124677594D01*
X78775670Y-124753785D01*
X78813765Y-124791880D01*
X78889956Y-124829975D01*
X79118527Y-124829975D01*
X79194718Y-124791880D01*
X79232813Y-124753785D01*
X78394718Y-124753785D02*
X78356622Y-124791880D01*
X78394718Y-124829975D01*
X78432813Y-124791880D01*
X78394718Y-124753785D01*
X78394718Y-124829975D01*
X78089956Y-124029975D02*
X77594718Y-124029975D01*
X77861384Y-124334737D01*
X77747098Y-124334737D01*
X77670908Y-124372832D01*
X77632813Y-124410928D01*
X77594718Y-124487118D01*
X77594718Y-124677594D01*
X77632813Y-124753785D01*
X77670908Y-124791880D01*
X77747098Y-124829975D01*
X77975670Y-124829975D01*
X78051860Y-124791880D01*
X78089956Y-124753785D01*
X63891289Y-114136642D02*
X63891289Y-114669975D01*
X64081765Y-113831880D02*
X64272241Y-114403309D01*
X63777003Y-114403309D01*
X63129384Y-114136642D02*
X63129384Y-114669975D01*
X63319860Y-113831880D02*
X63510337Y-114403309D01*
X63015098Y-114403309D01*
X81391908Y-84113785D02*
X81430003Y-84151880D01*
X81544289Y-84189975D01*
X81620479Y-84189975D01*
X81734765Y-84151880D01*
X81810956Y-84075690D01*
X81849051Y-83999499D01*
X81887146Y-83847118D01*
X81887146Y-83732832D01*
X81849051Y-83580451D01*
X81810956Y-83504261D01*
X81734765Y-83428071D01*
X81620479Y-83389975D01*
X81544289Y-83389975D01*
X81430003Y-83428071D01*
X81391908Y-83466166D01*
X81049051Y-84189975D02*
X81049051Y-83389975D01*
X80972860Y-83885213D02*
X80744289Y-84189975D01*
X80744289Y-83656642D02*
X81049051Y-83961404D01*
X79112194Y-101665213D02*
X79074098Y-101627118D01*
X78997908Y-101589023D01*
X78845527Y-101665213D01*
X78769337Y-101627118D01*
X78731241Y-101589023D01*
X78274098Y-101169975D02*
X78197908Y-101169975D01*
X78121718Y-101208071D01*
X78083622Y-101246166D01*
X78045527Y-101322356D01*
X78007432Y-101474737D01*
X78007432Y-101665213D01*
X78045527Y-101817594D01*
X78083622Y-101893785D01*
X78121718Y-101931880D01*
X78197908Y-101969975D01*
X78274098Y-101969975D01*
X78350289Y-101931880D01*
X78388384Y-101893785D01*
X78426479Y-101817594D01*
X78464575Y-101665213D01*
X78464575Y-101474737D01*
X78426479Y-101322356D01*
X78388384Y-101246166D01*
X78350289Y-101208071D01*
X78274098Y-101169975D01*
X78820194Y-96001071D02*
X78896384Y-95962975D01*
X79010670Y-95962975D01*
X79124956Y-96001071D01*
X79201146Y-96077261D01*
X79239241Y-96153451D01*
X79277337Y-96305832D01*
X79277337Y-96420118D01*
X79239241Y-96572499D01*
X79201146Y-96648690D01*
X79124956Y-96724880D01*
X79010670Y-96762975D01*
X78934479Y-96762975D01*
X78820194Y-96724880D01*
X78782098Y-96686785D01*
X78782098Y-96420118D01*
X78934479Y-96420118D01*
X63688098Y-129706785D02*
X63726194Y-129744880D01*
X63840479Y-129782975D01*
X63916670Y-129782975D01*
X64030956Y-129744880D01*
X64107146Y-129668690D01*
X64145241Y-129592499D01*
X64183337Y-129440118D01*
X64183337Y-129325832D01*
X64145241Y-129173451D01*
X64107146Y-129097261D01*
X64030956Y-129021071D01*
X63916670Y-128982975D01*
X63840479Y-128982975D01*
X63726194Y-129021071D01*
X63688098Y-129059166D01*
X63345241Y-129782975D02*
X63345241Y-128982975D01*
X62888098Y-129782975D02*
X63230956Y-129325832D01*
X62888098Y-128982975D02*
X63345241Y-129440118D01*
X67925098Y-89162499D02*
X67258432Y-89162499D01*
X66925098Y-89162499D02*
X66972718Y-89114880D01*
X67020337Y-89162499D01*
X66972718Y-89210118D01*
X66925098Y-89162499D01*
X67020337Y-89162499D01*
X67829860Y-90210118D02*
X67877479Y-90162499D01*
X67925098Y-90019642D01*
X67925098Y-89924404D01*
X67877479Y-89781547D01*
X67782241Y-89686309D01*
X67687003Y-89638690D01*
X67496527Y-89591071D01*
X67353670Y-89591071D01*
X67163194Y-89638690D01*
X67067956Y-89686309D01*
X66972718Y-89781547D01*
X66925098Y-89924404D01*
X66925098Y-90019642D01*
X66972718Y-90162499D01*
X67020337Y-90210118D01*
X67401289Y-90638690D02*
X67401289Y-90972023D01*
X67925098Y-91114880D02*
X67925098Y-90638690D01*
X66925098Y-90638690D01*
X66925098Y-91114880D01*
X67925098Y-92305356D02*
X66925098Y-92305356D01*
X66925098Y-92686309D01*
X66972718Y-92781547D01*
X67020337Y-92829166D01*
X67115575Y-92876785D01*
X67258432Y-92876785D01*
X67353670Y-92829166D01*
X67401289Y-92781547D01*
X67448908Y-92686309D01*
X67448908Y-92305356D01*
X67925098Y-93305356D02*
X66925098Y-93305356D01*
X67639384Y-93638690D01*
X66925098Y-93972023D01*
X67925098Y-93972023D01*
X66925098Y-94638690D02*
X66925098Y-94829166D01*
X66972718Y-94924404D01*
X67067956Y-95019642D01*
X67258432Y-95067261D01*
X67591765Y-95067261D01*
X67782241Y-95019642D01*
X67877479Y-94924404D01*
X67925098Y-94829166D01*
X67925098Y-94638690D01*
X67877479Y-94543451D01*
X67782241Y-94448213D01*
X67591765Y-94400594D01*
X67258432Y-94400594D01*
X67067956Y-94448213D01*
X66972718Y-94543451D01*
X66925098Y-94638690D01*
X67925098Y-95495832D02*
X66925098Y-95495832D01*
X66925098Y-95733928D01*
X66972718Y-95876785D01*
X67067956Y-95972023D01*
X67163194Y-96019642D01*
X67353670Y-96067261D01*
X67496527Y-96067261D01*
X67687003Y-96019642D01*
X67782241Y-95972023D01*
X67877479Y-95876785D01*
X67925098Y-95733928D01*
X67925098Y-95495832D01*
X81925241Y-86006166D02*
X81887146Y-85968071D01*
X81810956Y-85929975D01*
X81620479Y-85929975D01*
X81544289Y-85968071D01*
X81506194Y-86006166D01*
X81468098Y-86082356D01*
X81468098Y-86158547D01*
X81506194Y-86272832D01*
X81963337Y-86729975D01*
X81468098Y-86729975D01*
X80782384Y-85929975D02*
X80934765Y-85929975D01*
X81010956Y-85968071D01*
X81049051Y-86006166D01*
X81125241Y-86120451D01*
X81163337Y-86272832D01*
X81163337Y-86577594D01*
X81125241Y-86653785D01*
X81087146Y-86691880D01*
X81010956Y-86729975D01*
X80858575Y-86729975D01*
X80782384Y-86691880D01*
X80744289Y-86653785D01*
X80706194Y-86577594D01*
X80706194Y-86387118D01*
X80744289Y-86310928D01*
X80782384Y-86272832D01*
X80858575Y-86234737D01*
X81010956Y-86234737D01*
X81087146Y-86272832D01*
X81125241Y-86310928D01*
X81163337Y-86387118D01*
X76264098Y-92623071D02*
X75787908Y-92289737D01*
X76264098Y-92051642D02*
X75264098Y-92051642D01*
X75264098Y-92432594D01*
X75311718Y-92527832D01*
X75359337Y-92575451D01*
X75454575Y-92623071D01*
X75597432Y-92623071D01*
X75692670Y-92575451D01*
X75740289Y-92527832D01*
X75787908Y-92432594D01*
X75787908Y-92051642D01*
X76264098Y-93051642D02*
X75264098Y-93051642D01*
X75264098Y-93432594D01*
X75311718Y-93527832D01*
X75359337Y-93575451D01*
X75454575Y-93623071D01*
X75597432Y-93623071D01*
X75692670Y-93575451D01*
X75740289Y-93527832D01*
X75787908Y-93432594D01*
X75787908Y-93051642D01*
X75883146Y-94051642D02*
X75883146Y-94813547D01*
X76264098Y-95289737D02*
X75597432Y-95289737D01*
X75264098Y-95289737D02*
X75311718Y-95242118D01*
X75359337Y-95289737D01*
X75311718Y-95337356D01*
X75264098Y-95289737D01*
X75359337Y-95289737D01*
X76168860Y-96337356D02*
X76216479Y-96289737D01*
X76264098Y-96146880D01*
X76264098Y-96051642D01*
X76216479Y-95908785D01*
X76121241Y-95813547D01*
X76026003Y-95765928D01*
X75835527Y-95718309D01*
X75692670Y-95718309D01*
X75502194Y-95765928D01*
X75406956Y-95813547D01*
X75311718Y-95908785D01*
X75264098Y-96051642D01*
X75264098Y-96146880D01*
X75311718Y-96289737D01*
X75359337Y-96337356D01*
X75740289Y-96765928D02*
X75740289Y-97099261D01*
X76264098Y-97242118D02*
X76264098Y-96765928D01*
X75264098Y-96765928D01*
X75264098Y-97242118D01*
X77874098Y-92765928D02*
X76874098Y-92765928D01*
X76874098Y-93146880D01*
X76921718Y-93242118D01*
X76969337Y-93289737D01*
X77064575Y-93337356D01*
X77207432Y-93337356D01*
X77302670Y-93289737D01*
X77350289Y-93242118D01*
X77397908Y-93146880D01*
X77397908Y-92765928D01*
X77874098Y-93765928D02*
X76874098Y-93765928D01*
X77588384Y-94099261D01*
X76874098Y-94432594D01*
X77874098Y-94432594D01*
X76874098Y-95099261D02*
X76874098Y-95289737D01*
X76921718Y-95384975D01*
X77016956Y-95480213D01*
X77207432Y-95527832D01*
X77540765Y-95527832D01*
X77731241Y-95480213D01*
X77826479Y-95384975D01*
X77874098Y-95289737D01*
X77874098Y-95099261D01*
X77826479Y-95004023D01*
X77731241Y-94908785D01*
X77540765Y-94861166D01*
X77207432Y-94861166D01*
X77016956Y-94908785D01*
X76921718Y-95004023D01*
X76874098Y-95099261D01*
X77874098Y-95956404D02*
X76874098Y-95956404D01*
X76874098Y-96194499D01*
X76921718Y-96337356D01*
X77016956Y-96432594D01*
X77112194Y-96480213D01*
X77302670Y-96527832D01*
X77445527Y-96527832D01*
X77636003Y-96480213D01*
X77731241Y-96432594D01*
X77826479Y-96337356D01*
X77874098Y-96194499D01*
X77874098Y-95956404D01*
X81087099Y-101550928D02*
X80972813Y-101589023D01*
X80934718Y-101627118D01*
X80896622Y-101703309D01*
X80896622Y-101817594D01*
X80934718Y-101893785D01*
X80972813Y-101931880D01*
X81049003Y-101969975D01*
X81353765Y-101969975D01*
X81353765Y-101169975D01*
X81087099Y-101169975D01*
X81010908Y-101208071D01*
X80972813Y-101246166D01*
X80934718Y-101322356D01*
X80934718Y-101398547D01*
X80972813Y-101474737D01*
X81010908Y-101512832D01*
X81087099Y-101550928D01*
X81353765Y-101550928D01*
X81798241Y-124829975D02*
X81798241Y-124029975D01*
X81607765Y-124029975D01*
X81493479Y-124068071D01*
X81417289Y-124144261D01*
X81379194Y-124220451D01*
X81341098Y-124372832D01*
X81341098Y-124487118D01*
X81379194Y-124639499D01*
X81417289Y-124715690D01*
X81493479Y-124791880D01*
X81607765Y-124829975D01*
X81798241Y-124829975D01*
X80541098Y-124753785D02*
X80579194Y-124791880D01*
X80693479Y-124829975D01*
X80769670Y-124829975D01*
X80883956Y-124791880D01*
X80960146Y-124715690D01*
X80998241Y-124639499D01*
X81036337Y-124487118D01*
X81036337Y-124372832D01*
X80998241Y-124220451D01*
X80960146Y-124144261D01*
X80883956Y-124068071D01*
X80769670Y-124029975D01*
X80693479Y-124029975D01*
X80579194Y-124068071D01*
X80541098Y-124106166D01*
X81106194Y-96001071D02*
X81182384Y-95962975D01*
X81296670Y-95962975D01*
X81410956Y-96001071D01*
X81487146Y-96077261D01*
X81525241Y-96153451D01*
X81563337Y-96305832D01*
X81563337Y-96420118D01*
X81525241Y-96572499D01*
X81487146Y-96648690D01*
X81410956Y-96724880D01*
X81296670Y-96762975D01*
X81220479Y-96762975D01*
X81106194Y-96724880D01*
X81068098Y-96686785D01*
X81068098Y-96420118D01*
X81220479Y-96420118D01*
X63802384Y-121108975D02*
X63307146Y-121108975D01*
X63573813Y-121413737D01*
X63459527Y-121413737D01*
X63383337Y-121451832D01*
X63345241Y-121489928D01*
X63307146Y-121566118D01*
X63307146Y-121756594D01*
X63345241Y-121832785D01*
X63383337Y-121870880D01*
X63459527Y-121908975D01*
X63688098Y-121908975D01*
X63764289Y-121870880D01*
X63802384Y-121832785D01*
X81512527Y-114377928D02*
X81398241Y-114416023D01*
X81360146Y-114454118D01*
X81322051Y-114530309D01*
X81322051Y-114644594D01*
X81360146Y-114720785D01*
X81398241Y-114758880D01*
X81474432Y-114796975D01*
X81779194Y-114796975D01*
X81779194Y-113996975D01*
X81512527Y-113996975D01*
X81436337Y-114035071D01*
X81398241Y-114073166D01*
X81360146Y-114149356D01*
X81360146Y-114225547D01*
X81398241Y-114301737D01*
X81436337Y-114339832D01*
X81512527Y-114377928D01*
X81779194Y-114377928D01*
X81055384Y-113996975D02*
X80560146Y-113996975D01*
X80826813Y-114301737D01*
X80712527Y-114301737D01*
X80636337Y-114339832D01*
X80598241Y-114377928D01*
X80560146Y-114454118D01*
X80560146Y-114644594D01*
X80598241Y-114720785D01*
X80636337Y-114758880D01*
X80712527Y-114796975D01*
X80941098Y-114796975D01*
X81017289Y-114758880D01*
X81055384Y-114720785D01*
X64183337Y-96216975D02*
X63688098Y-96216975D01*
X63954765Y-96521737D01*
X63840479Y-96521737D01*
X63764289Y-96559832D01*
X63726194Y-96597928D01*
X63688098Y-96674118D01*
X63688098Y-96864594D01*
X63726194Y-96940785D01*
X63764289Y-96978880D01*
X63840479Y-97016975D01*
X64069051Y-97016975D01*
X64145241Y-96978880D01*
X64183337Y-96940785D01*
X63002384Y-96216975D02*
X63154765Y-96216975D01*
X63230956Y-96255071D01*
X63269051Y-96293166D01*
X63345241Y-96407451D01*
X63383337Y-96559832D01*
X63383337Y-96864594D01*
X63345241Y-96940785D01*
X63307146Y-96978880D01*
X63230956Y-97016975D01*
X63078575Y-97016975D01*
X63002384Y-96978880D01*
X62964289Y-96940785D01*
X62926194Y-96864594D01*
X62926194Y-96674118D01*
X62964289Y-96597928D01*
X63002384Y-96559832D01*
X63078575Y-96521737D01*
X63230956Y-96521737D01*
X63307146Y-96559832D01*
X63345241Y-96597928D01*
X63383337Y-96674118D01*
X65739194Y-83428071D02*
X65815384Y-83389975D01*
X65929670Y-83389975D01*
X66043956Y-83428071D01*
X66120146Y-83504261D01*
X66158241Y-83580451D01*
X66196337Y-83732832D01*
X66196337Y-83847118D01*
X66158241Y-83999499D01*
X66120146Y-84075690D01*
X66043956Y-84151880D01*
X65929670Y-84189975D01*
X65853479Y-84189975D01*
X65739194Y-84151880D01*
X65701098Y-84113785D01*
X65701098Y-83847118D01*
X65853479Y-83847118D01*
X79321765Y-84151880D02*
X79207479Y-84189975D01*
X79017003Y-84189975D01*
X78940813Y-84151880D01*
X78902718Y-84113785D01*
X78864622Y-84037594D01*
X78864622Y-83961404D01*
X78902718Y-83885213D01*
X78940813Y-83847118D01*
X79017003Y-83809023D01*
X79169384Y-83770928D01*
X79245575Y-83732832D01*
X79283670Y-83694737D01*
X79321765Y-83618547D01*
X79321765Y-83542356D01*
X79283670Y-83466166D01*
X79245575Y-83428071D01*
X79169384Y-83389975D01*
X78978908Y-83389975D01*
X78864622Y-83428071D01*
X78521765Y-84189975D02*
X78521765Y-83656642D01*
X78521765Y-83389975D02*
X78559860Y-83428071D01*
X78521765Y-83466166D01*
X78483670Y-83428071D01*
X78521765Y-83389975D01*
X78521765Y-83466166D01*
X78966146Y-114568404D02*
X78585194Y-114568404D01*
X79042337Y-114796975D02*
X78775670Y-113996975D01*
X78509003Y-114796975D01*
X78318527Y-113996975D02*
X77823289Y-113996975D01*
X78089956Y-114301737D01*
X77975670Y-114301737D01*
X77899479Y-114339832D01*
X77861384Y-114377928D01*
X77823289Y-114454118D01*
X77823289Y-114644594D01*
X77861384Y-114720785D01*
X77899479Y-114758880D01*
X77975670Y-114796975D01*
X78204241Y-114796975D01*
X78280432Y-114758880D01*
X78318527Y-114720785D01*
X81779194Y-81738880D02*
X81664908Y-81776975D01*
X81474432Y-81776975D01*
X81398241Y-81738880D01*
X81360146Y-81700785D01*
X81322051Y-81624594D01*
X81322051Y-81548404D01*
X81360146Y-81472213D01*
X81398241Y-81434118D01*
X81474432Y-81396023D01*
X81626813Y-81357928D01*
X81703003Y-81319832D01*
X81741098Y-81281737D01*
X81779194Y-81205547D01*
X81779194Y-81129356D01*
X81741098Y-81053166D01*
X81703003Y-81015071D01*
X81626813Y-80976975D01*
X81436337Y-80976975D01*
X81322051Y-81015071D01*
X80864908Y-81776975D02*
X80941098Y-81738880D01*
X80979194Y-81700785D01*
X81017289Y-81624594D01*
X81017289Y-81396023D01*
X80979194Y-81319832D01*
X80941098Y-81281737D01*
X80864908Y-81243642D01*
X80750622Y-81243642D01*
X80674432Y-81281737D01*
X80636337Y-81319832D01*
X80598241Y-81396023D01*
X80598241Y-81624594D01*
X80636337Y-81700785D01*
X80674432Y-81738880D01*
X80750622Y-81776975D01*
X80864908Y-81776975D01*
X79093146Y-109361404D02*
X78712194Y-109361404D01*
X79169337Y-109589975D02*
X78902670Y-108789975D01*
X78636003Y-109589975D01*
X77950289Y-109589975D02*
X78407432Y-109589975D01*
X78178860Y-109589975D02*
X78178860Y-108789975D01*
X78255051Y-108904261D01*
X78331241Y-108980451D01*
X78407432Y-109018547D01*
X81722051Y-126823928D02*
X81455384Y-126823928D01*
X81341098Y-127242975D02*
X81722051Y-127242975D01*
X81722051Y-126442975D01*
X81341098Y-126442975D01*
X80998241Y-126709642D02*
X80998241Y-127242975D01*
X80998241Y-126785832D02*
X80960146Y-126747737D01*
X80883956Y-126709642D01*
X80769670Y-126709642D01*
X80693479Y-126747737D01*
X80655384Y-126823928D01*
X80655384Y-127242975D01*
X78839146Y-111901404D02*
X78458194Y-111901404D01*
X78915337Y-112129975D02*
X78648670Y-111329975D01*
X78382003Y-112129975D01*
X78153432Y-111406166D02*
X78115337Y-111368071D01*
X78039146Y-111329975D01*
X77848670Y-111329975D01*
X77772479Y-111368071D01*
X77734384Y-111406166D01*
X77696289Y-111482356D01*
X77696289Y-111558547D01*
X77734384Y-111672832D01*
X78191527Y-112129975D01*
X77696289Y-112129975D01*
X64037289Y-124791880D02*
X63923003Y-124829975D01*
X63732527Y-124829975D01*
X63656337Y-124791880D01*
X63618241Y-124753785D01*
X63580146Y-124677594D01*
X63580146Y-124601404D01*
X63618241Y-124525213D01*
X63656337Y-124487118D01*
X63732527Y-124449023D01*
X63884908Y-124410928D01*
X63961098Y-124372832D01*
X63999194Y-124334737D01*
X64037289Y-124258547D01*
X64037289Y-124182356D01*
X63999194Y-124106166D01*
X63961098Y-124068071D01*
X63884908Y-124029975D01*
X63694432Y-124029975D01*
X63580146Y-124068071D01*
X63237289Y-124829975D02*
X63237289Y-124029975D01*
X63046813Y-124029975D01*
X62932527Y-124068071D01*
X62856337Y-124144261D01*
X62818241Y-124220451D01*
X62780146Y-124372832D01*
X62780146Y-124487118D01*
X62818241Y-124639499D01*
X62856337Y-124715690D01*
X62932527Y-124791880D01*
X63046813Y-124829975D01*
X63237289Y-124829975D01*
X63929384Y-83770928D02*
X64196051Y-83770928D01*
X64196051Y-84189975D02*
X64196051Y-83389975D01*
X63815098Y-83389975D01*
X63586527Y-83389975D02*
X63091289Y-83389975D01*
X63357956Y-83694737D01*
X63243670Y-83694737D01*
X63167479Y-83732832D01*
X63129384Y-83770928D01*
X63091289Y-83847118D01*
X63091289Y-84037594D01*
X63129384Y-84113785D01*
X63167479Y-84151880D01*
X63243670Y-84189975D01*
X63472241Y-84189975D01*
X63548432Y-84151880D01*
X63586527Y-84113785D01*
X81468098Y-94349975D02*
X81925241Y-94349975D01*
X81696670Y-94349975D02*
X81696670Y-93549975D01*
X81772860Y-93664261D01*
X81849051Y-93740451D01*
X81925241Y-93778547D01*
X81010956Y-93892832D02*
X81087146Y-93854737D01*
X81125241Y-93816642D01*
X81163337Y-93740451D01*
X81163337Y-93702356D01*
X81125241Y-93626166D01*
X81087146Y-93588071D01*
X81010956Y-93549975D01*
X80858575Y-93549975D01*
X80782384Y-93588071D01*
X80744289Y-93626166D01*
X80706194Y-93702356D01*
X80706194Y-93740451D01*
X80744289Y-93816642D01*
X80782384Y-93854737D01*
X80858575Y-93892832D01*
X81010956Y-93892832D01*
X81087146Y-93930928D01*
X81125241Y-93969023D01*
X81163337Y-94045213D01*
X81163337Y-94197594D01*
X81125241Y-94273785D01*
X81087146Y-94311880D01*
X81010956Y-94349975D01*
X80858575Y-94349975D01*
X80782384Y-94311880D01*
X80744289Y-94273785D01*
X80706194Y-94197594D01*
X80706194Y-94045213D01*
X80744289Y-93969023D01*
X80782384Y-93930928D01*
X80858575Y-93892832D01*
X81512527Y-116790928D02*
X81398241Y-116829023D01*
X81360146Y-116867118D01*
X81322051Y-116943309D01*
X81322051Y-117057594D01*
X81360146Y-117133785D01*
X81398241Y-117171880D01*
X81474432Y-117209975D01*
X81779194Y-117209975D01*
X81779194Y-116409975D01*
X81512527Y-116409975D01*
X81436337Y-116448071D01*
X81398241Y-116486166D01*
X81360146Y-116562356D01*
X81360146Y-116638547D01*
X81398241Y-116714737D01*
X81436337Y-116752832D01*
X81512527Y-116790928D01*
X81779194Y-116790928D01*
X80636337Y-116676642D02*
X80636337Y-117209975D01*
X80826813Y-116371880D02*
X81017289Y-116943309D01*
X80522051Y-116943309D01*
X81487194Y-129402071D02*
X81563384Y-129363975D01*
X81677670Y-129363975D01*
X81791956Y-129402071D01*
X81868146Y-129478261D01*
X81906241Y-129554451D01*
X81944337Y-129706832D01*
X81944337Y-129821118D01*
X81906241Y-129973499D01*
X81868146Y-130049690D01*
X81791956Y-130125880D01*
X81677670Y-130163975D01*
X81601479Y-130163975D01*
X81487194Y-130125880D01*
X81449098Y-130087785D01*
X81449098Y-129821118D01*
X81601479Y-129821118D01*
X64183337Y-93676975D02*
X63688098Y-93676975D01*
X63954765Y-93981737D01*
X63840479Y-93981737D01*
X63764289Y-94019832D01*
X63726194Y-94057928D01*
X63688098Y-94134118D01*
X63688098Y-94324594D01*
X63726194Y-94400785D01*
X63764289Y-94438880D01*
X63840479Y-94476975D01*
X64069051Y-94476975D01*
X64145241Y-94438880D01*
X64183337Y-94400785D01*
X63383337Y-93753166D02*
X63345241Y-93715071D01*
X63269051Y-93676975D01*
X63078575Y-93676975D01*
X63002384Y-93715071D01*
X62964289Y-93753166D01*
X62926194Y-93829356D01*
X62926194Y-93905547D01*
X62964289Y-94019832D01*
X63421432Y-94476975D01*
X62926194Y-94476975D01*
D12*
X70385251Y-78337437D02*
X70385251Y-79057104D01*
X70342918Y-79141771D01*
X70300584Y-79184104D01*
X70215918Y-79226437D01*
X70046584Y-79226437D01*
X69961918Y-79184104D01*
X69919584Y-79141771D01*
X69877251Y-79057104D01*
X69877251Y-78337437D01*
X69326918Y-78718437D02*
X69411584Y-78676104D01*
X69453918Y-78633771D01*
X69496251Y-78549104D01*
X69496251Y-78506771D01*
X69453918Y-78422104D01*
X69411584Y-78379771D01*
X69326918Y-78337437D01*
X69157584Y-78337437D01*
X69072918Y-78379771D01*
X69030584Y-78422104D01*
X68988251Y-78506771D01*
X68988251Y-78549104D01*
X69030584Y-78633771D01*
X69072918Y-78676104D01*
X69157584Y-78718437D01*
X69326918Y-78718437D01*
X69411584Y-78760771D01*
X69453918Y-78803104D01*
X69496251Y-78887771D01*
X69496251Y-79057104D01*
X69453918Y-79141771D01*
X69411584Y-79184104D01*
X69326918Y-79226437D01*
X69157584Y-79226437D01*
X69072918Y-79184104D01*
X69030584Y-79141771D01*
X68988251Y-79057104D01*
X68988251Y-78887771D01*
X69030584Y-78803104D01*
X69072918Y-78760771D01*
X69157584Y-78718437D01*
X76252651Y-118850437D02*
X76252651Y-119570104D01*
X76210318Y-119654771D01*
X76167984Y-119697104D01*
X76083318Y-119739437D01*
X75913984Y-119739437D01*
X75829318Y-119697104D01*
X75786984Y-119654771D01*
X75744651Y-119570104D01*
X75744651Y-118850437D01*
X75363651Y-118935104D02*
X75321318Y-118892771D01*
X75236651Y-118850437D01*
X75024984Y-118850437D01*
X74940318Y-118892771D01*
X74897984Y-118935104D01*
X74855651Y-119019771D01*
X74855651Y-119104437D01*
X74897984Y-119231437D01*
X75405984Y-119739437D01*
X74855651Y-119739437D01*
X77675051Y-80115437D02*
X77675051Y-80835104D01*
X77632718Y-80919771D01*
X77590384Y-80962104D01*
X77505718Y-81004437D01*
X77336384Y-81004437D01*
X77251718Y-80962104D01*
X77209384Y-80919771D01*
X77167051Y-80835104D01*
X77167051Y-80115437D01*
X76320384Y-80115437D02*
X76743718Y-80115437D01*
X76786051Y-80538771D01*
X76743718Y-80496437D01*
X76659051Y-80454104D01*
X76447384Y-80454104D01*
X76362718Y-80496437D01*
X76320384Y-80538771D01*
X76278051Y-80623437D01*
X76278051Y-80835104D01*
X76320384Y-80919771D01*
X76362718Y-80962104D01*
X76447384Y-81004437D01*
X76659051Y-81004437D01*
X76743718Y-80962104D01*
X76786051Y-80919771D01*
D11*
X77469857Y-108820032D02*
X77327000Y-108867651D01*
X77088904Y-108867651D01*
X76993666Y-108820032D01*
X76946047Y-108772413D01*
X76898428Y-108677175D01*
X76898428Y-108581937D01*
X76946047Y-108486699D01*
X76993666Y-108439080D01*
X77088904Y-108391461D01*
X77279380Y-108343842D01*
X77374619Y-108296223D01*
X77422238Y-108248604D01*
X77469857Y-108153366D01*
X77469857Y-108058128D01*
X77422238Y-107962890D01*
X77374619Y-107915271D01*
X77279380Y-107867651D01*
X77041285Y-107867651D01*
X76898428Y-107915271D01*
X76184142Y-107867651D02*
X76184142Y-108581937D01*
X76231761Y-108724794D01*
X76327000Y-108820032D01*
X76469857Y-108867651D01*
X76565095Y-108867651D01*
X75755571Y-107962890D02*
X75707952Y-107915271D01*
X75612714Y-107867651D01*
X75374619Y-107867651D01*
X75279380Y-107915271D01*
X75231761Y-107962890D01*
X75184142Y-108058128D01*
X75184142Y-108153366D01*
X75231761Y-108296223D01*
X75803190Y-108867651D01*
X75184142Y-108867651D01*
D12*
X74330718Y-102475904D02*
X74203718Y-102518237D01*
X73992051Y-102518237D01*
X73907384Y-102475904D01*
X73865051Y-102433571D01*
X73822718Y-102348904D01*
X73822718Y-102264237D01*
X73865051Y-102179571D01*
X73907384Y-102137237D01*
X73992051Y-102094904D01*
X74161384Y-102052571D01*
X74246051Y-102010237D01*
X74288384Y-101967904D01*
X74330718Y-101883237D01*
X74330718Y-101798571D01*
X74288384Y-101713904D01*
X74246051Y-101671571D01*
X74161384Y-101629237D01*
X73949718Y-101629237D01*
X73822718Y-101671571D01*
X73187718Y-101629237D02*
X73187718Y-102264237D01*
X73230051Y-102391237D01*
X73314718Y-102475904D01*
X73441718Y-102518237D01*
X73526384Y-102518237D01*
X72383384Y-101925571D02*
X72383384Y-102518237D01*
X72595051Y-101586904D02*
X72806718Y-102221904D01*
X72256384Y-102221904D01*
D11*
X69606222Y-102914651D02*
X69606222Y-103724175D01*
X69558603Y-103819413D01*
X69510984Y-103867032D01*
X69415746Y-103914651D01*
X69225270Y-103914651D01*
X69130032Y-103867032D01*
X69082413Y-103819413D01*
X69034794Y-103724175D01*
X69034794Y-102914651D01*
X68034794Y-103914651D02*
X68606222Y-103914651D01*
X68320508Y-103914651D02*
X68320508Y-102914651D01*
X68415746Y-103057509D01*
X68510984Y-103152747D01*
X68606222Y-103200366D01*
X72733651Y-125698451D02*
X72733651Y-126412737D01*
X72781270Y-126555594D01*
X72876508Y-126650832D01*
X73019365Y-126698451D01*
X73114603Y-126698451D01*
X71828889Y-126031785D02*
X71828889Y-126698451D01*
X72066984Y-125650832D02*
X72305079Y-126365118D01*
X71686032Y-126365118D01*
X69219003Y-127612851D02*
X69790432Y-127612851D01*
X69504718Y-127612851D02*
X69504718Y-126612851D01*
X69599956Y-126755709D01*
X69695194Y-126850947D01*
X69790432Y-126898566D01*
X75476851Y-126587451D02*
X74857803Y-126587451D01*
X75191137Y-126968404D01*
X75048279Y-126968404D01*
X74953041Y-127016023D01*
X74905422Y-127063642D01*
X74857803Y-127158880D01*
X74857803Y-127396975D01*
X74905422Y-127492213D01*
X74953041Y-127539832D01*
X75048279Y-127587451D01*
X75333994Y-127587451D01*
X75429232Y-127539832D01*
X75476851Y-127492213D01*
G36*
X73080899Y-131469040D02*
G01*
X73132917Y-131478645D01*
X73180277Y-131494652D01*
X73222981Y-131517062D01*
X73261027Y-131545875D01*
X73292936Y-131579742D01*
X73317754Y-131617842D01*
X73335481Y-131660175D01*
X73346118Y-131706742D01*
X73349663Y-131757542D01*
X73345777Y-131807771D01*
X73334119Y-131852627D01*
X73314688Y-131892107D01*
X73287486Y-131926213D01*
X73259599Y-131950079D01*
X73225679Y-131971404D01*
X73185727Y-131990190D01*
X73139743Y-132006435D01*
X73087726Y-132020140D01*
X73016288Y-132036677D01*
X72958741Y-132052773D01*
X72913983Y-132072837D01*
X72882012Y-132096869D01*
X72860331Y-132126782D01*
X72847322Y-132164486D01*
X72842986Y-132209979D01*
X72849233Y-132260250D01*
X72867975Y-132302583D01*
X72899210Y-132336979D01*
X72930133Y-132356657D01*
X72966679Y-132370713D01*
X73008847Y-132379147D01*
X73056637Y-132381958D01*
X73102425Y-132379459D01*
X73148065Y-132371963D01*
X73193559Y-132359468D01*
X73239494Y-132341609D01*
X73287339Y-132318017D01*
X73337095Y-132288692D01*
X73337095Y-132430906D01*
X73289985Y-132449059D01*
X73243021Y-132463832D01*
X73196205Y-132475224D01*
X73149535Y-132483676D01*
X73103013Y-132488747D01*
X73056637Y-132490437D01*
X72993137Y-132487474D01*
X72935987Y-132478584D01*
X72885187Y-132463767D01*
X72840737Y-132443024D01*
X72802637Y-132416354D01*
X72771205Y-132384048D01*
X72746757Y-132346398D01*
X72729295Y-132303403D01*
X72718817Y-132255064D01*
X72715324Y-132201380D01*
X72719294Y-132144660D01*
X72731200Y-132094224D01*
X72751044Y-132050072D01*
X72778824Y-132012203D01*
X72807241Y-131985903D01*
X72841690Y-131962567D01*
X72882171Y-131942194D01*
X72928685Y-131924785D01*
X72981231Y-131910338D01*
X73051345Y-131894463D01*
X73110142Y-131877780D01*
X73155121Y-131858598D01*
X73186283Y-131836917D01*
X73213072Y-131794749D01*
X73222002Y-131737036D01*
X73215902Y-131690661D01*
X73197601Y-131651194D01*
X73167101Y-131618635D01*
X73126090Y-131594015D01*
X73076260Y-131579242D01*
X73017611Y-131574317D01*
X72976307Y-131576523D01*
X72935296Y-131583138D01*
X72894580Y-131594161D01*
X72853643Y-131609522D01*
X72812853Y-131629146D01*
X72772210Y-131653031D01*
X72772210Y-131517432D01*
X72817777Y-131501705D01*
X72861875Y-131488916D01*
X72904502Y-131479067D01*
X72945733Y-131471719D01*
X72985641Y-131467309D01*
X73024226Y-131465838D01*
X73080899Y-131469040D01*
G37*
D13*
X73080899Y-131469040D02*
X73132917Y-131478645D01*
X73180277Y-131494652D01*
X73222981Y-131517062D01*
X73261027Y-131545875D01*
X73292936Y-131579742D01*
X73317754Y-131617842D01*
X73335481Y-131660175D01*
X73346118Y-131706742D01*
X73349663Y-131757542D01*
X73345777Y-131807771D01*
X73334119Y-131852627D01*
X73314688Y-131892107D01*
X73287486Y-131926213D01*
X73259599Y-131950079D01*
X73225679Y-131971404D01*
X73185727Y-131990190D01*
X73139743Y-132006435D01*
X73087726Y-132020140D01*
X73016288Y-132036677D01*
X72958741Y-132052773D01*
X72913983Y-132072837D01*
X72882012Y-132096869D01*
X72860331Y-132126782D01*
X72847322Y-132164486D01*
X72842986Y-132209979D01*
X72849233Y-132260250D01*
X72867975Y-132302583D01*
X72899210Y-132336979D01*
X72930133Y-132356657D01*
X72966679Y-132370713D01*
X73008847Y-132379147D01*
X73056637Y-132381958D01*
X73102425Y-132379459D01*
X73148065Y-132371963D01*
X73193559Y-132359468D01*
X73239494Y-132341609D01*
X73287339Y-132318017D01*
X73337095Y-132288692D01*
X73337095Y-132430906D01*
X73289985Y-132449059D01*
X73243021Y-132463832D01*
X73196205Y-132475224D01*
X73149535Y-132483676D01*
X73103013Y-132488747D01*
X73056637Y-132490437D01*
X72993137Y-132487474D01*
X72935987Y-132478584D01*
X72885187Y-132463767D01*
X72840737Y-132443024D01*
X72802637Y-132416354D01*
X72771205Y-132384048D01*
X72746757Y-132346398D01*
X72729295Y-132303403D01*
X72718817Y-132255064D01*
X72715324Y-132201380D01*
X72719294Y-132144660D01*
X72731200Y-132094224D01*
X72751044Y-132050072D01*
X72778824Y-132012203D01*
X72807241Y-131985903D01*
X72841690Y-131962567D01*
X72882171Y-131942194D01*
X72928685Y-131924785D01*
X72981231Y-131910338D01*
X73051345Y-131894463D01*
X73110142Y-131877780D01*
X73155121Y-131858598D01*
X73186283Y-131836917D01*
X73213072Y-131794749D01*
X73222002Y-131737036D01*
X73215902Y-131690661D01*
X73197601Y-131651194D01*
X73167101Y-131618635D01*
X73126090Y-131594015D01*
X73076260Y-131579242D01*
X73017611Y-131574317D01*
X72976307Y-131576523D01*
X72935296Y-131583138D01*
X72894580Y-131594161D01*
X72853643Y-131609522D01*
X72812853Y-131629146D01*
X72772210Y-131653031D01*
X72772210Y-131517432D01*
X72817777Y-131501705D01*
X72861875Y-131488916D01*
X72904502Y-131479067D01*
X72945733Y-131471719D01*
X72985641Y-131467309D01*
X73024226Y-131465838D01*
X73080899Y-131469040D01*
G36*
X73523462Y-131857381D02*
G01*
X73529870Y-131803007D01*
X73538841Y-131752746D01*
X73550375Y-131706599D01*
X73564472Y-131664566D01*
X73581132Y-131626645D01*
X73600356Y-131592838D01*
X73629864Y-131554033D01*
X73664150Y-131522283D01*
X73703213Y-131497589D01*
X73747053Y-131479950D01*
X73795670Y-131469367D01*
X73849064Y-131465838D01*
X73902275Y-131469367D01*
X73950782Y-131479950D01*
X73994585Y-131497589D01*
X74033685Y-131522283D01*
X74068080Y-131554033D01*
X74097772Y-131592838D01*
X74116841Y-131626645D01*
X74133367Y-131664566D01*
X74147351Y-131706599D01*
X74158792Y-131752746D01*
X74167691Y-131803007D01*
X74174047Y-131857381D01*
X74177860Y-131915868D01*
X74179132Y-131978468D01*
X74177860Y-132041214D01*
X74174047Y-132099805D01*
X74167691Y-132154241D01*
X74158792Y-132204522D01*
X74147351Y-132250648D01*
X74133367Y-132292620D01*
X74116841Y-132330437D01*
X74097772Y-132364099D01*
X74068264Y-132402702D01*
X74033979Y-132434287D01*
X73994916Y-132458853D01*
X73951076Y-132476400D01*
X73902459Y-132486928D01*
X73849064Y-132490437D01*
X73795670Y-132486910D01*
X73747053Y-132476326D01*
X73703213Y-132458687D01*
X73664150Y-132433993D01*
X73629864Y-132402243D01*
X73600356Y-132363437D01*
X73581132Y-132329641D01*
X73564472Y-132291752D01*
X73550375Y-132249770D01*
X73538841Y-132203695D01*
X73529870Y-132153528D01*
X73523462Y-132099267D01*
X73519617Y-132040914D01*
X73518335Y-131978468D01*
X73657902Y-131978468D01*
X73659152Y-132047554D01*
X73662901Y-132109731D01*
X73669148Y-132165000D01*
X73677894Y-132213360D01*
X73689138Y-132254811D01*
X73702882Y-132289354D01*
X73728638Y-132329868D01*
X73761587Y-132358807D01*
X73801729Y-132376170D01*
X73849064Y-132381958D01*
X73896152Y-132376129D01*
X73936211Y-132358642D01*
X73969243Y-132329496D01*
X73995246Y-132288692D01*
X74008788Y-132254168D01*
X74019867Y-132212772D01*
X74028485Y-132164504D01*
X74034640Y-132109364D01*
X74038333Y-132047352D01*
X74039564Y-131978468D01*
X74038333Y-131909383D01*
X74034640Y-131847206D01*
X74028485Y-131791938D01*
X74019867Y-131743578D01*
X74008788Y-131702126D01*
X73995246Y-131667583D01*
X73969243Y-131626780D01*
X73936211Y-131597635D01*
X73896152Y-131580147D01*
X73849064Y-131574317D01*
X73801729Y-131580147D01*
X73761587Y-131597635D01*
X73728638Y-131626780D01*
X73702882Y-131667583D01*
X73689138Y-131702126D01*
X73677894Y-131743578D01*
X73669148Y-131791938D01*
X73662901Y-131847206D01*
X73659152Y-131909383D01*
X73657902Y-131978468D01*
X73518335Y-131978468D01*
X73519617Y-131915868D01*
X73523462Y-131857381D01*
G37*
X73523462Y-131857381D02*
X73529870Y-131803007D01*
X73538841Y-131752746D01*
X73550375Y-131706599D01*
X73564472Y-131664566D01*
X73581132Y-131626645D01*
X73600356Y-131592838D01*
X73629864Y-131554033D01*
X73664150Y-131522283D01*
X73703213Y-131497589D01*
X73747053Y-131479950D01*
X73795670Y-131469367D01*
X73849064Y-131465838D01*
X73902275Y-131469367D01*
X73950782Y-131479950D01*
X73994585Y-131497589D01*
X74033685Y-131522283D01*
X74068080Y-131554033D01*
X74097772Y-131592838D01*
X74116841Y-131626645D01*
X74133367Y-131664566D01*
X74147351Y-131706599D01*
X74158792Y-131752746D01*
X74167691Y-131803007D01*
X74174047Y-131857381D01*
X74177860Y-131915868D01*
X74179132Y-131978468D01*
X74177860Y-132041214D01*
X74174047Y-132099805D01*
X74167691Y-132154241D01*
X74158792Y-132204522D01*
X74147351Y-132250648D01*
X74133367Y-132292620D01*
X74116841Y-132330437D01*
X74097772Y-132364099D01*
X74068264Y-132402702D01*
X74033979Y-132434287D01*
X73994916Y-132458853D01*
X73951076Y-132476400D01*
X73902459Y-132486928D01*
X73849064Y-132490437D01*
X73795670Y-132486910D01*
X73747053Y-132476326D01*
X73703213Y-132458687D01*
X73664150Y-132433993D01*
X73629864Y-132402243D01*
X73600356Y-132363437D01*
X73581132Y-132329641D01*
X73564472Y-132291752D01*
X73550375Y-132249770D01*
X73538841Y-132203695D01*
X73529870Y-132153528D01*
X73523462Y-132099267D01*
X73519617Y-132040914D01*
X73518335Y-131978468D01*
X73657902Y-131978468D01*
X73659152Y-132047554D01*
X73662901Y-132109731D01*
X73669148Y-132165000D01*
X73677894Y-132213360D01*
X73689138Y-132254811D01*
X73702882Y-132289354D01*
X73728638Y-132329868D01*
X73761587Y-132358807D01*
X73801729Y-132376170D01*
X73849064Y-132381958D01*
X73896152Y-132376129D01*
X73936211Y-132358642D01*
X73969243Y-132329496D01*
X73995246Y-132288692D01*
X74008788Y-132254168D01*
X74019867Y-132212772D01*
X74028485Y-132164504D01*
X74034640Y-132109364D01*
X74038333Y-132047352D01*
X74039564Y-131978468D01*
X74038333Y-131909383D01*
X74034640Y-131847206D01*
X74028485Y-131791938D01*
X74019867Y-131743578D01*
X74008788Y-131702126D01*
X73995246Y-131667583D01*
X73969243Y-131626780D01*
X73936211Y-131597635D01*
X73896152Y-131580147D01*
X73849064Y-131574317D01*
X73801729Y-131580147D01*
X73761587Y-131597635D01*
X73728638Y-131626780D01*
X73702882Y-131667583D01*
X73689138Y-131702126D01*
X73677894Y-131743578D01*
X73669148Y-131791938D01*
X73662901Y-131847206D01*
X73659152Y-131909383D01*
X73657902Y-131978468D01*
X73518335Y-131978468D01*
X73519617Y-131915868D01*
X73523462Y-131857381D01*
G36*
X72036007Y-131888510D02*
G01*
X72401793Y-131888510D01*
X72401793Y-131483698D01*
X72536069Y-131483698D01*
X72536069Y-132471255D01*
X72401793Y-132471255D01*
X72401793Y-132000958D01*
X72036007Y-132000958D01*
X72036007Y-132471255D01*
X71901731Y-132471255D01*
X71901731Y-131483698D01*
X72036007Y-131483698D01*
X72036007Y-131888510D01*
G37*
X72036007Y-131888510D02*
X72401793Y-131888510D01*
X72401793Y-131483698D01*
X72536069Y-131483698D01*
X72536069Y-132471255D01*
X72401793Y-132471255D01*
X72401793Y-132000958D01*
X72036007Y-132000958D01*
X72036007Y-132471255D01*
X71901731Y-132471255D01*
X71901731Y-131483698D01*
X72036007Y-131483698D01*
X72036007Y-131888510D01*
G36*
X70639780Y-132748889D02*
G01*
X74465656Y-132748889D01*
X74465656Y-131166680D01*
X71210399Y-131166680D01*
X71210399Y-130997347D01*
X74634989Y-130997347D01*
X74634989Y-132918222D01*
X70470447Y-132918222D01*
X70470447Y-130997347D01*
X70636146Y-130997347D01*
X70639780Y-132748889D01*
G37*
X70639780Y-132748889D02*
X74465656Y-132748889D01*
X74465656Y-131166680D01*
X71210399Y-131166680D01*
X71210399Y-130997347D01*
X74634989Y-130997347D01*
X74634989Y-132918222D01*
X70470447Y-132918222D01*
X70470447Y-130997347D01*
X70636146Y-130997347D01*
X70639780Y-132748889D01*
D10*
X77674200Y-120087959D02*
X77674200Y-120395241D01*
X78434200Y-120087959D02*
X78434200Y-120395241D01*
X67070718Y-88063635D02*
X67070718Y-88279307D01*
X66350718Y-88063635D02*
X66350718Y-88279307D01*
X73099800Y-91528000D02*
X75649800Y-91528000D01*
X73099800Y-91528000D02*
X73099800Y-89828000D01*
X73099800Y-89828000D02*
X75649800Y-89828000D01*
X73135671Y-80220277D02*
X73442953Y-80220277D01*
X73135671Y-79460277D02*
X73442953Y-79460277D01*
X72207800Y-116998636D02*
X72207800Y-116782964D01*
X72927800Y-116998636D02*
X72927800Y-116782964D01*
X76968236Y-104855600D02*
X76752564Y-104855600D01*
X76968236Y-104135600D02*
X76752564Y-104135600D01*
X74468400Y-103625764D02*
X74468400Y-103841436D01*
X75188400Y-103625764D02*
X75188400Y-103841436D01*
X71012164Y-101595600D02*
X71227836Y-101595600D01*
X71012164Y-102315600D02*
X71227836Y-102315600D01*
X66998000Y-86799000D02*
X67258000Y-86799000D01*
X72448000Y-84074000D02*
X72448000Y-86799000D01*
X67258000Y-81349000D02*
X67258000Y-79674000D01*
X72448000Y-81349000D02*
X72188000Y-81349000D01*
X66998000Y-81349000D02*
X67258000Y-81349000D01*
X72448000Y-84074000D02*
X72448000Y-81349000D01*
X66998000Y-84074000D02*
X66998000Y-86799000D01*
X72448000Y-86799000D02*
X72188000Y-86799000D01*
X66998000Y-84074000D02*
X66998000Y-81349000D01*
X72059800Y-125381600D02*
X74784800Y-125381600D01*
X72059800Y-119931600D02*
X74784800Y-119931600D01*
X69334800Y-119931600D02*
X69334800Y-120191600D01*
X69334800Y-125381600D02*
X69334800Y-125121600D01*
X72059800Y-119931600D02*
X69334800Y-119931600D01*
X74784800Y-120191600D02*
X76459800Y-120191600D01*
X74784800Y-125381600D02*
X74784800Y-125121600D01*
X74784800Y-119931600D02*
X74784800Y-120191600D01*
X72059800Y-125381600D02*
X69334800Y-125381600D01*
X73158236Y-88844800D02*
X72942564Y-88844800D01*
X73158236Y-89564800D02*
X72942564Y-89564800D01*
X70226600Y-99790364D02*
X70226600Y-100006036D01*
X70946600Y-99790364D02*
X70946600Y-100006036D01*
X76942836Y-97633200D02*
X76727164Y-97633200D01*
X76942836Y-98353200D02*
X76727164Y-98353200D01*
X72878000Y-84795000D02*
X72878000Y-86745000D01*
X72878000Y-84795000D02*
X72878000Y-81345000D01*
X77998000Y-84795000D02*
X77998000Y-82845000D01*
X77998000Y-84795000D02*
X77998000Y-86745000D01*
G36*
X70457993Y-98564172D02*
G01*
X70446370Y-98617206D01*
X70424361Y-98662701D01*
X70392186Y-98700325D01*
X70350066Y-98729749D01*
X70298224Y-98750642D01*
X70279115Y-98754244D01*
X70247810Y-98756683D01*
X70210403Y-98757291D01*
X70170531Y-98756180D01*
X70131829Y-98753462D01*
X70097934Y-98749250D01*
X70072482Y-98743657D01*
X70058548Y-98739074D01*
X70044014Y-98733567D01*
X70038377Y-98730338D01*
X70039081Y-98725691D01*
X70041748Y-98711134D01*
X70045738Y-98690373D01*
X70050337Y-98667106D01*
X70054832Y-98645029D01*
X70055017Y-98644151D01*
X70057411Y-98637058D01*
X70062746Y-98634276D01*
X70074246Y-98635408D01*
X70095134Y-98640055D01*
X70110928Y-98643236D01*
X70150846Y-98647675D01*
X70191845Y-98648101D01*
X70229420Y-98644593D01*
X70259068Y-98637227D01*
X70278819Y-98626432D01*
X70298248Y-98609522D01*
X70312302Y-98590702D01*
X70317712Y-98573521D01*
X70317232Y-98572118D01*
X70312377Y-98569522D01*
X70301207Y-98567488D01*
X70282388Y-98565921D01*
X70254584Y-98564732D01*
X70216458Y-98563826D01*
X70166677Y-98563114D01*
X70015641Y-98561370D01*
X70013499Y-98522393D01*
X70013187Y-98495332D01*
X70016870Y-98467175D01*
X70147404Y-98467175D01*
X70232558Y-98467175D01*
X70260181Y-98467105D01*
X70286351Y-98466648D01*
X70303142Y-98465513D01*
X70312601Y-98463410D01*
X70316776Y-98460050D01*
X70317712Y-98455144D01*
X70314607Y-98440690D01*
X70302091Y-98420049D01*
X70283013Y-98401697D01*
X70260659Y-98389422D01*
X70241156Y-98383831D01*
X70225575Y-98383823D01*
X70206242Y-98389422D01*
X70188022Y-98398049D01*
X70164844Y-98419599D01*
X70151649Y-98449311D01*
X70147404Y-98467175D01*
X70016870Y-98467175D01*
X70020215Y-98441600D01*
X70037108Y-98393795D01*
X70063164Y-98353164D01*
X70097678Y-98320951D01*
X70139946Y-98298405D01*
X70152083Y-98294368D01*
X70196502Y-98286266D01*
X70244531Y-98285774D01*
X70291312Y-98292681D01*
X70331988Y-98306774D01*
X70363558Y-98325628D01*
X70401892Y-98360733D01*
X70431214Y-98404079D01*
X70450663Y-98454291D01*
X70450796Y-98455144D01*
X70459377Y-98509994D01*
X70457993Y-98564172D01*
G37*
G36*
X72529614Y-98544548D02*
G01*
X72529046Y-98572051D01*
X72527287Y-98592114D01*
X72523682Y-98608370D01*
X72517573Y-98624452D01*
X72508305Y-98643991D01*
X72498710Y-98661572D01*
X72470482Y-98699609D01*
X72437017Y-98729673D01*
X72400875Y-98749253D01*
X72383681Y-98753929D01*
X72349704Y-98757594D01*
X72312730Y-98756609D01*
X72277892Y-98751234D01*
X72250321Y-98741723D01*
X72245310Y-98738985D01*
X72224801Y-98725402D01*
X72208588Y-98711414D01*
X72196621Y-98699800D01*
X72187660Y-98695986D01*
X72183274Y-98703767D01*
X72182111Y-98723774D01*
X72182111Y-98753007D01*
X72043882Y-98753007D01*
X72047979Y-98718902D01*
X72048723Y-98707623D01*
X72049510Y-98683928D01*
X72050227Y-98649995D01*
X72050856Y-98607284D01*
X72051379Y-98557255D01*
X72051641Y-98520446D01*
X72201624Y-98520446D01*
X72202176Y-98544295D01*
X72206255Y-98578605D01*
X72215046Y-98603512D01*
X72229421Y-98621042D01*
X72250255Y-98633219D01*
X72274790Y-98640727D01*
X72304298Y-98640328D01*
X72332187Y-98627903D01*
X72350125Y-98612577D01*
X72369853Y-98582701D01*
X72380669Y-98546547D01*
X72381965Y-98506532D01*
X72373134Y-98465073D01*
X72363058Y-98443322D01*
X72341574Y-98418496D01*
X72314260Y-98403644D01*
X72283256Y-98399769D01*
X72250707Y-98407870D01*
X72249793Y-98408277D01*
X72229612Y-98419651D01*
X72215764Y-98434123D01*
X72207190Y-98454126D01*
X72202830Y-98482090D01*
X72201624Y-98520446D01*
X72051641Y-98520446D01*
X72051777Y-98501367D01*
X72052034Y-98441080D01*
X72052132Y-98377853D01*
X72052188Y-98070909D01*
X72201600Y-98070909D01*
X72201600Y-98201297D01*
X72201605Y-98217768D01*
X72201718Y-98257788D01*
X72202089Y-98286844D01*
X72202859Y-98306446D01*
X72204170Y-98318104D01*
X72206163Y-98323329D01*
X72208979Y-98323633D01*
X72212759Y-98320525D01*
X72213672Y-98319629D01*
X72239705Y-98302369D01*
X72274023Y-98290873D01*
X72313189Y-98285615D01*
X72353764Y-98287071D01*
X72392310Y-98295716D01*
X72393087Y-98295984D01*
X72426850Y-98313332D01*
X72459880Y-98340213D01*
X72488937Y-98373499D01*
X72510784Y-98410065D01*
X72513183Y-98415309D01*
X72520701Y-98433329D01*
X72525512Y-98449735D01*
X72528211Y-98468179D01*
X72529394Y-98492309D01*
X72529505Y-98506532D01*
X72529656Y-98525778D01*
X72529614Y-98544548D01*
G37*
G36*
X73543671Y-98564172D02*
G01*
X73532048Y-98617206D01*
X73510038Y-98662701D01*
X73477863Y-98700325D01*
X73435744Y-98729749D01*
X73383902Y-98750642D01*
X73364793Y-98754244D01*
X73333487Y-98756683D01*
X73296081Y-98757291D01*
X73256208Y-98756180D01*
X73217507Y-98753462D01*
X73183612Y-98749250D01*
X73158160Y-98743657D01*
X73144226Y-98739074D01*
X73129692Y-98733567D01*
X73124055Y-98730338D01*
X73124759Y-98725691D01*
X73127426Y-98711134D01*
X73131415Y-98690373D01*
X73136014Y-98667106D01*
X73140510Y-98645029D01*
X73140694Y-98644151D01*
X73143089Y-98637058D01*
X73148424Y-98634276D01*
X73159923Y-98635408D01*
X73180811Y-98640055D01*
X73196606Y-98643236D01*
X73236524Y-98647675D01*
X73277523Y-98648101D01*
X73315098Y-98644593D01*
X73344746Y-98637227D01*
X73364497Y-98626432D01*
X73383926Y-98609522D01*
X73397979Y-98590702D01*
X73403390Y-98573521D01*
X73402909Y-98572118D01*
X73398054Y-98569522D01*
X73386885Y-98567488D01*
X73368066Y-98565921D01*
X73340261Y-98564732D01*
X73302136Y-98563826D01*
X73252354Y-98563114D01*
X73101319Y-98561370D01*
X73099177Y-98522393D01*
X73098865Y-98495332D01*
X73102548Y-98467175D01*
X73233081Y-98467175D01*
X73318236Y-98467175D01*
X73345859Y-98467105D01*
X73372029Y-98466648D01*
X73388820Y-98465513D01*
X73398279Y-98463410D01*
X73402454Y-98460050D01*
X73403390Y-98455144D01*
X73400285Y-98440690D01*
X73387768Y-98420049D01*
X73368691Y-98401697D01*
X73346337Y-98389422D01*
X73326834Y-98383831D01*
X73311252Y-98383823D01*
X73291920Y-98389422D01*
X73273700Y-98398049D01*
X73250522Y-98419599D01*
X73237327Y-98449311D01*
X73233081Y-98467175D01*
X73102548Y-98467175D01*
X73105893Y-98441600D01*
X73122786Y-98393795D01*
X73148842Y-98353164D01*
X73183355Y-98320951D01*
X73225624Y-98298405D01*
X73237761Y-98294368D01*
X73282180Y-98286266D01*
X73330209Y-98285774D01*
X73376989Y-98292681D01*
X73417666Y-98306774D01*
X73449236Y-98325628D01*
X73487569Y-98360733D01*
X73516892Y-98404079D01*
X73536341Y-98454291D01*
X73536474Y-98455144D01*
X73545054Y-98509994D01*
X73543671Y-98564172D01*
G37*
G36*
X71967738Y-98551626D02*
G01*
X71714388Y-98551626D01*
X71714388Y-98454183D01*
X71967738Y-98454183D01*
X71967738Y-98551626D01*
G37*
G36*
X73994541Y-98753007D02*
G01*
X73591779Y-98753007D01*
X73591779Y-98629580D01*
X73845129Y-98629580D01*
X73845129Y-98103390D01*
X73994541Y-98103390D01*
X73994541Y-98753007D01*
G37*
G36*
X70964694Y-98564172D02*
G01*
X70953071Y-98617206D01*
X70931062Y-98662701D01*
X70898887Y-98700325D01*
X70856767Y-98729749D01*
X70804925Y-98750642D01*
X70785816Y-98754244D01*
X70754510Y-98756683D01*
X70717104Y-98757291D01*
X70677231Y-98756180D01*
X70638530Y-98753462D01*
X70604635Y-98749250D01*
X70579183Y-98743657D01*
X70565249Y-98739074D01*
X70550715Y-98733567D01*
X70545078Y-98730338D01*
X70545782Y-98725691D01*
X70548449Y-98711134D01*
X70552438Y-98690373D01*
X70557038Y-98667106D01*
X70561533Y-98645029D01*
X70561717Y-98644151D01*
X70564112Y-98637058D01*
X70569447Y-98634276D01*
X70580946Y-98635408D01*
X70601834Y-98640055D01*
X70617629Y-98643236D01*
X70657547Y-98647675D01*
X70698546Y-98648101D01*
X70736121Y-98644593D01*
X70765769Y-98637227D01*
X70785520Y-98626432D01*
X70804949Y-98609522D01*
X70819002Y-98590702D01*
X70824413Y-98573521D01*
X70823932Y-98572118D01*
X70819077Y-98569522D01*
X70807908Y-98567488D01*
X70789089Y-98565921D01*
X70761284Y-98564732D01*
X70723159Y-98563826D01*
X70673377Y-98563114D01*
X70522342Y-98561370D01*
X70520200Y-98522393D01*
X70519888Y-98495332D01*
X70523571Y-98467175D01*
X70654105Y-98467175D01*
X70739259Y-98467175D01*
X70766882Y-98467105D01*
X70793052Y-98466648D01*
X70809843Y-98465513D01*
X70819302Y-98463410D01*
X70823477Y-98460050D01*
X70824413Y-98455144D01*
X70821308Y-98440690D01*
X70808791Y-98420049D01*
X70789714Y-98401697D01*
X70767360Y-98389422D01*
X70747857Y-98383831D01*
X70732275Y-98383823D01*
X70712943Y-98389422D01*
X70694723Y-98398049D01*
X70671545Y-98419599D01*
X70658350Y-98449311D01*
X70654105Y-98467175D01*
X70523571Y-98467175D01*
X70526916Y-98441600D01*
X70543809Y-98393795D01*
X70569865Y-98353164D01*
X70604378Y-98320951D01*
X70646647Y-98298405D01*
X70658784Y-98294368D01*
X70703203Y-98286266D01*
X70751232Y-98285774D01*
X70798012Y-98292681D01*
X70838689Y-98306774D01*
X70870259Y-98325628D01*
X70908592Y-98360733D01*
X70937915Y-98404079D01*
X70957364Y-98454291D01*
X70957497Y-98455144D01*
X70966077Y-98509994D01*
X70964694Y-98564172D01*
G37*
G36*
X67778986Y-95986960D02*
G01*
X67833157Y-95987327D01*
X67883775Y-95987971D01*
X67929267Y-95988901D01*
X67968061Y-95990127D01*
X67998582Y-95991660D01*
X68174604Y-96006941D01*
X68346083Y-96030038D01*
X68507463Y-96060661D01*
X68659055Y-96098900D01*
X68801170Y-96144845D01*
X68934121Y-96198584D01*
X69058218Y-96260209D01*
X69173775Y-96329808D01*
X69243986Y-96379001D01*
X69347369Y-96463419D01*
X69440229Y-96555305D01*
X69522838Y-96654968D01*
X69595469Y-96762718D01*
X69658396Y-96878863D01*
X69663984Y-96890530D01*
X69677815Y-96920319D01*
X69688935Y-96945584D01*
X69696323Y-96963954D01*
X69698956Y-96973058D01*
X69700716Y-96982564D01*
X69705776Y-97001707D01*
X69713351Y-97027623D01*
X69722655Y-97057508D01*
X69742838Y-97126515D01*
X69768949Y-97241462D01*
X69788574Y-97365811D01*
X69801809Y-97500236D01*
X69808754Y-97645411D01*
X69809984Y-97701379D01*
X69810427Y-97752152D01*
X69809657Y-97793366D01*
X69807404Y-97826812D01*
X69803400Y-97854278D01*
X69797377Y-97877554D01*
X69789067Y-97898428D01*
X69778199Y-97918689D01*
X69764507Y-97940127D01*
X69754913Y-97954246D01*
X69741221Y-97973086D01*
X69731645Y-97983421D01*
X69724451Y-97986932D01*
X69717904Y-97985302D01*
X69710892Y-97980889D01*
X69690738Y-97963804D01*
X69667817Y-97939940D01*
X69644807Y-97912414D01*
X69624386Y-97884341D01*
X69609232Y-97858838D01*
X69586894Y-97814311D01*
X69586510Y-97619426D01*
X69586456Y-97597714D01*
X69586111Y-97539709D01*
X69585333Y-97492332D01*
X69583917Y-97453807D01*
X69581654Y-97422354D01*
X69578340Y-97396197D01*
X69573766Y-97373557D01*
X69567726Y-97352657D01*
X69560014Y-97331720D01*
X69550422Y-97308967D01*
X69536690Y-97279410D01*
X69520132Y-97246894D01*
X69502787Y-97215258D01*
X69486210Y-97187231D01*
X69471956Y-97165546D01*
X69461579Y-97152933D01*
X69459948Y-97151535D01*
X69456671Y-97149886D01*
X69453971Y-97151606D01*
X69451647Y-97158064D01*
X69449498Y-97170634D01*
X69447324Y-97190684D01*
X69444922Y-97219587D01*
X69442092Y-97258714D01*
X69438632Y-97309435D01*
X69436275Y-97345299D01*
X69433419Y-97391392D01*
X69430997Y-97433552D01*
X69429130Y-97469521D01*
X69427942Y-97497044D01*
X69427554Y-97513863D01*
X69427123Y-97530079D01*
X69425338Y-97545328D01*
X69422614Y-97551216D01*
X69416252Y-97546436D01*
X69406064Y-97532325D01*
X69393953Y-97511714D01*
X69381481Y-97487469D01*
X69370211Y-97462455D01*
X69361705Y-97439537D01*
X69358096Y-97426685D01*
X69353971Y-97406461D01*
X69350557Y-97381245D01*
X69347645Y-97349036D01*
X69345025Y-97307834D01*
X69342488Y-97255641D01*
X69341892Y-97242409D01*
X69338665Y-97182585D01*
X69334847Y-97133360D01*
X69330099Y-97092736D01*
X69324081Y-97058717D01*
X69316453Y-97029303D01*
X69306877Y-97002499D01*
X69295013Y-96976306D01*
X69292884Y-96972177D01*
X69280029Y-96951115D01*
X69263472Y-96928130D01*
X69245067Y-96905319D01*
X69226672Y-96884778D01*
X69210140Y-96868604D01*
X69197329Y-96858894D01*
X69190092Y-96857745D01*
X69189641Y-96859101D01*
X69188112Y-96870949D01*
X69186159Y-96893530D01*
X69183893Y-96925223D01*
X69181425Y-96964406D01*
X69178866Y-97009457D01*
X69176327Y-97058755D01*
X69175353Y-97078439D01*
X69172901Y-97126117D01*
X69170576Y-97168826D01*
X69168474Y-97204963D01*
X69166689Y-97232928D01*
X69165319Y-97251118D01*
X69164457Y-97257932D01*
X69157021Y-97257420D01*
X69141829Y-97251344D01*
X69122011Y-97241343D01*
X69100664Y-97229091D01*
X69080883Y-97216264D01*
X69065766Y-97204537D01*
X69050798Y-97189593D01*
X69031317Y-97164031D01*
X69014935Y-97133316D01*
X69001106Y-97095880D01*
X68989286Y-97050158D01*
X68978931Y-96994581D01*
X68969495Y-96927585D01*
X68965991Y-96901566D01*
X68958344Y-96854628D01*
X68949802Y-96812648D01*
X68940796Y-96777220D01*
X68931755Y-96749941D01*
X68923108Y-96732404D01*
X68915284Y-96726204D01*
X68915133Y-96726206D01*
X68912863Y-96727296D01*
X68910673Y-96731327D01*
X68908312Y-96739719D01*
X68905529Y-96753893D01*
X68902073Y-96775268D01*
X68897694Y-96805267D01*
X68892141Y-96845308D01*
X68885163Y-96896813D01*
X68880536Y-96929899D01*
X68875336Y-96964277D01*
X68870623Y-96992587D01*
X68866780Y-97012555D01*
X68864188Y-97021908D01*
X68862224Y-97024637D01*
X68856125Y-97026498D01*
X68845167Y-97022237D01*
X68826560Y-97011050D01*
X68799872Y-96994142D01*
X68756045Y-96966788D01*
X68706867Y-96936477D01*
X68653830Y-96904098D01*
X68598424Y-96870543D01*
X68542141Y-96836699D01*
X68486472Y-96803458D01*
X68432909Y-96771707D01*
X68382942Y-96742337D01*
X68338064Y-96716238D01*
X68299765Y-96694298D01*
X68269536Y-96677408D01*
X68248869Y-96666457D01*
X68245289Y-96664681D01*
X68236214Y-96660444D01*
X68231599Y-96659095D01*
X68232253Y-96661385D01*
X68238985Y-96668064D01*
X68252605Y-96679885D01*
X68273921Y-96697596D01*
X68303743Y-96721949D01*
X68342879Y-96753695D01*
X68344492Y-96755003D01*
X68370627Y-96776771D01*
X68399084Y-96801565D01*
X68430697Y-96830180D01*
X68466296Y-96863411D01*
X68506715Y-96902054D01*
X68552786Y-96946905D01*
X68605341Y-96998758D01*
X68665213Y-97058408D01*
X68733234Y-97126651D01*
X68781699Y-97175458D01*
X68835621Y-97229873D01*
X68888356Y-97283204D01*
X68938762Y-97334291D01*
X68985700Y-97381974D01*
X69028027Y-97425094D01*
X69064603Y-97462493D01*
X69094286Y-97493011D01*
X69115937Y-97515487D01*
X69149158Y-97550434D01*
X69252592Y-97661515D01*
X69346537Y-97766322D01*
X69431759Y-97865929D01*
X69509023Y-97961411D01*
X69579093Y-98053842D01*
X69642735Y-98144296D01*
X69700713Y-98233848D01*
X69753793Y-98323572D01*
X69802739Y-98414543D01*
X69848317Y-98507836D01*
X69891291Y-98604524D01*
X69894852Y-98612938D01*
X69912801Y-98656824D01*
X69925245Y-98691167D01*
X69932398Y-98717772D01*
X69934472Y-98738442D01*
X69931680Y-98754983D01*
X69924236Y-98769197D01*
X69912352Y-98782889D01*
X69905031Y-98789770D01*
X69890979Y-98800664D01*
X69881495Y-98804947D01*
X69881046Y-98804866D01*
X69874384Y-98798140D01*
X69863649Y-98782173D01*
X69850225Y-98759180D01*
X69835495Y-98731374D01*
X69830234Y-98721168D01*
X69811201Y-98685972D01*
X69786702Y-98642458D01*
X69757893Y-98592545D01*
X69725931Y-98538151D01*
X69691972Y-98481193D01*
X69657172Y-98423591D01*
X69622688Y-98367263D01*
X69589675Y-98314126D01*
X69559290Y-98266100D01*
X69532688Y-98225102D01*
X69511028Y-98193051D01*
X69498793Y-98175524D01*
X69474634Y-98189466D01*
X69466877Y-98194278D01*
X69447074Y-98207770D01*
X69422715Y-98225359D01*
X69397395Y-98244484D01*
X69372799Y-98262853D01*
X69340750Y-98283881D01*
X69309642Y-98299775D01*
X69277170Y-98311115D01*
X69241030Y-98318484D01*
X69198917Y-98322460D01*
X69148526Y-98323626D01*
X69087552Y-98322562D01*
X69080041Y-98322317D01*
X68962386Y-98312381D01*
X68850836Y-98291075D01*
X68745014Y-98258284D01*
X68644543Y-98213894D01*
X68549048Y-98157789D01*
X68530635Y-98145260D01*
X68481383Y-98108369D01*
X68435978Y-98068464D01*
X68391280Y-98022639D01*
X68344150Y-97967984D01*
X68309685Y-97924791D01*
X68269276Y-97870367D01*
X68230332Y-97813295D01*
X68192467Y-97752746D01*
X68155293Y-97687890D01*
X68118427Y-97617898D01*
X68081480Y-97541942D01*
X68044068Y-97459190D01*
X68005805Y-97368815D01*
X67966304Y-97269986D01*
X67925179Y-97161874D01*
X67882044Y-97043651D01*
X67836514Y-96914486D01*
X67788202Y-96773550D01*
X67778452Y-96744844D01*
X67753669Y-96672761D01*
X67731761Y-96610661D01*
X67712029Y-96556757D01*
X67693774Y-96509260D01*
X67676295Y-96466382D01*
X67658892Y-96426333D01*
X67640867Y-96387326D01*
X67621518Y-96347572D01*
X67615185Y-96334966D01*
X67566481Y-96245876D01*
X67514435Y-96163453D01*
X67460456Y-96089795D01*
X67405956Y-96027001D01*
X67396734Y-96016848D01*
X67386997Y-96002649D01*
X67387842Y-95995448D01*
X67391110Y-95994504D01*
X67406473Y-95992819D01*
X67432440Y-95991323D01*
X67467437Y-95990025D01*
X67509893Y-95988936D01*
X67558233Y-95988066D01*
X67610886Y-95987423D01*
X67666278Y-95987018D01*
X67722835Y-95986860D01*
X67778986Y-95986960D01*
G37*
G36*
X73036584Y-98669183D02*
G01*
X73017757Y-98703412D01*
X72989838Y-98731342D01*
X72953603Y-98750831D01*
X72925859Y-98757330D01*
X72887438Y-98759094D01*
X72848694Y-98754635D01*
X72815487Y-98744233D01*
X72802853Y-98737872D01*
X72784893Y-98727098D01*
X72774091Y-98718312D01*
X72772678Y-98716644D01*
X72762484Y-98708428D01*
X72756016Y-98712315D01*
X72752561Y-98728646D01*
X72750526Y-98749759D01*
X72685465Y-98751593D01*
X72620403Y-98753428D01*
X72622535Y-98592437D01*
X72622952Y-98564192D01*
X72766766Y-98564192D01*
X72766831Y-98569115D01*
X72772289Y-98604354D01*
X72786450Y-98630157D01*
X72809214Y-98646332D01*
X72834137Y-98653465D01*
X72861209Y-98652374D01*
X72882673Y-98640855D01*
X72896846Y-98619423D01*
X72899903Y-98595967D01*
X72891148Y-98574790D01*
X72871560Y-98556990D01*
X72842182Y-98543512D01*
X72804051Y-98535299D01*
X72766766Y-98530640D01*
X72766766Y-98564192D01*
X72622952Y-98564192D01*
X72622970Y-98562942D01*
X72624122Y-98511288D01*
X72625877Y-98470067D01*
X72628537Y-98437560D01*
X72632405Y-98412050D01*
X72637784Y-98391816D01*
X72644976Y-98375140D01*
X72654284Y-98360302D01*
X72666012Y-98345584D01*
X72674388Y-98336939D01*
X72697720Y-98318439D01*
X72722634Y-98304069D01*
X72722864Y-98303965D01*
X72739492Y-98297169D01*
X72755655Y-98292692D01*
X72774715Y-98290070D01*
X72800034Y-98288838D01*
X72834976Y-98288531D01*
X72845111Y-98288558D01*
X72881404Y-98289410D01*
X72909844Y-98291815D01*
X72934564Y-98296261D01*
X72959697Y-98303234D01*
X72963461Y-98304432D01*
X72985845Y-98312216D01*
X73002490Y-98319096D01*
X73010029Y-98323705D01*
X73010791Y-98326343D01*
X73009689Y-98338960D01*
X73005231Y-98357151D01*
X72998681Y-98377271D01*
X72991304Y-98395675D01*
X72984364Y-98408718D01*
X72979127Y-98412758D01*
X72960346Y-98405627D01*
X72923065Y-98395604D01*
X72885871Y-98390256D01*
X72850823Y-98389430D01*
X72819978Y-98392970D01*
X72795398Y-98400722D01*
X72779139Y-98412530D01*
X72773262Y-98428240D01*
X72773275Y-98428811D01*
X72775694Y-98434279D01*
X72783960Y-98438048D01*
X72800454Y-98440768D01*
X72827557Y-98443093D01*
X72863058Y-98446968D01*
X72919147Y-98460085D01*
X72965663Y-98480967D01*
X73002172Y-98509393D01*
X73028237Y-98545142D01*
X73030742Y-98550108D01*
X73043854Y-98590390D01*
X73044087Y-98595967D01*
X73045542Y-98630795D01*
X73036584Y-98669183D01*
G37*
G36*
X74935196Y-95082007D02*
G01*
X74903000Y-95276400D01*
X74858657Y-95468305D01*
X74802258Y-95657163D01*
X74733895Y-95842411D01*
X74653659Y-96023488D01*
X74561641Y-96199834D01*
X74457934Y-96370887D01*
X74454125Y-96376723D01*
X74338525Y-96541808D01*
X74213675Y-96698100D01*
X74080069Y-96845314D01*
X73938202Y-96983166D01*
X73788571Y-97111369D01*
X73631671Y-97229640D01*
X73467998Y-97337692D01*
X73298046Y-97435240D01*
X73122313Y-97522000D01*
X72941292Y-97597686D01*
X72755481Y-97662013D01*
X72565374Y-97714696D01*
X72371467Y-97755450D01*
X72174255Y-97783990D01*
X71974234Y-97800029D01*
X71787537Y-97803391D01*
X71587868Y-97794589D01*
X71389307Y-97773112D01*
X71192535Y-97739123D01*
X70998230Y-97692786D01*
X70807070Y-97634264D01*
X70619733Y-97563720D01*
X70436900Y-97481318D01*
X70259247Y-97387221D01*
X70234704Y-97372781D01*
X70198083Y-97350289D01*
X70156703Y-97324104D01*
X70112826Y-97295722D01*
X70068717Y-97266637D01*
X70026639Y-97238345D01*
X69988857Y-97212342D01*
X69957633Y-97190123D01*
X69935232Y-97173183D01*
X69931881Y-97170491D01*
X69916649Y-97157529D01*
X69906130Y-97145791D01*
X69898304Y-97131835D01*
X69891152Y-97112217D01*
X69882658Y-97083493D01*
X69837788Y-96948457D01*
X69781516Y-96818477D01*
X69714630Y-96695886D01*
X69714097Y-96695093D01*
X69877160Y-96695093D01*
X69939904Y-96752397D01*
X70043639Y-96842235D01*
X70189536Y-96953900D01*
X70343170Y-97055837D01*
X70503618Y-97147642D01*
X70669954Y-97228908D01*
X70841256Y-97299230D01*
X71016598Y-97358201D01*
X71195056Y-97405415D01*
X71375708Y-97440468D01*
X71557627Y-97462952D01*
X71671894Y-97471118D01*
X71847026Y-97475621D01*
X72017564Y-97469703D01*
X72185662Y-97453196D01*
X72353476Y-97425932D01*
X72523160Y-97387743D01*
X72575563Y-97373823D01*
X72754539Y-97317757D01*
X72928520Y-97250023D01*
X73096998Y-97171070D01*
X73259467Y-97081344D01*
X73415420Y-96981295D01*
X73564352Y-96871370D01*
X73705756Y-96752017D01*
X73839125Y-96623684D01*
X73963953Y-96486819D01*
X74079734Y-96341870D01*
X74185961Y-96189284D01*
X74282128Y-96029511D01*
X74367728Y-95862997D01*
X74442255Y-95690190D01*
X74467412Y-95623452D01*
X74525939Y-95443354D01*
X74572035Y-95260686D01*
X74605725Y-95076099D01*
X74627034Y-94890244D01*
X74635986Y-94703773D01*
X74632609Y-94517336D01*
X74616926Y-94331584D01*
X74588962Y-94147169D01*
X74548745Y-93964742D01*
X74496297Y-93784953D01*
X74431645Y-93608455D01*
X74354814Y-93435897D01*
X74345181Y-93416306D01*
X74324174Y-93374794D01*
X74302708Y-93333786D01*
X74281678Y-93294871D01*
X74261982Y-93259635D01*
X74244514Y-93229667D01*
X74230173Y-93206554D01*
X74219853Y-93191885D01*
X74214451Y-93187246D01*
X74211489Y-93189294D01*
X74199327Y-93198638D01*
X74178830Y-93214762D01*
X74151053Y-93236827D01*
X74117049Y-93263992D01*
X74077871Y-93295417D01*
X74034572Y-93330262D01*
X73988207Y-93367687D01*
X73767205Y-93546331D01*
X73767204Y-93642627D01*
X73767200Y-93957273D01*
X73767175Y-96057099D01*
X73260475Y-96057099D01*
X73260475Y-95004630D01*
X73213377Y-95009547D01*
X73188776Y-95011530D01*
X73147110Y-95013426D01*
X73097745Y-95014500D01*
X73043266Y-95014791D01*
X72986259Y-95014341D01*
X72929308Y-95013189D01*
X72874999Y-95011375D01*
X72825916Y-95008940D01*
X72784646Y-95005925D01*
X72753774Y-95002370D01*
X72679697Y-94989454D01*
X72561482Y-94961531D01*
X72453246Y-94926055D01*
X72354495Y-94882854D01*
X72264735Y-94831755D01*
X72258570Y-94827798D01*
X72238688Y-94815335D01*
X72224056Y-94806620D01*
X72217482Y-94803339D01*
X72212483Y-94806984D01*
X72198141Y-94818194D01*
X72175266Y-94836338D01*
X72144656Y-94860777D01*
X72107107Y-94890870D01*
X72063415Y-94925980D01*
X72014377Y-94965465D01*
X71960790Y-95008688D01*
X71903450Y-95055008D01*
X71853932Y-95095068D01*
X71843154Y-95103787D01*
X71472026Y-95404234D01*
X71476882Y-95651089D01*
X71477995Y-95704611D01*
X71479350Y-95763458D01*
X71480774Y-95819741D01*
X71482210Y-95871374D01*
X71483599Y-95916274D01*
X71484883Y-95952354D01*
X71486004Y-95977529D01*
X71490270Y-96057114D01*
X71271024Y-96057107D01*
X71231785Y-96057079D01*
X71183003Y-96056966D01*
X71139716Y-96056777D01*
X71103422Y-96056521D01*
X71075622Y-96056212D01*
X71057816Y-96055859D01*
X71051501Y-96055475D01*
X71051396Y-96054434D01*
X71050405Y-96043503D01*
X71048520Y-96022229D01*
X71045907Y-95992517D01*
X71042734Y-95956267D01*
X71039168Y-95915384D01*
X71037844Y-95900460D01*
X71034062Y-95860695D01*
X71030404Y-95826058D01*
X71027097Y-95798504D01*
X71024372Y-95779988D01*
X71022455Y-95772468D01*
X71021264Y-95771976D01*
X71013378Y-95776107D01*
X71002620Y-95787508D01*
X70997009Y-95794704D01*
X70965083Y-95835099D01*
X70938754Y-95867154D01*
X70916294Y-95892771D01*
X70895972Y-95913852D01*
X70876058Y-95932298D01*
X70854823Y-95950010D01*
X70843145Y-95958975D01*
X70807491Y-95983495D01*
X70767029Y-96008221D01*
X70726971Y-96029897D01*
X70724499Y-96031137D01*
X70710262Y-96038455D01*
X70696368Y-96046058D01*
X70682017Y-96054554D01*
X70666406Y-96064553D01*
X70648735Y-96076663D01*
X70628201Y-96091494D01*
X70604004Y-96109655D01*
X70575341Y-96131755D01*
X70541412Y-96158402D01*
X70501415Y-96190207D01*
X70454547Y-96227778D01*
X70400009Y-96271724D01*
X70336998Y-96322654D01*
X70264712Y-96381178D01*
X69877160Y-96695093D01*
X69714097Y-96695093D01*
X69637317Y-96580914D01*
X69549767Y-96473792D01*
X69452167Y-96374749D01*
X69344706Y-96284016D01*
X69227573Y-96201823D01*
X69100955Y-96128400D01*
X69024396Y-96088188D01*
X68992728Y-96025082D01*
X68987207Y-96013971D01*
X68952963Y-95940639D01*
X68918129Y-95859012D01*
X68884287Y-95772925D01*
X68853016Y-95686210D01*
X68795424Y-95499915D01*
X68748797Y-95306988D01*
X68714591Y-95112548D01*
X68692703Y-94917199D01*
X68683031Y-94721543D01*
X68684617Y-94594680D01*
X69009245Y-94594680D01*
X69010816Y-94778398D01*
X69024616Y-94963008D01*
X69050894Y-95147978D01*
X69089897Y-95332777D01*
X69117528Y-95436204D01*
X69174101Y-95610939D01*
X69241945Y-95782123D01*
X69320410Y-95948420D01*
X69408844Y-96108495D01*
X69506597Y-96261015D01*
X69613015Y-96404644D01*
X69620709Y-96414201D01*
X69636251Y-96432860D01*
X69647975Y-96446049D01*
X69653798Y-96451378D01*
X69654704Y-96451179D01*
X69663612Y-96445619D01*
X69679966Y-96433614D01*
X69701811Y-96416638D01*
X69727189Y-96396160D01*
X69734575Y-96390109D01*
X69760421Y-96368999D01*
X69793736Y-96341860D01*
X69832604Y-96310246D01*
X69875114Y-96275714D01*
X69919349Y-96239821D01*
X69963396Y-96204122D01*
X70130766Y-96068561D01*
X70092692Y-96055896D01*
X70001598Y-96018858D01*
X69914721Y-95970129D01*
X69833032Y-95910598D01*
X69757499Y-95841155D01*
X69689087Y-95762687D01*
X69628763Y-95676084D01*
X69577492Y-95582232D01*
X69573796Y-95574420D01*
X69532242Y-95473468D01*
X69500389Y-95368154D01*
X69477962Y-95257132D01*
X69464681Y-95139057D01*
X69462022Y-95062776D01*
X69983978Y-95062776D01*
X69985872Y-95118522D01*
X69989695Y-95169343D01*
X69995447Y-95211633D01*
X70005488Y-95260060D01*
X70031615Y-95350075D01*
X70065554Y-95430171D01*
X70107157Y-95500180D01*
X70156274Y-95559936D01*
X70212756Y-95609271D01*
X70276454Y-95648017D01*
X70347218Y-95676008D01*
X70424899Y-95693075D01*
X70435116Y-95694411D01*
X70478593Y-95697677D01*
X70521049Y-95697375D01*
X70559557Y-95693746D01*
X70591190Y-95687033D01*
X70613021Y-95677480D01*
X70613527Y-95677125D01*
X70623023Y-95669857D01*
X70640992Y-95655668D01*
X70666006Y-95635701D01*
X70696636Y-95611100D01*
X70731454Y-95583009D01*
X70769030Y-95552571D01*
X70911780Y-95436715D01*
X70929409Y-95390817D01*
X70937165Y-95368982D01*
X70944285Y-95344010D01*
X70949909Y-95316899D01*
X70954161Y-95286100D01*
X70957168Y-95250067D01*
X70959054Y-95207249D01*
X70959945Y-95156099D01*
X70959968Y-95095068D01*
X70959246Y-95022608D01*
X70958229Y-94957760D01*
X70956850Y-94902552D01*
X70954835Y-94856751D01*
X70951888Y-94818549D01*
X70947716Y-94786132D01*
X70942022Y-94757689D01*
X70934512Y-94731409D01*
X70924890Y-94705480D01*
X70912862Y-94678092D01*
X70898132Y-94647431D01*
X70884129Y-94620261D01*
X70870038Y-94596917D01*
X70853959Y-94575342D01*
X70833308Y-94552080D01*
X70805498Y-94523678D01*
X70787063Y-94505598D01*
X70760882Y-94481599D01*
X70737860Y-94463443D01*
X70714672Y-94448608D01*
X70687994Y-94434575D01*
X70679620Y-94430583D01*
X70648071Y-94417030D01*
X70616469Y-94405326D01*
X70590551Y-94397644D01*
X70565743Y-94393130D01*
X70520297Y-94389003D01*
X70470705Y-94388341D01*
X70422053Y-94391147D01*
X70379426Y-94397428D01*
X70372679Y-94398954D01*
X70327729Y-94413034D01*
X70279815Y-94433574D01*
X70234154Y-94458108D01*
X70195962Y-94484168D01*
X70186159Y-94492201D01*
X70133181Y-94545416D01*
X70087602Y-94609311D01*
X70049423Y-94683882D01*
X70018644Y-94769130D01*
X69995265Y-94865053D01*
X69989898Y-94902039D01*
X69985990Y-94950928D01*
X69984017Y-95005709D01*
X69983978Y-95062776D01*
X69462022Y-95062776D01*
X69460272Y-95012584D01*
X69460349Y-94994388D01*
X69466150Y-94866544D01*
X69481294Y-94747193D01*
X69505953Y-94635691D01*
X69540298Y-94531393D01*
X69584500Y-94433654D01*
X69638732Y-94341831D01*
X69691842Y-94269964D01*
X69760933Y-94195480D01*
X69836913Y-94131917D01*
X69919412Y-94079474D01*
X70008061Y-94038347D01*
X70102488Y-94008736D01*
X70202323Y-93990837D01*
X70307195Y-93984849D01*
X70361061Y-93986295D01*
X70462312Y-93997215D01*
X70557961Y-94018571D01*
X70647301Y-94050037D01*
X70729626Y-94091290D01*
X70804230Y-94142002D01*
X70870408Y-94201850D01*
X70927452Y-94270507D01*
X70957585Y-94312586D01*
X70959242Y-93710213D01*
X70960900Y-93107840D01*
X71473986Y-93107840D01*
X71475632Y-94043420D01*
X71477278Y-94978999D01*
X71727380Y-94776893D01*
X71734499Y-94771140D01*
X71783716Y-94731335D01*
X71829873Y-94693956D01*
X71871961Y-94659823D01*
X71908974Y-94629754D01*
X71939905Y-94604568D01*
X71963746Y-94585084D01*
X71979491Y-94572121D01*
X71986132Y-94566499D01*
X71988858Y-94563029D01*
X71989933Y-94554874D01*
X71985709Y-94541522D01*
X71975506Y-94519995D01*
X71967847Y-94503880D01*
X72584724Y-94503880D01*
X72612449Y-94520128D01*
X72620455Y-94524740D01*
X72698964Y-94562217D01*
X72784980Y-94589892D01*
X72879295Y-94608027D01*
X72892428Y-94609597D01*
X72932323Y-94612624D01*
X72979032Y-94614284D01*
X73029732Y-94614643D01*
X73081596Y-94613770D01*
X73131799Y-94611731D01*
X73177516Y-94608595D01*
X73215923Y-94604429D01*
X73244193Y-94599301D01*
X73260475Y-94595214D01*
X73260475Y-93957273D01*
X73232866Y-93979620D01*
X73232783Y-93979686D01*
X73222687Y-93987855D01*
X73203473Y-94003399D01*
X73176109Y-94025535D01*
X73141563Y-94053480D01*
X73100803Y-94086450D01*
X73054798Y-94123662D01*
X73004515Y-94164334D01*
X72950924Y-94207682D01*
X72894990Y-94252923D01*
X72584724Y-94503880D01*
X71967847Y-94503880D01*
X71959394Y-94486096D01*
X71928902Y-94406209D01*
X71906724Y-94321135D01*
X71892418Y-94228951D01*
X71885545Y-94127738D01*
X71885128Y-94109647D01*
X72397914Y-94109647D01*
X72398218Y-94148545D01*
X72400832Y-94179170D01*
X72403552Y-94193423D01*
X72408247Y-94209232D01*
X72412737Y-94216077D01*
X72417325Y-94213159D01*
X72431145Y-94202833D01*
X72453171Y-94185818D01*
X72482410Y-94162914D01*
X72517866Y-94134920D01*
X72558545Y-94102636D01*
X72603454Y-94066860D01*
X72651596Y-94028393D01*
X72701978Y-93988034D01*
X72753606Y-93946582D01*
X72805485Y-93904837D01*
X72856620Y-93863598D01*
X72906017Y-93823664D01*
X72952682Y-93785836D01*
X72995620Y-93750912D01*
X73033836Y-93719691D01*
X73066337Y-93692974D01*
X73092127Y-93671560D01*
X73110213Y-93656248D01*
X73119600Y-93647838D01*
X73120218Y-93647217D01*
X73124018Y-93642627D01*
X73123618Y-93639353D01*
X73117261Y-93637021D01*
X73103193Y-93635257D01*
X73079655Y-93633688D01*
X73044894Y-93631940D01*
X73023263Y-93631072D01*
X72922528Y-93631790D01*
X72829266Y-93640572D01*
X72744484Y-93657284D01*
X72669188Y-93681793D01*
X72635700Y-93696903D01*
X72572647Y-93735260D01*
X72517844Y-93782676D01*
X72472249Y-93838083D01*
X72436819Y-93900408D01*
X72412513Y-93968582D01*
X72408381Y-93987984D01*
X72403243Y-94024900D01*
X72399671Y-94066944D01*
X72397914Y-94109647D01*
X71885128Y-94109647D01*
X71884978Y-94103116D01*
X71887014Y-94010372D01*
X71896331Y-93925745D01*
X71913421Y-93846810D01*
X71938775Y-93771137D01*
X71972885Y-93696298D01*
X72021209Y-93614769D01*
X72079485Y-93540068D01*
X72147013Y-93473794D01*
X72223959Y-93415851D01*
X72310491Y-93366143D01*
X72406778Y-93324574D01*
X72512985Y-93291048D01*
X72629282Y-93265469D01*
X72755835Y-93247741D01*
X72787921Y-93244849D01*
X72851858Y-93241057D01*
X72925194Y-93238707D01*
X73005713Y-93237764D01*
X73091199Y-93238194D01*
X73179439Y-93239961D01*
X73268217Y-93243030D01*
X73355318Y-93247367D01*
X73438527Y-93252937D01*
X73515628Y-93259704D01*
X73592137Y-93267380D01*
X73807956Y-93092611D01*
X73835108Y-93070584D01*
X73878937Y-93034859D01*
X73918870Y-93002098D01*
X73953868Y-92973166D01*
X73982896Y-92948925D01*
X74004914Y-92930239D01*
X74018886Y-92917973D01*
X74023774Y-92912988D01*
X74021955Y-92908780D01*
X74012472Y-92895478D01*
X73996008Y-92875190D01*
X73973835Y-92849328D01*
X73947226Y-92819303D01*
X73917452Y-92786525D01*
X73885785Y-92752405D01*
X73853497Y-92718353D01*
X73821860Y-92685780D01*
X73792145Y-92656096D01*
X73741174Y-92606920D01*
X73668326Y-92539922D01*
X73597669Y-92479414D01*
X73526084Y-92422864D01*
X73450454Y-92367742D01*
X73367661Y-92311516D01*
X73255324Y-92241197D01*
X73090112Y-92150468D01*
X72920410Y-92071567D01*
X72746820Y-92004531D01*
X72569946Y-91949397D01*
X72390389Y-91906203D01*
X72208752Y-91874986D01*
X72025638Y-91855783D01*
X71841648Y-91848632D01*
X71657387Y-91853570D01*
X71473455Y-91870634D01*
X71290455Y-91899861D01*
X71108990Y-91941288D01*
X70929663Y-91994953D01*
X70753076Y-92060893D01*
X70579830Y-92139146D01*
X70444967Y-92210144D01*
X70284591Y-92307312D01*
X70132477Y-92413877D01*
X69988873Y-92529305D01*
X69854027Y-92653066D01*
X69728187Y-92784629D01*
X69611601Y-92923461D01*
X69504516Y-93069031D01*
X69407181Y-93220808D01*
X69319843Y-93378260D01*
X69242752Y-93540855D01*
X69176153Y-93708063D01*
X69120297Y-93879351D01*
X69075430Y-94054189D01*
X69041800Y-94232044D01*
X69019656Y-94412384D01*
X69009245Y-94594680D01*
X68684617Y-94594680D01*
X68685473Y-94526182D01*
X68699928Y-94331718D01*
X68726295Y-94138754D01*
X68764470Y-93947892D01*
X68814354Y-93759734D01*
X68875843Y-93574884D01*
X68948836Y-93393942D01*
X69033231Y-93217513D01*
X69128927Y-93046198D01*
X69235821Y-92880599D01*
X69353813Y-92721319D01*
X69386101Y-92681218D01*
X69518883Y-92528969D01*
X69660257Y-92386035D01*
X69809707Y-92252775D01*
X69966719Y-92129552D01*
X70130776Y-92016725D01*
X70301364Y-91914656D01*
X70477966Y-91823704D01*
X70660066Y-91744231D01*
X70847150Y-91676597D01*
X70890182Y-91662946D01*
X71082697Y-91610056D01*
X71277422Y-91569627D01*
X71473695Y-91541614D01*
X71670850Y-91525970D01*
X71868225Y-91522651D01*
X72065155Y-91531605D01*
X72260977Y-91552791D01*
X72455026Y-91586162D01*
X72646639Y-91631670D01*
X72835151Y-91689269D01*
X73019898Y-91758914D01*
X73200218Y-91840559D01*
X73220816Y-91850738D01*
X73276580Y-91878781D01*
X73325117Y-91904158D01*
X73369920Y-91928830D01*
X73414482Y-91954757D01*
X73462295Y-91983899D01*
X73516854Y-92018216D01*
X73637740Y-92099441D01*
X73789981Y-92214746D01*
X73936245Y-92340378D01*
X74075338Y-92475162D01*
X74206065Y-92617926D01*
X74327233Y-92767497D01*
X74430736Y-92912988D01*
X74437645Y-92922700D01*
X74481462Y-92990619D01*
X74580034Y-93159253D01*
X74668234Y-93333831D01*
X74745408Y-93512885D01*
X74810899Y-93694946D01*
X74864052Y-93878547D01*
X74868156Y-93894859D01*
X74910764Y-94092386D01*
X74940677Y-94290794D01*
X74957985Y-94489521D01*
X74962779Y-94688007D01*
X74962171Y-94703773D01*
X74955153Y-94885689D01*
X74935196Y-95082007D01*
G37*
G36*
X71452288Y-98067038D02*
G01*
X71490624Y-98075765D01*
X71522960Y-98091758D01*
X71552293Y-98116073D01*
X71567504Y-98133095D01*
X71587217Y-98164926D01*
X71600301Y-98203037D01*
X71608009Y-98250450D01*
X71612243Y-98291779D01*
X71668915Y-98291779D01*
X71668915Y-98402214D01*
X71610449Y-98402214D01*
X71610449Y-98753007D01*
X71461037Y-98753007D01*
X71461037Y-98402214D01*
X71363595Y-98402214D01*
X71363595Y-98291779D01*
X71461037Y-98291779D01*
X71461037Y-98268834D01*
X71459919Y-98250864D01*
X71450838Y-98219684D01*
X71433401Y-98197400D01*
X71408538Y-98184960D01*
X71377177Y-98183312D01*
X71345694Y-98187040D01*
X71342632Y-98130599D01*
X71341743Y-98100797D01*
X71343039Y-98078937D01*
X71346710Y-98069385D01*
X71348019Y-98068785D01*
X71360221Y-98066644D01*
X71380857Y-98065120D01*
X71406287Y-98064513D01*
X71452288Y-98067038D01*
G37*
G36*
X71069560Y-98288756D02*
G01*
X71096502Y-98297893D01*
X71108176Y-98304994D01*
X71126935Y-98319872D01*
X71144359Y-98336966D01*
X71157314Y-98353098D01*
X71162670Y-98365087D01*
X71162898Y-98367474D01*
X71164817Y-98369686D01*
X71167772Y-98362920D01*
X71170952Y-98350238D01*
X71173548Y-98334706D01*
X71174749Y-98319388D01*
X71175206Y-98291779D01*
X71306939Y-98291779D01*
X71302843Y-98325884D01*
X71302558Y-98328726D01*
X71301536Y-98347000D01*
X71300618Y-98375773D01*
X71299839Y-98413078D01*
X71299234Y-98456946D01*
X71298839Y-98505409D01*
X71298690Y-98556498D01*
X71298633Y-98753007D01*
X71149937Y-98753007D01*
X71147955Y-98613848D01*
X71147295Y-98569740D01*
X71146573Y-98534534D01*
X71145609Y-98508746D01*
X71144191Y-98490548D01*
X71142107Y-98478112D01*
X71139144Y-98469611D01*
X71135091Y-98463217D01*
X71129733Y-98457103D01*
X71112598Y-98442086D01*
X71079607Y-98426756D01*
X71038995Y-98421702D01*
X71006306Y-98421702D01*
X71006306Y-98285283D01*
X71039045Y-98285283D01*
X71069560Y-98288756D01*
G37*
X67438000Y-77953841D02*
X67438000Y-77646559D01*
X68198000Y-77953841D02*
X68198000Y-77646559D01*
X77937800Y-100482400D02*
X77937800Y-99682400D01*
X74817800Y-100482400D02*
X74817800Y-99682400D01*
X77937800Y-100482400D02*
X77937800Y-102282400D01*
X74817800Y-100482400D02*
X74817800Y-101282400D01*
G36*
X73387314Y-109789289D02*
G01*
X73416555Y-109829318D01*
X73468617Y-109882753D01*
X73521444Y-109931848D01*
X73562491Y-109960924D01*
X73581506Y-109967263D01*
X73601268Y-109973851D01*
X73649637Y-109976790D01*
X73679939Y-109977076D01*
X73716979Y-109982005D01*
X73731566Y-109998615D01*
X73734113Y-110033954D01*
X73734002Y-110045805D01*
X73728579Y-110076478D01*
X73706978Y-110088833D01*
X73658257Y-110091119D01*
X73613792Y-110093553D01*
X73584759Y-110106515D01*
X73571023Y-110136453D01*
X73565513Y-110172708D01*
X73565896Y-110230263D01*
X73566886Y-110234981D01*
X73573093Y-110241472D01*
X73586431Y-110237934D01*
X73609254Y-110222133D01*
X73643913Y-110191833D01*
X73692761Y-110144801D01*
X73758151Y-110078801D01*
X73842436Y-109991599D01*
X73947967Y-109880959D01*
X74077099Y-109744646D01*
X74582050Y-109210554D01*
X74588056Y-109291794D01*
X74589486Y-109321114D01*
X74585538Y-109356341D01*
X74569756Y-109389735D01*
X74537033Y-109430823D01*
X74482265Y-109489128D01*
X74454898Y-109517672D01*
X74396852Y-109578560D01*
X74321850Y-109657488D01*
X74234213Y-109749888D01*
X74138258Y-109851191D01*
X74038306Y-109956831D01*
X73938675Y-110062238D01*
X73843685Y-110162845D01*
X73757655Y-110254084D01*
X73684903Y-110331386D01*
X73629750Y-110390185D01*
X73596514Y-110425911D01*
X73542739Y-110484409D01*
X73526947Y-110669749D01*
X73468170Y-111359594D01*
X73393602Y-112234780D01*
X73451900Y-112296280D01*
X73474883Y-112320526D01*
X73478491Y-112324331D01*
X73513907Y-112361684D01*
X73571552Y-112422474D01*
X73648015Y-112503106D01*
X73739888Y-112599985D01*
X73843762Y-112709515D01*
X73956226Y-112828102D01*
X74073871Y-112952151D01*
X74174093Y-113057868D01*
X74285983Y-113176221D01*
X74375853Y-113272070D01*
X74446115Y-113348338D01*
X74499182Y-113407948D01*
X74537466Y-113453825D01*
X74563379Y-113488890D01*
X74579334Y-113516069D01*
X74587744Y-113538284D01*
X74591021Y-113558458D01*
X74591577Y-113579516D01*
X74591577Y-113661002D01*
X74542210Y-113614808D01*
X74533646Y-113606403D01*
X74498323Y-113570318D01*
X74441347Y-113511250D01*
X74365735Y-113432354D01*
X74274500Y-113336787D01*
X74170660Y-113227705D01*
X74057228Y-113108263D01*
X73937221Y-112981617D01*
X73381600Y-112394622D01*
X73358091Y-112675479D01*
X73354144Y-112719979D01*
X73344073Y-112815585D01*
X73333538Y-112894903D01*
X73323575Y-112950689D01*
X73315218Y-112975701D01*
X73308084Y-112989977D01*
X73299289Y-113035372D01*
X73295854Y-113096055D01*
X73295854Y-113197045D01*
X73067196Y-113197045D01*
X73067196Y-112987443D01*
X72231895Y-112987443D01*
X72193173Y-113050097D01*
X72182273Y-113066367D01*
X72109316Y-113136428D01*
X72013365Y-113181256D01*
X71901964Y-113197045D01*
X71891417Y-113196941D01*
X71779943Y-113179608D01*
X71688156Y-113130814D01*
X71611095Y-113048017D01*
X71601422Y-113034051D01*
X71572518Y-112982135D01*
X71558918Y-112928075D01*
X71555518Y-112854059D01*
X71555668Y-112834117D01*
X71561010Y-112766229D01*
X71577782Y-112714087D01*
X71611095Y-112659827D01*
X71628140Y-112637946D01*
X71682762Y-112583343D01*
X71738127Y-112544248D01*
X71766846Y-112528662D01*
X71795799Y-112504733D01*
X71807439Y-112471241D01*
X71809582Y-112413932D01*
X71809142Y-112381375D01*
X71806622Y-112337658D01*
X71802609Y-112320526D01*
X71802384Y-112320632D01*
X71786115Y-112336328D01*
X71746429Y-112376810D01*
X71685879Y-112439414D01*
X71607017Y-112521480D01*
X71512396Y-112620345D01*
X71404569Y-112733347D01*
X71286090Y-112857825D01*
X71159510Y-112991115D01*
X70523385Y-113661705D01*
X70511605Y-113500649D01*
X71021987Y-112962988D01*
X71026781Y-112957938D01*
X71146166Y-112832206D01*
X71262445Y-112709801D01*
X71371766Y-112594777D01*
X71470272Y-112491187D01*
X71554112Y-112403084D01*
X71619429Y-112334521D01*
X71662370Y-112289551D01*
X71746064Y-112202138D01*
X71904999Y-112202138D01*
X71917397Y-112348805D01*
X71920592Y-112383252D01*
X71930184Y-112450800D01*
X71942801Y-112489018D01*
X71960198Y-112504272D01*
X72051363Y-112540068D01*
X72145842Y-112606727D01*
X72210546Y-112693471D01*
X72242708Y-112797431D01*
X72252859Y-112873114D01*
X73231101Y-112873114D01*
X73254833Y-112584697D01*
X73278564Y-112296280D01*
X73234808Y-112246978D01*
X73190398Y-112197999D01*
X73128893Y-112131778D01*
X73055665Y-112053993D01*
X72974921Y-111969010D01*
X72890869Y-111881193D01*
X72807717Y-111794910D01*
X72729672Y-111714525D01*
X72660942Y-111644404D01*
X72605734Y-111588913D01*
X72568257Y-111552416D01*
X72552718Y-111539281D01*
X72544003Y-111545609D01*
X72511732Y-111575631D01*
X72459622Y-111626936D01*
X72391448Y-111695740D01*
X72310986Y-111778259D01*
X72222011Y-111870709D01*
X71904999Y-112202138D01*
X71746064Y-112202138D01*
X71792371Y-112153774D01*
X71739740Y-111446377D01*
X71687418Y-110743137D01*
X71800848Y-110743137D01*
X71801022Y-110755135D01*
X71803617Y-110801028D01*
X71808601Y-110877106D01*
X71815668Y-110978960D01*
X71824509Y-111102182D01*
X71834819Y-111242364D01*
X71846289Y-111395097D01*
X71895328Y-112041685D01*
X72178291Y-111744661D01*
X72210639Y-111710572D01*
X72290363Y-111625342D01*
X72358658Y-111550596D01*
X72411756Y-111490561D01*
X72445892Y-111449463D01*
X72455423Y-111434479D01*
X72633478Y-111434479D01*
X72750300Y-111558343D01*
X72881710Y-111697361D01*
X73001127Y-111822874D01*
X73097810Y-111923403D01*
X73173349Y-112000548D01*
X73229333Y-112055910D01*
X73267355Y-112091089D01*
X73289004Y-112107686D01*
X73295870Y-112107301D01*
X73297298Y-112084947D01*
X73301609Y-112028637D01*
X73308447Y-111943030D01*
X73317448Y-111832564D01*
X73328251Y-111701674D01*
X73340495Y-111554797D01*
X73353818Y-111396370D01*
X73366247Y-111246666D01*
X73378182Y-111097475D01*
X73388446Y-110963408D01*
X73396710Y-110849034D01*
X73402643Y-110758921D01*
X73405917Y-110697636D01*
X73406202Y-110669749D01*
X73405348Y-110666469D01*
X73396139Y-110663206D01*
X73375483Y-110674731D01*
X73340997Y-110703261D01*
X73290296Y-110751014D01*
X73220996Y-110820208D01*
X73130714Y-110913060D01*
X73017066Y-111031789D01*
X72636287Y-111431530D01*
X72633478Y-111434479D01*
X72455423Y-111434479D01*
X72457299Y-111431530D01*
X72456798Y-111430473D01*
X72439628Y-111409433D01*
X72401365Y-111366834D01*
X72346292Y-111307165D01*
X72278691Y-111234920D01*
X72202846Y-111154588D01*
X72123039Y-111070662D01*
X72043553Y-110987633D01*
X71968672Y-110909992D01*
X71902677Y-110842230D01*
X71849853Y-110788840D01*
X71814483Y-110754312D01*
X71800848Y-110743137D01*
X71687418Y-110743137D01*
X71687109Y-110738981D01*
X71371322Y-110738981D01*
X71371322Y-110624652D01*
X71485651Y-110624652D01*
X71580925Y-110624652D01*
X71615224Y-110623635D01*
X71659055Y-110618172D01*
X71676199Y-110609565D01*
X71668761Y-110595851D01*
X71640590Y-110562440D01*
X71600164Y-110520253D01*
X71556869Y-110478597D01*
X71520092Y-110446779D01*
X71499221Y-110434104D01*
X71494336Y-110440524D01*
X71488093Y-110475019D01*
X71485651Y-110529378D01*
X71485651Y-110624652D01*
X71371322Y-110624652D01*
X71371322Y-110540493D01*
X71371927Y-110475350D01*
X71375696Y-110397469D01*
X71383291Y-110351542D01*
X71395141Y-110333833D01*
X71396113Y-110332633D01*
X71384363Y-110311013D01*
X71346677Y-110263593D01*
X71283903Y-110191299D01*
X71196885Y-110095057D01*
X71086470Y-109975793D01*
X70953504Y-109834433D01*
X70798833Y-109671902D01*
X70623303Y-109489128D01*
X70583688Y-109447497D01*
X70544300Y-109401868D01*
X70523524Y-109367037D01*
X70516252Y-109333486D01*
X70517380Y-109291695D01*
X70523385Y-109210357D01*
X71056884Y-109774594D01*
X71158666Y-109881763D01*
X71287150Y-110015415D01*
X71397360Y-110128000D01*
X71487841Y-110218076D01*
X71557136Y-110284201D01*
X71603792Y-110324933D01*
X71626353Y-110338831D01*
X71634432Y-110338525D01*
X71651415Y-110330509D01*
X71655808Y-110304349D01*
X71650206Y-110250425D01*
X71646895Y-110225072D01*
X71640591Y-110168010D01*
X71638089Y-110130829D01*
X71634620Y-110115582D01*
X71612773Y-110105330D01*
X71562907Y-110106809D01*
X71517287Y-110105652D01*
X71481748Y-110091119D01*
X71748861Y-110091119D01*
X71761277Y-110276903D01*
X71764486Y-110322406D01*
X71771137Y-110404717D01*
X71777601Y-110471512D01*
X71782842Y-110511528D01*
X71790020Y-110529208D01*
X71821249Y-110575411D01*
X71849752Y-110609565D01*
X71871282Y-110635364D01*
X71934170Y-110701598D01*
X72076349Y-110842828D01*
X72076349Y-110719926D01*
X72838539Y-110719926D01*
X72838539Y-110967638D01*
X72183657Y-110967638D01*
X72363424Y-111153422D01*
X72381558Y-111172130D01*
X72445979Y-111238024D01*
X72499399Y-111291801D01*
X72536689Y-111328337D01*
X72552718Y-111342506D01*
X72564577Y-111332973D01*
X72599197Y-111299254D01*
X72652738Y-111244962D01*
X72721486Y-111174031D01*
X72801727Y-111090395D01*
X72889747Y-110997988D01*
X72981832Y-110900744D01*
X73074269Y-110802596D01*
X73163343Y-110707480D01*
X73245340Y-110619328D01*
X73316547Y-110542075D01*
X73373250Y-110479655D01*
X73411734Y-110436002D01*
X73428287Y-110415050D01*
X73429612Y-110412055D01*
X73438276Y-110374875D01*
X73446916Y-110313234D01*
X73453843Y-110238793D01*
X73464408Y-110091119D01*
X71748861Y-110091119D01*
X71481748Y-110091119D01*
X71450847Y-110078483D01*
X71406511Y-110024133D01*
X71396114Y-109975204D01*
X71781000Y-109975204D01*
X72462208Y-109975997D01*
X73143415Y-109976790D01*
X73143415Y-109967263D01*
X73372073Y-109967263D01*
X73381600Y-109976790D01*
X73391127Y-109967263D01*
X73381600Y-109957735D01*
X73372073Y-109967263D01*
X73143415Y-109967263D01*
X73143415Y-109894060D01*
X73143128Y-109866656D01*
X73137082Y-109826926D01*
X73115798Y-109805645D01*
X73069749Y-109789259D01*
X73006896Y-109772424D01*
X72971594Y-109771026D01*
X72956228Y-109787542D01*
X72952868Y-109824352D01*
X72952868Y-109881516D01*
X72266896Y-109881516D01*
X72266896Y-109812704D01*
X72266847Y-109796453D01*
X72262772Y-109760339D01*
X72245106Y-109750799D01*
X72362170Y-109750799D01*
X72362391Y-109751507D01*
X72383931Y-109757623D01*
X72435581Y-109762606D01*
X72510127Y-109765959D01*
X72600355Y-109767188D01*
X72665476Y-109766579D01*
X72751940Y-109763138D01*
X72808832Y-109757270D01*
X72834448Y-109749677D01*
X72827082Y-109741058D01*
X72785030Y-109732113D01*
X72706589Y-109723543D01*
X72662111Y-109720664D01*
X72576648Y-109719121D01*
X72495480Y-109722032D01*
X72427048Y-109728727D01*
X72379797Y-109738539D01*
X72362170Y-109750799D01*
X72245106Y-109750799D01*
X72243976Y-109750189D01*
X72199105Y-109756609D01*
X72144064Y-109769373D01*
X72033667Y-109807354D01*
X71931571Y-109857077D01*
X71852662Y-109911870D01*
X71781000Y-109975204D01*
X71396114Y-109975204D01*
X71390377Y-109948208D01*
X71394093Y-109912616D01*
X71422867Y-109849715D01*
X71472646Y-109806191D01*
X71534451Y-109785968D01*
X71599305Y-109792971D01*
X71658231Y-109831124D01*
X71701428Y-109876005D01*
X71806740Y-109802234D01*
X71856262Y-109772272D01*
X71934372Y-109733759D01*
X72022647Y-109696406D01*
X72110172Y-109664461D01*
X72186028Y-109642177D01*
X72239298Y-109633804D01*
X72245611Y-109632892D01*
X72261859Y-109611336D01*
X72262554Y-109603923D01*
X72444850Y-109603923D01*
X72467279Y-109605730D01*
X72520174Y-109606926D01*
X72600355Y-109607346D01*
X72637336Y-109607255D01*
X72704799Y-109606458D01*
X72742751Y-109604975D01*
X72748324Y-109602968D01*
X72718654Y-109600601D01*
X72656169Y-109598478D01*
X72557669Y-109598060D01*
X72470943Y-109600662D01*
X72456061Y-109601668D01*
X72444850Y-109603923D01*
X72262554Y-109603923D01*
X72266896Y-109557585D01*
X72266896Y-109481366D01*
X72952868Y-109481366D01*
X72952868Y-109564992D01*
X72953180Y-109594902D01*
X72954398Y-109602968D01*
X72958915Y-109632895D01*
X72978627Y-109650996D01*
X73020913Y-109661383D01*
X73026829Y-109662513D01*
X73079656Y-109674127D01*
X73116186Y-109684597D01*
X73131562Y-109686127D01*
X73143415Y-109664425D01*
X73144120Y-109657578D01*
X73157061Y-109642973D01*
X73192327Y-109635747D01*
X73257744Y-109633804D01*
X73372073Y-109633804D01*
X73372073Y-109711260D01*
X73374483Y-109749677D01*
X73374596Y-109751483D01*
X73387314Y-109789289D01*
G37*
G36*
X74286701Y-115388343D02*
G01*
X70818734Y-115388343D01*
X70818734Y-114492769D01*
X74286701Y-114492769D01*
X74286701Y-115388343D01*
G37*
X74217800Y-103887241D02*
X74217800Y-103579959D01*
X73457800Y-103887241D02*
X73457800Y-103579959D01*
X76759800Y-120397241D02*
X76759800Y-120089959D01*
X77519800Y-120397241D02*
X77519800Y-120089959D01*
X68903964Y-119638400D02*
X69119636Y-119638400D01*
X68903964Y-118918400D02*
X69119636Y-118918400D01*
X75906400Y-102651000D02*
X77756400Y-102651000D01*
X75906400Y-103851000D02*
X77756400Y-103851000D01*
X77756400Y-102651000D02*
X77756400Y-103851000D01*
X77027000Y-105197400D02*
X75627000Y-105197400D01*
X77727000Y-106497400D02*
X77727000Y-105897400D01*
X75627000Y-107197400D02*
X77027000Y-107197400D01*
X74927000Y-105897400D02*
X74927000Y-106497400D01*
X77027000Y-107197400D02*
G75*
G03*
X77727000Y-106497400I1J699999D01*
G01*
X74927000Y-106497400D02*
G75*
G03*
X75627000Y-107197400I700000J0D01*
G01*
X75627000Y-105197400D02*
G75*
G03*
X74927000Y-105897400I0J-700000D01*
G01*
X77727000Y-105897400D02*
G75*
G03*
X77027000Y-105197400I-699999J1D01*
G01*
X73967800Y-100587271D02*
X73967800Y-99987271D01*
X73267800Y-99287271D02*
X71867800Y-99287271D01*
X71167800Y-99987271D02*
X71167800Y-100587271D01*
X71867800Y-101287271D02*
X73267800Y-101287271D01*
X73267800Y-101287271D02*
G75*
G03*
X73967800Y-100587271I0J700000D01*
G01*
X71867800Y-99287271D02*
G75*
G03*
X71167800Y-99987271I-1J-699999D01*
G01*
X73967800Y-99987271D02*
G75*
G03*
X73267800Y-99287271I-700000J0D01*
G01*
X71167800Y-100587271D02*
G75*
G03*
X71867800Y-101287271I699999J-1D01*
G01*
X74538400Y-77546200D02*
X74538400Y-78196200D01*
X77658400Y-77546200D02*
X77658400Y-78196200D01*
X74538400Y-77546200D02*
X74538400Y-75871200D01*
X77658400Y-77546200D02*
X77658400Y-76896200D01*
X73162600Y-104546400D02*
X73162600Y-103746400D01*
X70042600Y-104546400D02*
X70042600Y-105346400D01*
X70042600Y-104546400D02*
X70042600Y-102746400D01*
X73162600Y-104546400D02*
X73162600Y-105346400D01*
X69752800Y-105771836D02*
X69752800Y-105556164D01*
X69032800Y-105771836D02*
X69032800Y-105556164D01*
X73790000Y-126889000D02*
X70990000Y-126889000D01*
X70990000Y-128889000D02*
X73790000Y-128889000D01*
X70340000Y-127589000D02*
X70340000Y-128189000D01*
X74440000Y-128189000D02*
X74440000Y-127589000D01*
X74440000Y-127589000D02*
G75*
G03*
X73740000Y-126889000I-700000J0D01*
G01*
X70340000Y-128189000D02*
G75*
G03*
X71040000Y-128889000I699999J-1D01*
G01*
X71040000Y-126889000D02*
G75*
G03*
X70340000Y-127589000I-1J-699999D01*
G01*
X73740000Y-128889000D02*
G75*
G03*
X74440000Y-128189000I0J700000D01*
G01*
X73887600Y-76503559D02*
X73887600Y-76810841D01*
X73127600Y-76503559D02*
X73127600Y-76810841D01*
M02*
