G04 #@! TF.GenerationSoftware,KiCad,Pcbnew,(6.0.5)*
G04 #@! TF.CreationDate,2022-12-13T18:03:46-08:00*
G04 #@! TF.ProjectId,pico-ice,7069636f-2d69-4636-952e-6b696361645f,REV1*
G04 #@! TF.SameCoordinates,Original*
G04 #@! TF.FileFunction,AssemblyDrawing,Top*
%FSLAX46Y46*%
G04 Gerber Fmt 4.6, Leading zero omitted, Abs format (unit mm)*
G04 Created by KiCad (PCBNEW (6.0.5)) date 2022-12-13 18:03:46*
%MOMM*%
%LPD*%
G01*
G04 APERTURE LIST*
%ADD10C,0.127000*%
%ADD11C,0.040000*%
%ADD12C,0.150000*%
%ADD13C,0.060000*%
%ADD14C,0.254000*%
%ADD15C,0.075000*%
%ADD16C,0.050000*%
%ADD17C,0.090000*%
%ADD18C,0.100000*%
G04 APERTURE END LIST*
D10*
X60960000Y-130810000D02*
G75*
G03*
X64770000Y-134620000I3919500J109500D01*
G01*
X83820000Y-77470000D02*
G75*
G03*
X80010000Y-73660000I-3754300J55700D01*
G01*
X60960000Y-130810000D02*
X60960000Y-77470000D01*
X64770000Y-73660000D02*
X80010000Y-73660000D01*
X64770000Y-73660000D02*
G75*
G03*
X60960000Y-77470000I-55700J-3754300D01*
G01*
X80010000Y-134620000D02*
G75*
G03*
X83820000Y-130810000I-109500J3919500D01*
G01*
X80010000Y-134620000D02*
X64770000Y-134620000D01*
X83820000Y-77470000D02*
X83820000Y-130810000D01*
D11*
X69383419Y-78424542D02*
X69259609Y-78511209D01*
X69383419Y-78573114D02*
X69123419Y-78573114D01*
X69123419Y-78474066D01*
X69135800Y-78449304D01*
X69148180Y-78436923D01*
X69172942Y-78424542D01*
X69210085Y-78424542D01*
X69234847Y-78436923D01*
X69247228Y-78449304D01*
X69259609Y-78474066D01*
X69259609Y-78573114D01*
X69383419Y-78176923D02*
X69383419Y-78325495D01*
X69383419Y-78251209D02*
X69123419Y-78251209D01*
X69160561Y-78275971D01*
X69185323Y-78300733D01*
X69197704Y-78325495D01*
X69383419Y-78053114D02*
X69383419Y-78003590D01*
X69371038Y-77978828D01*
X69358657Y-77966447D01*
X69321514Y-77941685D01*
X69271990Y-77929304D01*
X69172942Y-77929304D01*
X69148180Y-77941685D01*
X69135800Y-77954066D01*
X69123419Y-77978828D01*
X69123419Y-78028352D01*
X69135800Y-78053114D01*
X69148180Y-78065495D01*
X69172942Y-78077876D01*
X69234847Y-78077876D01*
X69259609Y-78065495D01*
X69271990Y-78053114D01*
X69284371Y-78028352D01*
X69284371Y-77978828D01*
X69271990Y-77954066D01*
X69259609Y-77941685D01*
X69234847Y-77929304D01*
D12*
X62738095Y-132532380D02*
X62738095Y-131532380D01*
X62738095Y-132008571D02*
X63309523Y-132008571D01*
X63309523Y-132532380D02*
X63309523Y-131532380D01*
X64214285Y-131865714D02*
X64214285Y-132532380D01*
X63976190Y-131484761D02*
X63738095Y-132199047D01*
X64357142Y-132199047D01*
D11*
X72453885Y-107856714D02*
X72465790Y-107868619D01*
X72477695Y-107904333D01*
X72477695Y-107928142D01*
X72465790Y-107963857D01*
X72441980Y-107987666D01*
X72418171Y-107999571D01*
X72370552Y-108011476D01*
X72334838Y-108011476D01*
X72287219Y-107999571D01*
X72263409Y-107987666D01*
X72239600Y-107963857D01*
X72227695Y-107928142D01*
X72227695Y-107904333D01*
X72239600Y-107868619D01*
X72251504Y-107856714D01*
X72477695Y-107618619D02*
X72477695Y-107761476D01*
X72477695Y-107690047D02*
X72227695Y-107690047D01*
X72263409Y-107713857D01*
X72287219Y-107737666D01*
X72299123Y-107761476D01*
X72227695Y-107404333D02*
X72227695Y-107451952D01*
X72239600Y-107475761D01*
X72251504Y-107487666D01*
X72287219Y-107511476D01*
X72334838Y-107523380D01*
X72430076Y-107523380D01*
X72453885Y-107511476D01*
X72465790Y-107499571D01*
X72477695Y-107475761D01*
X72477695Y-107428142D01*
X72465790Y-107404333D01*
X72453885Y-107392428D01*
X72430076Y-107380523D01*
X72370552Y-107380523D01*
X72346742Y-107392428D01*
X72334838Y-107404333D01*
X72322933Y-107428142D01*
X72322933Y-107475761D01*
X72334838Y-107499571D01*
X72346742Y-107511476D01*
X72370552Y-107523380D01*
D13*
X77295352Y-121450019D02*
X76895352Y-121450019D01*
X76895352Y-121297638D01*
X76914400Y-121259542D01*
X76933447Y-121240495D01*
X76971542Y-121221447D01*
X77028685Y-121221447D01*
X77066780Y-121240495D01*
X77085828Y-121259542D01*
X77104876Y-121297638D01*
X77104876Y-121450019D01*
X76895352Y-121107161D02*
X76895352Y-120878590D01*
X77295352Y-120992876D02*
X76895352Y-120992876D01*
X77257257Y-120516685D02*
X77276304Y-120535733D01*
X77295352Y-120592876D01*
X77295352Y-120630971D01*
X77276304Y-120688114D01*
X77238209Y-120726209D01*
X77200114Y-120745257D01*
X77123923Y-120764304D01*
X77066780Y-120764304D01*
X76990590Y-120745257D01*
X76952495Y-120726209D01*
X76914400Y-120688114D01*
X76895352Y-120630971D01*
X76895352Y-120592876D01*
X76914400Y-120535733D01*
X76933447Y-120516685D01*
X77295352Y-120135733D02*
X77295352Y-120364304D01*
X77295352Y-120250019D02*
X76895352Y-120250019D01*
X76952495Y-120288114D01*
X76990590Y-120326209D01*
X77009638Y-120364304D01*
D11*
X67885885Y-99022285D02*
X67873980Y-99034190D01*
X67838266Y-99046095D01*
X67814457Y-99046095D01*
X67778742Y-99034190D01*
X67754933Y-99010380D01*
X67743028Y-98986571D01*
X67731123Y-98938952D01*
X67731123Y-98903238D01*
X67743028Y-98855619D01*
X67754933Y-98831809D01*
X67778742Y-98808000D01*
X67814457Y-98796095D01*
X67838266Y-98796095D01*
X67873980Y-98808000D01*
X67885885Y-98819904D01*
X67981123Y-98819904D02*
X67993028Y-98808000D01*
X68016838Y-98796095D01*
X68076361Y-98796095D01*
X68100171Y-98808000D01*
X68112076Y-98819904D01*
X68123980Y-98843714D01*
X68123980Y-98867523D01*
X68112076Y-98903238D01*
X67969219Y-99046095D01*
X68123980Y-99046095D01*
X68243028Y-99046095D02*
X68290647Y-99046095D01*
X68314457Y-99034190D01*
X68326361Y-99022285D01*
X68350171Y-98986571D01*
X68362076Y-98938952D01*
X68362076Y-98843714D01*
X68350171Y-98819904D01*
X68338266Y-98808000D01*
X68314457Y-98796095D01*
X68266838Y-98796095D01*
X68243028Y-98808000D01*
X68231123Y-98819904D01*
X68219219Y-98843714D01*
X68219219Y-98903238D01*
X68231123Y-98927047D01*
X68243028Y-98938952D01*
X68266838Y-98950857D01*
X68314457Y-98950857D01*
X68338266Y-98938952D01*
X68350171Y-98927047D01*
X68362076Y-98903238D01*
X77152885Y-116899114D02*
X77164790Y-116911019D01*
X77176695Y-116946733D01*
X77176695Y-116970542D01*
X77164790Y-117006257D01*
X77140980Y-117030066D01*
X77117171Y-117041971D01*
X77069552Y-117053876D01*
X77033838Y-117053876D01*
X76986219Y-117041971D01*
X76962409Y-117030066D01*
X76938600Y-117006257D01*
X76926695Y-116970542D01*
X76926695Y-116946733D01*
X76938600Y-116911019D01*
X76950504Y-116899114D01*
X77176695Y-116661019D02*
X77176695Y-116803876D01*
X77176695Y-116732447D02*
X76926695Y-116732447D01*
X76962409Y-116756257D01*
X76986219Y-116780066D01*
X76998123Y-116803876D01*
X76950504Y-116565780D02*
X76938600Y-116553876D01*
X76926695Y-116530066D01*
X76926695Y-116470542D01*
X76938600Y-116446733D01*
X76950504Y-116434828D01*
X76974314Y-116422923D01*
X76998123Y-116422923D01*
X77033838Y-116434828D01*
X77176695Y-116577685D01*
X77176695Y-116422923D01*
X70066285Y-118956514D02*
X70078190Y-118968419D01*
X70090095Y-119004133D01*
X70090095Y-119027942D01*
X70078190Y-119063657D01*
X70054380Y-119087466D01*
X70030571Y-119099371D01*
X69982952Y-119111276D01*
X69947238Y-119111276D01*
X69899619Y-119099371D01*
X69875809Y-119087466D01*
X69852000Y-119063657D01*
X69840095Y-119027942D01*
X69840095Y-119004133D01*
X69852000Y-118968419D01*
X69863904Y-118956514D01*
X70090095Y-118718419D02*
X70090095Y-118861276D01*
X70090095Y-118789847D02*
X69840095Y-118789847D01*
X69875809Y-118813657D01*
X69899619Y-118837466D01*
X69911523Y-118861276D01*
X70090095Y-118599371D02*
X70090095Y-118551752D01*
X70078190Y-118527942D01*
X70066285Y-118516038D01*
X70030571Y-118492228D01*
X69982952Y-118480323D01*
X69887714Y-118480323D01*
X69863904Y-118492228D01*
X69852000Y-118504133D01*
X69840095Y-118527942D01*
X69840095Y-118575561D01*
X69852000Y-118599371D01*
X69863904Y-118611276D01*
X69887714Y-118623180D01*
X69947238Y-118623180D01*
X69971047Y-118611276D01*
X69982952Y-118599371D01*
X69994857Y-118575561D01*
X69994857Y-118527942D01*
X69982952Y-118504133D01*
X69971047Y-118492228D01*
X69947238Y-118480323D01*
X67885885Y-99987485D02*
X67873980Y-99999390D01*
X67838266Y-100011295D01*
X67814457Y-100011295D01*
X67778742Y-99999390D01*
X67754933Y-99975580D01*
X67743028Y-99951771D01*
X67731123Y-99904152D01*
X67731123Y-99868438D01*
X67743028Y-99820819D01*
X67754933Y-99797009D01*
X67778742Y-99773200D01*
X67814457Y-99761295D01*
X67838266Y-99761295D01*
X67873980Y-99773200D01*
X67885885Y-99785104D01*
X67969219Y-99761295D02*
X68123980Y-99761295D01*
X68040647Y-99856533D01*
X68076361Y-99856533D01*
X68100171Y-99868438D01*
X68112076Y-99880342D01*
X68123980Y-99904152D01*
X68123980Y-99963676D01*
X68112076Y-99987485D01*
X68100171Y-99999390D01*
X68076361Y-100011295D01*
X68004933Y-100011295D01*
X67981123Y-99999390D01*
X67969219Y-99987485D01*
X68278742Y-99761295D02*
X68302552Y-99761295D01*
X68326361Y-99773200D01*
X68338266Y-99785104D01*
X68350171Y-99808914D01*
X68362076Y-99856533D01*
X68362076Y-99916057D01*
X68350171Y-99963676D01*
X68338266Y-99987485D01*
X68326361Y-99999390D01*
X68302552Y-100011295D01*
X68278742Y-100011295D01*
X68254933Y-99999390D01*
X68243028Y-99987485D01*
X68231123Y-99963676D01*
X68219219Y-99916057D01*
X68219219Y-99856533D01*
X68231123Y-99808914D01*
X68243028Y-99785104D01*
X68254933Y-99773200D01*
X68278742Y-99761295D01*
D13*
X67744952Y-76495238D02*
X67344952Y-76495238D01*
X67344952Y-76400000D01*
X67364000Y-76342857D01*
X67402095Y-76304761D01*
X67440190Y-76285714D01*
X67516380Y-76266666D01*
X67573523Y-76266666D01*
X67649714Y-76285714D01*
X67687809Y-76304761D01*
X67725904Y-76342857D01*
X67744952Y-76400000D01*
X67744952Y-76495238D01*
X67344952Y-76133333D02*
X67344952Y-75885714D01*
X67497333Y-76019047D01*
X67497333Y-75961904D01*
X67516380Y-75923809D01*
X67535428Y-75904761D01*
X67573523Y-75885714D01*
X67668761Y-75885714D01*
X67706857Y-75904761D01*
X67725904Y-75923809D01*
X67744952Y-75961904D01*
X67744952Y-76076190D01*
X67725904Y-76114285D01*
X67706857Y-76133333D01*
D11*
X66996885Y-112408085D02*
X66984980Y-112419990D01*
X66949266Y-112431895D01*
X66925457Y-112431895D01*
X66889742Y-112419990D01*
X66865933Y-112396180D01*
X66854028Y-112372371D01*
X66842123Y-112324752D01*
X66842123Y-112289038D01*
X66854028Y-112241419D01*
X66865933Y-112217609D01*
X66889742Y-112193800D01*
X66925457Y-112181895D01*
X66949266Y-112181895D01*
X66984980Y-112193800D01*
X66996885Y-112205704D01*
X67234980Y-112431895D02*
X67092123Y-112431895D01*
X67163552Y-112431895D02*
X67163552Y-112181895D01*
X67139742Y-112217609D01*
X67115933Y-112241419D01*
X67092123Y-112253323D01*
X67318314Y-112181895D02*
X67484980Y-112181895D01*
X67377838Y-112431895D01*
X69435285Y-88354285D02*
X69423380Y-88366190D01*
X69387666Y-88378095D01*
X69363857Y-88378095D01*
X69328142Y-88366190D01*
X69304333Y-88342380D01*
X69292428Y-88318571D01*
X69280523Y-88270952D01*
X69280523Y-88235238D01*
X69292428Y-88187619D01*
X69304333Y-88163809D01*
X69328142Y-88140000D01*
X69363857Y-88128095D01*
X69387666Y-88128095D01*
X69423380Y-88140000D01*
X69435285Y-88151904D01*
X69530523Y-88151904D02*
X69542428Y-88140000D01*
X69566238Y-88128095D01*
X69625761Y-88128095D01*
X69649571Y-88140000D01*
X69661476Y-88151904D01*
X69673380Y-88175714D01*
X69673380Y-88199523D01*
X69661476Y-88235238D01*
X69518619Y-88378095D01*
X69673380Y-88378095D01*
X69768619Y-88151904D02*
X69780523Y-88140000D01*
X69804333Y-88128095D01*
X69863857Y-88128095D01*
X69887666Y-88140000D01*
X69899571Y-88151904D01*
X69911476Y-88175714D01*
X69911476Y-88199523D01*
X69899571Y-88235238D01*
X69756714Y-88378095D01*
X69911476Y-88378095D01*
X75943575Y-99736419D02*
X75856908Y-99612609D01*
X75795003Y-99736419D02*
X75795003Y-99476419D01*
X75894051Y-99476419D01*
X75918813Y-99488800D01*
X75931194Y-99501180D01*
X75943575Y-99525942D01*
X75943575Y-99563085D01*
X75931194Y-99587847D01*
X75918813Y-99600228D01*
X75894051Y-99612609D01*
X75795003Y-99612609D01*
X76042622Y-99501180D02*
X76055003Y-99488800D01*
X76079765Y-99476419D01*
X76141670Y-99476419D01*
X76166432Y-99488800D01*
X76178813Y-99501180D01*
X76191194Y-99525942D01*
X76191194Y-99550704D01*
X76178813Y-99587847D01*
X76030241Y-99736419D01*
X76191194Y-99736419D01*
X76426432Y-99476419D02*
X76302622Y-99476419D01*
X76290241Y-99600228D01*
X76302622Y-99587847D01*
X76327384Y-99575466D01*
X76389289Y-99575466D01*
X76414051Y-99587847D01*
X76426432Y-99600228D01*
X76438813Y-99624990D01*
X76438813Y-99686895D01*
X76426432Y-99711657D01*
X76414051Y-99724038D01*
X76389289Y-99736419D01*
X76327384Y-99736419D01*
X76302622Y-99724038D01*
X76290241Y-99711657D01*
X69435285Y-89294085D02*
X69423380Y-89305990D01*
X69387666Y-89317895D01*
X69363857Y-89317895D01*
X69328142Y-89305990D01*
X69304333Y-89282180D01*
X69292428Y-89258371D01*
X69280523Y-89210752D01*
X69280523Y-89175038D01*
X69292428Y-89127419D01*
X69304333Y-89103609D01*
X69328142Y-89079800D01*
X69363857Y-89067895D01*
X69387666Y-89067895D01*
X69423380Y-89079800D01*
X69435285Y-89091704D01*
X69530523Y-89091704D02*
X69542428Y-89079800D01*
X69566238Y-89067895D01*
X69625761Y-89067895D01*
X69649571Y-89079800D01*
X69661476Y-89091704D01*
X69673380Y-89115514D01*
X69673380Y-89139323D01*
X69661476Y-89175038D01*
X69518619Y-89317895D01*
X69673380Y-89317895D01*
X69911476Y-89317895D02*
X69768619Y-89317895D01*
X69840047Y-89317895D02*
X69840047Y-89067895D01*
X69816238Y-89103609D01*
X69792428Y-89127419D01*
X69768619Y-89139323D01*
X77098133Y-118834285D02*
X77086228Y-118846190D01*
X77050514Y-118858095D01*
X77026704Y-118858095D01*
X76990990Y-118846190D01*
X76967180Y-118822380D01*
X76955276Y-118798571D01*
X76943371Y-118750952D01*
X76943371Y-118715238D01*
X76955276Y-118667619D01*
X76967180Y-118643809D01*
X76990990Y-118620000D01*
X77026704Y-118608095D01*
X77050514Y-118608095D01*
X77086228Y-118620000D01*
X77098133Y-118631904D01*
X77181466Y-118608095D02*
X77336228Y-118608095D01*
X77252895Y-118703333D01*
X77288609Y-118703333D01*
X77312419Y-118715238D01*
X77324323Y-118727142D01*
X77336228Y-118750952D01*
X77336228Y-118810476D01*
X77324323Y-118834285D01*
X77312419Y-118846190D01*
X77288609Y-118858095D01*
X77217180Y-118858095D01*
X77193371Y-118846190D01*
X77181466Y-118834285D01*
X71590285Y-107737666D02*
X71602190Y-107749571D01*
X71614095Y-107785285D01*
X71614095Y-107809095D01*
X71602190Y-107844809D01*
X71578380Y-107868619D01*
X71554571Y-107880523D01*
X71506952Y-107892428D01*
X71471238Y-107892428D01*
X71423619Y-107880523D01*
X71399809Y-107868619D01*
X71376000Y-107844809D01*
X71364095Y-107809095D01*
X71364095Y-107785285D01*
X71376000Y-107749571D01*
X71387904Y-107737666D01*
X71364095Y-107511476D02*
X71364095Y-107630523D01*
X71483142Y-107642428D01*
X71471238Y-107630523D01*
X71459333Y-107606714D01*
X71459333Y-107547190D01*
X71471238Y-107523380D01*
X71483142Y-107511476D01*
X71506952Y-107499571D01*
X71566476Y-107499571D01*
X71590285Y-107511476D01*
X71602190Y-107523380D01*
X71614095Y-107547190D01*
X71614095Y-107606714D01*
X71602190Y-107630523D01*
X71590285Y-107642428D01*
D14*
X74887666Y-76968047D02*
X75069095Y-77028523D01*
X75371476Y-77028523D01*
X75492428Y-76968047D01*
X75552904Y-76907571D01*
X75613380Y-76786619D01*
X75613380Y-76665666D01*
X75552904Y-76544714D01*
X75492428Y-76484238D01*
X75371476Y-76423761D01*
X75129571Y-76363285D01*
X75008619Y-76302809D01*
X74948142Y-76242333D01*
X74887666Y-76121380D01*
X74887666Y-76000428D01*
X74948142Y-75879476D01*
X75008619Y-75819000D01*
X75129571Y-75758523D01*
X75431952Y-75758523D01*
X75613380Y-75819000D01*
X76036714Y-75758523D02*
X76339095Y-77028523D01*
X76581000Y-76121380D01*
X76822904Y-77028523D01*
X77125285Y-75758523D01*
X77548619Y-75879476D02*
X77609095Y-75819000D01*
X77730047Y-75758523D01*
X78032428Y-75758523D01*
X78153380Y-75819000D01*
X78213857Y-75879476D01*
X78274333Y-76000428D01*
X78274333Y-76121380D01*
X78213857Y-76302809D01*
X77488142Y-77028523D01*
X78274333Y-77028523D01*
D11*
X72152019Y-119423333D02*
X72028209Y-119510000D01*
X72152019Y-119571904D02*
X71892019Y-119571904D01*
X71892019Y-119472857D01*
X71904400Y-119448095D01*
X71916780Y-119435714D01*
X71941542Y-119423333D01*
X71978685Y-119423333D01*
X72003447Y-119435714D01*
X72015828Y-119448095D01*
X72028209Y-119472857D01*
X72028209Y-119571904D01*
X71978685Y-119200476D02*
X72152019Y-119200476D01*
X71879638Y-119262380D02*
X72065352Y-119324285D01*
X72065352Y-119163333D01*
D12*
X73626790Y-121221780D02*
X73626790Y-120221780D01*
X73864885Y-120221780D01*
X74007742Y-120269400D01*
X74102980Y-120364638D01*
X74150600Y-120459876D01*
X74198219Y-120650352D01*
X74198219Y-120793209D01*
X74150600Y-120983685D01*
X74102980Y-121078923D01*
X74007742Y-121174161D01*
X73864885Y-121221780D01*
X73626790Y-121221780D01*
X74626790Y-121221780D02*
X74626790Y-120221780D01*
X75198219Y-121221780D01*
X75198219Y-120221780D01*
X75674409Y-121221780D02*
X75674409Y-120221780D01*
D13*
X74393457Y-122380352D02*
X74260123Y-122189876D01*
X74164885Y-122380352D02*
X74164885Y-121980352D01*
X74317266Y-121980352D01*
X74355361Y-121999400D01*
X74374409Y-122018447D01*
X74393457Y-122056542D01*
X74393457Y-122113685D01*
X74374409Y-122151780D01*
X74355361Y-122170828D01*
X74317266Y-122189876D01*
X74164885Y-122189876D01*
X74545838Y-122018447D02*
X74564885Y-121999400D01*
X74602980Y-121980352D01*
X74698219Y-121980352D01*
X74736314Y-121999400D01*
X74755361Y-122018447D01*
X74774409Y-122056542D01*
X74774409Y-122094638D01*
X74755361Y-122151780D01*
X74526790Y-122380352D01*
X74774409Y-122380352D01*
X74926790Y-122018447D02*
X74945838Y-121999400D01*
X74983933Y-121980352D01*
X75079171Y-121980352D01*
X75117266Y-121999400D01*
X75136314Y-122018447D01*
X75155361Y-122056542D01*
X75155361Y-122094638D01*
X75136314Y-122151780D01*
X74907742Y-122380352D01*
X75155361Y-122380352D01*
D11*
X71244020Y-119423333D02*
X71120210Y-119510000D01*
X71244020Y-119571904D02*
X70984020Y-119571904D01*
X70984020Y-119472857D01*
X70996401Y-119448095D01*
X71008781Y-119435714D01*
X71033543Y-119423333D01*
X71070686Y-119423333D01*
X71095448Y-119435714D01*
X71107829Y-119448095D01*
X71120210Y-119472857D01*
X71120210Y-119571904D01*
X70984020Y-119188095D02*
X70984020Y-119311904D01*
X71107829Y-119324285D01*
X71095448Y-119311904D01*
X71083067Y-119287142D01*
X71083067Y-119225238D01*
X71095448Y-119200476D01*
X71107829Y-119188095D01*
X71132591Y-119175714D01*
X71194496Y-119175714D01*
X71219258Y-119188095D01*
X71231639Y-119200476D01*
X71244020Y-119225238D01*
X71244020Y-119287142D01*
X71231639Y-119311904D01*
X71219258Y-119324285D01*
X68288285Y-118956514D02*
X68300190Y-118968419D01*
X68312095Y-119004133D01*
X68312095Y-119027942D01*
X68300190Y-119063657D01*
X68276380Y-119087466D01*
X68252571Y-119099371D01*
X68204952Y-119111276D01*
X68169238Y-119111276D01*
X68121619Y-119099371D01*
X68097809Y-119087466D01*
X68074000Y-119063657D01*
X68062095Y-119027942D01*
X68062095Y-119004133D01*
X68074000Y-118968419D01*
X68085904Y-118956514D01*
X68312095Y-118718419D02*
X68312095Y-118861276D01*
X68312095Y-118789847D02*
X68062095Y-118789847D01*
X68097809Y-118813657D01*
X68121619Y-118837466D01*
X68133523Y-118861276D01*
X68312095Y-118480323D02*
X68312095Y-118623180D01*
X68312095Y-118551752D02*
X68062095Y-118551752D01*
X68097809Y-118575561D01*
X68121619Y-118599371D01*
X68133523Y-118623180D01*
X67704085Y-116822914D02*
X67715990Y-116834819D01*
X67727895Y-116870533D01*
X67727895Y-116894342D01*
X67715990Y-116930057D01*
X67692180Y-116953866D01*
X67668371Y-116965771D01*
X67620752Y-116977676D01*
X67585038Y-116977676D01*
X67537419Y-116965771D01*
X67513609Y-116953866D01*
X67489800Y-116930057D01*
X67477895Y-116894342D01*
X67477895Y-116870533D01*
X67489800Y-116834819D01*
X67501704Y-116822914D01*
X67727895Y-116584819D02*
X67727895Y-116727676D01*
X67727895Y-116656247D02*
X67477895Y-116656247D01*
X67513609Y-116680057D01*
X67537419Y-116703866D01*
X67549323Y-116727676D01*
X67585038Y-116441961D02*
X67573133Y-116465771D01*
X67561228Y-116477676D01*
X67537419Y-116489580D01*
X67525514Y-116489580D01*
X67501704Y-116477676D01*
X67489800Y-116465771D01*
X67477895Y-116441961D01*
X67477895Y-116394342D01*
X67489800Y-116370533D01*
X67501704Y-116358628D01*
X67525514Y-116346723D01*
X67537419Y-116346723D01*
X67561228Y-116358628D01*
X67573133Y-116370533D01*
X67585038Y-116394342D01*
X67585038Y-116441961D01*
X67596942Y-116465771D01*
X67608847Y-116477676D01*
X67632657Y-116489580D01*
X67680276Y-116489580D01*
X67704085Y-116477676D01*
X67715990Y-116465771D01*
X67727895Y-116441961D01*
X67727895Y-116394342D01*
X67715990Y-116370533D01*
X67704085Y-116358628D01*
X67680276Y-116346723D01*
X67632657Y-116346723D01*
X67608847Y-116358628D01*
X67596942Y-116370533D01*
X67585038Y-116394342D01*
X71593219Y-78424542D02*
X71469409Y-78511209D01*
X71593219Y-78573114D02*
X71333219Y-78573114D01*
X71333219Y-78474066D01*
X71345600Y-78449304D01*
X71357980Y-78436923D01*
X71382742Y-78424542D01*
X71419885Y-78424542D01*
X71444647Y-78436923D01*
X71457028Y-78449304D01*
X71469409Y-78474066D01*
X71469409Y-78573114D01*
X71593219Y-78176923D02*
X71593219Y-78325495D01*
X71593219Y-78251209D02*
X71333219Y-78251209D01*
X71370361Y-78275971D01*
X71395123Y-78300733D01*
X71407504Y-78325495D01*
X71333219Y-78090257D02*
X71333219Y-77916923D01*
X71593219Y-78028352D01*
X77772803Y-93183585D02*
X77784708Y-93195490D01*
X77796613Y-93231204D01*
X77796613Y-93255013D01*
X77784708Y-93290728D01*
X77760898Y-93314537D01*
X77737089Y-93326442D01*
X77689470Y-93338347D01*
X77653756Y-93338347D01*
X77606137Y-93326442D01*
X77582327Y-93314537D01*
X77558518Y-93290728D01*
X77546613Y-93255013D01*
X77546613Y-93231204D01*
X77558518Y-93195490D01*
X77570422Y-93183585D01*
X77570422Y-93088347D02*
X77558518Y-93076442D01*
X77546613Y-93052632D01*
X77546613Y-92993109D01*
X77558518Y-92969299D01*
X77570422Y-92957394D01*
X77594232Y-92945490D01*
X77618041Y-92945490D01*
X77653756Y-92957394D01*
X77796613Y-93100251D01*
X77796613Y-92945490D01*
X77546613Y-92719299D02*
X77546613Y-92838347D01*
X77665660Y-92850251D01*
X77653756Y-92838347D01*
X77641851Y-92814537D01*
X77641851Y-92755013D01*
X77653756Y-92731204D01*
X77665660Y-92719299D01*
X77689470Y-92707394D01*
X77748994Y-92707394D01*
X77772803Y-92719299D01*
X77784708Y-92731204D01*
X77796613Y-92755013D01*
X77796613Y-92814537D01*
X77784708Y-92838347D01*
X77772803Y-92850251D01*
X72636384Y-100074690D02*
X72549718Y-99950880D01*
X72487813Y-100074690D02*
X72487813Y-99814690D01*
X72586860Y-99814690D01*
X72611622Y-99827071D01*
X72624003Y-99839451D01*
X72636384Y-99864213D01*
X72636384Y-99901356D01*
X72624003Y-99926118D01*
X72611622Y-99938499D01*
X72586860Y-99950880D01*
X72487813Y-99950880D01*
X72723051Y-99814690D02*
X72896384Y-99814690D01*
X72784956Y-100074690D01*
D12*
X72056666Y-130389380D02*
X72056666Y-131103666D01*
X72009047Y-131246523D01*
X71913809Y-131341761D01*
X71770952Y-131389380D01*
X71675714Y-131389380D01*
X73056666Y-131389380D02*
X72485238Y-131389380D01*
X72770952Y-131389380D02*
X72770952Y-130389380D01*
X72675714Y-130532238D01*
X72580476Y-130627476D01*
X72485238Y-130675095D01*
D11*
X75705085Y-105400866D02*
X75716990Y-105412771D01*
X75728895Y-105448485D01*
X75728895Y-105472295D01*
X75716990Y-105508009D01*
X75693180Y-105531819D01*
X75669371Y-105543723D01*
X75621752Y-105555628D01*
X75586038Y-105555628D01*
X75538419Y-105543723D01*
X75514609Y-105531819D01*
X75490800Y-105508009D01*
X75478895Y-105472295D01*
X75478895Y-105448485D01*
X75490800Y-105412771D01*
X75502704Y-105400866D01*
X75728895Y-105162771D02*
X75728895Y-105305628D01*
X75728895Y-105234200D02*
X75478895Y-105234200D01*
X75514609Y-105258009D01*
X75538419Y-105281819D01*
X75550323Y-105305628D01*
X77790819Y-110711133D02*
X77667009Y-110797800D01*
X77790819Y-110859704D02*
X77530819Y-110859704D01*
X77530819Y-110760657D01*
X77543200Y-110735895D01*
X77555580Y-110723514D01*
X77580342Y-110711133D01*
X77617485Y-110711133D01*
X77642247Y-110723514D01*
X77654628Y-110735895D01*
X77667009Y-110760657D01*
X77667009Y-110859704D01*
X77790819Y-110587323D02*
X77790819Y-110537800D01*
X77778438Y-110513038D01*
X77766057Y-110500657D01*
X77728914Y-110475895D01*
X77679390Y-110463514D01*
X77580342Y-110463514D01*
X77555580Y-110475895D01*
X77543200Y-110488276D01*
X77530819Y-110513038D01*
X77530819Y-110562561D01*
X77543200Y-110587323D01*
X77555580Y-110599704D01*
X77580342Y-110612085D01*
X77642247Y-110612085D01*
X77667009Y-110599704D01*
X77679390Y-110587323D01*
X77691771Y-110562561D01*
X77691771Y-110513038D01*
X77679390Y-110488276D01*
X77667009Y-110475895D01*
X77642247Y-110463514D01*
D12*
X80732380Y-104473333D02*
X81446666Y-104473333D01*
X81589523Y-104520952D01*
X81684761Y-104616190D01*
X81732380Y-104759047D01*
X81732380Y-104854285D01*
X80732380Y-104092380D02*
X80732380Y-103473333D01*
X81113333Y-103806666D01*
X81113333Y-103663809D01*
X81160952Y-103568571D01*
X81208571Y-103520952D01*
X81303809Y-103473333D01*
X81541904Y-103473333D01*
X81637142Y-103520952D01*
X81684761Y-103568571D01*
X81732380Y-103663809D01*
X81732380Y-103949523D01*
X81684761Y-104044761D01*
X81637142Y-104092380D01*
D13*
X74391557Y-124818752D02*
X74258223Y-124628276D01*
X74162985Y-124818752D02*
X74162985Y-124418752D01*
X74315366Y-124418752D01*
X74353461Y-124437800D01*
X74372509Y-124456847D01*
X74391557Y-124494942D01*
X74391557Y-124552085D01*
X74372509Y-124590180D01*
X74353461Y-124609228D01*
X74315366Y-124628276D01*
X74162985Y-124628276D01*
X74543938Y-124456847D02*
X74562985Y-124437800D01*
X74601080Y-124418752D01*
X74696319Y-124418752D01*
X74734414Y-124437800D01*
X74753461Y-124456847D01*
X74772509Y-124494942D01*
X74772509Y-124533038D01*
X74753461Y-124590180D01*
X74524890Y-124818752D01*
X74772509Y-124818752D01*
X75115366Y-124552085D02*
X75115366Y-124818752D01*
X75020128Y-124399704D02*
X74924890Y-124685419D01*
X75172509Y-124685419D01*
D12*
X79416780Y-124690095D02*
X78416780Y-124690095D01*
X78416780Y-124452000D01*
X78464400Y-124309142D01*
X78559638Y-124213904D01*
X78654876Y-124166285D01*
X78845352Y-124118666D01*
X78988209Y-124118666D01*
X79178685Y-124166285D01*
X79273923Y-124213904D01*
X79369161Y-124309142D01*
X79416780Y-124452000D01*
X79416780Y-124690095D01*
X78416780Y-123213904D02*
X78416780Y-123690095D01*
X78892971Y-123737714D01*
X78845352Y-123690095D01*
X78797733Y-123594857D01*
X78797733Y-123356761D01*
X78845352Y-123261523D01*
X78892971Y-123213904D01*
X78988209Y-123166285D01*
X79226304Y-123166285D01*
X79321542Y-123213904D01*
X79369161Y-123261523D01*
X79416780Y-123356761D01*
X79416780Y-123594857D01*
X79369161Y-123690095D01*
X79321542Y-123737714D01*
D11*
X77762485Y-113038314D02*
X77774390Y-113050219D01*
X77786295Y-113085933D01*
X77786295Y-113109742D01*
X77774390Y-113145457D01*
X77750580Y-113169266D01*
X77726771Y-113181171D01*
X77679152Y-113193076D01*
X77643438Y-113193076D01*
X77595819Y-113181171D01*
X77572009Y-113169266D01*
X77548200Y-113145457D01*
X77536295Y-113109742D01*
X77536295Y-113085933D01*
X77548200Y-113050219D01*
X77560104Y-113038314D01*
X77786295Y-112800219D02*
X77786295Y-112943076D01*
X77786295Y-112871647D02*
X77536295Y-112871647D01*
X77572009Y-112895457D01*
X77595819Y-112919266D01*
X77607723Y-112943076D01*
X77536295Y-112574028D02*
X77536295Y-112693076D01*
X77655342Y-112704980D01*
X77643438Y-112693076D01*
X77631533Y-112669266D01*
X77631533Y-112609742D01*
X77643438Y-112585933D01*
X77655342Y-112574028D01*
X77679152Y-112562123D01*
X77738676Y-112562123D01*
X77762485Y-112574028D01*
X77774390Y-112585933D01*
X77786295Y-112609742D01*
X77786295Y-112669266D01*
X77774390Y-112693076D01*
X77762485Y-112704980D01*
D15*
X70369952Y-76426190D02*
X70369952Y-75926190D01*
X70489000Y-75926190D01*
X70560428Y-75950000D01*
X70608047Y-75997619D01*
X70631857Y-76045238D01*
X70655666Y-76140476D01*
X70655666Y-76211904D01*
X70631857Y-76307142D01*
X70608047Y-76354761D01*
X70560428Y-76402380D01*
X70489000Y-76426190D01*
X70369952Y-76426190D01*
X70846142Y-75973809D02*
X70869952Y-75950000D01*
X70917571Y-75926190D01*
X71036619Y-75926190D01*
X71084238Y-75950000D01*
X71108047Y-75973809D01*
X71131857Y-76021428D01*
X71131857Y-76069047D01*
X71108047Y-76140476D01*
X70822333Y-76426190D01*
X71131857Y-76426190D01*
D11*
X70726685Y-107737666D02*
X70738590Y-107749571D01*
X70750495Y-107785285D01*
X70750495Y-107809095D01*
X70738590Y-107844809D01*
X70714780Y-107868619D01*
X70690971Y-107880523D01*
X70643352Y-107892428D01*
X70607638Y-107892428D01*
X70560019Y-107880523D01*
X70536209Y-107868619D01*
X70512400Y-107844809D01*
X70500495Y-107809095D01*
X70500495Y-107785285D01*
X70512400Y-107749571D01*
X70524304Y-107737666D01*
X70500495Y-107523380D02*
X70500495Y-107571000D01*
X70512400Y-107594809D01*
X70524304Y-107606714D01*
X70560019Y-107630523D01*
X70607638Y-107642428D01*
X70702876Y-107642428D01*
X70726685Y-107630523D01*
X70738590Y-107618619D01*
X70750495Y-107594809D01*
X70750495Y-107547190D01*
X70738590Y-107523380D01*
X70726685Y-107511476D01*
X70702876Y-107499571D01*
X70643352Y-107499571D01*
X70619542Y-107511476D01*
X70607638Y-107523380D01*
X70595733Y-107547190D01*
X70595733Y-107594809D01*
X70607638Y-107618619D01*
X70619542Y-107630523D01*
X70643352Y-107642428D01*
X66284619Y-76367142D02*
X66160809Y-76453809D01*
X66284619Y-76515714D02*
X66024619Y-76515714D01*
X66024619Y-76416666D01*
X66037000Y-76391904D01*
X66049380Y-76379523D01*
X66074142Y-76367142D01*
X66111285Y-76367142D01*
X66136047Y-76379523D01*
X66148428Y-76391904D01*
X66160809Y-76416666D01*
X66160809Y-76515714D01*
X66284619Y-76119523D02*
X66284619Y-76268095D01*
X66284619Y-76193809D02*
X66024619Y-76193809D01*
X66061761Y-76218571D01*
X66086523Y-76243333D01*
X66098904Y-76268095D01*
X66111285Y-75896666D02*
X66284619Y-75896666D01*
X66012238Y-75958571D02*
X66197952Y-76020476D01*
X66197952Y-75859523D01*
X76543285Y-90917514D02*
X76555190Y-90929419D01*
X76567095Y-90965133D01*
X76567095Y-90988942D01*
X76555190Y-91024657D01*
X76531380Y-91048466D01*
X76507571Y-91060371D01*
X76459952Y-91072276D01*
X76424238Y-91072276D01*
X76376619Y-91060371D01*
X76352809Y-91048466D01*
X76329000Y-91024657D01*
X76317095Y-90988942D01*
X76317095Y-90965133D01*
X76329000Y-90929419D01*
X76340904Y-90917514D01*
X76317095Y-90834180D02*
X76317095Y-90679419D01*
X76412333Y-90762752D01*
X76412333Y-90727038D01*
X76424238Y-90703228D01*
X76436142Y-90691323D01*
X76459952Y-90679419D01*
X76519476Y-90679419D01*
X76543285Y-90691323D01*
X76555190Y-90703228D01*
X76567095Y-90727038D01*
X76567095Y-90798466D01*
X76555190Y-90822276D01*
X76543285Y-90834180D01*
X76567095Y-90441323D02*
X76567095Y-90584180D01*
X76567095Y-90512752D02*
X76317095Y-90512752D01*
X76352809Y-90536561D01*
X76376619Y-90560371D01*
X76388523Y-90584180D01*
X69231019Y-107863142D02*
X69107209Y-107949809D01*
X69231019Y-108011714D02*
X68971019Y-108011714D01*
X68971019Y-107912666D01*
X68983400Y-107887904D01*
X68995780Y-107875523D01*
X69020542Y-107863142D01*
X69057685Y-107863142D01*
X69082447Y-107875523D01*
X69094828Y-107887904D01*
X69107209Y-107912666D01*
X69107209Y-108011714D01*
X69231019Y-107615523D02*
X69231019Y-107764095D01*
X69231019Y-107689809D02*
X68971019Y-107689809D01*
X69008161Y-107714571D01*
X69032923Y-107739333D01*
X69045304Y-107764095D01*
X68971019Y-107392666D02*
X68971019Y-107442190D01*
X68983400Y-107466952D01*
X68995780Y-107479333D01*
X69032923Y-107504095D01*
X69082447Y-107516476D01*
X69181495Y-107516476D01*
X69206257Y-107504095D01*
X69218638Y-107491714D01*
X69231019Y-107466952D01*
X69231019Y-107417428D01*
X69218638Y-107392666D01*
X69206257Y-107380285D01*
X69181495Y-107367904D01*
X69119590Y-107367904D01*
X69094828Y-107380285D01*
X69082447Y-107392666D01*
X69070066Y-107417428D01*
X69070066Y-107466952D01*
X69082447Y-107491714D01*
X69094828Y-107504095D01*
X69119590Y-107516476D01*
X66988457Y-114239819D02*
X66901790Y-114116009D01*
X66839885Y-114239819D02*
X66839885Y-113979819D01*
X66938933Y-113979819D01*
X66963695Y-113992200D01*
X66976076Y-114004580D01*
X66988457Y-114029342D01*
X66988457Y-114066485D01*
X66976076Y-114091247D01*
X66963695Y-114103628D01*
X66938933Y-114116009D01*
X66839885Y-114116009D01*
X67087504Y-114004580D02*
X67099885Y-113992200D01*
X67124647Y-113979819D01*
X67186552Y-113979819D01*
X67211314Y-113992200D01*
X67223695Y-114004580D01*
X67236076Y-114029342D01*
X67236076Y-114054104D01*
X67223695Y-114091247D01*
X67075123Y-114239819D01*
X67236076Y-114239819D01*
X67322742Y-113979819D02*
X67483695Y-113979819D01*
X67397028Y-114078866D01*
X67434171Y-114078866D01*
X67458933Y-114091247D01*
X67471314Y-114103628D01*
X67483695Y-114128390D01*
X67483695Y-114190295D01*
X67471314Y-114215057D01*
X67458933Y-114227438D01*
X67434171Y-114239819D01*
X67359885Y-114239819D01*
X67335123Y-114227438D01*
X67322742Y-114215057D01*
D12*
X62952380Y-104473333D02*
X63666666Y-104473333D01*
X63809523Y-104520952D01*
X63904761Y-104616190D01*
X63952380Y-104759047D01*
X63952380Y-104854285D01*
X63047619Y-104044761D02*
X63000000Y-103997142D01*
X62952380Y-103901904D01*
X62952380Y-103663809D01*
X63000000Y-103568571D01*
X63047619Y-103520952D01*
X63142857Y-103473333D01*
X63238095Y-103473333D01*
X63380952Y-103520952D01*
X63952380Y-104092380D01*
X63952380Y-103473333D01*
D16*
X78164571Y-132820571D02*
X78064571Y-132820571D01*
X78064571Y-132977714D02*
X78064571Y-132677714D01*
X78207428Y-132677714D01*
X78321714Y-132977714D02*
X78321714Y-132677714D01*
X78464571Y-132977714D02*
X78464571Y-132677714D01*
X78536000Y-132677714D01*
X78578857Y-132692000D01*
X78607428Y-132720571D01*
X78621714Y-132749142D01*
X78636000Y-132806285D01*
X78636000Y-132849142D01*
X78621714Y-132906285D01*
X78607428Y-132934857D01*
X78578857Y-132963428D01*
X78536000Y-132977714D01*
X78464571Y-132977714D01*
X78736000Y-132677714D02*
X78921714Y-132677714D01*
X78821714Y-132792000D01*
X78864571Y-132792000D01*
X78893142Y-132806285D01*
X78907428Y-132820571D01*
X78921714Y-132849142D01*
X78921714Y-132920571D01*
X78907428Y-132949142D01*
X78893142Y-132963428D01*
X78864571Y-132977714D01*
X78778857Y-132977714D01*
X78750285Y-132963428D01*
X78736000Y-132949142D01*
D11*
X72404485Y-89294085D02*
X72392580Y-89305990D01*
X72356866Y-89317895D01*
X72333057Y-89317895D01*
X72297342Y-89305990D01*
X72273533Y-89282180D01*
X72261628Y-89258371D01*
X72249723Y-89210752D01*
X72249723Y-89175038D01*
X72261628Y-89127419D01*
X72273533Y-89103609D01*
X72297342Y-89079800D01*
X72333057Y-89067895D01*
X72356866Y-89067895D01*
X72392580Y-89079800D01*
X72404485Y-89091704D01*
X72487819Y-89067895D02*
X72642580Y-89067895D01*
X72559247Y-89163133D01*
X72594961Y-89163133D01*
X72618771Y-89175038D01*
X72630676Y-89186942D01*
X72642580Y-89210752D01*
X72642580Y-89270276D01*
X72630676Y-89294085D01*
X72618771Y-89305990D01*
X72594961Y-89317895D01*
X72523533Y-89317895D01*
X72499723Y-89305990D01*
X72487819Y-89294085D01*
X72725914Y-89067895D02*
X72880676Y-89067895D01*
X72797342Y-89163133D01*
X72833057Y-89163133D01*
X72856866Y-89175038D01*
X72868771Y-89186942D01*
X72880676Y-89210752D01*
X72880676Y-89270276D01*
X72868771Y-89294085D01*
X72856866Y-89305990D01*
X72833057Y-89317895D01*
X72761628Y-89317895D01*
X72737819Y-89305990D01*
X72725914Y-89294085D01*
D14*
X68840047Y-124502333D02*
X68900523Y-124320904D01*
X68900523Y-124018523D01*
X68840047Y-123897571D01*
X68779571Y-123837095D01*
X68658619Y-123776619D01*
X68537666Y-123776619D01*
X68416714Y-123837095D01*
X68356238Y-123897571D01*
X68295761Y-124018523D01*
X68235285Y-124260428D01*
X68174809Y-124381380D01*
X68114333Y-124441857D01*
X67993380Y-124502333D01*
X67872428Y-124502333D01*
X67751476Y-124441857D01*
X67691000Y-124381380D01*
X67630523Y-124260428D01*
X67630523Y-123958047D01*
X67691000Y-123776619D01*
X67630523Y-123353285D02*
X68900523Y-123050904D01*
X67993380Y-122809000D01*
X68900523Y-122567095D01*
X67630523Y-122264714D01*
X68900523Y-121115666D02*
X68900523Y-121841380D01*
X68900523Y-121478523D02*
X67630523Y-121478523D01*
X67811952Y-121599476D01*
X67932904Y-121720428D01*
X67993380Y-121841380D01*
D11*
X70475619Y-78424542D02*
X70351809Y-78511209D01*
X70475619Y-78573114D02*
X70215619Y-78573114D01*
X70215619Y-78474066D01*
X70228000Y-78449304D01*
X70240380Y-78436923D01*
X70265142Y-78424542D01*
X70302285Y-78424542D01*
X70327047Y-78436923D01*
X70339428Y-78449304D01*
X70351809Y-78474066D01*
X70351809Y-78573114D01*
X70475619Y-78176923D02*
X70475619Y-78325495D01*
X70475619Y-78251209D02*
X70215619Y-78251209D01*
X70252761Y-78275971D01*
X70277523Y-78300733D01*
X70289904Y-78325495D01*
X70327047Y-78028352D02*
X70314666Y-78053114D01*
X70302285Y-78065495D01*
X70277523Y-78077876D01*
X70265142Y-78077876D01*
X70240380Y-78065495D01*
X70228000Y-78053114D01*
X70215619Y-78028352D01*
X70215619Y-77978828D01*
X70228000Y-77954066D01*
X70240380Y-77941685D01*
X70265142Y-77929304D01*
X70277523Y-77929304D01*
X70302285Y-77941685D01*
X70314666Y-77954066D01*
X70327047Y-77978828D01*
X70327047Y-78028352D01*
X70339428Y-78053114D01*
X70351809Y-78065495D01*
X70376571Y-78077876D01*
X70426095Y-78077876D01*
X70450857Y-78065495D01*
X70463238Y-78053114D01*
X70475619Y-78028352D01*
X70475619Y-77978828D01*
X70463238Y-77954066D01*
X70450857Y-77941685D01*
X70426095Y-77929304D01*
X70376571Y-77929304D01*
X70351809Y-77941685D01*
X70339428Y-77954066D01*
X70327047Y-77978828D01*
D15*
X69489679Y-83978061D02*
X69323013Y-83739966D01*
X69203965Y-83978061D02*
X69203965Y-83478061D01*
X69394441Y-83478061D01*
X69442060Y-83501871D01*
X69465870Y-83525680D01*
X69489679Y-83573299D01*
X69489679Y-83644728D01*
X69465870Y-83692347D01*
X69442060Y-83716156D01*
X69394441Y-83739966D01*
X69203965Y-83739966D01*
X69703965Y-83978061D02*
X69703965Y-83478061D01*
X69989679Y-83978061D01*
X69989679Y-83478061D01*
X70489679Y-83978061D02*
X70203965Y-83978061D01*
X70346822Y-83978061D02*
X70346822Y-83478061D01*
X70299203Y-83549490D01*
X70251584Y-83597109D01*
X70203965Y-83620918D01*
D11*
X76464657Y-79670419D02*
X76377990Y-79546609D01*
X76316085Y-79670419D02*
X76316085Y-79410419D01*
X76415133Y-79410419D01*
X76439895Y-79422800D01*
X76452276Y-79435180D01*
X76464657Y-79459942D01*
X76464657Y-79497085D01*
X76452276Y-79521847D01*
X76439895Y-79534228D01*
X76415133Y-79546609D01*
X76316085Y-79546609D01*
X76563704Y-79435180D02*
X76576085Y-79422800D01*
X76600847Y-79410419D01*
X76662752Y-79410419D01*
X76687514Y-79422800D01*
X76699895Y-79435180D01*
X76712276Y-79459942D01*
X76712276Y-79484704D01*
X76699895Y-79521847D01*
X76551323Y-79670419D01*
X76712276Y-79670419D01*
X76959895Y-79670419D02*
X76811323Y-79670419D01*
X76885609Y-79670419D02*
X76885609Y-79410419D01*
X76860847Y-79447561D01*
X76836085Y-79472323D01*
X76811323Y-79484704D01*
D12*
X71602695Y-112837980D02*
X71602695Y-113647504D01*
X71650314Y-113742742D01*
X71697933Y-113790361D01*
X71793171Y-113837980D01*
X71983647Y-113837980D01*
X72078885Y-113790361D01*
X72126504Y-113742742D01*
X72174123Y-113647504D01*
X72174123Y-112837980D01*
X72555076Y-112837980D02*
X73174123Y-112837980D01*
X72840790Y-113218933D01*
X72983647Y-113218933D01*
X73078885Y-113266552D01*
X73126504Y-113314171D01*
X73174123Y-113409409D01*
X73174123Y-113647504D01*
X73126504Y-113742742D01*
X73078885Y-113790361D01*
X72983647Y-113837980D01*
X72697933Y-113837980D01*
X72602695Y-113790361D01*
X72555076Y-113742742D01*
X73626790Y-122440980D02*
X73626790Y-121440980D01*
X73864885Y-121440980D01*
X74007742Y-121488600D01*
X74102980Y-121583838D01*
X74150600Y-121679076D01*
X74198219Y-121869552D01*
X74198219Y-122012409D01*
X74150600Y-122202885D01*
X74102980Y-122298123D01*
X74007742Y-122393361D01*
X73864885Y-122440980D01*
X73626790Y-122440980D01*
X74626790Y-122440980D02*
X74626790Y-121440980D01*
X75198219Y-122440980D01*
X75198219Y-121440980D01*
X75674409Y-122440980D02*
X75674409Y-121440980D01*
D13*
X74393457Y-123599552D02*
X74260123Y-123409076D01*
X74164885Y-123599552D02*
X74164885Y-123199552D01*
X74317266Y-123199552D01*
X74355361Y-123218600D01*
X74374409Y-123237647D01*
X74393457Y-123275742D01*
X74393457Y-123332885D01*
X74374409Y-123370980D01*
X74355361Y-123390028D01*
X74317266Y-123409076D01*
X74164885Y-123409076D01*
X74545838Y-123237647D02*
X74564885Y-123218600D01*
X74602980Y-123199552D01*
X74698219Y-123199552D01*
X74736314Y-123218600D01*
X74755361Y-123237647D01*
X74774409Y-123275742D01*
X74774409Y-123313838D01*
X74755361Y-123370980D01*
X74526790Y-123599552D01*
X74774409Y-123599552D01*
X75022028Y-123199552D02*
X75060123Y-123199552D01*
X75098219Y-123218600D01*
X75117266Y-123237647D01*
X75136314Y-123275742D01*
X75155361Y-123351933D01*
X75155361Y-123447171D01*
X75136314Y-123523361D01*
X75117266Y-123561457D01*
X75098219Y-123580504D01*
X75060123Y-123599552D01*
X75022028Y-123599552D01*
X74983933Y-123580504D01*
X74964885Y-123561457D01*
X74945838Y-123523361D01*
X74926790Y-123447171D01*
X74926790Y-123351933D01*
X74945838Y-123275742D01*
X74964885Y-123237647D01*
X74983933Y-123218600D01*
X75022028Y-123199552D01*
D16*
X73882289Y-86727642D02*
X73782289Y-86727642D01*
X73782289Y-86884785D02*
X73782289Y-86584785D01*
X73925146Y-86584785D01*
X74039432Y-86884785D02*
X74039432Y-86584785D01*
X74182289Y-86884785D02*
X74182289Y-86584785D01*
X74253718Y-86584785D01*
X74296575Y-86599071D01*
X74325146Y-86627642D01*
X74339432Y-86656213D01*
X74353718Y-86713356D01*
X74353718Y-86756213D01*
X74339432Y-86813356D01*
X74325146Y-86841928D01*
X74296575Y-86870499D01*
X74253718Y-86884785D01*
X74182289Y-86884785D01*
X74639432Y-86884785D02*
X74468003Y-86884785D01*
X74553718Y-86884785D02*
X74553718Y-86584785D01*
X74525146Y-86627642D01*
X74496575Y-86656213D01*
X74468003Y-86670499D01*
D11*
X72187737Y-86992413D02*
X72063927Y-87079080D01*
X72187737Y-87140985D02*
X71927737Y-87140985D01*
X71927737Y-87041937D01*
X71940118Y-87017175D01*
X71952498Y-87004794D01*
X71977260Y-86992413D01*
X72014403Y-86992413D01*
X72039165Y-87004794D01*
X72051546Y-87017175D01*
X72063927Y-87041937D01*
X72063927Y-87140985D01*
X72187737Y-86744794D02*
X72187737Y-86893366D01*
X72187737Y-86819080D02*
X71927737Y-86819080D01*
X71964879Y-86843842D01*
X71989641Y-86868604D01*
X72002022Y-86893366D01*
X72187737Y-86497175D02*
X72187737Y-86645747D01*
X72187737Y-86571461D02*
X71927737Y-86571461D01*
X71964879Y-86596223D01*
X71989641Y-86620985D01*
X72002022Y-86645747D01*
D17*
X73112314Y-105238514D02*
X73398028Y-105238514D01*
X72798028Y-105438514D02*
X73112314Y-105238514D01*
X72798028Y-105038514D01*
X73398028Y-104524228D02*
X73398028Y-104867085D01*
X73398028Y-104695657D02*
X72798028Y-104695657D01*
X72883742Y-104752800D01*
X72940885Y-104809942D01*
X72969457Y-104867085D01*
D12*
X79482098Y-91162095D02*
X78482098Y-91162095D01*
X78482098Y-90924000D01*
X78529718Y-90781142D01*
X78624956Y-90685904D01*
X78720194Y-90638285D01*
X78910670Y-90590666D01*
X79053527Y-90590666D01*
X79244003Y-90638285D01*
X79339241Y-90685904D01*
X79434479Y-90781142D01*
X79482098Y-90924000D01*
X79482098Y-91162095D01*
X79482098Y-89638285D02*
X79482098Y-90209714D01*
X79482098Y-89924000D02*
X78482098Y-89924000D01*
X78624956Y-90019238D01*
X78720194Y-90114476D01*
X78767813Y-90209714D01*
X70775580Y-95046704D02*
X71585104Y-95046704D01*
X71680342Y-94999085D01*
X71727961Y-94951466D01*
X71775580Y-94856228D01*
X71775580Y-94665752D01*
X71727961Y-94570514D01*
X71680342Y-94522895D01*
X71585104Y-94475276D01*
X70775580Y-94475276D01*
X70775580Y-93570514D02*
X70775580Y-93760990D01*
X70823200Y-93856228D01*
X70870819Y-93903847D01*
X71013676Y-93999085D01*
X71204152Y-94046704D01*
X71585104Y-94046704D01*
X71680342Y-93999085D01*
X71727961Y-93951466D01*
X71775580Y-93856228D01*
X71775580Y-93665752D01*
X71727961Y-93570514D01*
X71680342Y-93522895D01*
X71585104Y-93475276D01*
X71347009Y-93475276D01*
X71251771Y-93522895D01*
X71204152Y-93570514D01*
X71156533Y-93665752D01*
X71156533Y-93856228D01*
X71204152Y-93951466D01*
X71251771Y-93999085D01*
X71347009Y-94046704D01*
X80518095Y-132532380D02*
X80518095Y-131532380D01*
X80518095Y-132008571D02*
X81089523Y-132008571D01*
X81089523Y-132532380D02*
X81089523Y-131532380D01*
X81470476Y-131532380D02*
X82089523Y-131532380D01*
X81756190Y-131913333D01*
X81899047Y-131913333D01*
X81994285Y-131960952D01*
X82041904Y-132008571D01*
X82089523Y-132103809D01*
X82089523Y-132341904D01*
X82041904Y-132437142D01*
X81994285Y-132484761D01*
X81899047Y-132532380D01*
X81613333Y-132532380D01*
X81518095Y-132484761D01*
X81470476Y-132437142D01*
D11*
X76852085Y-88989285D02*
X76840180Y-89001190D01*
X76804466Y-89013095D01*
X76780657Y-89013095D01*
X76744942Y-89001190D01*
X76721133Y-88977380D01*
X76709228Y-88953571D01*
X76697323Y-88905952D01*
X76697323Y-88870238D01*
X76709228Y-88822619D01*
X76721133Y-88798809D01*
X76744942Y-88775000D01*
X76780657Y-88763095D01*
X76804466Y-88763095D01*
X76840180Y-88775000D01*
X76852085Y-88786904D01*
X76947323Y-88786904D02*
X76959228Y-88775000D01*
X76983038Y-88763095D01*
X77042561Y-88763095D01*
X77066371Y-88775000D01*
X77078276Y-88786904D01*
X77090180Y-88810714D01*
X77090180Y-88834523D01*
X77078276Y-88870238D01*
X76935419Y-89013095D01*
X77090180Y-89013095D01*
X77233038Y-88870238D02*
X77209228Y-88858333D01*
X77197323Y-88846428D01*
X77185419Y-88822619D01*
X77185419Y-88810714D01*
X77197323Y-88786904D01*
X77209228Y-88775000D01*
X77233038Y-88763095D01*
X77280657Y-88763095D01*
X77304466Y-88775000D01*
X77316371Y-88786904D01*
X77328276Y-88810714D01*
X77328276Y-88822619D01*
X77316371Y-88846428D01*
X77304466Y-88858333D01*
X77280657Y-88870238D01*
X77233038Y-88870238D01*
X77209228Y-88882142D01*
X77197323Y-88894047D01*
X77185419Y-88917857D01*
X77185419Y-88965476D01*
X77197323Y-88989285D01*
X77209228Y-89001190D01*
X77233038Y-89013095D01*
X77280657Y-89013095D01*
X77304466Y-89001190D01*
X77316371Y-88989285D01*
X77328276Y-88965476D01*
X77328276Y-88917857D01*
X77316371Y-88894047D01*
X77304466Y-88882142D01*
X77280657Y-88870238D01*
X69177285Y-118956514D02*
X69189190Y-118968419D01*
X69201095Y-119004133D01*
X69201095Y-119027942D01*
X69189190Y-119063657D01*
X69165380Y-119087466D01*
X69141571Y-119099371D01*
X69093952Y-119111276D01*
X69058238Y-119111276D01*
X69010619Y-119099371D01*
X68986809Y-119087466D01*
X68963000Y-119063657D01*
X68951095Y-119027942D01*
X68951095Y-119004133D01*
X68963000Y-118968419D01*
X68974904Y-118956514D01*
X69201095Y-118718419D02*
X69201095Y-118861276D01*
X69201095Y-118789847D02*
X68951095Y-118789847D01*
X68986809Y-118813657D01*
X69010619Y-118837466D01*
X69022523Y-118861276D01*
X68951095Y-118563657D02*
X68951095Y-118539847D01*
X68963000Y-118516038D01*
X68974904Y-118504133D01*
X68998714Y-118492228D01*
X69046333Y-118480323D01*
X69105857Y-118480323D01*
X69153476Y-118492228D01*
X69177285Y-118504133D01*
X69189190Y-118516038D01*
X69201095Y-118539847D01*
X69201095Y-118563657D01*
X69189190Y-118587466D01*
X69177285Y-118599371D01*
X69153476Y-118611276D01*
X69105857Y-118623180D01*
X69046333Y-118623180D01*
X68998714Y-118611276D01*
X68974904Y-118599371D01*
X68963000Y-118587466D01*
X68951095Y-118563657D01*
X70879085Y-104130866D02*
X70890990Y-104142771D01*
X70902895Y-104178485D01*
X70902895Y-104202295D01*
X70890990Y-104238009D01*
X70867180Y-104261819D01*
X70843371Y-104273723D01*
X70795752Y-104285628D01*
X70760038Y-104285628D01*
X70712419Y-104273723D01*
X70688609Y-104261819D01*
X70664800Y-104238009D01*
X70652895Y-104202295D01*
X70652895Y-104178485D01*
X70664800Y-104142771D01*
X70676704Y-104130866D01*
X70676704Y-104035628D02*
X70664800Y-104023723D01*
X70652895Y-103999914D01*
X70652895Y-103940390D01*
X70664800Y-103916580D01*
X70676704Y-103904676D01*
X70700514Y-103892771D01*
X70724323Y-103892771D01*
X70760038Y-103904676D01*
X70902895Y-104047533D01*
X70902895Y-103892771D01*
X72381685Y-88328885D02*
X72369780Y-88340790D01*
X72334066Y-88352695D01*
X72310257Y-88352695D01*
X72274542Y-88340790D01*
X72250733Y-88316980D01*
X72238828Y-88293171D01*
X72226923Y-88245552D01*
X72226923Y-88209838D01*
X72238828Y-88162219D01*
X72250733Y-88138409D01*
X72274542Y-88114600D01*
X72310257Y-88102695D01*
X72334066Y-88102695D01*
X72369780Y-88114600D01*
X72381685Y-88126504D01*
X72465019Y-88102695D02*
X72619780Y-88102695D01*
X72536447Y-88197933D01*
X72572161Y-88197933D01*
X72595971Y-88209838D01*
X72607876Y-88221742D01*
X72619780Y-88245552D01*
X72619780Y-88305076D01*
X72607876Y-88328885D01*
X72595971Y-88340790D01*
X72572161Y-88352695D01*
X72500733Y-88352695D01*
X72476923Y-88340790D01*
X72465019Y-88328885D01*
X72834066Y-88186028D02*
X72834066Y-88352695D01*
X72774542Y-88090790D02*
X72715019Y-88269361D01*
X72869780Y-88269361D01*
X66990457Y-113325419D02*
X66903790Y-113201609D01*
X66841885Y-113325419D02*
X66841885Y-113065419D01*
X66940933Y-113065419D01*
X66965695Y-113077800D01*
X66978076Y-113090180D01*
X66990457Y-113114942D01*
X66990457Y-113152085D01*
X66978076Y-113176847D01*
X66965695Y-113189228D01*
X66940933Y-113201609D01*
X66841885Y-113201609D01*
X67238076Y-113325419D02*
X67089504Y-113325419D01*
X67163790Y-113325419D02*
X67163790Y-113065419D01*
X67139028Y-113102561D01*
X67114266Y-113127323D01*
X67089504Y-113139704D01*
X67337123Y-113090180D02*
X67349504Y-113077800D01*
X67374266Y-113065419D01*
X67436171Y-113065419D01*
X67460933Y-113077800D01*
X67473314Y-113090180D01*
X67485695Y-113114942D01*
X67485695Y-113139704D01*
X67473314Y-113176847D01*
X67324742Y-113325419D01*
X67485695Y-113325419D01*
X70907419Y-105961333D02*
X70783609Y-106048000D01*
X70907419Y-106109904D02*
X70647419Y-106109904D01*
X70647419Y-106010857D01*
X70659800Y-105986095D01*
X70672180Y-105973714D01*
X70696942Y-105961333D01*
X70734085Y-105961333D01*
X70758847Y-105973714D01*
X70771228Y-105986095D01*
X70783609Y-106010857D01*
X70783609Y-106109904D01*
X70907419Y-105713714D02*
X70907419Y-105862285D01*
X70907419Y-105788000D02*
X70647419Y-105788000D01*
X70684561Y-105812761D01*
X70709323Y-105837523D01*
X70721704Y-105862285D01*
D13*
X74393457Y-121161152D02*
X74260123Y-120970676D01*
X74164885Y-121161152D02*
X74164885Y-120761152D01*
X74317266Y-120761152D01*
X74355361Y-120780200D01*
X74374409Y-120799247D01*
X74393457Y-120837342D01*
X74393457Y-120894485D01*
X74374409Y-120932580D01*
X74355361Y-120951628D01*
X74317266Y-120970676D01*
X74164885Y-120970676D01*
X74774409Y-121161152D02*
X74545838Y-121161152D01*
X74660123Y-121161152D02*
X74660123Y-120761152D01*
X74622028Y-120818295D01*
X74583933Y-120856390D01*
X74545838Y-120875438D01*
X75022028Y-120761152D02*
X75060123Y-120761152D01*
X75098219Y-120780200D01*
X75117266Y-120799247D01*
X75136314Y-120837342D01*
X75155361Y-120913533D01*
X75155361Y-121008771D01*
X75136314Y-121084961D01*
X75117266Y-121123057D01*
X75098219Y-121142104D01*
X75060123Y-121161152D01*
X75022028Y-121161152D01*
X74983933Y-121142104D01*
X74964885Y-121123057D01*
X74945838Y-121084961D01*
X74926790Y-121008771D01*
X74926790Y-120913533D01*
X74945838Y-120837342D01*
X74964885Y-120799247D01*
X74983933Y-120780200D01*
X75022028Y-120761152D01*
D11*
X76807603Y-93183585D02*
X76819508Y-93195490D01*
X76831413Y-93231204D01*
X76831413Y-93255013D01*
X76819508Y-93290728D01*
X76795698Y-93314537D01*
X76771889Y-93326442D01*
X76724270Y-93338347D01*
X76688556Y-93338347D01*
X76640937Y-93326442D01*
X76617127Y-93314537D01*
X76593318Y-93290728D01*
X76581413Y-93255013D01*
X76581413Y-93231204D01*
X76593318Y-93195490D01*
X76605222Y-93183585D01*
X76605222Y-93088347D02*
X76593318Y-93076442D01*
X76581413Y-93052632D01*
X76581413Y-92993109D01*
X76593318Y-92969299D01*
X76605222Y-92957394D01*
X76629032Y-92945490D01*
X76652841Y-92945490D01*
X76688556Y-92957394D01*
X76831413Y-93100251D01*
X76831413Y-92945490D01*
X76664746Y-92731204D02*
X76831413Y-92731204D01*
X76569508Y-92790728D02*
X76748079Y-92850251D01*
X76748079Y-92695490D01*
D16*
X65972571Y-132820571D02*
X65872571Y-132820571D01*
X65872571Y-132977714D02*
X65872571Y-132677714D01*
X66015428Y-132677714D01*
X66129714Y-132977714D02*
X66129714Y-132677714D01*
X66272571Y-132977714D02*
X66272571Y-132677714D01*
X66344000Y-132677714D01*
X66386857Y-132692000D01*
X66415428Y-132720571D01*
X66429714Y-132749142D01*
X66444000Y-132806285D01*
X66444000Y-132849142D01*
X66429714Y-132906285D01*
X66415428Y-132934857D01*
X66386857Y-132963428D01*
X66344000Y-132977714D01*
X66272571Y-132977714D01*
X66715428Y-132677714D02*
X66572571Y-132677714D01*
X66558285Y-132820571D01*
X66572571Y-132806285D01*
X66601142Y-132792000D01*
X66672571Y-132792000D01*
X66701142Y-132806285D01*
X66715428Y-132820571D01*
X66729714Y-132849142D01*
X66729714Y-132920571D01*
X66715428Y-132949142D01*
X66701142Y-132963428D01*
X66672571Y-132977714D01*
X66601142Y-132977714D01*
X66572571Y-132963428D01*
X66558285Y-132949142D01*
D11*
X72991285Y-78372085D02*
X72979380Y-78383990D01*
X72943666Y-78395895D01*
X72919857Y-78395895D01*
X72884142Y-78383990D01*
X72860333Y-78360180D01*
X72848428Y-78336371D01*
X72836523Y-78288752D01*
X72836523Y-78253038D01*
X72848428Y-78205419D01*
X72860333Y-78181609D01*
X72884142Y-78157800D01*
X72919857Y-78145895D01*
X72943666Y-78145895D01*
X72979380Y-78157800D01*
X72991285Y-78169704D01*
X73074619Y-78145895D02*
X73229380Y-78145895D01*
X73146047Y-78241133D01*
X73181761Y-78241133D01*
X73205571Y-78253038D01*
X73217476Y-78264942D01*
X73229380Y-78288752D01*
X73229380Y-78348276D01*
X73217476Y-78372085D01*
X73205571Y-78383990D01*
X73181761Y-78395895D01*
X73110333Y-78395895D01*
X73086523Y-78383990D01*
X73074619Y-78372085D01*
X73324619Y-78169704D02*
X73336523Y-78157800D01*
X73360333Y-78145895D01*
X73419857Y-78145895D01*
X73443666Y-78157800D01*
X73455571Y-78169704D01*
X73467476Y-78193514D01*
X73467476Y-78217323D01*
X73455571Y-78253038D01*
X73312714Y-78395895D01*
X73467476Y-78395895D01*
D18*
X68995800Y-77732400D02*
X69535800Y-77732400D01*
X69535800Y-78782400D02*
X68995800Y-78782400D01*
X69535800Y-77732400D02*
X69535800Y-78782400D01*
X68995800Y-78782400D02*
X68995800Y-77732400D01*
X72114600Y-107196000D02*
X72614600Y-107196000D01*
X72614600Y-108196000D02*
X72114600Y-108196000D01*
X72114600Y-108196000D02*
X72114600Y-107196000D01*
X72614600Y-107196000D02*
X72614600Y-108196000D01*
X77526900Y-121602400D02*
X76701900Y-121602400D01*
X76701900Y-121602400D02*
X76701900Y-120002400D01*
X77526900Y-120002400D02*
X77526900Y-121602400D01*
X76701900Y-120002400D02*
X77526900Y-120002400D01*
X68546600Y-98683000D02*
X68546600Y-99183000D01*
X67546600Y-98683000D02*
X68546600Y-98683000D01*
X68546600Y-99183000D02*
X67546600Y-99183000D01*
X67546600Y-99183000D02*
X67546600Y-98683000D01*
X76813600Y-116238400D02*
X77313600Y-116238400D01*
X77313600Y-116238400D02*
X77313600Y-117238400D01*
X77313600Y-117238400D02*
X76813600Y-117238400D01*
X76813600Y-117238400D02*
X76813600Y-116238400D01*
X69727000Y-118295800D02*
X70227000Y-118295800D01*
X69727000Y-119295800D02*
X69727000Y-118295800D01*
X70227000Y-118295800D02*
X70227000Y-119295800D01*
X70227000Y-119295800D02*
X69727000Y-119295800D01*
X67546600Y-99648200D02*
X68546600Y-99648200D01*
X68546600Y-99648200D02*
X68546600Y-100148200D01*
X68546600Y-100148200D02*
X67546600Y-100148200D01*
X67546600Y-100148200D02*
X67546600Y-99648200D01*
X67164000Y-77000000D02*
X67964000Y-77000000D01*
X67964000Y-75700000D02*
X67664000Y-75400000D01*
X67964000Y-77000000D02*
X67964000Y-75700000D01*
X67164000Y-75400000D02*
X67164000Y-77000000D01*
X67664000Y-75400000D02*
X67164000Y-75400000D01*
X66657600Y-112068800D02*
X67657600Y-112068800D01*
X66657600Y-112568800D02*
X66657600Y-112068800D01*
X67657600Y-112568800D02*
X66657600Y-112568800D01*
X67657600Y-112068800D02*
X67657600Y-112568800D01*
X70096000Y-88515000D02*
X69096000Y-88515000D01*
X69096000Y-88015000D02*
X70096000Y-88015000D01*
X69096000Y-88515000D02*
X69096000Y-88015000D01*
X70096000Y-88015000D02*
X70096000Y-88515000D01*
X76635718Y-99888800D02*
X75585718Y-99888800D01*
X75585718Y-99888800D02*
X75585718Y-99348800D01*
X75585718Y-99348800D02*
X76635718Y-99348800D01*
X76635718Y-99348800D02*
X76635718Y-99888800D01*
X70096000Y-88954800D02*
X70096000Y-89454800D01*
X70096000Y-89454800D02*
X69096000Y-89454800D01*
X69096000Y-89454800D02*
X69096000Y-88954800D01*
X69096000Y-88954800D02*
X70096000Y-88954800D01*
X76639800Y-118495000D02*
X77639800Y-118495000D01*
X77639800Y-118495000D02*
X77639800Y-118995000D01*
X77639800Y-118995000D02*
X76639800Y-118995000D01*
X76639800Y-118995000D02*
X76639800Y-118495000D01*
X71751000Y-108196000D02*
X71251000Y-108196000D01*
X71751000Y-107196000D02*
X71751000Y-108196000D01*
X71251000Y-108196000D02*
X71251000Y-107196000D01*
X71251000Y-107196000D02*
X71751000Y-107196000D01*
X74631000Y-77904000D02*
X74631000Y-75004000D01*
X78531000Y-77904000D02*
X74631000Y-77904000D01*
X74631000Y-75004000D02*
X78531000Y-75004000D01*
X78531000Y-75004000D02*
X78531000Y-77904000D01*
X72304400Y-119905000D02*
X71764400Y-119905000D01*
X72304400Y-118855000D02*
X72304400Y-119905000D01*
X71764400Y-119905000D02*
X71764400Y-118855000D01*
X71764400Y-118855000D02*
X72304400Y-118855000D01*
X75450600Y-121786900D02*
X75450600Y-122611900D01*
X73850600Y-122611900D02*
X73850600Y-121786900D01*
X75450600Y-122611900D02*
X73850600Y-122611900D01*
X73850600Y-121786900D02*
X75450600Y-121786900D01*
X70856401Y-118855000D02*
X71396401Y-118855000D01*
X70856401Y-119905000D02*
X70856401Y-118855000D01*
X71396401Y-118855000D02*
X71396401Y-119905000D01*
X71396401Y-119905000D02*
X70856401Y-119905000D01*
X67949000Y-118295800D02*
X68449000Y-118295800D01*
X67949000Y-119295800D02*
X67949000Y-118295800D01*
X68449000Y-119295800D02*
X67949000Y-119295800D01*
X68449000Y-118295800D02*
X68449000Y-119295800D01*
X67364800Y-117162200D02*
X67364800Y-116162200D01*
X67364800Y-116162200D02*
X67864800Y-116162200D01*
X67864800Y-117162200D02*
X67364800Y-117162200D01*
X67864800Y-116162200D02*
X67864800Y-117162200D01*
X71205600Y-77732400D02*
X71745600Y-77732400D01*
X71745600Y-78782400D02*
X71205600Y-78782400D01*
X71745600Y-77732400D02*
X71745600Y-78782400D01*
X71205600Y-78782400D02*
X71205600Y-77732400D01*
X77933518Y-92522871D02*
X77933518Y-93522871D01*
X77433518Y-92522871D02*
X77933518Y-92522871D01*
X77933518Y-93522871D02*
X77433518Y-93522871D01*
X77433518Y-93522871D02*
X77433518Y-92522871D01*
X73204718Y-99687071D02*
X73204718Y-100227071D01*
X72154718Y-99687071D02*
X73204718Y-99687071D01*
X72154718Y-100227071D02*
X72154718Y-99687071D01*
X73204718Y-100227071D02*
X72154718Y-100227071D01*
X67920000Y-127287000D02*
X76860000Y-127287000D01*
X67920000Y-134587000D02*
X76860000Y-134587000D01*
X76860000Y-127287000D02*
X76860000Y-134587000D01*
X67920000Y-127287000D02*
X67920000Y-134587000D01*
X75865800Y-104859200D02*
X75865800Y-105859200D01*
X75365800Y-105859200D02*
X75365800Y-104859200D01*
X75365800Y-104859200D02*
X75865800Y-104859200D01*
X75865800Y-105859200D02*
X75365800Y-105859200D01*
X77403200Y-111192800D02*
X77403200Y-110142800D01*
X77943200Y-111192800D02*
X77403200Y-111192800D01*
X77943200Y-110142800D02*
X77943200Y-111192800D01*
X77403200Y-110142800D02*
X77943200Y-110142800D01*
X83820000Y-129540000D02*
X78740000Y-129540000D01*
X78740000Y-129540000D02*
X78740000Y-80010000D01*
X78740000Y-80010000D02*
X80010000Y-78740000D01*
X83820000Y-78740000D02*
X83820000Y-129540000D01*
X80010000Y-78740000D02*
X83820000Y-78740000D01*
X75448700Y-125050300D02*
X73848700Y-125050300D01*
X75448700Y-124225300D02*
X75448700Y-125050300D01*
X73848700Y-125050300D02*
X73848700Y-124225300D01*
X73848700Y-124225300D02*
X75448700Y-124225300D01*
X77464400Y-123652000D02*
X76764400Y-123652000D01*
X77464400Y-124152000D02*
X76764400Y-124152000D01*
X77114400Y-124152000D02*
X77114400Y-124402000D01*
X76764400Y-124152000D02*
X77114400Y-123652000D01*
X77114400Y-123652000D02*
X77114400Y-123452000D01*
X77114400Y-123652000D02*
X77464400Y-124152000D01*
X77814400Y-124852000D02*
X76414400Y-124852000D01*
X76414400Y-124852000D02*
X76414400Y-123052000D01*
X77814400Y-123052000D02*
X77814400Y-124852000D01*
X76414400Y-123052000D02*
X77814400Y-123052000D01*
X77923200Y-112377600D02*
X77923200Y-113377600D01*
X77423200Y-112377600D02*
X77923200Y-112377600D01*
X77923200Y-113377600D02*
X77423200Y-113377600D01*
X77423200Y-113377600D02*
X77423200Y-112377600D01*
X70239000Y-75700000D02*
X70239000Y-76700000D01*
X70739000Y-75700000D02*
X70239000Y-76200000D01*
X71239000Y-75700000D02*
X70239000Y-75700000D01*
X70239000Y-76700000D02*
X71239000Y-76700000D01*
X71239000Y-76700000D02*
X71239000Y-75700000D01*
X70387400Y-107196000D02*
X70887400Y-107196000D01*
X70887400Y-107196000D02*
X70887400Y-108196000D01*
X70387400Y-108196000D02*
X70387400Y-107196000D01*
X70887400Y-108196000D02*
X70387400Y-108196000D01*
X66437000Y-75675000D02*
X66437000Y-76725000D01*
X65897000Y-76725000D02*
X65897000Y-75675000D01*
X66437000Y-76725000D02*
X65897000Y-76725000D01*
X65897000Y-75675000D02*
X66437000Y-75675000D01*
X76204000Y-90256800D02*
X76704000Y-90256800D01*
X76704000Y-90256800D02*
X76704000Y-91256800D01*
X76204000Y-91256800D02*
X76204000Y-90256800D01*
X76704000Y-91256800D02*
X76204000Y-91256800D01*
X68843400Y-107171000D02*
X69383400Y-107171000D01*
X69383400Y-107171000D02*
X69383400Y-108221000D01*
X69383400Y-108221000D02*
X68843400Y-108221000D01*
X68843400Y-108221000D02*
X68843400Y-107171000D01*
X66630600Y-114392200D02*
X66630600Y-113852200D01*
X67680600Y-114392200D02*
X66630600Y-114392200D01*
X66630600Y-113852200D02*
X67680600Y-113852200D01*
X67680600Y-113852200D02*
X67680600Y-114392200D01*
X62230000Y-78740000D02*
X66040000Y-78740000D01*
X60960000Y-80010000D02*
X62230000Y-78740000D01*
X66040000Y-129540000D02*
X60960000Y-129540000D01*
X60960000Y-129540000D02*
X60960000Y-80010000D01*
X66040000Y-78740000D02*
X66040000Y-129540000D01*
X79236000Y-132842000D02*
G75*
G03*
X79236000Y-132842000I-750000J0D01*
G01*
X72065200Y-89454800D02*
X72065200Y-88954800D01*
X73065200Y-88954800D02*
X73065200Y-89454800D01*
X72065200Y-88954800D02*
X73065200Y-88954800D01*
X73065200Y-89454800D02*
X72065200Y-89454800D01*
X69776000Y-120859000D02*
X69776000Y-124759000D01*
X66876000Y-120859000D02*
X69776000Y-120859000D01*
X66876000Y-124759000D02*
X66876000Y-120859000D01*
X69776000Y-124759000D02*
X66876000Y-124759000D01*
X70628000Y-78782400D02*
X70088000Y-78782400D01*
X70088000Y-78782400D02*
X70088000Y-77732400D01*
X70628000Y-77732400D02*
X70628000Y-78782400D01*
X70088000Y-77732400D02*
X70628000Y-77732400D01*
X68834918Y-83251871D02*
X70834918Y-83251871D01*
X70834918Y-84251871D02*
X68834918Y-84251871D01*
X70834918Y-83251871D02*
X70834918Y-84251871D01*
X68834918Y-84251871D02*
X68834918Y-83251871D01*
X77156800Y-79822800D02*
X76106800Y-79822800D01*
X77156800Y-79282800D02*
X77156800Y-79822800D01*
X76106800Y-79822800D02*
X76106800Y-79282800D01*
X76106800Y-79282800D02*
X77156800Y-79282800D01*
X74864600Y-116885600D02*
X68864600Y-116885600D01*
X75864600Y-115885600D02*
X74864600Y-116885600D01*
X68864600Y-116885600D02*
X68864600Y-109885600D01*
X68864600Y-109885600D02*
X75864600Y-109885600D01*
X75864600Y-109885600D02*
X75864600Y-115885600D01*
X75450600Y-123831100D02*
X73850600Y-123831100D01*
X73850600Y-123831100D02*
X73850600Y-123006100D01*
X73850600Y-123006100D02*
X75450600Y-123006100D01*
X75450600Y-123006100D02*
X75450600Y-123831100D01*
X74953718Y-86749071D02*
G75*
G03*
X74953718Y-86749071I-750000J0D01*
G01*
X72340118Y-87350271D02*
X71800118Y-87350271D01*
X72340118Y-86300271D02*
X72340118Y-87350271D01*
X71800118Y-86300271D02*
X72340118Y-86300271D01*
X71800118Y-87350271D02*
X71800118Y-86300271D01*
X74126600Y-106102800D02*
X74026600Y-106202800D01*
X73126600Y-103702800D02*
X72126600Y-104702800D01*
X72226600Y-106202800D02*
X72126600Y-106102800D01*
X74026600Y-106202800D02*
X72226600Y-106202800D01*
X74126600Y-103802800D02*
X74126600Y-106102800D01*
X72126600Y-103802800D02*
X72226600Y-103702800D01*
X72226600Y-103702800D02*
X74026600Y-103702800D01*
X74026600Y-103702800D02*
X74126600Y-103802800D01*
X72126600Y-106102800D02*
X72126600Y-103802800D01*
X77197800Y-89875600D02*
X78097800Y-89875600D01*
X77847800Y-90425600D02*
X77447800Y-90425600D01*
X78097800Y-91175600D02*
X77197800Y-91175600D01*
X77647800Y-90725600D02*
X77847800Y-90425600D01*
X77847800Y-90725600D02*
X77447800Y-90725600D01*
X77647800Y-90725600D02*
X77647800Y-90875600D01*
X77197800Y-91175600D02*
X77197800Y-89875600D01*
X77647800Y-90425600D02*
X77647800Y-90275600D01*
X77447800Y-90425600D02*
X77647800Y-90725600D01*
X78097800Y-89875600D02*
X78097800Y-91175600D01*
X74823200Y-97784800D02*
X68823200Y-97784800D01*
X68823200Y-97784800D02*
X67823200Y-96784800D01*
X74823200Y-90784800D02*
X74823200Y-97784800D01*
X67823200Y-96784800D02*
X67823200Y-90784800D01*
X67823200Y-90784800D02*
X74823200Y-90784800D01*
X77512800Y-89150000D02*
X76512800Y-89150000D01*
X76512800Y-88650000D02*
X77512800Y-88650000D01*
X77512800Y-88650000D02*
X77512800Y-89150000D01*
X76512800Y-89150000D02*
X76512800Y-88650000D01*
X68838000Y-119295800D02*
X68838000Y-118295800D01*
X69338000Y-118295800D02*
X69338000Y-119295800D01*
X69338000Y-119295800D02*
X68838000Y-119295800D01*
X68838000Y-118295800D02*
X69338000Y-118295800D01*
X71039800Y-104589200D02*
X70539800Y-104589200D01*
X70539800Y-104589200D02*
X70539800Y-103589200D01*
X70539800Y-103589200D02*
X71039800Y-103589200D01*
X71039800Y-103589200D02*
X71039800Y-104589200D01*
X72042400Y-87989600D02*
X73042400Y-87989600D01*
X73042400Y-88489600D02*
X72042400Y-88489600D01*
X73042400Y-87989600D02*
X73042400Y-88489600D01*
X72042400Y-88489600D02*
X72042400Y-87989600D01*
X67682600Y-113477800D02*
X66632600Y-113477800D01*
X66632600Y-112937800D02*
X67682600Y-112937800D01*
X67682600Y-112937800D02*
X67682600Y-113477800D01*
X66632600Y-113477800D02*
X66632600Y-112937800D01*
X71059800Y-106443000D02*
X70519800Y-106443000D01*
X70519800Y-105393000D02*
X71059800Y-105393000D01*
X71059800Y-105393000D02*
X71059800Y-106443000D01*
X70519800Y-106443000D02*
X70519800Y-105393000D01*
X73850600Y-120567700D02*
X75450600Y-120567700D01*
X73850600Y-121392700D02*
X73850600Y-120567700D01*
X75450600Y-120567700D02*
X75450600Y-121392700D01*
X75450600Y-121392700D02*
X73850600Y-121392700D01*
X76468318Y-92522871D02*
X76968318Y-92522871D01*
X76968318Y-92522871D02*
X76968318Y-93522871D01*
X76968318Y-93522871D02*
X76468318Y-93522871D01*
X76468318Y-93522871D02*
X76468318Y-92522871D01*
X67044000Y-132842000D02*
G75*
G03*
X67044000Y-132842000I-750000J0D01*
G01*
X72652000Y-78032800D02*
X73652000Y-78032800D01*
X73652000Y-78532800D02*
X72652000Y-78532800D01*
X72652000Y-78532800D02*
X72652000Y-78032800D01*
X73652000Y-78032800D02*
X73652000Y-78532800D01*
M02*
