%TF.GenerationSoftware,KiCad,Pcbnew,(6.0.5)*%
%TF.CreationDate,2022-12-13T18:03:39-08:00*%
%TF.ProjectId,pico-ice,7069636f-2d69-4636-952e-6b696361645f,REV1*%
%TF.SameCoordinates,Original*%
%TF.FileFunction,Plated,1,4,PTH,Mixed*%
%TF.FilePolarity,Positive*%
%FSLAX46Y46*%
G04 Gerber Fmt 4.6, Leading zero omitted, Abs format (unit mm)*
G04 Created by KiCad (PCBNEW (6.0.5)) date 2022-12-13 18:03:39*
%MOMM*%
%LPD*%
G01*
G04 APERTURE LIST*
%TA.AperFunction,ViaDrill*%
%ADD10C,0.254000*%
%TD*%
%TA.AperFunction,ComponentDrill*%
%ADD11C,0.350000*%
%TD*%
G04 aperture for slot hole*
%TA.AperFunction,ComponentDrill*%
%ADD12O,0.600000X1.700000*%
%TD*%
G04 aperture for slot hole*
%TA.AperFunction,ComponentDrill*%
%ADD13O,0.600000X1.200000*%
%TD*%
%TA.AperFunction,ComponentDrill*%
%ADD14C,1.000000*%
%TD*%
G04 APERTURE END LIST*
D10*
X62835287Y-114318840D03*
X62847987Y-99066141D03*
X62849918Y-106688071D03*
X65440718Y-114308071D03*
X65491518Y-104148071D03*
X65669318Y-116848071D03*
X65695218Y-111996671D03*
X65821718Y-119362671D03*
X66065400Y-129463800D03*
X66101618Y-109355071D03*
X66101618Y-110040871D03*
X66116200Y-108534200D03*
X66177318Y-74938071D03*
X66304318Y-79662471D03*
X66304318Y-115501871D03*
X66329718Y-94470671D03*
X66405918Y-83421671D03*
X66504835Y-114838788D03*
X66675000Y-111607600D03*
X66685318Y-93251471D03*
X66710718Y-86952271D03*
X66863118Y-92514871D03*
X66863118Y-116390871D03*
X67020954Y-91377307D03*
X67081400Y-84963000D03*
X67335400Y-118313200D03*
X67335400Y-119278400D03*
X67548912Y-103640077D03*
X67574318Y-97899671D03*
X67624618Y-107754871D03*
X67640200Y-111582200D03*
X67741800Y-90322400D03*
X67767200Y-84963000D03*
X67802918Y-100642871D03*
X67828318Y-81948471D03*
X67903058Y-110102527D03*
X68300600Y-117144800D03*
X68387118Y-107196071D03*
X68395079Y-109568193D03*
X68453000Y-84963000D03*
X68453000Y-89204800D03*
X68463318Y-78849671D03*
X68564918Y-75268271D03*
X68564918Y-104732271D03*
X68564918Y-110244071D03*
X68580000Y-106146600D03*
X68666518Y-76766871D03*
X68717318Y-85700100D03*
X68920518Y-91879871D03*
X68920518Y-93463137D03*
X68920518Y-95046403D03*
X68920518Y-96629671D03*
X68920518Y-102928871D03*
X68935600Y-116484400D03*
X69072918Y-109659871D03*
X69087500Y-117551200D03*
X69098318Y-81948471D03*
X69199918Y-104071871D03*
X69367400Y-100025200D03*
X69570600Y-98704400D03*
X69580918Y-82481871D03*
X69646800Y-99390200D03*
X69850500Y-110797362D03*
X69860318Y-100566671D03*
X69864720Y-107213400D03*
X69872691Y-111535443D03*
X69875400Y-115646200D03*
X69875400Y-117703600D03*
X69885718Y-104478271D03*
X69951600Y-125603000D03*
X69961918Y-89949471D03*
X69977000Y-120065800D03*
X70114318Y-101227071D03*
X70358000Y-85115400D03*
X70358000Y-115163600D03*
X70368318Y-91879871D03*
X70368318Y-93463137D03*
X70368318Y-95046403D03*
X70368318Y-95918471D03*
X70383400Y-113258600D03*
X70393718Y-82405671D03*
X70561200Y-117678200D03*
X70586600Y-98755200D03*
X70637400Y-124942600D03*
X70820636Y-110927236D03*
X71054118Y-79459271D03*
X71257318Y-84259871D03*
X71282718Y-86317271D03*
X71501000Y-108864400D03*
X71536718Y-89924071D03*
X71551800Y-105841800D03*
X71704200Y-122301000D03*
X71704200Y-123126500D03*
X71704200Y-123952000D03*
X71886882Y-110949835D03*
X71917928Y-117712403D03*
X72019318Y-83218471D03*
X72019318Y-84564671D03*
X72073200Y-98661671D03*
X72364600Y-108864400D03*
X72390000Y-129235200D03*
X72476518Y-75369871D03*
X72529900Y-99169671D03*
X72567800Y-118059200D03*
X72755918Y-81440471D03*
X72852500Y-87384071D03*
X72953682Y-101831235D03*
X73029900Y-98687071D03*
X73289318Y-79002071D03*
X73365518Y-101303271D03*
X73517918Y-75344471D03*
X73517918Y-85860071D03*
X73634696Y-99044617D03*
X73685400Y-129235200D03*
X73736200Y-119151400D03*
X73736200Y-120015000D03*
X74203718Y-79052871D03*
X74330718Y-110802871D03*
X74422000Y-119126000D03*
X74432318Y-100922271D03*
X74483118Y-113520671D03*
X74508518Y-112758671D03*
X74610118Y-99982471D03*
X74686318Y-90076471D03*
X74787918Y-114155671D03*
X74803000Y-85699600D03*
X74828400Y-104927400D03*
X74828400Y-125603000D03*
X74838718Y-111285471D03*
X74965718Y-78824271D03*
X74965718Y-80830871D03*
X75004363Y-107424171D03*
X75082400Y-119100600D03*
X75499118Y-97772671D03*
X75565000Y-120015000D03*
X75651518Y-90025671D03*
X75651518Y-97086871D03*
X75829318Y-88755671D03*
X75920600Y-125603000D03*
X75946000Y-118110000D03*
X75946000Y-118745000D03*
X76057918Y-80830871D03*
X76073000Y-85616389D03*
X76167671Y-108110971D03*
X76210318Y-107399271D03*
X76616218Y-94827623D03*
X76642118Y-96070871D03*
X76728469Y-97213871D03*
X76769118Y-113139671D03*
X76784200Y-123926600D03*
X76794518Y-111717271D03*
X76819918Y-107678671D03*
X76962000Y-112395000D03*
X77073918Y-74912671D03*
X77114400Y-125704600D03*
X77343000Y-105156000D03*
X77347882Y-85560707D03*
X77378718Y-80780071D03*
X77480318Y-96375671D03*
X77480318Y-97061471D03*
X77497340Y-100490471D03*
X77497340Y-107653271D03*
X77607318Y-78900471D03*
X77632718Y-95664471D03*
X77673200Y-114071400D03*
X77825600Y-125704600D03*
X77851000Y-116332000D03*
X77851000Y-117221000D03*
X77912118Y-79764071D03*
X78013718Y-94572271D03*
X78394718Y-92542871D03*
X78394718Y-93508071D03*
X78445998Y-89822471D03*
X78590616Y-94154032D03*
X78699518Y-83828071D03*
X78724918Y-91491300D03*
X78838589Y-119731600D03*
X79182118Y-86342671D03*
X80655318Y-99068071D03*
X81264918Y-109228071D03*
X81264918Y-121928071D03*
X81315718Y-101633471D03*
D11*
%TO.C,U3*%
X71089600Y-112110600D03*
X71089600Y-113385600D03*
X71089600Y-114660600D03*
X72364600Y-112110600D03*
X72364600Y-113385600D03*
X72364600Y-114660600D03*
X73639600Y-112110600D03*
X73639600Y-113385600D03*
X73639600Y-114660600D03*
D12*
%TO.C,J1*%
X68070000Y-127807000D03*
D13*
X68070000Y-131987000D03*
D12*
X76710000Y-127807000D03*
D13*
X76710000Y-131987000D03*
D14*
%TO.C,J2*%
X62230000Y-80010000D03*
X62230000Y-82550000D03*
X62230000Y-85090000D03*
X62230000Y-87630000D03*
X62230000Y-90170000D03*
X62230000Y-92710000D03*
X62230000Y-95250000D03*
X62230000Y-97790000D03*
X62230000Y-100330000D03*
X62230000Y-102870000D03*
X62230000Y-105410000D03*
X62230000Y-107950000D03*
X62230000Y-110490000D03*
X62230000Y-113030000D03*
X62230000Y-115570000D03*
X62230000Y-118110000D03*
X62230000Y-120650000D03*
X62230000Y-123190000D03*
X62230000Y-125730000D03*
X62230000Y-128270000D03*
X64770000Y-80010000D03*
X64770000Y-82550000D03*
X64770000Y-85090000D03*
X64770000Y-87630000D03*
X64770000Y-90170000D03*
X64770000Y-92710000D03*
X64770000Y-95250000D03*
X64770000Y-97790000D03*
X64770000Y-100330000D03*
X64770000Y-102870000D03*
X64770000Y-105410000D03*
X64770000Y-107950000D03*
X64770000Y-110490000D03*
X64770000Y-113030000D03*
X64770000Y-115570000D03*
X64770000Y-118110000D03*
X64770000Y-120650000D03*
X64770000Y-123190000D03*
X64770000Y-125730000D03*
X64770000Y-128270000D03*
%TO.C,J3*%
X80010000Y-80010000D03*
X80010000Y-82550000D03*
X80010000Y-85090000D03*
X80010000Y-87630000D03*
X80010000Y-90170000D03*
X80010000Y-92710000D03*
X80010000Y-95250000D03*
X80010000Y-97790000D03*
X80010000Y-100330000D03*
X80010000Y-102870000D03*
X80010000Y-105410000D03*
X80010000Y-107950000D03*
X80010000Y-110490000D03*
X80010000Y-113030000D03*
X80010000Y-115570000D03*
X80010000Y-118110000D03*
X80010000Y-120650000D03*
X80010000Y-123190000D03*
X80010000Y-125730000D03*
X80010000Y-128270000D03*
X82550000Y-80010000D03*
X82550000Y-82550000D03*
X82550000Y-85090000D03*
X82550000Y-87630000D03*
X82550000Y-90170000D03*
X82550000Y-92710000D03*
X82550000Y-95250000D03*
X82550000Y-97790000D03*
X82550000Y-100330000D03*
X82550000Y-102870000D03*
X82550000Y-105410000D03*
X82550000Y-107950000D03*
X82550000Y-110490000D03*
X82550000Y-113030000D03*
X82550000Y-115570000D03*
X82550000Y-118110000D03*
X82550000Y-120650000D03*
X82550000Y-123190000D03*
X82550000Y-125730000D03*
X82550000Y-128270000D03*
M02*
