G04 #@! TF.GenerationSoftware,KiCad,Pcbnew,(6.0.5)*
G04 #@! TF.CreationDate,2022-12-13T18:03:46-08:00*
G04 #@! TF.ProjectId,pico-ice,7069636f-2d69-4636-952e-6b696361645f,REV1*
G04 #@! TF.SameCoordinates,Original*
G04 #@! TF.FileFunction,Paste,Bot*
G04 #@! TF.FilePolarity,Positive*
%FSLAX46Y46*%
G04 Gerber Fmt 4.6, Leading zero omitted, Abs format (unit mm)*
G04 Created by KiCad (PCBNEW (6.0.5)) date 2022-12-13 18:03:46*
%MOMM*%
%LPD*%
G01*
G04 APERTURE LIST*
G04 Aperture macros list*
%AMRoundRect*
0 Rectangle with rounded corners*
0 $1 Rounding radius*
0 $2 $3 $4 $5 $6 $7 $8 $9 X,Y pos of 4 corners*
0 Add a 4 corners polygon primitive as box body*
4,1,4,$2,$3,$4,$5,$6,$7,$8,$9,$2,$3,0*
0 Add four circle primitives for the rounded corners*
1,1,$1+$1,$2,$3*
1,1,$1+$1,$4,$5*
1,1,$1+$1,$6,$7*
1,1,$1+$1,$8,$9*
0 Add four rect primitives between the rounded corners*
20,1,$1+$1,$2,$3,$4,$5,0*
20,1,$1+$1,$4,$5,$6,$7,0*
20,1,$1+$1,$6,$7,$8,$9,0*
20,1,$1+$1,$8,$9,$2,$3,0*%
G04 Aperture macros list end*
%ADD10RoundRect,0.135000X-0.185000X0.135000X-0.185000X-0.135000X0.185000X-0.135000X0.185000X0.135000X0*%
%ADD11RoundRect,0.140000X-0.170000X0.140000X-0.170000X-0.140000X0.170000X-0.140000X0.170000X0.140000X0*%
%ADD12R,0.600000X0.450000*%
%ADD13RoundRect,0.135000X-0.135000X-0.185000X0.135000X-0.185000X0.135000X0.185000X-0.135000X0.185000X0*%
%ADD14RoundRect,0.140000X0.170000X-0.140000X0.170000X0.140000X-0.170000X0.140000X-0.170000X-0.140000X0*%
%ADD15RoundRect,0.140000X0.140000X0.170000X-0.140000X0.170000X-0.140000X-0.170000X0.140000X-0.170000X0*%
%ADD16RoundRect,0.140000X-0.140000X-0.170000X0.140000X-0.170000X0.140000X0.170000X-0.140000X0.170000X0*%
%ADD17RoundRect,0.150000X-0.150000X0.650000X-0.150000X-0.650000X0.150000X-0.650000X0.150000X0.650000X0*%
%ADD18RoundRect,0.150000X0.650000X0.150000X-0.650000X0.150000X-0.650000X-0.150000X0.650000X-0.150000X0*%
%ADD19RoundRect,0.150000X-0.150000X0.825000X-0.150000X-0.825000X0.150000X-0.825000X0.150000X0.825000X0*%
%ADD20RoundRect,0.135000X0.185000X-0.135000X0.185000X0.135000X-0.185000X0.135000X-0.185000X-0.135000X0*%
%ADD21RoundRect,0.150000X0.150000X-0.512500X0.150000X0.512500X-0.150000X0.512500X-0.150000X-0.512500X0*%
%ADD22R,0.600000X0.700000*%
%ADD23RoundRect,0.150000X-0.150000X0.587500X-0.150000X-0.587500X0.150000X-0.587500X0.150000X0.587500X0*%
%ADD24RoundRect,0.150000X-0.150000X0.512500X-0.150000X-0.512500X0.150000X-0.512500X0.150000X0.512500X0*%
G04 APERTURE END LIST*
D10*
X78054200Y-119731600D03*
X78054200Y-120751600D03*
D11*
X66710718Y-87691471D03*
X66710718Y-88651471D03*
D12*
X73549800Y-90678000D03*
X75649800Y-90678000D03*
D13*
X72779312Y-79840277D03*
X73799312Y-79840277D03*
D14*
X72567800Y-117370800D03*
X72567800Y-116410800D03*
D15*
X77340400Y-104495600D03*
X76380400Y-104495600D03*
D11*
X74828400Y-103253600D03*
X74828400Y-104213600D03*
D16*
X70640000Y-101955600D03*
X71600000Y-101955600D03*
D17*
X67818000Y-80474000D03*
X69088000Y-80474000D03*
X70358000Y-80474000D03*
X71628000Y-80474000D03*
X71628000Y-87674000D03*
X70358000Y-87674000D03*
X69088000Y-87674000D03*
X67818000Y-87674000D03*
D18*
X75659800Y-120751600D03*
X75659800Y-122021600D03*
X75659800Y-123291600D03*
X75659800Y-124561600D03*
X68459800Y-124561600D03*
X68459800Y-123291600D03*
X68459800Y-122021600D03*
X68459800Y-120751600D03*
D15*
X73530400Y-89204800D03*
X72570400Y-89204800D03*
D11*
X70586600Y-99418200D03*
X70586600Y-100378200D03*
D15*
X77315000Y-97993200D03*
X76355000Y-97993200D03*
D19*
X73533000Y-82320000D03*
X74803000Y-82320000D03*
X76073000Y-82320000D03*
X77343000Y-82320000D03*
X77343000Y-87270000D03*
X76073000Y-87270000D03*
X74803000Y-87270000D03*
X73533000Y-87270000D03*
D20*
X67818000Y-78310200D03*
X67818000Y-77290200D03*
D21*
X77327800Y-101619900D03*
X76377800Y-101619900D03*
X75427800Y-101619900D03*
X75427800Y-99344900D03*
X77327800Y-99344900D03*
D20*
X73837800Y-104243600D03*
X73837800Y-103223600D03*
X77139800Y-120753600D03*
X77139800Y-119733600D03*
D16*
X68531800Y-119278400D03*
X69491800Y-119278400D03*
D22*
X77306400Y-103251000D03*
X75906400Y-103251000D03*
D23*
X75148400Y-76608700D03*
X77048400Y-76608700D03*
X76098400Y-78483700D03*
D24*
X70652600Y-103408900D03*
X71602600Y-103408900D03*
X72552600Y-103408900D03*
X72552600Y-105683900D03*
X70652600Y-105683900D03*
D14*
X69392800Y-106144000D03*
X69392800Y-105184000D03*
D10*
X73507600Y-76147200D03*
X73507600Y-77167200D03*
M02*
