G04 #@! TF.GenerationSoftware,KiCad,Pcbnew,(6.0.5)*
G04 #@! TF.CreationDate,2022-12-13T18:03:46-08:00*
G04 #@! TF.ProjectId,pico-ice,7069636f-2d69-4636-952e-6b696361645f,REV1*
G04 #@! TF.SameCoordinates,Original*
G04 #@! TF.FileFunction,Soldermask,Bot*
G04 #@! TF.FilePolarity,Negative*
%FSLAX46Y46*%
G04 Gerber Fmt 4.6, Leading zero omitted, Abs format (unit mm)*
G04 Created by KiCad (PCBNEW (6.0.5)) date 2022-12-13 18:03:46*
%MOMM*%
%LPD*%
G01*
G04 APERTURE LIST*
G04 Aperture macros list*
%AMRoundRect*
0 Rectangle with rounded corners*
0 $1 Rounding radius*
0 $2 $3 $4 $5 $6 $7 $8 $9 X,Y pos of 4 corners*
0 Add a 4 corners polygon primitive as box body*
4,1,4,$2,$3,$4,$5,$6,$7,$8,$9,$2,$3,0*
0 Add four circle primitives for the rounded corners*
1,1,$1+$1,$2,$3*
1,1,$1+$1,$4,$5*
1,1,$1+$1,$6,$7*
1,1,$1+$1,$8,$9*
0 Add four rect primitives between the rounded corners*
20,1,$1+$1,$2,$3,$4,$5,0*
20,1,$1+$1,$4,$5,$6,$7,0*
20,1,$1+$1,$6,$7,$8,$9,0*
20,1,$1+$1,$8,$9,$2,$3,0*%
%AMFreePoly0*
4,1,37,0.536062,0.786062,0.551000,0.750000,0.551000,-0.750000,0.536062,-0.786062,0.500000,-0.801000,0.000000,-0.801000,-0.012525,-0.795812,-0.080875,-0.794559,-0.095149,-0.792248,-0.230464,-0.749973,-0.243516,-0.743747,-0.361526,-0.665192,-0.372306,-0.655554,-0.463526,-0.547035,-0.471167,-0.534759,-0.528262,-0.405000,-0.532150,-0.391073,-0.549733,-0.256613,-0.548336,-0.256430,-0.551000,-0.250000,
-0.551000,0.250000,-0.550512,0.251179,-0.550356,0.263956,-0.528545,0.404033,-0.524317,0.417860,-0.464069,0.546185,-0.456130,0.558271,-0.362286,0.664529,-0.351274,0.673901,-0.231379,0.749549,-0.218180,0.755454,-0.081873,0.794411,-0.067546,0.796373,-0.011990,0.796033,0.000000,0.801000,0.500000,0.801000,0.536062,0.786062,0.536062,0.786062,$1*%
%AMFreePoly1*
4,1,37,0.012349,0.795885,0.074216,0.795507,0.088518,0.793370,0.224339,0.752751,0.237465,0.746685,0.356427,0.669578,0.367324,0.660073,0.459862,0.552676,0.467652,0.540494,0.526329,0.411442,0.530388,0.397563,0.550485,0.257230,0.551000,0.250000,0.551000,-0.250000,0.550996,-0.250622,0.550847,-0.262838,0.550144,-0.270677,0.526624,-0.410478,0.522228,-0.424254,0.460416,-0.551833,
0.452330,-0.563821,0.357195,-0.668925,0.346069,-0.678161,0.225259,-0.752338,0.211989,-0.758081,0.075216,-0.795370,0.060866,-0.797157,0.011464,-0.796251,0.000000,-0.801000,-0.500000,-0.801000,-0.536062,-0.786062,-0.551000,-0.750000,-0.551000,0.750000,-0.536062,0.786062,-0.500000,0.801000,0.000000,0.801000,0.012349,0.795885,0.012349,0.795885,$1*%
%AMFreePoly2*
4,1,37,0.586062,0.786062,0.601000,0.750000,0.601000,-0.750000,0.586062,-0.786062,0.550000,-0.801000,0.000000,-0.801000,-0.012525,-0.795812,-0.080875,-0.794559,-0.095149,-0.792248,-0.230464,-0.749973,-0.243516,-0.743747,-0.361526,-0.665192,-0.372306,-0.655554,-0.463526,-0.547035,-0.471167,-0.534759,-0.528262,-0.405000,-0.532150,-0.391073,-0.549733,-0.256613,-0.548336,-0.256430,-0.551000,-0.250000,
-0.551000,0.250000,-0.550512,0.251179,-0.550356,0.263956,-0.528545,0.404033,-0.524317,0.417860,-0.464069,0.546185,-0.456130,0.558271,-0.362286,0.664529,-0.351274,0.673901,-0.231379,0.749549,-0.218180,0.755454,-0.081873,0.794411,-0.067546,0.796373,-0.011990,0.796033,0.000000,0.801000,0.550000,0.801000,0.586062,0.786062,0.586062,0.786062,$1*%
%AMFreePoly3*
4,1,37,0.012349,0.795885,0.074216,0.795507,0.088518,0.793370,0.224339,0.752751,0.237465,0.746685,0.356427,0.669578,0.367324,0.660073,0.459862,0.552676,0.467652,0.540494,0.526329,0.411442,0.530388,0.397563,0.550485,0.257230,0.551000,0.250000,0.551000,-0.250000,0.550996,-0.250622,0.550847,-0.262838,0.550144,-0.270677,0.526624,-0.410478,0.522228,-0.424254,0.460416,-0.551833,
0.452330,-0.563821,0.357195,-0.668925,0.346069,-0.678161,0.225259,-0.752338,0.211989,-0.758081,0.075216,-0.795370,0.060866,-0.797157,0.011464,-0.796251,0.000000,-0.801000,-0.550000,-0.801000,-0.586062,-0.786062,-0.601000,-0.750000,-0.601000,0.750000,-0.586062,0.786062,-0.550000,0.801000,0.000000,0.801000,0.012349,0.795885,0.012349,0.795885,$1*%
G04 Aperture macros list end*
%ADD10C,0.254000*%
%ADD11C,0.080000*%
%ADD12C,0.002540*%
%ADD13C,2.802000*%
%ADD14C,0.752000*%
%ADD15O,1.102000X2.202000*%
%ADD16O,1.102000X1.702000*%
%ADD17RoundRect,0.051000X-0.850000X-0.850000X0.850000X-0.850000X0.850000X0.850000X-0.850000X0.850000X0*%
%ADD18O,1.802000X1.802000*%
%ADD19RoundRect,0.186000X-0.185000X0.135000X-0.185000X-0.135000X0.185000X-0.135000X0.185000X0.135000X0*%
%ADD20RoundRect,0.191000X-0.170000X0.140000X-0.170000X-0.140000X0.170000X-0.140000X0.170000X0.140000X0*%
%ADD21C,1.500000*%
%ADD22RoundRect,0.051000X-0.300000X-0.225000X0.300000X-0.225000X0.300000X0.225000X-0.300000X0.225000X0*%
%ADD23RoundRect,0.186000X-0.135000X-0.185000X0.135000X-0.185000X0.135000X0.185000X-0.135000X0.185000X0*%
%ADD24RoundRect,0.191000X0.170000X-0.140000X0.170000X0.140000X-0.170000X0.140000X-0.170000X-0.140000X0*%
%ADD25RoundRect,0.191000X0.140000X0.170000X-0.140000X0.170000X-0.140000X-0.170000X0.140000X-0.170000X0*%
%ADD26RoundRect,0.191000X-0.140000X-0.170000X0.140000X-0.170000X0.140000X0.170000X-0.140000X0.170000X0*%
%ADD27RoundRect,0.201000X-0.150000X0.650000X-0.150000X-0.650000X0.150000X-0.650000X0.150000X0.650000X0*%
%ADD28RoundRect,0.201000X0.650000X0.150000X-0.650000X0.150000X-0.650000X-0.150000X0.650000X-0.150000X0*%
%ADD29RoundRect,0.201000X-0.150000X0.825000X-0.150000X-0.825000X0.150000X-0.825000X0.150000X0.825000X0*%
%ADD30RoundRect,0.186000X0.185000X-0.135000X0.185000X0.135000X-0.185000X0.135000X-0.185000X-0.135000X0*%
%ADD31RoundRect,0.201000X0.150000X-0.512500X0.150000X0.512500X-0.150000X0.512500X-0.150000X-0.512500X0*%
%ADD32RoundRect,0.051000X-0.300000X-0.350000X0.300000X-0.350000X0.300000X0.350000X-0.300000X0.350000X0*%
%ADD33FreePoly0,180.000000*%
%ADD34FreePoly1,180.000000*%
%ADD35FreePoly0,0.000000*%
%ADD36FreePoly1,0.000000*%
%ADD37RoundRect,0.201000X-0.150000X0.587500X-0.150000X-0.587500X0.150000X-0.587500X0.150000X0.587500X0*%
%ADD38RoundRect,0.201000X-0.150000X0.512500X-0.150000X-0.512500X0.150000X-0.512500X0.150000X0.512500X0*%
%ADD39FreePoly2,0.000000*%
%ADD40RoundRect,0.051000X-0.500000X-0.750000X0.500000X-0.750000X0.500000X0.750000X-0.500000X0.750000X0*%
%ADD41FreePoly3,0.000000*%
G04 APERTURE END LIST*
D10*
X78512646Y-130065142D02*
X78512646Y-131208142D01*
X78512646Y-130119571D02*
X78403789Y-130065142D01*
X78186075Y-130065142D01*
X78077218Y-130119571D01*
X78022789Y-130173999D01*
X77968360Y-130282856D01*
X77968360Y-130609428D01*
X78022789Y-130718285D01*
X78077218Y-130772713D01*
X78186075Y-130827142D01*
X78403789Y-130827142D01*
X78512646Y-130772713D01*
X77478503Y-130827142D02*
X77478503Y-130065142D01*
X77478503Y-129684142D02*
X77532932Y-129738571D01*
X77478503Y-129792999D01*
X77424075Y-129738571D01*
X77478503Y-129684142D01*
X77478503Y-129792999D01*
X76444360Y-130772713D02*
X76553218Y-130827142D01*
X76770932Y-130827142D01*
X76879789Y-130772713D01*
X76934218Y-130718285D01*
X76988646Y-130609428D01*
X76988646Y-130282856D01*
X76934218Y-130173999D01*
X76879789Y-130119571D01*
X76770932Y-130065142D01*
X76553218Y-130065142D01*
X76444360Y-130119571D01*
X75791218Y-130827142D02*
X75900075Y-130772713D01*
X75954503Y-130718285D01*
X76008932Y-130609428D01*
X76008932Y-130282856D01*
X75954503Y-130173999D01*
X75900075Y-130119571D01*
X75791218Y-130065142D01*
X75627932Y-130065142D01*
X75519075Y-130119571D01*
X75464646Y-130173999D01*
X75410218Y-130282856D01*
X75410218Y-130609428D01*
X75464646Y-130718285D01*
X75519075Y-130772713D01*
X75627932Y-130827142D01*
X75791218Y-130827142D01*
X74920360Y-130391713D02*
X74049503Y-130391713D01*
X73505218Y-130827142D02*
X73505218Y-130065142D01*
X73505218Y-129684142D02*
X73559646Y-129738571D01*
X73505218Y-129792999D01*
X73450789Y-129738571D01*
X73505218Y-129684142D01*
X73505218Y-129792999D01*
X72471075Y-130772713D02*
X72579932Y-130827142D01*
X72797646Y-130827142D01*
X72906503Y-130772713D01*
X72960932Y-130718285D01*
X73015360Y-130609428D01*
X73015360Y-130282856D01*
X72960932Y-130173999D01*
X72906503Y-130119571D01*
X72797646Y-130065142D01*
X72579932Y-130065142D01*
X72471075Y-130119571D01*
X71545789Y-130772713D02*
X71654646Y-130827142D01*
X71872360Y-130827142D01*
X71981218Y-130772713D01*
X72035646Y-130663856D01*
X72035646Y-130228428D01*
X71981218Y-130119571D01*
X71872360Y-130065142D01*
X71654646Y-130065142D01*
X71545789Y-130119571D01*
X71491360Y-130228428D01*
X71491360Y-130337285D01*
X72035646Y-130446142D01*
X69477503Y-130827142D02*
X69858503Y-130282856D01*
X70130646Y-130827142D02*
X70130646Y-129684142D01*
X69695218Y-129684142D01*
X69586360Y-129738571D01*
X69531932Y-129792999D01*
X69477503Y-129901856D01*
X69477503Y-130065142D01*
X69531932Y-130173999D01*
X69586360Y-130228428D01*
X69695218Y-130282856D01*
X70130646Y-130282856D01*
X68552218Y-130772713D02*
X68661075Y-130827142D01*
X68878789Y-130827142D01*
X68987646Y-130772713D01*
X69042075Y-130663856D01*
X69042075Y-130228428D01*
X68987646Y-130119571D01*
X68878789Y-130065142D01*
X68661075Y-130065142D01*
X68552218Y-130119571D01*
X68497789Y-130228428D01*
X68497789Y-130337285D01*
X69042075Y-130446142D01*
X68116789Y-130065142D02*
X67844646Y-130827142D01*
X67572503Y-130065142D01*
X67191503Y-129792999D02*
X67137075Y-129738571D01*
X67028218Y-129684142D01*
X66756075Y-129684142D01*
X66647218Y-129738571D01*
X66592789Y-129792999D01*
X66538360Y-129901856D01*
X66538360Y-130010713D01*
X66592789Y-130173999D01*
X67245932Y-130827142D01*
X66538360Y-130827142D01*
D11*
X74687956Y-133310975D02*
X74687956Y-133788594D01*
X74659860Y-133844785D01*
X74631765Y-133872880D01*
X74575575Y-133900975D01*
X74463194Y-133900975D01*
X74407003Y-133872880D01*
X74378908Y-133844785D01*
X74350813Y-133788594D01*
X74350813Y-133310975D01*
X74097956Y-133872880D02*
X74013670Y-133900975D01*
X73873194Y-133900975D01*
X73817003Y-133872880D01*
X73788908Y-133844785D01*
X73760813Y-133788594D01*
X73760813Y-133732404D01*
X73788908Y-133676213D01*
X73817003Y-133648118D01*
X73873194Y-133620023D01*
X73985575Y-133591928D01*
X74041765Y-133563832D01*
X74069860Y-133535737D01*
X74097956Y-133479547D01*
X74097956Y-133423356D01*
X74069860Y-133367166D01*
X74041765Y-133339071D01*
X73985575Y-133310975D01*
X73845098Y-133310975D01*
X73760813Y-133339071D01*
X73395575Y-133310975D02*
X73339384Y-133310975D01*
X73283194Y-133339071D01*
X73255098Y-133367166D01*
X73227003Y-133423356D01*
X73198908Y-133535737D01*
X73198908Y-133676213D01*
X73227003Y-133788594D01*
X73255098Y-133844785D01*
X73283194Y-133872880D01*
X73339384Y-133900975D01*
X73395575Y-133900975D01*
X73451765Y-133872880D01*
X73479860Y-133844785D01*
X73507956Y-133788594D01*
X73536051Y-133676213D01*
X73536051Y-133535737D01*
X73507956Y-133423356D01*
X73479860Y-133367166D01*
X73451765Y-133339071D01*
X73395575Y-133310975D01*
X72833670Y-133310975D02*
X72777479Y-133310975D01*
X72721289Y-133339071D01*
X72693194Y-133367166D01*
X72665098Y-133423356D01*
X72637003Y-133535737D01*
X72637003Y-133676213D01*
X72665098Y-133788594D01*
X72693194Y-133844785D01*
X72721289Y-133872880D01*
X72777479Y-133900975D01*
X72833670Y-133900975D01*
X72889860Y-133872880D01*
X72917956Y-133844785D01*
X72946051Y-133788594D01*
X72974146Y-133676213D01*
X72974146Y-133535737D01*
X72946051Y-133423356D01*
X72917956Y-133367166D01*
X72889860Y-133339071D01*
X72833670Y-133310975D01*
X72412241Y-133367166D02*
X72384146Y-133339071D01*
X72327956Y-133310975D01*
X72187479Y-133310975D01*
X72131289Y-133339071D01*
X72103194Y-133367166D01*
X72075098Y-133423356D01*
X72075098Y-133479547D01*
X72103194Y-133563832D01*
X72440337Y-133900975D01*
X72075098Y-133900975D01*
X71513194Y-133900975D02*
X71850337Y-133900975D01*
X71681765Y-133900975D02*
X71681765Y-133310975D01*
X71737956Y-133395261D01*
X71794146Y-133451451D01*
X71850337Y-133479547D01*
X71007479Y-133507642D02*
X71007479Y-133900975D01*
X71147956Y-133282880D02*
X71288432Y-133704309D01*
X70923194Y-133704309D01*
X70586051Y-133310975D02*
X70529860Y-133310975D01*
X70473670Y-133339071D01*
X70445575Y-133367166D01*
X70417479Y-133423356D01*
X70389384Y-133535737D01*
X70389384Y-133676213D01*
X70417479Y-133788594D01*
X70445575Y-133844785D01*
X70473670Y-133872880D01*
X70529860Y-133900975D01*
X70586051Y-133900975D01*
X70642241Y-133872880D01*
X70670337Y-133844785D01*
X70698432Y-133788594D01*
X70726527Y-133676213D01*
X70726527Y-133535737D01*
X70698432Y-133423356D01*
X70670337Y-133367166D01*
X70642241Y-133339071D01*
X70586051Y-133310975D01*
G36*
X71221090Y-132286708D02*
G01*
X71334861Y-131754896D01*
X71474429Y-131754896D01*
X71586877Y-132285385D01*
X71681465Y-131483698D01*
X71811772Y-131483698D01*
X71664267Y-132471255D01*
X71537929Y-132471255D01*
X71404314Y-131884542D01*
X71270038Y-132471255D01*
X71143700Y-132471255D01*
X70770416Y-130749920D01*
X70900724Y-130749920D01*
X71221090Y-132286708D01*
G37*
D12*
X71221090Y-132286708D02*
X71334861Y-131754896D01*
X71474429Y-131754896D01*
X71586877Y-132285385D01*
X71681465Y-131483698D01*
X71811772Y-131483698D01*
X71664267Y-132471255D01*
X71537929Y-132471255D01*
X71404314Y-131884542D01*
X71270038Y-132471255D01*
X71143700Y-132471255D01*
X70770416Y-130749920D01*
X70900724Y-130749920D01*
X71221090Y-132286708D01*
D10*
X78512646Y-130065142D02*
X78512646Y-131208142D01*
X78512646Y-130119571D02*
X78403789Y-130065142D01*
X78186075Y-130065142D01*
X78077218Y-130119571D01*
X78022789Y-130173999D01*
X77968360Y-130282856D01*
X77968360Y-130609428D01*
X78022789Y-130718285D01*
X78077218Y-130772713D01*
X78186075Y-130827142D01*
X78403789Y-130827142D01*
X78512646Y-130772713D01*
X77478503Y-130827142D02*
X77478503Y-130065142D01*
X77478503Y-129684142D02*
X77532932Y-129738571D01*
X77478503Y-129792999D01*
X77424075Y-129738571D01*
X77478503Y-129684142D01*
X77478503Y-129792999D01*
X76444360Y-130772713D02*
X76553218Y-130827142D01*
X76770932Y-130827142D01*
X76879789Y-130772713D01*
X76934218Y-130718285D01*
X76988646Y-130609428D01*
X76988646Y-130282856D01*
X76934218Y-130173999D01*
X76879789Y-130119571D01*
X76770932Y-130065142D01*
X76553218Y-130065142D01*
X76444360Y-130119571D01*
X75791218Y-130827142D02*
X75900075Y-130772713D01*
X75954503Y-130718285D01*
X76008932Y-130609428D01*
X76008932Y-130282856D01*
X75954503Y-130173999D01*
X75900075Y-130119571D01*
X75791218Y-130065142D01*
X75627932Y-130065142D01*
X75519075Y-130119571D01*
X75464646Y-130173999D01*
X75410218Y-130282856D01*
X75410218Y-130609428D01*
X75464646Y-130718285D01*
X75519075Y-130772713D01*
X75627932Y-130827142D01*
X75791218Y-130827142D01*
X74920360Y-130391713D02*
X74049503Y-130391713D01*
X73505218Y-130827142D02*
X73505218Y-130065142D01*
X73505218Y-129684142D02*
X73559646Y-129738571D01*
X73505218Y-129792999D01*
X73450789Y-129738571D01*
X73505218Y-129684142D01*
X73505218Y-129792999D01*
X72471075Y-130772713D02*
X72579932Y-130827142D01*
X72797646Y-130827142D01*
X72906503Y-130772713D01*
X72960932Y-130718285D01*
X73015360Y-130609428D01*
X73015360Y-130282856D01*
X72960932Y-130173999D01*
X72906503Y-130119571D01*
X72797646Y-130065142D01*
X72579932Y-130065142D01*
X72471075Y-130119571D01*
X71545789Y-130772713D02*
X71654646Y-130827142D01*
X71872360Y-130827142D01*
X71981218Y-130772713D01*
X72035646Y-130663856D01*
X72035646Y-130228428D01*
X71981218Y-130119571D01*
X71872360Y-130065142D01*
X71654646Y-130065142D01*
X71545789Y-130119571D01*
X71491360Y-130228428D01*
X71491360Y-130337285D01*
X72035646Y-130446142D01*
X69477503Y-130827142D02*
X69858503Y-130282856D01*
X70130646Y-130827142D02*
X70130646Y-129684142D01*
X69695218Y-129684142D01*
X69586360Y-129738571D01*
X69531932Y-129792999D01*
X69477503Y-129901856D01*
X69477503Y-130065142D01*
X69531932Y-130173999D01*
X69586360Y-130228428D01*
X69695218Y-130282856D01*
X70130646Y-130282856D01*
X68552218Y-130772713D02*
X68661075Y-130827142D01*
X68878789Y-130827142D01*
X68987646Y-130772713D01*
X69042075Y-130663856D01*
X69042075Y-130228428D01*
X68987646Y-130119571D01*
X68878789Y-130065142D01*
X68661075Y-130065142D01*
X68552218Y-130119571D01*
X68497789Y-130228428D01*
X68497789Y-130337285D01*
X69042075Y-130446142D01*
X68116789Y-130065142D02*
X67844646Y-130827142D01*
X67572503Y-130065142D01*
X67191503Y-129792999D02*
X67137075Y-129738571D01*
X67028218Y-129684142D01*
X66756075Y-129684142D01*
X66647218Y-129738571D01*
X66592789Y-129792999D01*
X66538360Y-129901856D01*
X66538360Y-130010713D01*
X66592789Y-130173999D01*
X67245932Y-130827142D01*
X66538360Y-130827142D01*
D11*
X74687956Y-133310975D02*
X74687956Y-133788594D01*
X74659860Y-133844785D01*
X74631765Y-133872880D01*
X74575575Y-133900975D01*
X74463194Y-133900975D01*
X74407003Y-133872880D01*
X74378908Y-133844785D01*
X74350813Y-133788594D01*
X74350813Y-133310975D01*
X74097956Y-133872880D02*
X74013670Y-133900975D01*
X73873194Y-133900975D01*
X73817003Y-133872880D01*
X73788908Y-133844785D01*
X73760813Y-133788594D01*
X73760813Y-133732404D01*
X73788908Y-133676213D01*
X73817003Y-133648118D01*
X73873194Y-133620023D01*
X73985575Y-133591928D01*
X74041765Y-133563832D01*
X74069860Y-133535737D01*
X74097956Y-133479547D01*
X74097956Y-133423356D01*
X74069860Y-133367166D01*
X74041765Y-133339071D01*
X73985575Y-133310975D01*
X73845098Y-133310975D01*
X73760813Y-133339071D01*
X73395575Y-133310975D02*
X73339384Y-133310975D01*
X73283194Y-133339071D01*
X73255098Y-133367166D01*
X73227003Y-133423356D01*
X73198908Y-133535737D01*
X73198908Y-133676213D01*
X73227003Y-133788594D01*
X73255098Y-133844785D01*
X73283194Y-133872880D01*
X73339384Y-133900975D01*
X73395575Y-133900975D01*
X73451765Y-133872880D01*
X73479860Y-133844785D01*
X73507956Y-133788594D01*
X73536051Y-133676213D01*
X73536051Y-133535737D01*
X73507956Y-133423356D01*
X73479860Y-133367166D01*
X73451765Y-133339071D01*
X73395575Y-133310975D01*
X72833670Y-133310975D02*
X72777479Y-133310975D01*
X72721289Y-133339071D01*
X72693194Y-133367166D01*
X72665098Y-133423356D01*
X72637003Y-133535737D01*
X72637003Y-133676213D01*
X72665098Y-133788594D01*
X72693194Y-133844785D01*
X72721289Y-133872880D01*
X72777479Y-133900975D01*
X72833670Y-133900975D01*
X72889860Y-133872880D01*
X72917956Y-133844785D01*
X72946051Y-133788594D01*
X72974146Y-133676213D01*
X72974146Y-133535737D01*
X72946051Y-133423356D01*
X72917956Y-133367166D01*
X72889860Y-133339071D01*
X72833670Y-133310975D01*
X72412241Y-133367166D02*
X72384146Y-133339071D01*
X72327956Y-133310975D01*
X72187479Y-133310975D01*
X72131289Y-133339071D01*
X72103194Y-133367166D01*
X72075098Y-133423356D01*
X72075098Y-133479547D01*
X72103194Y-133563832D01*
X72440337Y-133900975D01*
X72075098Y-133900975D01*
X71513194Y-133900975D02*
X71850337Y-133900975D01*
X71681765Y-133900975D02*
X71681765Y-133310975D01*
X71737956Y-133395261D01*
X71794146Y-133451451D01*
X71850337Y-133479547D01*
X71007479Y-133507642D02*
X71007479Y-133900975D01*
X71147956Y-133282880D02*
X71288432Y-133704309D01*
X70923194Y-133704309D01*
X70586051Y-133310975D02*
X70529860Y-133310975D01*
X70473670Y-133339071D01*
X70445575Y-133367166D01*
X70417479Y-133423356D01*
X70389384Y-133535737D01*
X70389384Y-133676213D01*
X70417479Y-133788594D01*
X70445575Y-133844785D01*
X70473670Y-133872880D01*
X70529860Y-133900975D01*
X70586051Y-133900975D01*
X70642241Y-133872880D01*
X70670337Y-133844785D01*
X70698432Y-133788594D01*
X70726527Y-133676213D01*
X70726527Y-133535737D01*
X70698432Y-133423356D01*
X70670337Y-133367166D01*
X70642241Y-133339071D01*
X70586051Y-133310975D01*
G36*
X71221090Y-132286708D02*
G01*
X71334861Y-131754896D01*
X71474429Y-131754896D01*
X71586877Y-132285385D01*
X71681465Y-131483698D01*
X71811772Y-131483698D01*
X71664267Y-132471255D01*
X71537929Y-132471255D01*
X71404314Y-131884542D01*
X71270038Y-132471255D01*
X71143700Y-132471255D01*
X70770416Y-130749920D01*
X70900724Y-130749920D01*
X71221090Y-132286708D01*
G37*
D12*
X71221090Y-132286708D02*
X71334861Y-131754896D01*
X71474429Y-131754896D01*
X71586877Y-132285385D01*
X71681465Y-131483698D01*
X71811772Y-131483698D01*
X71664267Y-132471255D01*
X71537929Y-132471255D01*
X71404314Y-131884542D01*
X71270038Y-132471255D01*
X71143700Y-132471255D01*
X70770416Y-130749920D01*
X70900724Y-130749920D01*
X71221090Y-132286708D01*
D13*
X63500000Y-132080000D03*
D14*
X75280000Y-128337000D03*
X69500000Y-128337000D03*
D15*
X76710000Y-127807000D03*
D16*
X68070000Y-131987000D03*
X76710000Y-131987000D03*
D15*
X68070000Y-127807000D03*
D17*
X80010000Y-80010000D03*
D18*
X82550000Y-80010000D03*
X80010000Y-82550000D03*
X82550000Y-82550000D03*
X80010000Y-85090000D03*
X82550000Y-85090000D03*
X80010000Y-87630000D03*
X82550000Y-87630000D03*
X80010000Y-90170000D03*
X82550000Y-90170000D03*
X80010000Y-92710000D03*
X82550000Y-92710000D03*
X80010000Y-95250000D03*
X82550000Y-95250000D03*
X80010000Y-97790000D03*
X82550000Y-97790000D03*
X80010000Y-100330000D03*
X82550000Y-100330000D03*
X80010000Y-102870000D03*
X82550000Y-102870000D03*
X80010000Y-105410000D03*
X82550000Y-105410000D03*
X80010000Y-107950000D03*
X82550000Y-107950000D03*
X80010000Y-110490000D03*
X82550000Y-110490000D03*
X80010000Y-113030000D03*
X82550000Y-113030000D03*
X80010000Y-115570000D03*
X82550000Y-115570000D03*
X80010000Y-118110000D03*
X82550000Y-118110000D03*
X80010000Y-120650000D03*
X82550000Y-120650000D03*
X80010000Y-123190000D03*
X82550000Y-123190000D03*
X80010000Y-125730000D03*
X82550000Y-125730000D03*
X80010000Y-128270000D03*
X82550000Y-128270000D03*
D13*
X81280000Y-76200000D03*
D17*
X62230000Y-80010000D03*
D18*
X64770000Y-80010000D03*
X62230000Y-82550000D03*
X64770000Y-82550000D03*
X62230000Y-85090000D03*
X64770000Y-85090000D03*
X62230000Y-87630000D03*
X64770000Y-87630000D03*
X62230000Y-90170000D03*
X64770000Y-90170000D03*
X62230000Y-92710000D03*
X64770000Y-92710000D03*
X62230000Y-95250000D03*
X64770000Y-95250000D03*
X62230000Y-97790000D03*
X64770000Y-97790000D03*
X62230000Y-100330000D03*
X64770000Y-100330000D03*
X62230000Y-102870000D03*
X64770000Y-102870000D03*
X62230000Y-105410000D03*
X64770000Y-105410000D03*
X62230000Y-107950000D03*
X64770000Y-107950000D03*
X62230000Y-110490000D03*
X64770000Y-110490000D03*
X62230000Y-113030000D03*
X64770000Y-113030000D03*
X62230000Y-115570000D03*
X64770000Y-115570000D03*
X62230000Y-118110000D03*
X64770000Y-118110000D03*
X62230000Y-120650000D03*
X64770000Y-120650000D03*
X62230000Y-123190000D03*
X64770000Y-123190000D03*
X62230000Y-125730000D03*
X64770000Y-125730000D03*
X62230000Y-128270000D03*
X64770000Y-128270000D03*
D13*
X81280000Y-132080000D03*
X63500000Y-76200000D03*
D19*
X78054200Y-119731600D03*
X78054200Y-120751600D03*
D20*
X66710718Y-87691471D03*
X66710718Y-88651471D03*
D21*
X70215918Y-77249471D03*
D22*
X73549800Y-90678000D03*
X75649800Y-90678000D03*
D23*
X72779312Y-79840277D03*
X73799312Y-79840277D03*
D24*
X72567800Y-117370800D03*
X72567800Y-116410800D03*
D25*
X77340400Y-104495600D03*
X76380400Y-104495600D03*
D20*
X74828400Y-103253600D03*
X74828400Y-104213600D03*
D26*
X70640000Y-101955600D03*
X71600000Y-101955600D03*
D27*
X67818000Y-80474000D03*
X69088000Y-80474000D03*
X70358000Y-80474000D03*
X71628000Y-80474000D03*
X71628000Y-87674000D03*
X70358000Y-87674000D03*
X69088000Y-87674000D03*
X67818000Y-87674000D03*
D28*
X75659800Y-120751600D03*
X75659800Y-122021600D03*
X75659800Y-123291600D03*
X75659800Y-124561600D03*
X68459800Y-124561600D03*
X68459800Y-123291600D03*
X68459800Y-122021600D03*
X68459800Y-120751600D03*
D25*
X73530400Y-89204800D03*
X72570400Y-89204800D03*
D20*
X70586600Y-99418200D03*
X70586600Y-100378200D03*
D25*
X77315000Y-97993200D03*
X76355000Y-97993200D03*
D29*
X73533000Y-82320000D03*
X74803000Y-82320000D03*
X76073000Y-82320000D03*
X77343000Y-82320000D03*
X77343000Y-87270000D03*
X76073000Y-87270000D03*
X74803000Y-87270000D03*
X73533000Y-87270000D03*
D30*
X67818000Y-78310200D03*
X67818000Y-77290200D03*
D21*
X66294000Y-132842000D03*
D31*
X77327800Y-101619900D03*
X76377800Y-101619900D03*
X75427800Y-101619900D03*
X75427800Y-99344900D03*
X77327800Y-99344900D03*
D21*
X78486000Y-132842000D03*
D30*
X73837800Y-104243600D03*
X73837800Y-103223600D03*
X77139800Y-120753600D03*
X77139800Y-119733600D03*
D26*
X68531800Y-119278400D03*
X69491800Y-119278400D03*
D32*
X77306400Y-103251000D03*
X75906400Y-103251000D03*
D33*
X76977000Y-106197400D03*
D34*
X75677000Y-106197400D03*
D35*
X71917800Y-100287271D03*
D36*
X73217800Y-100287271D03*
D37*
X75148400Y-76608700D03*
X77048400Y-76608700D03*
X76098400Y-78483700D03*
D38*
X70652600Y-103408900D03*
X71602600Y-103408900D03*
X72552600Y-103408900D03*
X72552600Y-105683900D03*
X70652600Y-105683900D03*
D24*
X69392800Y-106144000D03*
X69392800Y-105184000D03*
D39*
X71090000Y-127889000D03*
D40*
X72390000Y-127889000D03*
D41*
X73690000Y-127889000D03*
D19*
X73507600Y-76147200D03*
X73507600Y-77167200D03*
M02*
