G04 #@! TF.GenerationSoftware,KiCad,Pcbnew,(6.0.5)*
G04 #@! TF.CreationDate,2022-08-24T15:32:52-07:00*
G04 #@! TF.ProjectId,pico-ice,7069636f-2d69-4636-952e-6b696361645f,REV1*
G04 #@! TF.SameCoordinates,Original*
G04 #@! TF.FileFunction,Soldermask,Bot*
G04 #@! TF.FilePolarity,Negative*
%FSLAX46Y46*%
G04 Gerber Fmt 4.6, Leading zero omitted, Abs format (unit mm)*
G04 Created by KiCad (PCBNEW (6.0.5)) date 2022-08-24 15:32:52*
%MOMM*%
%LPD*%
G01*
G04 APERTURE LIST*
G04 Aperture macros list*
%AMRoundRect*
0 Rectangle with rounded corners*
0 $1 Rounding radius*
0 $2 $3 $4 $5 $6 $7 $8 $9 X,Y pos of 4 corners*
0 Add a 4 corners polygon primitive as box body*
4,1,4,$2,$3,$4,$5,$6,$7,$8,$9,$2,$3,0*
0 Add four circle primitives for the rounded corners*
1,1,$1+$1,$2,$3*
1,1,$1+$1,$4,$5*
1,1,$1+$1,$6,$7*
1,1,$1+$1,$8,$9*
0 Add four rect primitives between the rounded corners*
20,1,$1+$1,$2,$3,$4,$5,0*
20,1,$1+$1,$4,$5,$6,$7,0*
20,1,$1+$1,$6,$7,$8,$9,0*
20,1,$1+$1,$8,$9,$2,$3,0*%
%AMFreePoly0*
4,1,37,0.536062,0.786062,0.551000,0.750000,0.551000,-0.750000,0.536062,-0.786062,0.500000,-0.801000,0.000000,-0.801000,-0.012525,-0.795812,-0.080875,-0.794559,-0.095149,-0.792248,-0.230464,-0.749973,-0.243516,-0.743747,-0.361526,-0.665192,-0.372306,-0.655554,-0.463526,-0.547035,-0.471167,-0.534759,-0.528262,-0.405000,-0.532150,-0.391073,-0.549733,-0.256613,-0.548336,-0.256430,-0.551000,-0.250000,
-0.551000,0.250000,-0.550512,0.251179,-0.550356,0.263956,-0.528545,0.404033,-0.524317,0.417860,-0.464069,0.546185,-0.456130,0.558271,-0.362286,0.664529,-0.351274,0.673901,-0.231379,0.749549,-0.218180,0.755454,-0.081873,0.794411,-0.067546,0.796373,-0.011990,0.796033,0.000000,0.801000,0.500000,0.801000,0.536062,0.786062,0.536062,0.786062,$1*%
%AMFreePoly1*
4,1,37,0.012349,0.795885,0.074216,0.795507,0.088518,0.793370,0.224339,0.752751,0.237465,0.746685,0.356427,0.669578,0.367324,0.660073,0.459862,0.552676,0.467652,0.540494,0.526329,0.411442,0.530388,0.397563,0.550485,0.257230,0.551000,0.250000,0.551000,-0.250000,0.550996,-0.250622,0.550847,-0.262838,0.550144,-0.270677,0.526624,-0.410478,0.522228,-0.424254,0.460416,-0.551833,
0.452330,-0.563821,0.357195,-0.668925,0.346069,-0.678161,0.225259,-0.752338,0.211989,-0.758081,0.075216,-0.795370,0.060866,-0.797157,0.011464,-0.796251,0.000000,-0.801000,-0.500000,-0.801000,-0.536062,-0.786062,-0.551000,-0.750000,-0.551000,0.750000,-0.536062,0.786062,-0.500000,0.801000,0.000000,0.801000,0.012349,0.795885,0.012349,0.795885,$1*%
G04 Aperture macros list end*
%ADD10C,0.254000*%
%ADD11C,2.802000*%
%ADD12RoundRect,0.051000X0.850000X-0.850000X0.850000X0.850000X-0.850000X0.850000X-0.850000X-0.850000X0*%
%ADD13O,1.802000X1.802000*%
%ADD14RoundRect,0.051000X0.850000X0.850000X-0.850000X0.850000X-0.850000X-0.850000X0.850000X-0.850000X0*%
%ADD15RoundRect,0.051000X-0.850000X-0.850000X0.850000X-0.850000X0.850000X0.850000X-0.850000X0.850000X0*%
%ADD16C,0.752000*%
%ADD17O,1.102000X2.202000*%
%ADD18O,1.102000X1.702000*%
%ADD19RoundRect,0.051000X-0.850000X0.850000X-0.850000X-0.850000X0.850000X-0.850000X0.850000X0.850000X0*%
%ADD20RoundRect,0.186000X-0.185000X0.135000X-0.185000X-0.135000X0.185000X-0.135000X0.185000X0.135000X0*%
%ADD21RoundRect,0.191000X0.170000X-0.140000X0.170000X0.140000X-0.170000X0.140000X-0.170000X-0.140000X0*%
%ADD22C,1.500000*%
%ADD23RoundRect,0.191000X-0.170000X0.140000X-0.170000X-0.140000X0.170000X-0.140000X0.170000X0.140000X0*%
%ADD24RoundRect,0.201000X-0.150000X0.650000X-0.150000X-0.650000X0.150000X-0.650000X0.150000X0.650000X0*%
%ADD25RoundRect,0.201000X0.650000X0.150000X-0.650000X0.150000X-0.650000X-0.150000X0.650000X-0.150000X0*%
%ADD26RoundRect,0.191000X0.140000X0.170000X-0.140000X0.170000X-0.140000X-0.170000X0.140000X-0.170000X0*%
%ADD27RoundRect,0.201000X-0.150000X0.825000X-0.150000X-0.825000X0.150000X-0.825000X0.150000X0.825000X0*%
%ADD28RoundRect,0.191000X-0.140000X-0.170000X0.140000X-0.170000X0.140000X0.170000X-0.140000X0.170000X0*%
%ADD29RoundRect,0.201000X0.512500X0.150000X-0.512500X0.150000X-0.512500X-0.150000X0.512500X-0.150000X0*%
%ADD30RoundRect,0.186000X0.185000X-0.135000X0.185000X0.135000X-0.185000X0.135000X-0.185000X-0.135000X0*%
%ADD31FreePoly0,0.000000*%
%ADD32FreePoly1,0.000000*%
%ADD33RoundRect,0.051000X1.000000X0.750000X-1.000000X0.750000X-1.000000X-0.750000X1.000000X-0.750000X0*%
%ADD34RoundRect,0.051000X1.000000X1.900000X-1.000000X1.900000X-1.000000X-1.900000X1.000000X-1.900000X0*%
G04 APERTURE END LIST*
D10*
X77288571Y-129676071D02*
X77288571Y-130819071D01*
X77288571Y-129730500D02*
X77179714Y-129676071D01*
X76962000Y-129676071D01*
X76853142Y-129730500D01*
X76798714Y-129784928D01*
X76744285Y-129893785D01*
X76744285Y-130220357D01*
X76798714Y-130329214D01*
X76853142Y-130383642D01*
X76962000Y-130438071D01*
X77179714Y-130438071D01*
X77288571Y-130383642D01*
X76254428Y-130438071D02*
X76254428Y-129676071D01*
X76254428Y-129295071D02*
X76308857Y-129349500D01*
X76254428Y-129403928D01*
X76200000Y-129349500D01*
X76254428Y-129295071D01*
X76254428Y-129403928D01*
X75220285Y-130383642D02*
X75329142Y-130438071D01*
X75546857Y-130438071D01*
X75655714Y-130383642D01*
X75710142Y-130329214D01*
X75764571Y-130220357D01*
X75764571Y-129893785D01*
X75710142Y-129784928D01*
X75655714Y-129730500D01*
X75546857Y-129676071D01*
X75329142Y-129676071D01*
X75220285Y-129730500D01*
X74567142Y-130438071D02*
X74676000Y-130383642D01*
X74730428Y-130329214D01*
X74784857Y-130220357D01*
X74784857Y-129893785D01*
X74730428Y-129784928D01*
X74676000Y-129730500D01*
X74567142Y-129676071D01*
X74403857Y-129676071D01*
X74295000Y-129730500D01*
X74240571Y-129784928D01*
X74186142Y-129893785D01*
X74186142Y-130220357D01*
X74240571Y-130329214D01*
X74295000Y-130383642D01*
X74403857Y-130438071D01*
X74567142Y-130438071D01*
X73696285Y-130002642D02*
X72825428Y-130002642D01*
X72281142Y-130438071D02*
X72281142Y-129676071D01*
X72281142Y-129295071D02*
X72335571Y-129349500D01*
X72281142Y-129403928D01*
X72226714Y-129349500D01*
X72281142Y-129295071D01*
X72281142Y-129403928D01*
X71247000Y-130383642D02*
X71355857Y-130438071D01*
X71573571Y-130438071D01*
X71682428Y-130383642D01*
X71736857Y-130329214D01*
X71791285Y-130220357D01*
X71791285Y-129893785D01*
X71736857Y-129784928D01*
X71682428Y-129730500D01*
X71573571Y-129676071D01*
X71355857Y-129676071D01*
X71247000Y-129730500D01*
X70321714Y-130383642D02*
X70430571Y-130438071D01*
X70648285Y-130438071D01*
X70757142Y-130383642D01*
X70811571Y-130274785D01*
X70811571Y-129839357D01*
X70757142Y-129730500D01*
X70648285Y-129676071D01*
X70430571Y-129676071D01*
X70321714Y-129730500D01*
X70267285Y-129839357D01*
X70267285Y-129948214D01*
X70811571Y-130057071D01*
X69015428Y-129676071D02*
X68743285Y-130438071D01*
X68471142Y-129676071D01*
X67437000Y-130438071D02*
X68090142Y-130438071D01*
X67763571Y-130438071D02*
X67763571Y-129295071D01*
X67872428Y-129458357D01*
X67981285Y-129567214D01*
X68090142Y-129621642D01*
X77288571Y-129676071D02*
X77288571Y-130819071D01*
X77288571Y-129730500D02*
X77179714Y-129676071D01*
X76962000Y-129676071D01*
X76853142Y-129730500D01*
X76798714Y-129784928D01*
X76744285Y-129893785D01*
X76744285Y-130220357D01*
X76798714Y-130329214D01*
X76853142Y-130383642D01*
X76962000Y-130438071D01*
X77179714Y-130438071D01*
X77288571Y-130383642D01*
X76254428Y-130438071D02*
X76254428Y-129676071D01*
X76254428Y-129295071D02*
X76308857Y-129349500D01*
X76254428Y-129403928D01*
X76200000Y-129349500D01*
X76254428Y-129295071D01*
X76254428Y-129403928D01*
X75220285Y-130383642D02*
X75329142Y-130438071D01*
X75546857Y-130438071D01*
X75655714Y-130383642D01*
X75710142Y-130329214D01*
X75764571Y-130220357D01*
X75764571Y-129893785D01*
X75710142Y-129784928D01*
X75655714Y-129730500D01*
X75546857Y-129676071D01*
X75329142Y-129676071D01*
X75220285Y-129730500D01*
X74567142Y-130438071D02*
X74676000Y-130383642D01*
X74730428Y-130329214D01*
X74784857Y-130220357D01*
X74784857Y-129893785D01*
X74730428Y-129784928D01*
X74676000Y-129730500D01*
X74567142Y-129676071D01*
X74403857Y-129676071D01*
X74295000Y-129730500D01*
X74240571Y-129784928D01*
X74186142Y-129893785D01*
X74186142Y-130220357D01*
X74240571Y-130329214D01*
X74295000Y-130383642D01*
X74403857Y-130438071D01*
X74567142Y-130438071D01*
X73696285Y-130002642D02*
X72825428Y-130002642D01*
X72281142Y-130438071D02*
X72281142Y-129676071D01*
X72281142Y-129295071D02*
X72335571Y-129349500D01*
X72281142Y-129403928D01*
X72226714Y-129349500D01*
X72281142Y-129295071D01*
X72281142Y-129403928D01*
X71247000Y-130383642D02*
X71355857Y-130438071D01*
X71573571Y-130438071D01*
X71682428Y-130383642D01*
X71736857Y-130329214D01*
X71791285Y-130220357D01*
X71791285Y-129893785D01*
X71736857Y-129784928D01*
X71682428Y-129730500D01*
X71573571Y-129676071D01*
X71355857Y-129676071D01*
X71247000Y-129730500D01*
X70321714Y-130383642D02*
X70430571Y-130438071D01*
X70648285Y-130438071D01*
X70757142Y-130383642D01*
X70811571Y-130274785D01*
X70811571Y-129839357D01*
X70757142Y-129730500D01*
X70648285Y-129676071D01*
X70430571Y-129676071D01*
X70321714Y-129730500D01*
X70267285Y-129839357D01*
X70267285Y-129948214D01*
X70811571Y-130057071D01*
X69015428Y-129676071D02*
X68743285Y-130438071D01*
X68471142Y-129676071D01*
X67437000Y-130438071D02*
X68090142Y-130438071D01*
X67763571Y-130438071D02*
X67763571Y-129295071D01*
X67872428Y-129458357D01*
X67981285Y-129567214D01*
X68090142Y-129621642D01*
D11*
X63500000Y-132080000D03*
D12*
X62230000Y-120650000D03*
D13*
X64770000Y-120650000D03*
D14*
X80010000Y-102870000D03*
D13*
X82550000Y-102870000D03*
X80010000Y-100330000D03*
X82550000Y-100330000D03*
X80010000Y-97790000D03*
X82550000Y-97790000D03*
D15*
X64770000Y-82550000D03*
D13*
X64770000Y-85090000D03*
X64770000Y-87630000D03*
X64770000Y-90170000D03*
X64770000Y-92710000D03*
X64770000Y-95250000D03*
X62230000Y-82550000D03*
X62230000Y-85090000D03*
X62230000Y-87630000D03*
X62230000Y-90170000D03*
X62230000Y-92710000D03*
X62230000Y-95250000D03*
D12*
X80010000Y-120650000D03*
D13*
X82550000Y-120650000D03*
D16*
X75280000Y-128337000D03*
X69500000Y-128337000D03*
D17*
X76710000Y-127807000D03*
D18*
X68070000Y-131987000D03*
X76710000Y-131987000D03*
D17*
X68070000Y-127807000D03*
D14*
X80010000Y-118110000D03*
D13*
X80010000Y-115570000D03*
X80010000Y-113030000D03*
X80010000Y-110490000D03*
X80010000Y-107950000D03*
X80010000Y-105410000D03*
X82550000Y-118110000D03*
X82550000Y-115570000D03*
X82550000Y-113030000D03*
X82550000Y-110490000D03*
X82550000Y-107950000D03*
X82550000Y-105410000D03*
D11*
X81280000Y-76200000D03*
D19*
X78740000Y-77470000D03*
D13*
X76200000Y-77470000D03*
X73660000Y-77470000D03*
X71120000Y-77470000D03*
X68580000Y-77470000D03*
X66040000Y-77470000D03*
X78740000Y-74930000D03*
X76200000Y-74930000D03*
X73660000Y-74930000D03*
X71120000Y-74930000D03*
X68580000Y-74930000D03*
X66040000Y-74930000D03*
D14*
X80010000Y-95250000D03*
D13*
X80010000Y-92710000D03*
X80010000Y-90170000D03*
X80010000Y-87630000D03*
X80010000Y-85090000D03*
X80010000Y-82550000D03*
X82550000Y-95250000D03*
X82550000Y-92710000D03*
X82550000Y-90170000D03*
X82550000Y-87630000D03*
X82550000Y-85090000D03*
X82550000Y-82550000D03*
D15*
X64770000Y-105410000D03*
D13*
X64770000Y-107950000D03*
X64770000Y-110490000D03*
X64770000Y-113030000D03*
X64770000Y-115570000D03*
X64770000Y-118110000D03*
X62230000Y-105410000D03*
X62230000Y-107950000D03*
X62230000Y-110490000D03*
X62230000Y-113030000D03*
X62230000Y-115570000D03*
X62230000Y-118110000D03*
D15*
X64770000Y-97790000D03*
D13*
X62230000Y-97790000D03*
X64770000Y-100330000D03*
X62230000Y-100330000D03*
X64770000Y-102870000D03*
X62230000Y-102870000D03*
D11*
X81280000Y-132080000D03*
X63500000Y-76200000D03*
D20*
X77444600Y-119731600D03*
X77444600Y-120751600D03*
X73507600Y-79398400D03*
X73507600Y-80418400D03*
D21*
X66497200Y-88160800D03*
X66497200Y-87200800D03*
D22*
X81280000Y-80010000D03*
D21*
X72771000Y-116913600D03*
X72771000Y-115953600D03*
D23*
X78099500Y-101577200D03*
X78099500Y-102537200D03*
X77393800Y-110137000D03*
X77393800Y-111097000D03*
D24*
X67818000Y-80474000D03*
X69088000Y-80474000D03*
X70358000Y-80474000D03*
X71628000Y-80474000D03*
X71628000Y-87674000D03*
X70358000Y-87674000D03*
X69088000Y-87674000D03*
X67818000Y-87674000D03*
D25*
X75659800Y-120751600D03*
X75659800Y-122021600D03*
X75659800Y-123291600D03*
X75659800Y-124561600D03*
X68459800Y-124561600D03*
X68459800Y-123291600D03*
X68459800Y-122021600D03*
X68459800Y-120751600D03*
D21*
X67183000Y-94282200D03*
X67183000Y-93322200D03*
D26*
X73606600Y-88900000D03*
X72646600Y-88900000D03*
D23*
X70586600Y-99418200D03*
X70586600Y-100378200D03*
X73050400Y-101653400D03*
X73050400Y-102613400D03*
D27*
X73533000Y-82320000D03*
X74803000Y-82320000D03*
X76073000Y-82320000D03*
X77343000Y-82320000D03*
X77343000Y-87270000D03*
X76073000Y-87270000D03*
X74803000Y-87270000D03*
X73533000Y-87270000D03*
D21*
X66294000Y-94282200D03*
X66294000Y-93322200D03*
D20*
X66090800Y-79296800D03*
X66090800Y-80316800D03*
D21*
X70561200Y-116913600D03*
X70561200Y-115953600D03*
D20*
X64058800Y-79296800D03*
X64058800Y-80316800D03*
D28*
X68658800Y-104673400D03*
X69618800Y-104673400D03*
D22*
X66040000Y-129540000D03*
D21*
X71628000Y-116913600D03*
X71628000Y-115953600D03*
D29*
X76677100Y-101640600D03*
X76677100Y-102590600D03*
X76677100Y-103540600D03*
X74402100Y-103540600D03*
X74402100Y-101640600D03*
D20*
X63042800Y-79296800D03*
X63042800Y-80316800D03*
D22*
X78740000Y-129540000D03*
D30*
X78359000Y-120753600D03*
X78359000Y-119733600D03*
D28*
X71579800Y-119151400D03*
X72539800Y-119151400D03*
D31*
X71917800Y-99999800D03*
D32*
X73217800Y-99999800D03*
D33*
X75667000Y-105370600D03*
X75667000Y-107670600D03*
D34*
X69367000Y-107670600D03*
D33*
X75667000Y-109970600D03*
D20*
X65074800Y-79296800D03*
X65074800Y-80316800D03*
M02*
