G04 #@! TF.GenerationSoftware,KiCad,Pcbnew,(6.0.5)*
G04 #@! TF.CreationDate,2022-08-24T15:32:52-07:00*
G04 #@! TF.ProjectId,pico-ice,7069636f-2d69-4636-952e-6b696361645f,REV1*
G04 #@! TF.SameCoordinates,Original*
G04 #@! TF.FileFunction,Paste,Top*
G04 #@! TF.FilePolarity,Positive*
%FSLAX46Y46*%
G04 Gerber Fmt 4.6, Leading zero omitted, Abs format (unit mm)*
G04 Created by KiCad (PCBNEW (6.0.5)) date 2022-08-24 15:32:52*
%MOMM*%
%LPD*%
G01*
G04 APERTURE LIST*
G04 Aperture macros list*
%AMRoundRect*
0 Rectangle with rounded corners*
0 $1 Rounding radius*
0 $2 $3 $4 $5 $6 $7 $8 $9 X,Y pos of 4 corners*
0 Add a 4 corners polygon primitive as box body*
4,1,4,$2,$3,$4,$5,$6,$7,$8,$9,$2,$3,0*
0 Add four circle primitives for the rounded corners*
1,1,$1+$1,$2,$3*
1,1,$1+$1,$4,$5*
1,1,$1+$1,$6,$7*
1,1,$1+$1,$8,$9*
0 Add four rect primitives between the rounded corners*
20,1,$1+$1,$2,$3,$4,$5,0*
20,1,$1+$1,$4,$5,$6,$7,0*
20,1,$1+$1,$6,$7,$8,$9,0*
20,1,$1+$1,$8,$9,$2,$3,0*%
G04 Aperture macros list end*
%ADD10RoundRect,0.140000X0.170000X-0.140000X0.170000X0.140000X-0.170000X0.140000X-0.170000X-0.140000X0*%
%ADD11RoundRect,0.135000X-0.185000X0.135000X-0.185000X-0.135000X0.185000X-0.135000X0.185000X0.135000X0*%
%ADD12RoundRect,0.200000X0.200000X0.275000X-0.200000X0.275000X-0.200000X-0.275000X0.200000X-0.275000X0*%
%ADD13RoundRect,0.140000X0.140000X0.170000X-0.140000X0.170000X-0.140000X-0.170000X0.140000X-0.170000X0*%
%ADD14RoundRect,0.140000X-0.170000X0.140000X-0.170000X-0.140000X0.170000X-0.140000X0.170000X0.140000X0*%
%ADD15RoundRect,0.218750X0.218750X0.256250X-0.218750X0.256250X-0.218750X-0.256250X0.218750X-0.256250X0*%
%ADD16RoundRect,0.135000X-0.135000X-0.185000X0.135000X-0.185000X0.135000X0.185000X-0.135000X0.185000X0*%
%ADD17R,0.950000X1.400000*%
%ADD18R,1.150000X0.750000*%
%ADD19RoundRect,0.135000X0.185000X-0.135000X0.185000X0.135000X-0.185000X0.135000X-0.185000X-0.135000X0*%
%ADD20R,0.600000X1.450000*%
%ADD21R,0.300000X1.450000*%
%ADD22R,0.430000X0.430000*%
%ADD23RoundRect,0.140000X-0.140000X-0.170000X0.140000X-0.170000X0.140000X0.170000X-0.140000X0.170000X0*%
%ADD24R,1.400000X0.950000*%
%ADD25R,0.750000X1.150000*%
%ADD26RoundRect,0.250000X0.292217X0.292217X-0.292217X0.292217X-0.292217X-0.292217X0.292217X-0.292217X0*%
%ADD27RoundRect,0.050000X0.387500X0.050000X-0.387500X0.050000X-0.387500X-0.050000X0.387500X-0.050000X0*%
%ADD28RoundRect,0.050000X0.050000X0.387500X-0.050000X0.387500X-0.050000X-0.387500X0.050000X-0.387500X0*%
%ADD29R,1.000000X1.150000*%
%ADD30R,0.700000X0.600000*%
%ADD31RoundRect,0.250000X0.315000X-0.315000X0.315000X0.315000X-0.315000X0.315000X-0.315000X-0.315000X0*%
%ADD32RoundRect,0.062500X0.062500X-0.375000X0.062500X0.375000X-0.062500X0.375000X-0.062500X-0.375000X0*%
%ADD33RoundRect,0.062500X0.375000X-0.062500X0.375000X0.062500X-0.375000X0.062500X-0.375000X-0.062500X0*%
G04 APERTURE END LIST*
D10*
X72364600Y-108176000D03*
X72364600Y-107216000D03*
D11*
X66675000Y-110691200D03*
X66675000Y-111711200D03*
D12*
X78879200Y-124510800D03*
X77229200Y-124510800D03*
D13*
X68475800Y-98933000D03*
X67515800Y-98933000D03*
D14*
X77063600Y-116258400D03*
X77063600Y-117218400D03*
X67081400Y-118315800D03*
X67081400Y-119275800D03*
X69977000Y-118315800D03*
X69977000Y-119275800D03*
D13*
X68475800Y-99898200D03*
X67515800Y-99898200D03*
D15*
X64719300Y-79832200D03*
X63144300Y-79832200D03*
D13*
X67637600Y-112496600D03*
X66677600Y-112496600D03*
X70076000Y-88265000D03*
X69116000Y-88265000D03*
D16*
X77087000Y-102997000D03*
X78107000Y-102997000D03*
D11*
X73533000Y-81786000D03*
X73533000Y-82806000D03*
D13*
X70076000Y-89204800D03*
X69116000Y-89204800D03*
D14*
X78155800Y-106200000D03*
X78155800Y-107160000D03*
D10*
X71501000Y-108176000D03*
X71501000Y-107216000D03*
D16*
X76223400Y-96062800D03*
X77243400Y-96062800D03*
D17*
X71594800Y-80975200D03*
X67444800Y-80975200D03*
D18*
X71094800Y-82500200D03*
X71094800Y-79450200D03*
X67944800Y-82500200D03*
X67944800Y-79450200D03*
D19*
X72034400Y-119890000D03*
X72034400Y-118870000D03*
D14*
X77140000Y-83680000D03*
X77140000Y-84640000D03*
D19*
X71126401Y-119890000D03*
X71126401Y-118870000D03*
D11*
X74168000Y-119149400D03*
X74168000Y-120169400D03*
D14*
X67614800Y-116182200D03*
X67614800Y-117142200D03*
X77419200Y-92608400D03*
X77419200Y-93568400D03*
D20*
X69140000Y-126892000D03*
X69940000Y-126892000D03*
D21*
X71140000Y-126892000D03*
X72140000Y-126892000D03*
X72640000Y-126892000D03*
X73640000Y-126892000D03*
D20*
X74840000Y-126892000D03*
X75640000Y-126892000D03*
X75640000Y-126892000D03*
X74840000Y-126892000D03*
D21*
X74140000Y-126892000D03*
X73140000Y-126892000D03*
X71640000Y-126892000D03*
X70640000Y-126892000D03*
D20*
X69940000Y-126892000D03*
X69140000Y-126892000D03*
D10*
X75488800Y-105839200D03*
X75488800Y-104879200D03*
D14*
X78156000Y-83680000D03*
X78156000Y-84640000D03*
D19*
X71145400Y-124614400D03*
X71145400Y-123594400D03*
D14*
X68046600Y-118315800D03*
X68046600Y-119275800D03*
D16*
X76502800Y-87604600D03*
X77522800Y-87604600D03*
D14*
X77622400Y-112397600D03*
X77622400Y-113357600D03*
D22*
X76534200Y-80463200D03*
X76534200Y-81233200D03*
X75764200Y-81233200D03*
X75764200Y-80463200D03*
D10*
X76454000Y-91236800D03*
X76454000Y-90276800D03*
D19*
X69519800Y-106809000D03*
X69519800Y-105789000D03*
D16*
X66622200Y-113919000D03*
X67642200Y-113919000D03*
D23*
X72085200Y-89204800D03*
X73045200Y-89204800D03*
D24*
X68427600Y-120683200D03*
X68427600Y-124833200D03*
D25*
X69952600Y-121183200D03*
X66902600Y-121183200D03*
X66902600Y-124333200D03*
X69952600Y-124333200D03*
D11*
X72085200Y-99185000D03*
X72085200Y-100205000D03*
D19*
X66090800Y-80316800D03*
X66090800Y-79296800D03*
D26*
X71727100Y-114023100D03*
X71727100Y-112748100D03*
X73002100Y-114023100D03*
X73002100Y-112748100D03*
D27*
X75802100Y-115985600D03*
X75802100Y-115585600D03*
X75802100Y-115185600D03*
X75802100Y-114785600D03*
X75802100Y-114385600D03*
X75802100Y-113985600D03*
X75802100Y-113585600D03*
X75802100Y-113185600D03*
X75802100Y-112785600D03*
X75802100Y-112385600D03*
X75802100Y-111985600D03*
X75802100Y-111585600D03*
X75802100Y-111185600D03*
X75802100Y-110785600D03*
D28*
X74964600Y-109948100D03*
X74564600Y-109948100D03*
X74164600Y-109948100D03*
X73764600Y-109948100D03*
X73364600Y-109948100D03*
X72964600Y-109948100D03*
X72564600Y-109948100D03*
X72164600Y-109948100D03*
X71764600Y-109948100D03*
X71364600Y-109948100D03*
X70964600Y-109948100D03*
X70564600Y-109948100D03*
X70164600Y-109948100D03*
X69764600Y-109948100D03*
D27*
X68927100Y-110785600D03*
X68927100Y-111185600D03*
X68927100Y-111585600D03*
X68927100Y-111985600D03*
X68927100Y-112385600D03*
X68927100Y-112785600D03*
X68927100Y-113185600D03*
X68927100Y-113585600D03*
X68927100Y-113985600D03*
X68927100Y-114385600D03*
X68927100Y-114785600D03*
X68927100Y-115185600D03*
X68927100Y-115585600D03*
X68927100Y-115985600D03*
D28*
X69764600Y-116823100D03*
X70164600Y-116823100D03*
X70564600Y-116823100D03*
X70964600Y-116823100D03*
X71364600Y-116823100D03*
X71764600Y-116823100D03*
X72164600Y-116823100D03*
X72564600Y-116823100D03*
X72964600Y-116823100D03*
X73364600Y-116823100D03*
X73764600Y-116823100D03*
X74164600Y-116823100D03*
X74564600Y-116823100D03*
X74964600Y-116823100D03*
D16*
X72032400Y-87223600D03*
X73052400Y-87223600D03*
D29*
X72426600Y-104077800D03*
X72426600Y-105827800D03*
X73826600Y-105827800D03*
X73826600Y-104077800D03*
D14*
X77139800Y-106200000D03*
X77139800Y-107160000D03*
D30*
X77647800Y-91225600D03*
X77647800Y-89825600D03*
D31*
X73423200Y-94984800D03*
X73423200Y-93584800D03*
X70623200Y-96384800D03*
X73423200Y-92184800D03*
X72023200Y-92184800D03*
X69223200Y-92184800D03*
X69223200Y-94984800D03*
X69223200Y-96384800D03*
X72023200Y-94984800D03*
X70623200Y-92184800D03*
X70623200Y-94984800D03*
X73423200Y-96384800D03*
X72023200Y-93584800D03*
X70623200Y-93584800D03*
X72023200Y-96384800D03*
X69223200Y-93584800D03*
D32*
X68573200Y-97722300D03*
X69073200Y-97722300D03*
X69573200Y-97722300D03*
X70073200Y-97722300D03*
X70573200Y-97722300D03*
X71073200Y-97722300D03*
X71573200Y-97722300D03*
X72073200Y-97722300D03*
X72573200Y-97722300D03*
X73073200Y-97722300D03*
X73573200Y-97722300D03*
X74073200Y-97722300D03*
D33*
X74760700Y-97034800D03*
X74760700Y-96534800D03*
X74760700Y-96034800D03*
X74760700Y-95534800D03*
X74760700Y-95034800D03*
X74760700Y-94534800D03*
X74760700Y-94034800D03*
X74760700Y-93534800D03*
X74760700Y-93034800D03*
X74760700Y-92534800D03*
X74760700Y-92034800D03*
X74760700Y-91534800D03*
D32*
X74073200Y-90847300D03*
X73573200Y-90847300D03*
X73073200Y-90847300D03*
X72573200Y-90847300D03*
X72073200Y-90847300D03*
X71573200Y-90847300D03*
X71073200Y-90847300D03*
X70573200Y-90847300D03*
X70073200Y-90847300D03*
X69573200Y-90847300D03*
X69073200Y-90847300D03*
X68573200Y-90847300D03*
D33*
X67885700Y-91534800D03*
X67885700Y-92034800D03*
X67885700Y-92534800D03*
X67885700Y-93034800D03*
X67885700Y-93534800D03*
X67885700Y-94034800D03*
X67885700Y-94534800D03*
X67885700Y-95034800D03*
X67885700Y-95534800D03*
X67885700Y-96034800D03*
X67885700Y-96534800D03*
X67885700Y-97034800D03*
D13*
X77492800Y-88900000D03*
X76532800Y-88900000D03*
D22*
X76102400Y-120366600D03*
X76102400Y-121136600D03*
X75332400Y-121136600D03*
X75332400Y-120366600D03*
D14*
X69011800Y-118315800D03*
X69011800Y-119275800D03*
D10*
X70789800Y-104569200D03*
X70789800Y-103609200D03*
D19*
X74193400Y-122150600D03*
X74193400Y-121130600D03*
D23*
X72062400Y-88239600D03*
X73022400Y-88239600D03*
D19*
X70789800Y-106428000D03*
X70789800Y-105408000D03*
D16*
X75309000Y-122555000D03*
X76329000Y-122555000D03*
X74140600Y-124739400D03*
X75160600Y-124739400D03*
D14*
X76454000Y-92608400D03*
X76454000Y-93568400D03*
D13*
X76527600Y-79400400D03*
X75567600Y-79400400D03*
X76146600Y-119126000D03*
X75186600Y-119126000D03*
M02*
