G04 #@! TF.GenerationSoftware,KiCad,Pcbnew,(6.0.5)*
G04 #@! TF.CreationDate,2022-08-24T15:32:52-07:00*
G04 #@! TF.ProjectId,pico-ice,7069636f-2d69-4636-952e-6b696361645f,REV1*
G04 #@! TF.SameCoordinates,Original*
G04 #@! TF.FileFunction,Legend,Bot*
G04 #@! TF.FilePolarity,Positive*
%FSLAX46Y46*%
G04 Gerber Fmt 4.6, Leading zero omitted, Abs format (unit mm)*
G04 Created by KiCad (PCBNEW (6.0.5)) date 2022-08-24 15:32:52*
%MOMM*%
%LPD*%
G01*
G04 APERTURE LIST*
%ADD10C,0.120000*%
%ADD11C,0.100000*%
%ADD12C,0.127000*%
G04 APERTURE END LIST*
D10*
X70535800Y-94107000D02*
X70535800Y-94183200D01*
D11*
X80564800Y-74368428D02*
X80814800Y-74368428D01*
X80814800Y-74761285D02*
X80814800Y-74011285D01*
X80457657Y-74011285D01*
X80207657Y-74082714D02*
X80171942Y-74047000D01*
X80100514Y-74011285D01*
X79921942Y-74011285D01*
X79850514Y-74047000D01*
X79814800Y-74082714D01*
X79779085Y-74154142D01*
X79779085Y-74225571D01*
X79814800Y-74332714D01*
X80243371Y-74761285D01*
X79779085Y-74761285D01*
X72336428Y-76053428D02*
X72229285Y-76089142D01*
X72193571Y-76124857D01*
X72157857Y-76196285D01*
X72157857Y-76303428D01*
X72193571Y-76374857D01*
X72229285Y-76410571D01*
X72300714Y-76446285D01*
X72586428Y-76446285D01*
X72586428Y-75696285D01*
X72336428Y-75696285D01*
X72265000Y-75732000D01*
X72229285Y-75767714D01*
X72193571Y-75839142D01*
X72193571Y-75910571D01*
X72229285Y-75982000D01*
X72265000Y-76017714D01*
X72336428Y-76053428D01*
X72586428Y-76053428D01*
D10*
X66252742Y-103551485D02*
X66395600Y-103551485D01*
X66467028Y-103587200D01*
X66502742Y-103622914D01*
X66574171Y-103730057D01*
X66609885Y-103872914D01*
X66609885Y-104158628D01*
X66574171Y-104230057D01*
X66538457Y-104265771D01*
X66467028Y-104301485D01*
X66324171Y-104301485D01*
X66252742Y-104265771D01*
X66217028Y-104230057D01*
X66181314Y-104158628D01*
X66181314Y-103980057D01*
X66217028Y-103908628D01*
X66252742Y-103872914D01*
X66324171Y-103837200D01*
X66467028Y-103837200D01*
X66538457Y-103872914D01*
X66574171Y-103908628D01*
X66609885Y-103980057D01*
X66584485Y-91304685D02*
X66584485Y-91804685D01*
X66763057Y-91018971D02*
X66941628Y-91554685D01*
X66477342Y-91554685D01*
X65834485Y-91054685D02*
X66191628Y-91054685D01*
X66227342Y-91411828D01*
X66191628Y-91376114D01*
X66120200Y-91340400D01*
X65941628Y-91340400D01*
X65870200Y-91376114D01*
X65834485Y-91411828D01*
X65798771Y-91483257D01*
X65798771Y-91661828D01*
X65834485Y-91733257D01*
X65870200Y-91768971D01*
X65941628Y-91804685D01*
X66120200Y-91804685D01*
X66191628Y-91768971D01*
X66227342Y-91733257D01*
D11*
X72461428Y-78880857D02*
X72497142Y-78916571D01*
X72604285Y-78952285D01*
X72675714Y-78952285D01*
X72782857Y-78916571D01*
X72854285Y-78845142D01*
X72890000Y-78773714D01*
X72925714Y-78630857D01*
X72925714Y-78523714D01*
X72890000Y-78380857D01*
X72854285Y-78309428D01*
X72782857Y-78238000D01*
X72675714Y-78202285D01*
X72604285Y-78202285D01*
X72497142Y-78238000D01*
X72461428Y-78273714D01*
X72140000Y-78952285D02*
X72140000Y-78202285D01*
X72068571Y-78666571D02*
X71854285Y-78952285D01*
X71854285Y-78452285D02*
X72140000Y-78738000D01*
D10*
X66381285Y-85995314D02*
X66345571Y-85959600D01*
X66274142Y-85923885D01*
X66095571Y-85923885D01*
X66024142Y-85959600D01*
X65988428Y-85995314D01*
X65952714Y-86066742D01*
X65952714Y-86138171D01*
X65988428Y-86245314D01*
X66417000Y-86673885D01*
X65952714Y-86673885D01*
X81902228Y-93513714D02*
X81866514Y-93478000D01*
X81795085Y-93442285D01*
X81616514Y-93442285D01*
X81545085Y-93478000D01*
X81509371Y-93513714D01*
X81473657Y-93585142D01*
X81473657Y-93656571D01*
X81509371Y-93763714D01*
X81937942Y-94192285D01*
X81473657Y-94192285D01*
X81223657Y-93442285D02*
X80759371Y-93442285D01*
X81009371Y-93728000D01*
X80902228Y-93728000D01*
X80830800Y-93763714D01*
X80795085Y-93799428D01*
X80759371Y-93870857D01*
X80759371Y-94049428D01*
X80795085Y-94120857D01*
X80830800Y-94156571D01*
X80902228Y-94192285D01*
X81116514Y-94192285D01*
X81187942Y-94156571D01*
X81223657Y-94120857D01*
D11*
X67925457Y-78329285D02*
X67675457Y-79079285D01*
X67425457Y-78329285D01*
X67175457Y-79079285D02*
X67175457Y-78579285D01*
X67175457Y-78329285D02*
X67211171Y-78365000D01*
X67175457Y-78400714D01*
X67139742Y-78365000D01*
X67175457Y-78329285D01*
X67175457Y-78400714D01*
X66711171Y-79079285D02*
X66782600Y-79043571D01*
X66818314Y-79007857D01*
X66854028Y-78936428D01*
X66854028Y-78722142D01*
X66818314Y-78650714D01*
X66782600Y-78615000D01*
X66711171Y-78579285D01*
X66604028Y-78579285D01*
X66532600Y-78615000D01*
X66496885Y-78650714D01*
X66461171Y-78722142D01*
X66461171Y-78936428D01*
X66496885Y-79007857D01*
X66532600Y-79043571D01*
X66604028Y-79079285D01*
X66711171Y-79079285D01*
X65146161Y-73996550D02*
X64541400Y-73996550D01*
X65025209Y-74780623D02*
X64934495Y-74810861D01*
X64783304Y-74810861D01*
X64722828Y-74780623D01*
X64692590Y-74750385D01*
X64662352Y-74689909D01*
X64662352Y-74629433D01*
X64692590Y-74568957D01*
X64722828Y-74538719D01*
X64783304Y-74508480D01*
X64904257Y-74478242D01*
X64964733Y-74448004D01*
X64994971Y-74417766D01*
X65025209Y-74357290D01*
X65025209Y-74296814D01*
X64994971Y-74236338D01*
X64964733Y-74206100D01*
X64904257Y-74175861D01*
X64753066Y-74175861D01*
X64662352Y-74206100D01*
X64541400Y-73996550D02*
X63936638Y-73996550D01*
X64420447Y-74780623D02*
X64329733Y-74810861D01*
X64178542Y-74810861D01*
X64118066Y-74780623D01*
X64087828Y-74750385D01*
X64057590Y-74689909D01*
X64057590Y-74629433D01*
X64087828Y-74568957D01*
X64118066Y-74538719D01*
X64178542Y-74508480D01*
X64299495Y-74478242D01*
X64359971Y-74448004D01*
X64390209Y-74417766D01*
X64420447Y-74357290D01*
X64420447Y-74296814D01*
X64390209Y-74236338D01*
X64359971Y-74206100D01*
X64299495Y-74175861D01*
X64148304Y-74175861D01*
X64057590Y-74206100D01*
D10*
X81659771Y-109217228D02*
X81552628Y-109252942D01*
X81516914Y-109288657D01*
X81481200Y-109360085D01*
X81481200Y-109467228D01*
X81516914Y-109538657D01*
X81552628Y-109574371D01*
X81624057Y-109610085D01*
X81909771Y-109610085D01*
X81909771Y-108860085D01*
X81659771Y-108860085D01*
X81588342Y-108895800D01*
X81552628Y-108931514D01*
X81516914Y-109002942D01*
X81516914Y-109074371D01*
X81552628Y-109145800D01*
X81588342Y-109181514D01*
X81659771Y-109217228D01*
X81909771Y-109217228D01*
X80838342Y-109110085D02*
X80838342Y-109610085D01*
X81016914Y-108824371D02*
X81195485Y-109360085D01*
X80731200Y-109360085D01*
X66589257Y-101990085D02*
X67017828Y-101990085D01*
X66803542Y-101990085D02*
X66803542Y-101240085D01*
X66874971Y-101347228D01*
X66946400Y-101418657D01*
X67017828Y-101454371D01*
X65874971Y-101990085D02*
X66303542Y-101990085D01*
X66089257Y-101990085D02*
X66089257Y-101240085D01*
X66160685Y-101347228D01*
X66232114Y-101418657D01*
X66303542Y-101454371D01*
X78845000Y-99868485D02*
X78595000Y-100618485D01*
X78345000Y-99868485D01*
X77845000Y-100225628D02*
X77737857Y-100261342D01*
X77702142Y-100297057D01*
X77666428Y-100368485D01*
X77666428Y-100475628D01*
X77702142Y-100547057D01*
X77737857Y-100582771D01*
X77809285Y-100618485D01*
X78095000Y-100618485D01*
X78095000Y-99868485D01*
X77845000Y-99868485D01*
X77773571Y-99904200D01*
X77737857Y-99939914D01*
X77702142Y-100011342D01*
X77702142Y-100082771D01*
X77737857Y-100154200D01*
X77773571Y-100189914D01*
X77845000Y-100225628D01*
X78095000Y-100225628D01*
X77345000Y-99868485D02*
X77345000Y-100475628D01*
X77309285Y-100547057D01*
X77273571Y-100582771D01*
X77202142Y-100618485D01*
X77059285Y-100618485D01*
X76987857Y-100582771D01*
X76952142Y-100547057D01*
X76916428Y-100475628D01*
X76916428Y-99868485D01*
X76595000Y-100582771D02*
X76487857Y-100618485D01*
X76309285Y-100618485D01*
X76237857Y-100582771D01*
X76202142Y-100547057D01*
X76166428Y-100475628D01*
X76166428Y-100404200D01*
X76202142Y-100332771D01*
X76237857Y-100297057D01*
X76309285Y-100261342D01*
X76452142Y-100225628D01*
X76523571Y-100189914D01*
X76559285Y-100154200D01*
X76595000Y-100082771D01*
X76595000Y-100011342D01*
X76559285Y-99939914D01*
X76523571Y-99904200D01*
X76452142Y-99868485D01*
X76273571Y-99868485D01*
X76166428Y-99904200D01*
X64107142Y-108860085D02*
X63642857Y-108860085D01*
X63892857Y-109145800D01*
X63785714Y-109145800D01*
X63714285Y-109181514D01*
X63678571Y-109217228D01*
X63642857Y-109288657D01*
X63642857Y-109467228D01*
X63678571Y-109538657D01*
X63714285Y-109574371D01*
X63785714Y-109610085D01*
X64000000Y-109610085D01*
X64071428Y-109574371D01*
X64107142Y-109538657D01*
X63000000Y-108860085D02*
X63142857Y-108860085D01*
X63214285Y-108895800D01*
X63250000Y-108931514D01*
X63321428Y-109038657D01*
X63357142Y-109181514D01*
X63357142Y-109467228D01*
X63321428Y-109538657D01*
X63285714Y-109574371D01*
X63214285Y-109610085D01*
X63071428Y-109610085D01*
X63000000Y-109574371D01*
X62964285Y-109538657D01*
X62928571Y-109467228D01*
X62928571Y-109288657D01*
X62964285Y-109217228D01*
X63000000Y-109181514D01*
X63071428Y-109145800D01*
X63214285Y-109145800D01*
X63285714Y-109181514D01*
X63321428Y-109217228D01*
X63357142Y-109288657D01*
X63642857Y-104301485D02*
X63500000Y-104301485D01*
X63428571Y-104265771D01*
X63392857Y-104230057D01*
X63321428Y-104122914D01*
X63285714Y-103980057D01*
X63285714Y-103694342D01*
X63321428Y-103622914D01*
X63357142Y-103587200D01*
X63428571Y-103551485D01*
X63571428Y-103551485D01*
X63642857Y-103587200D01*
X63678571Y-103622914D01*
X63714285Y-103694342D01*
X63714285Y-103872914D01*
X63678571Y-103944342D01*
X63642857Y-103980057D01*
X63571428Y-104015771D01*
X63428571Y-104015771D01*
X63357142Y-103980057D01*
X63321428Y-103944342D01*
X63285714Y-103872914D01*
X81800628Y-96358514D02*
X81764914Y-96322800D01*
X81693485Y-96287085D01*
X81514914Y-96287085D01*
X81443485Y-96322800D01*
X81407771Y-96358514D01*
X81372057Y-96429942D01*
X81372057Y-96501371D01*
X81407771Y-96608514D01*
X81836342Y-97037085D01*
X81372057Y-97037085D01*
X80729200Y-96287085D02*
X80872057Y-96287085D01*
X80943485Y-96322800D01*
X80979200Y-96358514D01*
X81050628Y-96465657D01*
X81086342Y-96608514D01*
X81086342Y-96894228D01*
X81050628Y-96965657D01*
X81014914Y-97001371D01*
X80943485Y-97037085D01*
X80800628Y-97037085D01*
X80729200Y-97001371D01*
X80693485Y-96965657D01*
X80657771Y-96894228D01*
X80657771Y-96715657D01*
X80693485Y-96644228D01*
X80729200Y-96608514D01*
X80800628Y-96572800D01*
X80943485Y-96572800D01*
X81014914Y-96608514D01*
X81050628Y-96644228D01*
X81086342Y-96715657D01*
X67002742Y-111374685D02*
X66538457Y-111374685D01*
X66788457Y-111660400D01*
X66681314Y-111660400D01*
X66609885Y-111696114D01*
X66574171Y-111731828D01*
X66538457Y-111803257D01*
X66538457Y-111981828D01*
X66574171Y-112053257D01*
X66609885Y-112088971D01*
X66681314Y-112124685D01*
X66895600Y-112124685D01*
X66967028Y-112088971D01*
X67002742Y-112053257D01*
X65895600Y-111624685D02*
X65895600Y-112124685D01*
X66074171Y-111338971D02*
X66252742Y-111874685D01*
X65788457Y-111874685D01*
X81608971Y-114246428D02*
X81501828Y-114282142D01*
X81466114Y-114317857D01*
X81430400Y-114389285D01*
X81430400Y-114496428D01*
X81466114Y-114567857D01*
X81501828Y-114603571D01*
X81573257Y-114639285D01*
X81858971Y-114639285D01*
X81858971Y-113889285D01*
X81608971Y-113889285D01*
X81537542Y-113925000D01*
X81501828Y-113960714D01*
X81466114Y-114032142D01*
X81466114Y-114103571D01*
X81501828Y-114175000D01*
X81537542Y-114210714D01*
X81608971Y-114246428D01*
X81858971Y-114246428D01*
X81144685Y-113960714D02*
X81108971Y-113925000D01*
X81037542Y-113889285D01*
X80858971Y-113889285D01*
X80787542Y-113925000D01*
X80751828Y-113960714D01*
X80716114Y-114032142D01*
X80716114Y-114103571D01*
X80751828Y-114210714D01*
X81180400Y-114639285D01*
X80716114Y-114639285D01*
X78603457Y-89315485D02*
X79032028Y-89315485D01*
X78817742Y-89315485D02*
X78817742Y-88565485D01*
X78889171Y-88672628D01*
X78960600Y-88744057D01*
X79032028Y-88779771D01*
X78246314Y-89315485D02*
X78103457Y-89315485D01*
X78032028Y-89279771D01*
X77996314Y-89244057D01*
X77924885Y-89136914D01*
X77889171Y-88994057D01*
X77889171Y-88708342D01*
X77924885Y-88636914D01*
X77960600Y-88601200D01*
X78032028Y-88565485D01*
X78174885Y-88565485D01*
X78246314Y-88601200D01*
X78282028Y-88636914D01*
X78317742Y-88708342D01*
X78317742Y-88886914D01*
X78282028Y-88958342D01*
X78246314Y-88994057D01*
X78174885Y-89029771D01*
X78032028Y-89029771D01*
X77960600Y-88994057D01*
X77924885Y-88958342D01*
X77889171Y-88886914D01*
X79174114Y-109370400D02*
X78816971Y-109370400D01*
X79245542Y-109584685D02*
X78995542Y-108834685D01*
X78745542Y-109584685D01*
X78174114Y-109084685D02*
X78174114Y-109584685D01*
X78352685Y-108798971D02*
X78531257Y-109334685D01*
X78066971Y-109334685D01*
X66589257Y-99551685D02*
X67017828Y-99551685D01*
X66803542Y-99551685D02*
X66803542Y-98801685D01*
X66874971Y-98908828D01*
X66946400Y-98980257D01*
X67017828Y-99015971D01*
X66124971Y-98801685D02*
X66053542Y-98801685D01*
X65982114Y-98837400D01*
X65946400Y-98873114D01*
X65910685Y-98944542D01*
X65874971Y-99087400D01*
X65874971Y-99265971D01*
X65910685Y-99408828D01*
X65946400Y-99480257D01*
X65982114Y-99515971D01*
X66053542Y-99551685D01*
X66124971Y-99551685D01*
X66196400Y-99515971D01*
X66232114Y-99480257D01*
X66267828Y-99408828D01*
X66303542Y-99265971D01*
X66303542Y-99087400D01*
X66267828Y-98944542D01*
X66232114Y-98873114D01*
X66196400Y-98837400D01*
X66124971Y-98801685D01*
X63642857Y-101867857D02*
X63678571Y-101903571D01*
X63785714Y-101939285D01*
X63857142Y-101939285D01*
X63964285Y-101903571D01*
X64035714Y-101832142D01*
X64071428Y-101760714D01*
X64107142Y-101617857D01*
X64107142Y-101510714D01*
X64071428Y-101367857D01*
X64035714Y-101296428D01*
X63964285Y-101225000D01*
X63857142Y-101189285D01*
X63785714Y-101189285D01*
X63678571Y-101225000D01*
X63642857Y-101260714D01*
X63321428Y-101939285D02*
X63321428Y-101189285D01*
X62892857Y-101939285D02*
X63214285Y-101510714D01*
X62892857Y-101189285D02*
X63321428Y-101617857D01*
X79006628Y-91176914D02*
X78970914Y-91141200D01*
X78899485Y-91105485D01*
X78720914Y-91105485D01*
X78649485Y-91141200D01*
X78613771Y-91176914D01*
X78578057Y-91248342D01*
X78578057Y-91319771D01*
X78613771Y-91426914D01*
X79042342Y-91855485D01*
X78578057Y-91855485D01*
X77863771Y-91855485D02*
X78292342Y-91855485D01*
X78078057Y-91855485D02*
X78078057Y-91105485D01*
X78149485Y-91212628D01*
X78220914Y-91284057D01*
X78292342Y-91319771D01*
X81565714Y-108003571D02*
X80994285Y-108003571D01*
D11*
X69617857Y-76412285D02*
X69867857Y-76055142D01*
X70046428Y-76412285D02*
X70046428Y-75662285D01*
X69760714Y-75662285D01*
X69689285Y-75698000D01*
X69653571Y-75733714D01*
X69617857Y-75805142D01*
X69617857Y-75912285D01*
X69653571Y-75983714D01*
X69689285Y-76019428D01*
X69760714Y-76055142D01*
X70046428Y-76055142D01*
D10*
X82011371Y-101501171D02*
X81975657Y-101465457D01*
X81904228Y-101429742D01*
X81761371Y-101501171D01*
X81689942Y-101465457D01*
X81654228Y-101429742D01*
X81404228Y-101108314D02*
X81368514Y-101072600D01*
X81297085Y-101036885D01*
X81118514Y-101036885D01*
X81047085Y-101072600D01*
X81011371Y-101108314D01*
X80975657Y-101179742D01*
X80975657Y-101251171D01*
X81011371Y-101358314D01*
X81439942Y-101786885D01*
X80975657Y-101786885D01*
X82969028Y-122230800D02*
X83040457Y-122195085D01*
X83147600Y-122195085D01*
X83254742Y-122230800D01*
X83326171Y-122302228D01*
X83361885Y-122373657D01*
X83397600Y-122516514D01*
X83397600Y-122623657D01*
X83361885Y-122766514D01*
X83326171Y-122837942D01*
X83254742Y-122909371D01*
X83147600Y-122945085D01*
X83076171Y-122945085D01*
X82969028Y-122909371D01*
X82933314Y-122873657D01*
X82933314Y-122623657D01*
X83076171Y-122623657D01*
X82611885Y-122945085D02*
X82611885Y-122195085D01*
X82183314Y-122945085D01*
X82183314Y-122195085D01*
X81826171Y-122945085D02*
X81826171Y-122195085D01*
X81647600Y-122195085D01*
X81540457Y-122230800D01*
X81469028Y-122302228D01*
X81433314Y-122373657D01*
X81397600Y-122516514D01*
X81397600Y-122623657D01*
X81433314Y-122766514D01*
X81469028Y-122837942D01*
X81540457Y-122909371D01*
X81647600Y-122945085D01*
X81826171Y-122945085D01*
D12*
X80948428Y-122059500D02*
X80198428Y-122059500D01*
X80519857Y-122628428D02*
X80412714Y-122664142D01*
X80377000Y-122699857D01*
X80341285Y-122771285D01*
X80341285Y-122878428D01*
X80377000Y-122949857D01*
X80412714Y-122985571D01*
X80484142Y-123021285D01*
X80769857Y-123021285D01*
X80769857Y-122271285D01*
X80519857Y-122271285D01*
X80448428Y-122307000D01*
X80412714Y-122342714D01*
X80377000Y-122414142D01*
X80377000Y-122485571D01*
X80412714Y-122557000D01*
X80448428Y-122592714D01*
X80519857Y-122628428D01*
X80769857Y-122628428D01*
X80198428Y-122059500D02*
X79412714Y-122059500D01*
X79877000Y-122271285D02*
X79734142Y-122271285D01*
X79662714Y-122307000D01*
X79591285Y-122378428D01*
X79555571Y-122521285D01*
X79555571Y-122771285D01*
X79591285Y-122914142D01*
X79662714Y-122985571D01*
X79734142Y-123021285D01*
X79877000Y-123021285D01*
X79948428Y-122985571D01*
X80019857Y-122914142D01*
X80055571Y-122771285D01*
X80055571Y-122521285D01*
X80019857Y-122378428D01*
X79948428Y-122307000D01*
X79877000Y-122271285D01*
X79412714Y-122059500D02*
X78627000Y-122059500D01*
X79091285Y-122271285D02*
X78948428Y-122271285D01*
X78877000Y-122307000D01*
X78805571Y-122378428D01*
X78769857Y-122521285D01*
X78769857Y-122771285D01*
X78805571Y-122914142D01*
X78877000Y-122985571D01*
X78948428Y-123021285D01*
X79091285Y-123021285D01*
X79162714Y-122985571D01*
X79234142Y-122914142D01*
X79269857Y-122771285D01*
X79269857Y-122521285D01*
X79234142Y-122378428D01*
X79162714Y-122307000D01*
X79091285Y-122271285D01*
X78627000Y-122059500D02*
X78055571Y-122059500D01*
X78555571Y-122271285D02*
X78127000Y-122271285D01*
X78341285Y-123021285D02*
X78341285Y-122271285D01*
D10*
X81397457Y-91830085D02*
X81826028Y-91830085D01*
X81611742Y-91830085D02*
X81611742Y-91080085D01*
X81683171Y-91187228D01*
X81754600Y-91258657D01*
X81826028Y-91294371D01*
X80968885Y-91401514D02*
X81040314Y-91365800D01*
X81076028Y-91330085D01*
X81111742Y-91258657D01*
X81111742Y-91222942D01*
X81076028Y-91151514D01*
X81040314Y-91115800D01*
X80968885Y-91080085D01*
X80826028Y-91080085D01*
X80754600Y-91115800D01*
X80718885Y-91151514D01*
X80683171Y-91222942D01*
X80683171Y-91258657D01*
X80718885Y-91330085D01*
X80754600Y-91365800D01*
X80826028Y-91401514D01*
X80968885Y-91401514D01*
X81040314Y-91437228D01*
X81076028Y-91472942D01*
X81111742Y-91544371D01*
X81111742Y-91687228D01*
X81076028Y-91758657D01*
X81040314Y-91794371D01*
X80968885Y-91830085D01*
X80826028Y-91830085D01*
X80754600Y-91794371D01*
X80718885Y-91758657D01*
X80683171Y-91687228D01*
X80683171Y-91544371D01*
X80718885Y-91472942D01*
X80754600Y-91437228D01*
X80826028Y-91401514D01*
X63785714Y-95278171D02*
X63214285Y-95278171D01*
X63500000Y-95563885D02*
X63500000Y-94992457D01*
X64071428Y-114011514D02*
X64035714Y-113975800D01*
X63964285Y-113940085D01*
X63785714Y-113940085D01*
X63714285Y-113975800D01*
X63678571Y-114011514D01*
X63642857Y-114082942D01*
X63642857Y-114154371D01*
X63678571Y-114261514D01*
X64107142Y-114690085D01*
X63642857Y-114690085D01*
X63214285Y-114261514D02*
X63285714Y-114225800D01*
X63321428Y-114190085D01*
X63357142Y-114118657D01*
X63357142Y-114082942D01*
X63321428Y-114011514D01*
X63285714Y-113975800D01*
X63214285Y-113940085D01*
X63071428Y-113940085D01*
X63000000Y-113975800D01*
X62964285Y-114011514D01*
X62928571Y-114082942D01*
X62928571Y-114118657D01*
X62964285Y-114190085D01*
X63000000Y-114225800D01*
X63071428Y-114261514D01*
X63214285Y-114261514D01*
X63285714Y-114297228D01*
X63321428Y-114332942D01*
X63357142Y-114404371D01*
X63357142Y-114547228D01*
X63321428Y-114618657D01*
X63285714Y-114654371D01*
X63214285Y-114690085D01*
X63071428Y-114690085D01*
X63000000Y-114654371D01*
X62964285Y-114618657D01*
X62928571Y-114547228D01*
X62928571Y-114404371D01*
X62964285Y-114332942D01*
X63000000Y-114297228D01*
X63071428Y-114261514D01*
X82112971Y-104269771D02*
X82077257Y-104234057D01*
X82005828Y-104198342D01*
X81862971Y-104269771D01*
X81791542Y-104234057D01*
X81755828Y-104198342D01*
X81541542Y-103805485D02*
X81077257Y-103805485D01*
X81327257Y-104091200D01*
X81220114Y-104091200D01*
X81148685Y-104126914D01*
X81112971Y-104162628D01*
X81077257Y-104234057D01*
X81077257Y-104412628D01*
X81112971Y-104484057D01*
X81148685Y-104519771D01*
X81220114Y-104555485D01*
X81434400Y-104555485D01*
X81505828Y-104519771D01*
X81541542Y-104484057D01*
X63785714Y-118138171D02*
X63214285Y-118138171D01*
X63500000Y-118423885D02*
X63500000Y-117852457D01*
X67002742Y-108834685D02*
X66538457Y-108834685D01*
X66788457Y-109120400D01*
X66681314Y-109120400D01*
X66609885Y-109156114D01*
X66574171Y-109191828D01*
X66538457Y-109263257D01*
X66538457Y-109441828D01*
X66574171Y-109513257D01*
X66609885Y-109548971D01*
X66681314Y-109584685D01*
X66895600Y-109584685D01*
X66967028Y-109548971D01*
X67002742Y-109513257D01*
X66109885Y-109156114D02*
X66181314Y-109120400D01*
X66217028Y-109084685D01*
X66252742Y-109013257D01*
X66252742Y-108977542D01*
X66217028Y-108906114D01*
X66181314Y-108870400D01*
X66109885Y-108834685D01*
X65967028Y-108834685D01*
X65895600Y-108870400D01*
X65859885Y-108906114D01*
X65824171Y-108977542D01*
X65824171Y-109013257D01*
X65859885Y-109084685D01*
X65895600Y-109120400D01*
X65967028Y-109156114D01*
X66109885Y-109156114D01*
X66181314Y-109191828D01*
X66217028Y-109227542D01*
X66252742Y-109298971D01*
X66252742Y-109441828D01*
X66217028Y-109513257D01*
X66181314Y-109548971D01*
X66109885Y-109584685D01*
X65967028Y-109584685D01*
X65895600Y-109548971D01*
X65859885Y-109513257D01*
X65824171Y-109441828D01*
X65824171Y-109298971D01*
X65859885Y-109227542D01*
X65895600Y-109191828D01*
X65967028Y-109156114D01*
D11*
X74606571Y-75698000D02*
X74678000Y-75662285D01*
X74785142Y-75662285D01*
X74892285Y-75698000D01*
X74963714Y-75769428D01*
X74999428Y-75840857D01*
X75035142Y-75983714D01*
X75035142Y-76090857D01*
X74999428Y-76233714D01*
X74963714Y-76305142D01*
X74892285Y-76376571D01*
X74785142Y-76412285D01*
X74713714Y-76412285D01*
X74606571Y-76376571D01*
X74570857Y-76340857D01*
X74570857Y-76090857D01*
X74713714Y-76090857D01*
D10*
X66609885Y-88993285D02*
X66609885Y-89493285D01*
X66788457Y-88707571D02*
X66967028Y-89243285D01*
X66502742Y-89243285D01*
X66288457Y-88743285D02*
X65788457Y-88743285D01*
X66109885Y-89493285D01*
X78981228Y-96333114D02*
X78945514Y-96297400D01*
X78874085Y-96261685D01*
X78695514Y-96261685D01*
X78624085Y-96297400D01*
X78588371Y-96333114D01*
X78552657Y-96404542D01*
X78552657Y-96475971D01*
X78588371Y-96583114D01*
X79016942Y-97011685D01*
X78552657Y-97011685D01*
X78302657Y-96261685D02*
X77802657Y-96261685D01*
X78124085Y-97011685D01*
X63765085Y-91330085D02*
X63765085Y-91830085D01*
X63943657Y-91044371D02*
X64122228Y-91580085D01*
X63657942Y-91580085D01*
X63050800Y-91330085D02*
X63050800Y-91830085D01*
X63229371Y-91044371D02*
X63407942Y-91580085D01*
X62943657Y-91580085D01*
X81565714Y-105336571D02*
X80994285Y-105336571D01*
X81280000Y-105622285D02*
X81280000Y-105050857D01*
D11*
X70528571Y-78325000D02*
X70028571Y-78325000D01*
X70123809Y-78966190D02*
X70290476Y-78728095D01*
X70409523Y-78966190D02*
X70409523Y-78466190D01*
X70219047Y-78466190D01*
X70171428Y-78490000D01*
X70147619Y-78513809D01*
X70123809Y-78561428D01*
X70123809Y-78632857D01*
X70147619Y-78680476D01*
X70171428Y-78704285D01*
X70219047Y-78728095D01*
X70409523Y-78728095D01*
X70028571Y-78325000D02*
X69552380Y-78325000D01*
X69933333Y-78942380D02*
X69861904Y-78966190D01*
X69742857Y-78966190D01*
X69695238Y-78942380D01*
X69671428Y-78918571D01*
X69647619Y-78870952D01*
X69647619Y-78823333D01*
X69671428Y-78775714D01*
X69695238Y-78751904D01*
X69742857Y-78728095D01*
X69838095Y-78704285D01*
X69885714Y-78680476D01*
X69909523Y-78656666D01*
X69933333Y-78609047D01*
X69933333Y-78561428D01*
X69909523Y-78513809D01*
X69885714Y-78490000D01*
X69838095Y-78466190D01*
X69719047Y-78466190D01*
X69647619Y-78490000D01*
X69552380Y-78325000D02*
X69171428Y-78325000D01*
X69504761Y-78466190D02*
X69219047Y-78466190D01*
X69361904Y-78966190D02*
X69361904Y-78466190D01*
D10*
X67002742Y-113914685D02*
X66538457Y-113914685D01*
X66788457Y-114200400D01*
X66681314Y-114200400D01*
X66609885Y-114236114D01*
X66574171Y-114271828D01*
X66538457Y-114343257D01*
X66538457Y-114521828D01*
X66574171Y-114593257D01*
X66609885Y-114628971D01*
X66681314Y-114664685D01*
X66895600Y-114664685D01*
X66967028Y-114628971D01*
X67002742Y-114593257D01*
X65824171Y-114664685D02*
X66252742Y-114664685D01*
X66038457Y-114664685D02*
X66038457Y-113914685D01*
X66109885Y-114021828D01*
X66181314Y-114093257D01*
X66252742Y-114128971D01*
X82835714Y-127180571D02*
X82264285Y-127180571D01*
D11*
X81283085Y-78117500D02*
X80568800Y-78117500D01*
X81140228Y-79043571D02*
X81033085Y-79079285D01*
X80854514Y-79079285D01*
X80783085Y-79043571D01*
X80747371Y-79007857D01*
X80711657Y-78936428D01*
X80711657Y-78865000D01*
X80747371Y-78793571D01*
X80783085Y-78757857D01*
X80854514Y-78722142D01*
X80997371Y-78686428D01*
X81068800Y-78650714D01*
X81104514Y-78615000D01*
X81140228Y-78543571D01*
X81140228Y-78472142D01*
X81104514Y-78400714D01*
X81068800Y-78365000D01*
X80997371Y-78329285D01*
X80818800Y-78329285D01*
X80711657Y-78365000D01*
X80568800Y-78117500D02*
X79854514Y-78117500D01*
X80425942Y-79043571D02*
X80318800Y-79079285D01*
X80140228Y-79079285D01*
X80068800Y-79043571D01*
X80033085Y-79007857D01*
X79997371Y-78936428D01*
X79997371Y-78865000D01*
X80033085Y-78793571D01*
X80068800Y-78757857D01*
X80140228Y-78722142D01*
X80283085Y-78686428D01*
X80354514Y-78650714D01*
X80390228Y-78615000D01*
X80425942Y-78543571D01*
X80425942Y-78472142D01*
X80390228Y-78400714D01*
X80354514Y-78365000D01*
X80283085Y-78329285D01*
X80104514Y-78329285D01*
X79997371Y-78365000D01*
D10*
X63841285Y-106773285D02*
X63841285Y-107273285D01*
X64019857Y-106487571D02*
X64198428Y-107023285D01*
X63734142Y-107023285D01*
X63484142Y-106594714D02*
X63448428Y-106559000D01*
X63377000Y-106523285D01*
X63198428Y-106523285D01*
X63127000Y-106559000D01*
X63091285Y-106594714D01*
X63055571Y-106666142D01*
X63055571Y-106737571D01*
X63091285Y-106844714D01*
X63519857Y-107273285D01*
X63055571Y-107273285D01*
X63765085Y-86224685D02*
X63765085Y-86724685D01*
X63943657Y-85938971D02*
X64122228Y-86474685D01*
X63657942Y-86474685D01*
X63265085Y-86296114D02*
X63336514Y-86260400D01*
X63372228Y-86224685D01*
X63407942Y-86153257D01*
X63407942Y-86117542D01*
X63372228Y-86046114D01*
X63336514Y-86010400D01*
X63265085Y-85974685D01*
X63122228Y-85974685D01*
X63050800Y-86010400D01*
X63015085Y-86046114D01*
X62979371Y-86117542D01*
X62979371Y-86153257D01*
X63015085Y-86224685D01*
X63050800Y-86260400D01*
X63122228Y-86296114D01*
X63265085Y-86296114D01*
X63336514Y-86331828D01*
X63372228Y-86367542D01*
X63407942Y-86438971D01*
X63407942Y-86581828D01*
X63372228Y-86653257D01*
X63336514Y-86688971D01*
X63265085Y-86724685D01*
X63122228Y-86724685D01*
X63050800Y-86688971D01*
X63015085Y-86653257D01*
X62979371Y-86581828D01*
X62979371Y-86438971D01*
X63015085Y-86367542D01*
X63050800Y-86331828D01*
X63122228Y-86296114D01*
X81634371Y-111757228D02*
X81527228Y-111792942D01*
X81491514Y-111828657D01*
X81455800Y-111900085D01*
X81455800Y-112007228D01*
X81491514Y-112078657D01*
X81527228Y-112114371D01*
X81598657Y-112150085D01*
X81884371Y-112150085D01*
X81884371Y-111400085D01*
X81634371Y-111400085D01*
X81562942Y-111435800D01*
X81527228Y-111471514D01*
X81491514Y-111542942D01*
X81491514Y-111614371D01*
X81527228Y-111685800D01*
X81562942Y-111721514D01*
X81634371Y-111757228D01*
X81884371Y-111757228D01*
X81205800Y-111400085D02*
X80741514Y-111400085D01*
X80991514Y-111685800D01*
X80884371Y-111685800D01*
X80812942Y-111721514D01*
X80777228Y-111757228D01*
X80741514Y-111828657D01*
X80741514Y-112007228D01*
X80777228Y-112078657D01*
X80812942Y-112114371D01*
X80884371Y-112150085D01*
X81098657Y-112150085D01*
X81170085Y-112114371D01*
X81205800Y-112078657D01*
X81851428Y-88611514D02*
X81815714Y-88575800D01*
X81744285Y-88540085D01*
X81565714Y-88540085D01*
X81494285Y-88575800D01*
X81458571Y-88611514D01*
X81422857Y-88682942D01*
X81422857Y-88754371D01*
X81458571Y-88861514D01*
X81887142Y-89290085D01*
X81422857Y-89290085D01*
X80958571Y-88540085D02*
X80887142Y-88540085D01*
X80815714Y-88575800D01*
X80780000Y-88611514D01*
X80744285Y-88682942D01*
X80708571Y-88825800D01*
X80708571Y-89004371D01*
X80744285Y-89147228D01*
X80780000Y-89218657D01*
X80815714Y-89254371D01*
X80887142Y-89290085D01*
X80958571Y-89290085D01*
X81030000Y-89254371D01*
X81065714Y-89218657D01*
X81101428Y-89147228D01*
X81137142Y-89004371D01*
X81137142Y-88825800D01*
X81101428Y-88682942D01*
X81065714Y-88611514D01*
X81030000Y-88575800D01*
X80958571Y-88540085D01*
X78945514Y-116761800D02*
X78588371Y-116761800D01*
X79016942Y-116976085D02*
X78766942Y-116226085D01*
X78516942Y-116976085D01*
X77874085Y-116976085D02*
X78302657Y-116976085D01*
X78088371Y-116976085D02*
X78088371Y-116226085D01*
X78159800Y-116333228D01*
X78231228Y-116404657D01*
X78302657Y-116440371D01*
X81565714Y-85143571D02*
X80994285Y-85143571D01*
D11*
X75068857Y-79043571D02*
X74961714Y-79079285D01*
X74783142Y-79079285D01*
X74711714Y-79043571D01*
X74676000Y-79007857D01*
X74640285Y-78936428D01*
X74640285Y-78865000D01*
X74676000Y-78793571D01*
X74711714Y-78757857D01*
X74783142Y-78722142D01*
X74926000Y-78686428D01*
X74997428Y-78650714D01*
X75033142Y-78615000D01*
X75068857Y-78543571D01*
X75068857Y-78472142D01*
X75033142Y-78400714D01*
X74997428Y-78365000D01*
X74926000Y-78329285D01*
X74747428Y-78329285D01*
X74640285Y-78365000D01*
X74318857Y-79079285D02*
X74318857Y-78579285D01*
X74318857Y-78329285D02*
X74354571Y-78365000D01*
X74318857Y-78400714D01*
X74283142Y-78365000D01*
X74318857Y-78329285D01*
X74318857Y-78400714D01*
D10*
X66024142Y-83659285D02*
X66024142Y-84159285D01*
X66202714Y-83373571D02*
X66381285Y-83909285D01*
X65917000Y-83909285D01*
X81354200Y-99424685D02*
X81604200Y-99067542D01*
X81782771Y-99424685D02*
X81782771Y-98674685D01*
X81497057Y-98674685D01*
X81425628Y-98710400D01*
X81389914Y-98746114D01*
X81354200Y-98817542D01*
X81354200Y-98924685D01*
X81389914Y-98996114D01*
X81425628Y-99031828D01*
X81497057Y-99067542D01*
X81782771Y-99067542D01*
X81068485Y-99388971D02*
X80961342Y-99424685D01*
X80782771Y-99424685D01*
X80711342Y-99388971D01*
X80675628Y-99353257D01*
X80639914Y-99281828D01*
X80639914Y-99210400D01*
X80675628Y-99138971D01*
X80711342Y-99103257D01*
X80782771Y-99067542D01*
X80925628Y-99031828D01*
X80997057Y-98996114D01*
X81032771Y-98960400D01*
X81068485Y-98888971D01*
X81068485Y-98817542D01*
X81032771Y-98746114D01*
X80997057Y-98710400D01*
X80925628Y-98674685D01*
X80747057Y-98674685D01*
X80639914Y-98710400D01*
X64081742Y-98852485D02*
X63617457Y-98852485D01*
X63867457Y-99138200D01*
X63760314Y-99138200D01*
X63688885Y-99173914D01*
X63653171Y-99209628D01*
X63617457Y-99281057D01*
X63617457Y-99459628D01*
X63653171Y-99531057D01*
X63688885Y-99566771D01*
X63760314Y-99602485D01*
X63974600Y-99602485D01*
X64046028Y-99566771D01*
X64081742Y-99531057D01*
X62938885Y-98852485D02*
X63296028Y-98852485D01*
X63331742Y-99209628D01*
X63296028Y-99173914D01*
X63224600Y-99138200D01*
X63046028Y-99138200D01*
X62974600Y-99173914D01*
X62938885Y-99209628D01*
X62903171Y-99281057D01*
X62903171Y-99459628D01*
X62938885Y-99531057D01*
X62974600Y-99566771D01*
X63046028Y-99602485D01*
X63224600Y-99602485D01*
X63296028Y-99566771D01*
X63331742Y-99531057D01*
X64107142Y-111400085D02*
X63642857Y-111400085D01*
X63892857Y-111685800D01*
X63785714Y-111685800D01*
X63714285Y-111721514D01*
X63678571Y-111757228D01*
X63642857Y-111828657D01*
X63642857Y-112007228D01*
X63678571Y-112078657D01*
X63714285Y-112114371D01*
X63785714Y-112150085D01*
X64000000Y-112150085D01*
X64071428Y-112114371D01*
X64107142Y-112078657D01*
X63357142Y-111471514D02*
X63321428Y-111435800D01*
X63250000Y-111400085D01*
X63071428Y-111400085D01*
X63000000Y-111435800D01*
X62964285Y-111471514D01*
X62928571Y-111542942D01*
X62928571Y-111614371D01*
X62964285Y-111721514D01*
X63392857Y-112150085D01*
X62928571Y-112150085D01*
X81540314Y-82501971D02*
X80968885Y-82501971D01*
X81254600Y-82787685D02*
X81254600Y-82216257D01*
X66575257Y-122756971D02*
X66468114Y-122792685D01*
X66289542Y-122792685D01*
X66218114Y-122756971D01*
X66182400Y-122721257D01*
X66146685Y-122649828D01*
X66146685Y-122578400D01*
X66182400Y-122506971D01*
X66218114Y-122471257D01*
X66289542Y-122435542D01*
X66432400Y-122399828D01*
X66503828Y-122364114D01*
X66539542Y-122328400D01*
X66575257Y-122256971D01*
X66575257Y-122185542D01*
X66539542Y-122114114D01*
X66503828Y-122078400D01*
X66432400Y-122042685D01*
X66253828Y-122042685D01*
X66146685Y-122078400D01*
X65896685Y-122042685D02*
X65718114Y-122792685D01*
X65575257Y-122256971D01*
X65432400Y-122792685D01*
X65253828Y-122042685D01*
X64968114Y-122792685D02*
X64968114Y-122042685D01*
X64789542Y-122042685D01*
X64682400Y-122078400D01*
X64610971Y-122149828D01*
X64575257Y-122221257D01*
X64539542Y-122364114D01*
X64539542Y-122471257D01*
X64575257Y-122614114D01*
X64610971Y-122685542D01*
X64682400Y-122756971D01*
X64789542Y-122792685D01*
X64968114Y-122792685D01*
X78473228Y-98659600D02*
X78544657Y-98623885D01*
X78651800Y-98623885D01*
X78758942Y-98659600D01*
X78830371Y-98731028D01*
X78866085Y-98802457D01*
X78901800Y-98945314D01*
X78901800Y-99052457D01*
X78866085Y-99195314D01*
X78830371Y-99266742D01*
X78758942Y-99338171D01*
X78651800Y-99373885D01*
X78580371Y-99373885D01*
X78473228Y-99338171D01*
X78437514Y-99302457D01*
X78437514Y-99052457D01*
X78580371Y-99052457D01*
X78116085Y-99373885D02*
X78116085Y-98623885D01*
X77687514Y-99373885D01*
X77687514Y-98623885D01*
X77330371Y-99373885D02*
X77330371Y-98623885D01*
X77151800Y-98623885D01*
X77044657Y-98659600D01*
X76973228Y-98731028D01*
X76937514Y-98802457D01*
X76901800Y-98945314D01*
X76901800Y-99052457D01*
X76937514Y-99195314D01*
X76973228Y-99266742D01*
X77044657Y-99338171D01*
X77151800Y-99373885D01*
X77330371Y-99373885D01*
X79032028Y-93437514D02*
X78996314Y-93401800D01*
X78924885Y-93366085D01*
X78746314Y-93366085D01*
X78674885Y-93401800D01*
X78639171Y-93437514D01*
X78603457Y-93508942D01*
X78603457Y-93580371D01*
X78639171Y-93687514D01*
X79067742Y-94116085D01*
X78603457Y-94116085D01*
X77924885Y-93366085D02*
X78282028Y-93366085D01*
X78317742Y-93723228D01*
X78282028Y-93687514D01*
X78210600Y-93651800D01*
X78032028Y-93651800D01*
X77960600Y-93687514D01*
X77924885Y-93723228D01*
X77889171Y-93794657D01*
X77889171Y-93973228D01*
X77924885Y-94044657D01*
X77960600Y-94080371D01*
X78032028Y-94116085D01*
X78210600Y-94116085D01*
X78282028Y-94080371D01*
X78317742Y-94044657D01*
X63785714Y-92738171D02*
X63214285Y-92738171D01*
X78970914Y-114425000D02*
X78613771Y-114425000D01*
X79042342Y-114639285D02*
X78792342Y-113889285D01*
X78542342Y-114639285D01*
X78328057Y-113960714D02*
X78292342Y-113925000D01*
X78220914Y-113889285D01*
X78042342Y-113889285D01*
X77970914Y-113925000D01*
X77935200Y-113960714D01*
X77899485Y-114032142D01*
X77899485Y-114103571D01*
X77935200Y-114210714D01*
X78363771Y-114639285D01*
X77899485Y-114639285D01*
D11*
X77642571Y-79043571D02*
X77535428Y-79079285D01*
X77356857Y-79079285D01*
X77285428Y-79043571D01*
X77249714Y-79007857D01*
X77214000Y-78936428D01*
X77214000Y-78865000D01*
X77249714Y-78793571D01*
X77285428Y-78757857D01*
X77356857Y-78722142D01*
X77499714Y-78686428D01*
X77571142Y-78650714D01*
X77606857Y-78615000D01*
X77642571Y-78543571D01*
X77642571Y-78472142D01*
X77606857Y-78400714D01*
X77571142Y-78365000D01*
X77499714Y-78329285D01*
X77321142Y-78329285D01*
X77214000Y-78365000D01*
X76785428Y-79079285D02*
X76856857Y-79043571D01*
X76892571Y-79007857D01*
X76928285Y-78936428D01*
X76928285Y-78722142D01*
X76892571Y-78650714D01*
X76856857Y-78615000D01*
X76785428Y-78579285D01*
X76678285Y-78579285D01*
X76606857Y-78615000D01*
X76571142Y-78650714D01*
X76535428Y-78722142D01*
X76535428Y-78936428D01*
X76571142Y-79007857D01*
X76606857Y-79043571D01*
X76678285Y-79079285D01*
X76785428Y-79079285D01*
D10*
X81532771Y-116608628D02*
X81425628Y-116644342D01*
X81389914Y-116680057D01*
X81354200Y-116751485D01*
X81354200Y-116858628D01*
X81389914Y-116930057D01*
X81425628Y-116965771D01*
X81497057Y-117001485D01*
X81782771Y-117001485D01*
X81782771Y-116251485D01*
X81532771Y-116251485D01*
X81461342Y-116287200D01*
X81425628Y-116322914D01*
X81389914Y-116394342D01*
X81389914Y-116465771D01*
X81425628Y-116537200D01*
X81461342Y-116572914D01*
X81532771Y-116608628D01*
X81782771Y-116608628D01*
X80639914Y-117001485D02*
X81068485Y-117001485D01*
X80854200Y-117001485D02*
X80854200Y-116251485D01*
X80925628Y-116358628D01*
X80997057Y-116430057D01*
X81068485Y-116465771D01*
X78963371Y-104295171D02*
X78927657Y-104259457D01*
X78856228Y-104223742D01*
X78713371Y-104295171D01*
X78641942Y-104259457D01*
X78606228Y-104223742D01*
X78177657Y-103830885D02*
X78106228Y-103830885D01*
X78034800Y-103866600D01*
X77999085Y-103902314D01*
X77963371Y-103973742D01*
X77927657Y-104116600D01*
X77927657Y-104295171D01*
X77963371Y-104438028D01*
X77999085Y-104509457D01*
X78034800Y-104545171D01*
X78106228Y-104580885D01*
X78177657Y-104580885D01*
X78249085Y-104545171D01*
X78284800Y-104509457D01*
X78320514Y-104438028D01*
X78356228Y-104295171D01*
X78356228Y-104116600D01*
X78320514Y-103973742D01*
X78284800Y-103902314D01*
X78249085Y-103866600D01*
X78177657Y-103830885D01*
X63790485Y-88790085D02*
X63790485Y-89290085D01*
X63969057Y-88504371D02*
X64147628Y-89040085D01*
X63683342Y-89040085D01*
X63076200Y-88540085D02*
X63219057Y-88540085D01*
X63290485Y-88575800D01*
X63326200Y-88611514D01*
X63397628Y-88718657D01*
X63433342Y-88861514D01*
X63433342Y-89147228D01*
X63397628Y-89218657D01*
X63361914Y-89254371D01*
X63290485Y-89290085D01*
X63147628Y-89290085D01*
X63076200Y-89254371D01*
X63040485Y-89218657D01*
X63004771Y-89147228D01*
X63004771Y-88968657D01*
X63040485Y-88897228D01*
X63076200Y-88861514D01*
X63147628Y-88825800D01*
X63290485Y-88825800D01*
X63361914Y-88861514D01*
X63397628Y-88897228D01*
X63433342Y-88968657D01*
X63953057Y-122756971D02*
X63845914Y-122792685D01*
X63667342Y-122792685D01*
X63595914Y-122756971D01*
X63560200Y-122721257D01*
X63524485Y-122649828D01*
X63524485Y-122578400D01*
X63560200Y-122506971D01*
X63595914Y-122471257D01*
X63667342Y-122435542D01*
X63810200Y-122399828D01*
X63881628Y-122364114D01*
X63917342Y-122328400D01*
X63953057Y-122256971D01*
X63953057Y-122185542D01*
X63917342Y-122114114D01*
X63881628Y-122078400D01*
X63810200Y-122042685D01*
X63631628Y-122042685D01*
X63524485Y-122078400D01*
X63274485Y-122042685D02*
X63095914Y-122792685D01*
X62953057Y-122256971D01*
X62810200Y-122792685D01*
X62631628Y-122042685D01*
X61917342Y-122721257D02*
X61953057Y-122756971D01*
X62060200Y-122792685D01*
X62131628Y-122792685D01*
X62238771Y-122756971D01*
X62310200Y-122685542D01*
X62345914Y-122614114D01*
X62381628Y-122471257D01*
X62381628Y-122364114D01*
X62345914Y-122221257D01*
X62310200Y-122149828D01*
X62238771Y-122078400D01*
X62131628Y-122042685D01*
X62060200Y-122042685D01*
X61953057Y-122078400D01*
X61917342Y-122114114D01*
X61595914Y-122792685D02*
X61595914Y-122042685D01*
X61167342Y-122792685D02*
X61488771Y-122364114D01*
X61167342Y-122042685D02*
X61595914Y-122471257D01*
X63785714Y-115572771D02*
X63214285Y-115572771D01*
X63623000Y-83409285D02*
X63158714Y-83409285D01*
X63408714Y-83695000D01*
X63301571Y-83695000D01*
X63230142Y-83730714D01*
X63194428Y-83766428D01*
X63158714Y-83837857D01*
X63158714Y-84016428D01*
X63194428Y-84087857D01*
X63230142Y-84123571D01*
X63301571Y-84159285D01*
X63515857Y-84159285D01*
X63587285Y-84123571D01*
X63623000Y-84087857D01*
X66686085Y-106747885D02*
X66686085Y-107247885D01*
X66864657Y-106462171D02*
X67043228Y-106997885D01*
X66578942Y-106997885D01*
X66364657Y-106497885D02*
X65900371Y-106497885D01*
X66150371Y-106783600D01*
X66043228Y-106783600D01*
X65971800Y-106819314D01*
X65936085Y-106855028D01*
X65900371Y-106926457D01*
X65900371Y-107105028D01*
X65936085Y-107176457D01*
X65971800Y-107212171D01*
X66043228Y-107247885D01*
X66257514Y-107247885D01*
X66328942Y-107212171D01*
X66364657Y-107176457D01*
X79148714Y-111910400D02*
X78791571Y-111910400D01*
X79220142Y-112124685D02*
X78970142Y-111374685D01*
X78720142Y-112124685D01*
X78541571Y-111374685D02*
X78077285Y-111374685D01*
X78327285Y-111660400D01*
X78220142Y-111660400D01*
X78148714Y-111696114D01*
X78113000Y-111731828D01*
X78077285Y-111803257D01*
X78077285Y-111981828D01*
X78113000Y-112053257D01*
X78148714Y-112088971D01*
X78220142Y-112124685D01*
X78434428Y-112124685D01*
X78505857Y-112088971D01*
X78541571Y-112053257D01*
D12*
X70349533Y-88946566D02*
X70349533Y-89666233D01*
X70307200Y-89750900D01*
X70264866Y-89793233D01*
X70180200Y-89835566D01*
X70010866Y-89835566D01*
X69926200Y-89793233D01*
X69883866Y-89750900D01*
X69841533Y-89666233D01*
X69841533Y-88946566D01*
X69291200Y-89327566D02*
X69375866Y-89285233D01*
X69418200Y-89242900D01*
X69460533Y-89158233D01*
X69460533Y-89115900D01*
X69418200Y-89031233D01*
X69375866Y-88988900D01*
X69291200Y-88946566D01*
X69121866Y-88946566D01*
X69037200Y-88988900D01*
X68994866Y-89031233D01*
X68952533Y-89115900D01*
X68952533Y-89158233D01*
X68994866Y-89242900D01*
X69037200Y-89285233D01*
X69121866Y-89327566D01*
X69291200Y-89327566D01*
X69375866Y-89369900D01*
X69418200Y-89412233D01*
X69460533Y-89496900D01*
X69460533Y-89666233D01*
X69418200Y-89750900D01*
X69375866Y-89793233D01*
X69291200Y-89835566D01*
X69121866Y-89835566D01*
X69037200Y-89793233D01*
X68994866Y-89750900D01*
X68952533Y-89666233D01*
X68952533Y-89496900D01*
X68994866Y-89412233D01*
X69037200Y-89369900D01*
X69121866Y-89327566D01*
X72610133Y-125979766D02*
X72610133Y-126699433D01*
X72567800Y-126784100D01*
X72525466Y-126826433D01*
X72440800Y-126868766D01*
X72271466Y-126868766D01*
X72186800Y-126826433D01*
X72144466Y-126784100D01*
X72102133Y-126699433D01*
X72102133Y-125979766D01*
X71721133Y-126064433D02*
X71678800Y-126022100D01*
X71594133Y-125979766D01*
X71382466Y-125979766D01*
X71297800Y-126022100D01*
X71255466Y-126064433D01*
X71213133Y-126149100D01*
X71213133Y-126233766D01*
X71255466Y-126360766D01*
X71763466Y-126868766D01*
X71213133Y-126868766D01*
X76496333Y-88717966D02*
X76496333Y-89437633D01*
X76454000Y-89522300D01*
X76411666Y-89564633D01*
X76327000Y-89606966D01*
X76157666Y-89606966D01*
X76073000Y-89564633D01*
X76030666Y-89522300D01*
X75988333Y-89437633D01*
X75988333Y-88717966D01*
X75141666Y-88717966D02*
X75565000Y-88717966D01*
X75607333Y-89141300D01*
X75565000Y-89098966D01*
X75480333Y-89056633D01*
X75268666Y-89056633D01*
X75184000Y-89098966D01*
X75141666Y-89141300D01*
X75099333Y-89225966D01*
X75099333Y-89437633D01*
X75141666Y-89522300D01*
X75184000Y-89564633D01*
X75268666Y-89606966D01*
X75480333Y-89606966D01*
X75565000Y-89564633D01*
X75607333Y-89522300D01*
X73583800Y-98734033D02*
X73456800Y-98776366D01*
X73245133Y-98776366D01*
X73160466Y-98734033D01*
X73118133Y-98691700D01*
X73075800Y-98607033D01*
X73075800Y-98522366D01*
X73118133Y-98437700D01*
X73160466Y-98395366D01*
X73245133Y-98353033D01*
X73414466Y-98310700D01*
X73499133Y-98268366D01*
X73541466Y-98226033D01*
X73583800Y-98141366D01*
X73583800Y-98056700D01*
X73541466Y-97972033D01*
X73499133Y-97929700D01*
X73414466Y-97887366D01*
X73202800Y-97887366D01*
X73075800Y-97929700D01*
X72440800Y-97887366D02*
X72440800Y-98522366D01*
X72483133Y-98649366D01*
X72567800Y-98734033D01*
X72694800Y-98776366D01*
X72779466Y-98776366D01*
X71636466Y-98183700D02*
X71636466Y-98776366D01*
X71848133Y-97845033D02*
X72059800Y-98480033D01*
X71509466Y-98480033D01*
D10*
X77064600Y-120087959D02*
X77064600Y-120395241D01*
X77824600Y-120087959D02*
X77824600Y-120395241D01*
X73127600Y-79754759D02*
X73127600Y-80062041D01*
X73887600Y-79754759D02*
X73887600Y-80062041D01*
X66137200Y-87788636D02*
X66137200Y-87572964D01*
X66857200Y-87788636D02*
X66857200Y-87572964D01*
X72411000Y-116541436D02*
X72411000Y-116325764D01*
X73131000Y-116541436D02*
X73131000Y-116325764D01*
X78459500Y-101949364D02*
X78459500Y-102165036D01*
X77739500Y-101949364D02*
X77739500Y-102165036D01*
X77753800Y-110509164D02*
X77753800Y-110724836D01*
X77033800Y-110509164D02*
X77033800Y-110724836D01*
X66998000Y-86799000D02*
X67258000Y-86799000D01*
X72448000Y-84074000D02*
X72448000Y-86799000D01*
X67258000Y-81349000D02*
X67258000Y-79674000D01*
X72448000Y-81349000D02*
X72188000Y-81349000D01*
X66998000Y-81349000D02*
X67258000Y-81349000D01*
X72448000Y-84074000D02*
X72448000Y-81349000D01*
X66998000Y-84074000D02*
X66998000Y-86799000D01*
X72448000Y-86799000D02*
X72188000Y-86799000D01*
X66998000Y-84074000D02*
X66998000Y-81349000D01*
X72059800Y-125381600D02*
X74784800Y-125381600D01*
X72059800Y-119931600D02*
X74784800Y-119931600D01*
X69334800Y-119931600D02*
X69334800Y-120191600D01*
X69334800Y-125381600D02*
X69334800Y-125121600D01*
X72059800Y-119931600D02*
X69334800Y-119931600D01*
X74784800Y-120191600D02*
X76459800Y-120191600D01*
X74784800Y-125381600D02*
X74784800Y-125121600D01*
X74784800Y-119931600D02*
X74784800Y-120191600D01*
X72059800Y-125381600D02*
X69334800Y-125381600D01*
X66823000Y-93910036D02*
X66823000Y-93694364D01*
X67543000Y-93910036D02*
X67543000Y-93694364D01*
X73234436Y-88540000D02*
X73018764Y-88540000D01*
X73234436Y-89260000D02*
X73018764Y-89260000D01*
X70226600Y-99790364D02*
X70226600Y-100006036D01*
X70946600Y-99790364D02*
X70946600Y-100006036D01*
X72690400Y-102025564D02*
X72690400Y-102241236D01*
X73410400Y-102025564D02*
X73410400Y-102241236D01*
X72878000Y-84795000D02*
X72878000Y-86745000D01*
X72878000Y-84795000D02*
X72878000Y-81345000D01*
X77998000Y-84795000D02*
X77998000Y-82845000D01*
X77998000Y-84795000D02*
X77998000Y-86745000D01*
X65934000Y-93910036D02*
X65934000Y-93694364D01*
X66654000Y-93910036D02*
X66654000Y-93694364D01*
G36*
X71057275Y-97032101D02*
G01*
X71045652Y-97085135D01*
X71023643Y-97130630D01*
X70991468Y-97168254D01*
X70949348Y-97197678D01*
X70897506Y-97218571D01*
X70878397Y-97222173D01*
X70847092Y-97224612D01*
X70809685Y-97225220D01*
X70769813Y-97224109D01*
X70731111Y-97221391D01*
X70697216Y-97217179D01*
X70671764Y-97211586D01*
X70657830Y-97207003D01*
X70643296Y-97201496D01*
X70637659Y-97198267D01*
X70638363Y-97193620D01*
X70641030Y-97179063D01*
X70645020Y-97158302D01*
X70649619Y-97135035D01*
X70654114Y-97112958D01*
X70654299Y-97112080D01*
X70656693Y-97104987D01*
X70662028Y-97102205D01*
X70673528Y-97103337D01*
X70694416Y-97107984D01*
X70710210Y-97111165D01*
X70750128Y-97115604D01*
X70791127Y-97116030D01*
X70828702Y-97112522D01*
X70858350Y-97105156D01*
X70878101Y-97094361D01*
X70897530Y-97077451D01*
X70911584Y-97058631D01*
X70916994Y-97041450D01*
X70916514Y-97040047D01*
X70911659Y-97037451D01*
X70900489Y-97035417D01*
X70881670Y-97033850D01*
X70853866Y-97032661D01*
X70815740Y-97031755D01*
X70765959Y-97031043D01*
X70614923Y-97029299D01*
X70612781Y-96990322D01*
X70612469Y-96963261D01*
X70616152Y-96935104D01*
X70746686Y-96935104D01*
X70831840Y-96935104D01*
X70859463Y-96935034D01*
X70885633Y-96934577D01*
X70902424Y-96933442D01*
X70911883Y-96931339D01*
X70916058Y-96927979D01*
X70916994Y-96923073D01*
X70913889Y-96908619D01*
X70901373Y-96887978D01*
X70882295Y-96869626D01*
X70859941Y-96857351D01*
X70840438Y-96851760D01*
X70824857Y-96851752D01*
X70805524Y-96857351D01*
X70787304Y-96865978D01*
X70764126Y-96887528D01*
X70750931Y-96917240D01*
X70746686Y-96935104D01*
X70616152Y-96935104D01*
X70619497Y-96909529D01*
X70636390Y-96861724D01*
X70662446Y-96821093D01*
X70696960Y-96788880D01*
X70739228Y-96766334D01*
X70751365Y-96762297D01*
X70795784Y-96754195D01*
X70843813Y-96753703D01*
X70890594Y-96760610D01*
X70931270Y-96774703D01*
X70962840Y-96793557D01*
X71001174Y-96828662D01*
X71030496Y-96872008D01*
X71049945Y-96922220D01*
X71050078Y-96923073D01*
X71058659Y-96977923D01*
X71057275Y-97032101D01*
G37*
G36*
X73128896Y-97012477D02*
G01*
X73128328Y-97039980D01*
X73126569Y-97060043D01*
X73122964Y-97076299D01*
X73116855Y-97092381D01*
X73107587Y-97111920D01*
X73097992Y-97129501D01*
X73069764Y-97167538D01*
X73036299Y-97197602D01*
X73000157Y-97217182D01*
X72982963Y-97221858D01*
X72948986Y-97225523D01*
X72912012Y-97224538D01*
X72877174Y-97219163D01*
X72849603Y-97209652D01*
X72844592Y-97206914D01*
X72824083Y-97193331D01*
X72807870Y-97179343D01*
X72795903Y-97167729D01*
X72786942Y-97163915D01*
X72782556Y-97171696D01*
X72781393Y-97191703D01*
X72781393Y-97220936D01*
X72643164Y-97220936D01*
X72647261Y-97186831D01*
X72648005Y-97175552D01*
X72648792Y-97151857D01*
X72649509Y-97117924D01*
X72650138Y-97075213D01*
X72650661Y-97025184D01*
X72650923Y-96988375D01*
X72800906Y-96988375D01*
X72801458Y-97012224D01*
X72805537Y-97046534D01*
X72814328Y-97071441D01*
X72828703Y-97088971D01*
X72849537Y-97101148D01*
X72874072Y-97108656D01*
X72903580Y-97108257D01*
X72931469Y-97095832D01*
X72949407Y-97080506D01*
X72969135Y-97050630D01*
X72979951Y-97014476D01*
X72981247Y-96974461D01*
X72972416Y-96933002D01*
X72962340Y-96911251D01*
X72940856Y-96886425D01*
X72913542Y-96871573D01*
X72882538Y-96867698D01*
X72849989Y-96875799D01*
X72849075Y-96876206D01*
X72828894Y-96887580D01*
X72815046Y-96902052D01*
X72806472Y-96922055D01*
X72802112Y-96950019D01*
X72800906Y-96988375D01*
X72650923Y-96988375D01*
X72651059Y-96969296D01*
X72651316Y-96909009D01*
X72651414Y-96845782D01*
X72651470Y-96538838D01*
X72800882Y-96538838D01*
X72800882Y-96669226D01*
X72800887Y-96685697D01*
X72801000Y-96725717D01*
X72801371Y-96754773D01*
X72802141Y-96774375D01*
X72803452Y-96786033D01*
X72805445Y-96791258D01*
X72808261Y-96791562D01*
X72812041Y-96788454D01*
X72812954Y-96787558D01*
X72838987Y-96770298D01*
X72873305Y-96758802D01*
X72912471Y-96753544D01*
X72953046Y-96755000D01*
X72991592Y-96763645D01*
X72992369Y-96763913D01*
X73026132Y-96781261D01*
X73059162Y-96808142D01*
X73088219Y-96841428D01*
X73110066Y-96877994D01*
X73112465Y-96883238D01*
X73119983Y-96901258D01*
X73124794Y-96917664D01*
X73127493Y-96936108D01*
X73128676Y-96960238D01*
X73128787Y-96974461D01*
X73128938Y-96993707D01*
X73128896Y-97012477D01*
G37*
G36*
X74142953Y-97032101D02*
G01*
X74131330Y-97085135D01*
X74109320Y-97130630D01*
X74077145Y-97168254D01*
X74035026Y-97197678D01*
X73983184Y-97218571D01*
X73964075Y-97222173D01*
X73932769Y-97224612D01*
X73895363Y-97225220D01*
X73855490Y-97224109D01*
X73816789Y-97221391D01*
X73782894Y-97217179D01*
X73757442Y-97211586D01*
X73743508Y-97207003D01*
X73728974Y-97201496D01*
X73723337Y-97198267D01*
X73724041Y-97193620D01*
X73726708Y-97179063D01*
X73730697Y-97158302D01*
X73735296Y-97135035D01*
X73739792Y-97112958D01*
X73739976Y-97112080D01*
X73742371Y-97104987D01*
X73747706Y-97102205D01*
X73759205Y-97103337D01*
X73780093Y-97107984D01*
X73795888Y-97111165D01*
X73835806Y-97115604D01*
X73876805Y-97116030D01*
X73914380Y-97112522D01*
X73944028Y-97105156D01*
X73963779Y-97094361D01*
X73983208Y-97077451D01*
X73997261Y-97058631D01*
X74002672Y-97041450D01*
X74002191Y-97040047D01*
X73997336Y-97037451D01*
X73986167Y-97035417D01*
X73967348Y-97033850D01*
X73939543Y-97032661D01*
X73901418Y-97031755D01*
X73851636Y-97031043D01*
X73700601Y-97029299D01*
X73698459Y-96990322D01*
X73698147Y-96963261D01*
X73701830Y-96935104D01*
X73832363Y-96935104D01*
X73917518Y-96935104D01*
X73945141Y-96935034D01*
X73971311Y-96934577D01*
X73988102Y-96933442D01*
X73997561Y-96931339D01*
X74001736Y-96927979D01*
X74002672Y-96923073D01*
X73999567Y-96908619D01*
X73987050Y-96887978D01*
X73967973Y-96869626D01*
X73945619Y-96857351D01*
X73926116Y-96851760D01*
X73910534Y-96851752D01*
X73891202Y-96857351D01*
X73872982Y-96865978D01*
X73849804Y-96887528D01*
X73836609Y-96917240D01*
X73832363Y-96935104D01*
X73701830Y-96935104D01*
X73705175Y-96909529D01*
X73722068Y-96861724D01*
X73748124Y-96821093D01*
X73782637Y-96788880D01*
X73824906Y-96766334D01*
X73837043Y-96762297D01*
X73881462Y-96754195D01*
X73929491Y-96753703D01*
X73976271Y-96760610D01*
X74016948Y-96774703D01*
X74048518Y-96793557D01*
X74086851Y-96828662D01*
X74116174Y-96872008D01*
X74135623Y-96922220D01*
X74135756Y-96923073D01*
X74144336Y-96977923D01*
X74142953Y-97032101D01*
G37*
G36*
X72567020Y-97019555D02*
G01*
X72313670Y-97019555D01*
X72313670Y-96922112D01*
X72567020Y-96922112D01*
X72567020Y-97019555D01*
G37*
G36*
X74593823Y-97220936D02*
G01*
X74191061Y-97220936D01*
X74191061Y-97097509D01*
X74444411Y-97097509D01*
X74444411Y-96571319D01*
X74593823Y-96571319D01*
X74593823Y-97220936D01*
G37*
G36*
X71563976Y-97032101D02*
G01*
X71552353Y-97085135D01*
X71530344Y-97130630D01*
X71498169Y-97168254D01*
X71456049Y-97197678D01*
X71404207Y-97218571D01*
X71385098Y-97222173D01*
X71353792Y-97224612D01*
X71316386Y-97225220D01*
X71276513Y-97224109D01*
X71237812Y-97221391D01*
X71203917Y-97217179D01*
X71178465Y-97211586D01*
X71164531Y-97207003D01*
X71149997Y-97201496D01*
X71144360Y-97198267D01*
X71145064Y-97193620D01*
X71147731Y-97179063D01*
X71151720Y-97158302D01*
X71156320Y-97135035D01*
X71160815Y-97112958D01*
X71160999Y-97112080D01*
X71163394Y-97104987D01*
X71168729Y-97102205D01*
X71180228Y-97103337D01*
X71201116Y-97107984D01*
X71216911Y-97111165D01*
X71256829Y-97115604D01*
X71297828Y-97116030D01*
X71335403Y-97112522D01*
X71365051Y-97105156D01*
X71384802Y-97094361D01*
X71404231Y-97077451D01*
X71418284Y-97058631D01*
X71423695Y-97041450D01*
X71423214Y-97040047D01*
X71418359Y-97037451D01*
X71407190Y-97035417D01*
X71388371Y-97033850D01*
X71360566Y-97032661D01*
X71322441Y-97031755D01*
X71272659Y-97031043D01*
X71121624Y-97029299D01*
X71119482Y-96990322D01*
X71119170Y-96963261D01*
X71122853Y-96935104D01*
X71253387Y-96935104D01*
X71338541Y-96935104D01*
X71366164Y-96935034D01*
X71392334Y-96934577D01*
X71409125Y-96933442D01*
X71418584Y-96931339D01*
X71422759Y-96927979D01*
X71423695Y-96923073D01*
X71420590Y-96908619D01*
X71408073Y-96887978D01*
X71388996Y-96869626D01*
X71366642Y-96857351D01*
X71347139Y-96851760D01*
X71331557Y-96851752D01*
X71312225Y-96857351D01*
X71294005Y-96865978D01*
X71270827Y-96887528D01*
X71257632Y-96917240D01*
X71253387Y-96935104D01*
X71122853Y-96935104D01*
X71126198Y-96909529D01*
X71143091Y-96861724D01*
X71169147Y-96821093D01*
X71203660Y-96788880D01*
X71245929Y-96766334D01*
X71258066Y-96762297D01*
X71302485Y-96754195D01*
X71350514Y-96753703D01*
X71397294Y-96760610D01*
X71437971Y-96774703D01*
X71469541Y-96793557D01*
X71507874Y-96828662D01*
X71537197Y-96872008D01*
X71556646Y-96922220D01*
X71556779Y-96923073D01*
X71565359Y-96977923D01*
X71563976Y-97032101D01*
G37*
G36*
X68378268Y-94454889D02*
G01*
X68432439Y-94455256D01*
X68483057Y-94455900D01*
X68528549Y-94456830D01*
X68567343Y-94458056D01*
X68597864Y-94459589D01*
X68773886Y-94474870D01*
X68945365Y-94497967D01*
X69106745Y-94528590D01*
X69258337Y-94566829D01*
X69400452Y-94612774D01*
X69533403Y-94666513D01*
X69657500Y-94728138D01*
X69773057Y-94797737D01*
X69843268Y-94846930D01*
X69946651Y-94931348D01*
X70039511Y-95023234D01*
X70122120Y-95122897D01*
X70194751Y-95230647D01*
X70257678Y-95346792D01*
X70263266Y-95358459D01*
X70277097Y-95388248D01*
X70288217Y-95413513D01*
X70295605Y-95431883D01*
X70298238Y-95440987D01*
X70299998Y-95450493D01*
X70305058Y-95469636D01*
X70312633Y-95495552D01*
X70321937Y-95525437D01*
X70342120Y-95594444D01*
X70368231Y-95709391D01*
X70387856Y-95833740D01*
X70401091Y-95968165D01*
X70408036Y-96113340D01*
X70409266Y-96169308D01*
X70409709Y-96220081D01*
X70408939Y-96261295D01*
X70406686Y-96294741D01*
X70402682Y-96322207D01*
X70396659Y-96345483D01*
X70388349Y-96366357D01*
X70377481Y-96386618D01*
X70363789Y-96408056D01*
X70354195Y-96422175D01*
X70340503Y-96441015D01*
X70330927Y-96451350D01*
X70323733Y-96454861D01*
X70317186Y-96453231D01*
X70310174Y-96448818D01*
X70290020Y-96431733D01*
X70267099Y-96407869D01*
X70244089Y-96380343D01*
X70223668Y-96352270D01*
X70208514Y-96326767D01*
X70186176Y-96282240D01*
X70185792Y-96087355D01*
X70185738Y-96065643D01*
X70185393Y-96007638D01*
X70184615Y-95960261D01*
X70183199Y-95921736D01*
X70180936Y-95890283D01*
X70177622Y-95864126D01*
X70173048Y-95841486D01*
X70167008Y-95820586D01*
X70159296Y-95799649D01*
X70149704Y-95776896D01*
X70135972Y-95747339D01*
X70119414Y-95714823D01*
X70102069Y-95683187D01*
X70085492Y-95655160D01*
X70071238Y-95633475D01*
X70060861Y-95620862D01*
X70059230Y-95619464D01*
X70055953Y-95617815D01*
X70053253Y-95619535D01*
X70050929Y-95625993D01*
X70048780Y-95638563D01*
X70046606Y-95658613D01*
X70044204Y-95687516D01*
X70041374Y-95726643D01*
X70037914Y-95777364D01*
X70035557Y-95813228D01*
X70032701Y-95859321D01*
X70030279Y-95901481D01*
X70028412Y-95937450D01*
X70027224Y-95964973D01*
X70026836Y-95981792D01*
X70026405Y-95998008D01*
X70024620Y-96013257D01*
X70021896Y-96019145D01*
X70015534Y-96014365D01*
X70005346Y-96000254D01*
X69993235Y-95979643D01*
X69980763Y-95955398D01*
X69969493Y-95930384D01*
X69960987Y-95907466D01*
X69957378Y-95894614D01*
X69953253Y-95874390D01*
X69949839Y-95849174D01*
X69946927Y-95816965D01*
X69944307Y-95775763D01*
X69941770Y-95723570D01*
X69941174Y-95710338D01*
X69937947Y-95650514D01*
X69934129Y-95601289D01*
X69929381Y-95560665D01*
X69923363Y-95526646D01*
X69915735Y-95497232D01*
X69906159Y-95470428D01*
X69894295Y-95444235D01*
X69892166Y-95440106D01*
X69879311Y-95419044D01*
X69862754Y-95396059D01*
X69844349Y-95373248D01*
X69825954Y-95352707D01*
X69809422Y-95336533D01*
X69796611Y-95326823D01*
X69789374Y-95325674D01*
X69788923Y-95327030D01*
X69787394Y-95338878D01*
X69785441Y-95361459D01*
X69783175Y-95393152D01*
X69780707Y-95432335D01*
X69778148Y-95477386D01*
X69775609Y-95526684D01*
X69774635Y-95546368D01*
X69772183Y-95594046D01*
X69769858Y-95636755D01*
X69767756Y-95672892D01*
X69765971Y-95700857D01*
X69764601Y-95719047D01*
X69763739Y-95725861D01*
X69756303Y-95725349D01*
X69741111Y-95719273D01*
X69721293Y-95709272D01*
X69699946Y-95697020D01*
X69680165Y-95684193D01*
X69665048Y-95672466D01*
X69650080Y-95657522D01*
X69630599Y-95631960D01*
X69614217Y-95601245D01*
X69600388Y-95563809D01*
X69588568Y-95518087D01*
X69578213Y-95462510D01*
X69568777Y-95395514D01*
X69565273Y-95369495D01*
X69557626Y-95322557D01*
X69549084Y-95280577D01*
X69540078Y-95245149D01*
X69531037Y-95217870D01*
X69522390Y-95200333D01*
X69514566Y-95194133D01*
X69514415Y-95194135D01*
X69512145Y-95195225D01*
X69509955Y-95199256D01*
X69507594Y-95207648D01*
X69504811Y-95221822D01*
X69501355Y-95243197D01*
X69496976Y-95273196D01*
X69491423Y-95313237D01*
X69484445Y-95364742D01*
X69479818Y-95397828D01*
X69474618Y-95432206D01*
X69469905Y-95460516D01*
X69466062Y-95480484D01*
X69463470Y-95489837D01*
X69461506Y-95492566D01*
X69455407Y-95494427D01*
X69444449Y-95490166D01*
X69425842Y-95478979D01*
X69399154Y-95462071D01*
X69355327Y-95434717D01*
X69306149Y-95404406D01*
X69253112Y-95372027D01*
X69197706Y-95338472D01*
X69141423Y-95304628D01*
X69085754Y-95271387D01*
X69032191Y-95239636D01*
X68982224Y-95210266D01*
X68937346Y-95184167D01*
X68899047Y-95162227D01*
X68868818Y-95145337D01*
X68848151Y-95134386D01*
X68844571Y-95132610D01*
X68835496Y-95128373D01*
X68830881Y-95127024D01*
X68831535Y-95129314D01*
X68838267Y-95135993D01*
X68851887Y-95147814D01*
X68873203Y-95165525D01*
X68903025Y-95189878D01*
X68942161Y-95221624D01*
X68943774Y-95222932D01*
X68969909Y-95244700D01*
X68998366Y-95269494D01*
X69029979Y-95298109D01*
X69065578Y-95331340D01*
X69105997Y-95369983D01*
X69152068Y-95414834D01*
X69204623Y-95466687D01*
X69264495Y-95526337D01*
X69332516Y-95594580D01*
X69380981Y-95643387D01*
X69434903Y-95697802D01*
X69487638Y-95751133D01*
X69538044Y-95802220D01*
X69584982Y-95849903D01*
X69627309Y-95893023D01*
X69663885Y-95930422D01*
X69693568Y-95960940D01*
X69715219Y-95983416D01*
X69748440Y-96018363D01*
X69851874Y-96129444D01*
X69945819Y-96234251D01*
X70031041Y-96333858D01*
X70108305Y-96429340D01*
X70178375Y-96521771D01*
X70242017Y-96612225D01*
X70299995Y-96701777D01*
X70353075Y-96791501D01*
X70402021Y-96882472D01*
X70447599Y-96975765D01*
X70490573Y-97072453D01*
X70494134Y-97080867D01*
X70512083Y-97124753D01*
X70524527Y-97159096D01*
X70531680Y-97185701D01*
X70533754Y-97206371D01*
X70530962Y-97222912D01*
X70523518Y-97237126D01*
X70511634Y-97250818D01*
X70504313Y-97257699D01*
X70490261Y-97268593D01*
X70480777Y-97272876D01*
X70480328Y-97272795D01*
X70473666Y-97266069D01*
X70462931Y-97250102D01*
X70449507Y-97227109D01*
X70434777Y-97199303D01*
X70429516Y-97189097D01*
X70410483Y-97153901D01*
X70385984Y-97110387D01*
X70357175Y-97060474D01*
X70325213Y-97006080D01*
X70291254Y-96949122D01*
X70256454Y-96891520D01*
X70221970Y-96835192D01*
X70188957Y-96782055D01*
X70158572Y-96734029D01*
X70131970Y-96693031D01*
X70110310Y-96660980D01*
X70098075Y-96643453D01*
X70073916Y-96657395D01*
X70066159Y-96662207D01*
X70046356Y-96675699D01*
X70021997Y-96693288D01*
X69996677Y-96712413D01*
X69972081Y-96730782D01*
X69940032Y-96751810D01*
X69908924Y-96767704D01*
X69876452Y-96779044D01*
X69840312Y-96786413D01*
X69798199Y-96790389D01*
X69747808Y-96791555D01*
X69686834Y-96790491D01*
X69679323Y-96790246D01*
X69561668Y-96780310D01*
X69450118Y-96759004D01*
X69344296Y-96726213D01*
X69243825Y-96681823D01*
X69148330Y-96625718D01*
X69129917Y-96613189D01*
X69080665Y-96576298D01*
X69035260Y-96536393D01*
X68990562Y-96490568D01*
X68943432Y-96435913D01*
X68908967Y-96392720D01*
X68868558Y-96338296D01*
X68829614Y-96281224D01*
X68791749Y-96220675D01*
X68754575Y-96155819D01*
X68717709Y-96085827D01*
X68680762Y-96009871D01*
X68643350Y-95927119D01*
X68605087Y-95836744D01*
X68565586Y-95737915D01*
X68524461Y-95629803D01*
X68481326Y-95511580D01*
X68435796Y-95382415D01*
X68387484Y-95241479D01*
X68377734Y-95212773D01*
X68352951Y-95140690D01*
X68331043Y-95078590D01*
X68311311Y-95024686D01*
X68293056Y-94977189D01*
X68275577Y-94934311D01*
X68258174Y-94894262D01*
X68240149Y-94855255D01*
X68220800Y-94815501D01*
X68214467Y-94802895D01*
X68165763Y-94713805D01*
X68113717Y-94631382D01*
X68059738Y-94557724D01*
X68005238Y-94494930D01*
X67996016Y-94484777D01*
X67986279Y-94470578D01*
X67987124Y-94463377D01*
X67990392Y-94462433D01*
X68005755Y-94460748D01*
X68031722Y-94459252D01*
X68066719Y-94457954D01*
X68109175Y-94456865D01*
X68157515Y-94455995D01*
X68210168Y-94455352D01*
X68265560Y-94454947D01*
X68322117Y-94454789D01*
X68378268Y-94454889D01*
G37*
G36*
X73635866Y-97137112D02*
G01*
X73617039Y-97171341D01*
X73589120Y-97199271D01*
X73552885Y-97218760D01*
X73525141Y-97225259D01*
X73486720Y-97227023D01*
X73447976Y-97222564D01*
X73414769Y-97212162D01*
X73402135Y-97205801D01*
X73384175Y-97195027D01*
X73373373Y-97186241D01*
X73371960Y-97184573D01*
X73361766Y-97176357D01*
X73355298Y-97180244D01*
X73351843Y-97196575D01*
X73349808Y-97217688D01*
X73284747Y-97219522D01*
X73219685Y-97221357D01*
X73221817Y-97060366D01*
X73222234Y-97032121D01*
X73366048Y-97032121D01*
X73366113Y-97037044D01*
X73371571Y-97072283D01*
X73385732Y-97098086D01*
X73408496Y-97114261D01*
X73433419Y-97121394D01*
X73460491Y-97120303D01*
X73481955Y-97108784D01*
X73496128Y-97087352D01*
X73499185Y-97063896D01*
X73490430Y-97042719D01*
X73470842Y-97024919D01*
X73441464Y-97011441D01*
X73403333Y-97003228D01*
X73366048Y-96998569D01*
X73366048Y-97032121D01*
X73222234Y-97032121D01*
X73222252Y-97030871D01*
X73223404Y-96979217D01*
X73225159Y-96937996D01*
X73227819Y-96905489D01*
X73231687Y-96879979D01*
X73237066Y-96859745D01*
X73244258Y-96843069D01*
X73253566Y-96828231D01*
X73265294Y-96813513D01*
X73273670Y-96804868D01*
X73297002Y-96786368D01*
X73321916Y-96771998D01*
X73322146Y-96771894D01*
X73338774Y-96765098D01*
X73354937Y-96760621D01*
X73373997Y-96757999D01*
X73399316Y-96756767D01*
X73434258Y-96756460D01*
X73444393Y-96756487D01*
X73480686Y-96757339D01*
X73509126Y-96759744D01*
X73533846Y-96764190D01*
X73558979Y-96771163D01*
X73562743Y-96772361D01*
X73585127Y-96780145D01*
X73601772Y-96787025D01*
X73609311Y-96791634D01*
X73610073Y-96794272D01*
X73608971Y-96806889D01*
X73604513Y-96825080D01*
X73597963Y-96845200D01*
X73590586Y-96863604D01*
X73583646Y-96876647D01*
X73578409Y-96880687D01*
X73559628Y-96873556D01*
X73522347Y-96863533D01*
X73485153Y-96858185D01*
X73450105Y-96857359D01*
X73419260Y-96860899D01*
X73394680Y-96868651D01*
X73378421Y-96880459D01*
X73372544Y-96896169D01*
X73372557Y-96896740D01*
X73374976Y-96902208D01*
X73383242Y-96905977D01*
X73399736Y-96908697D01*
X73426839Y-96911022D01*
X73462340Y-96914897D01*
X73518429Y-96928014D01*
X73564945Y-96948896D01*
X73601454Y-96977322D01*
X73627519Y-97013071D01*
X73630024Y-97018037D01*
X73643136Y-97058319D01*
X73643369Y-97063896D01*
X73644824Y-97098724D01*
X73635866Y-97137112D01*
G37*
G36*
X75534478Y-93549936D02*
G01*
X75502282Y-93744329D01*
X75457939Y-93936234D01*
X75401540Y-94125092D01*
X75333177Y-94310340D01*
X75252941Y-94491417D01*
X75160923Y-94667763D01*
X75057216Y-94838816D01*
X75053407Y-94844652D01*
X74937807Y-95009737D01*
X74812957Y-95166029D01*
X74679351Y-95313243D01*
X74537484Y-95451095D01*
X74387853Y-95579298D01*
X74230953Y-95697569D01*
X74067280Y-95805621D01*
X73897328Y-95903169D01*
X73721595Y-95989929D01*
X73540574Y-96065615D01*
X73354763Y-96129942D01*
X73164656Y-96182625D01*
X72970749Y-96223379D01*
X72773537Y-96251919D01*
X72573516Y-96267958D01*
X72386819Y-96271320D01*
X72187150Y-96262518D01*
X71988589Y-96241041D01*
X71791817Y-96207052D01*
X71597512Y-96160715D01*
X71406352Y-96102193D01*
X71219015Y-96031649D01*
X71036182Y-95949247D01*
X70858529Y-95855150D01*
X70833986Y-95840710D01*
X70797365Y-95818218D01*
X70755985Y-95792033D01*
X70712108Y-95763651D01*
X70667999Y-95734566D01*
X70625921Y-95706274D01*
X70588139Y-95680271D01*
X70556915Y-95658052D01*
X70534514Y-95641112D01*
X70531163Y-95638420D01*
X70515931Y-95625458D01*
X70505412Y-95613720D01*
X70497586Y-95599764D01*
X70490434Y-95580146D01*
X70481940Y-95551422D01*
X70437070Y-95416386D01*
X70380798Y-95286406D01*
X70313912Y-95163815D01*
X70313379Y-95163022D01*
X70476442Y-95163022D01*
X70539186Y-95220326D01*
X70642921Y-95310164D01*
X70788818Y-95421829D01*
X70942452Y-95523766D01*
X71102900Y-95615571D01*
X71269236Y-95696837D01*
X71440538Y-95767159D01*
X71615880Y-95826130D01*
X71794338Y-95873344D01*
X71974990Y-95908397D01*
X72156909Y-95930881D01*
X72271176Y-95939047D01*
X72446308Y-95943550D01*
X72616846Y-95937632D01*
X72784944Y-95921125D01*
X72952758Y-95893861D01*
X73122442Y-95855672D01*
X73174845Y-95841752D01*
X73353821Y-95785686D01*
X73527802Y-95717952D01*
X73696280Y-95638999D01*
X73858749Y-95549273D01*
X74014702Y-95449224D01*
X74163634Y-95339299D01*
X74305038Y-95219946D01*
X74438407Y-95091613D01*
X74563235Y-94954748D01*
X74679016Y-94809799D01*
X74785243Y-94657213D01*
X74881410Y-94497440D01*
X74967010Y-94330926D01*
X75041537Y-94158119D01*
X75066694Y-94091381D01*
X75125221Y-93911283D01*
X75171317Y-93728615D01*
X75205007Y-93544028D01*
X75226316Y-93358173D01*
X75235268Y-93171702D01*
X75231891Y-92985265D01*
X75216208Y-92799513D01*
X75188244Y-92615098D01*
X75148027Y-92432671D01*
X75095579Y-92252882D01*
X75030927Y-92076384D01*
X74954096Y-91903826D01*
X74944463Y-91884235D01*
X74923456Y-91842723D01*
X74901990Y-91801715D01*
X74880960Y-91762800D01*
X74861264Y-91727564D01*
X74843796Y-91697596D01*
X74829455Y-91674483D01*
X74819135Y-91659814D01*
X74813733Y-91655175D01*
X74810771Y-91657223D01*
X74798609Y-91666567D01*
X74778112Y-91682691D01*
X74750335Y-91704756D01*
X74716331Y-91731921D01*
X74677153Y-91763346D01*
X74633854Y-91798191D01*
X74587489Y-91835616D01*
X74366487Y-92014260D01*
X74366486Y-92110556D01*
X74366482Y-92425202D01*
X74366457Y-94525028D01*
X73859757Y-94525028D01*
X73859757Y-93472559D01*
X73812659Y-93477476D01*
X73788058Y-93479459D01*
X73746392Y-93481355D01*
X73697027Y-93482429D01*
X73642548Y-93482720D01*
X73585541Y-93482270D01*
X73528590Y-93481118D01*
X73474281Y-93479304D01*
X73425198Y-93476869D01*
X73383928Y-93473854D01*
X73353056Y-93470299D01*
X73278979Y-93457383D01*
X73160764Y-93429460D01*
X73052528Y-93393984D01*
X72953777Y-93350783D01*
X72864017Y-93299684D01*
X72857852Y-93295727D01*
X72837970Y-93283264D01*
X72823338Y-93274549D01*
X72816764Y-93271268D01*
X72811765Y-93274913D01*
X72797423Y-93286123D01*
X72774548Y-93304267D01*
X72743938Y-93328706D01*
X72706389Y-93358799D01*
X72662697Y-93393909D01*
X72613659Y-93433394D01*
X72560072Y-93476617D01*
X72502732Y-93522937D01*
X72453214Y-93562997D01*
X72442436Y-93571716D01*
X72071308Y-93872163D01*
X72076164Y-94119018D01*
X72077277Y-94172540D01*
X72078632Y-94231387D01*
X72080056Y-94287670D01*
X72081492Y-94339303D01*
X72082881Y-94384203D01*
X72084165Y-94420283D01*
X72085286Y-94445458D01*
X72089552Y-94525043D01*
X71870306Y-94525036D01*
X71831067Y-94525008D01*
X71782285Y-94524895D01*
X71738998Y-94524706D01*
X71702704Y-94524450D01*
X71674904Y-94524141D01*
X71657098Y-94523788D01*
X71650783Y-94523404D01*
X71650678Y-94522363D01*
X71649687Y-94511432D01*
X71647802Y-94490158D01*
X71645189Y-94460446D01*
X71642016Y-94424196D01*
X71638450Y-94383313D01*
X71637126Y-94368389D01*
X71633344Y-94328624D01*
X71629686Y-94293987D01*
X71626379Y-94266433D01*
X71623654Y-94247917D01*
X71621737Y-94240397D01*
X71620546Y-94239905D01*
X71612660Y-94244036D01*
X71601902Y-94255437D01*
X71596291Y-94262633D01*
X71564365Y-94303028D01*
X71538036Y-94335083D01*
X71515576Y-94360700D01*
X71495254Y-94381781D01*
X71475340Y-94400227D01*
X71454105Y-94417939D01*
X71442427Y-94426904D01*
X71406773Y-94451424D01*
X71366311Y-94476150D01*
X71326253Y-94497826D01*
X71323781Y-94499066D01*
X71309544Y-94506384D01*
X71295650Y-94513987D01*
X71281299Y-94522483D01*
X71265688Y-94532482D01*
X71248017Y-94544592D01*
X71227483Y-94559423D01*
X71203286Y-94577584D01*
X71174623Y-94599684D01*
X71140694Y-94626331D01*
X71100697Y-94658136D01*
X71053829Y-94695707D01*
X70999291Y-94739653D01*
X70936280Y-94790583D01*
X70863994Y-94849107D01*
X70476442Y-95163022D01*
X70313379Y-95163022D01*
X70236599Y-95048843D01*
X70149049Y-94941721D01*
X70051449Y-94842678D01*
X69943988Y-94751945D01*
X69826855Y-94669752D01*
X69700237Y-94596329D01*
X69623678Y-94556117D01*
X69592010Y-94493011D01*
X69586489Y-94481900D01*
X69552245Y-94408568D01*
X69517411Y-94326941D01*
X69483569Y-94240854D01*
X69452298Y-94154139D01*
X69394706Y-93967844D01*
X69348079Y-93774917D01*
X69313873Y-93580477D01*
X69291985Y-93385128D01*
X69282313Y-93189472D01*
X69283899Y-93062609D01*
X69608527Y-93062609D01*
X69610098Y-93246327D01*
X69623898Y-93430937D01*
X69650176Y-93615907D01*
X69689179Y-93800706D01*
X69716810Y-93904133D01*
X69773383Y-94078868D01*
X69841227Y-94250052D01*
X69919692Y-94416349D01*
X70008126Y-94576424D01*
X70105879Y-94728944D01*
X70212297Y-94872573D01*
X70219991Y-94882130D01*
X70235533Y-94900789D01*
X70247257Y-94913978D01*
X70253080Y-94919307D01*
X70253986Y-94919108D01*
X70262894Y-94913548D01*
X70279248Y-94901543D01*
X70301093Y-94884567D01*
X70326471Y-94864089D01*
X70333857Y-94858038D01*
X70359703Y-94836928D01*
X70393018Y-94809789D01*
X70431886Y-94778175D01*
X70474396Y-94743643D01*
X70518631Y-94707750D01*
X70562678Y-94672051D01*
X70730048Y-94536490D01*
X70691974Y-94523825D01*
X70600880Y-94486787D01*
X70514003Y-94438058D01*
X70432314Y-94378527D01*
X70356781Y-94309084D01*
X70288369Y-94230616D01*
X70228045Y-94144013D01*
X70176774Y-94050161D01*
X70173078Y-94042349D01*
X70131524Y-93941397D01*
X70099671Y-93836083D01*
X70077244Y-93725061D01*
X70063963Y-93606986D01*
X70061304Y-93530705D01*
X70583260Y-93530705D01*
X70585154Y-93586451D01*
X70588977Y-93637272D01*
X70594729Y-93679562D01*
X70604770Y-93727989D01*
X70630897Y-93818004D01*
X70664836Y-93898100D01*
X70706439Y-93968109D01*
X70755556Y-94027865D01*
X70812038Y-94077200D01*
X70875736Y-94115946D01*
X70946500Y-94143937D01*
X71024181Y-94161004D01*
X71034398Y-94162340D01*
X71077875Y-94165606D01*
X71120331Y-94165304D01*
X71158839Y-94161675D01*
X71190472Y-94154962D01*
X71212303Y-94145409D01*
X71212809Y-94145054D01*
X71222305Y-94137786D01*
X71240274Y-94123597D01*
X71265288Y-94103630D01*
X71295918Y-94079029D01*
X71330736Y-94050938D01*
X71368312Y-94020500D01*
X71511062Y-93904644D01*
X71528691Y-93858746D01*
X71536447Y-93836911D01*
X71543567Y-93811939D01*
X71549191Y-93784828D01*
X71553443Y-93754029D01*
X71556450Y-93717996D01*
X71558336Y-93675178D01*
X71559227Y-93624028D01*
X71559250Y-93562997D01*
X71558528Y-93490537D01*
X71557511Y-93425689D01*
X71556132Y-93370481D01*
X71554117Y-93324680D01*
X71551170Y-93286478D01*
X71546998Y-93254061D01*
X71541304Y-93225618D01*
X71533794Y-93199338D01*
X71524172Y-93173409D01*
X71512144Y-93146021D01*
X71497414Y-93115360D01*
X71483411Y-93088190D01*
X71469320Y-93064846D01*
X71453241Y-93043271D01*
X71432590Y-93020009D01*
X71404780Y-92991607D01*
X71386345Y-92973527D01*
X71360164Y-92949528D01*
X71337142Y-92931372D01*
X71313954Y-92916537D01*
X71287276Y-92902504D01*
X71278902Y-92898512D01*
X71247353Y-92884959D01*
X71215751Y-92873255D01*
X71189833Y-92865573D01*
X71165025Y-92861059D01*
X71119579Y-92856932D01*
X71069987Y-92856270D01*
X71021335Y-92859076D01*
X70978708Y-92865357D01*
X70971961Y-92866883D01*
X70927011Y-92880963D01*
X70879097Y-92901503D01*
X70833436Y-92926037D01*
X70795244Y-92952097D01*
X70785441Y-92960130D01*
X70732463Y-93013345D01*
X70686884Y-93077240D01*
X70648705Y-93151811D01*
X70617926Y-93237059D01*
X70594547Y-93332982D01*
X70589180Y-93369968D01*
X70585272Y-93418857D01*
X70583299Y-93473638D01*
X70583260Y-93530705D01*
X70061304Y-93530705D01*
X70059554Y-93480513D01*
X70059631Y-93462317D01*
X70065432Y-93334473D01*
X70080576Y-93215122D01*
X70105235Y-93103620D01*
X70139580Y-92999322D01*
X70183782Y-92901583D01*
X70238014Y-92809760D01*
X70291124Y-92737893D01*
X70360215Y-92663409D01*
X70436195Y-92599846D01*
X70518694Y-92547403D01*
X70607343Y-92506276D01*
X70701770Y-92476665D01*
X70801605Y-92458766D01*
X70906477Y-92452778D01*
X70960343Y-92454224D01*
X71061594Y-92465144D01*
X71157243Y-92486500D01*
X71246583Y-92517966D01*
X71328908Y-92559219D01*
X71403512Y-92609931D01*
X71469690Y-92669779D01*
X71526734Y-92738436D01*
X71556867Y-92780515D01*
X71558524Y-92178142D01*
X71560182Y-91575769D01*
X72073268Y-91575769D01*
X72074914Y-92511349D01*
X72076560Y-93446928D01*
X72326662Y-93244822D01*
X72333781Y-93239069D01*
X72382998Y-93199264D01*
X72429155Y-93161885D01*
X72471243Y-93127752D01*
X72508256Y-93097683D01*
X72539187Y-93072497D01*
X72563028Y-93053013D01*
X72578773Y-93040050D01*
X72585414Y-93034428D01*
X72588140Y-93030958D01*
X72589215Y-93022803D01*
X72584991Y-93009451D01*
X72574788Y-92987924D01*
X72567129Y-92971809D01*
X73184006Y-92971809D01*
X73211731Y-92988057D01*
X73219737Y-92992669D01*
X73298246Y-93030146D01*
X73384262Y-93057821D01*
X73478577Y-93075956D01*
X73491710Y-93077526D01*
X73531605Y-93080553D01*
X73578314Y-93082213D01*
X73629014Y-93082572D01*
X73680878Y-93081699D01*
X73731081Y-93079660D01*
X73776798Y-93076524D01*
X73815205Y-93072358D01*
X73843475Y-93067230D01*
X73859757Y-93063143D01*
X73859757Y-92425202D01*
X73832148Y-92447549D01*
X73832065Y-92447615D01*
X73821969Y-92455784D01*
X73802755Y-92471328D01*
X73775391Y-92493464D01*
X73740845Y-92521409D01*
X73700085Y-92554379D01*
X73654080Y-92591591D01*
X73603797Y-92632263D01*
X73550206Y-92675611D01*
X73494272Y-92720852D01*
X73184006Y-92971809D01*
X72567129Y-92971809D01*
X72558676Y-92954025D01*
X72528184Y-92874138D01*
X72506006Y-92789064D01*
X72491700Y-92696880D01*
X72484827Y-92595667D01*
X72484410Y-92577576D01*
X72997196Y-92577576D01*
X72997500Y-92616474D01*
X73000114Y-92647099D01*
X73002834Y-92661352D01*
X73007529Y-92677161D01*
X73012019Y-92684006D01*
X73016607Y-92681088D01*
X73030427Y-92670762D01*
X73052453Y-92653747D01*
X73081692Y-92630843D01*
X73117148Y-92602849D01*
X73157827Y-92570565D01*
X73202736Y-92534789D01*
X73250878Y-92496322D01*
X73301260Y-92455963D01*
X73352888Y-92414511D01*
X73404767Y-92372766D01*
X73455902Y-92331527D01*
X73505299Y-92291593D01*
X73551964Y-92253765D01*
X73594902Y-92218841D01*
X73633118Y-92187620D01*
X73665619Y-92160903D01*
X73691409Y-92139489D01*
X73709495Y-92124177D01*
X73718882Y-92115767D01*
X73719500Y-92115146D01*
X73723300Y-92110556D01*
X73722900Y-92107282D01*
X73716543Y-92104950D01*
X73702475Y-92103186D01*
X73678937Y-92101617D01*
X73644176Y-92099869D01*
X73622545Y-92099001D01*
X73521810Y-92099719D01*
X73428548Y-92108501D01*
X73343766Y-92125213D01*
X73268470Y-92149722D01*
X73234982Y-92164832D01*
X73171929Y-92203189D01*
X73117126Y-92250605D01*
X73071531Y-92306012D01*
X73036101Y-92368337D01*
X73011795Y-92436511D01*
X73007663Y-92455913D01*
X73002525Y-92492829D01*
X72998953Y-92534873D01*
X72997196Y-92577576D01*
X72484410Y-92577576D01*
X72484260Y-92571045D01*
X72486296Y-92478301D01*
X72495613Y-92393674D01*
X72512703Y-92314739D01*
X72538057Y-92239066D01*
X72572167Y-92164227D01*
X72620491Y-92082698D01*
X72678767Y-92007997D01*
X72746295Y-91941723D01*
X72823241Y-91883780D01*
X72909773Y-91834072D01*
X73006060Y-91792503D01*
X73112267Y-91758977D01*
X73228564Y-91733398D01*
X73355117Y-91715670D01*
X73387203Y-91712778D01*
X73451140Y-91708986D01*
X73524476Y-91706636D01*
X73604995Y-91705693D01*
X73690481Y-91706123D01*
X73778721Y-91707890D01*
X73867499Y-91710959D01*
X73954600Y-91715296D01*
X74037809Y-91720866D01*
X74114910Y-91727633D01*
X74191419Y-91735309D01*
X74407238Y-91560540D01*
X74434390Y-91538513D01*
X74478219Y-91502788D01*
X74518152Y-91470027D01*
X74553150Y-91441095D01*
X74582178Y-91416854D01*
X74604196Y-91398168D01*
X74618168Y-91385902D01*
X74623056Y-91380917D01*
X74621237Y-91376709D01*
X74611754Y-91363407D01*
X74595290Y-91343119D01*
X74573117Y-91317257D01*
X74546508Y-91287232D01*
X74516734Y-91254454D01*
X74485067Y-91220334D01*
X74452779Y-91186282D01*
X74421142Y-91153709D01*
X74391427Y-91124025D01*
X74340456Y-91074849D01*
X74267608Y-91007851D01*
X74196951Y-90947343D01*
X74125366Y-90890793D01*
X74049736Y-90835671D01*
X73966943Y-90779445D01*
X73854606Y-90709126D01*
X73689394Y-90618397D01*
X73519692Y-90539496D01*
X73346102Y-90472460D01*
X73169228Y-90417326D01*
X72989671Y-90374132D01*
X72808034Y-90342915D01*
X72624920Y-90323712D01*
X72440930Y-90316561D01*
X72256669Y-90321499D01*
X72072737Y-90338563D01*
X71889737Y-90367790D01*
X71708272Y-90409217D01*
X71528945Y-90462882D01*
X71352358Y-90528822D01*
X71179112Y-90607075D01*
X71044249Y-90678073D01*
X70883873Y-90775241D01*
X70731759Y-90881806D01*
X70588155Y-90997234D01*
X70453309Y-91120995D01*
X70327469Y-91252558D01*
X70210883Y-91391390D01*
X70103798Y-91536960D01*
X70006463Y-91688737D01*
X69919125Y-91846189D01*
X69842034Y-92008784D01*
X69775435Y-92175992D01*
X69719579Y-92347280D01*
X69674712Y-92522118D01*
X69641082Y-92699973D01*
X69618938Y-92880313D01*
X69608527Y-93062609D01*
X69283899Y-93062609D01*
X69284755Y-92994111D01*
X69299210Y-92799647D01*
X69325577Y-92606683D01*
X69363752Y-92415821D01*
X69413636Y-92227663D01*
X69475125Y-92042813D01*
X69548118Y-91861871D01*
X69632513Y-91685442D01*
X69728209Y-91514127D01*
X69835103Y-91348528D01*
X69953095Y-91189248D01*
X69985383Y-91149147D01*
X70118165Y-90996898D01*
X70259539Y-90853964D01*
X70408989Y-90720704D01*
X70566001Y-90597481D01*
X70730058Y-90484654D01*
X70900646Y-90382585D01*
X71077248Y-90291633D01*
X71259348Y-90212160D01*
X71446432Y-90144526D01*
X71489464Y-90130875D01*
X71681979Y-90077985D01*
X71876704Y-90037556D01*
X72072977Y-90009543D01*
X72270132Y-89993899D01*
X72467507Y-89990580D01*
X72664437Y-89999534D01*
X72860259Y-90020720D01*
X73054308Y-90054091D01*
X73245921Y-90099599D01*
X73434433Y-90157198D01*
X73619180Y-90226843D01*
X73799500Y-90308488D01*
X73820098Y-90318667D01*
X73875862Y-90346710D01*
X73924399Y-90372087D01*
X73969202Y-90396759D01*
X74013764Y-90422686D01*
X74061577Y-90451828D01*
X74116136Y-90486145D01*
X74237022Y-90567370D01*
X74389263Y-90682675D01*
X74535527Y-90808307D01*
X74674620Y-90943091D01*
X74805347Y-91085855D01*
X74926515Y-91235426D01*
X75030018Y-91380917D01*
X75036927Y-91390629D01*
X75080744Y-91458548D01*
X75179316Y-91627182D01*
X75267516Y-91801760D01*
X75344690Y-91980814D01*
X75410181Y-92162875D01*
X75463334Y-92346476D01*
X75467438Y-92362788D01*
X75510046Y-92560315D01*
X75539959Y-92758723D01*
X75557267Y-92957450D01*
X75562061Y-93155936D01*
X75561453Y-93171702D01*
X75554435Y-93353618D01*
X75534478Y-93549936D01*
G37*
G36*
X72051570Y-96534967D02*
G01*
X72089906Y-96543694D01*
X72122242Y-96559687D01*
X72151575Y-96584002D01*
X72166786Y-96601024D01*
X72186499Y-96632855D01*
X72199583Y-96670966D01*
X72207291Y-96718379D01*
X72211525Y-96759708D01*
X72268197Y-96759708D01*
X72268197Y-96870143D01*
X72209731Y-96870143D01*
X72209731Y-97220936D01*
X72060319Y-97220936D01*
X72060319Y-96870143D01*
X71962877Y-96870143D01*
X71962877Y-96759708D01*
X72060319Y-96759708D01*
X72060319Y-96736763D01*
X72059201Y-96718793D01*
X72050120Y-96687613D01*
X72032683Y-96665329D01*
X72007820Y-96652889D01*
X71976459Y-96651241D01*
X71944976Y-96654969D01*
X71941914Y-96598528D01*
X71941025Y-96568726D01*
X71942321Y-96546866D01*
X71945992Y-96537314D01*
X71947301Y-96536714D01*
X71959503Y-96534573D01*
X71980139Y-96533049D01*
X72005569Y-96532442D01*
X72051570Y-96534967D01*
G37*
G36*
X71668842Y-96756685D02*
G01*
X71695784Y-96765822D01*
X71707458Y-96772923D01*
X71726217Y-96787801D01*
X71743641Y-96804895D01*
X71756596Y-96821027D01*
X71761952Y-96833016D01*
X71762180Y-96835403D01*
X71764099Y-96837615D01*
X71767054Y-96830849D01*
X71770234Y-96818167D01*
X71772830Y-96802635D01*
X71774031Y-96787317D01*
X71774488Y-96759708D01*
X71906221Y-96759708D01*
X71902125Y-96793813D01*
X71901840Y-96796655D01*
X71900818Y-96814929D01*
X71899900Y-96843702D01*
X71899121Y-96881007D01*
X71898516Y-96924875D01*
X71898121Y-96973338D01*
X71897972Y-97024427D01*
X71897915Y-97220936D01*
X71749219Y-97220936D01*
X71747237Y-97081777D01*
X71746577Y-97037669D01*
X71745855Y-97002463D01*
X71744891Y-96976675D01*
X71743473Y-96958477D01*
X71741389Y-96946041D01*
X71738426Y-96937540D01*
X71734373Y-96931146D01*
X71729015Y-96925032D01*
X71711880Y-96910015D01*
X71678889Y-96894685D01*
X71638277Y-96889631D01*
X71605588Y-96889631D01*
X71605588Y-96753212D01*
X71638327Y-96753212D01*
X71668842Y-96756685D01*
G37*
X66470800Y-79653159D02*
X66470800Y-79960441D01*
X65710800Y-79653159D02*
X65710800Y-79960441D01*
X70921200Y-116541436D02*
X70921200Y-116325764D01*
X70201200Y-116541436D02*
X70201200Y-116325764D01*
X63678800Y-79653159D02*
X63678800Y-79960441D01*
X64438800Y-79653159D02*
X64438800Y-79960441D01*
X69030964Y-104313400D02*
X69246636Y-104313400D01*
X69030964Y-105033400D02*
X69246636Y-105033400D01*
X71268000Y-116541436D02*
X71268000Y-116325764D01*
X71988000Y-116541436D02*
X71988000Y-116325764D01*
X75539600Y-101030600D02*
X74739600Y-101030600D01*
X75539600Y-104150600D02*
X74739600Y-104150600D01*
X75539600Y-101030600D02*
X77339600Y-101030600D01*
X75539600Y-104150600D02*
X76339600Y-104150600D01*
X62662800Y-79653159D02*
X62662800Y-79960441D01*
X63422800Y-79653159D02*
X63422800Y-79960441D01*
G36*
X76399596Y-112676818D02*
G01*
X76428837Y-112716847D01*
X76480899Y-112770282D01*
X76533726Y-112819377D01*
X76574773Y-112848453D01*
X76593788Y-112854792D01*
X76613550Y-112861380D01*
X76661919Y-112864319D01*
X76692221Y-112864605D01*
X76729261Y-112869534D01*
X76743848Y-112886144D01*
X76746395Y-112921483D01*
X76746284Y-112933334D01*
X76740861Y-112964007D01*
X76719260Y-112976362D01*
X76670539Y-112978648D01*
X76626074Y-112981082D01*
X76597041Y-112994044D01*
X76583305Y-113023982D01*
X76577795Y-113060237D01*
X76578178Y-113117792D01*
X76579168Y-113122510D01*
X76585375Y-113129001D01*
X76598713Y-113125463D01*
X76621536Y-113109662D01*
X76656195Y-113079362D01*
X76705043Y-113032330D01*
X76770433Y-112966330D01*
X76854718Y-112879128D01*
X76960249Y-112768488D01*
X77089381Y-112632175D01*
X77594332Y-112098083D01*
X77600338Y-112179323D01*
X77601768Y-112208643D01*
X77597820Y-112243870D01*
X77582038Y-112277264D01*
X77549315Y-112318352D01*
X77494547Y-112376657D01*
X77467180Y-112405201D01*
X77409134Y-112466089D01*
X77334132Y-112545017D01*
X77246495Y-112637417D01*
X77150540Y-112738720D01*
X77050588Y-112844360D01*
X76950957Y-112949767D01*
X76855967Y-113050374D01*
X76769937Y-113141613D01*
X76697185Y-113218915D01*
X76642032Y-113277714D01*
X76608796Y-113313440D01*
X76555021Y-113371938D01*
X76539229Y-113557278D01*
X76480452Y-114247123D01*
X76405884Y-115122309D01*
X76464182Y-115183809D01*
X76487165Y-115208055D01*
X76490773Y-115211860D01*
X76526189Y-115249213D01*
X76583834Y-115310003D01*
X76660297Y-115390635D01*
X76752170Y-115487514D01*
X76856044Y-115597044D01*
X76968508Y-115715631D01*
X77086153Y-115839680D01*
X77186375Y-115945397D01*
X77298265Y-116063750D01*
X77388135Y-116159599D01*
X77458397Y-116235867D01*
X77511464Y-116295477D01*
X77549748Y-116341354D01*
X77575661Y-116376419D01*
X77591616Y-116403598D01*
X77600026Y-116425813D01*
X77603303Y-116445987D01*
X77603859Y-116467045D01*
X77603859Y-116548531D01*
X77554492Y-116502337D01*
X77545928Y-116493932D01*
X77510605Y-116457847D01*
X77453629Y-116398779D01*
X77378017Y-116319883D01*
X77286782Y-116224316D01*
X77182942Y-116115234D01*
X77069510Y-115995792D01*
X76949503Y-115869146D01*
X76393882Y-115282151D01*
X76370373Y-115563008D01*
X76366426Y-115607508D01*
X76356355Y-115703114D01*
X76345820Y-115782432D01*
X76335857Y-115838218D01*
X76327500Y-115863230D01*
X76320366Y-115877506D01*
X76311571Y-115922901D01*
X76308136Y-115983584D01*
X76308136Y-116084574D01*
X76079478Y-116084574D01*
X76079478Y-115874972D01*
X75244177Y-115874972D01*
X75205455Y-115937626D01*
X75194555Y-115953896D01*
X75121598Y-116023957D01*
X75025647Y-116068785D01*
X74914246Y-116084574D01*
X74903699Y-116084470D01*
X74792225Y-116067137D01*
X74700438Y-116018343D01*
X74623377Y-115935546D01*
X74613704Y-115921580D01*
X74584800Y-115869664D01*
X74571200Y-115815604D01*
X74567800Y-115741588D01*
X74567950Y-115721646D01*
X74573292Y-115653758D01*
X74590064Y-115601616D01*
X74623377Y-115547356D01*
X74640422Y-115525475D01*
X74695044Y-115470872D01*
X74750409Y-115431777D01*
X74779128Y-115416191D01*
X74808081Y-115392262D01*
X74819721Y-115358770D01*
X74821864Y-115301461D01*
X74821424Y-115268904D01*
X74818904Y-115225187D01*
X74814891Y-115208055D01*
X74814666Y-115208161D01*
X74798397Y-115223857D01*
X74758711Y-115264339D01*
X74698161Y-115326943D01*
X74619299Y-115409009D01*
X74524678Y-115507874D01*
X74416851Y-115620876D01*
X74298372Y-115745354D01*
X74171792Y-115878644D01*
X73535667Y-116549234D01*
X73523887Y-116388178D01*
X74034269Y-115850517D01*
X74039063Y-115845467D01*
X74158448Y-115719735D01*
X74274727Y-115597330D01*
X74384048Y-115482306D01*
X74482554Y-115378716D01*
X74566394Y-115290613D01*
X74631711Y-115222050D01*
X74674652Y-115177080D01*
X74758346Y-115089667D01*
X74917281Y-115089667D01*
X74929679Y-115236334D01*
X74932874Y-115270781D01*
X74942466Y-115338329D01*
X74955083Y-115376547D01*
X74972480Y-115391801D01*
X75063645Y-115427597D01*
X75158124Y-115494256D01*
X75222828Y-115581000D01*
X75254990Y-115684960D01*
X75265141Y-115760643D01*
X76243383Y-115760643D01*
X76267115Y-115472226D01*
X76290846Y-115183809D01*
X76247090Y-115134507D01*
X76202680Y-115085528D01*
X76141175Y-115019307D01*
X76067947Y-114941522D01*
X75987203Y-114856539D01*
X75903151Y-114768722D01*
X75819999Y-114682439D01*
X75741954Y-114602054D01*
X75673224Y-114531933D01*
X75618016Y-114476442D01*
X75580539Y-114439945D01*
X75565000Y-114426810D01*
X75556285Y-114433138D01*
X75524014Y-114463160D01*
X75471904Y-114514465D01*
X75403730Y-114583269D01*
X75323268Y-114665788D01*
X75234293Y-114758238D01*
X74917281Y-115089667D01*
X74758346Y-115089667D01*
X74804653Y-115041303D01*
X74752022Y-114333906D01*
X74699700Y-113630666D01*
X74813130Y-113630666D01*
X74813304Y-113642664D01*
X74815899Y-113688557D01*
X74820883Y-113764635D01*
X74827950Y-113866489D01*
X74836791Y-113989711D01*
X74847101Y-114129893D01*
X74858571Y-114282626D01*
X74907610Y-114929214D01*
X75190573Y-114632190D01*
X75222921Y-114598101D01*
X75302645Y-114512871D01*
X75370940Y-114438125D01*
X75424038Y-114378090D01*
X75458174Y-114336992D01*
X75467705Y-114322008D01*
X75645760Y-114322008D01*
X75762582Y-114445872D01*
X75893992Y-114584890D01*
X76013409Y-114710403D01*
X76110092Y-114810932D01*
X76185631Y-114888077D01*
X76241615Y-114943439D01*
X76279637Y-114978618D01*
X76301286Y-114995215D01*
X76308152Y-114994830D01*
X76309580Y-114972476D01*
X76313891Y-114916166D01*
X76320729Y-114830559D01*
X76329730Y-114720093D01*
X76340533Y-114589203D01*
X76352777Y-114442326D01*
X76366100Y-114283899D01*
X76378529Y-114134195D01*
X76390464Y-113985004D01*
X76400728Y-113850937D01*
X76408992Y-113736563D01*
X76414925Y-113646450D01*
X76418199Y-113585165D01*
X76418484Y-113557278D01*
X76417630Y-113553998D01*
X76408421Y-113550735D01*
X76387765Y-113562260D01*
X76353279Y-113590790D01*
X76302578Y-113638543D01*
X76233278Y-113707737D01*
X76142996Y-113800589D01*
X76029348Y-113919318D01*
X75648569Y-114319059D01*
X75645760Y-114322008D01*
X75467705Y-114322008D01*
X75469581Y-114319059D01*
X75469080Y-114318002D01*
X75451910Y-114296962D01*
X75413647Y-114254363D01*
X75358574Y-114194694D01*
X75290973Y-114122449D01*
X75215128Y-114042117D01*
X75135321Y-113958191D01*
X75055835Y-113875162D01*
X74980954Y-113797521D01*
X74914959Y-113729759D01*
X74862135Y-113676369D01*
X74826765Y-113641841D01*
X74813130Y-113630666D01*
X74699700Y-113630666D01*
X74699391Y-113626510D01*
X74383604Y-113626510D01*
X74383604Y-113512181D01*
X74497933Y-113512181D01*
X74593207Y-113512181D01*
X74627506Y-113511164D01*
X74671337Y-113505701D01*
X74688481Y-113497094D01*
X74681043Y-113483380D01*
X74652872Y-113449969D01*
X74612446Y-113407782D01*
X74569151Y-113366126D01*
X74532374Y-113334308D01*
X74511503Y-113321633D01*
X74506618Y-113328053D01*
X74500375Y-113362548D01*
X74497933Y-113416907D01*
X74497933Y-113512181D01*
X74383604Y-113512181D01*
X74383604Y-113428022D01*
X74384209Y-113362879D01*
X74387978Y-113284998D01*
X74395573Y-113239071D01*
X74407423Y-113221362D01*
X74408395Y-113220162D01*
X74396645Y-113198542D01*
X74358959Y-113151122D01*
X74296185Y-113078828D01*
X74209167Y-112982586D01*
X74098752Y-112863322D01*
X73965786Y-112721962D01*
X73811115Y-112559431D01*
X73635585Y-112376657D01*
X73595970Y-112335026D01*
X73556582Y-112289397D01*
X73535806Y-112254566D01*
X73528534Y-112221015D01*
X73529662Y-112179224D01*
X73535667Y-112097886D01*
X74069166Y-112662123D01*
X74170948Y-112769292D01*
X74299432Y-112902944D01*
X74409642Y-113015529D01*
X74500123Y-113105605D01*
X74569418Y-113171730D01*
X74616074Y-113212462D01*
X74638635Y-113226360D01*
X74646714Y-113226054D01*
X74663697Y-113218038D01*
X74668090Y-113191878D01*
X74662488Y-113137954D01*
X74659177Y-113112601D01*
X74652873Y-113055539D01*
X74650371Y-113018358D01*
X74646902Y-113003111D01*
X74625055Y-112992859D01*
X74575189Y-112994338D01*
X74529569Y-112993181D01*
X74494030Y-112978648D01*
X74761143Y-112978648D01*
X74773559Y-113164432D01*
X74776768Y-113209935D01*
X74783419Y-113292246D01*
X74789883Y-113359041D01*
X74795124Y-113399057D01*
X74802302Y-113416737D01*
X74833531Y-113462940D01*
X74862034Y-113497094D01*
X74883564Y-113522893D01*
X74946452Y-113589127D01*
X75088631Y-113730357D01*
X75088631Y-113607455D01*
X75850821Y-113607455D01*
X75850821Y-113855167D01*
X75195939Y-113855167D01*
X75375706Y-114040951D01*
X75393840Y-114059659D01*
X75458261Y-114125553D01*
X75511681Y-114179330D01*
X75548971Y-114215866D01*
X75565000Y-114230035D01*
X75576859Y-114220502D01*
X75611479Y-114186783D01*
X75665020Y-114132491D01*
X75733768Y-114061560D01*
X75814009Y-113977924D01*
X75902029Y-113885517D01*
X75994114Y-113788273D01*
X76086551Y-113690125D01*
X76175625Y-113595009D01*
X76257622Y-113506857D01*
X76328829Y-113429604D01*
X76385532Y-113367184D01*
X76424016Y-113323531D01*
X76440569Y-113302579D01*
X76441894Y-113299584D01*
X76450558Y-113262404D01*
X76459198Y-113200763D01*
X76466125Y-113126322D01*
X76476690Y-112978648D01*
X74761143Y-112978648D01*
X74494030Y-112978648D01*
X74463129Y-112966012D01*
X74418793Y-112911662D01*
X74408396Y-112862733D01*
X74793282Y-112862733D01*
X75474490Y-112863526D01*
X76155697Y-112864319D01*
X76155697Y-112854792D01*
X76384355Y-112854792D01*
X76393882Y-112864319D01*
X76403409Y-112854792D01*
X76393882Y-112845264D01*
X76384355Y-112854792D01*
X76155697Y-112854792D01*
X76155697Y-112781589D01*
X76155410Y-112754185D01*
X76149364Y-112714455D01*
X76128080Y-112693174D01*
X76082031Y-112676788D01*
X76019178Y-112659953D01*
X75983876Y-112658555D01*
X75968510Y-112675071D01*
X75965150Y-112711881D01*
X75965150Y-112769045D01*
X75279178Y-112769045D01*
X75279178Y-112700233D01*
X75279129Y-112683982D01*
X75275054Y-112647868D01*
X75257388Y-112638328D01*
X75374452Y-112638328D01*
X75374673Y-112639036D01*
X75396213Y-112645152D01*
X75447863Y-112650135D01*
X75522409Y-112653488D01*
X75612637Y-112654717D01*
X75677758Y-112654108D01*
X75764222Y-112650667D01*
X75821114Y-112644799D01*
X75846730Y-112637206D01*
X75839364Y-112628587D01*
X75797312Y-112619642D01*
X75718871Y-112611072D01*
X75674393Y-112608193D01*
X75588930Y-112606650D01*
X75507762Y-112609561D01*
X75439330Y-112616256D01*
X75392079Y-112626068D01*
X75374452Y-112638328D01*
X75257388Y-112638328D01*
X75256258Y-112637718D01*
X75211387Y-112644138D01*
X75156346Y-112656902D01*
X75045949Y-112694883D01*
X74943853Y-112744606D01*
X74864944Y-112799399D01*
X74793282Y-112862733D01*
X74408396Y-112862733D01*
X74402659Y-112835737D01*
X74406375Y-112800145D01*
X74435149Y-112737244D01*
X74484928Y-112693720D01*
X74546733Y-112673497D01*
X74611587Y-112680500D01*
X74670513Y-112718653D01*
X74713710Y-112763534D01*
X74819022Y-112689763D01*
X74868544Y-112659801D01*
X74946654Y-112621288D01*
X75034929Y-112583935D01*
X75122454Y-112551990D01*
X75198310Y-112529706D01*
X75251580Y-112521333D01*
X75257893Y-112520421D01*
X75274141Y-112498865D01*
X75274836Y-112491452D01*
X75457132Y-112491452D01*
X75479561Y-112493259D01*
X75532456Y-112494455D01*
X75612637Y-112494875D01*
X75649618Y-112494784D01*
X75717081Y-112493987D01*
X75755033Y-112492504D01*
X75760606Y-112490497D01*
X75730936Y-112488130D01*
X75668451Y-112486007D01*
X75569951Y-112485589D01*
X75483225Y-112488191D01*
X75468343Y-112489197D01*
X75457132Y-112491452D01*
X75274836Y-112491452D01*
X75279178Y-112445114D01*
X75279178Y-112368895D01*
X75965150Y-112368895D01*
X75965150Y-112452521D01*
X75965462Y-112482431D01*
X75966680Y-112490497D01*
X75971197Y-112520424D01*
X75990909Y-112538525D01*
X76033195Y-112548912D01*
X76039111Y-112550042D01*
X76091938Y-112561656D01*
X76128468Y-112572126D01*
X76143844Y-112573656D01*
X76155697Y-112551954D01*
X76156402Y-112545107D01*
X76169343Y-112530502D01*
X76204609Y-112523276D01*
X76270026Y-112521333D01*
X76384355Y-112521333D01*
X76384355Y-112598789D01*
X76386765Y-112637206D01*
X76386878Y-112639012D01*
X76399596Y-112676818D01*
G37*
G36*
X77298983Y-118275872D02*
G01*
X73831016Y-118275872D01*
X73831016Y-117380298D01*
X77298983Y-117380298D01*
X77298983Y-118275872D01*
G37*
X77979000Y-120397241D02*
X77979000Y-120089959D01*
X78739000Y-120397241D02*
X78739000Y-120089959D01*
X71951964Y-119511400D02*
X72167636Y-119511400D01*
X71951964Y-118791400D02*
X72167636Y-118791400D01*
X73967800Y-100299800D02*
X73967800Y-99699800D01*
X73267800Y-98999800D02*
X71867800Y-98999800D01*
X71167800Y-99699800D02*
X71167800Y-100299800D01*
X71867800Y-100999800D02*
X73267800Y-100999800D01*
X73267800Y-100999800D02*
G75*
G03*
X73967800Y-100299800I0J700000D01*
G01*
X71867800Y-98999800D02*
G75*
G03*
X71167800Y-99699800I-1J-699999D01*
G01*
X73967800Y-99699800D02*
G75*
G03*
X73267800Y-98999800I-700000J0D01*
G01*
X71167800Y-100299800D02*
G75*
G03*
X71867800Y-100999800I699999J-1D01*
G01*
X70607000Y-111080600D02*
X70607000Y-109820600D01*
X76617000Y-104260600D02*
X70607000Y-104260600D01*
X74367000Y-111080600D02*
X70607000Y-111080600D01*
X70607000Y-104260600D02*
X70607000Y-105520600D01*
X64694800Y-79653159D02*
X64694800Y-79960441D01*
X65454800Y-79653159D02*
X65454800Y-79960441D01*
M02*
