G04 #@! TF.GenerationSoftware,KiCad,Pcbnew,(6.0.5)*
G04 #@! TF.CreationDate,2022-08-24T15:32:52-07:00*
G04 #@! TF.ProjectId,pico-ice,7069636f-2d69-4636-952e-6b696361645f,REV1*
G04 #@! TF.SameCoordinates,Original*
G04 #@! TF.FileFunction,Legend,Top*
G04 #@! TF.FilePolarity,Positive*
%FSLAX46Y46*%
G04 Gerber Fmt 4.6, Leading zero omitted, Abs format (unit mm)*
G04 Created by KiCad (PCBNEW (6.0.5)) date 2022-08-24 15:32:52*
%MOMM*%
%LPD*%
G01*
G04 APERTURE LIST*
%ADD10C,0.120000*%
%ADD11C,0.127000*%
%ADD12C,0.100000*%
%ADD13C,0.150000*%
%ADD14C,0.200000*%
G04 APERTURE END LIST*
D10*
X80010000Y-73660000D02*
X80010000Y-74930000D01*
X66040000Y-96520000D02*
X60960000Y-96520000D01*
X60960000Y-96520000D02*
X60960000Y-104140000D01*
X60960000Y-104140000D02*
X66040000Y-104140000D01*
X66040000Y-104140000D02*
X66040000Y-96520000D01*
X64770000Y-78740000D02*
X64770000Y-77470000D01*
X83820000Y-96520000D02*
X83820000Y-81280000D01*
X78740000Y-96520000D02*
X78740000Y-81915000D01*
X83820000Y-81280000D02*
X79375000Y-81280000D01*
X64770000Y-78740000D02*
X80010000Y-78740000D01*
D11*
X78740000Y-104140000D02*
X83820000Y-104140000D01*
X83820000Y-104140000D02*
X83820000Y-119380000D01*
X83820000Y-119380000D02*
X78740000Y-119380000D01*
X78740000Y-119380000D02*
X78740000Y-104140000D01*
X78740000Y-96520000D02*
X83820000Y-96520000D01*
X83820000Y-96520000D02*
X83820000Y-104140000D01*
X83820000Y-104140000D02*
X78740000Y-104140000D01*
X78740000Y-104140000D02*
X78740000Y-96520000D01*
D10*
X66040000Y-81280000D02*
X60960000Y-81280000D01*
X60960000Y-81280000D02*
X60960000Y-96520000D01*
X60960000Y-96520000D02*
X66040000Y-96520000D01*
X66040000Y-96520000D02*
X66040000Y-81280000D01*
X64770000Y-73660000D02*
X64770000Y-74930000D01*
X64770000Y-73660000D02*
X80010000Y-73660000D01*
X78790800Y-83159600D02*
X78790800Y-83159600D01*
X66040000Y-104140000D02*
X60960000Y-104140000D01*
X60960000Y-104140000D02*
X60960000Y-119380000D01*
X60960000Y-119380000D02*
X66040000Y-119380000D01*
X66040000Y-119380000D02*
X66040000Y-104140000D01*
X80010000Y-78740000D02*
X80010000Y-77470000D01*
D12*
X66589257Y-103119685D02*
X66446400Y-103119685D01*
X66374971Y-103155400D01*
X66339257Y-103191114D01*
X66267828Y-103298257D01*
X66232114Y-103441114D01*
X66232114Y-103726828D01*
X66267828Y-103798257D01*
X66303542Y-103833971D01*
X66374971Y-103869685D01*
X66517828Y-103869685D01*
X66589257Y-103833971D01*
X66624971Y-103798257D01*
X66660685Y-103726828D01*
X66660685Y-103548257D01*
X66624971Y-103476828D01*
X66589257Y-103441114D01*
X66517828Y-103405400D01*
X66374971Y-103405400D01*
X66303542Y-103441114D01*
X66267828Y-103476828D01*
X66232114Y-103548257D01*
X77449828Y-102161571D02*
X77485542Y-102125857D01*
X77556971Y-102090142D01*
X77699828Y-102161571D01*
X77771257Y-102125857D01*
X77806971Y-102090142D01*
X78021257Y-101697285D02*
X78485542Y-101697285D01*
X78235542Y-101983000D01*
X78342685Y-101983000D01*
X78414114Y-102018714D01*
X78449828Y-102054428D01*
X78485542Y-102125857D01*
X78485542Y-102304428D01*
X78449828Y-102375857D01*
X78414114Y-102411571D01*
X78342685Y-102447285D01*
X78128400Y-102447285D01*
X78056971Y-102411571D01*
X78021257Y-102375857D01*
X66536914Y-88739285D02*
X66536914Y-89239285D01*
X66358342Y-88453571D02*
X66179771Y-88989285D01*
X66644057Y-88989285D01*
X66858342Y-88489285D02*
X67358342Y-88489285D01*
X67036914Y-89239285D01*
X80683171Y-93513714D02*
X80718885Y-93478000D01*
X80790314Y-93442285D01*
X80968885Y-93442285D01*
X81040314Y-93478000D01*
X81076028Y-93513714D01*
X81111742Y-93585142D01*
X81111742Y-93656571D01*
X81076028Y-93763714D01*
X80647457Y-94192285D01*
X81111742Y-94192285D01*
X81754600Y-93442285D02*
X81611742Y-93442285D01*
X81540314Y-93478000D01*
X81504600Y-93513714D01*
X81433171Y-93620857D01*
X81397457Y-93763714D01*
X81397457Y-94049428D01*
X81433171Y-94120857D01*
X81468885Y-94156571D01*
X81540314Y-94192285D01*
X81683171Y-94192285D01*
X81754600Y-94156571D01*
X81790314Y-94120857D01*
X81826028Y-94049428D01*
X81826028Y-93870857D01*
X81790314Y-93799428D01*
X81754600Y-93763714D01*
X81683171Y-93728000D01*
X81540314Y-93728000D01*
X81468885Y-93763714D01*
X81433171Y-93799428D01*
X81397457Y-93870857D01*
X66503247Y-99525061D02*
X66140390Y-99525061D01*
X66321819Y-99525061D02*
X66321819Y-98890061D01*
X66261342Y-98980776D01*
X66200866Y-99041252D01*
X66140390Y-99071490D01*
X66896342Y-98890061D02*
X66956819Y-98890061D01*
X67017295Y-98920300D01*
X67047533Y-98950538D01*
X67077771Y-99011014D01*
X67108009Y-99131966D01*
X67108009Y-99283157D01*
X67077771Y-99404109D01*
X67047533Y-99464585D01*
X67017295Y-99494823D01*
X66956819Y-99525061D01*
X66896342Y-99525061D01*
X66835866Y-99494823D01*
X66805628Y-99464585D01*
X66775390Y-99404109D01*
X66745152Y-99283157D01*
X66745152Y-99131966D01*
X66775390Y-99011014D01*
X66805628Y-98950538D01*
X66835866Y-98920300D01*
X66896342Y-98890061D01*
X76948552Y-78612180D02*
X77019980Y-78635990D01*
X77139028Y-78635990D01*
X77186647Y-78612180D01*
X77210457Y-78588371D01*
X77234266Y-78540752D01*
X77234266Y-78493133D01*
X77210457Y-78445514D01*
X77186647Y-78421704D01*
X77139028Y-78397895D01*
X77043790Y-78374085D01*
X76996171Y-78350276D01*
X76972361Y-78326466D01*
X76948552Y-78278847D01*
X76948552Y-78231228D01*
X76972361Y-78183609D01*
X76996171Y-78159800D01*
X77043790Y-78135990D01*
X77162838Y-78135990D01*
X77234266Y-78159800D01*
X77519980Y-78635990D02*
X77472361Y-78612180D01*
X77448552Y-78588371D01*
X77424742Y-78540752D01*
X77424742Y-78397895D01*
X77448552Y-78350276D01*
X77472361Y-78326466D01*
X77519980Y-78302657D01*
X77591409Y-78302657D01*
X77639028Y-78326466D01*
X77662838Y-78350276D01*
X77686647Y-78397895D01*
X77686647Y-78540752D01*
X77662838Y-78588371D01*
X77639028Y-78612180D01*
X77591409Y-78635990D01*
X77519980Y-78635990D01*
X77944738Y-92838209D02*
X77914500Y-92807971D01*
X77884261Y-92747495D01*
X77884261Y-92596304D01*
X77914500Y-92535828D01*
X77944738Y-92505590D01*
X78005214Y-92475352D01*
X78065690Y-92475352D01*
X78156404Y-92505590D01*
X78519261Y-92868447D01*
X78519261Y-92475352D01*
X77884261Y-91900828D02*
X77884261Y-92203209D01*
X78186642Y-92233447D01*
X78156404Y-92203209D01*
X78126166Y-92142733D01*
X78126166Y-91991542D01*
X78156404Y-91931066D01*
X78186642Y-91900828D01*
X78247119Y-91870590D01*
X78398309Y-91870590D01*
X78458785Y-91900828D01*
X78489023Y-91931066D01*
X78519261Y-91991542D01*
X78519261Y-92142733D01*
X78489023Y-92203209D01*
X78458785Y-92233447D01*
X80853428Y-101526571D02*
X80889142Y-101490857D01*
X80960571Y-101455142D01*
X81103428Y-101526571D01*
X81174857Y-101490857D01*
X81210571Y-101455142D01*
X81460571Y-101133714D02*
X81496285Y-101098000D01*
X81567714Y-101062285D01*
X81746285Y-101062285D01*
X81817714Y-101098000D01*
X81853428Y-101133714D01*
X81889142Y-101205142D01*
X81889142Y-101276571D01*
X81853428Y-101383714D01*
X81424857Y-101812285D01*
X81889142Y-101812285D01*
X80759371Y-86046114D02*
X80795085Y-86010400D01*
X80866514Y-85974685D01*
X81045085Y-85974685D01*
X81116514Y-86010400D01*
X81152228Y-86046114D01*
X81187942Y-86117542D01*
X81187942Y-86188971D01*
X81152228Y-86296114D01*
X80723657Y-86724685D01*
X81187942Y-86724685D01*
X81652228Y-85974685D02*
X81723657Y-85974685D01*
X81795085Y-86010400D01*
X81830800Y-86046114D01*
X81866514Y-86117542D01*
X81902228Y-86260400D01*
X81902228Y-86438971D01*
X81866514Y-86581828D01*
X81830800Y-86653257D01*
X81795085Y-86688971D01*
X81723657Y-86724685D01*
X81652228Y-86724685D01*
X81580800Y-86688971D01*
X81545085Y-86653257D01*
X81509371Y-86581828D01*
X81473657Y-86438971D01*
X81473657Y-86260400D01*
X81509371Y-86117542D01*
X81545085Y-86046114D01*
X81580800Y-86010400D01*
X81652228Y-85974685D01*
X63158714Y-86072285D02*
X63158714Y-86572285D01*
X62980142Y-85786571D02*
X62801571Y-86322285D01*
X63265857Y-86322285D01*
X63658714Y-86143714D02*
X63587285Y-86108000D01*
X63551571Y-86072285D01*
X63515857Y-86000857D01*
X63515857Y-85965142D01*
X63551571Y-85893714D01*
X63587285Y-85858000D01*
X63658714Y-85822285D01*
X63801571Y-85822285D01*
X63873000Y-85858000D01*
X63908714Y-85893714D01*
X63944428Y-85965142D01*
X63944428Y-86000857D01*
X63908714Y-86072285D01*
X63873000Y-86108000D01*
X63801571Y-86143714D01*
X63658714Y-86143714D01*
X63587285Y-86179428D01*
X63551571Y-86215142D01*
X63515857Y-86286571D01*
X63515857Y-86429428D01*
X63551571Y-86500857D01*
X63587285Y-86536571D01*
X63658714Y-86572285D01*
X63801571Y-86572285D01*
X63873000Y-86536571D01*
X63908714Y-86500857D01*
X63944428Y-86429428D01*
X63944428Y-86286571D01*
X63908714Y-86215142D01*
X63873000Y-86179428D01*
X63801571Y-86143714D01*
X81001828Y-109191828D02*
X81108971Y-109227542D01*
X81144685Y-109263257D01*
X81180400Y-109334685D01*
X81180400Y-109441828D01*
X81144685Y-109513257D01*
X81108971Y-109548971D01*
X81037542Y-109584685D01*
X80751828Y-109584685D01*
X80751828Y-108834685D01*
X81001828Y-108834685D01*
X81073257Y-108870400D01*
X81108971Y-108906114D01*
X81144685Y-108977542D01*
X81144685Y-109048971D01*
X81108971Y-109120400D01*
X81073257Y-109156114D01*
X81001828Y-109191828D01*
X80751828Y-109191828D01*
X81823257Y-109084685D02*
X81823257Y-109584685D01*
X81644685Y-108798971D02*
X81466114Y-109334685D01*
X81930400Y-109334685D01*
X63357142Y-103844285D02*
X63500000Y-103844285D01*
X63571428Y-103808571D01*
X63607142Y-103772857D01*
X63678571Y-103665714D01*
X63714285Y-103522857D01*
X63714285Y-103237142D01*
X63678571Y-103165714D01*
X63642857Y-103130000D01*
X63571428Y-103094285D01*
X63428571Y-103094285D01*
X63357142Y-103130000D01*
X63321428Y-103165714D01*
X63285714Y-103237142D01*
X63285714Y-103415714D01*
X63321428Y-103487142D01*
X63357142Y-103522857D01*
X63428571Y-103558571D01*
X63571428Y-103558571D01*
X63642857Y-103522857D01*
X63678571Y-103487142D01*
X63714285Y-103415714D01*
X61167342Y-122883971D02*
X61274485Y-122919685D01*
X61453057Y-122919685D01*
X61524485Y-122883971D01*
X61560200Y-122848257D01*
X61595914Y-122776828D01*
X61595914Y-122705400D01*
X61560200Y-122633971D01*
X61524485Y-122598257D01*
X61453057Y-122562542D01*
X61310200Y-122526828D01*
X61238771Y-122491114D01*
X61203057Y-122455400D01*
X61167342Y-122383971D01*
X61167342Y-122312542D01*
X61203057Y-122241114D01*
X61238771Y-122205400D01*
X61310200Y-122169685D01*
X61488771Y-122169685D01*
X61595914Y-122205400D01*
X61845914Y-122169685D02*
X62024485Y-122919685D01*
X62167342Y-122383971D01*
X62310200Y-122919685D01*
X62488771Y-122169685D01*
X63203057Y-122848257D02*
X63167342Y-122883971D01*
X63060200Y-122919685D01*
X62988771Y-122919685D01*
X62881628Y-122883971D01*
X62810200Y-122812542D01*
X62774485Y-122741114D01*
X62738771Y-122598257D01*
X62738771Y-122491114D01*
X62774485Y-122348257D01*
X62810200Y-122276828D01*
X62881628Y-122205400D01*
X62988771Y-122169685D01*
X63060200Y-122169685D01*
X63167342Y-122205400D01*
X63203057Y-122241114D01*
X63524485Y-122919685D02*
X63524485Y-122169685D01*
X63953057Y-122919685D02*
X63631628Y-122491114D01*
X63953057Y-122169685D02*
X63524485Y-122598257D01*
X62892857Y-108809285D02*
X63357142Y-108809285D01*
X63107142Y-109095000D01*
X63214285Y-109095000D01*
X63285714Y-109130714D01*
X63321428Y-109166428D01*
X63357142Y-109237857D01*
X63357142Y-109416428D01*
X63321428Y-109487857D01*
X63285714Y-109523571D01*
X63214285Y-109559285D01*
X63000000Y-109559285D01*
X62928571Y-109523571D01*
X62892857Y-109487857D01*
X64000000Y-108809285D02*
X63857142Y-108809285D01*
X63785714Y-108845000D01*
X63750000Y-108880714D01*
X63678571Y-108987857D01*
X63642857Y-109130714D01*
X63642857Y-109416428D01*
X63678571Y-109487857D01*
X63714285Y-109523571D01*
X63785714Y-109559285D01*
X63928571Y-109559285D01*
X64000000Y-109523571D01*
X64035714Y-109487857D01*
X64071428Y-109416428D01*
X64071428Y-109237857D01*
X64035714Y-109166428D01*
X64000000Y-109130714D01*
X63928571Y-109095000D01*
X63785714Y-109095000D01*
X63714285Y-109130714D01*
X63678571Y-109166428D01*
X63642857Y-109237857D01*
X73267142Y-79602371D02*
X73374285Y-79638085D01*
X73552857Y-79638085D01*
X73624285Y-79602371D01*
X73660000Y-79566657D01*
X73695714Y-79495228D01*
X73695714Y-79423800D01*
X73660000Y-79352371D01*
X73624285Y-79316657D01*
X73552857Y-79280942D01*
X73410000Y-79245228D01*
X73338571Y-79209514D01*
X73302857Y-79173800D01*
X73267142Y-79102371D01*
X73267142Y-79030942D01*
X73302857Y-78959514D01*
X73338571Y-78923800D01*
X73410000Y-78888085D01*
X73588571Y-78888085D01*
X73695714Y-78923800D01*
X74017142Y-79638085D02*
X74017142Y-79138085D01*
X74017142Y-78888085D02*
X73981428Y-78923800D01*
X74017142Y-78959514D01*
X74052857Y-78923800D01*
X74017142Y-78888085D01*
X74017142Y-78959514D01*
X80657771Y-91075314D02*
X80693485Y-91039600D01*
X80764914Y-91003885D01*
X80943485Y-91003885D01*
X81014914Y-91039600D01*
X81050628Y-91075314D01*
X81086342Y-91146742D01*
X81086342Y-91218171D01*
X81050628Y-91325314D01*
X80622057Y-91753885D01*
X81086342Y-91753885D01*
X81336342Y-91003885D02*
X81800628Y-91003885D01*
X81550628Y-91289600D01*
X81657771Y-91289600D01*
X81729200Y-91325314D01*
X81764914Y-91361028D01*
X81800628Y-91432457D01*
X81800628Y-91611028D01*
X81764914Y-91682457D01*
X81729200Y-91718171D01*
X81657771Y-91753885D01*
X81443485Y-91753885D01*
X81372057Y-91718171D01*
X81336342Y-91682457D01*
X66245657Y-114676685D02*
X66709942Y-114676685D01*
X66459942Y-114962400D01*
X66567085Y-114962400D01*
X66638514Y-114998114D01*
X66674228Y-115033828D01*
X66709942Y-115105257D01*
X66709942Y-115283828D01*
X66674228Y-115355257D01*
X66638514Y-115390971D01*
X66567085Y-115426685D01*
X66352800Y-115426685D01*
X66281371Y-115390971D01*
X66245657Y-115355257D01*
X67424228Y-115426685D02*
X66995657Y-115426685D01*
X67209942Y-115426685D02*
X67209942Y-114676685D01*
X67138514Y-114783828D01*
X67067085Y-114855257D01*
X66995657Y-114890971D01*
X63158714Y-106697085D02*
X63158714Y-107197085D01*
X62980142Y-106411371D02*
X62801571Y-106947085D01*
X63265857Y-106947085D01*
X63515857Y-106518514D02*
X63551571Y-106482800D01*
X63623000Y-106447085D01*
X63801571Y-106447085D01*
X63873000Y-106482800D01*
X63908714Y-106518514D01*
X63944428Y-106589942D01*
X63944428Y-106661371D01*
X63908714Y-106768514D01*
X63480142Y-107197085D01*
X63944428Y-107197085D01*
X80295809Y-77817000D02*
X80772000Y-77817000D01*
X80391047Y-78434380D02*
X80462476Y-78458190D01*
X80581523Y-78458190D01*
X80629142Y-78434380D01*
X80652952Y-78410571D01*
X80676761Y-78362952D01*
X80676761Y-78315333D01*
X80652952Y-78267714D01*
X80629142Y-78243904D01*
X80581523Y-78220095D01*
X80486285Y-78196285D01*
X80438666Y-78172476D01*
X80414857Y-78148666D01*
X80391047Y-78101047D01*
X80391047Y-78053428D01*
X80414857Y-78005809D01*
X80438666Y-77982000D01*
X80486285Y-77958190D01*
X80605333Y-77958190D01*
X80676761Y-77982000D01*
X80772000Y-77817000D02*
X81248190Y-77817000D01*
X80867238Y-78434380D02*
X80938666Y-78458190D01*
X81057714Y-78458190D01*
X81105333Y-78434380D01*
X81129142Y-78410571D01*
X81152952Y-78362952D01*
X81152952Y-78315333D01*
X81129142Y-78267714D01*
X81105333Y-78243904D01*
X81057714Y-78220095D01*
X80962476Y-78196285D01*
X80914857Y-78172476D01*
X80891047Y-78148666D01*
X80867238Y-78101047D01*
X80867238Y-78053428D01*
X80891047Y-78005809D01*
X80914857Y-77982000D01*
X80962476Y-77958190D01*
X81081523Y-77958190D01*
X81152952Y-77982000D01*
X63113142Y-77821285D02*
X63363142Y-78571285D01*
X63613142Y-77821285D01*
X63863142Y-78571285D02*
X63863142Y-78071285D01*
X63863142Y-77821285D02*
X63827428Y-77857000D01*
X63863142Y-77892714D01*
X63898857Y-77857000D01*
X63863142Y-77821285D01*
X63863142Y-77892714D01*
X64327428Y-78571285D02*
X64256000Y-78535571D01*
X64220285Y-78499857D01*
X64184571Y-78428428D01*
X64184571Y-78214142D01*
X64220285Y-78142714D01*
X64256000Y-78107000D01*
X64327428Y-78071285D01*
X64434571Y-78071285D01*
X64506000Y-78107000D01*
X64541714Y-78142714D01*
X64577428Y-78214142D01*
X64577428Y-78428428D01*
X64541714Y-78499857D01*
X64506000Y-78535571D01*
X64434571Y-78571285D01*
X64327428Y-78571285D01*
X80994285Y-107952771D02*
X81565714Y-107952771D01*
X81027228Y-114246428D02*
X81134371Y-114282142D01*
X81170085Y-114317857D01*
X81205800Y-114389285D01*
X81205800Y-114496428D01*
X81170085Y-114567857D01*
X81134371Y-114603571D01*
X81062942Y-114639285D01*
X80777228Y-114639285D01*
X80777228Y-113889285D01*
X81027228Y-113889285D01*
X81098657Y-113925000D01*
X81134371Y-113960714D01*
X81170085Y-114032142D01*
X81170085Y-114103571D01*
X81134371Y-114175000D01*
X81098657Y-114210714D01*
X81027228Y-114246428D01*
X80777228Y-114246428D01*
X81491514Y-113960714D02*
X81527228Y-113925000D01*
X81598657Y-113889285D01*
X81777228Y-113889285D01*
X81848657Y-113925000D01*
X81884371Y-113960714D01*
X81920085Y-114032142D01*
X81920085Y-114103571D01*
X81884371Y-114210714D01*
X81455800Y-114639285D01*
X81920085Y-114639285D01*
X72343971Y-79566657D02*
X72308257Y-79602371D01*
X72201114Y-79638085D01*
X72129685Y-79638085D01*
X72022542Y-79602371D01*
X71951114Y-79530942D01*
X71915400Y-79459514D01*
X71879685Y-79316657D01*
X71879685Y-79209514D01*
X71915400Y-79066657D01*
X71951114Y-78995228D01*
X72022542Y-78923800D01*
X72129685Y-78888085D01*
X72201114Y-78888085D01*
X72308257Y-78923800D01*
X72343971Y-78959514D01*
X72665400Y-79638085D02*
X72665400Y-78888085D01*
X72736828Y-79352371D02*
X72951114Y-79638085D01*
X72951114Y-79138085D02*
X72665400Y-79423800D01*
X77442285Y-114399600D02*
X77799428Y-114399600D01*
X77370857Y-114613885D02*
X77620857Y-113863885D01*
X77870857Y-114613885D01*
X78085142Y-113935314D02*
X78120857Y-113899600D01*
X78192285Y-113863885D01*
X78370857Y-113863885D01*
X78442285Y-113899600D01*
X78478000Y-113935314D01*
X78513714Y-114006742D01*
X78513714Y-114078171D01*
X78478000Y-114185314D01*
X78049428Y-114613885D01*
X78513714Y-114613885D01*
X62765857Y-98776285D02*
X63230142Y-98776285D01*
X62980142Y-99062000D01*
X63087285Y-99062000D01*
X63158714Y-99097714D01*
X63194428Y-99133428D01*
X63230142Y-99204857D01*
X63230142Y-99383428D01*
X63194428Y-99454857D01*
X63158714Y-99490571D01*
X63087285Y-99526285D01*
X62873000Y-99526285D01*
X62801571Y-99490571D01*
X62765857Y-99454857D01*
X63908714Y-98776285D02*
X63551571Y-98776285D01*
X63515857Y-99133428D01*
X63551571Y-99097714D01*
X63623000Y-99062000D01*
X63801571Y-99062000D01*
X63873000Y-99097714D01*
X63908714Y-99133428D01*
X63944428Y-99204857D01*
X63944428Y-99383428D01*
X63908714Y-99454857D01*
X63873000Y-99490571D01*
X63801571Y-99526285D01*
X63623000Y-99526285D01*
X63551571Y-99490571D01*
X63515857Y-99454857D01*
X62928571Y-113986114D02*
X62964285Y-113950400D01*
X63035714Y-113914685D01*
X63214285Y-113914685D01*
X63285714Y-113950400D01*
X63321428Y-113986114D01*
X63357142Y-114057542D01*
X63357142Y-114128971D01*
X63321428Y-114236114D01*
X62892857Y-114664685D01*
X63357142Y-114664685D01*
X63785714Y-114236114D02*
X63714285Y-114200400D01*
X63678571Y-114164685D01*
X63642857Y-114093257D01*
X63642857Y-114057542D01*
X63678571Y-113986114D01*
X63714285Y-113950400D01*
X63785714Y-113914685D01*
X63928571Y-113914685D01*
X64000000Y-113950400D01*
X64035714Y-113986114D01*
X64071428Y-114057542D01*
X64071428Y-114093257D01*
X64035714Y-114164685D01*
X64000000Y-114200400D01*
X63928571Y-114236114D01*
X63785714Y-114236114D01*
X63714285Y-114271828D01*
X63678571Y-114307542D01*
X63642857Y-114378971D01*
X63642857Y-114521828D01*
X63678571Y-114593257D01*
X63714285Y-114628971D01*
X63785714Y-114664685D01*
X63928571Y-114664685D01*
X64000000Y-114628971D01*
X64035714Y-114593257D01*
X64071428Y-114521828D01*
X64071428Y-114378971D01*
X64035714Y-114307542D01*
X64000000Y-114271828D01*
X63928571Y-114236114D01*
D11*
X78182571Y-122389700D02*
X78932571Y-122389700D01*
X78611142Y-122958628D02*
X78718285Y-122994342D01*
X78754000Y-123030057D01*
X78789714Y-123101485D01*
X78789714Y-123208628D01*
X78754000Y-123280057D01*
X78718285Y-123315771D01*
X78646857Y-123351485D01*
X78361142Y-123351485D01*
X78361142Y-122601485D01*
X78611142Y-122601485D01*
X78682571Y-122637200D01*
X78718285Y-122672914D01*
X78754000Y-122744342D01*
X78754000Y-122815771D01*
X78718285Y-122887200D01*
X78682571Y-122922914D01*
X78611142Y-122958628D01*
X78361142Y-122958628D01*
X78932571Y-122389700D02*
X79718285Y-122389700D01*
X79254000Y-122601485D02*
X79396857Y-122601485D01*
X79468285Y-122637200D01*
X79539714Y-122708628D01*
X79575428Y-122851485D01*
X79575428Y-123101485D01*
X79539714Y-123244342D01*
X79468285Y-123315771D01*
X79396857Y-123351485D01*
X79254000Y-123351485D01*
X79182571Y-123315771D01*
X79111142Y-123244342D01*
X79075428Y-123101485D01*
X79075428Y-122851485D01*
X79111142Y-122708628D01*
X79182571Y-122637200D01*
X79254000Y-122601485D01*
X79718285Y-122389700D02*
X80504000Y-122389700D01*
X80039714Y-122601485D02*
X80182571Y-122601485D01*
X80254000Y-122637200D01*
X80325428Y-122708628D01*
X80361142Y-122851485D01*
X80361142Y-123101485D01*
X80325428Y-123244342D01*
X80254000Y-123315771D01*
X80182571Y-123351485D01*
X80039714Y-123351485D01*
X79968285Y-123315771D01*
X79896857Y-123244342D01*
X79861142Y-123101485D01*
X79861142Y-122851485D01*
X79896857Y-122708628D01*
X79968285Y-122637200D01*
X80039714Y-122601485D01*
X80504000Y-122389700D02*
X81075428Y-122389700D01*
X80575428Y-122601485D02*
X81004000Y-122601485D01*
X80789714Y-123351485D02*
X80789714Y-122601485D01*
D12*
X63285714Y-91279285D02*
X63285714Y-91779285D01*
X63107142Y-90993571D02*
X62928571Y-91529285D01*
X63392857Y-91529285D01*
X64000000Y-91279285D02*
X64000000Y-91779285D01*
X63821428Y-90993571D02*
X63642857Y-91529285D01*
X64107142Y-91529285D01*
X77995538Y-89256809D02*
X77965300Y-89226571D01*
X77935061Y-89166095D01*
X77935061Y-89014904D01*
X77965300Y-88954428D01*
X77995538Y-88924190D01*
X78056014Y-88893952D01*
X78116490Y-88893952D01*
X78207204Y-88924190D01*
X78570061Y-89287047D01*
X78570061Y-88893952D01*
X78570061Y-88289190D02*
X78570061Y-88652047D01*
X78570061Y-88470619D02*
X77935061Y-88470619D01*
X78025776Y-88531095D01*
X78086252Y-88591571D01*
X78116490Y-88652047D01*
X67185457Y-110053885D02*
X67649742Y-110053885D01*
X67399742Y-110339600D01*
X67506885Y-110339600D01*
X67578314Y-110375314D01*
X67614028Y-110411028D01*
X67649742Y-110482457D01*
X67649742Y-110661028D01*
X67614028Y-110732457D01*
X67578314Y-110768171D01*
X67506885Y-110803885D01*
X67292600Y-110803885D01*
X67221171Y-110768171D01*
X67185457Y-110732457D01*
X68292600Y-110303885D02*
X68292600Y-110803885D01*
X68114028Y-110018171D02*
X67935457Y-110553885D01*
X68399742Y-110553885D01*
X81953171Y-122637200D02*
X81881742Y-122601485D01*
X81774600Y-122601485D01*
X81667457Y-122637200D01*
X81596028Y-122708628D01*
X81560314Y-122780057D01*
X81524600Y-122922914D01*
X81524600Y-123030057D01*
X81560314Y-123172914D01*
X81596028Y-123244342D01*
X81667457Y-123315771D01*
X81774600Y-123351485D01*
X81846028Y-123351485D01*
X81953171Y-123315771D01*
X81988885Y-123280057D01*
X81988885Y-123030057D01*
X81846028Y-123030057D01*
X82310314Y-123351485D02*
X82310314Y-122601485D01*
X82738885Y-123351485D01*
X82738885Y-122601485D01*
X83096028Y-123351485D02*
X83096028Y-122601485D01*
X83274600Y-122601485D01*
X83381742Y-122637200D01*
X83453171Y-122708628D01*
X83488885Y-122780057D01*
X83524600Y-122922914D01*
X83524600Y-123030057D01*
X83488885Y-123172914D01*
X83453171Y-123244342D01*
X83381742Y-123315771D01*
X83274600Y-123351485D01*
X83096028Y-123351485D01*
X80420400Y-74343028D02*
X80170400Y-74343028D01*
X80170400Y-74735885D02*
X80170400Y-73985885D01*
X80527542Y-73985885D01*
X80777542Y-74057314D02*
X80813257Y-74021600D01*
X80884685Y-73985885D01*
X81063257Y-73985885D01*
X81134685Y-74021600D01*
X81170400Y-74057314D01*
X81206114Y-74128742D01*
X81206114Y-74200171D01*
X81170400Y-74307314D01*
X80741828Y-74735885D01*
X81206114Y-74735885D01*
X81027228Y-111706428D02*
X81134371Y-111742142D01*
X81170085Y-111777857D01*
X81205800Y-111849285D01*
X81205800Y-111956428D01*
X81170085Y-112027857D01*
X81134371Y-112063571D01*
X81062942Y-112099285D01*
X80777228Y-112099285D01*
X80777228Y-111349285D01*
X81027228Y-111349285D01*
X81098657Y-111385000D01*
X81134371Y-111420714D01*
X81170085Y-111492142D01*
X81170085Y-111563571D01*
X81134371Y-111635000D01*
X81098657Y-111670714D01*
X81027228Y-111706428D01*
X80777228Y-111706428D01*
X81455800Y-111349285D02*
X81920085Y-111349285D01*
X81670085Y-111635000D01*
X81777228Y-111635000D01*
X81848657Y-111670714D01*
X81884371Y-111706428D01*
X81920085Y-111777857D01*
X81920085Y-111956428D01*
X81884371Y-112027857D01*
X81848657Y-112063571D01*
X81777228Y-112099285D01*
X81562942Y-112099285D01*
X81491514Y-112063571D01*
X81455800Y-112027857D01*
X63214285Y-95252771D02*
X63785714Y-95252771D01*
X63500000Y-95538485D02*
X63500000Y-94967057D01*
X80994285Y-85092771D02*
X81565714Y-85092771D01*
X76002028Y-102161571D02*
X76037742Y-102125857D01*
X76109171Y-102090142D01*
X76252028Y-102161571D01*
X76323457Y-102125857D01*
X76359171Y-102090142D01*
X76787742Y-101697285D02*
X76859171Y-101697285D01*
X76930600Y-101733000D01*
X76966314Y-101768714D01*
X77002028Y-101840142D01*
X77037742Y-101983000D01*
X77037742Y-102161571D01*
X77002028Y-102304428D01*
X76966314Y-102375857D01*
X76930600Y-102411571D01*
X76859171Y-102447285D01*
X76787742Y-102447285D01*
X76716314Y-102411571D01*
X76680600Y-102375857D01*
X76644885Y-102304428D01*
X76609171Y-102161571D01*
X76609171Y-101983000D01*
X76644885Y-101840142D01*
X76680600Y-101768714D01*
X76716314Y-101733000D01*
X76787742Y-101697285D01*
X72443571Y-75926428D02*
X72550714Y-75962142D01*
X72586428Y-75997857D01*
X72622142Y-76069285D01*
X72622142Y-76176428D01*
X72586428Y-76247857D01*
X72550714Y-76283571D01*
X72479285Y-76319285D01*
X72193571Y-76319285D01*
X72193571Y-75569285D01*
X72443571Y-75569285D01*
X72515000Y-75605000D01*
X72550714Y-75640714D01*
X72586428Y-75712142D01*
X72586428Y-75783571D01*
X72550714Y-75855000D01*
X72515000Y-75890714D01*
X72443571Y-75926428D01*
X72193571Y-75926428D01*
X80994285Y-82552771D02*
X81565714Y-82552771D01*
X81280000Y-82838485D02*
X81280000Y-82267057D01*
X77733542Y-86750085D02*
X77304971Y-86750085D01*
X77519257Y-86750085D02*
X77519257Y-86000085D01*
X77447828Y-86107228D01*
X77376400Y-86178657D01*
X77304971Y-86214371D01*
X78090685Y-86750085D02*
X78233542Y-86750085D01*
X78304971Y-86714371D01*
X78340685Y-86678657D01*
X78412114Y-86571514D01*
X78447828Y-86428657D01*
X78447828Y-86142942D01*
X78412114Y-86071514D01*
X78376400Y-86035800D01*
X78304971Y-86000085D01*
X78162114Y-86000085D01*
X78090685Y-86035800D01*
X78054971Y-86071514D01*
X78019257Y-86142942D01*
X78019257Y-86321514D01*
X78054971Y-86392942D01*
X78090685Y-86428657D01*
X78162114Y-86464371D01*
X78304971Y-86464371D01*
X78376400Y-86428657D01*
X78412114Y-86392942D01*
X78447828Y-86321514D01*
X76680333Y-100183190D02*
X76847000Y-100683190D01*
X77013666Y-100183190D01*
X77347000Y-100421285D02*
X77418428Y-100445095D01*
X77442238Y-100468904D01*
X77466047Y-100516523D01*
X77466047Y-100587952D01*
X77442238Y-100635571D01*
X77418428Y-100659380D01*
X77370809Y-100683190D01*
X77180333Y-100683190D01*
X77180333Y-100183190D01*
X77347000Y-100183190D01*
X77394619Y-100207000D01*
X77418428Y-100230809D01*
X77442238Y-100278428D01*
X77442238Y-100326047D01*
X77418428Y-100373666D01*
X77394619Y-100397476D01*
X77347000Y-100421285D01*
X77180333Y-100421285D01*
X77680333Y-100183190D02*
X77680333Y-100587952D01*
X77704142Y-100635571D01*
X77727952Y-100659380D01*
X77775571Y-100683190D01*
X77870809Y-100683190D01*
X77918428Y-100659380D01*
X77942238Y-100635571D01*
X77966047Y-100587952D01*
X77966047Y-100183190D01*
X78180333Y-100659380D02*
X78251761Y-100683190D01*
X78370809Y-100683190D01*
X78418428Y-100659380D01*
X78442238Y-100635571D01*
X78466047Y-100587952D01*
X78466047Y-100540333D01*
X78442238Y-100492714D01*
X78418428Y-100468904D01*
X78370809Y-100445095D01*
X78275571Y-100421285D01*
X78227952Y-100397476D01*
X78204142Y-100373666D01*
X78180333Y-100326047D01*
X78180333Y-100278428D01*
X78204142Y-100230809D01*
X78227952Y-100207000D01*
X78275571Y-100183190D01*
X78394619Y-100183190D01*
X78466047Y-100207000D01*
X70082142Y-76285285D02*
X69832142Y-75928142D01*
X69653571Y-76285285D02*
X69653571Y-75535285D01*
X69939285Y-75535285D01*
X70010714Y-75571000D01*
X70046428Y-75606714D01*
X70082142Y-75678142D01*
X70082142Y-75785285D01*
X70046428Y-75856714D01*
X70010714Y-75892428D01*
X69939285Y-75928142D01*
X69653571Y-75928142D01*
X66706809Y-75785000D02*
X67183000Y-75785000D01*
X66802047Y-76402380D02*
X66873476Y-76426190D01*
X66992523Y-76426190D01*
X67040142Y-76402380D01*
X67063952Y-76378571D01*
X67087761Y-76330952D01*
X67087761Y-76283333D01*
X67063952Y-76235714D01*
X67040142Y-76211904D01*
X66992523Y-76188095D01*
X66897285Y-76164285D01*
X66849666Y-76140476D01*
X66825857Y-76116666D01*
X66802047Y-76069047D01*
X66802047Y-76021428D01*
X66825857Y-75973809D01*
X66849666Y-75950000D01*
X66897285Y-75926190D01*
X67016333Y-75926190D01*
X67087761Y-75950000D01*
X67183000Y-75785000D02*
X67659190Y-75785000D01*
X67278238Y-76402380D02*
X67349666Y-76426190D01*
X67468714Y-76426190D01*
X67516333Y-76402380D01*
X67540142Y-76378571D01*
X67563952Y-76330952D01*
X67563952Y-76283333D01*
X67540142Y-76235714D01*
X67516333Y-76211904D01*
X67468714Y-76188095D01*
X67373476Y-76164285D01*
X67325857Y-76140476D01*
X67302047Y-76116666D01*
X67278238Y-76069047D01*
X67278238Y-76021428D01*
X67302047Y-75973809D01*
X67325857Y-75950000D01*
X67373476Y-75926190D01*
X67492523Y-75926190D01*
X67563952Y-75950000D01*
X63285714Y-88739285D02*
X63285714Y-89239285D01*
X63107142Y-88453571D02*
X62928571Y-88989285D01*
X63392857Y-88989285D01*
X64000000Y-88489285D02*
X63857142Y-88489285D01*
X63785714Y-88525000D01*
X63750000Y-88560714D01*
X63678571Y-88667857D01*
X63642857Y-88810714D01*
X63642857Y-89096428D01*
X63678571Y-89167857D01*
X63714285Y-89203571D01*
X63785714Y-89239285D01*
X63928571Y-89239285D01*
X64000000Y-89203571D01*
X64035714Y-89167857D01*
X64071428Y-89096428D01*
X64071428Y-88917857D01*
X64035714Y-88846428D01*
X64000000Y-88810714D01*
X63928571Y-88775000D01*
X63785714Y-88775000D01*
X63714285Y-88810714D01*
X63678571Y-88846428D01*
X63642857Y-88917857D01*
X80994285Y-105412771D02*
X81565714Y-105412771D01*
X81280000Y-105698485D02*
X81280000Y-105127057D01*
X63214285Y-92712771D02*
X63785714Y-92712771D01*
X77442285Y-109370400D02*
X77799428Y-109370400D01*
X77370857Y-109584685D02*
X77620857Y-108834685D01*
X77870857Y-109584685D01*
X78442285Y-109084685D02*
X78442285Y-109584685D01*
X78263714Y-108798971D02*
X78085142Y-109334685D01*
X78549428Y-109334685D01*
X66257514Y-85893714D02*
X66293228Y-85858000D01*
X66364657Y-85822285D01*
X66543228Y-85822285D01*
X66614657Y-85858000D01*
X66650371Y-85893714D01*
X66686085Y-85965142D01*
X66686085Y-86036571D01*
X66650371Y-86143714D01*
X66221800Y-86572285D01*
X66686085Y-86572285D01*
X80601428Y-98645000D02*
X81101428Y-98645000D01*
X81006190Y-99286190D02*
X80839523Y-99048095D01*
X80720476Y-99286190D02*
X80720476Y-98786190D01*
X80910952Y-98786190D01*
X80958571Y-98810000D01*
X80982380Y-98833809D01*
X81006190Y-98881428D01*
X81006190Y-98952857D01*
X80982380Y-99000476D01*
X80958571Y-99024285D01*
X80910952Y-99048095D01*
X80720476Y-99048095D01*
X81101428Y-98645000D02*
X81577619Y-98645000D01*
X81196666Y-99262380D02*
X81268095Y-99286190D01*
X81387142Y-99286190D01*
X81434761Y-99262380D01*
X81458571Y-99238571D01*
X81482380Y-99190952D01*
X81482380Y-99143333D01*
X81458571Y-99095714D01*
X81434761Y-99071904D01*
X81387142Y-99048095D01*
X81291904Y-99024285D01*
X81244285Y-99000476D01*
X81220476Y-98976666D01*
X81196666Y-98929047D01*
X81196666Y-98881428D01*
X81220476Y-98833809D01*
X81244285Y-98810000D01*
X81291904Y-98786190D01*
X81410952Y-98786190D01*
X81482380Y-98810000D01*
X81577619Y-98645000D02*
X81958571Y-98645000D01*
X81625238Y-98786190D02*
X81910952Y-98786190D01*
X81768095Y-99286190D02*
X81768095Y-98786190D01*
X66557542Y-100643885D02*
X66128971Y-100643885D01*
X66343257Y-100643885D02*
X66343257Y-99893885D01*
X66271828Y-100001028D01*
X66200400Y-100072457D01*
X66128971Y-100108171D01*
X67271828Y-100643885D02*
X66843257Y-100643885D01*
X67057542Y-100643885D02*
X67057542Y-99893885D01*
X66986114Y-100001028D01*
X66914685Y-100072457D01*
X66843257Y-100108171D01*
X74999428Y-75571000D02*
X74928000Y-75535285D01*
X74820857Y-75535285D01*
X74713714Y-75571000D01*
X74642285Y-75642428D01*
X74606571Y-75713857D01*
X74570857Y-75856714D01*
X74570857Y-75963857D01*
X74606571Y-76106714D01*
X74642285Y-76178142D01*
X74713714Y-76249571D01*
X74820857Y-76285285D01*
X74892285Y-76285285D01*
X74999428Y-76249571D01*
X75035142Y-76213857D01*
X75035142Y-75963857D01*
X74892285Y-75963857D01*
X66511514Y-91279285D02*
X66511514Y-91779285D01*
X66332942Y-90993571D02*
X66154371Y-91529285D01*
X66618657Y-91529285D01*
X67261514Y-91029285D02*
X66904371Y-91029285D01*
X66868657Y-91386428D01*
X66904371Y-91350714D01*
X66975800Y-91315000D01*
X67154371Y-91315000D01*
X67225800Y-91350714D01*
X67261514Y-91386428D01*
X67297228Y-91457857D01*
X67297228Y-91636428D01*
X67261514Y-91707857D01*
X67225800Y-91743571D01*
X67154371Y-91779285D01*
X66975800Y-91779285D01*
X66904371Y-91743571D01*
X66868657Y-91707857D01*
X77220000Y-76019428D02*
X76970000Y-76019428D01*
X76970000Y-76412285D02*
X76970000Y-75662285D01*
X77327142Y-75662285D01*
X77541428Y-75662285D02*
X78005714Y-75662285D01*
X77755714Y-75948000D01*
X77862857Y-75948000D01*
X77934285Y-75983714D01*
X77970000Y-76019428D01*
X78005714Y-76090857D01*
X78005714Y-76269428D01*
X77970000Y-76340857D01*
X77934285Y-76376571D01*
X77862857Y-76412285D01*
X77648571Y-76412285D01*
X77577142Y-76376571D01*
X77541428Y-76340857D01*
X62943657Y-111400085D02*
X63407942Y-111400085D01*
X63157942Y-111685800D01*
X63265085Y-111685800D01*
X63336514Y-111721514D01*
X63372228Y-111757228D01*
X63407942Y-111828657D01*
X63407942Y-112007228D01*
X63372228Y-112078657D01*
X63336514Y-112114371D01*
X63265085Y-112150085D01*
X63050800Y-112150085D01*
X62979371Y-112114371D01*
X62943657Y-112078657D01*
X63693657Y-111471514D02*
X63729371Y-111435800D01*
X63800800Y-111400085D01*
X63979371Y-111400085D01*
X64050800Y-111435800D01*
X64086514Y-111471514D01*
X64122228Y-111542942D01*
X64122228Y-111614371D01*
X64086514Y-111721514D01*
X63657942Y-112150085D01*
X64122228Y-112150085D01*
X64463342Y-122883971D02*
X64570485Y-122919685D01*
X64749057Y-122919685D01*
X64820485Y-122883971D01*
X64856200Y-122848257D01*
X64891914Y-122776828D01*
X64891914Y-122705400D01*
X64856200Y-122633971D01*
X64820485Y-122598257D01*
X64749057Y-122562542D01*
X64606200Y-122526828D01*
X64534771Y-122491114D01*
X64499057Y-122455400D01*
X64463342Y-122383971D01*
X64463342Y-122312542D01*
X64499057Y-122241114D01*
X64534771Y-122205400D01*
X64606200Y-122169685D01*
X64784771Y-122169685D01*
X64891914Y-122205400D01*
X65141914Y-122169685D02*
X65320485Y-122919685D01*
X65463342Y-122383971D01*
X65606200Y-122919685D01*
X65784771Y-122169685D01*
X66070485Y-122919685D02*
X66070485Y-122169685D01*
X66249057Y-122169685D01*
X66356200Y-122205400D01*
X66427628Y-122276828D01*
X66463342Y-122348257D01*
X66499057Y-122491114D01*
X66499057Y-122598257D01*
X66463342Y-122741114D01*
X66427628Y-122812542D01*
X66356200Y-122883971D01*
X66249057Y-122919685D01*
X66070485Y-122919685D01*
X66220257Y-108809285D02*
X66684542Y-108809285D01*
X66434542Y-109095000D01*
X66541685Y-109095000D01*
X66613114Y-109130714D01*
X66648828Y-109166428D01*
X66684542Y-109237857D01*
X66684542Y-109416428D01*
X66648828Y-109487857D01*
X66613114Y-109523571D01*
X66541685Y-109559285D01*
X66327400Y-109559285D01*
X66255971Y-109523571D01*
X66220257Y-109487857D01*
X67113114Y-109130714D02*
X67041685Y-109095000D01*
X67005971Y-109059285D01*
X66970257Y-108987857D01*
X66970257Y-108952142D01*
X67005971Y-108880714D01*
X67041685Y-108845000D01*
X67113114Y-108809285D01*
X67255971Y-108809285D01*
X67327400Y-108845000D01*
X67363114Y-108880714D01*
X67398828Y-108952142D01*
X67398828Y-108987857D01*
X67363114Y-109059285D01*
X67327400Y-109095000D01*
X67255971Y-109130714D01*
X67113114Y-109130714D01*
X67041685Y-109166428D01*
X67005971Y-109202142D01*
X66970257Y-109273571D01*
X66970257Y-109416428D01*
X67005971Y-109487857D01*
X67041685Y-109523571D01*
X67113114Y-109559285D01*
X67255971Y-109559285D01*
X67327400Y-109523571D01*
X67363114Y-109487857D01*
X67398828Y-109416428D01*
X67398828Y-109273571D01*
X67363114Y-109202142D01*
X67327400Y-109166428D01*
X67255971Y-109130714D01*
X63258095Y-115564557D02*
X63741904Y-115564557D01*
X63214285Y-118112771D02*
X63785714Y-118112771D01*
X63500000Y-118398485D02*
X63500000Y-117827057D01*
X81137142Y-89264685D02*
X80708571Y-89264685D01*
X80922857Y-89264685D02*
X80922857Y-88514685D01*
X80851428Y-88621828D01*
X80780000Y-88693257D01*
X80708571Y-88728971D01*
X81565714Y-88836114D02*
X81494285Y-88800400D01*
X81458571Y-88764685D01*
X81422857Y-88693257D01*
X81422857Y-88657542D01*
X81458571Y-88586114D01*
X81494285Y-88550400D01*
X81565714Y-88514685D01*
X81708571Y-88514685D01*
X81780000Y-88550400D01*
X81815714Y-88586114D01*
X81851428Y-88657542D01*
X81851428Y-88693257D01*
X81815714Y-88764685D01*
X81780000Y-88800400D01*
X81708571Y-88836114D01*
X81565714Y-88836114D01*
X81494285Y-88871828D01*
X81458571Y-88907542D01*
X81422857Y-88978971D01*
X81422857Y-89121828D01*
X81458571Y-89193257D01*
X81494285Y-89228971D01*
X81565714Y-89264685D01*
X81708571Y-89264685D01*
X81780000Y-89228971D01*
X81815714Y-89193257D01*
X81851428Y-89121828D01*
X81851428Y-88978971D01*
X81815714Y-88907542D01*
X81780000Y-88871828D01*
X81708571Y-88836114D01*
X77970138Y-94413009D02*
X77939900Y-94382771D01*
X77909661Y-94322295D01*
X77909661Y-94171104D01*
X77939900Y-94110628D01*
X77970138Y-94080390D01*
X78030614Y-94050152D01*
X78091090Y-94050152D01*
X78181804Y-94080390D01*
X78544661Y-94443247D01*
X78544661Y-94050152D01*
X77909661Y-93838485D02*
X77909661Y-93415152D01*
X78544661Y-93687295D01*
X63230142Y-101867857D02*
X63194428Y-101903571D01*
X63087285Y-101939285D01*
X63015857Y-101939285D01*
X62908714Y-101903571D01*
X62837285Y-101832142D01*
X62801571Y-101760714D01*
X62765857Y-101617857D01*
X62765857Y-101510714D01*
X62801571Y-101367857D01*
X62837285Y-101296428D01*
X62908714Y-101225000D01*
X63015857Y-101189285D01*
X63087285Y-101189285D01*
X63194428Y-101225000D01*
X63230142Y-101260714D01*
X63551571Y-101939285D02*
X63551571Y-101189285D01*
X63980142Y-101939285D02*
X63658714Y-101510714D01*
X63980142Y-101189285D02*
X63551571Y-101617857D01*
X66562314Y-106671685D02*
X66562314Y-107171685D01*
X66383742Y-106385971D02*
X66205171Y-106921685D01*
X66669457Y-106921685D01*
X66883742Y-106421685D02*
X67348028Y-106421685D01*
X67098028Y-106707400D01*
X67205171Y-106707400D01*
X67276600Y-106743114D01*
X67312314Y-106778828D01*
X67348028Y-106850257D01*
X67348028Y-107028828D01*
X67312314Y-107100257D01*
X67276600Y-107135971D01*
X67205171Y-107171685D01*
X66990885Y-107171685D01*
X66919457Y-107135971D01*
X66883742Y-107100257D01*
X77620085Y-116812600D02*
X77977228Y-116812600D01*
X77548657Y-117026885D02*
X77798657Y-116276885D01*
X78048657Y-117026885D01*
X78691514Y-117026885D02*
X78262942Y-117026885D01*
X78477228Y-117026885D02*
X78477228Y-116276885D01*
X78405800Y-116384028D01*
X78334371Y-116455457D01*
X78262942Y-116491171D01*
X66589257Y-83532285D02*
X66589257Y-84032285D01*
X66410685Y-83246571D02*
X66232114Y-83782285D01*
X66696400Y-83782285D01*
X63123000Y-83282285D02*
X63587285Y-83282285D01*
X63337285Y-83568000D01*
X63444428Y-83568000D01*
X63515857Y-83603714D01*
X63551571Y-83639428D01*
X63587285Y-83710857D01*
X63587285Y-83889428D01*
X63551571Y-83960857D01*
X63515857Y-83996571D01*
X63444428Y-84032285D01*
X63230142Y-84032285D01*
X63158714Y-83996571D01*
X63123000Y-83960857D01*
X81103428Y-116659428D02*
X81210571Y-116695142D01*
X81246285Y-116730857D01*
X81282000Y-116802285D01*
X81282000Y-116909428D01*
X81246285Y-116980857D01*
X81210571Y-117016571D01*
X81139142Y-117052285D01*
X80853428Y-117052285D01*
X80853428Y-116302285D01*
X81103428Y-116302285D01*
X81174857Y-116338000D01*
X81210571Y-116373714D01*
X81246285Y-116445142D01*
X81246285Y-116516571D01*
X81210571Y-116588000D01*
X81174857Y-116623714D01*
X81103428Y-116659428D01*
X80853428Y-116659428D01*
X81996285Y-117052285D02*
X81567714Y-117052285D01*
X81782000Y-117052285D02*
X81782000Y-116302285D01*
X81710571Y-116409428D01*
X81639142Y-116480857D01*
X81567714Y-116516571D01*
X77442285Y-111732600D02*
X77799428Y-111732600D01*
X77370857Y-111946885D02*
X77620857Y-111196885D01*
X77870857Y-111946885D01*
X78049428Y-111196885D02*
X78513714Y-111196885D01*
X78263714Y-111482600D01*
X78370857Y-111482600D01*
X78442285Y-111518314D01*
X78478000Y-111554028D01*
X78513714Y-111625457D01*
X78513714Y-111804028D01*
X78478000Y-111875457D01*
X78442285Y-111911171D01*
X78370857Y-111946885D01*
X78156571Y-111946885D01*
X78085142Y-111911171D01*
X78049428Y-111875457D01*
D11*
X62378166Y-80462966D02*
X61489166Y-80462966D01*
X61489166Y-80251300D01*
X61531500Y-80124300D01*
X61616166Y-80039633D01*
X61700833Y-79997300D01*
X61870166Y-79954966D01*
X61997166Y-79954966D01*
X62166500Y-79997300D01*
X62251166Y-80039633D01*
X62335833Y-80124300D01*
X62378166Y-80251300D01*
X62378166Y-80462966D01*
X61489166Y-79658633D02*
X61489166Y-79108300D01*
X61827833Y-79404633D01*
X61827833Y-79277633D01*
X61870166Y-79192966D01*
X61912500Y-79150633D01*
X61997166Y-79108300D01*
X62208833Y-79108300D01*
X62293500Y-79150633D01*
X62335833Y-79192966D01*
X62378166Y-79277633D01*
X62378166Y-79531633D01*
X62335833Y-79616300D01*
X62293500Y-79658633D01*
D13*
X61896666Y-123632980D02*
X61896666Y-124347266D01*
X61849047Y-124490123D01*
X61753809Y-124585361D01*
X61610952Y-124632980D01*
X61515714Y-124632980D01*
X62325238Y-123728219D02*
X62372857Y-123680600D01*
X62468095Y-123632980D01*
X62706190Y-123632980D01*
X62801428Y-123680600D01*
X62849047Y-123728219D01*
X62896666Y-123823457D01*
X62896666Y-123918695D01*
X62849047Y-124061552D01*
X62277619Y-124632980D01*
X62896666Y-124632980D01*
D11*
X68410666Y-84052833D02*
X68537666Y-84095166D01*
X68749333Y-84095166D01*
X68834000Y-84052833D01*
X68876333Y-84010500D01*
X68918666Y-83925833D01*
X68918666Y-83841166D01*
X68876333Y-83756500D01*
X68834000Y-83714166D01*
X68749333Y-83671833D01*
X68580000Y-83629500D01*
X68495333Y-83587166D01*
X68453000Y-83544833D01*
X68410666Y-83460166D01*
X68410666Y-83375500D01*
X68453000Y-83290833D01*
X68495333Y-83248500D01*
X68580000Y-83206166D01*
X68791666Y-83206166D01*
X68918666Y-83248500D01*
X69215000Y-83206166D02*
X69426666Y-84095166D01*
X69596000Y-83460166D01*
X69765333Y-84095166D01*
X69977000Y-83206166D01*
X70273333Y-83290833D02*
X70315666Y-83248500D01*
X70400333Y-83206166D01*
X70612000Y-83206166D01*
X70696666Y-83248500D01*
X70739000Y-83290833D01*
X70781333Y-83375500D01*
X70781333Y-83460166D01*
X70739000Y-83587166D01*
X70231000Y-84095166D01*
X70781333Y-84095166D01*
X76724933Y-97379366D02*
X76724933Y-98014366D01*
X76682600Y-98141366D01*
X76597933Y-98226033D01*
X76470933Y-98268366D01*
X76386266Y-98268366D01*
X77613933Y-98268366D02*
X77105933Y-98268366D01*
X77359933Y-98268366D02*
X77359933Y-97379366D01*
X77275266Y-97506366D01*
X77190600Y-97591033D01*
X77105933Y-97633366D01*
X78164266Y-97379366D02*
X78248933Y-97379366D01*
X78333600Y-97421700D01*
X78375933Y-97464033D01*
X78418266Y-97548700D01*
X78460600Y-97718033D01*
X78460600Y-97929700D01*
X78418266Y-98099033D01*
X78375933Y-98183700D01*
X78333600Y-98226033D01*
X78248933Y-98268366D01*
X78164266Y-98268366D01*
X78079600Y-98226033D01*
X78037266Y-98183700D01*
X77994933Y-98099033D01*
X77952600Y-97929700D01*
X77952600Y-97718033D01*
X77994933Y-97548700D01*
X78037266Y-97464033D01*
X78079600Y-97421700D01*
X78164266Y-97379366D01*
X67140666Y-86508166D02*
X67140666Y-87143166D01*
X67098333Y-87270166D01*
X67013666Y-87354833D01*
X66886666Y-87397166D01*
X66802000Y-87397166D01*
X67945000Y-86804500D02*
X67945000Y-87397166D01*
X67733333Y-86465833D02*
X67521666Y-87100833D01*
X68072000Y-87100833D01*
X77580066Y-121052166D02*
X77580066Y-121687166D01*
X77537733Y-121814166D01*
X77453066Y-121898833D01*
X77326066Y-121941166D01*
X77241400Y-121941166D01*
X78045733Y-121941166D02*
X78215066Y-121941166D01*
X78299733Y-121898833D01*
X78342066Y-121856500D01*
X78426733Y-121729500D01*
X78469066Y-121560166D01*
X78469066Y-121221500D01*
X78426733Y-121136833D01*
X78384400Y-121094500D01*
X78299733Y-121052166D01*
X78130400Y-121052166D01*
X78045733Y-121094500D01*
X78003400Y-121136833D01*
X77961066Y-121221500D01*
X77961066Y-121433166D01*
X78003400Y-121517833D01*
X78045733Y-121560166D01*
X78130400Y-121602500D01*
X78299733Y-121602500D01*
X78384400Y-121560166D01*
X78426733Y-121517833D01*
X78469066Y-121433166D01*
X78189666Y-126767166D02*
X78189666Y-127402166D01*
X78147333Y-127529166D01*
X78062666Y-127613833D01*
X77935666Y-127656166D01*
X77851000Y-127656166D01*
X79078666Y-127656166D02*
X78570666Y-127656166D01*
X78824666Y-127656166D02*
X78824666Y-126767166D01*
X78740000Y-126894166D01*
X78655333Y-126978833D01*
X78570666Y-127021166D01*
X72821800Y-102671033D02*
X72948800Y-102713366D01*
X73160466Y-102713366D01*
X73245133Y-102671033D01*
X73287466Y-102628700D01*
X73329800Y-102544033D01*
X73329800Y-102459366D01*
X73287466Y-102374700D01*
X73245133Y-102332366D01*
X73160466Y-102290033D01*
X72991133Y-102247700D01*
X72906466Y-102205366D01*
X72864133Y-102163033D01*
X72821800Y-102078366D01*
X72821800Y-101993700D01*
X72864133Y-101909033D01*
X72906466Y-101866700D01*
X72991133Y-101824366D01*
X73202800Y-101824366D01*
X73329800Y-101866700D01*
X73964800Y-101824366D02*
X73964800Y-102459366D01*
X73922466Y-102586366D01*
X73837800Y-102671033D01*
X73710800Y-102713366D01*
X73626133Y-102713366D01*
X74769133Y-101824366D02*
X74599800Y-101824366D01*
X74515133Y-101866700D01*
X74472800Y-101909033D01*
X74388133Y-102036033D01*
X74345800Y-102205366D01*
X74345800Y-102544033D01*
X74388133Y-102628700D01*
X74430466Y-102671033D01*
X74515133Y-102713366D01*
X74684466Y-102713366D01*
X74769133Y-102671033D01*
X74811466Y-102628700D01*
X74853800Y-102544033D01*
X74853800Y-102332366D01*
X74811466Y-102247700D01*
X74769133Y-102205366D01*
X74684466Y-102163033D01*
X74515133Y-102163033D01*
X74430466Y-102205366D01*
X74388133Y-102247700D01*
X74345800Y-102332366D01*
X67106800Y-103890233D02*
X67233800Y-103932566D01*
X67445466Y-103932566D01*
X67530133Y-103890233D01*
X67572466Y-103847900D01*
X67614800Y-103763233D01*
X67614800Y-103678566D01*
X67572466Y-103593900D01*
X67530133Y-103551566D01*
X67445466Y-103509233D01*
X67276133Y-103466900D01*
X67191466Y-103424566D01*
X67149133Y-103382233D01*
X67106800Y-103297566D01*
X67106800Y-103212900D01*
X67149133Y-103128233D01*
X67191466Y-103085900D01*
X67276133Y-103043566D01*
X67487800Y-103043566D01*
X67614800Y-103085900D01*
X68249800Y-103043566D02*
X68249800Y-103678566D01*
X68207466Y-103805566D01*
X68122800Y-103890233D01*
X67995800Y-103932566D01*
X67911133Y-103932566D01*
X69096466Y-103043566D02*
X68673133Y-103043566D01*
X68630800Y-103466900D01*
X68673133Y-103424566D01*
X68757800Y-103382233D01*
X68969466Y-103382233D01*
X69054133Y-103424566D01*
X69096466Y-103466900D01*
X69138800Y-103551566D01*
X69138800Y-103763233D01*
X69096466Y-103847900D01*
X69054133Y-103890233D01*
X68969466Y-103932566D01*
X68757800Y-103932566D01*
X68673133Y-103890233D01*
X68630800Y-103847900D01*
X77580066Y-118435966D02*
X77580066Y-119070966D01*
X77537733Y-119197966D01*
X77453066Y-119282633D01*
X77326066Y-119324966D01*
X77241400Y-119324966D01*
X77918733Y-118435966D02*
X78469066Y-118435966D01*
X78172733Y-118774633D01*
X78299733Y-118774633D01*
X78384400Y-118816966D01*
X78426733Y-118859300D01*
X78469066Y-118943966D01*
X78469066Y-119155633D01*
X78426733Y-119240300D01*
X78384400Y-119282633D01*
X78299733Y-119324966D01*
X78045733Y-119324966D01*
X77961066Y-119282633D01*
X77918733Y-119240300D01*
X74654833Y-83460166D02*
X74654833Y-82571166D01*
X74866500Y-82571166D01*
X74993500Y-82613500D01*
X75078166Y-82698166D01*
X75120500Y-82782833D01*
X75162833Y-82952166D01*
X75162833Y-83079166D01*
X75120500Y-83248500D01*
X75078166Y-83333166D01*
X74993500Y-83417833D01*
X74866500Y-83460166D01*
X74654833Y-83460166D01*
X75501500Y-82655833D02*
X75543833Y-82613500D01*
X75628500Y-82571166D01*
X75840166Y-82571166D01*
X75924833Y-82613500D01*
X75967166Y-82655833D01*
X76009500Y-82740500D01*
X76009500Y-82825166D01*
X75967166Y-82952166D01*
X75459166Y-83460166D01*
X76009500Y-83460166D01*
X79815266Y-78964366D02*
X79815266Y-79599366D01*
X79772933Y-79726366D01*
X79688266Y-79811033D01*
X79561266Y-79853366D01*
X79476600Y-79853366D01*
X80153933Y-78964366D02*
X80746600Y-78964366D01*
X80365600Y-79853366D01*
X74265366Y-100605166D02*
X74773366Y-100605166D01*
X74519366Y-101494166D02*
X74519366Y-100605166D01*
X75069700Y-101494166D02*
X75069700Y-100605166D01*
X75408366Y-100605166D01*
X75493033Y-100647500D01*
X75535366Y-100689833D01*
X75577700Y-100774500D01*
X75577700Y-100901500D01*
X75535366Y-100986166D01*
X75493033Y-101028500D01*
X75408366Y-101070833D01*
X75069700Y-101070833D01*
X76424366Y-101494166D02*
X75916366Y-101494166D01*
X76170366Y-101494166D02*
X76170366Y-100605166D01*
X76085700Y-100732166D01*
X76001033Y-100816833D01*
X75916366Y-100859166D01*
X70849066Y-121695633D02*
X70976066Y-121737966D01*
X71187733Y-121737966D01*
X71272400Y-121695633D01*
X71314733Y-121653300D01*
X71357066Y-121568633D01*
X71357066Y-121483966D01*
X71314733Y-121399300D01*
X71272400Y-121356966D01*
X71187733Y-121314633D01*
X71018400Y-121272300D01*
X70933733Y-121229966D01*
X70891400Y-121187633D01*
X70849066Y-121102966D01*
X70849066Y-121018300D01*
X70891400Y-120933633D01*
X70933733Y-120891300D01*
X71018400Y-120848966D01*
X71230066Y-120848966D01*
X71357066Y-120891300D01*
X71653400Y-120848966D02*
X71865066Y-121737966D01*
X72034400Y-121102966D01*
X72203733Y-121737966D01*
X72415400Y-120848966D01*
X73219733Y-121737966D02*
X72711733Y-121737966D01*
X72965733Y-121737966D02*
X72965733Y-120848966D01*
X72881066Y-120975966D01*
X72796400Y-121060633D01*
X72711733Y-121102966D01*
X77605466Y-94686966D02*
X77605466Y-95321966D01*
X77563133Y-95448966D01*
X77478466Y-95533633D01*
X77351466Y-95575966D01*
X77266800Y-95575966D01*
X78409800Y-94686966D02*
X78240466Y-94686966D01*
X78155800Y-94729300D01*
X78113466Y-94771633D01*
X78028800Y-94898633D01*
X77986466Y-95067966D01*
X77986466Y-95406633D01*
X78028800Y-95491300D01*
X78071133Y-95533633D01*
X78155800Y-95575966D01*
X78325133Y-95575966D01*
X78409800Y-95533633D01*
X78452133Y-95491300D01*
X78494466Y-95406633D01*
X78494466Y-95194966D01*
X78452133Y-95110300D01*
X78409800Y-95067966D01*
X78325133Y-95025633D01*
X78155800Y-95025633D01*
X78071133Y-95067966D01*
X78028800Y-95110300D01*
X77986466Y-95194966D01*
X68486866Y-108504566D02*
X68486866Y-109139566D01*
X68444533Y-109266566D01*
X68359866Y-109351233D01*
X68232866Y-109393566D01*
X68148200Y-109393566D01*
X69037200Y-108885566D02*
X68952533Y-108843233D01*
X68910200Y-108800900D01*
X68867866Y-108716233D01*
X68867866Y-108673900D01*
X68910200Y-108589233D01*
X68952533Y-108546900D01*
X69037200Y-108504566D01*
X69206533Y-108504566D01*
X69291200Y-108546900D01*
X69333533Y-108589233D01*
X69375866Y-108673900D01*
X69375866Y-108716233D01*
X69333533Y-108800900D01*
X69291200Y-108843233D01*
X69206533Y-108885566D01*
X69037200Y-108885566D01*
X68952533Y-108927900D01*
X68910200Y-108970233D01*
X68867866Y-109054900D01*
X68867866Y-109224233D01*
X68910200Y-109308900D01*
X68952533Y-109351233D01*
X69037200Y-109393566D01*
X69206533Y-109393566D01*
X69291200Y-109351233D01*
X69333533Y-109308900D01*
X69375866Y-109224233D01*
X69375866Y-109054900D01*
X69333533Y-108970233D01*
X69291200Y-108927900D01*
X69206533Y-108885566D01*
X73363666Y-108098166D02*
X73363666Y-108817833D01*
X73406000Y-108902500D01*
X73448333Y-108944833D01*
X73533000Y-108987166D01*
X73702333Y-108987166D01*
X73787000Y-108944833D01*
X73829333Y-108902500D01*
X73871666Y-108817833D01*
X73871666Y-108098166D01*
X74210333Y-108098166D02*
X74760666Y-108098166D01*
X74464333Y-108436833D01*
X74591333Y-108436833D01*
X74676000Y-108479166D01*
X74718333Y-108521500D01*
X74760666Y-108606166D01*
X74760666Y-108817833D01*
X74718333Y-108902500D01*
X74676000Y-108944833D01*
X74591333Y-108987166D01*
X74337333Y-108987166D01*
X74252666Y-108944833D01*
X74210333Y-108902500D01*
X66264366Y-98052466D02*
X66899366Y-98052466D01*
X67026366Y-98094800D01*
X67111033Y-98179466D01*
X67153366Y-98306466D01*
X67153366Y-98391133D01*
X67153366Y-97163466D02*
X67153366Y-97671466D01*
X67153366Y-97417466D02*
X66264366Y-97417466D01*
X66391366Y-97502133D01*
X66476033Y-97586800D01*
X66518366Y-97671466D01*
X67153366Y-96316800D02*
X67153366Y-96824800D01*
X67153366Y-96570800D02*
X66264366Y-96570800D01*
X66391366Y-96655466D01*
X66476033Y-96740133D01*
X66518366Y-96824800D01*
X74252666Y-88921166D02*
X74252666Y-89640833D01*
X74295000Y-89725500D01*
X74337333Y-89767833D01*
X74422000Y-89810166D01*
X74591333Y-89810166D01*
X74676000Y-89767833D01*
X74718333Y-89725500D01*
X74760666Y-89640833D01*
X74760666Y-88921166D01*
X75565000Y-88921166D02*
X75395666Y-88921166D01*
X75311000Y-88963500D01*
X75268666Y-89005833D01*
X75184000Y-89132833D01*
X75141666Y-89302166D01*
X75141666Y-89640833D01*
X75184000Y-89725500D01*
X75226333Y-89767833D01*
X75311000Y-89810166D01*
X75480333Y-89810166D01*
X75565000Y-89767833D01*
X75607333Y-89725500D01*
X75649666Y-89640833D01*
X75649666Y-89429166D01*
X75607333Y-89344500D01*
X75565000Y-89302166D01*
X75480333Y-89259833D01*
X75311000Y-89259833D01*
X75226333Y-89302166D01*
X75184000Y-89344500D01*
X75141666Y-89429166D01*
X77067833Y-120798166D02*
X77067833Y-119909166D01*
X77279500Y-119909166D01*
X77406500Y-119951500D01*
X77491166Y-120036166D01*
X77533500Y-120120833D01*
X77575833Y-120290166D01*
X77575833Y-120417166D01*
X77533500Y-120586500D01*
X77491166Y-120671166D01*
X77406500Y-120755833D01*
X77279500Y-120798166D01*
X77067833Y-120798166D01*
X78337833Y-120205500D02*
X78337833Y-120798166D01*
X78126166Y-119866833D02*
X77914500Y-120501833D01*
X78464833Y-120501833D01*
X76581000Y-82909833D02*
X76708000Y-82952166D01*
X76919666Y-82952166D01*
X77004333Y-82909833D01*
X77046666Y-82867500D01*
X77089000Y-82782833D01*
X77089000Y-82698166D01*
X77046666Y-82613500D01*
X77004333Y-82571166D01*
X76919666Y-82528833D01*
X76750333Y-82486500D01*
X76665666Y-82444166D01*
X76623333Y-82401833D01*
X76581000Y-82317166D01*
X76581000Y-82232500D01*
X76623333Y-82147833D01*
X76665666Y-82105500D01*
X76750333Y-82063166D01*
X76962000Y-82063166D01*
X77089000Y-82105500D01*
X77724000Y-82063166D02*
X77724000Y-82698166D01*
X77681666Y-82825166D01*
X77597000Y-82909833D01*
X77470000Y-82952166D01*
X77385333Y-82952166D01*
X78613000Y-82952166D02*
X78105000Y-82952166D01*
X78359000Y-82952166D02*
X78359000Y-82063166D01*
X78274333Y-82190166D01*
X78189666Y-82274833D01*
X78105000Y-82317166D01*
D10*
X72724600Y-107803836D02*
X72724600Y-107588164D01*
X72004600Y-107803836D02*
X72004600Y-107588164D01*
X67055000Y-111047559D02*
X67055000Y-111354841D01*
X66295000Y-111047559D02*
X66295000Y-111354841D01*
X78291458Y-125033300D02*
X77816942Y-125033300D01*
X78291458Y-123988300D02*
X77816942Y-123988300D01*
X68103636Y-98573000D02*
X67887964Y-98573000D01*
X68103636Y-99293000D02*
X67887964Y-99293000D01*
X76703600Y-116630564D02*
X76703600Y-116846236D01*
X77423600Y-116630564D02*
X77423600Y-116846236D01*
X66721400Y-118687964D02*
X66721400Y-118903636D01*
X67441400Y-118687964D02*
X67441400Y-118903636D01*
X70337000Y-118687964D02*
X70337000Y-118903636D01*
X69617000Y-118687964D02*
X69617000Y-118903636D01*
X68103636Y-100258200D02*
X67887964Y-100258200D01*
X68103636Y-99538200D02*
X67887964Y-99538200D01*
X65416800Y-80567200D02*
X65416800Y-79097200D01*
X63131800Y-80567200D02*
X65416800Y-80567200D01*
X65416800Y-79097200D02*
X63131800Y-79097200D01*
X67265436Y-112136600D02*
X67049764Y-112136600D01*
X67265436Y-112856600D02*
X67049764Y-112856600D01*
X69703836Y-88625000D02*
X69488164Y-88625000D01*
X69703836Y-87905000D02*
X69488164Y-87905000D01*
X77443359Y-102617000D02*
X77750641Y-102617000D01*
X77443359Y-103377000D02*
X77750641Y-103377000D01*
X73913000Y-82142359D02*
X73913000Y-82449641D01*
X73153000Y-82142359D02*
X73153000Y-82449641D01*
X69703836Y-88844800D02*
X69488164Y-88844800D01*
X69703836Y-89564800D02*
X69488164Y-89564800D01*
X77795800Y-106572164D02*
X77795800Y-106787836D01*
X78515800Y-106572164D02*
X78515800Y-106787836D01*
X60960000Y-121920000D02*
X60960000Y-119380000D01*
X60960000Y-121920000D02*
X66040000Y-121920000D01*
X66040000Y-121920000D02*
X66040000Y-119380000D01*
X60960000Y-119380000D02*
X66040000Y-119380000D01*
X71141000Y-107803836D02*
X71141000Y-107588164D01*
X71861000Y-107803836D02*
X71861000Y-107588164D01*
X76579759Y-95682800D02*
X76887041Y-95682800D01*
X76579759Y-96442800D02*
X76887041Y-96442800D01*
D14*
X72719800Y-80975200D02*
X72719800Y-80975200D01*
X70119800Y-82425200D02*
X68919800Y-82425200D01*
X72719800Y-80975200D02*
X72619800Y-80975200D01*
X72619800Y-80975200D02*
X72619800Y-80975200D01*
X70119800Y-79525200D02*
X68919800Y-79525200D01*
X72719800Y-80975200D02*
G75*
G03*
X72619800Y-80975200I-50000J0D01*
G01*
X72619800Y-80975200D02*
G75*
G03*
X72719800Y-80975200I50000J0D01*
G01*
D10*
X72414400Y-119533641D02*
X72414400Y-119226359D01*
X71654400Y-119533641D02*
X71654400Y-119226359D01*
X92640000Y-102544765D02*
X84010000Y-102544765D01*
X92640000Y-103843810D02*
X84010000Y-103843810D01*
X92640000Y-101836195D02*
X84010000Y-101836195D01*
X92640000Y-103253335D02*
X84010000Y-103253335D01*
X92640000Y-102072385D02*
X84010000Y-102072385D01*
X92640000Y-102899050D02*
X84010000Y-102899050D01*
X92640000Y-102662860D02*
X84010000Y-102662860D01*
X81500000Y-102510000D02*
X81120000Y-102510000D01*
X92640000Y-103135240D02*
X84010000Y-103135240D01*
X84010000Y-100690000D02*
X83600000Y-100690000D01*
X92640000Y-103961905D02*
X84010000Y-103961905D01*
X92640000Y-96460000D02*
X84010000Y-96460000D01*
X84010000Y-99970000D02*
X83600000Y-99970000D01*
X92640000Y-102426670D02*
X84010000Y-102426670D01*
X92640000Y-102780955D02*
X84010000Y-102780955D01*
X92640000Y-103725715D02*
X84010000Y-103725715D01*
X92640000Y-103017145D02*
X84010000Y-103017145D01*
X81500000Y-100690000D02*
X81060000Y-100690000D01*
X92640000Y-101954290D02*
X84010000Y-101954290D01*
X92640000Y-102190480D02*
X84010000Y-102190480D01*
X92640000Y-99060000D02*
X84010000Y-99060000D01*
X92640000Y-104200000D02*
X92640000Y-96460000D01*
X81500000Y-99970000D02*
X81060000Y-99970000D01*
X92640000Y-102308575D02*
X84010000Y-102308575D01*
X92640000Y-103371430D02*
X84010000Y-103371430D01*
X92640000Y-104200000D02*
X84010000Y-104200000D01*
X92640000Y-101600000D02*
X84010000Y-101600000D01*
X84010000Y-97430000D02*
X83600000Y-97430000D01*
X84010000Y-104200000D02*
X84010000Y-96460000D01*
X84010000Y-98150000D02*
X83600000Y-98150000D01*
X81500000Y-98150000D02*
X81060000Y-98150000D01*
X92640000Y-101718100D02*
X84010000Y-101718100D01*
X84010000Y-102510000D02*
X83600000Y-102510000D01*
X92640000Y-104080000D02*
X84010000Y-104080000D01*
X81500000Y-103230000D02*
X81120000Y-103230000D01*
X92640000Y-103607620D02*
X84010000Y-103607620D01*
X92640000Y-103489525D02*
X84010000Y-103489525D01*
X81500000Y-97430000D02*
X81060000Y-97430000D01*
X84010000Y-103230000D02*
X83600000Y-103230000D01*
X60770000Y-87270000D02*
X61180000Y-87270000D01*
X52140000Y-81220000D02*
X60770000Y-81220000D01*
X52140000Y-83111425D02*
X60770000Y-83111425D01*
X60770000Y-84730000D02*
X61180000Y-84730000D01*
X60770000Y-92350000D02*
X61180000Y-92350000D01*
X52140000Y-83229520D02*
X60770000Y-83229520D01*
X52140000Y-82048570D02*
X60770000Y-82048570D01*
X52140000Y-82875235D02*
X60770000Y-82875235D01*
X63280000Y-84730000D02*
X63720000Y-84730000D01*
X52140000Y-81812380D02*
X60770000Y-81812380D01*
X52140000Y-82284760D02*
X60770000Y-82284760D01*
X63280000Y-87270000D02*
X63720000Y-87270000D01*
X52140000Y-82639045D02*
X60770000Y-82639045D01*
X63280000Y-94890000D02*
X63720000Y-94890000D01*
X63280000Y-95610000D02*
X63720000Y-95610000D01*
X52140000Y-83465710D02*
X60770000Y-83465710D01*
X63280000Y-85450000D02*
X63720000Y-85450000D01*
X52140000Y-82402855D02*
X60770000Y-82402855D01*
X52140000Y-81576190D02*
X60770000Y-81576190D01*
X60770000Y-81220000D02*
X60770000Y-96580000D01*
X52140000Y-83583805D02*
X60770000Y-83583805D01*
X63280000Y-90530000D02*
X63720000Y-90530000D01*
X63280000Y-89810000D02*
X63720000Y-89810000D01*
X60770000Y-82910000D02*
X61180000Y-82910000D01*
X52140000Y-82757140D02*
X60770000Y-82757140D01*
X52140000Y-83820000D02*
X60770000Y-83820000D01*
X52140000Y-91440000D02*
X60770000Y-91440000D01*
X60770000Y-90530000D02*
X61180000Y-90530000D01*
X60770000Y-95610000D02*
X61180000Y-95610000D01*
X52140000Y-86360000D02*
X60770000Y-86360000D01*
X52140000Y-83347615D02*
X60770000Y-83347615D01*
X60770000Y-89810000D02*
X61180000Y-89810000D01*
X63280000Y-92350000D02*
X63720000Y-92350000D01*
X52140000Y-96580000D02*
X60770000Y-96580000D01*
X60770000Y-93070000D02*
X61180000Y-93070000D01*
X60770000Y-94890000D02*
X61180000Y-94890000D01*
X63280000Y-93070000D02*
X63720000Y-93070000D01*
X60770000Y-87990000D02*
X61180000Y-87990000D01*
X63280000Y-87990000D02*
X63720000Y-87990000D01*
X52140000Y-82166665D02*
X60770000Y-82166665D01*
X60770000Y-82190000D02*
X61180000Y-82190000D01*
X52140000Y-82993330D02*
X60770000Y-82993330D01*
X63280000Y-82910000D02*
X63660000Y-82910000D01*
X52140000Y-81930475D02*
X60770000Y-81930475D01*
X52140000Y-81458095D02*
X60770000Y-81458095D01*
X52140000Y-81694285D02*
X60770000Y-81694285D01*
X52140000Y-93980000D02*
X60770000Y-93980000D01*
X52140000Y-88900000D02*
X60770000Y-88900000D01*
X60770000Y-85450000D02*
X61180000Y-85450000D01*
X52140000Y-82520950D02*
X60770000Y-82520950D01*
X52140000Y-83701900D02*
X60770000Y-83701900D01*
X52140000Y-81340000D02*
X60770000Y-81340000D01*
X63280000Y-82190000D02*
X63660000Y-82190000D01*
X52140000Y-81220000D02*
X52140000Y-96580000D01*
X76780000Y-84052164D02*
X76780000Y-84267836D01*
X77500000Y-84052164D02*
X77500000Y-84267836D01*
X71506401Y-119533641D02*
X71506401Y-119226359D01*
X70746401Y-119533641D02*
X70746401Y-119226359D01*
X73788000Y-119505759D02*
X73788000Y-119813041D01*
X74548000Y-119505759D02*
X74548000Y-119813041D01*
X67974800Y-116554364D02*
X67974800Y-116770036D01*
X67254800Y-116554364D02*
X67254800Y-116770036D01*
X78740000Y-121920000D02*
X78740000Y-119380000D01*
X78740000Y-121920000D02*
X83820000Y-121920000D01*
X78740000Y-119380000D02*
X83820000Y-119380000D01*
X83820000Y-121920000D02*
X83820000Y-119380000D01*
X77779200Y-92980564D02*
X77779200Y-93196236D01*
X77059200Y-92980564D02*
X77059200Y-93196236D01*
X67690000Y-134837000D02*
X77090000Y-134837000D01*
X77090000Y-132937000D02*
X77090000Y-134837000D01*
X67690000Y-129037000D02*
X67690000Y-131037000D01*
X77090000Y-129037000D02*
X77090000Y-131037000D01*
X67690000Y-132937000D02*
X67690000Y-134837000D01*
X75848800Y-105467036D02*
X75848800Y-105251364D01*
X75128800Y-105467036D02*
X75128800Y-105251364D01*
X72520000Y-100777800D02*
X72520000Y-102777800D01*
X69720000Y-100777800D02*
X72520000Y-100777800D01*
X72520000Y-102777800D02*
X69720000Y-102777800D01*
X69720000Y-102777800D02*
X69720000Y-100777800D01*
X77796000Y-84052164D02*
X77796000Y-84267836D01*
X78516000Y-84052164D02*
X78516000Y-84267836D01*
X67270400Y-100777800D02*
X68670400Y-100777800D01*
X69370400Y-101477800D02*
X69370400Y-102077800D01*
X66570400Y-102077800D02*
X66570400Y-101477800D01*
X68670400Y-102777800D02*
X67270400Y-102777800D01*
X69370400Y-101477800D02*
G75*
G03*
X68670400Y-100777800I-700000J0D01*
G01*
X68670400Y-102777800D02*
G75*
G03*
X69370400Y-102077800I0J700000D01*
G01*
X66570400Y-102077800D02*
G75*
G03*
X67270400Y-102777800I699999J-1D01*
G01*
X67270400Y-100777800D02*
G75*
G03*
X66570400Y-101477800I-1J-699999D01*
G01*
X84010000Y-115210000D02*
X83600000Y-115210000D01*
X84010000Y-105770000D02*
X83600000Y-105770000D01*
X84010000Y-105050000D02*
X83600000Y-105050000D01*
X84010000Y-107590000D02*
X83600000Y-107590000D01*
X84010000Y-112670000D02*
X83600000Y-112670000D01*
X92640000Y-114300000D02*
X84010000Y-114300000D01*
X92640000Y-118257145D02*
X84010000Y-118257145D01*
X81500000Y-107590000D02*
X81060000Y-107590000D01*
X92640000Y-117666670D02*
X84010000Y-117666670D01*
X81500000Y-110850000D02*
X81060000Y-110850000D01*
X92640000Y-116958100D02*
X84010000Y-116958100D01*
X81500000Y-105050000D02*
X81060000Y-105050000D01*
X92640000Y-118139050D02*
X84010000Y-118139050D01*
X84010000Y-118470000D02*
X83600000Y-118470000D01*
X84010000Y-117750000D02*
X83600000Y-117750000D01*
X92640000Y-106680000D02*
X84010000Y-106680000D01*
X92640000Y-118020955D02*
X84010000Y-118020955D01*
X92640000Y-116840000D02*
X84010000Y-116840000D01*
X84010000Y-119440000D02*
X84010000Y-104080000D01*
X92640000Y-117194290D02*
X84010000Y-117194290D01*
X92640000Y-111760000D02*
X84010000Y-111760000D01*
X81500000Y-118470000D02*
X81120000Y-118470000D01*
X92640000Y-119440000D02*
X92640000Y-104080000D01*
X84010000Y-110850000D02*
X83600000Y-110850000D01*
X92640000Y-118729525D02*
X84010000Y-118729525D01*
X81500000Y-112670000D02*
X81060000Y-112670000D01*
X92640000Y-109220000D02*
X84010000Y-109220000D01*
X92640000Y-117430480D02*
X84010000Y-117430480D01*
X92640000Y-117312385D02*
X84010000Y-117312385D01*
X92640000Y-118611430D02*
X84010000Y-118611430D01*
X81500000Y-108310000D02*
X81060000Y-108310000D01*
X84010000Y-108310000D02*
X83600000Y-108310000D01*
X81500000Y-113390000D02*
X81060000Y-113390000D01*
X92640000Y-118375240D02*
X84010000Y-118375240D01*
X84010000Y-113390000D02*
X83600000Y-113390000D01*
X81500000Y-110130000D02*
X81060000Y-110130000D01*
X92640000Y-117784765D02*
X84010000Y-117784765D01*
X92640000Y-117548575D02*
X84010000Y-117548575D01*
X84010000Y-115930000D02*
X83600000Y-115930000D01*
X92640000Y-104080000D02*
X84010000Y-104080000D01*
X92640000Y-117902860D02*
X84010000Y-117902860D01*
X92640000Y-119320000D02*
X84010000Y-119320000D01*
X92640000Y-118965715D02*
X84010000Y-118965715D01*
X92640000Y-119083810D02*
X84010000Y-119083810D01*
X81500000Y-105770000D02*
X81060000Y-105770000D01*
X81500000Y-117750000D02*
X81120000Y-117750000D01*
X92640000Y-118493335D02*
X84010000Y-118493335D01*
X92640000Y-117076195D02*
X84010000Y-117076195D01*
X92640000Y-118847620D02*
X84010000Y-118847620D01*
X92640000Y-119440000D02*
X84010000Y-119440000D01*
X81500000Y-115210000D02*
X81060000Y-115210000D01*
X81500000Y-115930000D02*
X81060000Y-115930000D01*
X92640000Y-119201905D02*
X84010000Y-119201905D01*
X84010000Y-110130000D02*
X83600000Y-110130000D01*
X70765400Y-124258041D02*
X70765400Y-123950759D01*
X71525400Y-124258041D02*
X71525400Y-123950759D01*
X68406600Y-118687964D02*
X68406600Y-118903636D01*
X67686600Y-118687964D02*
X67686600Y-118903636D01*
X76859159Y-87224600D02*
X77166441Y-87224600D01*
X76859159Y-87984600D02*
X77166441Y-87984600D01*
X77262400Y-112769764D02*
X77262400Y-112985436D01*
X77982400Y-112769764D02*
X77982400Y-112985436D01*
X77199200Y-80473200D02*
G75*
G03*
X77199200Y-80473200I-125000J0D01*
G01*
X80070000Y-64840000D02*
X64710000Y-64840000D01*
X68940000Y-75980000D02*
X68940000Y-76420000D01*
X79100000Y-73470000D02*
X79100000Y-73880000D01*
X74930000Y-64840000D02*
X74930000Y-73470000D01*
X66400000Y-73470000D02*
X66400000Y-73880000D01*
X77706195Y-64840000D02*
X77706195Y-73470000D01*
X79123335Y-64840000D02*
X79123335Y-73470000D01*
X67310000Y-64840000D02*
X67310000Y-73470000D01*
X79950000Y-64840000D02*
X79950000Y-73470000D01*
X79359525Y-64840000D02*
X79359525Y-73470000D01*
X71480000Y-75980000D02*
X71480000Y-76420000D01*
X79477620Y-64840000D02*
X79477620Y-73470000D01*
X75840000Y-73470000D02*
X75840000Y-73880000D01*
X77588100Y-64840000D02*
X77588100Y-73470000D01*
X78414765Y-64840000D02*
X78414765Y-73470000D01*
X79241430Y-64840000D02*
X79241430Y-73470000D01*
X78769050Y-64840000D02*
X78769050Y-73470000D01*
X78178575Y-64840000D02*
X78178575Y-73470000D01*
X64710000Y-64840000D02*
X64710000Y-73470000D01*
X77942385Y-64840000D02*
X77942385Y-73470000D01*
X70760000Y-73470000D02*
X70760000Y-73880000D01*
X76560000Y-73470000D02*
X76560000Y-73880000D01*
X79005240Y-64840000D02*
X79005240Y-73470000D01*
X78887145Y-64840000D02*
X78887145Y-73470000D01*
X73300000Y-73470000D02*
X73300000Y-73880000D01*
X76560000Y-75980000D02*
X76560000Y-76420000D01*
X79713810Y-64840000D02*
X79713810Y-73470000D01*
X80070000Y-73470000D02*
X64710000Y-73470000D01*
X77824290Y-64840000D02*
X77824290Y-73470000D01*
X74020000Y-75980000D02*
X74020000Y-76420000D01*
X68220000Y-73470000D02*
X68220000Y-73880000D01*
X79831905Y-64840000D02*
X79831905Y-73470000D01*
X78650955Y-64840000D02*
X78650955Y-73470000D01*
X68940000Y-73470000D02*
X68940000Y-73880000D01*
X69850000Y-64840000D02*
X69850000Y-73470000D01*
X75840000Y-75980000D02*
X75840000Y-76420000D01*
X65680000Y-73470000D02*
X65680000Y-73880000D01*
X79100000Y-75980000D02*
X79100000Y-76360000D01*
X78532860Y-64840000D02*
X78532860Y-73470000D01*
X78380000Y-75980000D02*
X78380000Y-76360000D01*
X70760000Y-75980000D02*
X70760000Y-76420000D01*
X79595715Y-64840000D02*
X79595715Y-73470000D01*
X78380000Y-73470000D02*
X78380000Y-73880000D01*
X68220000Y-75980000D02*
X68220000Y-76420000D01*
X72390000Y-64840000D02*
X72390000Y-73470000D01*
X65680000Y-75980000D02*
X65680000Y-76420000D01*
X78296670Y-64840000D02*
X78296670Y-73470000D01*
X78060480Y-64840000D02*
X78060480Y-73470000D01*
X77470000Y-64840000D02*
X77470000Y-73470000D01*
X71480000Y-73470000D02*
X71480000Y-73880000D01*
X74020000Y-73470000D02*
X74020000Y-73880000D01*
X80070000Y-64840000D02*
X80070000Y-73470000D01*
X73300000Y-75980000D02*
X73300000Y-76420000D01*
X66400000Y-75980000D02*
X66400000Y-76420000D01*
X76094000Y-90864636D02*
X76094000Y-90648964D01*
X76814000Y-90864636D02*
X76814000Y-90648964D01*
X69899800Y-106452641D02*
X69899800Y-106145359D01*
X69139800Y-106452641D02*
X69139800Y-106145359D01*
X66978559Y-114299000D02*
X67285841Y-114299000D01*
X66978559Y-113539000D02*
X67285841Y-113539000D01*
X76087200Y-99517200D02*
G75*
G03*
X76087200Y-99517200I-700000J0D01*
G01*
X72457364Y-89564800D02*
X72673036Y-89564800D01*
X72457364Y-88844800D02*
X72673036Y-88844800D01*
D14*
X68427600Y-119658200D02*
X68427600Y-119658200D01*
X66977600Y-122158200D02*
X66977600Y-123358200D01*
X68427600Y-119558200D02*
X68427600Y-119658200D01*
X68427600Y-119558200D02*
X68427600Y-119558200D01*
X69877600Y-122158200D02*
X69877600Y-123358200D01*
X68427600Y-119558200D02*
G75*
G03*
X68427600Y-119658200I0J-50000D01*
G01*
X68427600Y-119658200D02*
G75*
G03*
X68427600Y-119558200I0J50000D01*
G01*
D10*
X81500000Y-84730000D02*
X81060000Y-84730000D01*
X92640000Y-96460000D02*
X84010000Y-96460000D01*
X84010000Y-82910000D02*
X83600000Y-82910000D01*
X92640000Y-95042860D02*
X84010000Y-95042860D01*
X84010000Y-96580000D02*
X84010000Y-81220000D01*
X84010000Y-90530000D02*
X83600000Y-90530000D01*
X81500000Y-92350000D02*
X81060000Y-92350000D01*
X92640000Y-95160955D02*
X84010000Y-95160955D01*
X92640000Y-94098100D02*
X84010000Y-94098100D01*
X84010000Y-82190000D02*
X83600000Y-82190000D01*
X81500000Y-89810000D02*
X81060000Y-89810000D01*
X92640000Y-83820000D02*
X84010000Y-83820000D01*
X92640000Y-94334290D02*
X84010000Y-94334290D01*
X92640000Y-94806670D02*
X84010000Y-94806670D01*
X92640000Y-96580000D02*
X84010000Y-96580000D01*
X81500000Y-82190000D02*
X81060000Y-82190000D01*
X81500000Y-87990000D02*
X81060000Y-87990000D01*
X92640000Y-94924765D02*
X84010000Y-94924765D01*
X84010000Y-94890000D02*
X83600000Y-94890000D01*
X92640000Y-94452385D02*
X84010000Y-94452385D01*
X84010000Y-95610000D02*
X83600000Y-95610000D01*
X92640000Y-95279050D02*
X84010000Y-95279050D01*
X92640000Y-93980000D02*
X84010000Y-93980000D01*
X84010000Y-84730000D02*
X83600000Y-84730000D01*
X81500000Y-93070000D02*
X81060000Y-93070000D01*
X92640000Y-95987620D02*
X84010000Y-95987620D01*
X81500000Y-85450000D02*
X81060000Y-85450000D01*
X92640000Y-94688575D02*
X84010000Y-94688575D01*
X92640000Y-95633335D02*
X84010000Y-95633335D01*
X92640000Y-96580000D02*
X92640000Y-81220000D01*
X92640000Y-91440000D02*
X84010000Y-91440000D01*
X92640000Y-96223810D02*
X84010000Y-96223810D01*
X81500000Y-87270000D02*
X81060000Y-87270000D01*
X84010000Y-89810000D02*
X83600000Y-89810000D01*
X84010000Y-93070000D02*
X83600000Y-93070000D01*
X81500000Y-90530000D02*
X81060000Y-90530000D01*
X81500000Y-94890000D02*
X81120000Y-94890000D01*
X84010000Y-87990000D02*
X83600000Y-87990000D01*
X92640000Y-94570480D02*
X84010000Y-94570480D01*
X84010000Y-92350000D02*
X83600000Y-92350000D01*
X92640000Y-88900000D02*
X84010000Y-88900000D01*
X92640000Y-96341905D02*
X84010000Y-96341905D01*
X92640000Y-96105715D02*
X84010000Y-96105715D01*
X92640000Y-95751430D02*
X84010000Y-95751430D01*
X92640000Y-95515240D02*
X84010000Y-95515240D01*
X92640000Y-81220000D02*
X84010000Y-81220000D01*
X92640000Y-86360000D02*
X84010000Y-86360000D01*
X84010000Y-85450000D02*
X83600000Y-85450000D01*
X84010000Y-87270000D02*
X83600000Y-87270000D01*
X81500000Y-82910000D02*
X81060000Y-82910000D01*
X92640000Y-94216195D02*
X84010000Y-94216195D01*
X92640000Y-95397145D02*
X84010000Y-95397145D01*
X92640000Y-95869525D02*
X84010000Y-95869525D01*
X81500000Y-95610000D02*
X81120000Y-95610000D01*
X72465200Y-99541359D02*
X72465200Y-99848641D01*
X71705200Y-99541359D02*
X71705200Y-99848641D01*
X52140000Y-104672380D02*
X60770000Y-104672380D01*
X63280000Y-112670000D02*
X63720000Y-112670000D01*
X63280000Y-115930000D02*
X63720000Y-115930000D01*
X52140000Y-104554285D02*
X60770000Y-104554285D01*
X52140000Y-106207615D02*
X60770000Y-106207615D01*
X52140000Y-104436190D02*
X60770000Y-104436190D01*
X52140000Y-106680000D02*
X60770000Y-106680000D01*
X52140000Y-116840000D02*
X60770000Y-116840000D01*
X60770000Y-108310000D02*
X61180000Y-108310000D01*
X52140000Y-105617140D02*
X60770000Y-105617140D01*
X63280000Y-108310000D02*
X63720000Y-108310000D01*
X52140000Y-105735235D02*
X60770000Y-105735235D01*
X52140000Y-104080000D02*
X60770000Y-104080000D01*
X52140000Y-119440000D02*
X60770000Y-119440000D01*
X60770000Y-115930000D02*
X61180000Y-115930000D01*
X52140000Y-109220000D02*
X60770000Y-109220000D01*
X63280000Y-110850000D02*
X63720000Y-110850000D01*
X52140000Y-105262855D02*
X60770000Y-105262855D01*
X52140000Y-104908570D02*
X60770000Y-104908570D01*
X60770000Y-110850000D02*
X61180000Y-110850000D01*
X60770000Y-113390000D02*
X61180000Y-113390000D01*
X60770000Y-107590000D02*
X61180000Y-107590000D01*
X52140000Y-104200000D02*
X60770000Y-104200000D01*
X60770000Y-110130000D02*
X61180000Y-110130000D01*
X52140000Y-106089520D02*
X60770000Y-106089520D01*
X60770000Y-115210000D02*
X61180000Y-115210000D01*
X52140000Y-105853330D02*
X60770000Y-105853330D01*
X60770000Y-112670000D02*
X61180000Y-112670000D01*
X63280000Y-105050000D02*
X63660000Y-105050000D01*
X60770000Y-105050000D02*
X61180000Y-105050000D01*
X63280000Y-107590000D02*
X63720000Y-107590000D01*
X52140000Y-104318095D02*
X60770000Y-104318095D01*
X63280000Y-118470000D02*
X63720000Y-118470000D01*
X52140000Y-105971425D02*
X60770000Y-105971425D01*
X60770000Y-104080000D02*
X60770000Y-119440000D01*
X52140000Y-105026665D02*
X60770000Y-105026665D01*
X52140000Y-105499045D02*
X60770000Y-105499045D01*
X60770000Y-105770000D02*
X61180000Y-105770000D01*
X63280000Y-117750000D02*
X63720000Y-117750000D01*
X63280000Y-115210000D02*
X63720000Y-115210000D01*
X63280000Y-110130000D02*
X63720000Y-110130000D01*
X52140000Y-104080000D02*
X52140000Y-119440000D01*
X60770000Y-118470000D02*
X61180000Y-118470000D01*
X52140000Y-106325710D02*
X60770000Y-106325710D01*
X52140000Y-106443805D02*
X60770000Y-106443805D01*
X52140000Y-111760000D02*
X60770000Y-111760000D01*
X60770000Y-117750000D02*
X61180000Y-117750000D01*
X63280000Y-113390000D02*
X63720000Y-113390000D01*
X52140000Y-114300000D02*
X60770000Y-114300000D01*
X52140000Y-105144760D02*
X60770000Y-105144760D01*
X52140000Y-105380950D02*
X60770000Y-105380950D01*
X63280000Y-105770000D02*
X63660000Y-105770000D01*
X52140000Y-106561900D02*
X60770000Y-106561900D01*
X52140000Y-104790475D02*
X60770000Y-104790475D01*
X65710800Y-79960441D02*
X65710800Y-79653159D01*
X66470800Y-79960441D02*
X66470800Y-79653159D01*
X68754600Y-116995600D02*
X68754600Y-116345600D01*
X69404600Y-116995600D02*
X68754600Y-116995600D01*
X68754600Y-109775600D02*
X68754600Y-110425600D01*
X75324600Y-109775600D02*
X75974600Y-109775600D01*
X75974600Y-109775600D02*
X75974600Y-110425600D01*
X75324600Y-116995600D02*
X75974600Y-116995600D01*
X69404600Y-109775600D02*
X68754600Y-109775600D01*
X72388759Y-87603600D02*
X72696041Y-87603600D01*
X72388759Y-86843600D02*
X72696041Y-86843600D01*
X52140000Y-97052380D02*
X60770000Y-97052380D01*
X60770000Y-103230000D02*
X61180000Y-103230000D01*
X52140000Y-96698095D02*
X60770000Y-96698095D01*
X52140000Y-97170475D02*
X60770000Y-97170475D01*
X63280000Y-99970000D02*
X63720000Y-99970000D01*
X52140000Y-97642855D02*
X60770000Y-97642855D01*
X63280000Y-97430000D02*
X63660000Y-97430000D01*
X52140000Y-97524760D02*
X60770000Y-97524760D01*
X52140000Y-101600000D02*
X60770000Y-101600000D01*
X63280000Y-102510000D02*
X63720000Y-102510000D01*
X60770000Y-98150000D02*
X61180000Y-98150000D01*
X52140000Y-97406665D02*
X60770000Y-97406665D01*
X52140000Y-98823805D02*
X60770000Y-98823805D01*
X52140000Y-98469520D02*
X60770000Y-98469520D01*
X52140000Y-97288570D02*
X60770000Y-97288570D01*
X63280000Y-100690000D02*
X63720000Y-100690000D01*
X63280000Y-98150000D02*
X63660000Y-98150000D01*
X52140000Y-99060000D02*
X60770000Y-99060000D01*
X52140000Y-98115235D02*
X60770000Y-98115235D01*
X52140000Y-96934285D02*
X60770000Y-96934285D01*
X52140000Y-96460000D02*
X60770000Y-96460000D01*
X52140000Y-98941900D02*
X60770000Y-98941900D01*
X52140000Y-96460000D02*
X52140000Y-104200000D01*
X52140000Y-98705710D02*
X60770000Y-98705710D01*
X52140000Y-97760950D02*
X60770000Y-97760950D01*
X60770000Y-99970000D02*
X61180000Y-99970000D01*
X52140000Y-97879045D02*
X60770000Y-97879045D01*
X52140000Y-98587615D02*
X60770000Y-98587615D01*
X52140000Y-98351425D02*
X60770000Y-98351425D01*
X60770000Y-100690000D02*
X61180000Y-100690000D01*
X52140000Y-98233330D02*
X60770000Y-98233330D01*
X52140000Y-96816190D02*
X60770000Y-96816190D01*
X52140000Y-97997140D02*
X60770000Y-97997140D01*
X60770000Y-102510000D02*
X61180000Y-102510000D01*
X52140000Y-96580000D02*
X60770000Y-96580000D01*
X52140000Y-104200000D02*
X60770000Y-104200000D01*
X60770000Y-97430000D02*
X61180000Y-97430000D01*
X60770000Y-96460000D02*
X60770000Y-104200000D01*
X71726600Y-103302800D02*
X71726600Y-106602800D01*
X74526600Y-103302800D02*
X71726600Y-103302800D01*
X77499800Y-106572164D02*
X77499800Y-106787836D01*
X76779800Y-106572164D02*
X76779800Y-106787836D01*
X78247800Y-89825600D02*
X78247800Y-91675600D01*
X77047800Y-91675600D02*
X78247800Y-91675600D01*
X77047800Y-89825600D02*
X77047800Y-91675600D01*
X67713200Y-91149800D02*
X67713200Y-90674800D01*
X74933200Y-91149800D02*
X74933200Y-90674800D01*
X74933200Y-90674800D02*
X74458200Y-90674800D01*
X67713200Y-97419800D02*
X67713200Y-97894800D01*
X74933200Y-97894800D02*
X74458200Y-97894800D01*
X74933200Y-97419800D02*
X74933200Y-97894800D01*
X67713200Y-90674800D02*
X68188200Y-90674800D01*
X77120636Y-88540000D02*
X76904964Y-88540000D01*
X77120636Y-89260000D02*
X76904964Y-89260000D01*
X76767400Y-120376600D02*
G75*
G03*
X76767400Y-120376600I-125000J0D01*
G01*
X68651800Y-118687964D02*
X68651800Y-118903636D01*
X69371800Y-118687964D02*
X69371800Y-118903636D01*
X70429800Y-104197036D02*
X70429800Y-103981364D01*
X71149800Y-104197036D02*
X71149800Y-103981364D01*
X74573400Y-121794241D02*
X74573400Y-121486959D01*
X73813400Y-121794241D02*
X73813400Y-121486959D01*
X72434564Y-87879600D02*
X72650236Y-87879600D01*
X72434564Y-88599600D02*
X72650236Y-88599600D01*
X70409800Y-106071641D02*
X70409800Y-105764359D01*
X71169800Y-106071641D02*
X71169800Y-105764359D01*
X75665359Y-122175000D02*
X75972641Y-122175000D01*
X75665359Y-122935000D02*
X75972641Y-122935000D01*
X74496959Y-124359400D02*
X74804241Y-124359400D01*
X74496959Y-125119400D02*
X74804241Y-125119400D01*
X76094000Y-92980564D02*
X76094000Y-93196236D01*
X76814000Y-92980564D02*
X76814000Y-93196236D01*
X77308200Y-81141800D02*
X77308200Y-79741800D01*
X78008200Y-79041800D02*
X78608200Y-79041800D01*
X79308200Y-79741800D02*
X79308200Y-81141800D01*
X78608200Y-81841800D02*
X78008200Y-81841800D01*
X78608200Y-81841800D02*
G75*
G03*
X79308200Y-81141800I0J700000D01*
G01*
X79308200Y-79741800D02*
G75*
G03*
X78608200Y-79041800I-699999J1D01*
G01*
X77308200Y-81141800D02*
G75*
G03*
X78008200Y-81841800I700000J0D01*
G01*
X78008200Y-79041800D02*
G75*
G03*
X77308200Y-79741800I-1J-699999D01*
G01*
X76155436Y-79040400D02*
X75939764Y-79040400D01*
X76155436Y-79760400D02*
X75939764Y-79760400D01*
X75774436Y-118766000D02*
X75558764Y-118766000D01*
X75774436Y-119486000D02*
X75558764Y-119486000D01*
M02*
