G04 #@! TF.GenerationSoftware,KiCad,Pcbnew,(6.0.5)*
G04 #@! TF.CreationDate,2022-08-24T15:32:52-07:00*
G04 #@! TF.ProjectId,pico-ice,7069636f-2d69-4636-952e-6b696361645f,REV1*
G04 #@! TF.SameCoordinates,Original*
G04 #@! TF.FileFunction,Soldermask,Top*
G04 #@! TF.FilePolarity,Negative*
%FSLAX46Y46*%
G04 Gerber Fmt 4.6, Leading zero omitted, Abs format (unit mm)*
G04 Created by KiCad (PCBNEW (6.0.5)) date 2022-08-24 15:32:52*
%MOMM*%
%LPD*%
G01*
G04 APERTURE LIST*
G04 Aperture macros list*
%AMRoundRect*
0 Rectangle with rounded corners*
0 $1 Rounding radius*
0 $2 $3 $4 $5 $6 $7 $8 $9 X,Y pos of 4 corners*
0 Add a 4 corners polygon primitive as box body*
4,1,4,$2,$3,$4,$5,$6,$7,$8,$9,$2,$3,0*
0 Add four circle primitives for the rounded corners*
1,1,$1+$1,$2,$3*
1,1,$1+$1,$4,$5*
1,1,$1+$1,$6,$7*
1,1,$1+$1,$8,$9*
0 Add four rect primitives between the rounded corners*
20,1,$1+$1,$2,$3,$4,$5,0*
20,1,$1+$1,$4,$5,$6,$7,0*
20,1,$1+$1,$6,$7,$8,$9,0*
20,1,$1+$1,$8,$9,$2,$3,0*%
%AMFreePoly0*
4,1,16,0.536062,0.786062,0.542435,0.778290,1.042435,0.028290,1.050010,-0.010002,1.042435,-0.028290,0.542435,-0.778290,0.510002,-0.800010,0.500000,-0.801000,-0.500000,-0.801000,-0.536062,-0.786062,-0.551000,-0.750000,-0.551000,0.750000,-0.536062,0.786062,-0.500000,0.801000,0.500000,0.801000,0.536062,0.786062,0.536062,0.786062,$1*%
%AMFreePoly1*
4,1,16,0.536062,0.786062,0.551000,0.750000,0.551000,-0.750000,0.536062,-0.786062,0.500000,-0.801000,-0.650000,-0.801000,-0.686062,-0.786062,-0.701000,-0.750000,-0.692435,-0.721710,-0.211295,0.000000,-0.692435,0.721710,-0.700010,0.760002,-0.678290,0.792435,-0.650000,0.801000,0.500000,0.801000,0.536062,0.786062,0.536062,0.786062,$1*%
%AMFreePoly2*
4,1,37,0.536062,0.786062,0.551000,0.750000,0.551000,-0.750000,0.536062,-0.786062,0.500000,-0.801000,0.000000,-0.801000,-0.012525,-0.795812,-0.080875,-0.794559,-0.095149,-0.792248,-0.230464,-0.749973,-0.243516,-0.743747,-0.361526,-0.665192,-0.372306,-0.655554,-0.463526,-0.547035,-0.471167,-0.534759,-0.528262,-0.405000,-0.532150,-0.391073,-0.549733,-0.256613,-0.548336,-0.256430,-0.551000,-0.250000,
-0.551000,0.250000,-0.550512,0.251179,-0.550356,0.263956,-0.528545,0.404033,-0.524317,0.417860,-0.464069,0.546185,-0.456130,0.558271,-0.362286,0.664529,-0.351274,0.673901,-0.231379,0.749549,-0.218180,0.755454,-0.081873,0.794411,-0.067546,0.796373,-0.011990,0.796033,0.000000,0.801000,0.500000,0.801000,0.536062,0.786062,0.536062,0.786062,$1*%
%AMFreePoly3*
4,1,37,0.012349,0.795885,0.074216,0.795507,0.088518,0.793370,0.224339,0.752751,0.237465,0.746685,0.356427,0.669578,0.367324,0.660073,0.459862,0.552676,0.467652,0.540494,0.526329,0.411442,0.530388,0.397563,0.550485,0.257230,0.551000,0.250000,0.551000,-0.250000,0.550996,-0.250622,0.550847,-0.262838,0.550144,-0.270677,0.526624,-0.410478,0.522228,-0.424254,0.460416,-0.551833,
0.452330,-0.563821,0.357195,-0.668925,0.346069,-0.678161,0.225259,-0.752338,0.211989,-0.758081,0.075216,-0.795370,0.060866,-0.797157,0.011464,-0.796251,0.000000,-0.801000,-0.500000,-0.801000,-0.536062,-0.786062,-0.551000,-0.750000,-0.551000,0.750000,-0.536062,0.786062,-0.500000,0.801000,0.000000,0.801000,0.012349,0.795885,0.012349,0.795885,$1*%
G04 Aperture macros list end*
%ADD10C,0.125000*%
%ADD11C,2.802000*%
%ADD12RoundRect,0.191000X0.170000X-0.140000X0.170000X0.140000X-0.170000X0.140000X-0.170000X-0.140000X0*%
%ADD13RoundRect,0.186000X-0.185000X0.135000X-0.185000X-0.135000X0.185000X-0.135000X0.185000X0.135000X0*%
%ADD14RoundRect,0.251000X0.200000X0.275000X-0.200000X0.275000X-0.200000X-0.275000X0.200000X-0.275000X0*%
%ADD15RoundRect,0.191000X0.140000X0.170000X-0.140000X0.170000X-0.140000X-0.170000X0.140000X-0.170000X0*%
%ADD16RoundRect,0.191000X-0.170000X0.140000X-0.170000X-0.140000X0.170000X-0.140000X0.170000X0.140000X0*%
%ADD17RoundRect,0.269750X0.218750X0.256250X-0.218750X0.256250X-0.218750X-0.256250X0.218750X-0.256250X0*%
%ADD18RoundRect,0.186000X-0.135000X-0.185000X0.135000X-0.185000X0.135000X0.185000X-0.135000X0.185000X0*%
%ADD19RoundRect,0.051000X0.850000X-0.850000X0.850000X0.850000X-0.850000X0.850000X-0.850000X-0.850000X0*%
%ADD20O,1.802000X1.802000*%
%ADD21RoundRect,0.051000X0.475000X0.700000X-0.475000X0.700000X-0.475000X-0.700000X0.475000X-0.700000X0*%
%ADD22RoundRect,0.051000X-0.575000X0.375000X-0.575000X-0.375000X0.575000X-0.375000X0.575000X0.375000X0*%
%ADD23RoundRect,0.186000X0.185000X-0.135000X0.185000X0.135000X-0.185000X0.135000X-0.185000X-0.135000X0*%
%ADD24RoundRect,0.051000X0.850000X0.850000X-0.850000X0.850000X-0.850000X-0.850000X0.850000X-0.850000X0*%
%ADD25RoundRect,0.051000X-0.850000X-0.850000X0.850000X-0.850000X0.850000X0.850000X-0.850000X0.850000X0*%
%ADD26C,0.752000*%
%ADD27RoundRect,0.051000X-0.300000X-0.725000X0.300000X-0.725000X0.300000X0.725000X-0.300000X0.725000X0*%
%ADD28RoundRect,0.051000X-0.150000X-0.725000X0.150000X-0.725000X0.150000X0.725000X-0.150000X0.725000X0*%
%ADD29O,1.102000X2.202000*%
%ADD30O,1.102000X1.702000*%
%ADD31FreePoly0,180.000000*%
%ADD32FreePoly1,180.000000*%
%ADD33FreePoly2,0.000000*%
%ADD34FreePoly3,0.000000*%
%ADD35RoundRect,0.051000X-0.215000X-0.215000X0.215000X-0.215000X0.215000X0.215000X-0.215000X0.215000X0*%
%ADD36RoundRect,0.051000X-0.850000X0.850000X-0.850000X-0.850000X0.850000X-0.850000X0.850000X0.850000X0*%
%ADD37C,1.102000*%
%ADD38C,1.500000*%
%ADD39RoundRect,0.191000X-0.140000X-0.170000X0.140000X-0.170000X0.140000X0.170000X-0.140000X0.170000X0*%
%ADD40RoundRect,0.051000X-0.700000X0.475000X-0.700000X-0.475000X0.700000X-0.475000X0.700000X0.475000X0*%
%ADD41RoundRect,0.051000X-0.375000X-0.575000X0.375000X-0.575000X0.375000X0.575000X-0.375000X0.575000X0*%
%ADD42RoundRect,0.101000X0.387500X0.050000X-0.387500X0.050000X-0.387500X-0.050000X0.387500X-0.050000X0*%
%ADD43RoundRect,0.101000X0.050000X0.387500X-0.050000X0.387500X-0.050000X-0.387500X0.050000X-0.387500X0*%
%ADD44RoundRect,0.195000X1.456000X1.456000X-1.456000X1.456000X-1.456000X-1.456000X1.456000X-1.456000X0*%
%ADD45RoundRect,0.051000X-0.500000X0.575000X-0.500000X-0.575000X0.500000X-0.575000X0.500000X0.575000X0*%
%ADD46RoundRect,0.051000X-0.350000X0.300000X-0.350000X-0.300000X0.350000X-0.300000X0.350000X0.300000X0*%
%ADD47RoundRect,0.113500X0.062500X-0.375000X0.062500X0.375000X-0.062500X0.375000X-0.062500X-0.375000X0*%
%ADD48RoundRect,0.113500X0.375000X-0.062500X0.375000X0.062500X-0.375000X0.062500X-0.375000X-0.062500X0*%
%ADD49RoundRect,0.051000X2.800000X-2.800000X2.800000X2.800000X-2.800000X2.800000X-2.800000X-2.800000X0*%
%ADD50FreePoly2,270.000000*%
%ADD51FreePoly3,270.000000*%
G04 APERTURE END LIST*
D10*
X65212142Y-131492142D02*
X66112142Y-131492142D01*
X65255000Y-131492142D02*
X65212142Y-131406428D01*
X65212142Y-131235000D01*
X65255000Y-131149285D01*
X65297857Y-131106428D01*
X65383571Y-131063571D01*
X65640714Y-131063571D01*
X65726428Y-131106428D01*
X65769285Y-131149285D01*
X65812142Y-131235000D01*
X65812142Y-131406428D01*
X65769285Y-131492142D01*
X65812142Y-130677857D02*
X65212142Y-130677857D01*
X64912142Y-130677857D02*
X64955000Y-130720714D01*
X64997857Y-130677857D01*
X64955000Y-130635000D01*
X64912142Y-130677857D01*
X64997857Y-130677857D01*
X65769285Y-129863571D02*
X65812142Y-129949285D01*
X65812142Y-130120714D01*
X65769285Y-130206428D01*
X65726428Y-130249285D01*
X65640714Y-130292142D01*
X65383571Y-130292142D01*
X65297857Y-130249285D01*
X65255000Y-130206428D01*
X65212142Y-130120714D01*
X65212142Y-129949285D01*
X65255000Y-129863571D01*
X65812142Y-129349285D02*
X65769285Y-129435000D01*
X65726428Y-129477857D01*
X65640714Y-129520714D01*
X65383571Y-129520714D01*
X65297857Y-129477857D01*
X65255000Y-129435000D01*
X65212142Y-129349285D01*
X65212142Y-129220714D01*
X65255000Y-129135000D01*
X65297857Y-129092142D01*
X65383571Y-129049285D01*
X65640714Y-129049285D01*
X65726428Y-129092142D01*
X65769285Y-129135000D01*
X65812142Y-129220714D01*
X65812142Y-129349285D01*
X65469285Y-128663571D02*
X65469285Y-127977857D01*
X65812142Y-127549285D02*
X65212142Y-127549285D01*
X64912142Y-127549285D02*
X64955000Y-127592142D01*
X64997857Y-127549285D01*
X64955000Y-127506428D01*
X64912142Y-127549285D01*
X64997857Y-127549285D01*
X65769285Y-126735000D02*
X65812142Y-126820714D01*
X65812142Y-126992142D01*
X65769285Y-127077857D01*
X65726428Y-127120714D01*
X65640714Y-127163571D01*
X65383571Y-127163571D01*
X65297857Y-127120714D01*
X65255000Y-127077857D01*
X65212142Y-126992142D01*
X65212142Y-126820714D01*
X65255000Y-126735000D01*
X65769285Y-126006428D02*
X65812142Y-126092142D01*
X65812142Y-126263571D01*
X65769285Y-126349285D01*
X65683571Y-126392142D01*
X65340714Y-126392142D01*
X65255000Y-126349285D01*
X65212142Y-126263571D01*
X65212142Y-126092142D01*
X65255000Y-126006428D01*
X65340714Y-125963571D01*
X65426428Y-125963571D01*
X65512142Y-126392142D01*
X65212142Y-124977857D02*
X65812142Y-124763571D01*
X65212142Y-124549285D01*
X65812142Y-123735000D02*
X65812142Y-124249285D01*
X65812142Y-123992142D02*
X64912142Y-123992142D01*
X65040714Y-124077857D01*
X65126428Y-124163571D01*
X65169285Y-124249285D01*
G36*
X64348471Y-126120314D02*
G01*
X64177763Y-126120338D01*
X64134600Y-126120393D01*
X64097263Y-126120560D01*
X64065288Y-126120861D01*
X64038207Y-126121319D01*
X64015557Y-126121956D01*
X63996870Y-126122795D01*
X63981681Y-126123858D01*
X63969525Y-126125167D01*
X63959934Y-126126745D01*
X63952444Y-126128614D01*
X63946590Y-126130797D01*
X63945050Y-126131533D01*
X63928366Y-126143151D01*
X63916680Y-126158253D01*
X63910359Y-126176070D01*
X63909773Y-126195834D01*
X63910923Y-126202755D01*
X63916432Y-126220591D01*
X63925012Y-126234897D01*
X63937542Y-126246575D01*
X63954905Y-126256526D01*
X63969300Y-126262535D01*
X63973417Y-126264043D01*
X63977475Y-126265326D01*
X63982005Y-126266402D01*
X63987538Y-126267296D01*
X63994607Y-126268028D01*
X64003741Y-126268619D01*
X64015474Y-126269092D01*
X64030335Y-126269469D01*
X64048856Y-126269770D01*
X64071569Y-126270017D01*
X64099005Y-126270233D01*
X64131695Y-126270439D01*
X64168323Y-126270645D01*
X64348471Y-126271643D01*
X64348471Y-126434982D01*
X63788362Y-126434982D01*
X63788362Y-126284114D01*
X63833067Y-126283241D01*
X63877773Y-126282368D01*
X63856659Y-126268620D01*
X63847015Y-126261631D01*
X63836136Y-126252646D01*
X63825108Y-126242710D01*
X63815018Y-126232867D01*
X63806950Y-126224162D01*
X63801991Y-126217639D01*
X63800948Y-126215016D01*
X63799076Y-126211094D01*
X63794643Y-126205260D01*
X63789326Y-126197519D01*
X63785430Y-126187689D01*
X63782784Y-126174817D01*
X63781215Y-126157949D01*
X63780553Y-126136131D01*
X63780504Y-126126607D01*
X63780688Y-126106380D01*
X63781335Y-126091063D01*
X63782571Y-126079282D01*
X63784523Y-126069663D01*
X63786318Y-126063674D01*
X63789823Y-126054049D01*
X63792848Y-126047112D01*
X63794336Y-126044794D01*
X63797045Y-126041363D01*
X63801594Y-126034291D01*
X63804810Y-126028879D01*
X63820049Y-126008613D01*
X63840423Y-125991234D01*
X63865273Y-125977166D01*
X63893944Y-125966835D01*
X63905074Y-125964113D01*
X63910642Y-125963081D01*
X63917466Y-125962181D01*
X63926026Y-125961398D01*
X63936797Y-125960720D01*
X63950257Y-125960132D01*
X63966885Y-125959623D01*
X63987157Y-125959178D01*
X64011552Y-125958783D01*
X64040546Y-125958427D01*
X64074617Y-125958095D01*
X64114243Y-125957774D01*
X64138430Y-125957599D01*
X64348471Y-125956121D01*
X64348471Y-126120314D01*
G37*
G36*
X63678228Y-129880596D02*
G01*
X63593267Y-129880596D01*
X63593267Y-129801929D01*
X63678228Y-129801929D01*
X63678228Y-129880596D01*
G37*
G36*
X63744308Y-127322346D02*
G01*
X63577534Y-127322346D01*
X63577534Y-127158718D01*
X63744308Y-127158718D01*
X63744308Y-127322346D01*
G37*
G36*
X64348471Y-125837113D02*
G01*
X64175403Y-125837113D01*
X64175403Y-125667192D01*
X64348471Y-125667192D01*
X64348471Y-125837113D01*
G37*
G36*
X64145510Y-125568482D02*
G01*
X64122478Y-125559784D01*
X64103577Y-125549310D01*
X64086656Y-125535703D01*
X64075527Y-125524346D01*
X64061309Y-125506843D01*
X64049021Y-125487344D01*
X64038471Y-125465232D01*
X64029466Y-125439885D01*
X64021814Y-125410684D01*
X64015322Y-125377009D01*
X64009798Y-125338241D01*
X64005547Y-125299030D01*
X64003985Y-125283065D01*
X64002457Y-125268016D01*
X64001163Y-125255806D01*
X64000440Y-125249470D01*
X63999908Y-125245125D01*
X64084149Y-125245125D01*
X64085068Y-125257436D01*
X64087549Y-125273714D01*
X64091179Y-125291949D01*
X64095542Y-125310133D01*
X64100225Y-125326257D01*
X64101850Y-125331007D01*
X64109532Y-125349995D01*
X64117602Y-125364361D01*
X64127216Y-125375729D01*
X64139533Y-125385726D01*
X64142099Y-125387486D01*
X64161584Y-125397498D01*
X64180759Y-125401804D01*
X64198975Y-125400982D01*
X64215585Y-125395613D01*
X64229939Y-125386273D01*
X64241391Y-125373542D01*
X64249291Y-125357998D01*
X64252992Y-125340219D01*
X64251846Y-125320786D01*
X64245204Y-125300275D01*
X64243573Y-125296903D01*
X64230654Y-125278026D01*
X64212851Y-125261787D01*
X64191300Y-125248999D01*
X64167141Y-125240477D01*
X64163448Y-125239635D01*
X64152722Y-125238059D01*
X64138175Y-125236844D01*
X64122279Y-125236173D01*
X64115461Y-125236097D01*
X64084149Y-125236097D01*
X64084149Y-125245125D01*
X63999908Y-125245125D01*
X63998803Y-125236097D01*
X63975967Y-125236097D01*
X63950281Y-125237994D01*
X63929412Y-125243781D01*
X63913125Y-125253601D01*
X63901180Y-125267594D01*
X63893452Y-125285517D01*
X63889567Y-125308109D01*
X63890520Y-125330838D01*
X63895975Y-125352345D01*
X63905596Y-125371269D01*
X63918129Y-125385479D01*
X63929566Y-125393440D01*
X63943095Y-125400209D01*
X63956297Y-125404729D01*
X63965136Y-125406018D01*
X63969565Y-125407997D01*
X63970885Y-125414671D01*
X63970579Y-125423544D01*
X63969736Y-125435709D01*
X63968497Y-125449837D01*
X63967007Y-125464599D01*
X63965411Y-125478669D01*
X63963851Y-125490717D01*
X63962471Y-125499416D01*
X63961416Y-125503438D01*
X63961255Y-125503565D01*
X63960077Y-125506472D01*
X63958730Y-125514261D01*
X63957431Y-125525530D01*
X63956879Y-125531885D01*
X63955715Y-125545987D01*
X63954108Y-125554723D01*
X63950878Y-125558978D01*
X63944843Y-125559636D01*
X63934822Y-125557580D01*
X63925696Y-125555230D01*
X63894779Y-125544413D01*
X63867789Y-125528818D01*
X63844585Y-125508312D01*
X63825021Y-125482761D01*
X63808956Y-125452030D01*
X63805205Y-125442844D01*
X63800798Y-125431864D01*
X63797088Y-125423355D01*
X63794760Y-125418877D01*
X63794524Y-125418604D01*
X63793011Y-125415016D01*
X63790609Y-125406781D01*
X63787744Y-125395411D01*
X63786554Y-125390284D01*
X63783631Y-125372667D01*
X63781570Y-125350489D01*
X63780372Y-125325351D01*
X63780037Y-125298854D01*
X63780567Y-125272599D01*
X63781962Y-125248189D01*
X63784223Y-125227223D01*
X63786457Y-125214857D01*
X63789457Y-125203077D01*
X63792308Y-125194088D01*
X63794536Y-125189312D01*
X63795110Y-125188897D01*
X63797552Y-125186368D01*
X63797802Y-125184541D01*
X63799145Y-125179919D01*
X63802737Y-125171248D01*
X63807922Y-125160061D01*
X63810574Y-125154666D01*
X63824153Y-125131831D01*
X63840067Y-125112316D01*
X63857287Y-125097274D01*
X63867285Y-125091147D01*
X63873531Y-125087989D01*
X63879456Y-125085261D01*
X63885559Y-125082926D01*
X63892340Y-125080949D01*
X63900296Y-125079291D01*
X63909928Y-125077917D01*
X63921732Y-125076790D01*
X63936209Y-125075872D01*
X63953857Y-125075127D01*
X63975175Y-125074519D01*
X64000661Y-125074009D01*
X64030814Y-125073562D01*
X64066133Y-125073141D01*
X64107117Y-125072709D01*
X64118763Y-125072590D01*
X64164606Y-125072082D01*
X64204391Y-125071550D01*
X64238356Y-125070988D01*
X64266736Y-125070388D01*
X64289768Y-125069745D01*
X64307687Y-125069052D01*
X64320731Y-125068303D01*
X64329134Y-125067491D01*
X64332716Y-125066778D01*
X64340555Y-125064307D01*
X64345662Y-125063065D01*
X64346090Y-125063029D01*
X64346736Y-125066037D01*
X64347315Y-125074501D01*
X64347803Y-125087587D01*
X64348174Y-125104459D01*
X64348405Y-125124280D01*
X64348471Y-125142945D01*
X64348471Y-125222860D01*
X64322510Y-125226327D01*
X64308345Y-125228095D01*
X64294743Y-125229584D01*
X64284332Y-125230510D01*
X64283164Y-125230585D01*
X64269778Y-125231377D01*
X64295167Y-125252825D01*
X64317307Y-125273796D01*
X64334193Y-125295318D01*
X64346352Y-125318517D01*
X64354309Y-125344519D01*
X64358593Y-125374449D01*
X64359490Y-125390284D01*
X64359753Y-125406862D01*
X64359481Y-125423094D01*
X64358738Y-125436802D01*
X64357940Y-125443933D01*
X64353544Y-125463217D01*
X64346741Y-125483563D01*
X64338568Y-125502110D01*
X64333706Y-125510760D01*
X64327200Y-125520125D01*
X64319475Y-125529828D01*
X64311726Y-125538533D01*
X64305150Y-125544903D01*
X64300941Y-125547601D01*
X64300737Y-125547618D01*
X64296536Y-125549265D01*
X64289421Y-125553413D01*
X64286157Y-125555568D01*
X64266327Y-125565827D01*
X64242505Y-125572808D01*
X64216151Y-125576375D01*
X64188722Y-125576395D01*
X64180759Y-125575317D01*
X64161678Y-125572734D01*
X64145510Y-125568482D01*
G37*
G36*
X64348471Y-127322346D02*
G01*
X63788362Y-127322346D01*
X63788362Y-127158718D01*
X64348471Y-127158718D01*
X64348471Y-127322346D01*
G37*
G36*
X64348471Y-129874303D02*
G01*
X63788362Y-129874303D01*
X63788362Y-129805076D01*
X64348471Y-129805076D01*
X64348471Y-129874303D01*
G37*
G36*
X64348471Y-129279096D02*
G01*
X64146296Y-129280335D01*
X64105565Y-129280590D01*
X64070616Y-129280832D01*
X64040938Y-129281078D01*
X64016018Y-129281347D01*
X63995347Y-129281658D01*
X63978412Y-129282027D01*
X63964702Y-129282475D01*
X63953706Y-129283018D01*
X63944912Y-129283676D01*
X63937809Y-129284466D01*
X63931886Y-129285407D01*
X63926631Y-129286518D01*
X63921533Y-129287815D01*
X63919220Y-129288447D01*
X63892189Y-129298005D01*
X63870676Y-129310395D01*
X63854435Y-129325928D01*
X63843218Y-129344913D01*
X63836779Y-129367660D01*
X63834868Y-129394246D01*
X63837656Y-129424354D01*
X63845715Y-129451673D01*
X63859377Y-129476993D01*
X63878972Y-129501103D01*
X63880212Y-129502393D01*
X63899302Y-129519724D01*
X63920037Y-129533541D01*
X63943919Y-129544678D01*
X63972450Y-129553967D01*
X63973840Y-129554348D01*
X63979264Y-129555745D01*
X63984808Y-129556933D01*
X63991026Y-129557931D01*
X63998475Y-129558763D01*
X64007713Y-129559448D01*
X64019295Y-129560008D01*
X64033778Y-129560465D01*
X64051719Y-129560840D01*
X64073675Y-129561153D01*
X64100201Y-129561427D01*
X64131855Y-129561683D01*
X64169192Y-129561942D01*
X64173043Y-129561967D01*
X64348471Y-129563121D01*
X64348471Y-129635155D01*
X63788362Y-129635155D01*
X63788362Y-129562782D01*
X63886884Y-129562782D01*
X63867318Y-129550135D01*
X63843038Y-129532292D01*
X63822489Y-129512811D01*
X63806917Y-129492876D01*
X63806650Y-129492459D01*
X63800482Y-129483075D01*
X63795137Y-129475515D01*
X63792443Y-129472172D01*
X63788562Y-129465593D01*
X63784377Y-129454391D01*
X63780335Y-129440192D01*
X63776881Y-129424625D01*
X63774460Y-129409314D01*
X63773981Y-129404786D01*
X63773405Y-129388230D01*
X63774162Y-129369952D01*
X63775448Y-129358241D01*
X63777883Y-129345244D01*
X63781217Y-129331612D01*
X63785010Y-129318733D01*
X63788818Y-129307995D01*
X63792198Y-129300785D01*
X63794509Y-129298461D01*
X63797279Y-129296030D01*
X63802172Y-129289729D01*
X63806818Y-129282910D01*
X63823108Y-129263293D01*
X63844762Y-129246096D01*
X63871183Y-129231714D01*
X63900069Y-129221045D01*
X63904222Y-129219933D01*
X63909002Y-129218969D01*
X63914887Y-129218142D01*
X63922355Y-129217435D01*
X63931881Y-129216837D01*
X63943944Y-129216333D01*
X63959020Y-129215909D01*
X63977586Y-129215552D01*
X64000120Y-129215248D01*
X64027099Y-129214984D01*
X64058999Y-129214744D01*
X64096299Y-129214517D01*
X64133710Y-129214317D01*
X64348471Y-129213215D01*
X64348471Y-129279096D01*
G37*
G36*
X64215710Y-127417628D02*
G01*
X64246191Y-127428749D01*
X64273954Y-127444927D01*
X64298391Y-127465815D01*
X64318892Y-127491066D01*
X64333151Y-127516532D01*
X64345066Y-127548386D01*
X64353747Y-127584359D01*
X64359023Y-127623075D01*
X64360724Y-127663157D01*
X64358681Y-127703228D01*
X64357474Y-127713802D01*
X64352343Y-127743676D01*
X64344703Y-127770372D01*
X64333699Y-127796784D01*
X64331894Y-127800517D01*
X64324056Y-127815210D01*
X64315718Y-127827616D01*
X64305292Y-127839858D01*
X64293531Y-127851790D01*
X64274258Y-127868529D01*
X64253597Y-127882910D01*
X64232953Y-127894115D01*
X64213733Y-127901329D01*
X64205183Y-127903169D01*
X64192484Y-127905070D01*
X64183889Y-127841056D01*
X64181289Y-127821424D01*
X64179011Y-127803706D01*
X64177179Y-127788926D01*
X64175922Y-127778111D01*
X64175365Y-127772284D01*
X64175349Y-127771778D01*
X64178297Y-127767021D01*
X64186085Y-127762991D01*
X64186308Y-127762917D01*
X64198544Y-127756613D01*
X64211525Y-127746297D01*
X64223445Y-127733712D01*
X64232503Y-127720601D01*
X64234669Y-127716195D01*
X64242667Y-127690699D01*
X64246444Y-127662325D01*
X64245925Y-127632931D01*
X64241032Y-127604376D01*
X64239517Y-127598913D01*
X64232794Y-127583294D01*
X64223163Y-127570119D01*
X64211757Y-127560514D01*
X64199713Y-127555602D01*
X64195397Y-127555200D01*
X64183673Y-127556831D01*
X64173983Y-127562060D01*
X64166046Y-127571386D01*
X64159581Y-127585311D01*
X64154308Y-127604337D01*
X64149944Y-127628963D01*
X64148632Y-127638587D01*
X64146890Y-127650442D01*
X64144430Y-127664919D01*
X64141504Y-127680781D01*
X64138362Y-127696791D01*
X64135255Y-127711710D01*
X64132435Y-127724302D01*
X64130152Y-127733328D01*
X64128657Y-127737552D01*
X64128534Y-127737684D01*
X64126668Y-127741315D01*
X64123894Y-127749387D01*
X64120784Y-127760222D01*
X64120499Y-127761307D01*
X64109438Y-127793295D01*
X64094128Y-127820659D01*
X64074535Y-127843448D01*
X64053177Y-127860111D01*
X64026014Y-127873933D01*
X63996818Y-127882320D01*
X63966542Y-127885377D01*
X63936136Y-127883212D01*
X63906551Y-127875930D01*
X63878738Y-127863637D01*
X63853647Y-127846440D01*
X63843013Y-127836641D01*
X63834019Y-127826304D01*
X63824530Y-127813393D01*
X63815372Y-127799288D01*
X63807368Y-127785369D01*
X63801343Y-127773017D01*
X63798121Y-127763611D01*
X63797802Y-127760943D01*
X63796173Y-127756992D01*
X63794994Y-127756587D01*
X63792925Y-127753771D01*
X63790023Y-127746326D01*
X63786859Y-127735757D01*
X63786340Y-127733774D01*
X63783673Y-127719159D01*
X63781745Y-127700017D01*
X63780557Y-127677839D01*
X63780108Y-127654117D01*
X63780398Y-127630340D01*
X63781427Y-127608000D01*
X63783194Y-127588588D01*
X63785699Y-127573593D01*
X63786376Y-127570941D01*
X63789588Y-127560375D01*
X63792488Y-127552448D01*
X63794419Y-127548914D01*
X63796932Y-127545528D01*
X63801388Y-127538069D01*
X63806872Y-127528077D01*
X63807504Y-127526880D01*
X63820377Y-127507136D01*
X63837621Y-127487547D01*
X63857518Y-127469858D01*
X63876568Y-127456830D01*
X63890892Y-127448979D01*
X63904129Y-127442607D01*
X63915140Y-127438183D01*
X63922787Y-127436177D01*
X63925678Y-127436586D01*
X63927048Y-127440032D01*
X63929728Y-127448378D01*
X63933383Y-127460449D01*
X63937677Y-127475068D01*
X63942278Y-127491061D01*
X63946850Y-127507253D01*
X63951059Y-127522468D01*
X63954570Y-127535531D01*
X63957049Y-127545267D01*
X63958162Y-127550500D01*
X63958191Y-127550839D01*
X63955566Y-127553925D01*
X63948799Y-127557782D01*
X63944382Y-127559653D01*
X63926725Y-127569285D01*
X63910683Y-127583339D01*
X63898230Y-127599953D01*
X63895000Y-127606215D01*
X63891618Y-127614509D01*
X63889417Y-127622581D01*
X63888156Y-127632131D01*
X63887593Y-127644859D01*
X63887482Y-127659040D01*
X63887634Y-127675491D01*
X63888250Y-127687284D01*
X63889567Y-127696049D01*
X63891824Y-127703418D01*
X63894992Y-127710481D01*
X63904804Y-127724968D01*
X63916901Y-127734067D01*
X63930529Y-127737542D01*
X63944936Y-127735158D01*
X63955609Y-127729512D01*
X63960964Y-127725267D01*
X63965418Y-127720166D01*
X63969219Y-127713427D01*
X63972612Y-127704266D01*
X63975843Y-127691902D01*
X63979159Y-127675550D01*
X63982805Y-127654428D01*
X63986488Y-127631239D01*
X63989884Y-127610138D01*
X63993486Y-127589085D01*
X63997005Y-127569675D01*
X64000154Y-127553501D01*
X64002379Y-127543259D01*
X64012718Y-127509602D01*
X64026599Y-127481113D01*
X64044170Y-127457658D01*
X64065579Y-127439105D01*
X64090975Y-127425322D01*
X64120505Y-127416175D01*
X64149039Y-127411940D01*
X64183123Y-127411909D01*
X64215710Y-127417628D01*
G37*
G36*
X62709993Y-128208845D02*
G01*
X62706513Y-128205591D01*
X62698907Y-128199710D01*
X62688303Y-128192039D01*
X62676010Y-128183544D01*
X62641425Y-128159638D01*
X62610755Y-128137224D01*
X62582631Y-128115152D01*
X62555681Y-128092277D01*
X62528535Y-128067449D01*
X62499821Y-128039520D01*
X62479669Y-128019164D01*
X62440156Y-127977098D01*
X62405534Y-127936473D01*
X62374959Y-127896134D01*
X62347588Y-127854926D01*
X62329062Y-127822901D01*
X62460059Y-127822901D01*
X62461312Y-127826077D01*
X62465924Y-127833003D01*
X62474044Y-127844142D01*
X62482992Y-127856163D01*
X62518784Y-127900598D01*
X62560049Y-127945456D01*
X62606066Y-127990028D01*
X62656117Y-128033606D01*
X62692823Y-128062875D01*
X62715928Y-128080645D01*
X62740927Y-128061003D01*
X62753592Y-128051172D01*
X62766325Y-128041486D01*
X62777089Y-128033489D01*
X62780755Y-128030846D01*
X62799500Y-128016457D01*
X62821177Y-127997981D01*
X62844889Y-127976325D01*
X62869742Y-127952399D01*
X62894840Y-127927112D01*
X62919288Y-127901372D01*
X62942190Y-127876087D01*
X62962652Y-127852167D01*
X62979777Y-127830520D01*
X62984573Y-127823989D01*
X62992697Y-127812600D01*
X62999264Y-127803265D01*
X63003525Y-127797059D01*
X63004775Y-127795047D01*
X63002561Y-127796426D01*
X62996644Y-127800869D01*
X62988212Y-127807480D01*
X62986432Y-127808901D01*
X62957548Y-127829396D01*
X62924094Y-127848696D01*
X62887780Y-127866009D01*
X62850316Y-127880539D01*
X62813411Y-127891495D01*
X62803451Y-127893805D01*
X62785847Y-127896586D01*
X62763596Y-127898541D01*
X62738286Y-127899672D01*
X62711509Y-127899975D01*
X62684855Y-127899452D01*
X62659916Y-127898101D01*
X62638281Y-127895922D01*
X62625834Y-127893879D01*
X62587181Y-127883857D01*
X62548179Y-127869787D01*
X62526543Y-127859770D01*
X62510934Y-127852544D01*
X62477552Y-127833000D01*
X62474964Y-127831264D01*
X62467034Y-127825956D01*
X62462016Y-127823015D01*
X62460059Y-127822901D01*
X62329062Y-127822901D01*
X62322580Y-127811696D01*
X62310074Y-127787632D01*
X62526543Y-127787632D01*
X62572078Y-127761096D01*
X62587274Y-127752300D01*
X62600535Y-127744736D01*
X62610929Y-127738927D01*
X62617521Y-127735398D01*
X62619402Y-127734561D01*
X62622473Y-127733042D01*
X62630297Y-127728745D01*
X62642191Y-127722058D01*
X62657468Y-127713369D01*
X62675446Y-127703066D01*
X62695438Y-127691538D01*
X62702654Y-127687361D01*
X62723171Y-127675503D01*
X62741899Y-127664736D01*
X62758155Y-127655449D01*
X62771256Y-127648030D01*
X62780519Y-127642866D01*
X62785261Y-127640346D01*
X62785725Y-127640160D01*
X62788757Y-127638646D01*
X62796533Y-127634368D01*
X62808354Y-127627722D01*
X62823520Y-127619103D01*
X62841332Y-127608907D01*
X62861092Y-127597531D01*
X62865406Y-127595039D01*
X62885974Y-127583181D01*
X62905181Y-127572160D01*
X62922233Y-127562430D01*
X62936335Y-127554442D01*
X62946694Y-127548647D01*
X62952513Y-127545496D01*
X62952918Y-127545293D01*
X62958927Y-127542115D01*
X62968765Y-127536648D01*
X62981489Y-127529441D01*
X62996157Y-127521041D01*
X63011824Y-127511997D01*
X63027549Y-127502856D01*
X63042387Y-127494167D01*
X63055395Y-127486478D01*
X63065630Y-127480336D01*
X63072150Y-127476290D01*
X63074065Y-127474905D01*
X63071458Y-127473111D01*
X63064155Y-127468666D01*
X63052932Y-127462028D01*
X63038564Y-127453654D01*
X63021829Y-127444000D01*
X63013113Y-127439006D01*
X62995412Y-127428928D01*
X62979577Y-127419993D01*
X62974233Y-127417012D01*
X62966410Y-127412647D01*
X62956714Y-127407336D01*
X62951290Y-127404506D01*
X62950441Y-127404159D01*
X62947384Y-127402651D01*
X62939557Y-127398384D01*
X62927645Y-127391740D01*
X62912330Y-127383105D01*
X62894296Y-127372862D01*
X62874226Y-127361396D01*
X62866488Y-127356959D01*
X62845854Y-127345143D01*
X62827018Y-127334409D01*
X62810661Y-127325140D01*
X62797464Y-127317722D01*
X62788107Y-127312537D01*
X62783271Y-127309969D01*
X62782765Y-127309759D01*
X62779751Y-127308261D01*
X62771987Y-127304032D01*
X62760182Y-127297469D01*
X62745046Y-127288969D01*
X62727289Y-127278929D01*
X62707621Y-127267747D01*
X62705042Y-127266277D01*
X62684405Y-127254535D01*
X62664885Y-127243483D01*
X62647346Y-127233608D01*
X62632656Y-127225395D01*
X62621680Y-127219330D01*
X62615284Y-127215900D01*
X62615222Y-127215868D01*
X62607181Y-127211590D01*
X62595290Y-127205041D01*
X62581143Y-127197106D01*
X62566333Y-127188673D01*
X62566119Y-127188550D01*
X62552708Y-127180934D01*
X62541292Y-127174612D01*
X62532957Y-127170172D01*
X62528791Y-127168204D01*
X62528574Y-127168158D01*
X62528288Y-127171234D01*
X62528014Y-127180179D01*
X62527755Y-127194568D01*
X62527514Y-127213976D01*
X62527293Y-127237979D01*
X62527095Y-127266152D01*
X62526923Y-127298071D01*
X62526779Y-127333311D01*
X62526667Y-127371448D01*
X62526589Y-127412056D01*
X62526549Y-127454711D01*
X62526543Y-127477895D01*
X62526543Y-127787632D01*
X62310074Y-127787632D01*
X62308658Y-127784908D01*
X62300463Y-127768674D01*
X62293050Y-127754262D01*
X62286950Y-127742680D01*
X62282691Y-127734937D01*
X62280980Y-127732200D01*
X62278042Y-127726679D01*
X62273883Y-127716175D01*
X62268849Y-127701800D01*
X62263285Y-127684666D01*
X62257538Y-127665885D01*
X62251953Y-127646568D01*
X62246875Y-127627829D01*
X62242650Y-127610779D01*
X62241123Y-127603974D01*
X62238430Y-127591162D01*
X62236353Y-127580155D01*
X62234817Y-127569848D01*
X62233744Y-127559136D01*
X62233056Y-127546913D01*
X62232677Y-127532074D01*
X62232530Y-127513514D01*
X62232537Y-127490127D01*
X62232559Y-127481253D01*
X62232669Y-127455820D01*
X62232893Y-127435559D01*
X62233310Y-127419349D01*
X62234001Y-127406069D01*
X62235047Y-127394599D01*
X62236528Y-127383817D01*
X62238525Y-127372601D01*
X62241118Y-127359832D01*
X62241358Y-127358693D01*
X62244980Y-127342965D01*
X62249575Y-127325250D01*
X62254811Y-127306609D01*
X62260353Y-127288099D01*
X62265870Y-127270778D01*
X62271027Y-127255704D01*
X62275492Y-127243936D01*
X62278932Y-127236533D01*
X62280432Y-127234579D01*
X62283007Y-127230965D01*
X62287211Y-127223056D01*
X62292255Y-127212369D01*
X62293719Y-127209065D01*
X62307371Y-127180527D01*
X62324549Y-127148932D01*
X62341736Y-127120117D01*
X62474673Y-127120117D01*
X62474712Y-127120515D01*
X62477731Y-127119664D01*
X62483663Y-127116098D01*
X62484668Y-127115400D01*
X62502298Y-127104587D01*
X62524547Y-127093476D01*
X62549809Y-127082705D01*
X62576480Y-127072914D01*
X62602956Y-127064741D01*
X62625834Y-127059187D01*
X62644169Y-127056421D01*
X62666935Y-127054484D01*
X62692540Y-127053375D01*
X62719394Y-127053094D01*
X62745907Y-127053639D01*
X62770487Y-127055011D01*
X62791545Y-127057208D01*
X62803451Y-127059261D01*
X62841424Y-127069607D01*
X62881009Y-127084271D01*
X62920223Y-127102405D01*
X62957083Y-127123162D01*
X62965652Y-127128632D01*
X62974233Y-127134254D01*
X62965310Y-127122100D01*
X62958833Y-127113738D01*
X62953007Y-127106965D01*
X62951285Y-127105225D01*
X62947490Y-127101125D01*
X62940637Y-127093169D01*
X62931610Y-127082404D01*
X62921295Y-127069877D01*
X62918351Y-127066263D01*
X62892989Y-127036156D01*
X62866888Y-127007496D01*
X62839152Y-126979421D01*
X62808885Y-126951068D01*
X62775191Y-126921574D01*
X62737174Y-126890078D01*
X62725556Y-126880722D01*
X62720640Y-126877238D01*
X62716745Y-126876980D01*
X62711402Y-126880227D01*
X62708170Y-126882673D01*
X62696544Y-126892021D01*
X62681413Y-126904847D01*
X62663782Y-126920239D01*
X62644657Y-126937286D01*
X62625042Y-126955076D01*
X62605943Y-126972698D01*
X62588364Y-126989240D01*
X62573311Y-127003790D01*
X62561868Y-127015356D01*
X62550874Y-127027190D01*
X62538695Y-127040799D01*
X62525978Y-127055403D01*
X62513372Y-127070219D01*
X62501524Y-127084465D01*
X62491082Y-127097359D01*
X62482694Y-127108121D01*
X62477009Y-127115968D01*
X62474673Y-127120117D01*
X62341736Y-127120117D01*
X62344366Y-127115708D01*
X62365933Y-127082281D01*
X62388361Y-127050079D01*
X62410762Y-127020530D01*
X62412231Y-127018691D01*
X62423817Y-127004960D01*
X62439143Y-126987867D01*
X62457322Y-126968317D01*
X62477469Y-126947213D01*
X62498696Y-126925459D01*
X62520117Y-126903961D01*
X62540845Y-126883622D01*
X62559994Y-126865346D01*
X62576678Y-126850038D01*
X62583183Y-126844326D01*
X62595438Y-126833744D01*
X62606653Y-126824027D01*
X62615580Y-126816257D01*
X62620943Y-126811545D01*
X62627033Y-126806361D01*
X62636854Y-126798267D01*
X62649189Y-126788243D01*
X62662820Y-126777266D01*
X62676530Y-126766315D01*
X62689102Y-126756367D01*
X62699318Y-126748402D01*
X62703547Y-126745178D01*
X62715350Y-126736311D01*
X62748573Y-126760287D01*
X62761104Y-126769234D01*
X62771767Y-126776664D01*
X62779550Y-126781885D01*
X62783440Y-126784207D01*
X62783646Y-126784263D01*
X62787158Y-126786214D01*
X62794008Y-126791356D01*
X62802901Y-126798626D01*
X62812540Y-126806959D01*
X62821627Y-126815291D01*
X62822635Y-126816256D01*
X62828708Y-126821948D01*
X62838396Y-126830847D01*
X62850617Y-126841969D01*
X62864291Y-126854328D01*
X62872771Y-126861953D01*
X62927531Y-126913456D01*
X62976592Y-126964683D01*
X63020485Y-127016261D01*
X63059738Y-127068817D01*
X63094884Y-127122977D01*
X63098382Y-127128825D01*
X63106336Y-127142019D01*
X63113291Y-127153174D01*
X63118552Y-127161202D01*
X63121423Y-127165016D01*
X63121578Y-127165140D01*
X63124485Y-127169069D01*
X63129226Y-127177795D01*
X63135329Y-127190262D01*
X63142321Y-127205412D01*
X63149729Y-127222187D01*
X63157082Y-127239531D01*
X63163906Y-127256386D01*
X63169729Y-127271694D01*
X63171819Y-127277569D01*
X63186978Y-127325917D01*
X63197921Y-127371818D01*
X63204967Y-127417189D01*
X63208437Y-127463945D01*
X63208901Y-127499508D01*
X63208671Y-127517533D01*
X63208343Y-127533994D01*
X63207954Y-127547569D01*
X63207537Y-127556937D01*
X63207297Y-127559920D01*
X63203918Y-127583013D01*
X63199101Y-127609227D01*
X63193416Y-127635719D01*
X63187434Y-127659647D01*
X63186802Y-127661931D01*
X63180663Y-127681918D01*
X63172990Y-127703890D01*
X63164278Y-127726685D01*
X63155021Y-127749145D01*
X63145712Y-127770109D01*
X63136847Y-127788416D01*
X63128918Y-127802907D01*
X63123049Y-127811654D01*
X63119548Y-127816512D01*
X63113405Y-127825498D01*
X63105398Y-127837458D01*
X63096304Y-127851236D01*
X63093378Y-127855708D01*
X63072002Y-127886962D01*
X63048677Y-127918433D01*
X63024319Y-127949019D01*
X62999845Y-127977621D01*
X62976172Y-128003139D01*
X62954216Y-128024472D01*
X62948534Y-128029517D01*
X62937008Y-128039613D01*
X62923001Y-128052031D01*
X62908677Y-128064848D01*
X62900998Y-128071779D01*
X62884819Y-128086070D01*
X62866558Y-128101587D01*
X62847355Y-128117415D01*
X62828352Y-128132641D01*
X62810688Y-128146348D01*
X62795505Y-128157624D01*
X62784571Y-128165150D01*
X62771545Y-128173808D01*
X62757851Y-128183370D01*
X62744913Y-128192794D01*
X62734155Y-128201041D01*
X62727002Y-128207067D01*
X62726246Y-128207797D01*
X62718998Y-128212341D01*
X62715928Y-128211955D01*
X62712592Y-128211536D01*
X62709993Y-128208845D01*
G37*
G36*
X63976888Y-127050008D02*
G01*
X63939301Y-127038444D01*
X63904830Y-127022723D01*
X63887729Y-127012424D01*
X63865579Y-126995258D01*
X63844431Y-126974298D01*
X63825599Y-126951117D01*
X63810395Y-126927288D01*
X63802132Y-126909858D01*
X63798450Y-126901328D01*
X63795367Y-126895567D01*
X63794398Y-126894397D01*
X63792350Y-126890771D01*
X63789280Y-126882901D01*
X63786314Y-126873944D01*
X63783583Y-126860965D01*
X63781625Y-126843276D01*
X63780442Y-126822411D01*
X63780036Y-126799905D01*
X63780197Y-126790168D01*
X63890297Y-126790168D01*
X63891000Y-126809372D01*
X63894685Y-126827102D01*
X63897940Y-126835295D01*
X63908656Y-126850708D01*
X63924361Y-126863397D01*
X63945203Y-126873410D01*
X63971332Y-126880796D01*
X64002896Y-126885606D01*
X64040042Y-126887888D01*
X64057297Y-126888104D01*
X64099694Y-126887032D01*
X64136372Y-126883773D01*
X64167534Y-126878267D01*
X64193386Y-126870449D01*
X64214132Y-126860258D01*
X64229977Y-126847632D01*
X64241125Y-126832507D01*
X64241435Y-126831928D01*
X64245916Y-126818548D01*
X64247846Y-126801808D01*
X64247237Y-126784096D01*
X64244102Y-126767797D01*
X64241074Y-126759817D01*
X64230364Y-126744733D01*
X64214106Y-126731812D01*
X64192738Y-126721277D01*
X64166700Y-126713352D01*
X64140790Y-126708779D01*
X64116017Y-126706545D01*
X64088361Y-126705583D01*
X64059208Y-126705813D01*
X64029941Y-126707157D01*
X64001946Y-126709535D01*
X63976608Y-126712867D01*
X63955310Y-126717076D01*
X63945136Y-126719959D01*
X63926076Y-126728704D01*
X63910074Y-126740859D01*
X63898639Y-126755253D01*
X63897849Y-126756688D01*
X63892579Y-126771828D01*
X63890297Y-126790168D01*
X63780197Y-126790168D01*
X63780409Y-126777293D01*
X63781563Y-126756111D01*
X63783501Y-126737894D01*
X63786107Y-126724597D01*
X63789302Y-126714034D01*
X63792225Y-126706096D01*
X63794190Y-126702570D01*
X63796713Y-126698850D01*
X63800318Y-126691325D01*
X63802223Y-126686716D01*
X63818147Y-126654563D01*
X63839157Y-126625693D01*
X63864844Y-126600324D01*
X63894797Y-126578675D01*
X63928607Y-126560962D01*
X63965864Y-126547403D01*
X64006157Y-126538217D01*
X64049078Y-126533620D01*
X64090443Y-126533628D01*
X64134141Y-126538103D01*
X64173948Y-126547169D01*
X64210555Y-126561101D01*
X64244652Y-126580175D01*
X64276928Y-126604666D01*
X64283939Y-126610886D01*
X64308810Y-126637331D01*
X64328646Y-126666958D01*
X64343798Y-126700359D01*
X64351738Y-126726050D01*
X64355225Y-126743860D01*
X64357825Y-126765763D01*
X64359433Y-126789628D01*
X64359944Y-126813324D01*
X64359255Y-126834721D01*
X64357765Y-126848770D01*
X64349968Y-126883827D01*
X64337941Y-126915329D01*
X64321262Y-126943898D01*
X64299507Y-126970154D01*
X64272254Y-126994718D01*
X64245286Y-127014181D01*
X64213210Y-127031845D01*
X64177418Y-127045318D01*
X64138887Y-127054607D01*
X64098592Y-127059715D01*
X64057510Y-127060648D01*
X64057297Y-127060631D01*
X64016617Y-127057411D01*
X63976888Y-127050008D01*
G37*
G36*
X64348471Y-128137336D02*
G01*
X63788362Y-128137336D01*
X63788362Y-127973708D01*
X64348471Y-127973708D01*
X64348471Y-128137336D01*
G37*
G36*
X63744308Y-124943456D02*
G01*
X63577534Y-124943456D01*
X63577534Y-124779828D01*
X63744308Y-124779828D01*
X63744308Y-124943456D01*
G37*
G36*
X63744308Y-128137336D02*
G01*
X63577534Y-128137336D01*
X63577534Y-127973708D01*
X63744308Y-127973708D01*
X63744308Y-128137336D01*
G37*
G36*
X64362179Y-129983650D02*
G01*
X64364039Y-130006375D01*
X64365308Y-130026835D01*
X64365939Y-130043925D01*
X64365884Y-130056541D01*
X64365499Y-130061530D01*
X64359183Y-130093364D01*
X64349458Y-130119988D01*
X64336274Y-130141517D01*
X64324426Y-130154092D01*
X64310736Y-130163663D01*
X64292612Y-130172768D01*
X64271907Y-130180652D01*
X64250474Y-130186563D01*
X64239307Y-130188661D01*
X64230445Y-130189489D01*
X64215516Y-130190210D01*
X64194746Y-130190822D01*
X64168362Y-130191320D01*
X64136589Y-130191701D01*
X64099653Y-130191962D01*
X64057781Y-130192098D01*
X64032413Y-130192118D01*
X63848148Y-130192118D01*
X63848148Y-130302251D01*
X63788362Y-130302251D01*
X63788362Y-130195264D01*
X63653794Y-130195264D01*
X63651749Y-130170878D01*
X63650506Y-130157251D01*
X63649169Y-130144436D01*
X63648014Y-130135085D01*
X63647956Y-130134691D01*
X63646208Y-130122891D01*
X63788362Y-130122891D01*
X63788362Y-129997024D01*
X63848148Y-129997024D01*
X63848148Y-130123115D01*
X64045603Y-130122216D01*
X64243057Y-130121317D01*
X64259600Y-130113840D01*
X64275023Y-130104460D01*
X64288885Y-130091628D01*
X64299751Y-130076978D01*
X64306189Y-130062147D01*
X64306658Y-130060140D01*
X64308092Y-130048715D01*
X64308842Y-130033123D01*
X64308907Y-130015453D01*
X64308282Y-129997793D01*
X64306967Y-129982233D01*
X64306750Y-129980503D01*
X64304362Y-129962410D01*
X64360244Y-129962410D01*
X64362179Y-129983650D01*
G37*
G36*
X64348471Y-124943456D02*
G01*
X63788362Y-124943456D01*
X63788362Y-124779828D01*
X64348471Y-124779828D01*
X64348471Y-124943456D01*
G37*
G36*
X63799898Y-128204828D02*
G01*
X63801473Y-128206550D01*
X63804515Y-128207949D01*
X63813014Y-128211172D01*
X63826461Y-128216045D01*
X63844345Y-128222393D01*
X63866155Y-128230043D01*
X63891382Y-128238820D01*
X63919515Y-128248550D01*
X63950044Y-128259058D01*
X63982459Y-128270170D01*
X64016250Y-128281713D01*
X64050905Y-128293512D01*
X64085916Y-128305392D01*
X64120772Y-128317179D01*
X64154962Y-128328699D01*
X64187976Y-128339779D01*
X64219305Y-128350242D01*
X64248437Y-128359916D01*
X64274863Y-128368626D01*
X64298073Y-128376198D01*
X64300547Y-128376999D01*
X64348597Y-128392540D01*
X64346897Y-128522518D01*
X64320150Y-128531178D01*
X64313292Y-128533439D01*
X64301054Y-128537520D01*
X64284020Y-128543224D01*
X64262772Y-128550353D01*
X64237894Y-128558712D01*
X64209967Y-128568105D01*
X64179574Y-128578333D01*
X64147299Y-128589202D01*
X64113723Y-128600515D01*
X64079430Y-128612075D01*
X64045003Y-128623685D01*
X64011023Y-128635150D01*
X63978075Y-128646272D01*
X63946739Y-128656856D01*
X63917600Y-128666704D01*
X63891241Y-128675621D01*
X63868242Y-128683410D01*
X63849189Y-128689874D01*
X63834662Y-128694817D01*
X63825245Y-128698042D01*
X63824747Y-128698214D01*
X63814924Y-128702002D01*
X63808669Y-128705201D01*
X63807089Y-128707224D01*
X63807441Y-128707439D01*
X63819521Y-128711891D01*
X63837034Y-128718297D01*
X63859489Y-128726480D01*
X63886398Y-128736262D01*
X63917270Y-128747467D01*
X63951617Y-128759916D01*
X63988949Y-128773434D01*
X64028777Y-128787841D01*
X64070610Y-128802962D01*
X64113961Y-128818619D01*
X64158338Y-128834635D01*
X64203254Y-128850832D01*
X64217883Y-128856104D01*
X64262941Y-128872364D01*
X64302483Y-128886698D01*
X64336925Y-128899283D01*
X64366683Y-128910298D01*
X64392173Y-128919919D01*
X64413811Y-128928324D01*
X64432013Y-128935689D01*
X64447195Y-128942192D01*
X64459773Y-128948011D01*
X64470163Y-128953321D01*
X64478781Y-128958302D01*
X64486042Y-128963129D01*
X64492363Y-128967980D01*
X64498160Y-128973032D01*
X64502900Y-128977534D01*
X64521366Y-128999337D01*
X64534434Y-129023755D01*
X64542179Y-129049460D01*
X64544694Y-129065579D01*
X64546047Y-129083355D01*
X64546138Y-129100248D01*
X64544867Y-129113717D01*
X64544742Y-129114380D01*
X64543416Y-129121031D01*
X64541404Y-129131037D01*
X64540161Y-129137193D01*
X64536820Y-129153713D01*
X64477924Y-129153713D01*
X64480732Y-129143920D01*
X64485895Y-129119634D01*
X64487684Y-129095618D01*
X64486180Y-129073212D01*
X64481461Y-129053758D01*
X64474554Y-129039913D01*
X64461431Y-129025366D01*
X64442284Y-129010831D01*
X64417378Y-128996469D01*
X64386980Y-128982443D01*
X64366960Y-128974534D01*
X64339823Y-128964376D01*
X64300880Y-128976940D01*
X64288215Y-128981077D01*
X64270667Y-128986885D01*
X64249307Y-128994004D01*
X64225209Y-129002075D01*
X64199445Y-129010739D01*
X64173090Y-129019638D01*
X64159670Y-129024184D01*
X64132788Y-129033299D01*
X64101377Y-129043949D01*
X64066870Y-129055648D01*
X64030697Y-129067910D01*
X63994291Y-129080251D01*
X63959084Y-129092185D01*
X63926815Y-129103122D01*
X63899396Y-129112386D01*
X63873756Y-129120993D01*
X63850520Y-129128736D01*
X63830316Y-129135410D01*
X63813770Y-129140809D01*
X63801509Y-129144726D01*
X63794158Y-129146954D01*
X63792295Y-129147400D01*
X63790470Y-129145616D01*
X63789271Y-129139760D01*
X63788618Y-129129106D01*
X63788432Y-129112929D01*
X63788434Y-129112020D01*
X63788506Y-129076620D01*
X64014810Y-129002837D01*
X64241114Y-128929053D01*
X64185445Y-128908960D01*
X64150724Y-128896435D01*
X64115054Y-128883580D01*
X64078934Y-128870575D01*
X64042865Y-128857599D01*
X64007345Y-128844831D01*
X63972873Y-128832450D01*
X63939950Y-128820635D01*
X63909073Y-128809564D01*
X63880744Y-128799418D01*
X63855460Y-128790375D01*
X63833722Y-128782615D01*
X63816028Y-128776315D01*
X63802879Y-128771656D01*
X63794772Y-128768816D01*
X63792295Y-128767986D01*
X63791220Y-128764677D01*
X63790299Y-128755968D01*
X63789532Y-128742707D01*
X63788920Y-128725743D01*
X63788463Y-128705922D01*
X63788161Y-128684092D01*
X63788014Y-128661101D01*
X63788023Y-128637797D01*
X63788188Y-128615027D01*
X63788509Y-128593640D01*
X63788987Y-128574482D01*
X63789621Y-128558402D01*
X63790412Y-128546246D01*
X63791360Y-128538864D01*
X63792222Y-128536964D01*
X63796136Y-128536087D01*
X63805265Y-128533611D01*
X63818806Y-128529767D01*
X63835952Y-128524788D01*
X63855900Y-128518905D01*
X63877844Y-128512349D01*
X63881116Y-128511365D01*
X63909377Y-128502863D01*
X63941307Y-128493267D01*
X63974732Y-128483230D01*
X64007478Y-128473404D01*
X64037370Y-128464443D01*
X64049536Y-128460799D01*
X64075360Y-128453069D01*
X64095752Y-128446960D01*
X64111305Y-128442279D01*
X64122615Y-128438834D01*
X64130273Y-128436435D01*
X64134876Y-128434887D01*
X64137016Y-128434001D01*
X64137289Y-128433582D01*
X64136288Y-128433440D01*
X64134606Y-128433383D01*
X64134384Y-128433372D01*
X64130182Y-128432409D01*
X64120815Y-128429822D01*
X64107124Y-128425858D01*
X64089952Y-128420764D01*
X64070143Y-128414788D01*
X64049424Y-128408449D01*
X64023588Y-128400493D01*
X63993661Y-128391276D01*
X63961565Y-128381391D01*
X63929224Y-128371429D01*
X63898561Y-128361984D01*
X63878829Y-128355906D01*
X63788362Y-128328037D01*
X63788362Y-128265726D01*
X63788391Y-128244453D01*
X63788531Y-128228661D01*
X63788862Y-128217535D01*
X63789461Y-128210263D01*
X63790407Y-128206032D01*
X63791779Y-128204028D01*
X63793656Y-128203439D01*
X63794393Y-128203416D01*
X63799898Y-128204828D01*
G37*
X65212142Y-131492142D02*
X66112142Y-131492142D01*
X65255000Y-131492142D02*
X65212142Y-131406428D01*
X65212142Y-131235000D01*
X65255000Y-131149285D01*
X65297857Y-131106428D01*
X65383571Y-131063571D01*
X65640714Y-131063571D01*
X65726428Y-131106428D01*
X65769285Y-131149285D01*
X65812142Y-131235000D01*
X65812142Y-131406428D01*
X65769285Y-131492142D01*
X65812142Y-130677857D02*
X65212142Y-130677857D01*
X64912142Y-130677857D02*
X64955000Y-130720714D01*
X64997857Y-130677857D01*
X64955000Y-130635000D01*
X64912142Y-130677857D01*
X64997857Y-130677857D01*
X65769285Y-129863571D02*
X65812142Y-129949285D01*
X65812142Y-130120714D01*
X65769285Y-130206428D01*
X65726428Y-130249285D01*
X65640714Y-130292142D01*
X65383571Y-130292142D01*
X65297857Y-130249285D01*
X65255000Y-130206428D01*
X65212142Y-130120714D01*
X65212142Y-129949285D01*
X65255000Y-129863571D01*
X65812142Y-129349285D02*
X65769285Y-129435000D01*
X65726428Y-129477857D01*
X65640714Y-129520714D01*
X65383571Y-129520714D01*
X65297857Y-129477857D01*
X65255000Y-129435000D01*
X65212142Y-129349285D01*
X65212142Y-129220714D01*
X65255000Y-129135000D01*
X65297857Y-129092142D01*
X65383571Y-129049285D01*
X65640714Y-129049285D01*
X65726428Y-129092142D01*
X65769285Y-129135000D01*
X65812142Y-129220714D01*
X65812142Y-129349285D01*
X65469285Y-128663571D02*
X65469285Y-127977857D01*
X65812142Y-127549285D02*
X65212142Y-127549285D01*
X64912142Y-127549285D02*
X64955000Y-127592142D01*
X64997857Y-127549285D01*
X64955000Y-127506428D01*
X64912142Y-127549285D01*
X64997857Y-127549285D01*
X65769285Y-126735000D02*
X65812142Y-126820714D01*
X65812142Y-126992142D01*
X65769285Y-127077857D01*
X65726428Y-127120714D01*
X65640714Y-127163571D01*
X65383571Y-127163571D01*
X65297857Y-127120714D01*
X65255000Y-127077857D01*
X65212142Y-126992142D01*
X65212142Y-126820714D01*
X65255000Y-126735000D01*
X65769285Y-126006428D02*
X65812142Y-126092142D01*
X65812142Y-126263571D01*
X65769285Y-126349285D01*
X65683571Y-126392142D01*
X65340714Y-126392142D01*
X65255000Y-126349285D01*
X65212142Y-126263571D01*
X65212142Y-126092142D01*
X65255000Y-126006428D01*
X65340714Y-125963571D01*
X65426428Y-125963571D01*
X65512142Y-126392142D01*
X65212142Y-124977857D02*
X65812142Y-124763571D01*
X65212142Y-124549285D01*
X65812142Y-123735000D02*
X65812142Y-124249285D01*
X65812142Y-123992142D02*
X64912142Y-123992142D01*
X65040714Y-124077857D01*
X65126428Y-124163571D01*
X65169285Y-124249285D01*
G36*
X64348471Y-126120314D02*
G01*
X64177763Y-126120338D01*
X64134600Y-126120393D01*
X64097263Y-126120560D01*
X64065288Y-126120861D01*
X64038207Y-126121319D01*
X64015557Y-126121956D01*
X63996870Y-126122795D01*
X63981681Y-126123858D01*
X63969525Y-126125167D01*
X63959934Y-126126745D01*
X63952444Y-126128614D01*
X63946590Y-126130797D01*
X63945050Y-126131533D01*
X63928366Y-126143151D01*
X63916680Y-126158253D01*
X63910359Y-126176070D01*
X63909773Y-126195834D01*
X63910923Y-126202755D01*
X63916432Y-126220591D01*
X63925012Y-126234897D01*
X63937542Y-126246575D01*
X63954905Y-126256526D01*
X63969300Y-126262535D01*
X63973417Y-126264043D01*
X63977475Y-126265326D01*
X63982005Y-126266402D01*
X63987538Y-126267296D01*
X63994607Y-126268028D01*
X64003741Y-126268619D01*
X64015474Y-126269092D01*
X64030335Y-126269469D01*
X64048856Y-126269770D01*
X64071569Y-126270017D01*
X64099005Y-126270233D01*
X64131695Y-126270439D01*
X64168323Y-126270645D01*
X64348471Y-126271643D01*
X64348471Y-126434982D01*
X63788362Y-126434982D01*
X63788362Y-126284114D01*
X63833067Y-126283241D01*
X63877773Y-126282368D01*
X63856659Y-126268620D01*
X63847015Y-126261631D01*
X63836136Y-126252646D01*
X63825108Y-126242710D01*
X63815018Y-126232867D01*
X63806950Y-126224162D01*
X63801991Y-126217639D01*
X63800948Y-126215016D01*
X63799076Y-126211094D01*
X63794643Y-126205260D01*
X63789326Y-126197519D01*
X63785430Y-126187689D01*
X63782784Y-126174817D01*
X63781215Y-126157949D01*
X63780553Y-126136131D01*
X63780504Y-126126607D01*
X63780688Y-126106380D01*
X63781335Y-126091063D01*
X63782571Y-126079282D01*
X63784523Y-126069663D01*
X63786318Y-126063674D01*
X63789823Y-126054049D01*
X63792848Y-126047112D01*
X63794336Y-126044794D01*
X63797045Y-126041363D01*
X63801594Y-126034291D01*
X63804810Y-126028879D01*
X63820049Y-126008613D01*
X63840423Y-125991234D01*
X63865273Y-125977166D01*
X63893944Y-125966835D01*
X63905074Y-125964113D01*
X63910642Y-125963081D01*
X63917466Y-125962181D01*
X63926026Y-125961398D01*
X63936797Y-125960720D01*
X63950257Y-125960132D01*
X63966885Y-125959623D01*
X63987157Y-125959178D01*
X64011552Y-125958783D01*
X64040546Y-125958427D01*
X64074617Y-125958095D01*
X64114243Y-125957774D01*
X64138430Y-125957599D01*
X64348471Y-125956121D01*
X64348471Y-126120314D01*
G37*
G36*
X63678228Y-129880596D02*
G01*
X63593267Y-129880596D01*
X63593267Y-129801929D01*
X63678228Y-129801929D01*
X63678228Y-129880596D01*
G37*
G36*
X63744308Y-127322346D02*
G01*
X63577534Y-127322346D01*
X63577534Y-127158718D01*
X63744308Y-127158718D01*
X63744308Y-127322346D01*
G37*
G36*
X64348471Y-125837113D02*
G01*
X64175403Y-125837113D01*
X64175403Y-125667192D01*
X64348471Y-125667192D01*
X64348471Y-125837113D01*
G37*
G36*
X64145510Y-125568482D02*
G01*
X64122478Y-125559784D01*
X64103577Y-125549310D01*
X64086656Y-125535703D01*
X64075527Y-125524346D01*
X64061309Y-125506843D01*
X64049021Y-125487344D01*
X64038471Y-125465232D01*
X64029466Y-125439885D01*
X64021814Y-125410684D01*
X64015322Y-125377009D01*
X64009798Y-125338241D01*
X64005547Y-125299030D01*
X64003985Y-125283065D01*
X64002457Y-125268016D01*
X64001163Y-125255806D01*
X64000440Y-125249470D01*
X63999908Y-125245125D01*
X64084149Y-125245125D01*
X64085068Y-125257436D01*
X64087549Y-125273714D01*
X64091179Y-125291949D01*
X64095542Y-125310133D01*
X64100225Y-125326257D01*
X64101850Y-125331007D01*
X64109532Y-125349995D01*
X64117602Y-125364361D01*
X64127216Y-125375729D01*
X64139533Y-125385726D01*
X64142099Y-125387486D01*
X64161584Y-125397498D01*
X64180759Y-125401804D01*
X64198975Y-125400982D01*
X64215585Y-125395613D01*
X64229939Y-125386273D01*
X64241391Y-125373542D01*
X64249291Y-125357998D01*
X64252992Y-125340219D01*
X64251846Y-125320786D01*
X64245204Y-125300275D01*
X64243573Y-125296903D01*
X64230654Y-125278026D01*
X64212851Y-125261787D01*
X64191300Y-125248999D01*
X64167141Y-125240477D01*
X64163448Y-125239635D01*
X64152722Y-125238059D01*
X64138175Y-125236844D01*
X64122279Y-125236173D01*
X64115461Y-125236097D01*
X64084149Y-125236097D01*
X64084149Y-125245125D01*
X63999908Y-125245125D01*
X63998803Y-125236097D01*
X63975967Y-125236097D01*
X63950281Y-125237994D01*
X63929412Y-125243781D01*
X63913125Y-125253601D01*
X63901180Y-125267594D01*
X63893452Y-125285517D01*
X63889567Y-125308109D01*
X63890520Y-125330838D01*
X63895975Y-125352345D01*
X63905596Y-125371269D01*
X63918129Y-125385479D01*
X63929566Y-125393440D01*
X63943095Y-125400209D01*
X63956297Y-125404729D01*
X63965136Y-125406018D01*
X63969565Y-125407997D01*
X63970885Y-125414671D01*
X63970579Y-125423544D01*
X63969736Y-125435709D01*
X63968497Y-125449837D01*
X63967007Y-125464599D01*
X63965411Y-125478669D01*
X63963851Y-125490717D01*
X63962471Y-125499416D01*
X63961416Y-125503438D01*
X63961255Y-125503565D01*
X63960077Y-125506472D01*
X63958730Y-125514261D01*
X63957431Y-125525530D01*
X63956879Y-125531885D01*
X63955715Y-125545987D01*
X63954108Y-125554723D01*
X63950878Y-125558978D01*
X63944843Y-125559636D01*
X63934822Y-125557580D01*
X63925696Y-125555230D01*
X63894779Y-125544413D01*
X63867789Y-125528818D01*
X63844585Y-125508312D01*
X63825021Y-125482761D01*
X63808956Y-125452030D01*
X63805205Y-125442844D01*
X63800798Y-125431864D01*
X63797088Y-125423355D01*
X63794760Y-125418877D01*
X63794524Y-125418604D01*
X63793011Y-125415016D01*
X63790609Y-125406781D01*
X63787744Y-125395411D01*
X63786554Y-125390284D01*
X63783631Y-125372667D01*
X63781570Y-125350489D01*
X63780372Y-125325351D01*
X63780037Y-125298854D01*
X63780567Y-125272599D01*
X63781962Y-125248189D01*
X63784223Y-125227223D01*
X63786457Y-125214857D01*
X63789457Y-125203077D01*
X63792308Y-125194088D01*
X63794536Y-125189312D01*
X63795110Y-125188897D01*
X63797552Y-125186368D01*
X63797802Y-125184541D01*
X63799145Y-125179919D01*
X63802737Y-125171248D01*
X63807922Y-125160061D01*
X63810574Y-125154666D01*
X63824153Y-125131831D01*
X63840067Y-125112316D01*
X63857287Y-125097274D01*
X63867285Y-125091147D01*
X63873531Y-125087989D01*
X63879456Y-125085261D01*
X63885559Y-125082926D01*
X63892340Y-125080949D01*
X63900296Y-125079291D01*
X63909928Y-125077917D01*
X63921732Y-125076790D01*
X63936209Y-125075872D01*
X63953857Y-125075127D01*
X63975175Y-125074519D01*
X64000661Y-125074009D01*
X64030814Y-125073562D01*
X64066133Y-125073141D01*
X64107117Y-125072709D01*
X64118763Y-125072590D01*
X64164606Y-125072082D01*
X64204391Y-125071550D01*
X64238356Y-125070988D01*
X64266736Y-125070388D01*
X64289768Y-125069745D01*
X64307687Y-125069052D01*
X64320731Y-125068303D01*
X64329134Y-125067491D01*
X64332716Y-125066778D01*
X64340555Y-125064307D01*
X64345662Y-125063065D01*
X64346090Y-125063029D01*
X64346736Y-125066037D01*
X64347315Y-125074501D01*
X64347803Y-125087587D01*
X64348174Y-125104459D01*
X64348405Y-125124280D01*
X64348471Y-125142945D01*
X64348471Y-125222860D01*
X64322510Y-125226327D01*
X64308345Y-125228095D01*
X64294743Y-125229584D01*
X64284332Y-125230510D01*
X64283164Y-125230585D01*
X64269778Y-125231377D01*
X64295167Y-125252825D01*
X64317307Y-125273796D01*
X64334193Y-125295318D01*
X64346352Y-125318517D01*
X64354309Y-125344519D01*
X64358593Y-125374449D01*
X64359490Y-125390284D01*
X64359753Y-125406862D01*
X64359481Y-125423094D01*
X64358738Y-125436802D01*
X64357940Y-125443933D01*
X64353544Y-125463217D01*
X64346741Y-125483563D01*
X64338568Y-125502110D01*
X64333706Y-125510760D01*
X64327200Y-125520125D01*
X64319475Y-125529828D01*
X64311726Y-125538533D01*
X64305150Y-125544903D01*
X64300941Y-125547601D01*
X64300737Y-125547618D01*
X64296536Y-125549265D01*
X64289421Y-125553413D01*
X64286157Y-125555568D01*
X64266327Y-125565827D01*
X64242505Y-125572808D01*
X64216151Y-125576375D01*
X64188722Y-125576395D01*
X64180759Y-125575317D01*
X64161678Y-125572734D01*
X64145510Y-125568482D01*
G37*
G36*
X64348471Y-127322346D02*
G01*
X63788362Y-127322346D01*
X63788362Y-127158718D01*
X64348471Y-127158718D01*
X64348471Y-127322346D01*
G37*
G36*
X64348471Y-129874303D02*
G01*
X63788362Y-129874303D01*
X63788362Y-129805076D01*
X64348471Y-129805076D01*
X64348471Y-129874303D01*
G37*
G36*
X64348471Y-129279096D02*
G01*
X64146296Y-129280335D01*
X64105565Y-129280590D01*
X64070616Y-129280832D01*
X64040938Y-129281078D01*
X64016018Y-129281347D01*
X63995347Y-129281658D01*
X63978412Y-129282027D01*
X63964702Y-129282475D01*
X63953706Y-129283018D01*
X63944912Y-129283676D01*
X63937809Y-129284466D01*
X63931886Y-129285407D01*
X63926631Y-129286518D01*
X63921533Y-129287815D01*
X63919220Y-129288447D01*
X63892189Y-129298005D01*
X63870676Y-129310395D01*
X63854435Y-129325928D01*
X63843218Y-129344913D01*
X63836779Y-129367660D01*
X63834868Y-129394246D01*
X63837656Y-129424354D01*
X63845715Y-129451673D01*
X63859377Y-129476993D01*
X63878972Y-129501103D01*
X63880212Y-129502393D01*
X63899302Y-129519724D01*
X63920037Y-129533541D01*
X63943919Y-129544678D01*
X63972450Y-129553967D01*
X63973840Y-129554348D01*
X63979264Y-129555745D01*
X63984808Y-129556933D01*
X63991026Y-129557931D01*
X63998475Y-129558763D01*
X64007713Y-129559448D01*
X64019295Y-129560008D01*
X64033778Y-129560465D01*
X64051719Y-129560840D01*
X64073675Y-129561153D01*
X64100201Y-129561427D01*
X64131855Y-129561683D01*
X64169192Y-129561942D01*
X64173043Y-129561967D01*
X64348471Y-129563121D01*
X64348471Y-129635155D01*
X63788362Y-129635155D01*
X63788362Y-129562782D01*
X63886884Y-129562782D01*
X63867318Y-129550135D01*
X63843038Y-129532292D01*
X63822489Y-129512811D01*
X63806917Y-129492876D01*
X63806650Y-129492459D01*
X63800482Y-129483075D01*
X63795137Y-129475515D01*
X63792443Y-129472172D01*
X63788562Y-129465593D01*
X63784377Y-129454391D01*
X63780335Y-129440192D01*
X63776881Y-129424625D01*
X63774460Y-129409314D01*
X63773981Y-129404786D01*
X63773405Y-129388230D01*
X63774162Y-129369952D01*
X63775448Y-129358241D01*
X63777883Y-129345244D01*
X63781217Y-129331612D01*
X63785010Y-129318733D01*
X63788818Y-129307995D01*
X63792198Y-129300785D01*
X63794509Y-129298461D01*
X63797279Y-129296030D01*
X63802172Y-129289729D01*
X63806818Y-129282910D01*
X63823108Y-129263293D01*
X63844762Y-129246096D01*
X63871183Y-129231714D01*
X63900069Y-129221045D01*
X63904222Y-129219933D01*
X63909002Y-129218969D01*
X63914887Y-129218142D01*
X63922355Y-129217435D01*
X63931881Y-129216837D01*
X63943944Y-129216333D01*
X63959020Y-129215909D01*
X63977586Y-129215552D01*
X64000120Y-129215248D01*
X64027099Y-129214984D01*
X64058999Y-129214744D01*
X64096299Y-129214517D01*
X64133710Y-129214317D01*
X64348471Y-129213215D01*
X64348471Y-129279096D01*
G37*
G36*
X64215710Y-127417628D02*
G01*
X64246191Y-127428749D01*
X64273954Y-127444927D01*
X64298391Y-127465815D01*
X64318892Y-127491066D01*
X64333151Y-127516532D01*
X64345066Y-127548386D01*
X64353747Y-127584359D01*
X64359023Y-127623075D01*
X64360724Y-127663157D01*
X64358681Y-127703228D01*
X64357474Y-127713802D01*
X64352343Y-127743676D01*
X64344703Y-127770372D01*
X64333699Y-127796784D01*
X64331894Y-127800517D01*
X64324056Y-127815210D01*
X64315718Y-127827616D01*
X64305292Y-127839858D01*
X64293531Y-127851790D01*
X64274258Y-127868529D01*
X64253597Y-127882910D01*
X64232953Y-127894115D01*
X64213733Y-127901329D01*
X64205183Y-127903169D01*
X64192484Y-127905070D01*
X64183889Y-127841056D01*
X64181289Y-127821424D01*
X64179011Y-127803706D01*
X64177179Y-127788926D01*
X64175922Y-127778111D01*
X64175365Y-127772284D01*
X64175349Y-127771778D01*
X64178297Y-127767021D01*
X64186085Y-127762991D01*
X64186308Y-127762917D01*
X64198544Y-127756613D01*
X64211525Y-127746297D01*
X64223445Y-127733712D01*
X64232503Y-127720601D01*
X64234669Y-127716195D01*
X64242667Y-127690699D01*
X64246444Y-127662325D01*
X64245925Y-127632931D01*
X64241032Y-127604376D01*
X64239517Y-127598913D01*
X64232794Y-127583294D01*
X64223163Y-127570119D01*
X64211757Y-127560514D01*
X64199713Y-127555602D01*
X64195397Y-127555200D01*
X64183673Y-127556831D01*
X64173983Y-127562060D01*
X64166046Y-127571386D01*
X64159581Y-127585311D01*
X64154308Y-127604337D01*
X64149944Y-127628963D01*
X64148632Y-127638587D01*
X64146890Y-127650442D01*
X64144430Y-127664919D01*
X64141504Y-127680781D01*
X64138362Y-127696791D01*
X64135255Y-127711710D01*
X64132435Y-127724302D01*
X64130152Y-127733328D01*
X64128657Y-127737552D01*
X64128534Y-127737684D01*
X64126668Y-127741315D01*
X64123894Y-127749387D01*
X64120784Y-127760222D01*
X64120499Y-127761307D01*
X64109438Y-127793295D01*
X64094128Y-127820659D01*
X64074535Y-127843448D01*
X64053177Y-127860111D01*
X64026014Y-127873933D01*
X63996818Y-127882320D01*
X63966542Y-127885377D01*
X63936136Y-127883212D01*
X63906551Y-127875930D01*
X63878738Y-127863637D01*
X63853647Y-127846440D01*
X63843013Y-127836641D01*
X63834019Y-127826304D01*
X63824530Y-127813393D01*
X63815372Y-127799288D01*
X63807368Y-127785369D01*
X63801343Y-127773017D01*
X63798121Y-127763611D01*
X63797802Y-127760943D01*
X63796173Y-127756992D01*
X63794994Y-127756587D01*
X63792925Y-127753771D01*
X63790023Y-127746326D01*
X63786859Y-127735757D01*
X63786340Y-127733774D01*
X63783673Y-127719159D01*
X63781745Y-127700017D01*
X63780557Y-127677839D01*
X63780108Y-127654117D01*
X63780398Y-127630340D01*
X63781427Y-127608000D01*
X63783194Y-127588588D01*
X63785699Y-127573593D01*
X63786376Y-127570941D01*
X63789588Y-127560375D01*
X63792488Y-127552448D01*
X63794419Y-127548914D01*
X63796932Y-127545528D01*
X63801388Y-127538069D01*
X63806872Y-127528077D01*
X63807504Y-127526880D01*
X63820377Y-127507136D01*
X63837621Y-127487547D01*
X63857518Y-127469858D01*
X63876568Y-127456830D01*
X63890892Y-127448979D01*
X63904129Y-127442607D01*
X63915140Y-127438183D01*
X63922787Y-127436177D01*
X63925678Y-127436586D01*
X63927048Y-127440032D01*
X63929728Y-127448378D01*
X63933383Y-127460449D01*
X63937677Y-127475068D01*
X63942278Y-127491061D01*
X63946850Y-127507253D01*
X63951059Y-127522468D01*
X63954570Y-127535531D01*
X63957049Y-127545267D01*
X63958162Y-127550500D01*
X63958191Y-127550839D01*
X63955566Y-127553925D01*
X63948799Y-127557782D01*
X63944382Y-127559653D01*
X63926725Y-127569285D01*
X63910683Y-127583339D01*
X63898230Y-127599953D01*
X63895000Y-127606215D01*
X63891618Y-127614509D01*
X63889417Y-127622581D01*
X63888156Y-127632131D01*
X63887593Y-127644859D01*
X63887482Y-127659040D01*
X63887634Y-127675491D01*
X63888250Y-127687284D01*
X63889567Y-127696049D01*
X63891824Y-127703418D01*
X63894992Y-127710481D01*
X63904804Y-127724968D01*
X63916901Y-127734067D01*
X63930529Y-127737542D01*
X63944936Y-127735158D01*
X63955609Y-127729512D01*
X63960964Y-127725267D01*
X63965418Y-127720166D01*
X63969219Y-127713427D01*
X63972612Y-127704266D01*
X63975843Y-127691902D01*
X63979159Y-127675550D01*
X63982805Y-127654428D01*
X63986488Y-127631239D01*
X63989884Y-127610138D01*
X63993486Y-127589085D01*
X63997005Y-127569675D01*
X64000154Y-127553501D01*
X64002379Y-127543259D01*
X64012718Y-127509602D01*
X64026599Y-127481113D01*
X64044170Y-127457658D01*
X64065579Y-127439105D01*
X64090975Y-127425322D01*
X64120505Y-127416175D01*
X64149039Y-127411940D01*
X64183123Y-127411909D01*
X64215710Y-127417628D01*
G37*
G36*
X62709993Y-128208845D02*
G01*
X62706513Y-128205591D01*
X62698907Y-128199710D01*
X62688303Y-128192039D01*
X62676010Y-128183544D01*
X62641425Y-128159638D01*
X62610755Y-128137224D01*
X62582631Y-128115152D01*
X62555681Y-128092277D01*
X62528535Y-128067449D01*
X62499821Y-128039520D01*
X62479669Y-128019164D01*
X62440156Y-127977098D01*
X62405534Y-127936473D01*
X62374959Y-127896134D01*
X62347588Y-127854926D01*
X62329062Y-127822901D01*
X62460059Y-127822901D01*
X62461312Y-127826077D01*
X62465924Y-127833003D01*
X62474044Y-127844142D01*
X62482992Y-127856163D01*
X62518784Y-127900598D01*
X62560049Y-127945456D01*
X62606066Y-127990028D01*
X62656117Y-128033606D01*
X62692823Y-128062875D01*
X62715928Y-128080645D01*
X62740927Y-128061003D01*
X62753592Y-128051172D01*
X62766325Y-128041486D01*
X62777089Y-128033489D01*
X62780755Y-128030846D01*
X62799500Y-128016457D01*
X62821177Y-127997981D01*
X62844889Y-127976325D01*
X62869742Y-127952399D01*
X62894840Y-127927112D01*
X62919288Y-127901372D01*
X62942190Y-127876087D01*
X62962652Y-127852167D01*
X62979777Y-127830520D01*
X62984573Y-127823989D01*
X62992697Y-127812600D01*
X62999264Y-127803265D01*
X63003525Y-127797059D01*
X63004775Y-127795047D01*
X63002561Y-127796426D01*
X62996644Y-127800869D01*
X62988212Y-127807480D01*
X62986432Y-127808901D01*
X62957548Y-127829396D01*
X62924094Y-127848696D01*
X62887780Y-127866009D01*
X62850316Y-127880539D01*
X62813411Y-127891495D01*
X62803451Y-127893805D01*
X62785847Y-127896586D01*
X62763596Y-127898541D01*
X62738286Y-127899672D01*
X62711509Y-127899975D01*
X62684855Y-127899452D01*
X62659916Y-127898101D01*
X62638281Y-127895922D01*
X62625834Y-127893879D01*
X62587181Y-127883857D01*
X62548179Y-127869787D01*
X62526543Y-127859770D01*
X62510934Y-127852544D01*
X62477552Y-127833000D01*
X62474964Y-127831264D01*
X62467034Y-127825956D01*
X62462016Y-127823015D01*
X62460059Y-127822901D01*
X62329062Y-127822901D01*
X62322580Y-127811696D01*
X62310074Y-127787632D01*
X62526543Y-127787632D01*
X62572078Y-127761096D01*
X62587274Y-127752300D01*
X62600535Y-127744736D01*
X62610929Y-127738927D01*
X62617521Y-127735398D01*
X62619402Y-127734561D01*
X62622473Y-127733042D01*
X62630297Y-127728745D01*
X62642191Y-127722058D01*
X62657468Y-127713369D01*
X62675446Y-127703066D01*
X62695438Y-127691538D01*
X62702654Y-127687361D01*
X62723171Y-127675503D01*
X62741899Y-127664736D01*
X62758155Y-127655449D01*
X62771256Y-127648030D01*
X62780519Y-127642866D01*
X62785261Y-127640346D01*
X62785725Y-127640160D01*
X62788757Y-127638646D01*
X62796533Y-127634368D01*
X62808354Y-127627722D01*
X62823520Y-127619103D01*
X62841332Y-127608907D01*
X62861092Y-127597531D01*
X62865406Y-127595039D01*
X62885974Y-127583181D01*
X62905181Y-127572160D01*
X62922233Y-127562430D01*
X62936335Y-127554442D01*
X62946694Y-127548647D01*
X62952513Y-127545496D01*
X62952918Y-127545293D01*
X62958927Y-127542115D01*
X62968765Y-127536648D01*
X62981489Y-127529441D01*
X62996157Y-127521041D01*
X63011824Y-127511997D01*
X63027549Y-127502856D01*
X63042387Y-127494167D01*
X63055395Y-127486478D01*
X63065630Y-127480336D01*
X63072150Y-127476290D01*
X63074065Y-127474905D01*
X63071458Y-127473111D01*
X63064155Y-127468666D01*
X63052932Y-127462028D01*
X63038564Y-127453654D01*
X63021829Y-127444000D01*
X63013113Y-127439006D01*
X62995412Y-127428928D01*
X62979577Y-127419993D01*
X62974233Y-127417012D01*
X62966410Y-127412647D01*
X62956714Y-127407336D01*
X62951290Y-127404506D01*
X62950441Y-127404159D01*
X62947384Y-127402651D01*
X62939557Y-127398384D01*
X62927645Y-127391740D01*
X62912330Y-127383105D01*
X62894296Y-127372862D01*
X62874226Y-127361396D01*
X62866488Y-127356959D01*
X62845854Y-127345143D01*
X62827018Y-127334409D01*
X62810661Y-127325140D01*
X62797464Y-127317722D01*
X62788107Y-127312537D01*
X62783271Y-127309969D01*
X62782765Y-127309759D01*
X62779751Y-127308261D01*
X62771987Y-127304032D01*
X62760182Y-127297469D01*
X62745046Y-127288969D01*
X62727289Y-127278929D01*
X62707621Y-127267747D01*
X62705042Y-127266277D01*
X62684405Y-127254535D01*
X62664885Y-127243483D01*
X62647346Y-127233608D01*
X62632656Y-127225395D01*
X62621680Y-127219330D01*
X62615284Y-127215900D01*
X62615222Y-127215868D01*
X62607181Y-127211590D01*
X62595290Y-127205041D01*
X62581143Y-127197106D01*
X62566333Y-127188673D01*
X62566119Y-127188550D01*
X62552708Y-127180934D01*
X62541292Y-127174612D01*
X62532957Y-127170172D01*
X62528791Y-127168204D01*
X62528574Y-127168158D01*
X62528288Y-127171234D01*
X62528014Y-127180179D01*
X62527755Y-127194568D01*
X62527514Y-127213976D01*
X62527293Y-127237979D01*
X62527095Y-127266152D01*
X62526923Y-127298071D01*
X62526779Y-127333311D01*
X62526667Y-127371448D01*
X62526589Y-127412056D01*
X62526549Y-127454711D01*
X62526543Y-127477895D01*
X62526543Y-127787632D01*
X62310074Y-127787632D01*
X62308658Y-127784908D01*
X62300463Y-127768674D01*
X62293050Y-127754262D01*
X62286950Y-127742680D01*
X62282691Y-127734937D01*
X62280980Y-127732200D01*
X62278042Y-127726679D01*
X62273883Y-127716175D01*
X62268849Y-127701800D01*
X62263285Y-127684666D01*
X62257538Y-127665885D01*
X62251953Y-127646568D01*
X62246875Y-127627829D01*
X62242650Y-127610779D01*
X62241123Y-127603974D01*
X62238430Y-127591162D01*
X62236353Y-127580155D01*
X62234817Y-127569848D01*
X62233744Y-127559136D01*
X62233056Y-127546913D01*
X62232677Y-127532074D01*
X62232530Y-127513514D01*
X62232537Y-127490127D01*
X62232559Y-127481253D01*
X62232669Y-127455820D01*
X62232893Y-127435559D01*
X62233310Y-127419349D01*
X62234001Y-127406069D01*
X62235047Y-127394599D01*
X62236528Y-127383817D01*
X62238525Y-127372601D01*
X62241118Y-127359832D01*
X62241358Y-127358693D01*
X62244980Y-127342965D01*
X62249575Y-127325250D01*
X62254811Y-127306609D01*
X62260353Y-127288099D01*
X62265870Y-127270778D01*
X62271027Y-127255704D01*
X62275492Y-127243936D01*
X62278932Y-127236533D01*
X62280432Y-127234579D01*
X62283007Y-127230965D01*
X62287211Y-127223056D01*
X62292255Y-127212369D01*
X62293719Y-127209065D01*
X62307371Y-127180527D01*
X62324549Y-127148932D01*
X62341736Y-127120117D01*
X62474673Y-127120117D01*
X62474712Y-127120515D01*
X62477731Y-127119664D01*
X62483663Y-127116098D01*
X62484668Y-127115400D01*
X62502298Y-127104587D01*
X62524547Y-127093476D01*
X62549809Y-127082705D01*
X62576480Y-127072914D01*
X62602956Y-127064741D01*
X62625834Y-127059187D01*
X62644169Y-127056421D01*
X62666935Y-127054484D01*
X62692540Y-127053375D01*
X62719394Y-127053094D01*
X62745907Y-127053639D01*
X62770487Y-127055011D01*
X62791545Y-127057208D01*
X62803451Y-127059261D01*
X62841424Y-127069607D01*
X62881009Y-127084271D01*
X62920223Y-127102405D01*
X62957083Y-127123162D01*
X62965652Y-127128632D01*
X62974233Y-127134254D01*
X62965310Y-127122100D01*
X62958833Y-127113738D01*
X62953007Y-127106965D01*
X62951285Y-127105225D01*
X62947490Y-127101125D01*
X62940637Y-127093169D01*
X62931610Y-127082404D01*
X62921295Y-127069877D01*
X62918351Y-127066263D01*
X62892989Y-127036156D01*
X62866888Y-127007496D01*
X62839152Y-126979421D01*
X62808885Y-126951068D01*
X62775191Y-126921574D01*
X62737174Y-126890078D01*
X62725556Y-126880722D01*
X62720640Y-126877238D01*
X62716745Y-126876980D01*
X62711402Y-126880227D01*
X62708170Y-126882673D01*
X62696544Y-126892021D01*
X62681413Y-126904847D01*
X62663782Y-126920239D01*
X62644657Y-126937286D01*
X62625042Y-126955076D01*
X62605943Y-126972698D01*
X62588364Y-126989240D01*
X62573311Y-127003790D01*
X62561868Y-127015356D01*
X62550874Y-127027190D01*
X62538695Y-127040799D01*
X62525978Y-127055403D01*
X62513372Y-127070219D01*
X62501524Y-127084465D01*
X62491082Y-127097359D01*
X62482694Y-127108121D01*
X62477009Y-127115968D01*
X62474673Y-127120117D01*
X62341736Y-127120117D01*
X62344366Y-127115708D01*
X62365933Y-127082281D01*
X62388361Y-127050079D01*
X62410762Y-127020530D01*
X62412231Y-127018691D01*
X62423817Y-127004960D01*
X62439143Y-126987867D01*
X62457322Y-126968317D01*
X62477469Y-126947213D01*
X62498696Y-126925459D01*
X62520117Y-126903961D01*
X62540845Y-126883622D01*
X62559994Y-126865346D01*
X62576678Y-126850038D01*
X62583183Y-126844326D01*
X62595438Y-126833744D01*
X62606653Y-126824027D01*
X62615580Y-126816257D01*
X62620943Y-126811545D01*
X62627033Y-126806361D01*
X62636854Y-126798267D01*
X62649189Y-126788243D01*
X62662820Y-126777266D01*
X62676530Y-126766315D01*
X62689102Y-126756367D01*
X62699318Y-126748402D01*
X62703547Y-126745178D01*
X62715350Y-126736311D01*
X62748573Y-126760287D01*
X62761104Y-126769234D01*
X62771767Y-126776664D01*
X62779550Y-126781885D01*
X62783440Y-126784207D01*
X62783646Y-126784263D01*
X62787158Y-126786214D01*
X62794008Y-126791356D01*
X62802901Y-126798626D01*
X62812540Y-126806959D01*
X62821627Y-126815291D01*
X62822635Y-126816256D01*
X62828708Y-126821948D01*
X62838396Y-126830847D01*
X62850617Y-126841969D01*
X62864291Y-126854328D01*
X62872771Y-126861953D01*
X62927531Y-126913456D01*
X62976592Y-126964683D01*
X63020485Y-127016261D01*
X63059738Y-127068817D01*
X63094884Y-127122977D01*
X63098382Y-127128825D01*
X63106336Y-127142019D01*
X63113291Y-127153174D01*
X63118552Y-127161202D01*
X63121423Y-127165016D01*
X63121578Y-127165140D01*
X63124485Y-127169069D01*
X63129226Y-127177795D01*
X63135329Y-127190262D01*
X63142321Y-127205412D01*
X63149729Y-127222187D01*
X63157082Y-127239531D01*
X63163906Y-127256386D01*
X63169729Y-127271694D01*
X63171819Y-127277569D01*
X63186978Y-127325917D01*
X63197921Y-127371818D01*
X63204967Y-127417189D01*
X63208437Y-127463945D01*
X63208901Y-127499508D01*
X63208671Y-127517533D01*
X63208343Y-127533994D01*
X63207954Y-127547569D01*
X63207537Y-127556937D01*
X63207297Y-127559920D01*
X63203918Y-127583013D01*
X63199101Y-127609227D01*
X63193416Y-127635719D01*
X63187434Y-127659647D01*
X63186802Y-127661931D01*
X63180663Y-127681918D01*
X63172990Y-127703890D01*
X63164278Y-127726685D01*
X63155021Y-127749145D01*
X63145712Y-127770109D01*
X63136847Y-127788416D01*
X63128918Y-127802907D01*
X63123049Y-127811654D01*
X63119548Y-127816512D01*
X63113405Y-127825498D01*
X63105398Y-127837458D01*
X63096304Y-127851236D01*
X63093378Y-127855708D01*
X63072002Y-127886962D01*
X63048677Y-127918433D01*
X63024319Y-127949019D01*
X62999845Y-127977621D01*
X62976172Y-128003139D01*
X62954216Y-128024472D01*
X62948534Y-128029517D01*
X62937008Y-128039613D01*
X62923001Y-128052031D01*
X62908677Y-128064848D01*
X62900998Y-128071779D01*
X62884819Y-128086070D01*
X62866558Y-128101587D01*
X62847355Y-128117415D01*
X62828352Y-128132641D01*
X62810688Y-128146348D01*
X62795505Y-128157624D01*
X62784571Y-128165150D01*
X62771545Y-128173808D01*
X62757851Y-128183370D01*
X62744913Y-128192794D01*
X62734155Y-128201041D01*
X62727002Y-128207067D01*
X62726246Y-128207797D01*
X62718998Y-128212341D01*
X62715928Y-128211955D01*
X62712592Y-128211536D01*
X62709993Y-128208845D01*
G37*
G36*
X63976888Y-127050008D02*
G01*
X63939301Y-127038444D01*
X63904830Y-127022723D01*
X63887729Y-127012424D01*
X63865579Y-126995258D01*
X63844431Y-126974298D01*
X63825599Y-126951117D01*
X63810395Y-126927288D01*
X63802132Y-126909858D01*
X63798450Y-126901328D01*
X63795367Y-126895567D01*
X63794398Y-126894397D01*
X63792350Y-126890771D01*
X63789280Y-126882901D01*
X63786314Y-126873944D01*
X63783583Y-126860965D01*
X63781625Y-126843276D01*
X63780442Y-126822411D01*
X63780036Y-126799905D01*
X63780197Y-126790168D01*
X63890297Y-126790168D01*
X63891000Y-126809372D01*
X63894685Y-126827102D01*
X63897940Y-126835295D01*
X63908656Y-126850708D01*
X63924361Y-126863397D01*
X63945203Y-126873410D01*
X63971332Y-126880796D01*
X64002896Y-126885606D01*
X64040042Y-126887888D01*
X64057297Y-126888104D01*
X64099694Y-126887032D01*
X64136372Y-126883773D01*
X64167534Y-126878267D01*
X64193386Y-126870449D01*
X64214132Y-126860258D01*
X64229977Y-126847632D01*
X64241125Y-126832507D01*
X64241435Y-126831928D01*
X64245916Y-126818548D01*
X64247846Y-126801808D01*
X64247237Y-126784096D01*
X64244102Y-126767797D01*
X64241074Y-126759817D01*
X64230364Y-126744733D01*
X64214106Y-126731812D01*
X64192738Y-126721277D01*
X64166700Y-126713352D01*
X64140790Y-126708779D01*
X64116017Y-126706545D01*
X64088361Y-126705583D01*
X64059208Y-126705813D01*
X64029941Y-126707157D01*
X64001946Y-126709535D01*
X63976608Y-126712867D01*
X63955310Y-126717076D01*
X63945136Y-126719959D01*
X63926076Y-126728704D01*
X63910074Y-126740859D01*
X63898639Y-126755253D01*
X63897849Y-126756688D01*
X63892579Y-126771828D01*
X63890297Y-126790168D01*
X63780197Y-126790168D01*
X63780409Y-126777293D01*
X63781563Y-126756111D01*
X63783501Y-126737894D01*
X63786107Y-126724597D01*
X63789302Y-126714034D01*
X63792225Y-126706096D01*
X63794190Y-126702570D01*
X63796713Y-126698850D01*
X63800318Y-126691325D01*
X63802223Y-126686716D01*
X63818147Y-126654563D01*
X63839157Y-126625693D01*
X63864844Y-126600324D01*
X63894797Y-126578675D01*
X63928607Y-126560962D01*
X63965864Y-126547403D01*
X64006157Y-126538217D01*
X64049078Y-126533620D01*
X64090443Y-126533628D01*
X64134141Y-126538103D01*
X64173948Y-126547169D01*
X64210555Y-126561101D01*
X64244652Y-126580175D01*
X64276928Y-126604666D01*
X64283939Y-126610886D01*
X64308810Y-126637331D01*
X64328646Y-126666958D01*
X64343798Y-126700359D01*
X64351738Y-126726050D01*
X64355225Y-126743860D01*
X64357825Y-126765763D01*
X64359433Y-126789628D01*
X64359944Y-126813324D01*
X64359255Y-126834721D01*
X64357765Y-126848770D01*
X64349968Y-126883827D01*
X64337941Y-126915329D01*
X64321262Y-126943898D01*
X64299507Y-126970154D01*
X64272254Y-126994718D01*
X64245286Y-127014181D01*
X64213210Y-127031845D01*
X64177418Y-127045318D01*
X64138887Y-127054607D01*
X64098592Y-127059715D01*
X64057510Y-127060648D01*
X64057297Y-127060631D01*
X64016617Y-127057411D01*
X63976888Y-127050008D01*
G37*
G36*
X64348471Y-128137336D02*
G01*
X63788362Y-128137336D01*
X63788362Y-127973708D01*
X64348471Y-127973708D01*
X64348471Y-128137336D01*
G37*
G36*
X63744308Y-124943456D02*
G01*
X63577534Y-124943456D01*
X63577534Y-124779828D01*
X63744308Y-124779828D01*
X63744308Y-124943456D01*
G37*
G36*
X63744308Y-128137336D02*
G01*
X63577534Y-128137336D01*
X63577534Y-127973708D01*
X63744308Y-127973708D01*
X63744308Y-128137336D01*
G37*
G36*
X64362179Y-129983650D02*
G01*
X64364039Y-130006375D01*
X64365308Y-130026835D01*
X64365939Y-130043925D01*
X64365884Y-130056541D01*
X64365499Y-130061530D01*
X64359183Y-130093364D01*
X64349458Y-130119988D01*
X64336274Y-130141517D01*
X64324426Y-130154092D01*
X64310736Y-130163663D01*
X64292612Y-130172768D01*
X64271907Y-130180652D01*
X64250474Y-130186563D01*
X64239307Y-130188661D01*
X64230445Y-130189489D01*
X64215516Y-130190210D01*
X64194746Y-130190822D01*
X64168362Y-130191320D01*
X64136589Y-130191701D01*
X64099653Y-130191962D01*
X64057781Y-130192098D01*
X64032413Y-130192118D01*
X63848148Y-130192118D01*
X63848148Y-130302251D01*
X63788362Y-130302251D01*
X63788362Y-130195264D01*
X63653794Y-130195264D01*
X63651749Y-130170878D01*
X63650506Y-130157251D01*
X63649169Y-130144436D01*
X63648014Y-130135085D01*
X63647956Y-130134691D01*
X63646208Y-130122891D01*
X63788362Y-130122891D01*
X63788362Y-129997024D01*
X63848148Y-129997024D01*
X63848148Y-130123115D01*
X64045603Y-130122216D01*
X64243057Y-130121317D01*
X64259600Y-130113840D01*
X64275023Y-130104460D01*
X64288885Y-130091628D01*
X64299751Y-130076978D01*
X64306189Y-130062147D01*
X64306658Y-130060140D01*
X64308092Y-130048715D01*
X64308842Y-130033123D01*
X64308907Y-130015453D01*
X64308282Y-129997793D01*
X64306967Y-129982233D01*
X64306750Y-129980503D01*
X64304362Y-129962410D01*
X64360244Y-129962410D01*
X64362179Y-129983650D01*
G37*
G36*
X64348471Y-124943456D02*
G01*
X63788362Y-124943456D01*
X63788362Y-124779828D01*
X64348471Y-124779828D01*
X64348471Y-124943456D01*
G37*
G36*
X63799898Y-128204828D02*
G01*
X63801473Y-128206550D01*
X63804515Y-128207949D01*
X63813014Y-128211172D01*
X63826461Y-128216045D01*
X63844345Y-128222393D01*
X63866155Y-128230043D01*
X63891382Y-128238820D01*
X63919515Y-128248550D01*
X63950044Y-128259058D01*
X63982459Y-128270170D01*
X64016250Y-128281713D01*
X64050905Y-128293512D01*
X64085916Y-128305392D01*
X64120772Y-128317179D01*
X64154962Y-128328699D01*
X64187976Y-128339779D01*
X64219305Y-128350242D01*
X64248437Y-128359916D01*
X64274863Y-128368626D01*
X64298073Y-128376198D01*
X64300547Y-128376999D01*
X64348597Y-128392540D01*
X64346897Y-128522518D01*
X64320150Y-128531178D01*
X64313292Y-128533439D01*
X64301054Y-128537520D01*
X64284020Y-128543224D01*
X64262772Y-128550353D01*
X64237894Y-128558712D01*
X64209967Y-128568105D01*
X64179574Y-128578333D01*
X64147299Y-128589202D01*
X64113723Y-128600515D01*
X64079430Y-128612075D01*
X64045003Y-128623685D01*
X64011023Y-128635150D01*
X63978075Y-128646272D01*
X63946739Y-128656856D01*
X63917600Y-128666704D01*
X63891241Y-128675621D01*
X63868242Y-128683410D01*
X63849189Y-128689874D01*
X63834662Y-128694817D01*
X63825245Y-128698042D01*
X63824747Y-128698214D01*
X63814924Y-128702002D01*
X63808669Y-128705201D01*
X63807089Y-128707224D01*
X63807441Y-128707439D01*
X63819521Y-128711891D01*
X63837034Y-128718297D01*
X63859489Y-128726480D01*
X63886398Y-128736262D01*
X63917270Y-128747467D01*
X63951617Y-128759916D01*
X63988949Y-128773434D01*
X64028777Y-128787841D01*
X64070610Y-128802962D01*
X64113961Y-128818619D01*
X64158338Y-128834635D01*
X64203254Y-128850832D01*
X64217883Y-128856104D01*
X64262941Y-128872364D01*
X64302483Y-128886698D01*
X64336925Y-128899283D01*
X64366683Y-128910298D01*
X64392173Y-128919919D01*
X64413811Y-128928324D01*
X64432013Y-128935689D01*
X64447195Y-128942192D01*
X64459773Y-128948011D01*
X64470163Y-128953321D01*
X64478781Y-128958302D01*
X64486042Y-128963129D01*
X64492363Y-128967980D01*
X64498160Y-128973032D01*
X64502900Y-128977534D01*
X64521366Y-128999337D01*
X64534434Y-129023755D01*
X64542179Y-129049460D01*
X64544694Y-129065579D01*
X64546047Y-129083355D01*
X64546138Y-129100248D01*
X64544867Y-129113717D01*
X64544742Y-129114380D01*
X64543416Y-129121031D01*
X64541404Y-129131037D01*
X64540161Y-129137193D01*
X64536820Y-129153713D01*
X64477924Y-129153713D01*
X64480732Y-129143920D01*
X64485895Y-129119634D01*
X64487684Y-129095618D01*
X64486180Y-129073212D01*
X64481461Y-129053758D01*
X64474554Y-129039913D01*
X64461431Y-129025366D01*
X64442284Y-129010831D01*
X64417378Y-128996469D01*
X64386980Y-128982443D01*
X64366960Y-128974534D01*
X64339823Y-128964376D01*
X64300880Y-128976940D01*
X64288215Y-128981077D01*
X64270667Y-128986885D01*
X64249307Y-128994004D01*
X64225209Y-129002075D01*
X64199445Y-129010739D01*
X64173090Y-129019638D01*
X64159670Y-129024184D01*
X64132788Y-129033299D01*
X64101377Y-129043949D01*
X64066870Y-129055648D01*
X64030697Y-129067910D01*
X63994291Y-129080251D01*
X63959084Y-129092185D01*
X63926815Y-129103122D01*
X63899396Y-129112386D01*
X63873756Y-129120993D01*
X63850520Y-129128736D01*
X63830316Y-129135410D01*
X63813770Y-129140809D01*
X63801509Y-129144726D01*
X63794158Y-129146954D01*
X63792295Y-129147400D01*
X63790470Y-129145616D01*
X63789271Y-129139760D01*
X63788618Y-129129106D01*
X63788432Y-129112929D01*
X63788434Y-129112020D01*
X63788506Y-129076620D01*
X64014810Y-129002837D01*
X64241114Y-128929053D01*
X64185445Y-128908960D01*
X64150724Y-128896435D01*
X64115054Y-128883580D01*
X64078934Y-128870575D01*
X64042865Y-128857599D01*
X64007345Y-128844831D01*
X63972873Y-128832450D01*
X63939950Y-128820635D01*
X63909073Y-128809564D01*
X63880744Y-128799418D01*
X63855460Y-128790375D01*
X63833722Y-128782615D01*
X63816028Y-128776315D01*
X63802879Y-128771656D01*
X63794772Y-128768816D01*
X63792295Y-128767986D01*
X63791220Y-128764677D01*
X63790299Y-128755968D01*
X63789532Y-128742707D01*
X63788920Y-128725743D01*
X63788463Y-128705922D01*
X63788161Y-128684092D01*
X63788014Y-128661101D01*
X63788023Y-128637797D01*
X63788188Y-128615027D01*
X63788509Y-128593640D01*
X63788987Y-128574482D01*
X63789621Y-128558402D01*
X63790412Y-128546246D01*
X63791360Y-128538864D01*
X63792222Y-128536964D01*
X63796136Y-128536087D01*
X63805265Y-128533611D01*
X63818806Y-128529767D01*
X63835952Y-128524788D01*
X63855900Y-128518905D01*
X63877844Y-128512349D01*
X63881116Y-128511365D01*
X63909377Y-128502863D01*
X63941307Y-128493267D01*
X63974732Y-128483230D01*
X64007478Y-128473404D01*
X64037370Y-128464443D01*
X64049536Y-128460799D01*
X64075360Y-128453069D01*
X64095752Y-128446960D01*
X64111305Y-128442279D01*
X64122615Y-128438834D01*
X64130273Y-128436435D01*
X64134876Y-128434887D01*
X64137016Y-128434001D01*
X64137289Y-128433582D01*
X64136288Y-128433440D01*
X64134606Y-128433383D01*
X64134384Y-128433372D01*
X64130182Y-128432409D01*
X64120815Y-128429822D01*
X64107124Y-128425858D01*
X64089952Y-128420764D01*
X64070143Y-128414788D01*
X64049424Y-128408449D01*
X64023588Y-128400493D01*
X63993661Y-128391276D01*
X63961565Y-128381391D01*
X63929224Y-128371429D01*
X63898561Y-128361984D01*
X63878829Y-128355906D01*
X63788362Y-128328037D01*
X63788362Y-128265726D01*
X63788391Y-128244453D01*
X63788531Y-128228661D01*
X63788862Y-128217535D01*
X63789461Y-128210263D01*
X63790407Y-128206032D01*
X63791779Y-128204028D01*
X63793656Y-128203439D01*
X63794393Y-128203416D01*
X63799898Y-128204828D01*
G37*
D11*
X63500000Y-132080000D03*
D12*
X72364600Y-108176000D03*
X72364600Y-107216000D03*
D13*
X66675000Y-110691200D03*
X66675000Y-111711200D03*
D14*
X78879200Y-124510800D03*
X77229200Y-124510800D03*
D15*
X68475800Y-98933000D03*
X67515800Y-98933000D03*
D16*
X77063600Y-116258400D03*
X77063600Y-117218400D03*
X67081400Y-118315800D03*
X67081400Y-119275800D03*
X69977000Y-118315800D03*
X69977000Y-119275800D03*
D15*
X68475800Y-99898200D03*
X67515800Y-99898200D03*
D17*
X64719300Y-79832200D03*
X63144300Y-79832200D03*
D15*
X67637600Y-112496600D03*
X66677600Y-112496600D03*
X70076000Y-88265000D03*
X69116000Y-88265000D03*
D18*
X77087000Y-102997000D03*
X78107000Y-102997000D03*
D13*
X73533000Y-81786000D03*
X73533000Y-82806000D03*
D15*
X70076000Y-89204800D03*
X69116000Y-89204800D03*
D16*
X78155800Y-106200000D03*
X78155800Y-107160000D03*
D19*
X62230000Y-120650000D03*
D20*
X64770000Y-120650000D03*
D12*
X71501000Y-108176000D03*
X71501000Y-107216000D03*
D18*
X76223400Y-96062800D03*
X77243400Y-96062800D03*
D21*
X71594800Y-80975200D03*
X67444800Y-80975200D03*
D22*
X71094800Y-82500200D03*
X71094800Y-79450200D03*
X67944800Y-82500200D03*
X67944800Y-79450200D03*
D23*
X72034400Y-119890000D03*
X72034400Y-118870000D03*
D24*
X80010000Y-102870000D03*
D20*
X82550000Y-102870000D03*
X80010000Y-100330000D03*
X82550000Y-100330000D03*
X80010000Y-97790000D03*
X82550000Y-97790000D03*
D25*
X64770000Y-82550000D03*
D20*
X64770000Y-85090000D03*
X64770000Y-87630000D03*
X64770000Y-90170000D03*
X64770000Y-92710000D03*
X64770000Y-95250000D03*
X62230000Y-82550000D03*
X62230000Y-85090000D03*
X62230000Y-87630000D03*
X62230000Y-90170000D03*
X62230000Y-92710000D03*
X62230000Y-95250000D03*
D16*
X77140000Y-83680000D03*
X77140000Y-84640000D03*
D23*
X71126401Y-119890000D03*
X71126401Y-118870000D03*
D13*
X74168000Y-119149400D03*
X74168000Y-120169400D03*
D16*
X67614800Y-116182200D03*
X67614800Y-117142200D03*
D19*
X80010000Y-120650000D03*
D20*
X82550000Y-120650000D03*
D16*
X77419200Y-92608400D03*
X77419200Y-93568400D03*
D26*
X75280000Y-128337000D03*
X69500000Y-128337000D03*
D27*
X69140000Y-126892000D03*
X69940000Y-126892000D03*
D28*
X71140000Y-126892000D03*
X72140000Y-126892000D03*
X72640000Y-126892000D03*
X73640000Y-126892000D03*
D27*
X74840000Y-126892000D03*
X75640000Y-126892000D03*
X75640000Y-126892000D03*
X74840000Y-126892000D03*
D28*
X74140000Y-126892000D03*
X73140000Y-126892000D03*
X71640000Y-126892000D03*
X70640000Y-126892000D03*
D27*
X69940000Y-126892000D03*
X69140000Y-126892000D03*
D29*
X76710000Y-127807000D03*
D30*
X68070000Y-131987000D03*
X76710000Y-131987000D03*
D29*
X68070000Y-127807000D03*
D12*
X75488800Y-105839200D03*
X75488800Y-104879200D03*
D31*
X71845000Y-101777800D03*
D32*
X70395000Y-101777800D03*
D16*
X78156000Y-83680000D03*
X78156000Y-84640000D03*
D33*
X67320400Y-101777800D03*
D34*
X68620400Y-101777800D03*
D24*
X80010000Y-118110000D03*
D20*
X80010000Y-115570000D03*
X80010000Y-113030000D03*
X80010000Y-110490000D03*
X80010000Y-107950000D03*
X80010000Y-105410000D03*
X82550000Y-118110000D03*
X82550000Y-115570000D03*
X82550000Y-113030000D03*
X82550000Y-110490000D03*
X82550000Y-107950000D03*
X82550000Y-105410000D03*
D23*
X71145400Y-124614400D03*
X71145400Y-123594400D03*
D16*
X68046600Y-118315800D03*
X68046600Y-119275800D03*
D18*
X76502800Y-87604600D03*
X77522800Y-87604600D03*
D11*
X81280000Y-76200000D03*
D16*
X77622400Y-112397600D03*
X77622400Y-113357600D03*
D35*
X76534200Y-80463200D03*
X76534200Y-81233200D03*
X75764200Y-81233200D03*
X75764200Y-80463200D03*
D36*
X78740000Y-77470000D03*
D20*
X76200000Y-77470000D03*
X73660000Y-77470000D03*
X71120000Y-77470000D03*
X68580000Y-77470000D03*
X66040000Y-77470000D03*
X78740000Y-74930000D03*
X76200000Y-74930000D03*
X73660000Y-74930000D03*
X71120000Y-74930000D03*
X68580000Y-74930000D03*
X66040000Y-74930000D03*
D12*
X76454000Y-91236800D03*
X76454000Y-90276800D03*
D23*
X69519800Y-106809000D03*
X69519800Y-105789000D03*
D18*
X66622200Y-113919000D03*
X67642200Y-113919000D03*
D37*
X75387200Y-99517200D03*
D38*
X78740000Y-129540000D03*
D39*
X72085200Y-89204800D03*
X73045200Y-89204800D03*
D40*
X68427600Y-120683200D03*
X68427600Y-124833200D03*
D41*
X69952600Y-121183200D03*
X66902600Y-121183200D03*
X66902600Y-124333200D03*
X69952600Y-124333200D03*
D24*
X80010000Y-95250000D03*
D20*
X80010000Y-92710000D03*
X80010000Y-90170000D03*
X80010000Y-87630000D03*
X80010000Y-85090000D03*
X80010000Y-82550000D03*
X82550000Y-95250000D03*
X82550000Y-92710000D03*
X82550000Y-90170000D03*
X82550000Y-87630000D03*
X82550000Y-85090000D03*
X82550000Y-82550000D03*
D13*
X72085200Y-99185000D03*
X72085200Y-100205000D03*
D25*
X64770000Y-105410000D03*
D20*
X64770000Y-107950000D03*
X64770000Y-110490000D03*
X64770000Y-113030000D03*
X64770000Y-115570000D03*
X64770000Y-118110000D03*
X62230000Y-105410000D03*
X62230000Y-107950000D03*
X62230000Y-110490000D03*
X62230000Y-113030000D03*
X62230000Y-115570000D03*
X62230000Y-118110000D03*
D23*
X66090800Y-80316800D03*
X66090800Y-79296800D03*
D42*
X75802100Y-115985600D03*
X75802100Y-115585600D03*
X75802100Y-115185600D03*
X75802100Y-114785600D03*
X75802100Y-114385600D03*
X75802100Y-113985600D03*
X75802100Y-113585600D03*
X75802100Y-113185600D03*
X75802100Y-112785600D03*
X75802100Y-112385600D03*
X75802100Y-111985600D03*
X75802100Y-111585600D03*
X75802100Y-111185600D03*
X75802100Y-110785600D03*
D43*
X74964600Y-109948100D03*
X74564600Y-109948100D03*
X74164600Y-109948100D03*
X73764600Y-109948100D03*
X73364600Y-109948100D03*
X72964600Y-109948100D03*
X72564600Y-109948100D03*
X72164600Y-109948100D03*
X71764600Y-109948100D03*
X71364600Y-109948100D03*
X70964600Y-109948100D03*
X70564600Y-109948100D03*
X70164600Y-109948100D03*
X69764600Y-109948100D03*
D42*
X68927100Y-110785600D03*
X68927100Y-111185600D03*
X68927100Y-111585600D03*
X68927100Y-111985600D03*
X68927100Y-112385600D03*
X68927100Y-112785600D03*
X68927100Y-113185600D03*
X68927100Y-113585600D03*
X68927100Y-113985600D03*
X68927100Y-114385600D03*
X68927100Y-114785600D03*
X68927100Y-115185600D03*
X68927100Y-115585600D03*
X68927100Y-115985600D03*
D43*
X69764600Y-116823100D03*
X70164600Y-116823100D03*
X70564600Y-116823100D03*
X70964600Y-116823100D03*
X71364600Y-116823100D03*
X71764600Y-116823100D03*
X72164600Y-116823100D03*
X72564600Y-116823100D03*
X72964600Y-116823100D03*
X73364600Y-116823100D03*
X73764600Y-116823100D03*
X74164600Y-116823100D03*
X74564600Y-116823100D03*
X74964600Y-116823100D03*
D44*
X72364600Y-113385600D03*
D38*
X81280000Y-80010000D03*
D18*
X72032400Y-87223600D03*
X73052400Y-87223600D03*
D25*
X64770000Y-97790000D03*
D20*
X62230000Y-97790000D03*
X64770000Y-100330000D03*
X62230000Y-100330000D03*
X64770000Y-102870000D03*
X62230000Y-102870000D03*
D45*
X72426600Y-104077800D03*
X72426600Y-105827800D03*
X73826600Y-105827800D03*
X73826600Y-104077800D03*
D16*
X77139800Y-106200000D03*
X77139800Y-107160000D03*
D46*
X77647800Y-91225600D03*
X77647800Y-89825600D03*
D47*
X68573200Y-97722300D03*
X69073200Y-97722300D03*
X69573200Y-97722300D03*
X70073200Y-97722300D03*
X70573200Y-97722300D03*
X71073200Y-97722300D03*
X71573200Y-97722300D03*
X72073200Y-97722300D03*
X72573200Y-97722300D03*
X73073200Y-97722300D03*
X73573200Y-97722300D03*
X74073200Y-97722300D03*
D48*
X74760700Y-97034800D03*
X74760700Y-96534800D03*
X74760700Y-96034800D03*
X74760700Y-95534800D03*
X74760700Y-95034800D03*
X74760700Y-94534800D03*
X74760700Y-94034800D03*
X74760700Y-93534800D03*
X74760700Y-93034800D03*
X74760700Y-92534800D03*
X74760700Y-92034800D03*
X74760700Y-91534800D03*
D47*
X74073200Y-90847300D03*
X73573200Y-90847300D03*
X73073200Y-90847300D03*
X72573200Y-90847300D03*
X72073200Y-90847300D03*
X71573200Y-90847300D03*
X71073200Y-90847300D03*
X70573200Y-90847300D03*
X70073200Y-90847300D03*
X69573200Y-90847300D03*
X69073200Y-90847300D03*
X68573200Y-90847300D03*
D48*
X67885700Y-91534800D03*
X67885700Y-92034800D03*
X67885700Y-92534800D03*
X67885700Y-93034800D03*
X67885700Y-93534800D03*
X67885700Y-94034800D03*
X67885700Y-94534800D03*
X67885700Y-95034800D03*
X67885700Y-95534800D03*
X67885700Y-96034800D03*
X67885700Y-96534800D03*
X67885700Y-97034800D03*
D49*
X71323200Y-94284800D03*
D11*
X81280000Y-132080000D03*
D15*
X77492800Y-88900000D03*
X76532800Y-88900000D03*
D35*
X76102400Y-120366600D03*
X76102400Y-121136600D03*
X75332400Y-121136600D03*
X75332400Y-120366600D03*
D16*
X69011800Y-118315800D03*
X69011800Y-119275800D03*
D12*
X70789800Y-104569200D03*
X70789800Y-103609200D03*
D23*
X74193400Y-122150600D03*
X74193400Y-121130600D03*
D39*
X72062400Y-88239600D03*
X73022400Y-88239600D03*
D11*
X63500000Y-76200000D03*
D23*
X70789800Y-106428000D03*
X70789800Y-105408000D03*
D18*
X75309000Y-122555000D03*
X76329000Y-122555000D03*
X74140600Y-124739400D03*
X75160600Y-124739400D03*
D16*
X76454000Y-92608400D03*
X76454000Y-93568400D03*
D38*
X62611000Y-129540000D03*
D50*
X78308200Y-79791800D03*
D51*
X78308200Y-81091800D03*
D15*
X76527600Y-79400400D03*
X75567600Y-79400400D03*
X76146600Y-119126000D03*
X75186600Y-119126000D03*
M02*
