G04 #@! TF.GenerationSoftware,KiCad,Pcbnew,(6.0.5)*
G04 #@! TF.CreationDate,2022-08-24T15:32:52-07:00*
G04 #@! TF.ProjectId,pico-ice,7069636f-2d69-4636-952e-6b696361645f,REV1*
G04 #@! TF.SameCoordinates,Original*
G04 #@! TF.FileFunction,Paste,Bot*
G04 #@! TF.FilePolarity,Positive*
%FSLAX46Y46*%
G04 Gerber Fmt 4.6, Leading zero omitted, Abs format (unit mm)*
G04 Created by KiCad (PCBNEW (6.0.5)) date 2022-08-24 15:32:52*
%MOMM*%
%LPD*%
G01*
G04 APERTURE LIST*
G04 Aperture macros list*
%AMRoundRect*
0 Rectangle with rounded corners*
0 $1 Rounding radius*
0 $2 $3 $4 $5 $6 $7 $8 $9 X,Y pos of 4 corners*
0 Add a 4 corners polygon primitive as box body*
4,1,4,$2,$3,$4,$5,$6,$7,$8,$9,$2,$3,0*
0 Add four circle primitives for the rounded corners*
1,1,$1+$1,$2,$3*
1,1,$1+$1,$4,$5*
1,1,$1+$1,$6,$7*
1,1,$1+$1,$8,$9*
0 Add four rect primitives between the rounded corners*
20,1,$1+$1,$2,$3,$4,$5,0*
20,1,$1+$1,$4,$5,$6,$7,0*
20,1,$1+$1,$6,$7,$8,$9,0*
20,1,$1+$1,$8,$9,$2,$3,0*%
G04 Aperture macros list end*
%ADD10RoundRect,0.135000X-0.185000X0.135000X-0.185000X-0.135000X0.185000X-0.135000X0.185000X0.135000X0*%
%ADD11RoundRect,0.140000X0.170000X-0.140000X0.170000X0.140000X-0.170000X0.140000X-0.170000X-0.140000X0*%
%ADD12RoundRect,0.140000X-0.170000X0.140000X-0.170000X-0.140000X0.170000X-0.140000X0.170000X0.140000X0*%
%ADD13RoundRect,0.150000X-0.150000X0.650000X-0.150000X-0.650000X0.150000X-0.650000X0.150000X0.650000X0*%
%ADD14RoundRect,0.150000X0.650000X0.150000X-0.650000X0.150000X-0.650000X-0.150000X0.650000X-0.150000X0*%
%ADD15RoundRect,0.140000X0.140000X0.170000X-0.140000X0.170000X-0.140000X-0.170000X0.140000X-0.170000X0*%
%ADD16RoundRect,0.150000X-0.150000X0.825000X-0.150000X-0.825000X0.150000X-0.825000X0.150000X0.825000X0*%
%ADD17RoundRect,0.140000X-0.140000X-0.170000X0.140000X-0.170000X0.140000X0.170000X-0.140000X0.170000X0*%
%ADD18RoundRect,0.150000X0.512500X0.150000X-0.512500X0.150000X-0.512500X-0.150000X0.512500X-0.150000X0*%
%ADD19RoundRect,0.135000X0.185000X-0.135000X0.185000X0.135000X-0.185000X0.135000X-0.185000X-0.135000X0*%
%ADD20R,2.000000X1.500000*%
%ADD21R,2.000000X3.800000*%
G04 APERTURE END LIST*
D10*
X77444600Y-119731600D03*
X77444600Y-120751600D03*
X73507600Y-79398400D03*
X73507600Y-80418400D03*
D11*
X66497200Y-88160800D03*
X66497200Y-87200800D03*
X72771000Y-116913600D03*
X72771000Y-115953600D03*
D12*
X78099500Y-101577200D03*
X78099500Y-102537200D03*
X77393800Y-110137000D03*
X77393800Y-111097000D03*
D13*
X67818000Y-80474000D03*
X69088000Y-80474000D03*
X70358000Y-80474000D03*
X71628000Y-80474000D03*
X71628000Y-87674000D03*
X70358000Y-87674000D03*
X69088000Y-87674000D03*
X67818000Y-87674000D03*
D14*
X75659800Y-120751600D03*
X75659800Y-122021600D03*
X75659800Y-123291600D03*
X75659800Y-124561600D03*
X68459800Y-124561600D03*
X68459800Y-123291600D03*
X68459800Y-122021600D03*
X68459800Y-120751600D03*
D11*
X67183000Y-94282200D03*
X67183000Y-93322200D03*
D15*
X73606600Y-88900000D03*
X72646600Y-88900000D03*
D12*
X70586600Y-99418200D03*
X70586600Y-100378200D03*
X73050400Y-101653400D03*
X73050400Y-102613400D03*
D16*
X73533000Y-82320000D03*
X74803000Y-82320000D03*
X76073000Y-82320000D03*
X77343000Y-82320000D03*
X77343000Y-87270000D03*
X76073000Y-87270000D03*
X74803000Y-87270000D03*
X73533000Y-87270000D03*
D11*
X66294000Y-94282200D03*
X66294000Y-93322200D03*
D10*
X66090800Y-79296800D03*
X66090800Y-80316800D03*
D11*
X70561200Y-116913600D03*
X70561200Y-115953600D03*
D10*
X64058800Y-79296800D03*
X64058800Y-80316800D03*
D17*
X68658800Y-104673400D03*
X69618800Y-104673400D03*
D11*
X71628000Y-116913600D03*
X71628000Y-115953600D03*
D18*
X76677100Y-101640600D03*
X76677100Y-102590600D03*
X76677100Y-103540600D03*
X74402100Y-103540600D03*
X74402100Y-101640600D03*
D10*
X63042800Y-79296800D03*
X63042800Y-80316800D03*
D19*
X78359000Y-120753600D03*
X78359000Y-119733600D03*
D17*
X71579800Y-119151400D03*
X72539800Y-119151400D03*
D20*
X75667000Y-105370600D03*
X75667000Y-107670600D03*
D21*
X69367000Y-107670600D03*
D20*
X75667000Y-109970600D03*
D10*
X65074800Y-79296800D03*
X65074800Y-80316800D03*
M02*
