M48
; DRILL file {KiCad (6.0.5)} date Wed Aug 24 15:33:05 2022
; FORMAT={-:-/ absolute / inch / decimal}
; #@! TF.CreationDate,2022-08-24T15:33:05-07:00
; #@! TF.GenerationSoftware,Kicad,Pcbnew,(6.0.5)
; #@! TF.FileFunction,Plated,1,4,PTH
FMAT,2
INCH
; #@! TA.AperFunction,Plated,PTH,ViaDrill
T1C0.0100
; #@! TA.AperFunction,Plated,PTH,ComponentDrill
T2C0.0138
; #@! TA.AperFunction,Plated,PTH,ComponentDrill
T3C0.0236
; #@! TA.AperFunction,Plated,PTH,ComponentDrill
T4C0.0394
%
G90
G05
T1
X2.437Y-4.002
X2.469Y-4.2
X2.479Y-3.99
X2.482Y-3.096
X2.482Y-4.851
X2.482Y-4.965
X2.493Y-4.597
X2.522Y-3.096
X2.529Y-3.798
X2.562Y-3.096
X2.574Y-3.303
X2.586Y-4.514
X2.597Y-4.232
X2.6Y-4.319
X2.607Y-3.29
X2.612Y-4.696
X2.616Y-4.526
X2.616Y-4.554
X2.616Y-4.58
X2.6189Y-3.1853
X2.626Y-3.7605
X2.626Y-3.7855
X2.626Y-3.8104
X2.626Y-3.836
X2.6285Y-3.11
X2.6312Y-4.4552
X2.633Y-3.542
X2.634Y-3.914
X2.634Y-4.951
X2.636Y-4.834
X2.64Y-3.7398
X2.641Y-4.729
X2.643Y-3.471
X2.65Y-3.96
X2.659Y-3.542
X2.663Y-4.454
X2.675Y-3.286
X2.681Y-4.5741
X2.686Y-3.542
X2.686Y-4.632
X2.693Y-3.382
X2.695Y-3.512
X2.699Y-4.336
X2.7Y-3.217
X2.703Y-4.066
X2.703Y-4.149
X2.712Y-3.299
X2.7128Y-3.542
X2.7235Y-3.9687
X2.727Y-4.346
X2.731Y-4.065
X2.7378Y-3.542
X2.742Y-3.921
X2.745Y-3.125
X2.7458Y-4.3651
X2.746Y-3.217
X2.749Y-3.949
X2.749Y-4.39
X2.7547Y-3.8938
X2.755Y-3.248
X2.759Y-4.94
X2.769Y-4.442
X2.77Y-3.404
X2.77Y-4.47
X2.77Y-4.4985
X2.77Y-4.525
X2.778Y-4.633
X2.7788Y-3.542
X2.779Y-3.885
X2.787Y-4.284
X2.789Y-4.221
X2.798Y-3.499
X2.798Y-4.378
X2.7982Y-3.5263
X2.815Y-4.284
X2.8175Y-3.542
X2.824Y-4.378
X2.829Y-4.048
X2.831Y-4.635
X2.837Y-3.879
X2.84Y-3.393
X2.849Y-4.284
X2.85Y-4.378
X2.854Y-4.804
X2.855Y-3.68
X2.855Y-3.72
X2.855Y-3.76
X2.855Y-3.8
X2.857Y-4.649
X2.8575Y-3.542
X2.861Y-4.835
X2.861Y-4.881
X2.862Y-3.166
X2.867Y-3.22
X2.867Y-3.26
X2.867Y-3.404
X2.875Y-4.385
X2.876Y-3.882
X2.8832Y-3.5391
X2.89Y-3.72
X2.89Y-3.76
X2.89Y-3.8
X2.9013Y-3.8897
X2.902Y-4.843
X2.908Y-3.542
X2.91Y-3.516
X2.917Y-3.962
X2.921Y-4.868
X2.924Y-3.905
X2.926Y-4.029
X2.928Y-4.441
X2.928Y-4.467
X2.928Y-4.493
X2.928Y-4.548
X2.928Y-4.66
X2.9284Y-4.5219
X2.936Y-3.168
X2.938Y-3.577
X2.9419Y-4.94
X2.942Y-3.8666
X2.943Y-3.338
X2.948Y-3.837
X2.949Y-2.974
X2.95Y-4.565
X2.956Y-3.499
X2.96Y-4.664
X2.9682Y-4.0168
X2.969Y-4.058
X2.973Y-3.437
X2.975Y-3.7792
X2.975Y-3.809
X2.981Y-3.518
X2.983Y-3.309
X2.983Y-3.359
X2.997Y-4.904
X3.008Y-3.375
X3.015Y-4.101
X3.0198Y-4.374
X3.02Y-4.472
X3.021Y-4.401
X3.025Y-4.69
X3.0281Y-4.3361
X3.029Y-3.0
X3.032Y-4.448
X3.04Y-3.872
X3.04Y-3.92
X3.043Y-4.307
X3.046Y-4.822
X3.056Y-4.543
X3.059Y-4.577
X3.064Y-4.863
X3.068Y-3.62
X3.073Y-3.241
X3.076Y-3.647
X3.076Y-3.676
X3.077Y-3.355
X3.083Y-3.5
X3.084Y-4.822
X3.085Y-3.818
X3.085Y-4.786
X3.0863Y-3.7657
X3.087Y-3.408
X3.096Y-3.381
X3.104Y-4.992
X3.112Y-3.818
X3.122Y-4.842
X3.129Y-4.102
X3.138Y-3.143
X3.142Y-4.9
X3.142Y-4.938
X3.1471Y-4.2997
X3.15Y-3.193
X3.172Y-4.3
X3.173Y-4.102
X3.18Y-4.9
X3.18Y-4.938
X3.192Y-3.605
X3.223Y-5.022
T2
X2.7988Y-4.4138
X2.7988Y-4.464
X2.7988Y-4.5142
X2.849Y-4.4138
X2.849Y-4.464
X2.849Y-4.5142
X2.8992Y-4.4138
X2.8992Y-4.464
X2.8992Y-4.5142
T4
X2.45Y-3.25
X2.45Y-3.35
X2.45Y-3.45
X2.45Y-3.55
X2.45Y-3.65
X2.45Y-3.75
X2.45Y-3.85
X2.45Y-3.95
X2.45Y-4.05
X2.45Y-4.15
X2.45Y-4.25
X2.45Y-4.35
X2.45Y-4.45
X2.45Y-4.55
X2.45Y-4.65
X2.45Y-4.75
X2.55Y-3.25
X2.55Y-3.35
X2.55Y-3.45
X2.55Y-3.55
X2.55Y-3.65
X2.55Y-3.75
X2.55Y-3.85
X2.55Y-3.95
X2.55Y-4.05
X2.55Y-4.15
X2.55Y-4.25
X2.55Y-4.35
X2.55Y-4.45
X2.55Y-4.55
X2.55Y-4.65
X2.55Y-4.75
X2.6Y-2.95
X2.6Y-3.05
X2.7Y-2.95
X2.7Y-3.05
X2.8Y-2.95
X2.8Y-3.05
X2.9Y-2.95
X2.9Y-3.05
X3.0Y-2.95
X3.0Y-3.05
X3.1Y-2.95
X3.1Y-3.05
X3.15Y-3.25
X3.15Y-3.35
X3.15Y-3.45
X3.15Y-3.55
X3.15Y-3.65
X3.15Y-3.75
X3.15Y-3.85
X3.15Y-3.95
X3.15Y-4.05
X3.15Y-4.15
X3.15Y-4.25
X3.15Y-4.35
X3.15Y-4.45
X3.15Y-4.55
X3.15Y-4.65
X3.15Y-4.75
X3.25Y-3.25
X3.25Y-3.35
X3.25Y-3.45
X3.25Y-3.55
X3.25Y-3.65
X3.25Y-3.75
X3.25Y-3.85
X3.25Y-3.95
X3.25Y-4.05
X3.25Y-4.15
X3.25Y-4.25
X3.25Y-4.35
X3.25Y-4.45
X3.25Y-4.55
X3.25Y-4.65
X3.25Y-4.75
T3
G00X2.6799Y-5.0101
M15
G01X2.6799Y-5.0534
M16
G05
G00X2.6799Y-5.1845
M15
G01X2.6799Y-5.2081
M16
G05
G00X3.0201Y-5.0101
M15
G01X3.0201Y-5.0534
M16
G05
G00X3.0201Y-5.1845
M15
G01X3.0201Y-5.2081
M16
G05
T0
M30
