G04 #@! TF.GenerationSoftware,KiCad,Pcbnew,(6.0.5)*
G04 #@! TF.CreationDate,2022-10-28T12:11:28-07:00*
G04 #@! TF.ProjectId,pico-ice,7069636f-2d69-4636-952e-6b696361645f,REV1*
G04 #@! TF.SameCoordinates,Original*
G04 #@! TF.FileFunction,Soldermask,Top*
G04 #@! TF.FilePolarity,Negative*
%FSLAX46Y46*%
G04 Gerber Fmt 4.6, Leading zero omitted, Abs format (unit mm)*
G04 Created by KiCad (PCBNEW (6.0.5)) date 2022-10-28 12:11:28*
%MOMM*%
%LPD*%
G01*
G04 APERTURE LIST*
G04 Aperture macros list*
%AMRoundRect*
0 Rectangle with rounded corners*
0 $1 Rounding radius*
0 $2 $3 $4 $5 $6 $7 $8 $9 X,Y pos of 4 corners*
0 Add a 4 corners polygon primitive as box body*
4,1,4,$2,$3,$4,$5,$6,$7,$8,$9,$2,$3,0*
0 Add four circle primitives for the rounded corners*
1,1,$1+$1,$2,$3*
1,1,$1+$1,$4,$5*
1,1,$1+$1,$6,$7*
1,1,$1+$1,$8,$9*
0 Add four rect primitives between the rounded corners*
20,1,$1+$1,$2,$3,$4,$5,0*
20,1,$1+$1,$4,$5,$6,$7,0*
20,1,$1+$1,$6,$7,$8,$9,0*
20,1,$1+$1,$8,$9,$2,$3,0*%
%AMFreePoly0*
4,1,37,0.536062,0.786062,0.551000,0.750000,0.551000,-0.750000,0.536062,-0.786062,0.500000,-0.801000,0.000000,-0.801000,-0.012525,-0.795812,-0.080875,-0.794559,-0.095149,-0.792248,-0.230464,-0.749973,-0.243516,-0.743747,-0.361526,-0.665192,-0.372306,-0.655554,-0.463526,-0.547035,-0.471167,-0.534759,-0.528262,-0.405000,-0.532150,-0.391073,-0.549733,-0.256613,-0.548336,-0.256430,-0.551000,-0.250000,
-0.551000,0.250000,-0.550512,0.251179,-0.550356,0.263956,-0.528545,0.404033,-0.524317,0.417860,-0.464069,0.546185,-0.456130,0.558271,-0.362286,0.664529,-0.351274,0.673901,-0.231379,0.749549,-0.218180,0.755454,-0.081873,0.794411,-0.067546,0.796373,-0.011990,0.796033,0.000000,0.801000,0.500000,0.801000,0.536062,0.786062,0.536062,0.786062,$1*%
%AMFreePoly1*
4,1,37,0.012349,0.795885,0.074216,0.795507,0.088518,0.793370,0.224339,0.752751,0.237465,0.746685,0.356427,0.669578,0.367324,0.660073,0.459862,0.552676,0.467652,0.540494,0.526329,0.411442,0.530388,0.397563,0.550485,0.257230,0.551000,0.250000,0.551000,-0.250000,0.550996,-0.250622,0.550847,-0.262838,0.550144,-0.270677,0.526624,-0.410478,0.522228,-0.424254,0.460416,-0.551833,
0.452330,-0.563821,0.357195,-0.668925,0.346069,-0.678161,0.225259,-0.752338,0.211989,-0.758081,0.075216,-0.795370,0.060866,-0.797157,0.011464,-0.796251,0.000000,-0.801000,-0.500000,-0.801000,-0.536062,-0.786062,-0.551000,-0.750000,-0.551000,0.750000,-0.536062,0.786062,-0.500000,0.801000,0.000000,0.801000,0.012349,0.795885,0.012349,0.795885,$1*%
G04 Aperture macros list end*
%ADD10C,0.125000*%
%ADD11RoundRect,0.186000X0.185000X-0.135000X0.185000X0.135000X-0.185000X0.135000X-0.185000X-0.135000X0*%
%ADD12C,2.802000*%
%ADD13RoundRect,0.191000X0.170000X-0.140000X0.170000X0.140000X-0.170000X0.140000X-0.170000X-0.140000X0*%
%ADD14RoundRect,0.251000X-0.275000X0.200000X-0.275000X-0.200000X0.275000X-0.200000X0.275000X0.200000X0*%
%ADD15RoundRect,0.191000X0.140000X0.170000X-0.140000X0.170000X-0.140000X-0.170000X0.140000X-0.170000X0*%
%ADD16RoundRect,0.191000X-0.170000X0.140000X-0.170000X-0.140000X0.170000X-0.140000X0.170000X0.140000X0*%
%ADD17RoundRect,0.269750X-0.256250X0.218750X-0.256250X-0.218750X0.256250X-0.218750X0.256250X0.218750X0*%
%ADD18RoundRect,0.186000X-0.135000X-0.185000X0.135000X-0.185000X0.135000X0.185000X-0.135000X0.185000X0*%
%ADD19RoundRect,0.191000X-0.140000X-0.170000X0.140000X-0.170000X0.140000X0.170000X-0.140000X0.170000X0*%
%ADD20RoundRect,0.051000X-0.475000X-0.700000X0.475000X-0.700000X0.475000X0.700000X-0.475000X0.700000X0*%
%ADD21RoundRect,0.051000X0.575000X-0.375000X0.575000X0.375000X-0.575000X0.375000X-0.575000X-0.375000X0*%
%ADD22RoundRect,0.288500X0.250000X0.237500X-0.250000X0.237500X-0.250000X-0.237500X0.250000X-0.237500X0*%
%ADD23C,0.752000*%
%ADD24RoundRect,0.051000X-0.300000X-0.725000X0.300000X-0.725000X0.300000X0.725000X-0.300000X0.725000X0*%
%ADD25RoundRect,0.051000X-0.150000X-0.725000X0.150000X-0.725000X0.150000X0.725000X-0.150000X0.725000X0*%
%ADD26O,1.102000X2.202000*%
%ADD27O,1.102000X1.702000*%
%ADD28RoundRect,0.186000X-0.185000X0.135000X-0.185000X-0.135000X0.185000X-0.135000X0.185000X0.135000X0*%
%ADD29FreePoly0,0.000000*%
%ADD30FreePoly1,0.000000*%
%ADD31RoundRect,0.051000X-0.850000X-0.850000X0.850000X-0.850000X0.850000X0.850000X-0.850000X0.850000X0*%
%ADD32O,1.802000X1.802000*%
%ADD33RoundRect,0.288500X-0.250000X-0.237500X0.250000X-0.237500X0.250000X0.237500X-0.250000X0.237500X0*%
%ADD34RoundRect,0.051000X-0.225000X0.300000X-0.225000X-0.300000X0.225000X-0.300000X0.225000X0.300000X0*%
%ADD35RoundRect,0.051000X-0.215000X-0.215000X0.215000X-0.215000X0.215000X0.215000X-0.215000X0.215000X0*%
%ADD36C,1.500000*%
%ADD37RoundRect,0.051000X-0.700000X0.475000X-0.700000X-0.475000X0.700000X-0.475000X0.700000X0.475000X0*%
%ADD38RoundRect,0.051000X-0.375000X-0.575000X0.375000X-0.575000X0.375000X0.575000X-0.375000X0.575000X0*%
%ADD39RoundRect,0.051000X0.160000X-0.250000X0.160000X0.250000X-0.160000X0.250000X-0.160000X-0.250000X0*%
%ADD40RoundRect,0.101000X0.387500X0.050000X-0.387500X0.050000X-0.387500X-0.050000X0.387500X-0.050000X0*%
%ADD41RoundRect,0.101000X0.050000X0.387500X-0.050000X0.387500X-0.050000X-0.387500X0.050000X-0.387500X0*%
%ADD42RoundRect,0.195000X1.456000X1.456000X-1.456000X1.456000X-1.456000X-1.456000X1.456000X-1.456000X0*%
%ADD43RoundRect,0.051000X-0.500000X0.575000X-0.500000X-0.575000X0.500000X-0.575000X0.500000X0.575000X0*%
%ADD44RoundRect,0.051000X-0.350000X0.300000X-0.350000X-0.300000X0.350000X-0.300000X0.350000X0.300000X0*%
%ADD45RoundRect,0.113500X0.062500X-0.375000X0.062500X0.375000X-0.062500X0.375000X-0.062500X-0.375000X0*%
%ADD46RoundRect,0.113500X0.375000X-0.062500X0.375000X0.062500X-0.375000X0.062500X-0.375000X-0.062500X0*%
%ADD47RoundRect,0.051000X2.800000X-2.800000X2.800000X2.800000X-2.800000X2.800000X-2.800000X-2.800000X0*%
G04 APERTURE END LIST*
D10*
X68593975Y-135705213D02*
X68593975Y-136605213D01*
X68593975Y-135748071D02*
X68679689Y-135705213D01*
X68851118Y-135705213D01*
X68936832Y-135748071D01*
X68979689Y-135790928D01*
X69022546Y-135876642D01*
X69022546Y-136133785D01*
X68979689Y-136219499D01*
X68936832Y-136262356D01*
X68851118Y-136305213D01*
X68679689Y-136305213D01*
X68593975Y-136262356D01*
X69408260Y-136305213D02*
X69408260Y-135705213D01*
X69408260Y-135405213D02*
X69365403Y-135448071D01*
X69408260Y-135490928D01*
X69451118Y-135448071D01*
X69408260Y-135405213D01*
X69408260Y-135490928D01*
X70222546Y-136262356D02*
X70136832Y-136305213D01*
X69965403Y-136305213D01*
X69879689Y-136262356D01*
X69836832Y-136219499D01*
X69793975Y-136133785D01*
X69793975Y-135876642D01*
X69836832Y-135790928D01*
X69879689Y-135748071D01*
X69965403Y-135705213D01*
X70136832Y-135705213D01*
X70222546Y-135748071D01*
X70736832Y-136305213D02*
X70651118Y-136262356D01*
X70608260Y-136219499D01*
X70565403Y-136133785D01*
X70565403Y-135876642D01*
X70608260Y-135790928D01*
X70651118Y-135748071D01*
X70736832Y-135705213D01*
X70865403Y-135705213D01*
X70951118Y-135748071D01*
X70993975Y-135790928D01*
X71036832Y-135876642D01*
X71036832Y-136133785D01*
X70993975Y-136219499D01*
X70951118Y-136262356D01*
X70865403Y-136305213D01*
X70736832Y-136305213D01*
X71422546Y-135962356D02*
X72108260Y-135962356D01*
X72536832Y-136305213D02*
X72536832Y-135705213D01*
X72536832Y-135405213D02*
X72493975Y-135448071D01*
X72536832Y-135490928D01*
X72579689Y-135448071D01*
X72536832Y-135405213D01*
X72536832Y-135490928D01*
X73351118Y-136262356D02*
X73265403Y-136305213D01*
X73093975Y-136305213D01*
X73008260Y-136262356D01*
X72965403Y-136219499D01*
X72922546Y-136133785D01*
X72922546Y-135876642D01*
X72965403Y-135790928D01*
X73008260Y-135748071D01*
X73093975Y-135705213D01*
X73265403Y-135705213D01*
X73351118Y-135748071D01*
X74079689Y-136262356D02*
X73993975Y-136305213D01*
X73822546Y-136305213D01*
X73736832Y-136262356D01*
X73693975Y-136176642D01*
X73693975Y-135833785D01*
X73736832Y-135748071D01*
X73822546Y-135705213D01*
X73993975Y-135705213D01*
X74079689Y-135748071D01*
X74122546Y-135833785D01*
X74122546Y-135919499D01*
X73693975Y-136005213D01*
X75108260Y-135705213D02*
X75322546Y-136305213D01*
X75536832Y-135705213D01*
X76351118Y-136305213D02*
X75836832Y-136305213D01*
X76093975Y-136305213D02*
X76093975Y-135405213D01*
X76008260Y-135533785D01*
X75922546Y-135619499D01*
X75836832Y-135662356D01*
G36*
X76367338Y-83600759D02*
G01*
X76382655Y-83601406D01*
X76394436Y-83602642D01*
X76404055Y-83604594D01*
X76410044Y-83606389D01*
X76419669Y-83609894D01*
X76426606Y-83612919D01*
X76428924Y-83614407D01*
X76432355Y-83617116D01*
X76439427Y-83621665D01*
X76444839Y-83624881D01*
X76465105Y-83640120D01*
X76482484Y-83660494D01*
X76496552Y-83685344D01*
X76506883Y-83714015D01*
X76509605Y-83725145D01*
X76510637Y-83730713D01*
X76511537Y-83737537D01*
X76512320Y-83746097D01*
X76512998Y-83756868D01*
X76513586Y-83770328D01*
X76514095Y-83786956D01*
X76514540Y-83807228D01*
X76514935Y-83831623D01*
X76515291Y-83860617D01*
X76515623Y-83894688D01*
X76515944Y-83934314D01*
X76516119Y-83958501D01*
X76517597Y-84168542D01*
X76353404Y-84168542D01*
X76353380Y-83997834D01*
X76353325Y-83954671D01*
X76353158Y-83917334D01*
X76352857Y-83885359D01*
X76352399Y-83858278D01*
X76351762Y-83835628D01*
X76350923Y-83816941D01*
X76349860Y-83801752D01*
X76348551Y-83789596D01*
X76346973Y-83780005D01*
X76345104Y-83772515D01*
X76342921Y-83766661D01*
X76342185Y-83765121D01*
X76330567Y-83748437D01*
X76315465Y-83736751D01*
X76297648Y-83730430D01*
X76277884Y-83729844D01*
X76270963Y-83730994D01*
X76253127Y-83736503D01*
X76238821Y-83745083D01*
X76227143Y-83757613D01*
X76217192Y-83774976D01*
X76211183Y-83789371D01*
X76209675Y-83793488D01*
X76208392Y-83797546D01*
X76207316Y-83802076D01*
X76206422Y-83807609D01*
X76205690Y-83814678D01*
X76205099Y-83823812D01*
X76204626Y-83835545D01*
X76204249Y-83850406D01*
X76203948Y-83868927D01*
X76203701Y-83891640D01*
X76203485Y-83919076D01*
X76203279Y-83951766D01*
X76203073Y-83988394D01*
X76202075Y-84168542D01*
X76038736Y-84168542D01*
X76038736Y-83608433D01*
X76189604Y-83608433D01*
X76190477Y-83653138D01*
X76191350Y-83697844D01*
X76205098Y-83676730D01*
X76212087Y-83667086D01*
X76221072Y-83656207D01*
X76231008Y-83645179D01*
X76240851Y-83635089D01*
X76249556Y-83627021D01*
X76256079Y-83622062D01*
X76258702Y-83621019D01*
X76262624Y-83619147D01*
X76268458Y-83614714D01*
X76276199Y-83609397D01*
X76286029Y-83605501D01*
X76298901Y-83602855D01*
X76315769Y-83601286D01*
X76337587Y-83600624D01*
X76347111Y-83600575D01*
X76367338Y-83600759D01*
G37*
G36*
X72671789Y-83498299D02*
G01*
X72593122Y-83498299D01*
X72593122Y-83413338D01*
X72671789Y-83413338D01*
X72671789Y-83498299D01*
G37*
G36*
X75315000Y-83564379D02*
G01*
X75151372Y-83564379D01*
X75151372Y-83397605D01*
X75315000Y-83397605D01*
X75315000Y-83564379D01*
G37*
G36*
X76806526Y-84168542D02*
G01*
X76636605Y-84168542D01*
X76636605Y-83995474D01*
X76806526Y-83995474D01*
X76806526Y-84168542D01*
G37*
G36*
X76905236Y-83965581D02*
G01*
X76913934Y-83942549D01*
X76924408Y-83923648D01*
X76938015Y-83906727D01*
X76949372Y-83895598D01*
X76966875Y-83881380D01*
X76986374Y-83869092D01*
X77008486Y-83858542D01*
X77033833Y-83849537D01*
X77063034Y-83841885D01*
X77096709Y-83835393D01*
X77135477Y-83829869D01*
X77174688Y-83825618D01*
X77190653Y-83824056D01*
X77205702Y-83822528D01*
X77217912Y-83821234D01*
X77224248Y-83820511D01*
X77237621Y-83818874D01*
X77237621Y-83796038D01*
X77235724Y-83770352D01*
X77229937Y-83749483D01*
X77220117Y-83733196D01*
X77206124Y-83721251D01*
X77188201Y-83713523D01*
X77165609Y-83709638D01*
X77142880Y-83710591D01*
X77121373Y-83716046D01*
X77102449Y-83725667D01*
X77088239Y-83738200D01*
X77080278Y-83749637D01*
X77073509Y-83763166D01*
X77068989Y-83776368D01*
X77067700Y-83785207D01*
X77065721Y-83789636D01*
X77059047Y-83790956D01*
X77050174Y-83790650D01*
X77038009Y-83789807D01*
X77023881Y-83788568D01*
X77009119Y-83787078D01*
X76995049Y-83785482D01*
X76983001Y-83783922D01*
X76974302Y-83782542D01*
X76970280Y-83781487D01*
X76970153Y-83781326D01*
X76967246Y-83780148D01*
X76959457Y-83778801D01*
X76948188Y-83777502D01*
X76941833Y-83776950D01*
X76927731Y-83775786D01*
X76918995Y-83774179D01*
X76914740Y-83770949D01*
X76914082Y-83764914D01*
X76916138Y-83754893D01*
X76918488Y-83745767D01*
X76929305Y-83714850D01*
X76944900Y-83687860D01*
X76965406Y-83664656D01*
X76990957Y-83645092D01*
X77021688Y-83629027D01*
X77030874Y-83625276D01*
X77041854Y-83620869D01*
X77050363Y-83617159D01*
X77054841Y-83614831D01*
X77055114Y-83614595D01*
X77058702Y-83613082D01*
X77066937Y-83610680D01*
X77078307Y-83607815D01*
X77083434Y-83606625D01*
X77101051Y-83603702D01*
X77123229Y-83601641D01*
X77148367Y-83600443D01*
X77174864Y-83600108D01*
X77201119Y-83600638D01*
X77225529Y-83602033D01*
X77246495Y-83604294D01*
X77258861Y-83606528D01*
X77270641Y-83609528D01*
X77279630Y-83612379D01*
X77284406Y-83614607D01*
X77284821Y-83615181D01*
X77287350Y-83617623D01*
X77289177Y-83617873D01*
X77293799Y-83619216D01*
X77302470Y-83622808D01*
X77313657Y-83627993D01*
X77319052Y-83630645D01*
X77341887Y-83644224D01*
X77361402Y-83660138D01*
X77376444Y-83677358D01*
X77382571Y-83687356D01*
X77385729Y-83693602D01*
X77388457Y-83699527D01*
X77390792Y-83705630D01*
X77392769Y-83712411D01*
X77394427Y-83720367D01*
X77395801Y-83729999D01*
X77396928Y-83741803D01*
X77397846Y-83756280D01*
X77398591Y-83773928D01*
X77399199Y-83795246D01*
X77399709Y-83820732D01*
X77400156Y-83850885D01*
X77400577Y-83886204D01*
X77401009Y-83927188D01*
X77401128Y-83938834D01*
X77401636Y-83984677D01*
X77402168Y-84024462D01*
X77402730Y-84058427D01*
X77403330Y-84086807D01*
X77403973Y-84109839D01*
X77404666Y-84127758D01*
X77405415Y-84140802D01*
X77406227Y-84149205D01*
X77406940Y-84152787D01*
X77409411Y-84160626D01*
X77410653Y-84165733D01*
X77410689Y-84166161D01*
X77407681Y-84166807D01*
X77399217Y-84167386D01*
X77386131Y-84167874D01*
X77369259Y-84168245D01*
X77349438Y-84168476D01*
X77330773Y-84168542D01*
X77250858Y-84168542D01*
X77247391Y-84142581D01*
X77245623Y-84128416D01*
X77244134Y-84114814D01*
X77243208Y-84104403D01*
X77243133Y-84103235D01*
X77242341Y-84089849D01*
X77220893Y-84115238D01*
X77199922Y-84137378D01*
X77178400Y-84154264D01*
X77155201Y-84166423D01*
X77129199Y-84174380D01*
X77099269Y-84178664D01*
X77083434Y-84179561D01*
X77066856Y-84179824D01*
X77050624Y-84179552D01*
X77036916Y-84178809D01*
X77029785Y-84178011D01*
X77010501Y-84173615D01*
X76990155Y-84166812D01*
X76971608Y-84158639D01*
X76962958Y-84153777D01*
X76953593Y-84147271D01*
X76943890Y-84139546D01*
X76935185Y-84131797D01*
X76928815Y-84125221D01*
X76926117Y-84121012D01*
X76926100Y-84120808D01*
X76924453Y-84116607D01*
X76920305Y-84109492D01*
X76918150Y-84106228D01*
X76907891Y-84086398D01*
X76900910Y-84062576D01*
X76897343Y-84036222D01*
X76897323Y-84008793D01*
X76898401Y-84000830D01*
X77071914Y-84000830D01*
X77072736Y-84019046D01*
X77078105Y-84035656D01*
X77087445Y-84050010D01*
X77100176Y-84061462D01*
X77115720Y-84069362D01*
X77133499Y-84073063D01*
X77152932Y-84071917D01*
X77173443Y-84065275D01*
X77176815Y-84063644D01*
X77195692Y-84050725D01*
X77211931Y-84032922D01*
X77224719Y-84011371D01*
X77233241Y-83987212D01*
X77234083Y-83983519D01*
X77235659Y-83972793D01*
X77236874Y-83958246D01*
X77237545Y-83942350D01*
X77237621Y-83935532D01*
X77237621Y-83904220D01*
X77228593Y-83904220D01*
X77216282Y-83905139D01*
X77200004Y-83907620D01*
X77181769Y-83911250D01*
X77163585Y-83915613D01*
X77147461Y-83920296D01*
X77142711Y-83921921D01*
X77123723Y-83929603D01*
X77109357Y-83937673D01*
X77097989Y-83947287D01*
X77087992Y-83959604D01*
X77086232Y-83962170D01*
X77076220Y-83981655D01*
X77071914Y-84000830D01*
X76898401Y-84000830D01*
X76900984Y-83981749D01*
X76905236Y-83965581D01*
G37*
G36*
X75315000Y-84168542D02*
G01*
X75151372Y-84168542D01*
X75151372Y-83608433D01*
X75315000Y-83608433D01*
X75315000Y-84168542D01*
G37*
G36*
X72668642Y-84168542D02*
G01*
X72599415Y-84168542D01*
X72599415Y-83608433D01*
X72668642Y-83608433D01*
X72668642Y-84168542D01*
G37*
G36*
X73103766Y-83594233D02*
G01*
X73115477Y-83595519D01*
X73128474Y-83597954D01*
X73142106Y-83601288D01*
X73154985Y-83605081D01*
X73165723Y-83608889D01*
X73172933Y-83612269D01*
X73175257Y-83614580D01*
X73177688Y-83617350D01*
X73183989Y-83622243D01*
X73190808Y-83626889D01*
X73210425Y-83643179D01*
X73227622Y-83664833D01*
X73242004Y-83691254D01*
X73252673Y-83720140D01*
X73253785Y-83724293D01*
X73254749Y-83729073D01*
X73255576Y-83734958D01*
X73256283Y-83742426D01*
X73256881Y-83751952D01*
X73257385Y-83764015D01*
X73257809Y-83779091D01*
X73258166Y-83797657D01*
X73258470Y-83820191D01*
X73258734Y-83847170D01*
X73258974Y-83879070D01*
X73259201Y-83916370D01*
X73259401Y-83953781D01*
X73260503Y-84168542D01*
X73194622Y-84168542D01*
X73193383Y-83966367D01*
X73193128Y-83925636D01*
X73192886Y-83890687D01*
X73192640Y-83861009D01*
X73192371Y-83836089D01*
X73192060Y-83815418D01*
X73191691Y-83798483D01*
X73191243Y-83784773D01*
X73190700Y-83773777D01*
X73190042Y-83764983D01*
X73189252Y-83757880D01*
X73188311Y-83751957D01*
X73187200Y-83746702D01*
X73185903Y-83741604D01*
X73185271Y-83739291D01*
X73175713Y-83712260D01*
X73163323Y-83690747D01*
X73147790Y-83674506D01*
X73128805Y-83663289D01*
X73106058Y-83656850D01*
X73079472Y-83654939D01*
X73049364Y-83657727D01*
X73022045Y-83665786D01*
X72996725Y-83679448D01*
X72972615Y-83699043D01*
X72971325Y-83700283D01*
X72953994Y-83719373D01*
X72940177Y-83740108D01*
X72929040Y-83763990D01*
X72919751Y-83792521D01*
X72919370Y-83793911D01*
X72917973Y-83799335D01*
X72916785Y-83804879D01*
X72915787Y-83811097D01*
X72914955Y-83818546D01*
X72914270Y-83827784D01*
X72913710Y-83839366D01*
X72913253Y-83853849D01*
X72912878Y-83871790D01*
X72912565Y-83893746D01*
X72912291Y-83920272D01*
X72912035Y-83951926D01*
X72911776Y-83989263D01*
X72911751Y-83993114D01*
X72910597Y-84168542D01*
X72838563Y-84168542D01*
X72838563Y-83608433D01*
X72910936Y-83608433D01*
X72910936Y-83706955D01*
X72923583Y-83687389D01*
X72941426Y-83663109D01*
X72960907Y-83642560D01*
X72980842Y-83626988D01*
X72981259Y-83626721D01*
X72990643Y-83620553D01*
X72998203Y-83615208D01*
X73001546Y-83612514D01*
X73008125Y-83608633D01*
X73019327Y-83604448D01*
X73033526Y-83600406D01*
X73049093Y-83596952D01*
X73064404Y-83594531D01*
X73068932Y-83594052D01*
X73085488Y-83593476D01*
X73103766Y-83594233D01*
G37*
G36*
X74843378Y-83600469D02*
G01*
X74865718Y-83601498D01*
X74885130Y-83603265D01*
X74900125Y-83605770D01*
X74902777Y-83606447D01*
X74913343Y-83609659D01*
X74921270Y-83612559D01*
X74924804Y-83614490D01*
X74928190Y-83617003D01*
X74935649Y-83621459D01*
X74945641Y-83626943D01*
X74946838Y-83627575D01*
X74966582Y-83640448D01*
X74986171Y-83657692D01*
X75003860Y-83677589D01*
X75016888Y-83696639D01*
X75024739Y-83710963D01*
X75031111Y-83724200D01*
X75035535Y-83735211D01*
X75037541Y-83742858D01*
X75037132Y-83745749D01*
X75033686Y-83747119D01*
X75025340Y-83749799D01*
X75013269Y-83753454D01*
X74998650Y-83757748D01*
X74982657Y-83762349D01*
X74966465Y-83766921D01*
X74951250Y-83771130D01*
X74938187Y-83774641D01*
X74928451Y-83777120D01*
X74923218Y-83778233D01*
X74922879Y-83778262D01*
X74919793Y-83775637D01*
X74915936Y-83768870D01*
X74914065Y-83764453D01*
X74904433Y-83746796D01*
X74890379Y-83730754D01*
X74873765Y-83718301D01*
X74867503Y-83715071D01*
X74859209Y-83711689D01*
X74851137Y-83709488D01*
X74841587Y-83708227D01*
X74828859Y-83707664D01*
X74814678Y-83707553D01*
X74798227Y-83707705D01*
X74786434Y-83708321D01*
X74777669Y-83709638D01*
X74770300Y-83711895D01*
X74763237Y-83715063D01*
X74748750Y-83724875D01*
X74739651Y-83736972D01*
X74736176Y-83750600D01*
X74738560Y-83765007D01*
X74744206Y-83775680D01*
X74748451Y-83781035D01*
X74753552Y-83785489D01*
X74760291Y-83789290D01*
X74769452Y-83792683D01*
X74781816Y-83795914D01*
X74798168Y-83799230D01*
X74819290Y-83802876D01*
X74842479Y-83806559D01*
X74863580Y-83809955D01*
X74884633Y-83813557D01*
X74904043Y-83817076D01*
X74920217Y-83820225D01*
X74930459Y-83822450D01*
X74964116Y-83832789D01*
X74992605Y-83846670D01*
X75016060Y-83864241D01*
X75034613Y-83885650D01*
X75048396Y-83911046D01*
X75057543Y-83940576D01*
X75061778Y-83969110D01*
X75061809Y-84003194D01*
X75056090Y-84035781D01*
X75044969Y-84066262D01*
X75028791Y-84094025D01*
X75007903Y-84118462D01*
X74982652Y-84138963D01*
X74957186Y-84153222D01*
X74925332Y-84165137D01*
X74889359Y-84173818D01*
X74850643Y-84179094D01*
X74810561Y-84180795D01*
X74770490Y-84178752D01*
X74759916Y-84177545D01*
X74730042Y-84172414D01*
X74703346Y-84164774D01*
X74676934Y-84153770D01*
X74673201Y-84151965D01*
X74658508Y-84144127D01*
X74646102Y-84135789D01*
X74633860Y-84125363D01*
X74621928Y-84113602D01*
X74605189Y-84094329D01*
X74590808Y-84073668D01*
X74579603Y-84053024D01*
X74572389Y-84033804D01*
X74570549Y-84025254D01*
X74568648Y-84012555D01*
X74632662Y-84003960D01*
X74652294Y-84001360D01*
X74670012Y-83999082D01*
X74684792Y-83997250D01*
X74695607Y-83995993D01*
X74701434Y-83995436D01*
X74701940Y-83995420D01*
X74706697Y-83998368D01*
X74710727Y-84006156D01*
X74710801Y-84006379D01*
X74717105Y-84018615D01*
X74727421Y-84031596D01*
X74740006Y-84043516D01*
X74753117Y-84052574D01*
X74757523Y-84054740D01*
X74783019Y-84062738D01*
X74811393Y-84066515D01*
X74840787Y-84065996D01*
X74869342Y-84061103D01*
X74874805Y-84059588D01*
X74890424Y-84052865D01*
X74903599Y-84043234D01*
X74913204Y-84031828D01*
X74918116Y-84019784D01*
X74918518Y-84015468D01*
X74916887Y-84003744D01*
X74911658Y-83994054D01*
X74902332Y-83986117D01*
X74888407Y-83979652D01*
X74869381Y-83974379D01*
X74844755Y-83970015D01*
X74835131Y-83968703D01*
X74823276Y-83966961D01*
X74808799Y-83964501D01*
X74792937Y-83961575D01*
X74776927Y-83958433D01*
X74762008Y-83955326D01*
X74749416Y-83952506D01*
X74740390Y-83950223D01*
X74736166Y-83948728D01*
X74736034Y-83948605D01*
X74732403Y-83946739D01*
X74724331Y-83943965D01*
X74713496Y-83940855D01*
X74712411Y-83940570D01*
X74680423Y-83929509D01*
X74653059Y-83914199D01*
X74630270Y-83894606D01*
X74613607Y-83873248D01*
X74599785Y-83846085D01*
X74591398Y-83816889D01*
X74588341Y-83786613D01*
X74590506Y-83756207D01*
X74597788Y-83726622D01*
X74610081Y-83698809D01*
X74627278Y-83673718D01*
X74637077Y-83663084D01*
X74647414Y-83654090D01*
X74660325Y-83644601D01*
X74674430Y-83635443D01*
X74688349Y-83627439D01*
X74700701Y-83621414D01*
X74710107Y-83618192D01*
X74712775Y-83617873D01*
X74716726Y-83616244D01*
X74717131Y-83615065D01*
X74719947Y-83612996D01*
X74727392Y-83610094D01*
X74737961Y-83606930D01*
X74739944Y-83606411D01*
X74754559Y-83603744D01*
X74773701Y-83601816D01*
X74795879Y-83600628D01*
X74819601Y-83600179D01*
X74843378Y-83600469D01*
G37*
G36*
X74264873Y-82530064D02*
G01*
X74268127Y-82526584D01*
X74274008Y-82518978D01*
X74281679Y-82508374D01*
X74290174Y-82496081D01*
X74314080Y-82461496D01*
X74336494Y-82430826D01*
X74358566Y-82402702D01*
X74381441Y-82375752D01*
X74406269Y-82348606D01*
X74434198Y-82319892D01*
X74454554Y-82299740D01*
X74496620Y-82260227D01*
X74537245Y-82225605D01*
X74577584Y-82195030D01*
X74618792Y-82167659D01*
X74662022Y-82142651D01*
X74688810Y-82128729D01*
X74705044Y-82120534D01*
X74719456Y-82113121D01*
X74731038Y-82107021D01*
X74738781Y-82102762D01*
X74741518Y-82101051D01*
X74747039Y-82098113D01*
X74757543Y-82093954D01*
X74771918Y-82088920D01*
X74789052Y-82083356D01*
X74807833Y-82077609D01*
X74827150Y-82072024D01*
X74845889Y-82066946D01*
X74862939Y-82062721D01*
X74869744Y-82061194D01*
X74882556Y-82058501D01*
X74893563Y-82056424D01*
X74903870Y-82054888D01*
X74914582Y-82053815D01*
X74926805Y-82053127D01*
X74941644Y-82052748D01*
X74960204Y-82052601D01*
X74983591Y-82052608D01*
X74992465Y-82052630D01*
X75017898Y-82052740D01*
X75038159Y-82052964D01*
X75054369Y-82053381D01*
X75067649Y-82054072D01*
X75079119Y-82055118D01*
X75089901Y-82056599D01*
X75101117Y-82058596D01*
X75113886Y-82061189D01*
X75115025Y-82061429D01*
X75130753Y-82065051D01*
X75148468Y-82069646D01*
X75167109Y-82074882D01*
X75185619Y-82080424D01*
X75202940Y-82085941D01*
X75218014Y-82091098D01*
X75229782Y-82095563D01*
X75237185Y-82099003D01*
X75239139Y-82100503D01*
X75242753Y-82103078D01*
X75250662Y-82107282D01*
X75261349Y-82112326D01*
X75264653Y-82113790D01*
X75293191Y-82127442D01*
X75324786Y-82144620D01*
X75358010Y-82164437D01*
X75391437Y-82186004D01*
X75423639Y-82208432D01*
X75453188Y-82230833D01*
X75455027Y-82232302D01*
X75468758Y-82243888D01*
X75485851Y-82259214D01*
X75505401Y-82277393D01*
X75526505Y-82297540D01*
X75548259Y-82318767D01*
X75569757Y-82340188D01*
X75590096Y-82360916D01*
X75608372Y-82380065D01*
X75623680Y-82396749D01*
X75629392Y-82403254D01*
X75639974Y-82415509D01*
X75649691Y-82426724D01*
X75657461Y-82435651D01*
X75662173Y-82441014D01*
X75667357Y-82447104D01*
X75675451Y-82456925D01*
X75685475Y-82469260D01*
X75696452Y-82482891D01*
X75707403Y-82496601D01*
X75717351Y-82509173D01*
X75725316Y-82519389D01*
X75728540Y-82523618D01*
X75737407Y-82535421D01*
X75713431Y-82568644D01*
X75704484Y-82581175D01*
X75697054Y-82591838D01*
X75691833Y-82599621D01*
X75689511Y-82603511D01*
X75689455Y-82603717D01*
X75687504Y-82607229D01*
X75682362Y-82614079D01*
X75675092Y-82622972D01*
X75666759Y-82632611D01*
X75658427Y-82641698D01*
X75657462Y-82642706D01*
X75651770Y-82648779D01*
X75642871Y-82658467D01*
X75631749Y-82670688D01*
X75619390Y-82684362D01*
X75611765Y-82692842D01*
X75560262Y-82747602D01*
X75509035Y-82796663D01*
X75457457Y-82840556D01*
X75404901Y-82879809D01*
X75350741Y-82914955D01*
X75344893Y-82918453D01*
X75331699Y-82926407D01*
X75320544Y-82933362D01*
X75312516Y-82938623D01*
X75308702Y-82941494D01*
X75308578Y-82941649D01*
X75304649Y-82944556D01*
X75295923Y-82949297D01*
X75283456Y-82955400D01*
X75268306Y-82962392D01*
X75251531Y-82969800D01*
X75234187Y-82977153D01*
X75217332Y-82983977D01*
X75202024Y-82989800D01*
X75196149Y-82991890D01*
X75147801Y-83007049D01*
X75101900Y-83017992D01*
X75056529Y-83025038D01*
X75009773Y-83028508D01*
X74974210Y-83028972D01*
X74956185Y-83028742D01*
X74939724Y-83028414D01*
X74926149Y-83028025D01*
X74916781Y-83027608D01*
X74913798Y-83027368D01*
X74890705Y-83023989D01*
X74864491Y-83019172D01*
X74837999Y-83013487D01*
X74814071Y-83007505D01*
X74811787Y-83006873D01*
X74791800Y-83000734D01*
X74769828Y-82993061D01*
X74747033Y-82984349D01*
X74724573Y-82975092D01*
X74703609Y-82965783D01*
X74685302Y-82956918D01*
X74670811Y-82948989D01*
X74662064Y-82943120D01*
X74657206Y-82939619D01*
X74648220Y-82933476D01*
X74636260Y-82925469D01*
X74622482Y-82916375D01*
X74618010Y-82913449D01*
X74586756Y-82892073D01*
X74555285Y-82868748D01*
X74524699Y-82844390D01*
X74496097Y-82819916D01*
X74470579Y-82796243D01*
X74449246Y-82774287D01*
X74444201Y-82768605D01*
X74434105Y-82757079D01*
X74421687Y-82743072D01*
X74408870Y-82728748D01*
X74401939Y-82721069D01*
X74387648Y-82704890D01*
X74372131Y-82686629D01*
X74356303Y-82667426D01*
X74341077Y-82648423D01*
X74327370Y-82630759D01*
X74316094Y-82615576D01*
X74308568Y-82604642D01*
X74299910Y-82591616D01*
X74290348Y-82577922D01*
X74280924Y-82564984D01*
X74272677Y-82554226D01*
X74266651Y-82547073D01*
X74265921Y-82546317D01*
X74261377Y-82539069D01*
X74261763Y-82535999D01*
X74393073Y-82535999D01*
X74412715Y-82560998D01*
X74422546Y-82573663D01*
X74432232Y-82586396D01*
X74440229Y-82597160D01*
X74442872Y-82600826D01*
X74457261Y-82619571D01*
X74475737Y-82641248D01*
X74497393Y-82664960D01*
X74521319Y-82689813D01*
X74546606Y-82714911D01*
X74572346Y-82739359D01*
X74597631Y-82762261D01*
X74621551Y-82782723D01*
X74643198Y-82799848D01*
X74649729Y-82804644D01*
X74661118Y-82812768D01*
X74670453Y-82819335D01*
X74676659Y-82823596D01*
X74678671Y-82824846D01*
X74677292Y-82822632D01*
X74672849Y-82816715D01*
X74666238Y-82808283D01*
X74664817Y-82806503D01*
X74644322Y-82777619D01*
X74625022Y-82744165D01*
X74607709Y-82707851D01*
X74593179Y-82670387D01*
X74582223Y-82633482D01*
X74579913Y-82623522D01*
X74577132Y-82605918D01*
X74575177Y-82583667D01*
X74574046Y-82558357D01*
X74573743Y-82531580D01*
X74574266Y-82504926D01*
X74575617Y-82479987D01*
X74577796Y-82458352D01*
X74579839Y-82445905D01*
X74589861Y-82407252D01*
X74603931Y-82368250D01*
X74613948Y-82346614D01*
X74686086Y-82346614D01*
X74712622Y-82392149D01*
X74721418Y-82407345D01*
X74728982Y-82420606D01*
X74734791Y-82431000D01*
X74738320Y-82437592D01*
X74739157Y-82439473D01*
X74740676Y-82442544D01*
X74744973Y-82450368D01*
X74751660Y-82462262D01*
X74760349Y-82477539D01*
X74770652Y-82495517D01*
X74782180Y-82515509D01*
X74786357Y-82522725D01*
X74798215Y-82543242D01*
X74808982Y-82561970D01*
X74818269Y-82578226D01*
X74825688Y-82591327D01*
X74830852Y-82600590D01*
X74833372Y-82605332D01*
X74833558Y-82605796D01*
X74835072Y-82608828D01*
X74839350Y-82616604D01*
X74845996Y-82628425D01*
X74854615Y-82643591D01*
X74864811Y-82661403D01*
X74876187Y-82681163D01*
X74878679Y-82685477D01*
X74890537Y-82706045D01*
X74901558Y-82725252D01*
X74911288Y-82742304D01*
X74919276Y-82756406D01*
X74925071Y-82766765D01*
X74928222Y-82772584D01*
X74928425Y-82772989D01*
X74931603Y-82778998D01*
X74937070Y-82788836D01*
X74944277Y-82801560D01*
X74952677Y-82816228D01*
X74961721Y-82831895D01*
X74970862Y-82847620D01*
X74979551Y-82862458D01*
X74987240Y-82875466D01*
X74993382Y-82885701D01*
X74997428Y-82892221D01*
X74998813Y-82894136D01*
X75000607Y-82891529D01*
X75005052Y-82884226D01*
X75011690Y-82873003D01*
X75020064Y-82858635D01*
X75029718Y-82841900D01*
X75034712Y-82833184D01*
X75044790Y-82815483D01*
X75053725Y-82799648D01*
X75056706Y-82794304D01*
X75339464Y-82794304D01*
X75351618Y-82785381D01*
X75359980Y-82778904D01*
X75366753Y-82773078D01*
X75368493Y-82771356D01*
X75372593Y-82767561D01*
X75380549Y-82760708D01*
X75391314Y-82751681D01*
X75403841Y-82741366D01*
X75407455Y-82738422D01*
X75437562Y-82713060D01*
X75466222Y-82686959D01*
X75494297Y-82659223D01*
X75522650Y-82628956D01*
X75552144Y-82595262D01*
X75583640Y-82557245D01*
X75592996Y-82545627D01*
X75596480Y-82540711D01*
X75596738Y-82536816D01*
X75593491Y-82531473D01*
X75591045Y-82528241D01*
X75581697Y-82516615D01*
X75568871Y-82501484D01*
X75553479Y-82483853D01*
X75536432Y-82464728D01*
X75518642Y-82445113D01*
X75501020Y-82426014D01*
X75484478Y-82408435D01*
X75469928Y-82393382D01*
X75458362Y-82381939D01*
X75446528Y-82370945D01*
X75432919Y-82358766D01*
X75418315Y-82346049D01*
X75403499Y-82333443D01*
X75389253Y-82321595D01*
X75376359Y-82311153D01*
X75365597Y-82302765D01*
X75357750Y-82297080D01*
X75353601Y-82294744D01*
X75353203Y-82294783D01*
X75354054Y-82297802D01*
X75357620Y-82303734D01*
X75358318Y-82304739D01*
X75369131Y-82322369D01*
X75380242Y-82344618D01*
X75391013Y-82369880D01*
X75400804Y-82396551D01*
X75408977Y-82423027D01*
X75414531Y-82445905D01*
X75417297Y-82464240D01*
X75419234Y-82487006D01*
X75420343Y-82512611D01*
X75420624Y-82539465D01*
X75420079Y-82565978D01*
X75418707Y-82590558D01*
X75416510Y-82611616D01*
X75414457Y-82623522D01*
X75404111Y-82661495D01*
X75389447Y-82701080D01*
X75371313Y-82740294D01*
X75350556Y-82777154D01*
X75345086Y-82785723D01*
X75339464Y-82794304D01*
X75056706Y-82794304D01*
X75061071Y-82786481D01*
X75066382Y-82776785D01*
X75069212Y-82771361D01*
X75069559Y-82770512D01*
X75071067Y-82767455D01*
X75075334Y-82759628D01*
X75081978Y-82747716D01*
X75090613Y-82732401D01*
X75100856Y-82714367D01*
X75112322Y-82694297D01*
X75116759Y-82686559D01*
X75128575Y-82665925D01*
X75139309Y-82647089D01*
X75148578Y-82630732D01*
X75155996Y-82617535D01*
X75161181Y-82608178D01*
X75163749Y-82603342D01*
X75163959Y-82602836D01*
X75165457Y-82599822D01*
X75169686Y-82592058D01*
X75176249Y-82580253D01*
X75184749Y-82565117D01*
X75194789Y-82547360D01*
X75205971Y-82527692D01*
X75207441Y-82525113D01*
X75219183Y-82504476D01*
X75230235Y-82484956D01*
X75240110Y-82467417D01*
X75248323Y-82452727D01*
X75254388Y-82441751D01*
X75257818Y-82435355D01*
X75257850Y-82435293D01*
X75262128Y-82427252D01*
X75268677Y-82415361D01*
X75276612Y-82401214D01*
X75285045Y-82386404D01*
X75285168Y-82386190D01*
X75292784Y-82372779D01*
X75299106Y-82361363D01*
X75303546Y-82353028D01*
X75305514Y-82348862D01*
X75305560Y-82348645D01*
X75302484Y-82348359D01*
X75293539Y-82348085D01*
X75279150Y-82347826D01*
X75259742Y-82347585D01*
X75235739Y-82347364D01*
X75207566Y-82347166D01*
X75175647Y-82346994D01*
X75140407Y-82346850D01*
X75102270Y-82346738D01*
X75061662Y-82346660D01*
X75019007Y-82346620D01*
X74995823Y-82346614D01*
X74686086Y-82346614D01*
X74613948Y-82346614D01*
X74621174Y-82331005D01*
X74640718Y-82297623D01*
X74642454Y-82295035D01*
X74647762Y-82287105D01*
X74650703Y-82282087D01*
X74650817Y-82280130D01*
X74647641Y-82281383D01*
X74640715Y-82285995D01*
X74629576Y-82294115D01*
X74617555Y-82303063D01*
X74573120Y-82338855D01*
X74528262Y-82380120D01*
X74483690Y-82426137D01*
X74440112Y-82476188D01*
X74410843Y-82512894D01*
X74393073Y-82535999D01*
X74261763Y-82535999D01*
X74262182Y-82532663D01*
X74264873Y-82530064D01*
G37*
G36*
X75423710Y-83796959D02*
G01*
X75435274Y-83759372D01*
X75450995Y-83724901D01*
X75461294Y-83707800D01*
X75478460Y-83685650D01*
X75499420Y-83664502D01*
X75522601Y-83645670D01*
X75546430Y-83630466D01*
X75563860Y-83622203D01*
X75572390Y-83618521D01*
X75578151Y-83615438D01*
X75579321Y-83614469D01*
X75582947Y-83612421D01*
X75590817Y-83609351D01*
X75599774Y-83606385D01*
X75612753Y-83603654D01*
X75630442Y-83601696D01*
X75651307Y-83600513D01*
X75673813Y-83600107D01*
X75696425Y-83600480D01*
X75717607Y-83601634D01*
X75735824Y-83603572D01*
X75749121Y-83606178D01*
X75759684Y-83609373D01*
X75767622Y-83612296D01*
X75771148Y-83614261D01*
X75774868Y-83616784D01*
X75782393Y-83620389D01*
X75787002Y-83622294D01*
X75819155Y-83638218D01*
X75848025Y-83659228D01*
X75873394Y-83684915D01*
X75895043Y-83714868D01*
X75912756Y-83748678D01*
X75926315Y-83785935D01*
X75935501Y-83826228D01*
X75940098Y-83869149D01*
X75940090Y-83910514D01*
X75935615Y-83954212D01*
X75926549Y-83994019D01*
X75912617Y-84030626D01*
X75893543Y-84064723D01*
X75869052Y-84096999D01*
X75862832Y-84104010D01*
X75836387Y-84128881D01*
X75806760Y-84148717D01*
X75773359Y-84163869D01*
X75747668Y-84171809D01*
X75729858Y-84175296D01*
X75707955Y-84177896D01*
X75684090Y-84179504D01*
X75660394Y-84180015D01*
X75638997Y-84179326D01*
X75624948Y-84177836D01*
X75589891Y-84170039D01*
X75558389Y-84158012D01*
X75529820Y-84141333D01*
X75503564Y-84119578D01*
X75479000Y-84092325D01*
X75459537Y-84065357D01*
X75441873Y-84033281D01*
X75428400Y-83997489D01*
X75419111Y-83958958D01*
X75414003Y-83918663D01*
X75413070Y-83877581D01*
X75413087Y-83877368D01*
X75585614Y-83877368D01*
X75586686Y-83919765D01*
X75589945Y-83956443D01*
X75595451Y-83987605D01*
X75603269Y-84013457D01*
X75613460Y-84034203D01*
X75626086Y-84050048D01*
X75641211Y-84061196D01*
X75641790Y-84061506D01*
X75655170Y-84065987D01*
X75671910Y-84067917D01*
X75689622Y-84067308D01*
X75705921Y-84064173D01*
X75713901Y-84061145D01*
X75728985Y-84050435D01*
X75741906Y-84034177D01*
X75752441Y-84012809D01*
X75760366Y-83986771D01*
X75764939Y-83960861D01*
X75767173Y-83936088D01*
X75768135Y-83908432D01*
X75767905Y-83879279D01*
X75766561Y-83850012D01*
X75764183Y-83822017D01*
X75760851Y-83796679D01*
X75756642Y-83775381D01*
X75753759Y-83765207D01*
X75745014Y-83746147D01*
X75732859Y-83730145D01*
X75718465Y-83718710D01*
X75717030Y-83717920D01*
X75701890Y-83712650D01*
X75683550Y-83710368D01*
X75664346Y-83711071D01*
X75646616Y-83714756D01*
X75638423Y-83718011D01*
X75623010Y-83728727D01*
X75610321Y-83744432D01*
X75600308Y-83765274D01*
X75592922Y-83791403D01*
X75588112Y-83822967D01*
X75585830Y-83860113D01*
X75585614Y-83877368D01*
X75413087Y-83877368D01*
X75416307Y-83836688D01*
X75423710Y-83796959D01*
G37*
G36*
X74500010Y-84168542D02*
G01*
X74336382Y-84168542D01*
X74336382Y-83608433D01*
X74500010Y-83608433D01*
X74500010Y-84168542D01*
G37*
G36*
X77693890Y-83564379D02*
G01*
X77530262Y-83564379D01*
X77530262Y-83397605D01*
X77693890Y-83397605D01*
X77693890Y-83564379D01*
G37*
G36*
X74500010Y-83564379D02*
G01*
X74336382Y-83564379D01*
X74336382Y-83397605D01*
X74500010Y-83397605D01*
X74500010Y-83564379D01*
G37*
G36*
X72350827Y-83608433D02*
G01*
X72476694Y-83608433D01*
X72476694Y-83668219D01*
X72350603Y-83668219D01*
X72351502Y-83865674D01*
X72352401Y-84063128D01*
X72359878Y-84079671D01*
X72369258Y-84095094D01*
X72382090Y-84108956D01*
X72396740Y-84119822D01*
X72411571Y-84126260D01*
X72413578Y-84126729D01*
X72425003Y-84128163D01*
X72440595Y-84128913D01*
X72458265Y-84128978D01*
X72475925Y-84128353D01*
X72491485Y-84127038D01*
X72493215Y-84126821D01*
X72511308Y-84124433D01*
X72511308Y-84180315D01*
X72490068Y-84182250D01*
X72467343Y-84184110D01*
X72446883Y-84185379D01*
X72429793Y-84186010D01*
X72417177Y-84185955D01*
X72412188Y-84185570D01*
X72380354Y-84179254D01*
X72353730Y-84169529D01*
X72332201Y-84156345D01*
X72319626Y-84144497D01*
X72310055Y-84130807D01*
X72300950Y-84112683D01*
X72293066Y-84091978D01*
X72287155Y-84070545D01*
X72285057Y-84059378D01*
X72284229Y-84050516D01*
X72283508Y-84035587D01*
X72282896Y-84014817D01*
X72282398Y-83988433D01*
X72282017Y-83956660D01*
X72281756Y-83919724D01*
X72281620Y-83877852D01*
X72281600Y-83852484D01*
X72281600Y-83668219D01*
X72171467Y-83668219D01*
X72171467Y-83608433D01*
X72278454Y-83608433D01*
X72278454Y-83473865D01*
X72302840Y-83471820D01*
X72316467Y-83470577D01*
X72329282Y-83469240D01*
X72338633Y-83468085D01*
X72339027Y-83468027D01*
X72350827Y-83466279D01*
X72350827Y-83608433D01*
G37*
G36*
X77693890Y-84168542D02*
G01*
X77530262Y-84168542D01*
X77530262Y-83608433D01*
X77693890Y-83608433D01*
X77693890Y-84168542D01*
G37*
G36*
X73835921Y-83608094D02*
G01*
X73858691Y-83608259D01*
X73880078Y-83608580D01*
X73899236Y-83609058D01*
X73915316Y-83609692D01*
X73927472Y-83610483D01*
X73934854Y-83611431D01*
X73936754Y-83612293D01*
X73937631Y-83616207D01*
X73940107Y-83625336D01*
X73943951Y-83638877D01*
X73948930Y-83656023D01*
X73954813Y-83675971D01*
X73961369Y-83697915D01*
X73962353Y-83701187D01*
X73970855Y-83729448D01*
X73980451Y-83761378D01*
X73990488Y-83794803D01*
X74000314Y-83827549D01*
X74009275Y-83857441D01*
X74012919Y-83869607D01*
X74020649Y-83895431D01*
X74026758Y-83915823D01*
X74031439Y-83931376D01*
X74034884Y-83942686D01*
X74037283Y-83950344D01*
X74038831Y-83954947D01*
X74039717Y-83957087D01*
X74040136Y-83957360D01*
X74040278Y-83956359D01*
X74040335Y-83954677D01*
X74040346Y-83954455D01*
X74041309Y-83950253D01*
X74043896Y-83940886D01*
X74047860Y-83927195D01*
X74052954Y-83910023D01*
X74058930Y-83890214D01*
X74065269Y-83869495D01*
X74073225Y-83843659D01*
X74082442Y-83813732D01*
X74092327Y-83781636D01*
X74102289Y-83749295D01*
X74111734Y-83718632D01*
X74117812Y-83698900D01*
X74145681Y-83608433D01*
X74207992Y-83608433D01*
X74229265Y-83608462D01*
X74245057Y-83608602D01*
X74256183Y-83608933D01*
X74263455Y-83609532D01*
X74267686Y-83610478D01*
X74269690Y-83611850D01*
X74270279Y-83613727D01*
X74270302Y-83614464D01*
X74268890Y-83619969D01*
X74267168Y-83621544D01*
X74265769Y-83624586D01*
X74262546Y-83633085D01*
X74257673Y-83646532D01*
X74251325Y-83664416D01*
X74243675Y-83686226D01*
X74234898Y-83711453D01*
X74225168Y-83739586D01*
X74214660Y-83770115D01*
X74203548Y-83802530D01*
X74192005Y-83836321D01*
X74180206Y-83870976D01*
X74168326Y-83905987D01*
X74156539Y-83940843D01*
X74145019Y-83975033D01*
X74133939Y-84008047D01*
X74123476Y-84039376D01*
X74113802Y-84068508D01*
X74105092Y-84094934D01*
X74097520Y-84118144D01*
X74096719Y-84120618D01*
X74081178Y-84168668D01*
X73951200Y-84166968D01*
X73942540Y-84140221D01*
X73940279Y-84133363D01*
X73936198Y-84121125D01*
X73930494Y-84104091D01*
X73923365Y-84082843D01*
X73915006Y-84057965D01*
X73905613Y-84030038D01*
X73895385Y-83999645D01*
X73884516Y-83967370D01*
X73873203Y-83933794D01*
X73861643Y-83899501D01*
X73850033Y-83865074D01*
X73838568Y-83831094D01*
X73827446Y-83798146D01*
X73816862Y-83766810D01*
X73807014Y-83737671D01*
X73798097Y-83711312D01*
X73790308Y-83688313D01*
X73783844Y-83669260D01*
X73778901Y-83654733D01*
X73775676Y-83645316D01*
X73775504Y-83644818D01*
X73771716Y-83634995D01*
X73768517Y-83628740D01*
X73766494Y-83627160D01*
X73766279Y-83627512D01*
X73761827Y-83639592D01*
X73755421Y-83657105D01*
X73747238Y-83679560D01*
X73737456Y-83706469D01*
X73726251Y-83737341D01*
X73713802Y-83771688D01*
X73700284Y-83809020D01*
X73685877Y-83848848D01*
X73670756Y-83890681D01*
X73655099Y-83934032D01*
X73639083Y-83978409D01*
X73622886Y-84023325D01*
X73617614Y-84037954D01*
X73601354Y-84083012D01*
X73587020Y-84122554D01*
X73574435Y-84156996D01*
X73563420Y-84186754D01*
X73553799Y-84212244D01*
X73545394Y-84233882D01*
X73538029Y-84252084D01*
X73531526Y-84267266D01*
X73525707Y-84279844D01*
X73520397Y-84290234D01*
X73515416Y-84298852D01*
X73510589Y-84306113D01*
X73505738Y-84312434D01*
X73500686Y-84318231D01*
X73496184Y-84322971D01*
X73474381Y-84341437D01*
X73449963Y-84354505D01*
X73424258Y-84362250D01*
X73408139Y-84364765D01*
X73390363Y-84366118D01*
X73373470Y-84366209D01*
X73360001Y-84364938D01*
X73359338Y-84364813D01*
X73352687Y-84363487D01*
X73342681Y-84361475D01*
X73336525Y-84360232D01*
X73320005Y-84356891D01*
X73320005Y-84297995D01*
X73329798Y-84300803D01*
X73354084Y-84305966D01*
X73378100Y-84307755D01*
X73400506Y-84306251D01*
X73419960Y-84301532D01*
X73433805Y-84294625D01*
X73448352Y-84281502D01*
X73462887Y-84262355D01*
X73477249Y-84237449D01*
X73491275Y-84207051D01*
X73499184Y-84187031D01*
X73509342Y-84159894D01*
X73496778Y-84120951D01*
X73492641Y-84108286D01*
X73486833Y-84090738D01*
X73479714Y-84069378D01*
X73471643Y-84045280D01*
X73462979Y-84019516D01*
X73454080Y-83993161D01*
X73449534Y-83979741D01*
X73440419Y-83952859D01*
X73429769Y-83921448D01*
X73418070Y-83886941D01*
X73405808Y-83850768D01*
X73393467Y-83814362D01*
X73381533Y-83779155D01*
X73370596Y-83746886D01*
X73361332Y-83719467D01*
X73352725Y-83693827D01*
X73344982Y-83670591D01*
X73338308Y-83650387D01*
X73332909Y-83633841D01*
X73328992Y-83621580D01*
X73326764Y-83614229D01*
X73326318Y-83612366D01*
X73328102Y-83610541D01*
X73333958Y-83609342D01*
X73344612Y-83608689D01*
X73360789Y-83608503D01*
X73361698Y-83608505D01*
X73397098Y-83608577D01*
X73470881Y-83834881D01*
X73544665Y-84061185D01*
X73564758Y-84005516D01*
X73577283Y-83970795D01*
X73590138Y-83935125D01*
X73603143Y-83899005D01*
X73616119Y-83862936D01*
X73628887Y-83827416D01*
X73641268Y-83792944D01*
X73653083Y-83760021D01*
X73664154Y-83729144D01*
X73674300Y-83700815D01*
X73683343Y-83675531D01*
X73691103Y-83653793D01*
X73697403Y-83636099D01*
X73702062Y-83622950D01*
X73704902Y-83614843D01*
X73705732Y-83612366D01*
X73709041Y-83611291D01*
X73717750Y-83610370D01*
X73731011Y-83609603D01*
X73747975Y-83608991D01*
X73767796Y-83608534D01*
X73789626Y-83608232D01*
X73812617Y-83608085D01*
X73835921Y-83608094D01*
G37*
X68593975Y-135705213D02*
X68593975Y-136605213D01*
X68593975Y-135748071D02*
X68679689Y-135705213D01*
X68851118Y-135705213D01*
X68936832Y-135748071D01*
X68979689Y-135790928D01*
X69022546Y-135876642D01*
X69022546Y-136133785D01*
X68979689Y-136219499D01*
X68936832Y-136262356D01*
X68851118Y-136305213D01*
X68679689Y-136305213D01*
X68593975Y-136262356D01*
X69408260Y-136305213D02*
X69408260Y-135705213D01*
X69408260Y-135405213D02*
X69365403Y-135448071D01*
X69408260Y-135490928D01*
X69451118Y-135448071D01*
X69408260Y-135405213D01*
X69408260Y-135490928D01*
X70222546Y-136262356D02*
X70136832Y-136305213D01*
X69965403Y-136305213D01*
X69879689Y-136262356D01*
X69836832Y-136219499D01*
X69793975Y-136133785D01*
X69793975Y-135876642D01*
X69836832Y-135790928D01*
X69879689Y-135748071D01*
X69965403Y-135705213D01*
X70136832Y-135705213D01*
X70222546Y-135748071D01*
X70736832Y-136305213D02*
X70651118Y-136262356D01*
X70608260Y-136219499D01*
X70565403Y-136133785D01*
X70565403Y-135876642D01*
X70608260Y-135790928D01*
X70651118Y-135748071D01*
X70736832Y-135705213D01*
X70865403Y-135705213D01*
X70951118Y-135748071D01*
X70993975Y-135790928D01*
X71036832Y-135876642D01*
X71036832Y-136133785D01*
X70993975Y-136219499D01*
X70951118Y-136262356D01*
X70865403Y-136305213D01*
X70736832Y-136305213D01*
X71422546Y-135962356D02*
X72108260Y-135962356D01*
X72536832Y-136305213D02*
X72536832Y-135705213D01*
X72536832Y-135405213D02*
X72493975Y-135448071D01*
X72536832Y-135490928D01*
X72579689Y-135448071D01*
X72536832Y-135405213D01*
X72536832Y-135490928D01*
X73351118Y-136262356D02*
X73265403Y-136305213D01*
X73093975Y-136305213D01*
X73008260Y-136262356D01*
X72965403Y-136219499D01*
X72922546Y-136133785D01*
X72922546Y-135876642D01*
X72965403Y-135790928D01*
X73008260Y-135748071D01*
X73093975Y-135705213D01*
X73265403Y-135705213D01*
X73351118Y-135748071D01*
X74079689Y-136262356D02*
X73993975Y-136305213D01*
X73822546Y-136305213D01*
X73736832Y-136262356D01*
X73693975Y-136176642D01*
X73693975Y-135833785D01*
X73736832Y-135748071D01*
X73822546Y-135705213D01*
X73993975Y-135705213D01*
X74079689Y-135748071D01*
X74122546Y-135833785D01*
X74122546Y-135919499D01*
X73693975Y-136005213D01*
X75108260Y-135705213D02*
X75322546Y-136305213D01*
X75536832Y-135705213D01*
X76351118Y-136305213D02*
X75836832Y-136305213D01*
X76093975Y-136305213D02*
X76093975Y-135405213D01*
X76008260Y-135533785D01*
X75922546Y-135619499D01*
X75836832Y-135662356D01*
G36*
X76367338Y-83600759D02*
G01*
X76382655Y-83601406D01*
X76394436Y-83602642D01*
X76404055Y-83604594D01*
X76410044Y-83606389D01*
X76419669Y-83609894D01*
X76426606Y-83612919D01*
X76428924Y-83614407D01*
X76432355Y-83617116D01*
X76439427Y-83621665D01*
X76444839Y-83624881D01*
X76465105Y-83640120D01*
X76482484Y-83660494D01*
X76496552Y-83685344D01*
X76506883Y-83714015D01*
X76509605Y-83725145D01*
X76510637Y-83730713D01*
X76511537Y-83737537D01*
X76512320Y-83746097D01*
X76512998Y-83756868D01*
X76513586Y-83770328D01*
X76514095Y-83786956D01*
X76514540Y-83807228D01*
X76514935Y-83831623D01*
X76515291Y-83860617D01*
X76515623Y-83894688D01*
X76515944Y-83934314D01*
X76516119Y-83958501D01*
X76517597Y-84168542D01*
X76353404Y-84168542D01*
X76353380Y-83997834D01*
X76353325Y-83954671D01*
X76353158Y-83917334D01*
X76352857Y-83885359D01*
X76352399Y-83858278D01*
X76351762Y-83835628D01*
X76350923Y-83816941D01*
X76349860Y-83801752D01*
X76348551Y-83789596D01*
X76346973Y-83780005D01*
X76345104Y-83772515D01*
X76342921Y-83766661D01*
X76342185Y-83765121D01*
X76330567Y-83748437D01*
X76315465Y-83736751D01*
X76297648Y-83730430D01*
X76277884Y-83729844D01*
X76270963Y-83730994D01*
X76253127Y-83736503D01*
X76238821Y-83745083D01*
X76227143Y-83757613D01*
X76217192Y-83774976D01*
X76211183Y-83789371D01*
X76209675Y-83793488D01*
X76208392Y-83797546D01*
X76207316Y-83802076D01*
X76206422Y-83807609D01*
X76205690Y-83814678D01*
X76205099Y-83823812D01*
X76204626Y-83835545D01*
X76204249Y-83850406D01*
X76203948Y-83868927D01*
X76203701Y-83891640D01*
X76203485Y-83919076D01*
X76203279Y-83951766D01*
X76203073Y-83988394D01*
X76202075Y-84168542D01*
X76038736Y-84168542D01*
X76038736Y-83608433D01*
X76189604Y-83608433D01*
X76190477Y-83653138D01*
X76191350Y-83697844D01*
X76205098Y-83676730D01*
X76212087Y-83667086D01*
X76221072Y-83656207D01*
X76231008Y-83645179D01*
X76240851Y-83635089D01*
X76249556Y-83627021D01*
X76256079Y-83622062D01*
X76258702Y-83621019D01*
X76262624Y-83619147D01*
X76268458Y-83614714D01*
X76276199Y-83609397D01*
X76286029Y-83605501D01*
X76298901Y-83602855D01*
X76315769Y-83601286D01*
X76337587Y-83600624D01*
X76347111Y-83600575D01*
X76367338Y-83600759D01*
G37*
G36*
X72671789Y-83498299D02*
G01*
X72593122Y-83498299D01*
X72593122Y-83413338D01*
X72671789Y-83413338D01*
X72671789Y-83498299D01*
G37*
G36*
X75315000Y-83564379D02*
G01*
X75151372Y-83564379D01*
X75151372Y-83397605D01*
X75315000Y-83397605D01*
X75315000Y-83564379D01*
G37*
G36*
X76806526Y-84168542D02*
G01*
X76636605Y-84168542D01*
X76636605Y-83995474D01*
X76806526Y-83995474D01*
X76806526Y-84168542D01*
G37*
G36*
X76905236Y-83965581D02*
G01*
X76913934Y-83942549D01*
X76924408Y-83923648D01*
X76938015Y-83906727D01*
X76949372Y-83895598D01*
X76966875Y-83881380D01*
X76986374Y-83869092D01*
X77008486Y-83858542D01*
X77033833Y-83849537D01*
X77063034Y-83841885D01*
X77096709Y-83835393D01*
X77135477Y-83829869D01*
X77174688Y-83825618D01*
X77190653Y-83824056D01*
X77205702Y-83822528D01*
X77217912Y-83821234D01*
X77224248Y-83820511D01*
X77237621Y-83818874D01*
X77237621Y-83796038D01*
X77235724Y-83770352D01*
X77229937Y-83749483D01*
X77220117Y-83733196D01*
X77206124Y-83721251D01*
X77188201Y-83713523D01*
X77165609Y-83709638D01*
X77142880Y-83710591D01*
X77121373Y-83716046D01*
X77102449Y-83725667D01*
X77088239Y-83738200D01*
X77080278Y-83749637D01*
X77073509Y-83763166D01*
X77068989Y-83776368D01*
X77067700Y-83785207D01*
X77065721Y-83789636D01*
X77059047Y-83790956D01*
X77050174Y-83790650D01*
X77038009Y-83789807D01*
X77023881Y-83788568D01*
X77009119Y-83787078D01*
X76995049Y-83785482D01*
X76983001Y-83783922D01*
X76974302Y-83782542D01*
X76970280Y-83781487D01*
X76970153Y-83781326D01*
X76967246Y-83780148D01*
X76959457Y-83778801D01*
X76948188Y-83777502D01*
X76941833Y-83776950D01*
X76927731Y-83775786D01*
X76918995Y-83774179D01*
X76914740Y-83770949D01*
X76914082Y-83764914D01*
X76916138Y-83754893D01*
X76918488Y-83745767D01*
X76929305Y-83714850D01*
X76944900Y-83687860D01*
X76965406Y-83664656D01*
X76990957Y-83645092D01*
X77021688Y-83629027D01*
X77030874Y-83625276D01*
X77041854Y-83620869D01*
X77050363Y-83617159D01*
X77054841Y-83614831D01*
X77055114Y-83614595D01*
X77058702Y-83613082D01*
X77066937Y-83610680D01*
X77078307Y-83607815D01*
X77083434Y-83606625D01*
X77101051Y-83603702D01*
X77123229Y-83601641D01*
X77148367Y-83600443D01*
X77174864Y-83600108D01*
X77201119Y-83600638D01*
X77225529Y-83602033D01*
X77246495Y-83604294D01*
X77258861Y-83606528D01*
X77270641Y-83609528D01*
X77279630Y-83612379D01*
X77284406Y-83614607D01*
X77284821Y-83615181D01*
X77287350Y-83617623D01*
X77289177Y-83617873D01*
X77293799Y-83619216D01*
X77302470Y-83622808D01*
X77313657Y-83627993D01*
X77319052Y-83630645D01*
X77341887Y-83644224D01*
X77361402Y-83660138D01*
X77376444Y-83677358D01*
X77382571Y-83687356D01*
X77385729Y-83693602D01*
X77388457Y-83699527D01*
X77390792Y-83705630D01*
X77392769Y-83712411D01*
X77394427Y-83720367D01*
X77395801Y-83729999D01*
X77396928Y-83741803D01*
X77397846Y-83756280D01*
X77398591Y-83773928D01*
X77399199Y-83795246D01*
X77399709Y-83820732D01*
X77400156Y-83850885D01*
X77400577Y-83886204D01*
X77401009Y-83927188D01*
X77401128Y-83938834D01*
X77401636Y-83984677D01*
X77402168Y-84024462D01*
X77402730Y-84058427D01*
X77403330Y-84086807D01*
X77403973Y-84109839D01*
X77404666Y-84127758D01*
X77405415Y-84140802D01*
X77406227Y-84149205D01*
X77406940Y-84152787D01*
X77409411Y-84160626D01*
X77410653Y-84165733D01*
X77410689Y-84166161D01*
X77407681Y-84166807D01*
X77399217Y-84167386D01*
X77386131Y-84167874D01*
X77369259Y-84168245D01*
X77349438Y-84168476D01*
X77330773Y-84168542D01*
X77250858Y-84168542D01*
X77247391Y-84142581D01*
X77245623Y-84128416D01*
X77244134Y-84114814D01*
X77243208Y-84104403D01*
X77243133Y-84103235D01*
X77242341Y-84089849D01*
X77220893Y-84115238D01*
X77199922Y-84137378D01*
X77178400Y-84154264D01*
X77155201Y-84166423D01*
X77129199Y-84174380D01*
X77099269Y-84178664D01*
X77083434Y-84179561D01*
X77066856Y-84179824D01*
X77050624Y-84179552D01*
X77036916Y-84178809D01*
X77029785Y-84178011D01*
X77010501Y-84173615D01*
X76990155Y-84166812D01*
X76971608Y-84158639D01*
X76962958Y-84153777D01*
X76953593Y-84147271D01*
X76943890Y-84139546D01*
X76935185Y-84131797D01*
X76928815Y-84125221D01*
X76926117Y-84121012D01*
X76926100Y-84120808D01*
X76924453Y-84116607D01*
X76920305Y-84109492D01*
X76918150Y-84106228D01*
X76907891Y-84086398D01*
X76900910Y-84062576D01*
X76897343Y-84036222D01*
X76897323Y-84008793D01*
X76898401Y-84000830D01*
X77071914Y-84000830D01*
X77072736Y-84019046D01*
X77078105Y-84035656D01*
X77087445Y-84050010D01*
X77100176Y-84061462D01*
X77115720Y-84069362D01*
X77133499Y-84073063D01*
X77152932Y-84071917D01*
X77173443Y-84065275D01*
X77176815Y-84063644D01*
X77195692Y-84050725D01*
X77211931Y-84032922D01*
X77224719Y-84011371D01*
X77233241Y-83987212D01*
X77234083Y-83983519D01*
X77235659Y-83972793D01*
X77236874Y-83958246D01*
X77237545Y-83942350D01*
X77237621Y-83935532D01*
X77237621Y-83904220D01*
X77228593Y-83904220D01*
X77216282Y-83905139D01*
X77200004Y-83907620D01*
X77181769Y-83911250D01*
X77163585Y-83915613D01*
X77147461Y-83920296D01*
X77142711Y-83921921D01*
X77123723Y-83929603D01*
X77109357Y-83937673D01*
X77097989Y-83947287D01*
X77087992Y-83959604D01*
X77086232Y-83962170D01*
X77076220Y-83981655D01*
X77071914Y-84000830D01*
X76898401Y-84000830D01*
X76900984Y-83981749D01*
X76905236Y-83965581D01*
G37*
G36*
X75315000Y-84168542D02*
G01*
X75151372Y-84168542D01*
X75151372Y-83608433D01*
X75315000Y-83608433D01*
X75315000Y-84168542D01*
G37*
G36*
X72668642Y-84168542D02*
G01*
X72599415Y-84168542D01*
X72599415Y-83608433D01*
X72668642Y-83608433D01*
X72668642Y-84168542D01*
G37*
G36*
X73103766Y-83594233D02*
G01*
X73115477Y-83595519D01*
X73128474Y-83597954D01*
X73142106Y-83601288D01*
X73154985Y-83605081D01*
X73165723Y-83608889D01*
X73172933Y-83612269D01*
X73175257Y-83614580D01*
X73177688Y-83617350D01*
X73183989Y-83622243D01*
X73190808Y-83626889D01*
X73210425Y-83643179D01*
X73227622Y-83664833D01*
X73242004Y-83691254D01*
X73252673Y-83720140D01*
X73253785Y-83724293D01*
X73254749Y-83729073D01*
X73255576Y-83734958D01*
X73256283Y-83742426D01*
X73256881Y-83751952D01*
X73257385Y-83764015D01*
X73257809Y-83779091D01*
X73258166Y-83797657D01*
X73258470Y-83820191D01*
X73258734Y-83847170D01*
X73258974Y-83879070D01*
X73259201Y-83916370D01*
X73259401Y-83953781D01*
X73260503Y-84168542D01*
X73194622Y-84168542D01*
X73193383Y-83966367D01*
X73193128Y-83925636D01*
X73192886Y-83890687D01*
X73192640Y-83861009D01*
X73192371Y-83836089D01*
X73192060Y-83815418D01*
X73191691Y-83798483D01*
X73191243Y-83784773D01*
X73190700Y-83773777D01*
X73190042Y-83764983D01*
X73189252Y-83757880D01*
X73188311Y-83751957D01*
X73187200Y-83746702D01*
X73185903Y-83741604D01*
X73185271Y-83739291D01*
X73175713Y-83712260D01*
X73163323Y-83690747D01*
X73147790Y-83674506D01*
X73128805Y-83663289D01*
X73106058Y-83656850D01*
X73079472Y-83654939D01*
X73049364Y-83657727D01*
X73022045Y-83665786D01*
X72996725Y-83679448D01*
X72972615Y-83699043D01*
X72971325Y-83700283D01*
X72953994Y-83719373D01*
X72940177Y-83740108D01*
X72929040Y-83763990D01*
X72919751Y-83792521D01*
X72919370Y-83793911D01*
X72917973Y-83799335D01*
X72916785Y-83804879D01*
X72915787Y-83811097D01*
X72914955Y-83818546D01*
X72914270Y-83827784D01*
X72913710Y-83839366D01*
X72913253Y-83853849D01*
X72912878Y-83871790D01*
X72912565Y-83893746D01*
X72912291Y-83920272D01*
X72912035Y-83951926D01*
X72911776Y-83989263D01*
X72911751Y-83993114D01*
X72910597Y-84168542D01*
X72838563Y-84168542D01*
X72838563Y-83608433D01*
X72910936Y-83608433D01*
X72910936Y-83706955D01*
X72923583Y-83687389D01*
X72941426Y-83663109D01*
X72960907Y-83642560D01*
X72980842Y-83626988D01*
X72981259Y-83626721D01*
X72990643Y-83620553D01*
X72998203Y-83615208D01*
X73001546Y-83612514D01*
X73008125Y-83608633D01*
X73019327Y-83604448D01*
X73033526Y-83600406D01*
X73049093Y-83596952D01*
X73064404Y-83594531D01*
X73068932Y-83594052D01*
X73085488Y-83593476D01*
X73103766Y-83594233D01*
G37*
G36*
X74843378Y-83600469D02*
G01*
X74865718Y-83601498D01*
X74885130Y-83603265D01*
X74900125Y-83605770D01*
X74902777Y-83606447D01*
X74913343Y-83609659D01*
X74921270Y-83612559D01*
X74924804Y-83614490D01*
X74928190Y-83617003D01*
X74935649Y-83621459D01*
X74945641Y-83626943D01*
X74946838Y-83627575D01*
X74966582Y-83640448D01*
X74986171Y-83657692D01*
X75003860Y-83677589D01*
X75016888Y-83696639D01*
X75024739Y-83710963D01*
X75031111Y-83724200D01*
X75035535Y-83735211D01*
X75037541Y-83742858D01*
X75037132Y-83745749D01*
X75033686Y-83747119D01*
X75025340Y-83749799D01*
X75013269Y-83753454D01*
X74998650Y-83757748D01*
X74982657Y-83762349D01*
X74966465Y-83766921D01*
X74951250Y-83771130D01*
X74938187Y-83774641D01*
X74928451Y-83777120D01*
X74923218Y-83778233D01*
X74922879Y-83778262D01*
X74919793Y-83775637D01*
X74915936Y-83768870D01*
X74914065Y-83764453D01*
X74904433Y-83746796D01*
X74890379Y-83730754D01*
X74873765Y-83718301D01*
X74867503Y-83715071D01*
X74859209Y-83711689D01*
X74851137Y-83709488D01*
X74841587Y-83708227D01*
X74828859Y-83707664D01*
X74814678Y-83707553D01*
X74798227Y-83707705D01*
X74786434Y-83708321D01*
X74777669Y-83709638D01*
X74770300Y-83711895D01*
X74763237Y-83715063D01*
X74748750Y-83724875D01*
X74739651Y-83736972D01*
X74736176Y-83750600D01*
X74738560Y-83765007D01*
X74744206Y-83775680D01*
X74748451Y-83781035D01*
X74753552Y-83785489D01*
X74760291Y-83789290D01*
X74769452Y-83792683D01*
X74781816Y-83795914D01*
X74798168Y-83799230D01*
X74819290Y-83802876D01*
X74842479Y-83806559D01*
X74863580Y-83809955D01*
X74884633Y-83813557D01*
X74904043Y-83817076D01*
X74920217Y-83820225D01*
X74930459Y-83822450D01*
X74964116Y-83832789D01*
X74992605Y-83846670D01*
X75016060Y-83864241D01*
X75034613Y-83885650D01*
X75048396Y-83911046D01*
X75057543Y-83940576D01*
X75061778Y-83969110D01*
X75061809Y-84003194D01*
X75056090Y-84035781D01*
X75044969Y-84066262D01*
X75028791Y-84094025D01*
X75007903Y-84118462D01*
X74982652Y-84138963D01*
X74957186Y-84153222D01*
X74925332Y-84165137D01*
X74889359Y-84173818D01*
X74850643Y-84179094D01*
X74810561Y-84180795D01*
X74770490Y-84178752D01*
X74759916Y-84177545D01*
X74730042Y-84172414D01*
X74703346Y-84164774D01*
X74676934Y-84153770D01*
X74673201Y-84151965D01*
X74658508Y-84144127D01*
X74646102Y-84135789D01*
X74633860Y-84125363D01*
X74621928Y-84113602D01*
X74605189Y-84094329D01*
X74590808Y-84073668D01*
X74579603Y-84053024D01*
X74572389Y-84033804D01*
X74570549Y-84025254D01*
X74568648Y-84012555D01*
X74632662Y-84003960D01*
X74652294Y-84001360D01*
X74670012Y-83999082D01*
X74684792Y-83997250D01*
X74695607Y-83995993D01*
X74701434Y-83995436D01*
X74701940Y-83995420D01*
X74706697Y-83998368D01*
X74710727Y-84006156D01*
X74710801Y-84006379D01*
X74717105Y-84018615D01*
X74727421Y-84031596D01*
X74740006Y-84043516D01*
X74753117Y-84052574D01*
X74757523Y-84054740D01*
X74783019Y-84062738D01*
X74811393Y-84066515D01*
X74840787Y-84065996D01*
X74869342Y-84061103D01*
X74874805Y-84059588D01*
X74890424Y-84052865D01*
X74903599Y-84043234D01*
X74913204Y-84031828D01*
X74918116Y-84019784D01*
X74918518Y-84015468D01*
X74916887Y-84003744D01*
X74911658Y-83994054D01*
X74902332Y-83986117D01*
X74888407Y-83979652D01*
X74869381Y-83974379D01*
X74844755Y-83970015D01*
X74835131Y-83968703D01*
X74823276Y-83966961D01*
X74808799Y-83964501D01*
X74792937Y-83961575D01*
X74776927Y-83958433D01*
X74762008Y-83955326D01*
X74749416Y-83952506D01*
X74740390Y-83950223D01*
X74736166Y-83948728D01*
X74736034Y-83948605D01*
X74732403Y-83946739D01*
X74724331Y-83943965D01*
X74713496Y-83940855D01*
X74712411Y-83940570D01*
X74680423Y-83929509D01*
X74653059Y-83914199D01*
X74630270Y-83894606D01*
X74613607Y-83873248D01*
X74599785Y-83846085D01*
X74591398Y-83816889D01*
X74588341Y-83786613D01*
X74590506Y-83756207D01*
X74597788Y-83726622D01*
X74610081Y-83698809D01*
X74627278Y-83673718D01*
X74637077Y-83663084D01*
X74647414Y-83654090D01*
X74660325Y-83644601D01*
X74674430Y-83635443D01*
X74688349Y-83627439D01*
X74700701Y-83621414D01*
X74710107Y-83618192D01*
X74712775Y-83617873D01*
X74716726Y-83616244D01*
X74717131Y-83615065D01*
X74719947Y-83612996D01*
X74727392Y-83610094D01*
X74737961Y-83606930D01*
X74739944Y-83606411D01*
X74754559Y-83603744D01*
X74773701Y-83601816D01*
X74795879Y-83600628D01*
X74819601Y-83600179D01*
X74843378Y-83600469D01*
G37*
G36*
X74264873Y-82530064D02*
G01*
X74268127Y-82526584D01*
X74274008Y-82518978D01*
X74281679Y-82508374D01*
X74290174Y-82496081D01*
X74314080Y-82461496D01*
X74336494Y-82430826D01*
X74358566Y-82402702D01*
X74381441Y-82375752D01*
X74406269Y-82348606D01*
X74434198Y-82319892D01*
X74454554Y-82299740D01*
X74496620Y-82260227D01*
X74537245Y-82225605D01*
X74577584Y-82195030D01*
X74618792Y-82167659D01*
X74662022Y-82142651D01*
X74688810Y-82128729D01*
X74705044Y-82120534D01*
X74719456Y-82113121D01*
X74731038Y-82107021D01*
X74738781Y-82102762D01*
X74741518Y-82101051D01*
X74747039Y-82098113D01*
X74757543Y-82093954D01*
X74771918Y-82088920D01*
X74789052Y-82083356D01*
X74807833Y-82077609D01*
X74827150Y-82072024D01*
X74845889Y-82066946D01*
X74862939Y-82062721D01*
X74869744Y-82061194D01*
X74882556Y-82058501D01*
X74893563Y-82056424D01*
X74903870Y-82054888D01*
X74914582Y-82053815D01*
X74926805Y-82053127D01*
X74941644Y-82052748D01*
X74960204Y-82052601D01*
X74983591Y-82052608D01*
X74992465Y-82052630D01*
X75017898Y-82052740D01*
X75038159Y-82052964D01*
X75054369Y-82053381D01*
X75067649Y-82054072D01*
X75079119Y-82055118D01*
X75089901Y-82056599D01*
X75101117Y-82058596D01*
X75113886Y-82061189D01*
X75115025Y-82061429D01*
X75130753Y-82065051D01*
X75148468Y-82069646D01*
X75167109Y-82074882D01*
X75185619Y-82080424D01*
X75202940Y-82085941D01*
X75218014Y-82091098D01*
X75229782Y-82095563D01*
X75237185Y-82099003D01*
X75239139Y-82100503D01*
X75242753Y-82103078D01*
X75250662Y-82107282D01*
X75261349Y-82112326D01*
X75264653Y-82113790D01*
X75293191Y-82127442D01*
X75324786Y-82144620D01*
X75358010Y-82164437D01*
X75391437Y-82186004D01*
X75423639Y-82208432D01*
X75453188Y-82230833D01*
X75455027Y-82232302D01*
X75468758Y-82243888D01*
X75485851Y-82259214D01*
X75505401Y-82277393D01*
X75526505Y-82297540D01*
X75548259Y-82318767D01*
X75569757Y-82340188D01*
X75590096Y-82360916D01*
X75608372Y-82380065D01*
X75623680Y-82396749D01*
X75629392Y-82403254D01*
X75639974Y-82415509D01*
X75649691Y-82426724D01*
X75657461Y-82435651D01*
X75662173Y-82441014D01*
X75667357Y-82447104D01*
X75675451Y-82456925D01*
X75685475Y-82469260D01*
X75696452Y-82482891D01*
X75707403Y-82496601D01*
X75717351Y-82509173D01*
X75725316Y-82519389D01*
X75728540Y-82523618D01*
X75737407Y-82535421D01*
X75713431Y-82568644D01*
X75704484Y-82581175D01*
X75697054Y-82591838D01*
X75691833Y-82599621D01*
X75689511Y-82603511D01*
X75689455Y-82603717D01*
X75687504Y-82607229D01*
X75682362Y-82614079D01*
X75675092Y-82622972D01*
X75666759Y-82632611D01*
X75658427Y-82641698D01*
X75657462Y-82642706D01*
X75651770Y-82648779D01*
X75642871Y-82658467D01*
X75631749Y-82670688D01*
X75619390Y-82684362D01*
X75611765Y-82692842D01*
X75560262Y-82747602D01*
X75509035Y-82796663D01*
X75457457Y-82840556D01*
X75404901Y-82879809D01*
X75350741Y-82914955D01*
X75344893Y-82918453D01*
X75331699Y-82926407D01*
X75320544Y-82933362D01*
X75312516Y-82938623D01*
X75308702Y-82941494D01*
X75308578Y-82941649D01*
X75304649Y-82944556D01*
X75295923Y-82949297D01*
X75283456Y-82955400D01*
X75268306Y-82962392D01*
X75251531Y-82969800D01*
X75234187Y-82977153D01*
X75217332Y-82983977D01*
X75202024Y-82989800D01*
X75196149Y-82991890D01*
X75147801Y-83007049D01*
X75101900Y-83017992D01*
X75056529Y-83025038D01*
X75009773Y-83028508D01*
X74974210Y-83028972D01*
X74956185Y-83028742D01*
X74939724Y-83028414D01*
X74926149Y-83028025D01*
X74916781Y-83027608D01*
X74913798Y-83027368D01*
X74890705Y-83023989D01*
X74864491Y-83019172D01*
X74837999Y-83013487D01*
X74814071Y-83007505D01*
X74811787Y-83006873D01*
X74791800Y-83000734D01*
X74769828Y-82993061D01*
X74747033Y-82984349D01*
X74724573Y-82975092D01*
X74703609Y-82965783D01*
X74685302Y-82956918D01*
X74670811Y-82948989D01*
X74662064Y-82943120D01*
X74657206Y-82939619D01*
X74648220Y-82933476D01*
X74636260Y-82925469D01*
X74622482Y-82916375D01*
X74618010Y-82913449D01*
X74586756Y-82892073D01*
X74555285Y-82868748D01*
X74524699Y-82844390D01*
X74496097Y-82819916D01*
X74470579Y-82796243D01*
X74449246Y-82774287D01*
X74444201Y-82768605D01*
X74434105Y-82757079D01*
X74421687Y-82743072D01*
X74408870Y-82728748D01*
X74401939Y-82721069D01*
X74387648Y-82704890D01*
X74372131Y-82686629D01*
X74356303Y-82667426D01*
X74341077Y-82648423D01*
X74327370Y-82630759D01*
X74316094Y-82615576D01*
X74308568Y-82604642D01*
X74299910Y-82591616D01*
X74290348Y-82577922D01*
X74280924Y-82564984D01*
X74272677Y-82554226D01*
X74266651Y-82547073D01*
X74265921Y-82546317D01*
X74261377Y-82539069D01*
X74261763Y-82535999D01*
X74393073Y-82535999D01*
X74412715Y-82560998D01*
X74422546Y-82573663D01*
X74432232Y-82586396D01*
X74440229Y-82597160D01*
X74442872Y-82600826D01*
X74457261Y-82619571D01*
X74475737Y-82641248D01*
X74497393Y-82664960D01*
X74521319Y-82689813D01*
X74546606Y-82714911D01*
X74572346Y-82739359D01*
X74597631Y-82762261D01*
X74621551Y-82782723D01*
X74643198Y-82799848D01*
X74649729Y-82804644D01*
X74661118Y-82812768D01*
X74670453Y-82819335D01*
X74676659Y-82823596D01*
X74678671Y-82824846D01*
X74677292Y-82822632D01*
X74672849Y-82816715D01*
X74666238Y-82808283D01*
X74664817Y-82806503D01*
X74644322Y-82777619D01*
X74625022Y-82744165D01*
X74607709Y-82707851D01*
X74593179Y-82670387D01*
X74582223Y-82633482D01*
X74579913Y-82623522D01*
X74577132Y-82605918D01*
X74575177Y-82583667D01*
X74574046Y-82558357D01*
X74573743Y-82531580D01*
X74574266Y-82504926D01*
X74575617Y-82479987D01*
X74577796Y-82458352D01*
X74579839Y-82445905D01*
X74589861Y-82407252D01*
X74603931Y-82368250D01*
X74613948Y-82346614D01*
X74686086Y-82346614D01*
X74712622Y-82392149D01*
X74721418Y-82407345D01*
X74728982Y-82420606D01*
X74734791Y-82431000D01*
X74738320Y-82437592D01*
X74739157Y-82439473D01*
X74740676Y-82442544D01*
X74744973Y-82450368D01*
X74751660Y-82462262D01*
X74760349Y-82477539D01*
X74770652Y-82495517D01*
X74782180Y-82515509D01*
X74786357Y-82522725D01*
X74798215Y-82543242D01*
X74808982Y-82561970D01*
X74818269Y-82578226D01*
X74825688Y-82591327D01*
X74830852Y-82600590D01*
X74833372Y-82605332D01*
X74833558Y-82605796D01*
X74835072Y-82608828D01*
X74839350Y-82616604D01*
X74845996Y-82628425D01*
X74854615Y-82643591D01*
X74864811Y-82661403D01*
X74876187Y-82681163D01*
X74878679Y-82685477D01*
X74890537Y-82706045D01*
X74901558Y-82725252D01*
X74911288Y-82742304D01*
X74919276Y-82756406D01*
X74925071Y-82766765D01*
X74928222Y-82772584D01*
X74928425Y-82772989D01*
X74931603Y-82778998D01*
X74937070Y-82788836D01*
X74944277Y-82801560D01*
X74952677Y-82816228D01*
X74961721Y-82831895D01*
X74970862Y-82847620D01*
X74979551Y-82862458D01*
X74987240Y-82875466D01*
X74993382Y-82885701D01*
X74997428Y-82892221D01*
X74998813Y-82894136D01*
X75000607Y-82891529D01*
X75005052Y-82884226D01*
X75011690Y-82873003D01*
X75020064Y-82858635D01*
X75029718Y-82841900D01*
X75034712Y-82833184D01*
X75044790Y-82815483D01*
X75053725Y-82799648D01*
X75056706Y-82794304D01*
X75339464Y-82794304D01*
X75351618Y-82785381D01*
X75359980Y-82778904D01*
X75366753Y-82773078D01*
X75368493Y-82771356D01*
X75372593Y-82767561D01*
X75380549Y-82760708D01*
X75391314Y-82751681D01*
X75403841Y-82741366D01*
X75407455Y-82738422D01*
X75437562Y-82713060D01*
X75466222Y-82686959D01*
X75494297Y-82659223D01*
X75522650Y-82628956D01*
X75552144Y-82595262D01*
X75583640Y-82557245D01*
X75592996Y-82545627D01*
X75596480Y-82540711D01*
X75596738Y-82536816D01*
X75593491Y-82531473D01*
X75591045Y-82528241D01*
X75581697Y-82516615D01*
X75568871Y-82501484D01*
X75553479Y-82483853D01*
X75536432Y-82464728D01*
X75518642Y-82445113D01*
X75501020Y-82426014D01*
X75484478Y-82408435D01*
X75469928Y-82393382D01*
X75458362Y-82381939D01*
X75446528Y-82370945D01*
X75432919Y-82358766D01*
X75418315Y-82346049D01*
X75403499Y-82333443D01*
X75389253Y-82321595D01*
X75376359Y-82311153D01*
X75365597Y-82302765D01*
X75357750Y-82297080D01*
X75353601Y-82294744D01*
X75353203Y-82294783D01*
X75354054Y-82297802D01*
X75357620Y-82303734D01*
X75358318Y-82304739D01*
X75369131Y-82322369D01*
X75380242Y-82344618D01*
X75391013Y-82369880D01*
X75400804Y-82396551D01*
X75408977Y-82423027D01*
X75414531Y-82445905D01*
X75417297Y-82464240D01*
X75419234Y-82487006D01*
X75420343Y-82512611D01*
X75420624Y-82539465D01*
X75420079Y-82565978D01*
X75418707Y-82590558D01*
X75416510Y-82611616D01*
X75414457Y-82623522D01*
X75404111Y-82661495D01*
X75389447Y-82701080D01*
X75371313Y-82740294D01*
X75350556Y-82777154D01*
X75345086Y-82785723D01*
X75339464Y-82794304D01*
X75056706Y-82794304D01*
X75061071Y-82786481D01*
X75066382Y-82776785D01*
X75069212Y-82771361D01*
X75069559Y-82770512D01*
X75071067Y-82767455D01*
X75075334Y-82759628D01*
X75081978Y-82747716D01*
X75090613Y-82732401D01*
X75100856Y-82714367D01*
X75112322Y-82694297D01*
X75116759Y-82686559D01*
X75128575Y-82665925D01*
X75139309Y-82647089D01*
X75148578Y-82630732D01*
X75155996Y-82617535D01*
X75161181Y-82608178D01*
X75163749Y-82603342D01*
X75163959Y-82602836D01*
X75165457Y-82599822D01*
X75169686Y-82592058D01*
X75176249Y-82580253D01*
X75184749Y-82565117D01*
X75194789Y-82547360D01*
X75205971Y-82527692D01*
X75207441Y-82525113D01*
X75219183Y-82504476D01*
X75230235Y-82484956D01*
X75240110Y-82467417D01*
X75248323Y-82452727D01*
X75254388Y-82441751D01*
X75257818Y-82435355D01*
X75257850Y-82435293D01*
X75262128Y-82427252D01*
X75268677Y-82415361D01*
X75276612Y-82401214D01*
X75285045Y-82386404D01*
X75285168Y-82386190D01*
X75292784Y-82372779D01*
X75299106Y-82361363D01*
X75303546Y-82353028D01*
X75305514Y-82348862D01*
X75305560Y-82348645D01*
X75302484Y-82348359D01*
X75293539Y-82348085D01*
X75279150Y-82347826D01*
X75259742Y-82347585D01*
X75235739Y-82347364D01*
X75207566Y-82347166D01*
X75175647Y-82346994D01*
X75140407Y-82346850D01*
X75102270Y-82346738D01*
X75061662Y-82346660D01*
X75019007Y-82346620D01*
X74995823Y-82346614D01*
X74686086Y-82346614D01*
X74613948Y-82346614D01*
X74621174Y-82331005D01*
X74640718Y-82297623D01*
X74642454Y-82295035D01*
X74647762Y-82287105D01*
X74650703Y-82282087D01*
X74650817Y-82280130D01*
X74647641Y-82281383D01*
X74640715Y-82285995D01*
X74629576Y-82294115D01*
X74617555Y-82303063D01*
X74573120Y-82338855D01*
X74528262Y-82380120D01*
X74483690Y-82426137D01*
X74440112Y-82476188D01*
X74410843Y-82512894D01*
X74393073Y-82535999D01*
X74261763Y-82535999D01*
X74262182Y-82532663D01*
X74264873Y-82530064D01*
G37*
G36*
X75423710Y-83796959D02*
G01*
X75435274Y-83759372D01*
X75450995Y-83724901D01*
X75461294Y-83707800D01*
X75478460Y-83685650D01*
X75499420Y-83664502D01*
X75522601Y-83645670D01*
X75546430Y-83630466D01*
X75563860Y-83622203D01*
X75572390Y-83618521D01*
X75578151Y-83615438D01*
X75579321Y-83614469D01*
X75582947Y-83612421D01*
X75590817Y-83609351D01*
X75599774Y-83606385D01*
X75612753Y-83603654D01*
X75630442Y-83601696D01*
X75651307Y-83600513D01*
X75673813Y-83600107D01*
X75696425Y-83600480D01*
X75717607Y-83601634D01*
X75735824Y-83603572D01*
X75749121Y-83606178D01*
X75759684Y-83609373D01*
X75767622Y-83612296D01*
X75771148Y-83614261D01*
X75774868Y-83616784D01*
X75782393Y-83620389D01*
X75787002Y-83622294D01*
X75819155Y-83638218D01*
X75848025Y-83659228D01*
X75873394Y-83684915D01*
X75895043Y-83714868D01*
X75912756Y-83748678D01*
X75926315Y-83785935D01*
X75935501Y-83826228D01*
X75940098Y-83869149D01*
X75940090Y-83910514D01*
X75935615Y-83954212D01*
X75926549Y-83994019D01*
X75912617Y-84030626D01*
X75893543Y-84064723D01*
X75869052Y-84096999D01*
X75862832Y-84104010D01*
X75836387Y-84128881D01*
X75806760Y-84148717D01*
X75773359Y-84163869D01*
X75747668Y-84171809D01*
X75729858Y-84175296D01*
X75707955Y-84177896D01*
X75684090Y-84179504D01*
X75660394Y-84180015D01*
X75638997Y-84179326D01*
X75624948Y-84177836D01*
X75589891Y-84170039D01*
X75558389Y-84158012D01*
X75529820Y-84141333D01*
X75503564Y-84119578D01*
X75479000Y-84092325D01*
X75459537Y-84065357D01*
X75441873Y-84033281D01*
X75428400Y-83997489D01*
X75419111Y-83958958D01*
X75414003Y-83918663D01*
X75413070Y-83877581D01*
X75413087Y-83877368D01*
X75585614Y-83877368D01*
X75586686Y-83919765D01*
X75589945Y-83956443D01*
X75595451Y-83987605D01*
X75603269Y-84013457D01*
X75613460Y-84034203D01*
X75626086Y-84050048D01*
X75641211Y-84061196D01*
X75641790Y-84061506D01*
X75655170Y-84065987D01*
X75671910Y-84067917D01*
X75689622Y-84067308D01*
X75705921Y-84064173D01*
X75713901Y-84061145D01*
X75728985Y-84050435D01*
X75741906Y-84034177D01*
X75752441Y-84012809D01*
X75760366Y-83986771D01*
X75764939Y-83960861D01*
X75767173Y-83936088D01*
X75768135Y-83908432D01*
X75767905Y-83879279D01*
X75766561Y-83850012D01*
X75764183Y-83822017D01*
X75760851Y-83796679D01*
X75756642Y-83775381D01*
X75753759Y-83765207D01*
X75745014Y-83746147D01*
X75732859Y-83730145D01*
X75718465Y-83718710D01*
X75717030Y-83717920D01*
X75701890Y-83712650D01*
X75683550Y-83710368D01*
X75664346Y-83711071D01*
X75646616Y-83714756D01*
X75638423Y-83718011D01*
X75623010Y-83728727D01*
X75610321Y-83744432D01*
X75600308Y-83765274D01*
X75592922Y-83791403D01*
X75588112Y-83822967D01*
X75585830Y-83860113D01*
X75585614Y-83877368D01*
X75413087Y-83877368D01*
X75416307Y-83836688D01*
X75423710Y-83796959D01*
G37*
G36*
X74500010Y-84168542D02*
G01*
X74336382Y-84168542D01*
X74336382Y-83608433D01*
X74500010Y-83608433D01*
X74500010Y-84168542D01*
G37*
G36*
X77693890Y-83564379D02*
G01*
X77530262Y-83564379D01*
X77530262Y-83397605D01*
X77693890Y-83397605D01*
X77693890Y-83564379D01*
G37*
G36*
X74500010Y-83564379D02*
G01*
X74336382Y-83564379D01*
X74336382Y-83397605D01*
X74500010Y-83397605D01*
X74500010Y-83564379D01*
G37*
G36*
X72350827Y-83608433D02*
G01*
X72476694Y-83608433D01*
X72476694Y-83668219D01*
X72350603Y-83668219D01*
X72351502Y-83865674D01*
X72352401Y-84063128D01*
X72359878Y-84079671D01*
X72369258Y-84095094D01*
X72382090Y-84108956D01*
X72396740Y-84119822D01*
X72411571Y-84126260D01*
X72413578Y-84126729D01*
X72425003Y-84128163D01*
X72440595Y-84128913D01*
X72458265Y-84128978D01*
X72475925Y-84128353D01*
X72491485Y-84127038D01*
X72493215Y-84126821D01*
X72511308Y-84124433D01*
X72511308Y-84180315D01*
X72490068Y-84182250D01*
X72467343Y-84184110D01*
X72446883Y-84185379D01*
X72429793Y-84186010D01*
X72417177Y-84185955D01*
X72412188Y-84185570D01*
X72380354Y-84179254D01*
X72353730Y-84169529D01*
X72332201Y-84156345D01*
X72319626Y-84144497D01*
X72310055Y-84130807D01*
X72300950Y-84112683D01*
X72293066Y-84091978D01*
X72287155Y-84070545D01*
X72285057Y-84059378D01*
X72284229Y-84050516D01*
X72283508Y-84035587D01*
X72282896Y-84014817D01*
X72282398Y-83988433D01*
X72282017Y-83956660D01*
X72281756Y-83919724D01*
X72281620Y-83877852D01*
X72281600Y-83852484D01*
X72281600Y-83668219D01*
X72171467Y-83668219D01*
X72171467Y-83608433D01*
X72278454Y-83608433D01*
X72278454Y-83473865D01*
X72302840Y-83471820D01*
X72316467Y-83470577D01*
X72329282Y-83469240D01*
X72338633Y-83468085D01*
X72339027Y-83468027D01*
X72350827Y-83466279D01*
X72350827Y-83608433D01*
G37*
G36*
X77693890Y-84168542D02*
G01*
X77530262Y-84168542D01*
X77530262Y-83608433D01*
X77693890Y-83608433D01*
X77693890Y-84168542D01*
G37*
G36*
X73835921Y-83608094D02*
G01*
X73858691Y-83608259D01*
X73880078Y-83608580D01*
X73899236Y-83609058D01*
X73915316Y-83609692D01*
X73927472Y-83610483D01*
X73934854Y-83611431D01*
X73936754Y-83612293D01*
X73937631Y-83616207D01*
X73940107Y-83625336D01*
X73943951Y-83638877D01*
X73948930Y-83656023D01*
X73954813Y-83675971D01*
X73961369Y-83697915D01*
X73962353Y-83701187D01*
X73970855Y-83729448D01*
X73980451Y-83761378D01*
X73990488Y-83794803D01*
X74000314Y-83827549D01*
X74009275Y-83857441D01*
X74012919Y-83869607D01*
X74020649Y-83895431D01*
X74026758Y-83915823D01*
X74031439Y-83931376D01*
X74034884Y-83942686D01*
X74037283Y-83950344D01*
X74038831Y-83954947D01*
X74039717Y-83957087D01*
X74040136Y-83957360D01*
X74040278Y-83956359D01*
X74040335Y-83954677D01*
X74040346Y-83954455D01*
X74041309Y-83950253D01*
X74043896Y-83940886D01*
X74047860Y-83927195D01*
X74052954Y-83910023D01*
X74058930Y-83890214D01*
X74065269Y-83869495D01*
X74073225Y-83843659D01*
X74082442Y-83813732D01*
X74092327Y-83781636D01*
X74102289Y-83749295D01*
X74111734Y-83718632D01*
X74117812Y-83698900D01*
X74145681Y-83608433D01*
X74207992Y-83608433D01*
X74229265Y-83608462D01*
X74245057Y-83608602D01*
X74256183Y-83608933D01*
X74263455Y-83609532D01*
X74267686Y-83610478D01*
X74269690Y-83611850D01*
X74270279Y-83613727D01*
X74270302Y-83614464D01*
X74268890Y-83619969D01*
X74267168Y-83621544D01*
X74265769Y-83624586D01*
X74262546Y-83633085D01*
X74257673Y-83646532D01*
X74251325Y-83664416D01*
X74243675Y-83686226D01*
X74234898Y-83711453D01*
X74225168Y-83739586D01*
X74214660Y-83770115D01*
X74203548Y-83802530D01*
X74192005Y-83836321D01*
X74180206Y-83870976D01*
X74168326Y-83905987D01*
X74156539Y-83940843D01*
X74145019Y-83975033D01*
X74133939Y-84008047D01*
X74123476Y-84039376D01*
X74113802Y-84068508D01*
X74105092Y-84094934D01*
X74097520Y-84118144D01*
X74096719Y-84120618D01*
X74081178Y-84168668D01*
X73951200Y-84166968D01*
X73942540Y-84140221D01*
X73940279Y-84133363D01*
X73936198Y-84121125D01*
X73930494Y-84104091D01*
X73923365Y-84082843D01*
X73915006Y-84057965D01*
X73905613Y-84030038D01*
X73895385Y-83999645D01*
X73884516Y-83967370D01*
X73873203Y-83933794D01*
X73861643Y-83899501D01*
X73850033Y-83865074D01*
X73838568Y-83831094D01*
X73827446Y-83798146D01*
X73816862Y-83766810D01*
X73807014Y-83737671D01*
X73798097Y-83711312D01*
X73790308Y-83688313D01*
X73783844Y-83669260D01*
X73778901Y-83654733D01*
X73775676Y-83645316D01*
X73775504Y-83644818D01*
X73771716Y-83634995D01*
X73768517Y-83628740D01*
X73766494Y-83627160D01*
X73766279Y-83627512D01*
X73761827Y-83639592D01*
X73755421Y-83657105D01*
X73747238Y-83679560D01*
X73737456Y-83706469D01*
X73726251Y-83737341D01*
X73713802Y-83771688D01*
X73700284Y-83809020D01*
X73685877Y-83848848D01*
X73670756Y-83890681D01*
X73655099Y-83934032D01*
X73639083Y-83978409D01*
X73622886Y-84023325D01*
X73617614Y-84037954D01*
X73601354Y-84083012D01*
X73587020Y-84122554D01*
X73574435Y-84156996D01*
X73563420Y-84186754D01*
X73553799Y-84212244D01*
X73545394Y-84233882D01*
X73538029Y-84252084D01*
X73531526Y-84267266D01*
X73525707Y-84279844D01*
X73520397Y-84290234D01*
X73515416Y-84298852D01*
X73510589Y-84306113D01*
X73505738Y-84312434D01*
X73500686Y-84318231D01*
X73496184Y-84322971D01*
X73474381Y-84341437D01*
X73449963Y-84354505D01*
X73424258Y-84362250D01*
X73408139Y-84364765D01*
X73390363Y-84366118D01*
X73373470Y-84366209D01*
X73360001Y-84364938D01*
X73359338Y-84364813D01*
X73352687Y-84363487D01*
X73342681Y-84361475D01*
X73336525Y-84360232D01*
X73320005Y-84356891D01*
X73320005Y-84297995D01*
X73329798Y-84300803D01*
X73354084Y-84305966D01*
X73378100Y-84307755D01*
X73400506Y-84306251D01*
X73419960Y-84301532D01*
X73433805Y-84294625D01*
X73448352Y-84281502D01*
X73462887Y-84262355D01*
X73477249Y-84237449D01*
X73491275Y-84207051D01*
X73499184Y-84187031D01*
X73509342Y-84159894D01*
X73496778Y-84120951D01*
X73492641Y-84108286D01*
X73486833Y-84090738D01*
X73479714Y-84069378D01*
X73471643Y-84045280D01*
X73462979Y-84019516D01*
X73454080Y-83993161D01*
X73449534Y-83979741D01*
X73440419Y-83952859D01*
X73429769Y-83921448D01*
X73418070Y-83886941D01*
X73405808Y-83850768D01*
X73393467Y-83814362D01*
X73381533Y-83779155D01*
X73370596Y-83746886D01*
X73361332Y-83719467D01*
X73352725Y-83693827D01*
X73344982Y-83670591D01*
X73338308Y-83650387D01*
X73332909Y-83633841D01*
X73328992Y-83621580D01*
X73326764Y-83614229D01*
X73326318Y-83612366D01*
X73328102Y-83610541D01*
X73333958Y-83609342D01*
X73344612Y-83608689D01*
X73360789Y-83608503D01*
X73361698Y-83608505D01*
X73397098Y-83608577D01*
X73470881Y-83834881D01*
X73544665Y-84061185D01*
X73564758Y-84005516D01*
X73577283Y-83970795D01*
X73590138Y-83935125D01*
X73603143Y-83899005D01*
X73616119Y-83862936D01*
X73628887Y-83827416D01*
X73641268Y-83792944D01*
X73653083Y-83760021D01*
X73664154Y-83729144D01*
X73674300Y-83700815D01*
X73683343Y-83675531D01*
X73691103Y-83653793D01*
X73697403Y-83636099D01*
X73702062Y-83622950D01*
X73704902Y-83614843D01*
X73705732Y-83612366D01*
X73709041Y-83611291D01*
X73717750Y-83610370D01*
X73731011Y-83609603D01*
X73747975Y-83608991D01*
X73767796Y-83608534D01*
X73789626Y-83608232D01*
X73812617Y-83608085D01*
X73835921Y-83608094D01*
G37*
D11*
X69265800Y-78767400D03*
X69265800Y-77747400D03*
D12*
X63500000Y-132080000D03*
D13*
X72364600Y-108176000D03*
X72364600Y-107216000D03*
D14*
X77114400Y-119977400D03*
X77114400Y-121627400D03*
D15*
X68526600Y-98933000D03*
X67566600Y-98933000D03*
D16*
X77063600Y-116258400D03*
X77063600Y-117218400D03*
X69977000Y-118315800D03*
X69977000Y-119275800D03*
D15*
X68526600Y-99898200D03*
X67566600Y-99898200D03*
D17*
X67564000Y-75412500D03*
X67564000Y-76987500D03*
D15*
X67637600Y-112318800D03*
X66677600Y-112318800D03*
X70076000Y-88265000D03*
X69116000Y-88265000D03*
D18*
X75600718Y-99618800D03*
X76620718Y-99618800D03*
D15*
X70076000Y-89204800D03*
X69116000Y-89204800D03*
D19*
X76659800Y-118745000D03*
X77619800Y-118745000D03*
D13*
X71501000Y-108176000D03*
X71501000Y-107216000D03*
D20*
X74506000Y-76454000D03*
X78656000Y-76454000D03*
D21*
X75006000Y-74929000D03*
X75006000Y-77979000D03*
X78156000Y-74929000D03*
X78156000Y-77979000D03*
D11*
X72034400Y-119890000D03*
X72034400Y-118870000D03*
D22*
X75563100Y-122199400D03*
X73738100Y-122199400D03*
D11*
X71126401Y-119890000D03*
X71126401Y-118870000D03*
D16*
X68199000Y-118315800D03*
X68199000Y-119275800D03*
X67614800Y-116182200D03*
X67614800Y-117142200D03*
D11*
X71475600Y-78767400D03*
X71475600Y-77747400D03*
D16*
X77683518Y-92542871D03*
X77683518Y-93502871D03*
D23*
X75280000Y-128337000D03*
X69500000Y-128337000D03*
D24*
X69140000Y-126892000D03*
X69940000Y-126892000D03*
D25*
X71140000Y-126892000D03*
X72140000Y-126892000D03*
X72640000Y-126892000D03*
X73640000Y-126892000D03*
D24*
X74840000Y-126892000D03*
X75640000Y-126892000D03*
X75640000Y-126892000D03*
X74840000Y-126892000D03*
D25*
X74140000Y-126892000D03*
X73140000Y-126892000D03*
X71640000Y-126892000D03*
X70640000Y-126892000D03*
D24*
X69940000Y-126892000D03*
X69140000Y-126892000D03*
D26*
X76710000Y-127807000D03*
D27*
X68070000Y-131987000D03*
X76710000Y-131987000D03*
D26*
X68070000Y-127807000D03*
D13*
X75615800Y-105839200D03*
X75615800Y-104879200D03*
D28*
X77673200Y-110157800D03*
X77673200Y-111177800D03*
D29*
X67803000Y-101777800D03*
D30*
X69103000Y-101777800D03*
D31*
X80010000Y-80010000D03*
D32*
X82550000Y-80010000D03*
X80010000Y-82550000D03*
X82550000Y-82550000D03*
X80010000Y-85090000D03*
X82550000Y-85090000D03*
X80010000Y-87630000D03*
X82550000Y-87630000D03*
X80010000Y-90170000D03*
X82550000Y-90170000D03*
X80010000Y-92710000D03*
X82550000Y-92710000D03*
X80010000Y-95250000D03*
X82550000Y-95250000D03*
X80010000Y-97790000D03*
X82550000Y-97790000D03*
X80010000Y-100330000D03*
X82550000Y-100330000D03*
X80010000Y-102870000D03*
X82550000Y-102870000D03*
X80010000Y-105410000D03*
X82550000Y-105410000D03*
X80010000Y-107950000D03*
X82550000Y-107950000D03*
X80010000Y-110490000D03*
X82550000Y-110490000D03*
X80010000Y-113030000D03*
X82550000Y-113030000D03*
X80010000Y-115570000D03*
X82550000Y-115570000D03*
X80010000Y-118110000D03*
X82550000Y-118110000D03*
X80010000Y-120650000D03*
X82550000Y-120650000D03*
X80010000Y-123190000D03*
X82550000Y-123190000D03*
X80010000Y-125730000D03*
X82550000Y-125730000D03*
X80010000Y-128270000D03*
X82550000Y-128270000D03*
D33*
X73736200Y-124637800D03*
X75561200Y-124637800D03*
D34*
X77114400Y-122902000D03*
X77114400Y-125002000D03*
D12*
X81280000Y-76200000D03*
D16*
X77673200Y-112397600D03*
X77673200Y-113357600D03*
D35*
X71124000Y-75815000D03*
X71124000Y-76585000D03*
X70354000Y-76585000D03*
X70354000Y-75815000D03*
D13*
X70637400Y-108176000D03*
X70637400Y-107216000D03*
D11*
X66167000Y-76710000D03*
X66167000Y-75690000D03*
D13*
X76454000Y-91236800D03*
X76454000Y-90276800D03*
D11*
X69113400Y-108206000D03*
X69113400Y-107186000D03*
D18*
X66645600Y-114122200D03*
X67665600Y-114122200D03*
D31*
X62230000Y-80010000D03*
D32*
X64770000Y-80010000D03*
X62230000Y-82550000D03*
X64770000Y-82550000D03*
X62230000Y-85090000D03*
X64770000Y-85090000D03*
X62230000Y-87630000D03*
X64770000Y-87630000D03*
X62230000Y-90170000D03*
X64770000Y-90170000D03*
X62230000Y-92710000D03*
X64770000Y-92710000D03*
X62230000Y-95250000D03*
X64770000Y-95250000D03*
X62230000Y-97790000D03*
X64770000Y-97790000D03*
X62230000Y-100330000D03*
X64770000Y-100330000D03*
X62230000Y-102870000D03*
X64770000Y-102870000D03*
X62230000Y-105410000D03*
X64770000Y-105410000D03*
X62230000Y-107950000D03*
X64770000Y-107950000D03*
X62230000Y-110490000D03*
X64770000Y-110490000D03*
X62230000Y-113030000D03*
X64770000Y-113030000D03*
X62230000Y-115570000D03*
X64770000Y-115570000D03*
X62230000Y-118110000D03*
X64770000Y-118110000D03*
X62230000Y-120650000D03*
X64770000Y-120650000D03*
X62230000Y-123190000D03*
X64770000Y-123190000D03*
X62230000Y-125730000D03*
X64770000Y-125730000D03*
X62230000Y-128270000D03*
X64770000Y-128270000D03*
D36*
X78486000Y-132842000D03*
D19*
X72085200Y-89204800D03*
X73045200Y-89204800D03*
D37*
X68326000Y-120734000D03*
X68326000Y-124884000D03*
D38*
X69851000Y-121234000D03*
X66801000Y-121234000D03*
X66801000Y-124384000D03*
X69851000Y-124384000D03*
D11*
X70358000Y-78767400D03*
X70358000Y-77747400D03*
D18*
X72093518Y-99880871D03*
X73113518Y-99880871D03*
D39*
X69084918Y-84251871D03*
X69584918Y-84251871D03*
X70084918Y-84251871D03*
X70584918Y-84251871D03*
X70584918Y-83251871D03*
X70084918Y-83251871D03*
X69584918Y-83251871D03*
X69084918Y-83251871D03*
D18*
X76121800Y-79552800D03*
X77141800Y-79552800D03*
D40*
X75802100Y-115985600D03*
X75802100Y-115585600D03*
X75802100Y-115185600D03*
X75802100Y-114785600D03*
X75802100Y-114385600D03*
X75802100Y-113985600D03*
X75802100Y-113585600D03*
X75802100Y-113185600D03*
X75802100Y-112785600D03*
X75802100Y-112385600D03*
X75802100Y-111985600D03*
X75802100Y-111585600D03*
X75802100Y-111185600D03*
X75802100Y-110785600D03*
D41*
X74964600Y-109948100D03*
X74564600Y-109948100D03*
X74164600Y-109948100D03*
X73764600Y-109948100D03*
X73364600Y-109948100D03*
X72964600Y-109948100D03*
X72564600Y-109948100D03*
X72164600Y-109948100D03*
X71764600Y-109948100D03*
X71364600Y-109948100D03*
X70964600Y-109948100D03*
X70564600Y-109948100D03*
X70164600Y-109948100D03*
X69764600Y-109948100D03*
D40*
X68927100Y-110785600D03*
X68927100Y-111185600D03*
X68927100Y-111585600D03*
X68927100Y-111985600D03*
X68927100Y-112385600D03*
X68927100Y-112785600D03*
X68927100Y-113185600D03*
X68927100Y-113585600D03*
X68927100Y-113985600D03*
X68927100Y-114385600D03*
X68927100Y-114785600D03*
X68927100Y-115185600D03*
X68927100Y-115585600D03*
X68927100Y-115985600D03*
D41*
X69764600Y-116823100D03*
X70164600Y-116823100D03*
X70564600Y-116823100D03*
X70964600Y-116823100D03*
X71364600Y-116823100D03*
X71764600Y-116823100D03*
X72164600Y-116823100D03*
X72564600Y-116823100D03*
X72964600Y-116823100D03*
X73364600Y-116823100D03*
X73764600Y-116823100D03*
X74164600Y-116823100D03*
X74564600Y-116823100D03*
X74964600Y-116823100D03*
D42*
X72364600Y-113385600D03*
D22*
X75563100Y-123418600D03*
X73738100Y-123418600D03*
D36*
X74203718Y-86749071D03*
D11*
X72070118Y-87335271D03*
X72070118Y-86315271D03*
D43*
X72426600Y-104077800D03*
X72426600Y-105827800D03*
X73826600Y-105827800D03*
X73826600Y-104077800D03*
D44*
X77647800Y-91225600D03*
X77647800Y-89825600D03*
D45*
X68573200Y-97722300D03*
X69073200Y-97722300D03*
X69573200Y-97722300D03*
X70073200Y-97722300D03*
X70573200Y-97722300D03*
X71073200Y-97722300D03*
X71573200Y-97722300D03*
X72073200Y-97722300D03*
X72573200Y-97722300D03*
X73073200Y-97722300D03*
X73573200Y-97722300D03*
X74073200Y-97722300D03*
D46*
X74760700Y-97034800D03*
X74760700Y-96534800D03*
X74760700Y-96034800D03*
X74760700Y-95534800D03*
X74760700Y-95034800D03*
X74760700Y-94534800D03*
X74760700Y-94034800D03*
X74760700Y-93534800D03*
X74760700Y-93034800D03*
X74760700Y-92534800D03*
X74760700Y-92034800D03*
X74760700Y-91534800D03*
D45*
X74073200Y-90847300D03*
X73573200Y-90847300D03*
X73073200Y-90847300D03*
X72573200Y-90847300D03*
X72073200Y-90847300D03*
X71573200Y-90847300D03*
X71073200Y-90847300D03*
X70573200Y-90847300D03*
X70073200Y-90847300D03*
X69573200Y-90847300D03*
X69073200Y-90847300D03*
X68573200Y-90847300D03*
D46*
X67885700Y-91534800D03*
X67885700Y-92034800D03*
X67885700Y-92534800D03*
X67885700Y-93034800D03*
X67885700Y-93534800D03*
X67885700Y-94034800D03*
X67885700Y-94534800D03*
X67885700Y-95034800D03*
X67885700Y-95534800D03*
X67885700Y-96034800D03*
X67885700Y-96534800D03*
X67885700Y-97034800D03*
D47*
X71323200Y-94284800D03*
D12*
X81280000Y-132080000D03*
D15*
X77492800Y-88900000D03*
X76532800Y-88900000D03*
D16*
X69088000Y-118315800D03*
X69088000Y-119275800D03*
D13*
X70789800Y-104569200D03*
X70789800Y-103609200D03*
D19*
X72062400Y-88239600D03*
X73022400Y-88239600D03*
D18*
X66647600Y-113207800D03*
X67667600Y-113207800D03*
D12*
X63500000Y-76200000D03*
D11*
X70789800Y-106428000D03*
X70789800Y-105408000D03*
D33*
X73738100Y-120980200D03*
X75563100Y-120980200D03*
D16*
X76718318Y-92542871D03*
X76718318Y-93502871D03*
D36*
X66294000Y-132842000D03*
D29*
X72679800Y-80187800D03*
D30*
X73979800Y-80187800D03*
D19*
X72672000Y-78282800D03*
X73632000Y-78282800D03*
G36*
X69378943Y-83983367D02*
G01*
X69379318Y-83984974D01*
X69375918Y-84002070D01*
X69375918Y-84501672D01*
X69379321Y-84518781D01*
X69378678Y-84520675D01*
X69376716Y-84521065D01*
X69375696Y-84520282D01*
X69372725Y-84515835D01*
X69372043Y-84515880D01*
X69371264Y-84515197D01*
X69358717Y-84496417D01*
X69326563Y-84490020D01*
X69299120Y-84508356D01*
X69294328Y-84519923D01*
X69292741Y-84521141D01*
X69290893Y-84520375D01*
X69290518Y-84518768D01*
X69293918Y-84501672D01*
X69293918Y-84002070D01*
X69290515Y-83984961D01*
X69291158Y-83983067D01*
X69293120Y-83982677D01*
X69294140Y-83983460D01*
X69297111Y-83987907D01*
X69297793Y-83987862D01*
X69298572Y-83988545D01*
X69311119Y-84007325D01*
X69343273Y-84013722D01*
X69370716Y-83995386D01*
X69375508Y-83983819D01*
X69377095Y-83982601D01*
X69378943Y-83983367D01*
G37*
G36*
X70378943Y-83983367D02*
G01*
X70379318Y-83984974D01*
X70375918Y-84002070D01*
X70375918Y-84501672D01*
X70379321Y-84518781D01*
X70378678Y-84520675D01*
X70376716Y-84521065D01*
X70375696Y-84520282D01*
X70372725Y-84515835D01*
X70372043Y-84515880D01*
X70371264Y-84515197D01*
X70358717Y-84496417D01*
X70326563Y-84490020D01*
X70299120Y-84508356D01*
X70294328Y-84519923D01*
X70292741Y-84521141D01*
X70290893Y-84520375D01*
X70290518Y-84518768D01*
X70293918Y-84501672D01*
X70293918Y-84002070D01*
X70290515Y-83984961D01*
X70291158Y-83983067D01*
X70293120Y-83982677D01*
X70294140Y-83983460D01*
X70297111Y-83987907D01*
X70297793Y-83987862D01*
X70298572Y-83988545D01*
X70311119Y-84007325D01*
X70343273Y-84013722D01*
X70370716Y-83995386D01*
X70375508Y-83983819D01*
X70377095Y-83982601D01*
X70378943Y-83983367D01*
G37*
G36*
X69878943Y-83983367D02*
G01*
X69879318Y-83984974D01*
X69875918Y-84002070D01*
X69875918Y-84501672D01*
X69879321Y-84518781D01*
X69878678Y-84520675D01*
X69876716Y-84521065D01*
X69875696Y-84520282D01*
X69872725Y-84515835D01*
X69872043Y-84515880D01*
X69871264Y-84515197D01*
X69858717Y-84496417D01*
X69826563Y-84490020D01*
X69799120Y-84508356D01*
X69794328Y-84519923D01*
X69792741Y-84521141D01*
X69790893Y-84520375D01*
X69790518Y-84518768D01*
X69793918Y-84501672D01*
X69793918Y-84002070D01*
X69790515Y-83984961D01*
X69791158Y-83983067D01*
X69793120Y-83982677D01*
X69794140Y-83983460D01*
X69797111Y-83987907D01*
X69797793Y-83987862D01*
X69798572Y-83988545D01*
X69811119Y-84007325D01*
X69843273Y-84013722D01*
X69870716Y-83995386D01*
X69875508Y-83983819D01*
X69877095Y-83982601D01*
X69878943Y-83983367D01*
G37*
G36*
X70378943Y-82983367D02*
G01*
X70379318Y-82984974D01*
X70375918Y-83002070D01*
X70375918Y-83501672D01*
X70379321Y-83518781D01*
X70378678Y-83520675D01*
X70376716Y-83521065D01*
X70375696Y-83520282D01*
X70372725Y-83515835D01*
X70372043Y-83515880D01*
X70371264Y-83515197D01*
X70358717Y-83496417D01*
X70326563Y-83490020D01*
X70299120Y-83508356D01*
X70294328Y-83519923D01*
X70292741Y-83521141D01*
X70290893Y-83520375D01*
X70290518Y-83518768D01*
X70293918Y-83501672D01*
X70293918Y-83002070D01*
X70290515Y-82984961D01*
X70291158Y-82983067D01*
X70293120Y-82982677D01*
X70294140Y-82983460D01*
X70297111Y-82987907D01*
X70297793Y-82987862D01*
X70298572Y-82988545D01*
X70311119Y-83007325D01*
X70343273Y-83013722D01*
X70370716Y-82995386D01*
X70375508Y-82983819D01*
X70377095Y-82982601D01*
X70378943Y-82983367D01*
G37*
G36*
X69378943Y-82983367D02*
G01*
X69379318Y-82984974D01*
X69375918Y-83002070D01*
X69375918Y-83501672D01*
X69379321Y-83518781D01*
X69378678Y-83520675D01*
X69376716Y-83521065D01*
X69375696Y-83520282D01*
X69372725Y-83515835D01*
X69372043Y-83515880D01*
X69371264Y-83515197D01*
X69358717Y-83496417D01*
X69326563Y-83490020D01*
X69299120Y-83508356D01*
X69294328Y-83519923D01*
X69292741Y-83521141D01*
X69290893Y-83520375D01*
X69290518Y-83518768D01*
X69293918Y-83501672D01*
X69293918Y-83002070D01*
X69290515Y-82984961D01*
X69291158Y-82983067D01*
X69293120Y-82982677D01*
X69294140Y-82983460D01*
X69297111Y-82987907D01*
X69297793Y-82987862D01*
X69298572Y-82988545D01*
X69311119Y-83007325D01*
X69343273Y-83013722D01*
X69370716Y-82995386D01*
X69375508Y-82983819D01*
X69377095Y-82982601D01*
X69378943Y-82983367D01*
G37*
G36*
X69878943Y-82983367D02*
G01*
X69879318Y-82984974D01*
X69875918Y-83002070D01*
X69875918Y-83501672D01*
X69879321Y-83518781D01*
X69878678Y-83520675D01*
X69876716Y-83521065D01*
X69875696Y-83520282D01*
X69872725Y-83515835D01*
X69872043Y-83515880D01*
X69871264Y-83515197D01*
X69858717Y-83496417D01*
X69826563Y-83490020D01*
X69799120Y-83508356D01*
X69794328Y-83519923D01*
X69792741Y-83521141D01*
X69790893Y-83520375D01*
X69790518Y-83518768D01*
X69793918Y-83501672D01*
X69793918Y-83002070D01*
X69790515Y-82984961D01*
X69791158Y-82983067D01*
X69793120Y-82982677D01*
X69794140Y-82983460D01*
X69797111Y-82987907D01*
X69797793Y-82987862D01*
X69798572Y-82988545D01*
X69811119Y-83007325D01*
X69843273Y-83013722D01*
X69870716Y-82995386D01*
X69875508Y-82983819D01*
X69877095Y-82982601D01*
X69878943Y-82983367D01*
G37*
M02*
