G04 #@! TF.GenerationSoftware,KiCad,Pcbnew,(6.0.5)*
G04 #@! TF.CreationDate,2022-10-28T12:11:28-07:00*
G04 #@! TF.ProjectId,pico-ice,7069636f-2d69-4636-952e-6b696361645f,REV1*
G04 #@! TF.SameCoordinates,Original*
G04 #@! TF.FileFunction,Legend,Top*
G04 #@! TF.FilePolarity,Positive*
%FSLAX46Y46*%
G04 Gerber Fmt 4.6, Leading zero omitted, Abs format (unit mm)*
G04 Created by KiCad (PCBNEW (6.0.5)) date 2022-10-28 12:11:28*
%MOMM*%
%LPD*%
G01*
G04 APERTURE LIST*
%ADD10C,0.120000*%
%ADD11C,0.150000*%
%ADD12C,0.127000*%
%ADD13C,0.200000*%
G04 APERTURE END LIST*
D10*
X78648718Y-87003071D02*
X78648718Y-88273071D01*
X65694718Y-121166071D02*
X66075718Y-121166071D01*
X66075718Y-121166071D02*
X66075718Y-117610071D01*
X65567718Y-98433071D02*
X66202718Y-98433071D01*
X66075718Y-92083071D02*
X66075718Y-93480071D01*
X79283718Y-107323071D02*
X78521718Y-107323071D01*
X78521718Y-117483071D02*
X78521718Y-121547071D01*
X66075718Y-89543071D02*
X66075718Y-90813071D01*
X83820000Y-96520000D02*
X83820000Y-81280000D01*
X78521718Y-121547071D02*
X79537718Y-121547071D01*
X66075718Y-111133071D02*
X66075718Y-107323071D01*
X66075718Y-84463071D02*
X66075718Y-88019071D01*
X66202718Y-98433071D02*
X66202718Y-97417071D01*
X65567718Y-84463071D02*
X66075718Y-84463071D01*
X78648718Y-84463071D02*
X78648718Y-85860071D01*
X78648718Y-98560071D02*
X79410718Y-98560071D01*
X79283718Y-84463071D02*
X78648718Y-84463071D01*
X66075718Y-116340071D02*
X66075718Y-114816071D01*
X78648718Y-94623071D02*
X78648718Y-98560071D01*
X78521718Y-107323071D02*
X78521718Y-108593071D01*
X78521718Y-115070071D02*
X78521718Y-116213071D01*
X78521718Y-109863071D02*
X78521718Y-111006071D01*
X64770000Y-73660000D02*
X80010000Y-73660000D01*
X66075718Y-107323071D02*
X65567718Y-107323071D01*
X78648718Y-92083071D02*
X78648718Y-93353071D01*
X66075718Y-113673071D02*
X66075718Y-112403071D01*
X66075718Y-96020071D02*
X66075718Y-94877071D01*
X78521718Y-112276071D02*
X78521718Y-113800071D01*
X78648718Y-89543071D02*
X78648718Y-90686071D01*
D11*
X65720146Y-98896642D02*
X65720146Y-99429975D01*
X65529670Y-98591880D02*
X65339194Y-99163309D01*
X65834432Y-99163309D01*
X66063003Y-98629975D02*
X66558241Y-98629975D01*
X66291575Y-98934737D01*
X66405860Y-98934737D01*
X66482051Y-98972832D01*
X66520146Y-99010928D01*
X66558241Y-99087118D01*
X66558241Y-99277594D01*
X66520146Y-99353785D01*
X66482051Y-99391880D01*
X66405860Y-99429975D01*
X66177289Y-99429975D01*
X66101098Y-99391880D01*
X66063003Y-99353785D01*
X80979241Y-81611880D02*
X81093527Y-81649975D01*
X81284003Y-81649975D01*
X81360194Y-81611880D01*
X81398289Y-81573785D01*
X81436384Y-81497594D01*
X81436384Y-81421404D01*
X81398289Y-81345213D01*
X81360194Y-81307118D01*
X81284003Y-81269023D01*
X81131622Y-81230928D01*
X81055432Y-81192832D01*
X81017337Y-81154737D01*
X80979241Y-81078547D01*
X80979241Y-81002356D01*
X81017337Y-80926166D01*
X81055432Y-80888071D01*
X81131622Y-80849975D01*
X81322098Y-80849975D01*
X81436384Y-80888071D01*
X81893527Y-81649975D02*
X81817337Y-81611880D01*
X81779241Y-81573785D01*
X81741146Y-81497594D01*
X81741146Y-81269023D01*
X81779241Y-81192832D01*
X81817337Y-81154737D01*
X81893527Y-81116642D01*
X82007813Y-81116642D01*
X82084003Y-81154737D01*
X82122098Y-81192832D01*
X82160194Y-81269023D01*
X82160194Y-81497594D01*
X82122098Y-81573785D01*
X82084003Y-81611880D01*
X82007813Y-81649975D01*
X81893527Y-81649975D01*
X65116956Y-129900071D02*
X65916956Y-129900071D01*
X65574098Y-130506928D02*
X65688384Y-130545023D01*
X65726479Y-130583118D01*
X65764575Y-130659309D01*
X65764575Y-130773594D01*
X65726479Y-130849785D01*
X65688384Y-130887880D01*
X65612194Y-130925975D01*
X65307432Y-130925975D01*
X65307432Y-130125975D01*
X65574098Y-130125975D01*
X65650289Y-130164071D01*
X65688384Y-130202166D01*
X65726479Y-130278356D01*
X65726479Y-130354547D01*
X65688384Y-130430737D01*
X65650289Y-130468832D01*
X65574098Y-130506928D01*
X65307432Y-130506928D01*
X65916956Y-129900071D02*
X66526479Y-129900071D01*
X65993146Y-130125975D02*
X66450289Y-130125975D01*
X66221718Y-130925975D02*
X66221718Y-130125975D01*
X63383337Y-107049975D02*
X62926194Y-107049975D01*
X63154765Y-107049975D02*
X63154765Y-106249975D01*
X63078575Y-106364261D01*
X63002384Y-106440451D01*
X62926194Y-106478547D01*
X63878575Y-106249975D02*
X63954765Y-106249975D01*
X64030956Y-106288071D01*
X64069051Y-106326166D01*
X64107146Y-106402356D01*
X64145241Y-106554737D01*
X64145241Y-106745213D01*
X64107146Y-106897594D01*
X64069051Y-106973785D01*
X64030956Y-107011880D01*
X63954765Y-107049975D01*
X63878575Y-107049975D01*
X63802384Y-107011880D01*
X63764289Y-106973785D01*
X63726194Y-106897594D01*
X63688098Y-106745213D01*
X63688098Y-106554737D01*
X63726194Y-106402356D01*
X63764289Y-106326166D01*
X63802384Y-106288071D01*
X63878575Y-106249975D01*
X63370646Y-98896642D02*
X63370646Y-99429975D01*
X63180170Y-98591880D02*
X62989694Y-99163309D01*
X63484932Y-99163309D01*
X63751598Y-98706166D02*
X63789694Y-98668071D01*
X63865884Y-98629975D01*
X64056360Y-98629975D01*
X64132551Y-98668071D01*
X64170646Y-98706166D01*
X64208741Y-98782356D01*
X64208741Y-98858547D01*
X64170646Y-98972832D01*
X63713503Y-99429975D01*
X64208741Y-99429975D01*
X63256337Y-104509975D02*
X62799194Y-104509975D01*
X63027765Y-104509975D02*
X63027765Y-103709975D01*
X62951575Y-103824261D01*
X62875384Y-103900451D01*
X62799194Y-103938547D01*
X64018241Y-104509975D02*
X63561098Y-104509975D01*
X63789670Y-104509975D02*
X63789670Y-103709975D01*
X63713479Y-103824261D01*
X63637289Y-103900451D01*
X63561098Y-103938547D01*
X63034146Y-124791880D02*
X63148432Y-124829975D01*
X63338908Y-124829975D01*
X63415098Y-124791880D01*
X63453194Y-124753785D01*
X63491289Y-124677594D01*
X63491289Y-124601404D01*
X63453194Y-124525213D01*
X63415098Y-124487118D01*
X63338908Y-124449023D01*
X63186527Y-124410928D01*
X63110337Y-124372832D01*
X63072241Y-124334737D01*
X63034146Y-124258547D01*
X63034146Y-124182356D01*
X63072241Y-124106166D01*
X63110337Y-124068071D01*
X63186527Y-124029975D01*
X63377003Y-124029975D01*
X63491289Y-124068071D01*
X63834146Y-124829975D02*
X63834146Y-124029975D01*
X64024622Y-124029975D01*
X64138908Y-124068071D01*
X64215098Y-124144261D01*
X64253194Y-124220451D01*
X64291289Y-124372832D01*
X64291289Y-124487118D01*
X64253194Y-124639499D01*
X64215098Y-124715690D01*
X64138908Y-124791880D01*
X64024622Y-124829975D01*
X63834146Y-124829975D01*
X65428098Y-96216975D02*
X65923337Y-96216975D01*
X65656670Y-96521737D01*
X65770956Y-96521737D01*
X65847146Y-96559832D01*
X65885241Y-96597928D01*
X65923337Y-96674118D01*
X65923337Y-96864594D01*
X65885241Y-96940785D01*
X65847146Y-96978880D01*
X65770956Y-97016975D01*
X65542384Y-97016975D01*
X65466194Y-96978880D01*
X65428098Y-96940785D01*
X66380479Y-96559832D02*
X66304289Y-96521737D01*
X66266194Y-96483642D01*
X66228098Y-96407451D01*
X66228098Y-96369356D01*
X66266194Y-96293166D01*
X66304289Y-96255071D01*
X66380479Y-96216975D01*
X66532860Y-96216975D01*
X66609051Y-96255071D01*
X66647146Y-96293166D01*
X66685241Y-96369356D01*
X66685241Y-96407451D01*
X66647146Y-96483642D01*
X66609051Y-96521737D01*
X66532860Y-96559832D01*
X66380479Y-96559832D01*
X66304289Y-96597928D01*
X66266194Y-96636023D01*
X66228098Y-96712213D01*
X66228098Y-96864594D01*
X66266194Y-96940785D01*
X66304289Y-96978880D01*
X66380479Y-97016975D01*
X66532860Y-97016975D01*
X66609051Y-96978880D01*
X66647146Y-96940785D01*
X66685241Y-96864594D01*
X66685241Y-96712213D01*
X66647146Y-96636023D01*
X66609051Y-96597928D01*
X66532860Y-96559832D01*
X78331289Y-111901404D02*
X78712241Y-111901404D01*
X78255098Y-112129975D02*
X78521765Y-111329975D01*
X78788432Y-112129975D01*
X79017003Y-111406166D02*
X79055098Y-111368071D01*
X79131289Y-111329975D01*
X79321765Y-111329975D01*
X79397956Y-111368071D01*
X79436051Y-111406166D01*
X79474146Y-111482356D01*
X79474146Y-111558547D01*
X79436051Y-111672832D01*
X78978908Y-112129975D01*
X79474146Y-112129975D01*
X81239527Y-84113785D02*
X81201432Y-84151880D01*
X81087146Y-84189975D01*
X81010956Y-84189975D01*
X80896670Y-84151880D01*
X80820479Y-84075690D01*
X80782384Y-83999499D01*
X80744289Y-83847118D01*
X80744289Y-83732832D01*
X80782384Y-83580451D01*
X80820479Y-83504261D01*
X80896670Y-83428071D01*
X81010956Y-83389975D01*
X81087146Y-83389975D01*
X81201432Y-83428071D01*
X81239527Y-83466166D01*
X81582384Y-84189975D02*
X81582384Y-83389975D01*
X81658575Y-83885213D02*
X81887146Y-84189975D01*
X81887146Y-83656642D02*
X81582384Y-83961404D01*
X66285241Y-88508071D02*
X66209051Y-88469975D01*
X66094765Y-88469975D01*
X65980479Y-88508071D01*
X65904289Y-88584261D01*
X65866194Y-88660451D01*
X65828098Y-88812832D01*
X65828098Y-88927118D01*
X65866194Y-89079499D01*
X65904289Y-89155690D01*
X65980479Y-89231880D01*
X66094765Y-89269975D01*
X66170956Y-89269975D01*
X66285241Y-89231880D01*
X66323337Y-89193785D01*
X66323337Y-88927118D01*
X66170956Y-88927118D01*
X62888098Y-93676975D02*
X63383337Y-93676975D01*
X63116670Y-93981737D01*
X63230956Y-93981737D01*
X63307146Y-94019832D01*
X63345241Y-94057928D01*
X63383337Y-94134118D01*
X63383337Y-94324594D01*
X63345241Y-94400785D01*
X63307146Y-94438880D01*
X63230956Y-94476975D01*
X63002384Y-94476975D01*
X62926194Y-94438880D01*
X62888098Y-94400785D01*
X63688098Y-93753166D02*
X63726194Y-93715071D01*
X63802384Y-93676975D01*
X63992860Y-93676975D01*
X64069051Y-93715071D01*
X64107146Y-93753166D01*
X64145241Y-93829356D01*
X64145241Y-93905547D01*
X64107146Y-94019832D01*
X63650003Y-94476975D01*
X64145241Y-94476975D01*
X77810622Y-124029975D02*
X78305860Y-124029975D01*
X78039194Y-124334737D01*
X78153479Y-124334737D01*
X78229670Y-124372832D01*
X78267765Y-124410928D01*
X78305860Y-124487118D01*
X78305860Y-124677594D01*
X78267765Y-124753785D01*
X78229670Y-124791880D01*
X78153479Y-124829975D01*
X77924908Y-124829975D01*
X77848718Y-124791880D01*
X77810622Y-124753785D01*
X78648718Y-124753785D02*
X78686813Y-124791880D01*
X78648718Y-124829975D01*
X78610622Y-124791880D01*
X78648718Y-124753785D01*
X78648718Y-124829975D01*
X78953479Y-124029975D02*
X79448718Y-124029975D01*
X79182051Y-124334737D01*
X79296337Y-124334737D01*
X79372527Y-124372832D01*
X79410622Y-124410928D01*
X79448718Y-124487118D01*
X79448718Y-124677594D01*
X79410622Y-124753785D01*
X79372527Y-124791880D01*
X79296337Y-124829975D01*
X79067765Y-124829975D01*
X78991575Y-124791880D01*
X78953479Y-124753785D01*
X80706194Y-88546166D02*
X80744289Y-88508071D01*
X80820479Y-88469975D01*
X81010956Y-88469975D01*
X81087146Y-88508071D01*
X81125241Y-88546166D01*
X81163337Y-88622356D01*
X81163337Y-88698547D01*
X81125241Y-88812832D01*
X80668098Y-89269975D01*
X81163337Y-89269975D01*
X81430003Y-88469975D02*
X81925241Y-88469975D01*
X81658575Y-88774737D01*
X81772860Y-88774737D01*
X81849051Y-88812832D01*
X81887146Y-88850928D01*
X81925241Y-88927118D01*
X81925241Y-89117594D01*
X81887146Y-89193785D01*
X81849051Y-89231880D01*
X81772860Y-89269975D01*
X81544289Y-89269975D01*
X81468098Y-89231880D01*
X81430003Y-89193785D01*
X77096622Y-98001071D02*
X76715670Y-98267737D01*
X77096622Y-98458213D02*
X76296622Y-98458213D01*
X76296622Y-98153451D01*
X76334718Y-98077261D01*
X76372813Y-98039166D01*
X76449003Y-98001071D01*
X76563289Y-98001071D01*
X76639479Y-98039166D01*
X76677575Y-98077261D01*
X76715670Y-98153451D01*
X76715670Y-98458213D01*
X77096622Y-97658213D02*
X76296622Y-97658213D01*
X76296622Y-97353451D01*
X76334718Y-97277261D01*
X76372813Y-97239166D01*
X76449003Y-97201071D01*
X76563289Y-97201071D01*
X76639479Y-97239166D01*
X76677575Y-97277261D01*
X76715670Y-97353451D01*
X76715670Y-97658213D01*
X76791860Y-96858213D02*
X76791860Y-96248690D01*
X77096622Y-95867737D02*
X76563289Y-95867737D01*
X76296622Y-95867737D02*
X76334718Y-95905832D01*
X76372813Y-95867737D01*
X76334718Y-95829642D01*
X76296622Y-95867737D01*
X76372813Y-95867737D01*
X77020432Y-95029642D02*
X77058527Y-95067737D01*
X77096622Y-95182023D01*
X77096622Y-95258213D01*
X77058527Y-95372499D01*
X76982337Y-95448690D01*
X76906146Y-95486785D01*
X76753765Y-95524880D01*
X76639479Y-95524880D01*
X76487098Y-95486785D01*
X76410908Y-95448690D01*
X76334718Y-95372499D01*
X76296622Y-95258213D01*
X76296622Y-95182023D01*
X76334718Y-95067737D01*
X76372813Y-95029642D01*
X76677575Y-94686785D02*
X76677575Y-94420118D01*
X77096622Y-94305832D02*
X77096622Y-94686785D01*
X76296622Y-94686785D01*
X76296622Y-94305832D01*
X78384622Y-97886785D02*
X77584622Y-97886785D01*
X77584622Y-97582023D01*
X77622718Y-97505832D01*
X77660813Y-97467737D01*
X77737003Y-97429642D01*
X77851289Y-97429642D01*
X77927479Y-97467737D01*
X77965575Y-97505832D01*
X78003670Y-97582023D01*
X78003670Y-97886785D01*
X78384622Y-97086785D02*
X77584622Y-97086785D01*
X78156051Y-96820118D01*
X77584622Y-96553451D01*
X78384622Y-96553451D01*
X77584622Y-96020118D02*
X77584622Y-95867737D01*
X77622718Y-95791547D01*
X77698908Y-95715356D01*
X77851289Y-95677261D01*
X78117956Y-95677261D01*
X78270337Y-95715356D01*
X78346527Y-95791547D01*
X78384622Y-95867737D01*
X78384622Y-96020118D01*
X78346527Y-96096309D01*
X78270337Y-96172499D01*
X78117956Y-96210594D01*
X77851289Y-96210594D01*
X77698908Y-96172499D01*
X77622718Y-96096309D01*
X77584622Y-96020118D01*
X78384622Y-95334404D02*
X77584622Y-95334404D01*
X77584622Y-95143928D01*
X77622718Y-95029642D01*
X77698908Y-94953451D01*
X77775098Y-94915356D01*
X77927479Y-94877261D01*
X78041765Y-94877261D01*
X78194146Y-94915356D01*
X78270337Y-94953451D01*
X78346527Y-95029642D01*
X78384622Y-95143928D01*
X78384622Y-95334404D01*
X80991908Y-109170928D02*
X81106194Y-109209023D01*
X81144289Y-109247118D01*
X81182384Y-109323309D01*
X81182384Y-109437594D01*
X81144289Y-109513785D01*
X81106194Y-109551880D01*
X81030003Y-109589975D01*
X80725241Y-109589975D01*
X80725241Y-108789975D01*
X80991908Y-108789975D01*
X81068098Y-108828071D01*
X81106194Y-108866166D01*
X81144289Y-108942356D01*
X81144289Y-109018547D01*
X81106194Y-109094737D01*
X81068098Y-109132832D01*
X80991908Y-109170928D01*
X80725241Y-109170928D01*
X81944289Y-109589975D02*
X81487146Y-109589975D01*
X81715718Y-109589975D02*
X81715718Y-108789975D01*
X81639527Y-108904261D01*
X81563337Y-108980451D01*
X81487146Y-109018547D01*
X78204289Y-116981404D02*
X78585241Y-116981404D01*
X78128098Y-117209975D02*
X78394765Y-116409975D01*
X78661432Y-117209975D01*
X79270956Y-116676642D02*
X79270956Y-117209975D01*
X79080479Y-116371880D02*
X78890003Y-116943309D01*
X79385241Y-116943309D01*
X78356670Y-84151880D02*
X78470956Y-84189975D01*
X78661432Y-84189975D01*
X78737622Y-84151880D01*
X78775718Y-84113785D01*
X78813813Y-84037594D01*
X78813813Y-83961404D01*
X78775718Y-83885213D01*
X78737622Y-83847118D01*
X78661432Y-83809023D01*
X78509051Y-83770928D01*
X78432860Y-83732832D01*
X78394765Y-83694737D01*
X78356670Y-83618547D01*
X78356670Y-83542356D01*
X78394765Y-83466166D01*
X78432860Y-83428071D01*
X78509051Y-83389975D01*
X78699527Y-83389975D01*
X78813813Y-83428071D01*
X79156670Y-84189975D02*
X79156670Y-83656642D01*
X79156670Y-83389975D02*
X79118575Y-83428071D01*
X79156670Y-83466166D01*
X79194765Y-83428071D01*
X79156670Y-83389975D01*
X79156670Y-83466166D01*
X63491241Y-111368071D02*
X63415051Y-111329975D01*
X63300765Y-111329975D01*
X63186479Y-111368071D01*
X63110289Y-111444261D01*
X63072194Y-111520451D01*
X63034098Y-111672832D01*
X63034098Y-111787118D01*
X63072194Y-111939499D01*
X63110289Y-112015690D01*
X63186479Y-112091880D01*
X63300765Y-112129975D01*
X63376956Y-112129975D01*
X63491241Y-112091880D01*
X63529337Y-112053785D01*
X63529337Y-111787118D01*
X63376956Y-111787118D01*
X62773813Y-101198071D02*
X63535718Y-101198071D01*
X62926194Y-102185880D02*
X63040479Y-102223975D01*
X63230956Y-102223975D01*
X63307146Y-102185880D01*
X63345241Y-102147785D01*
X63383337Y-102071594D01*
X63383337Y-101995404D01*
X63345241Y-101919213D01*
X63307146Y-101881118D01*
X63230956Y-101843023D01*
X63078575Y-101804928D01*
X63002384Y-101766832D01*
X62964289Y-101728737D01*
X62926194Y-101652547D01*
X62926194Y-101576356D01*
X62964289Y-101500166D01*
X63002384Y-101462071D01*
X63078575Y-101423975D01*
X63269051Y-101423975D01*
X63383337Y-101462071D01*
X63535718Y-101198071D02*
X64297622Y-101198071D01*
X63688098Y-102185880D02*
X63802384Y-102223975D01*
X63992860Y-102223975D01*
X64069051Y-102185880D01*
X64107146Y-102147785D01*
X64145241Y-102071594D01*
X64145241Y-101995404D01*
X64107146Y-101919213D01*
X64069051Y-101881118D01*
X63992860Y-101843023D01*
X63840479Y-101804928D01*
X63764289Y-101766832D01*
X63726194Y-101728737D01*
X63688098Y-101652547D01*
X63688098Y-101576356D01*
X63726194Y-101500166D01*
X63764289Y-101462071D01*
X63840479Y-101423975D01*
X64030956Y-101423975D01*
X64145241Y-101462071D01*
X65593146Y-116803642D02*
X65593146Y-117336975D01*
X65402670Y-116498880D02*
X65212194Y-117070309D01*
X65707432Y-117070309D01*
X65936003Y-116536975D02*
X66469337Y-116536975D01*
X66126479Y-117336975D01*
X81525241Y-96001071D02*
X81449051Y-95962975D01*
X81334765Y-95962975D01*
X81220479Y-96001071D01*
X81144289Y-96077261D01*
X81106194Y-96153451D01*
X81068098Y-96305832D01*
X81068098Y-96420118D01*
X81106194Y-96572499D01*
X81144289Y-96648690D01*
X81220479Y-96724880D01*
X81334765Y-96762975D01*
X81410956Y-96762975D01*
X81525241Y-96724880D01*
X81563337Y-96686785D01*
X81563337Y-96420118D01*
X81410956Y-96420118D01*
X65625003Y-80878071D02*
X66425003Y-80878071D01*
X66272622Y-81903975D02*
X66005956Y-81523023D01*
X65815479Y-81903975D02*
X65815479Y-81103975D01*
X66120241Y-81103975D01*
X66196432Y-81142071D01*
X66234527Y-81180166D01*
X66272622Y-81256356D01*
X66272622Y-81370642D01*
X66234527Y-81446832D01*
X66196432Y-81484928D01*
X66120241Y-81523023D01*
X65815479Y-81523023D01*
X66425003Y-80878071D02*
X67186908Y-80878071D01*
X66577384Y-81865880D02*
X66691670Y-81903975D01*
X66882146Y-81903975D01*
X66958337Y-81865880D01*
X66996432Y-81827785D01*
X67034527Y-81751594D01*
X67034527Y-81675404D01*
X66996432Y-81599213D01*
X66958337Y-81561118D01*
X66882146Y-81523023D01*
X66729765Y-81484928D01*
X66653575Y-81446832D01*
X66615479Y-81408737D01*
X66577384Y-81332547D01*
X66577384Y-81256356D01*
X66615479Y-81180166D01*
X66653575Y-81142071D01*
X66729765Y-81103975D01*
X66920241Y-81103975D01*
X67034527Y-81142071D01*
X67186908Y-80878071D02*
X67796432Y-80878071D01*
X67263098Y-81103975D02*
X67720241Y-81103975D01*
X67491670Y-81903975D02*
X67491670Y-81103975D01*
X65904241Y-126608071D02*
X65828051Y-126569975D01*
X65713765Y-126569975D01*
X65599479Y-126608071D01*
X65523289Y-126684261D01*
X65485194Y-126760451D01*
X65447098Y-126912832D01*
X65447098Y-127027118D01*
X65485194Y-127179499D01*
X65523289Y-127255690D01*
X65599479Y-127331880D01*
X65713765Y-127369975D01*
X65789956Y-127369975D01*
X65904241Y-127331880D01*
X65942337Y-127293785D01*
X65942337Y-127027118D01*
X65789956Y-127027118D01*
X66158241Y-111368071D02*
X66082051Y-111329975D01*
X65967765Y-111329975D01*
X65853479Y-111368071D01*
X65777289Y-111444261D01*
X65739194Y-111520451D01*
X65701098Y-111672832D01*
X65701098Y-111787118D01*
X65739194Y-111939499D01*
X65777289Y-112015690D01*
X65853479Y-112091880D01*
X65967765Y-112129975D01*
X66043956Y-112129975D01*
X66158241Y-112091880D01*
X66196337Y-112053785D01*
X66196337Y-111787118D01*
X66043956Y-111787118D01*
X63307146Y-119216642D02*
X63307146Y-119749975D01*
X63116670Y-118911880D02*
X62926194Y-119483309D01*
X63421432Y-119483309D01*
X63840479Y-119292832D02*
X63764289Y-119254737D01*
X63726194Y-119216642D01*
X63688098Y-119140451D01*
X63688098Y-119102356D01*
X63726194Y-119026166D01*
X63764289Y-118988071D01*
X63840479Y-118949975D01*
X63992860Y-118949975D01*
X64069051Y-118988071D01*
X64107146Y-119026166D01*
X64145241Y-119102356D01*
X64145241Y-119140451D01*
X64107146Y-119216642D01*
X64069051Y-119254737D01*
X63992860Y-119292832D01*
X63840479Y-119292832D01*
X63764289Y-119330928D01*
X63726194Y-119369023D01*
X63688098Y-119445213D01*
X63688098Y-119597594D01*
X63726194Y-119673785D01*
X63764289Y-119711880D01*
X63840479Y-119749975D01*
X63992860Y-119749975D01*
X64069051Y-119711880D01*
X64107146Y-119673785D01*
X64145241Y-119597594D01*
X64145241Y-119445213D01*
X64107146Y-119369023D01*
X64069051Y-119330928D01*
X63992860Y-119292832D01*
X78293194Y-91086166D02*
X78331289Y-91048071D01*
X78407479Y-91009975D01*
X78597956Y-91009975D01*
X78674146Y-91048071D01*
X78712241Y-91086166D01*
X78750337Y-91162356D01*
X78750337Y-91238547D01*
X78712241Y-91352832D01*
X78255098Y-91809975D01*
X78750337Y-91809975D01*
X79512241Y-91809975D02*
X79055098Y-91809975D01*
X79283670Y-91809975D02*
X79283670Y-91009975D01*
X79207479Y-91124261D01*
X79131289Y-91200451D01*
X79055098Y-91238547D01*
X62926194Y-91086166D02*
X62964289Y-91048071D01*
X63040479Y-91009975D01*
X63230956Y-91009975D01*
X63307146Y-91048071D01*
X63345241Y-91086166D01*
X63383337Y-91162356D01*
X63383337Y-91238547D01*
X63345241Y-91352832D01*
X62888098Y-91809975D01*
X63383337Y-91809975D01*
X63840479Y-91352832D02*
X63764289Y-91314737D01*
X63726194Y-91276642D01*
X63688098Y-91200451D01*
X63688098Y-91162356D01*
X63726194Y-91086166D01*
X63764289Y-91048071D01*
X63840479Y-91009975D01*
X63992860Y-91009975D01*
X64069051Y-91048071D01*
X64107146Y-91086166D01*
X64145241Y-91162356D01*
X64145241Y-91200451D01*
X64107146Y-91276642D01*
X64069051Y-91314737D01*
X63992860Y-91352832D01*
X63840479Y-91352832D01*
X63764289Y-91390928D01*
X63726194Y-91429023D01*
X63688098Y-91505213D01*
X63688098Y-91657594D01*
X63726194Y-91733785D01*
X63764289Y-91771880D01*
X63840479Y-91809975D01*
X63992860Y-91809975D01*
X64069051Y-91771880D01*
X64107146Y-91733785D01*
X64145241Y-91657594D01*
X64145241Y-91505213D01*
X64107146Y-91429023D01*
X64069051Y-91390928D01*
X63992860Y-91352832D01*
X78274146Y-129109975D02*
X78540813Y-129909975D01*
X78807479Y-129109975D01*
X79074146Y-129909975D02*
X79074146Y-129109975D01*
X79074146Y-129414737D02*
X79150337Y-129376642D01*
X79302718Y-129376642D01*
X79378908Y-129414737D01*
X79417003Y-129452832D01*
X79455098Y-129529023D01*
X79455098Y-129757594D01*
X79417003Y-129833785D01*
X79378908Y-129871880D01*
X79302718Y-129909975D01*
X79150337Y-129909975D01*
X79074146Y-129871880D01*
X78077289Y-109361404D02*
X78458241Y-109361404D01*
X78001098Y-109589975D02*
X78267765Y-108789975D01*
X78534432Y-109589975D01*
X79220146Y-109589975D02*
X78763003Y-109589975D01*
X78991575Y-109589975D02*
X78991575Y-108789975D01*
X78915384Y-108904261D01*
X78839194Y-108980451D01*
X78763003Y-109018547D01*
X63269051Y-121108975D02*
X63764289Y-121108975D01*
X63497622Y-121413737D01*
X63611908Y-121413737D01*
X63688098Y-121451832D01*
X63726194Y-121489928D01*
X63764289Y-121566118D01*
X63764289Y-121756594D01*
X63726194Y-121832785D01*
X63688098Y-121870880D01*
X63611908Y-121908975D01*
X63383337Y-121908975D01*
X63307146Y-121870880D01*
X63269051Y-121832785D01*
X65466146Y-118899166D02*
X65504241Y-118861071D01*
X65580432Y-118822975D01*
X65770908Y-118822975D01*
X65847098Y-118861071D01*
X65885194Y-118899166D01*
X65923289Y-118975356D01*
X65923289Y-119051547D01*
X65885194Y-119165832D01*
X65428051Y-119622975D01*
X65923289Y-119622975D01*
X65428098Y-93676975D02*
X65923337Y-93676975D01*
X65656670Y-93981737D01*
X65770956Y-93981737D01*
X65847146Y-94019832D01*
X65885241Y-94057928D01*
X65923337Y-94134118D01*
X65923337Y-94324594D01*
X65885241Y-94400785D01*
X65847146Y-94438880D01*
X65770956Y-94476975D01*
X65542384Y-94476975D01*
X65466194Y-94438880D01*
X65428098Y-94400785D01*
X66609051Y-93943642D02*
X66609051Y-94476975D01*
X66418575Y-93638880D02*
X66228098Y-94210309D01*
X66723337Y-94210309D01*
X78166194Y-88546166D02*
X78204289Y-88508071D01*
X78280479Y-88469975D01*
X78470956Y-88469975D01*
X78547146Y-88508071D01*
X78585241Y-88546166D01*
X78623337Y-88622356D01*
X78623337Y-88698547D01*
X78585241Y-88812832D01*
X78128098Y-89269975D01*
X78623337Y-89269975D01*
X79347146Y-88469975D02*
X78966194Y-88469975D01*
X78928098Y-88850928D01*
X78966194Y-88812832D01*
X79042384Y-88774737D01*
X79232860Y-88774737D01*
X79309051Y-88812832D01*
X79347146Y-88850928D01*
X79385241Y-88927118D01*
X79385241Y-89117594D01*
X79347146Y-89193785D01*
X79309051Y-89231880D01*
X79232860Y-89269975D01*
X79042384Y-89269975D01*
X78966194Y-89231880D01*
X78928098Y-89193785D01*
X67326622Y-90634928D02*
X66793289Y-90634928D01*
X66526622Y-90634928D02*
X66564718Y-90673023D01*
X66602813Y-90634928D01*
X66564718Y-90596832D01*
X66526622Y-90634928D01*
X66602813Y-90634928D01*
X67250432Y-89796832D02*
X67288527Y-89834928D01*
X67326622Y-89949213D01*
X67326622Y-90025404D01*
X67288527Y-90139690D01*
X67212337Y-90215880D01*
X67136146Y-90253975D01*
X66983765Y-90292071D01*
X66869479Y-90292071D01*
X66717098Y-90253975D01*
X66640908Y-90215880D01*
X66564718Y-90139690D01*
X66526622Y-90025404D01*
X66526622Y-89949213D01*
X66564718Y-89834928D01*
X66602813Y-89796832D01*
X66907575Y-89453975D02*
X66907575Y-89187309D01*
X67326622Y-89073023D02*
X67326622Y-89453975D01*
X66526622Y-89453975D01*
X66526622Y-89073023D01*
X67326622Y-88120642D02*
X66526622Y-88120642D01*
X66526622Y-87815880D01*
X66564718Y-87739690D01*
X66602813Y-87701594D01*
X66679003Y-87663499D01*
X66793289Y-87663499D01*
X66869479Y-87701594D01*
X66907575Y-87739690D01*
X66945670Y-87815880D01*
X66945670Y-88120642D01*
X67326622Y-87320642D02*
X66526622Y-87320642D01*
X67098051Y-87053975D01*
X66526622Y-86787309D01*
X67326622Y-86787309D01*
X66526622Y-86253975D02*
X66526622Y-86101594D01*
X66564718Y-86025404D01*
X66640908Y-85949213D01*
X66793289Y-85911118D01*
X67059956Y-85911118D01*
X67212337Y-85949213D01*
X67288527Y-86025404D01*
X67326622Y-86101594D01*
X67326622Y-86253975D01*
X67288527Y-86330166D01*
X67212337Y-86406356D01*
X67059956Y-86444451D01*
X66793289Y-86444451D01*
X66640908Y-86406356D01*
X66564718Y-86330166D01*
X66526622Y-86253975D01*
X67326622Y-85568261D02*
X66526622Y-85568261D01*
X66526622Y-85377785D01*
X66564718Y-85263499D01*
X66640908Y-85187309D01*
X66717098Y-85149213D01*
X66869479Y-85111118D01*
X66983765Y-85111118D01*
X67136146Y-85149213D01*
X67212337Y-85187309D01*
X67288527Y-85263499D01*
X67326622Y-85377785D01*
X67326622Y-85568261D01*
X78204289Y-114568404D02*
X78585241Y-114568404D01*
X78128098Y-114796975D02*
X78394765Y-113996975D01*
X78661432Y-114796975D01*
X78851908Y-113996975D02*
X79347146Y-113996975D01*
X79080479Y-114301737D01*
X79194765Y-114301737D01*
X79270956Y-114339832D01*
X79309051Y-114377928D01*
X79347146Y-114454118D01*
X79347146Y-114644594D01*
X79309051Y-114720785D01*
X79270956Y-114758880D01*
X79194765Y-114796975D01*
X78966194Y-114796975D01*
X78890003Y-114758880D01*
X78851908Y-114720785D01*
X65428098Y-101296975D02*
X65923337Y-101296975D01*
X65656670Y-101601737D01*
X65770956Y-101601737D01*
X65847146Y-101639832D01*
X65885241Y-101677928D01*
X65923337Y-101754118D01*
X65923337Y-101944594D01*
X65885241Y-102020785D01*
X65847146Y-102058880D01*
X65770956Y-102096975D01*
X65542384Y-102096975D01*
X65466194Y-102058880D01*
X65428098Y-102020785D01*
X66647146Y-101296975D02*
X66266194Y-101296975D01*
X66228098Y-101677928D01*
X66266194Y-101639832D01*
X66342384Y-101601737D01*
X66532860Y-101601737D01*
X66609051Y-101639832D01*
X66647146Y-101677928D01*
X66685241Y-101754118D01*
X66685241Y-101944594D01*
X66647146Y-102020785D01*
X66609051Y-102058880D01*
X66532860Y-102096975D01*
X66342384Y-102096975D01*
X66266194Y-102058880D01*
X66228098Y-102020785D01*
X81525241Y-106288071D02*
X81449051Y-106249975D01*
X81334765Y-106249975D01*
X81220479Y-106288071D01*
X81144289Y-106364261D01*
X81106194Y-106440451D01*
X81068098Y-106592832D01*
X81068098Y-106707118D01*
X81106194Y-106859499D01*
X81144289Y-106935690D01*
X81220479Y-107011880D01*
X81334765Y-107049975D01*
X81410956Y-107049975D01*
X81525241Y-107011880D01*
X81563337Y-106973785D01*
X81563337Y-106707118D01*
X81410956Y-106707118D01*
X63180146Y-116676642D02*
X63180146Y-117209975D01*
X62989670Y-116371880D02*
X62799194Y-116943309D01*
X63294432Y-116943309D01*
X63942051Y-116409975D02*
X63789670Y-116409975D01*
X63713479Y-116448071D01*
X63675384Y-116486166D01*
X63599194Y-116600451D01*
X63561098Y-116752832D01*
X63561098Y-117057594D01*
X63599194Y-117133785D01*
X63637289Y-117171880D01*
X63713479Y-117209975D01*
X63865860Y-117209975D01*
X63942051Y-117171880D01*
X63980146Y-117133785D01*
X64018241Y-117057594D01*
X64018241Y-116867118D01*
X63980146Y-116790928D01*
X63942051Y-116752832D01*
X63865860Y-116714737D01*
X63713479Y-116714737D01*
X63637289Y-116752832D01*
X63599194Y-116790928D01*
X63561098Y-116867118D01*
X81563337Y-104509975D02*
X81296670Y-104129023D01*
X81106194Y-104509975D02*
X81106194Y-103709975D01*
X81410956Y-103709975D01*
X81487146Y-103748071D01*
X81525241Y-103786166D01*
X81563337Y-103862356D01*
X81563337Y-103976642D01*
X81525241Y-104052832D01*
X81487146Y-104090928D01*
X81410956Y-104129023D01*
X81106194Y-104129023D01*
X80706194Y-86006166D02*
X80744289Y-85968071D01*
X80820479Y-85929975D01*
X81010956Y-85929975D01*
X81087146Y-85968071D01*
X81125241Y-86006166D01*
X81163337Y-86082356D01*
X81163337Y-86158547D01*
X81125241Y-86272832D01*
X80668098Y-86729975D01*
X81163337Y-86729975D01*
X81849051Y-85929975D02*
X81696670Y-85929975D01*
X81620479Y-85968071D01*
X81582384Y-86006166D01*
X81506194Y-86120451D01*
X81468098Y-86272832D01*
X81468098Y-86577594D01*
X81506194Y-86653785D01*
X81544289Y-86691880D01*
X81620479Y-86729975D01*
X81772860Y-86729975D01*
X81849051Y-86691880D01*
X81887146Y-86653785D01*
X81925241Y-86577594D01*
X81925241Y-86387118D01*
X81887146Y-86310928D01*
X81849051Y-86272832D01*
X81772860Y-86234737D01*
X81620479Y-86234737D01*
X81544289Y-86272832D01*
X81506194Y-86310928D01*
X81468098Y-86387118D01*
X65904241Y-83428071D02*
X65828051Y-83389975D01*
X65713765Y-83389975D01*
X65599479Y-83428071D01*
X65523289Y-83504261D01*
X65485194Y-83580451D01*
X65447098Y-83732832D01*
X65447098Y-83847118D01*
X65485194Y-83999499D01*
X65523289Y-84075690D01*
X65599479Y-84151880D01*
X65713765Y-84189975D01*
X65789956Y-84189975D01*
X65904241Y-84151880D01*
X65942337Y-84113785D01*
X65942337Y-83847118D01*
X65789956Y-83847118D01*
X77753479Y-127204880D02*
X77867765Y-127242975D01*
X78058241Y-127242975D01*
X78134432Y-127204880D01*
X78172527Y-127166785D01*
X78210622Y-127090594D01*
X78210622Y-127014404D01*
X78172527Y-126938213D01*
X78134432Y-126900118D01*
X78058241Y-126862023D01*
X77905860Y-126823928D01*
X77829670Y-126785832D01*
X77791575Y-126747737D01*
X77753479Y-126671547D01*
X77753479Y-126595356D01*
X77791575Y-126519166D01*
X77829670Y-126481071D01*
X77905860Y-126442975D01*
X78096337Y-126442975D01*
X78210622Y-126481071D01*
X78553479Y-127242975D02*
X78553479Y-126442975D01*
X78553479Y-126747737D02*
X78629670Y-126709642D01*
X78782051Y-126709642D01*
X78858241Y-126747737D01*
X78896337Y-126785832D01*
X78934432Y-126862023D01*
X78934432Y-127090594D01*
X78896337Y-127166785D01*
X78858241Y-127204880D01*
X78782051Y-127242975D01*
X78629670Y-127242975D01*
X78553479Y-127204880D01*
X79201098Y-126709642D02*
X79391575Y-127242975D01*
X79582051Y-126709642D02*
X79391575Y-127242975D01*
X79315384Y-127433451D01*
X79277289Y-127471547D01*
X79201098Y-127509642D01*
X78058241Y-101665213D02*
X78096337Y-101627118D01*
X78172527Y-101589023D01*
X78324908Y-101665213D01*
X78401098Y-101627118D01*
X78439194Y-101589023D01*
X78896337Y-101169975D02*
X78972527Y-101169975D01*
X79048718Y-101208071D01*
X79086813Y-101246166D01*
X79124908Y-101322356D01*
X79163003Y-101474737D01*
X79163003Y-101665213D01*
X79124908Y-101817594D01*
X79086813Y-101893785D01*
X79048718Y-101931880D01*
X78972527Y-101969975D01*
X78896337Y-101969975D01*
X78820146Y-101931880D01*
X78782051Y-101893785D01*
X78743956Y-101817594D01*
X78705860Y-101665213D01*
X78705860Y-101474737D01*
X78743956Y-101322356D01*
X78782051Y-101246166D01*
X78820146Y-101208071D01*
X78896337Y-101169975D01*
X80782384Y-126823928D02*
X81049051Y-126823928D01*
X81163337Y-127242975D02*
X80782384Y-127242975D01*
X80782384Y-126442975D01*
X81163337Y-126442975D01*
X81506194Y-126709642D02*
X81506194Y-127242975D01*
X81506194Y-126785832D02*
X81544289Y-126747737D01*
X81620479Y-126709642D01*
X81734765Y-126709642D01*
X81810956Y-126747737D01*
X81849051Y-126823928D01*
X81849051Y-127242975D01*
X81525241Y-118988071D02*
X81449051Y-118949975D01*
X81334765Y-118949975D01*
X81220479Y-118988071D01*
X81144289Y-119064261D01*
X81106194Y-119140451D01*
X81068098Y-119292832D01*
X81068098Y-119407118D01*
X81106194Y-119559499D01*
X81144289Y-119635690D01*
X81220479Y-119711880D01*
X81334765Y-119749975D01*
X81410956Y-119749975D01*
X81525241Y-119711880D01*
X81563337Y-119673785D01*
X81563337Y-119407118D01*
X81410956Y-119407118D01*
X80579194Y-124829975D02*
X80579194Y-124029975D01*
X80769670Y-124029975D01*
X80883956Y-124068071D01*
X80960146Y-124144261D01*
X80998241Y-124220451D01*
X81036337Y-124372832D01*
X81036337Y-124487118D01*
X80998241Y-124639499D01*
X80960146Y-124715690D01*
X80883956Y-124791880D01*
X80769670Y-124829975D01*
X80579194Y-124829975D01*
X81836337Y-124753785D02*
X81798241Y-124791880D01*
X81683956Y-124829975D01*
X81607765Y-124829975D01*
X81493479Y-124791880D01*
X81417289Y-124715690D01*
X81379194Y-124639499D01*
X81341098Y-124487118D01*
X81341098Y-124372832D01*
X81379194Y-124220451D01*
X81417289Y-124144261D01*
X81493479Y-124068071D01*
X81607765Y-124029975D01*
X81683956Y-124029975D01*
X81798241Y-124068071D01*
X81836337Y-124106166D01*
X63142051Y-83770928D02*
X62875384Y-83770928D01*
X62875384Y-84189975D02*
X62875384Y-83389975D01*
X63256337Y-83389975D01*
X63484908Y-83389975D02*
X63980146Y-83389975D01*
X63713479Y-83694737D01*
X63827765Y-83694737D01*
X63903956Y-83732832D01*
X63942051Y-83770928D01*
X63980146Y-83847118D01*
X63980146Y-84037594D01*
X63942051Y-84113785D01*
X63903956Y-84151880D01*
X63827765Y-84189975D01*
X63599194Y-84189975D01*
X63523003Y-84151880D01*
X63484908Y-84113785D01*
X63618241Y-88508071D02*
X63542051Y-88469975D01*
X63427765Y-88469975D01*
X63313479Y-88508071D01*
X63237289Y-88584261D01*
X63199194Y-88660451D01*
X63161098Y-88812832D01*
X63161098Y-88927118D01*
X63199194Y-89079499D01*
X63237289Y-89155690D01*
X63313479Y-89231880D01*
X63427765Y-89269975D01*
X63503956Y-89269975D01*
X63618241Y-89231880D01*
X63656337Y-89193785D01*
X63656337Y-88927118D01*
X63503956Y-88927118D01*
X65847098Y-103709975D02*
X65694718Y-103709975D01*
X65618527Y-103748071D01*
X65580432Y-103786166D01*
X65504241Y-103900451D01*
X65466146Y-104052832D01*
X65466146Y-104357594D01*
X65504241Y-104433785D01*
X65542337Y-104471880D01*
X65618527Y-104509975D01*
X65770908Y-104509975D01*
X65847098Y-104471880D01*
X65885194Y-104433785D01*
X65923289Y-104357594D01*
X65923289Y-104167118D01*
X65885194Y-104090928D01*
X65847098Y-104052832D01*
X65770908Y-104014737D01*
X65618527Y-104014737D01*
X65542337Y-104052832D01*
X65504241Y-104090928D01*
X65466146Y-104167118D01*
X80991860Y-101550928D02*
X81106146Y-101589023D01*
X81144241Y-101627118D01*
X81182337Y-101703309D01*
X81182337Y-101817594D01*
X81144241Y-101893785D01*
X81106146Y-101931880D01*
X81029956Y-101969975D01*
X80725194Y-101969975D01*
X80725194Y-101169975D01*
X80991860Y-101169975D01*
X81068051Y-101208071D01*
X81106146Y-101246166D01*
X81144241Y-101322356D01*
X81144241Y-101398547D01*
X81106146Y-101474737D01*
X81068051Y-101512832D01*
X80991860Y-101550928D01*
X80725194Y-101550928D01*
X78058241Y-106745213D02*
X78096337Y-106707118D01*
X78172527Y-106669023D01*
X78324908Y-106745213D01*
X78401098Y-106707118D01*
X78439194Y-106669023D01*
X78667765Y-106249975D02*
X79163003Y-106249975D01*
X78896337Y-106554737D01*
X79010622Y-106554737D01*
X79086813Y-106592832D01*
X79124908Y-106630928D01*
X79163003Y-106707118D01*
X79163003Y-106897594D01*
X79124908Y-106973785D01*
X79086813Y-107011880D01*
X79010622Y-107049975D01*
X78782051Y-107049975D01*
X78705860Y-107011880D01*
X78667765Y-106973785D01*
X65339146Y-114136642D02*
X65339146Y-114669975D01*
X65148670Y-113831880D02*
X64958194Y-114403309D01*
X65453432Y-114403309D01*
X66139146Y-113869975D02*
X65758194Y-113869975D01*
X65720098Y-114250928D01*
X65758194Y-114212832D01*
X65834384Y-114174737D01*
X66024860Y-114174737D01*
X66101051Y-114212832D01*
X66139146Y-114250928D01*
X66177241Y-114327118D01*
X66177241Y-114517594D01*
X66139146Y-114593785D01*
X66101051Y-114631880D01*
X66024860Y-114669975D01*
X65834384Y-114669975D01*
X65758194Y-114631880D01*
X65720098Y-114593785D01*
X81525241Y-129148071D02*
X81449051Y-129109975D01*
X81334765Y-129109975D01*
X81220479Y-129148071D01*
X81144289Y-129224261D01*
X81106194Y-129300451D01*
X81068098Y-129452832D01*
X81068098Y-129567118D01*
X81106194Y-129719499D01*
X81144289Y-129795690D01*
X81220479Y-129871880D01*
X81334765Y-129909975D01*
X81410956Y-129909975D01*
X81525241Y-129871880D01*
X81563337Y-129833785D01*
X81563337Y-129567118D01*
X81410956Y-129567118D01*
X78750337Y-94349975D02*
X78293194Y-94349975D01*
X78521765Y-94349975D02*
X78521765Y-93549975D01*
X78445575Y-93664261D01*
X78369384Y-93740451D01*
X78293194Y-93778547D01*
X79131289Y-94349975D02*
X79283670Y-94349975D01*
X79359860Y-94311880D01*
X79397956Y-94273785D01*
X79474146Y-94159499D01*
X79512241Y-94007118D01*
X79512241Y-93702356D01*
X79474146Y-93626166D01*
X79436051Y-93588071D01*
X79359860Y-93549975D01*
X79207479Y-93549975D01*
X79131289Y-93588071D01*
X79093194Y-93626166D01*
X79055098Y-93702356D01*
X79055098Y-93892832D01*
X79093194Y-93969023D01*
X79131289Y-94007118D01*
X79207479Y-94045213D01*
X79359860Y-94045213D01*
X79436051Y-94007118D01*
X79474146Y-93969023D01*
X79512241Y-93892832D01*
X78039194Y-86133166D02*
X78077289Y-86095071D01*
X78153479Y-86056975D01*
X78343956Y-86056975D01*
X78420146Y-86095071D01*
X78458241Y-86133166D01*
X78496337Y-86209356D01*
X78496337Y-86285547D01*
X78458241Y-86399832D01*
X78001098Y-86856975D01*
X78496337Y-86856975D01*
X78763003Y-86056975D02*
X79296337Y-86056975D01*
X78953479Y-86856975D01*
X62888098Y-96216975D02*
X63383337Y-96216975D01*
X63116670Y-96521737D01*
X63230956Y-96521737D01*
X63307146Y-96559832D01*
X63345241Y-96597928D01*
X63383337Y-96674118D01*
X63383337Y-96864594D01*
X63345241Y-96940785D01*
X63307146Y-96978880D01*
X63230956Y-97016975D01*
X63002384Y-97016975D01*
X62926194Y-96978880D01*
X62888098Y-96940785D01*
X64069051Y-96216975D02*
X63916670Y-96216975D01*
X63840479Y-96255071D01*
X63802384Y-96293166D01*
X63726194Y-96407451D01*
X63688098Y-96559832D01*
X63688098Y-96864594D01*
X63726194Y-96940785D01*
X63764289Y-96978880D01*
X63840479Y-97016975D01*
X63992860Y-97016975D01*
X64069051Y-96978880D01*
X64107146Y-96940785D01*
X64145241Y-96864594D01*
X64145241Y-96674118D01*
X64107146Y-96597928D01*
X64069051Y-96559832D01*
X63992860Y-96521737D01*
X63840479Y-96521737D01*
X63764289Y-96559832D01*
X63726194Y-96597928D01*
X63688098Y-96674118D01*
X81163337Y-94349975D02*
X80706194Y-94349975D01*
X80934765Y-94349975D02*
X80934765Y-93549975D01*
X80858575Y-93664261D01*
X80782384Y-93740451D01*
X80706194Y-93778547D01*
X81620479Y-93892832D02*
X81544289Y-93854737D01*
X81506194Y-93816642D01*
X81468098Y-93740451D01*
X81468098Y-93702356D01*
X81506194Y-93626166D01*
X81544289Y-93588071D01*
X81620479Y-93549975D01*
X81772860Y-93549975D01*
X81849051Y-93588071D01*
X81887146Y-93626166D01*
X81925241Y-93702356D01*
X81925241Y-93740451D01*
X81887146Y-93816642D01*
X81849051Y-93854737D01*
X81772860Y-93892832D01*
X81620479Y-93892832D01*
X81544289Y-93930928D01*
X81506194Y-93969023D01*
X81468098Y-94045213D01*
X81468098Y-94197594D01*
X81506194Y-94273785D01*
X81544289Y-94311880D01*
X81620479Y-94349975D01*
X81772860Y-94349975D01*
X81849051Y-94311880D01*
X81887146Y-94273785D01*
X81925241Y-94197594D01*
X81925241Y-94045213D01*
X81887146Y-93969023D01*
X81849051Y-93930928D01*
X81772860Y-93892832D01*
X80991908Y-116790928D02*
X81106194Y-116829023D01*
X81144289Y-116867118D01*
X81182384Y-116943309D01*
X81182384Y-117057594D01*
X81144289Y-117133785D01*
X81106194Y-117171880D01*
X81030003Y-117209975D01*
X80725241Y-117209975D01*
X80725241Y-116409975D01*
X80991908Y-116409975D01*
X81068098Y-116448071D01*
X81106194Y-116486166D01*
X81144289Y-116562356D01*
X81144289Y-116638547D01*
X81106194Y-116714737D01*
X81068098Y-116752832D01*
X80991908Y-116790928D01*
X80725241Y-116790928D01*
X81868098Y-116676642D02*
X81868098Y-117209975D01*
X81677622Y-116371880D02*
X81487146Y-116943309D01*
X81982384Y-116943309D01*
X80991908Y-111710928D02*
X81106194Y-111749023D01*
X81144289Y-111787118D01*
X81182384Y-111863309D01*
X81182384Y-111977594D01*
X81144289Y-112053785D01*
X81106194Y-112091880D01*
X81030003Y-112129975D01*
X80725241Y-112129975D01*
X80725241Y-111329975D01*
X80991908Y-111329975D01*
X81068098Y-111368071D01*
X81106194Y-111406166D01*
X81144289Y-111482356D01*
X81144289Y-111558547D01*
X81106194Y-111634737D01*
X81068098Y-111672832D01*
X80991908Y-111710928D01*
X80725241Y-111710928D01*
X81487146Y-111406166D02*
X81525241Y-111368071D01*
X81601432Y-111329975D01*
X81791908Y-111329975D01*
X81868098Y-111368071D01*
X81906194Y-111406166D01*
X81944289Y-111482356D01*
X81944289Y-111558547D01*
X81906194Y-111672832D01*
X81449051Y-112129975D01*
X81944289Y-112129975D01*
X80477622Y-121489975D02*
X80972860Y-121489975D01*
X80706194Y-121794737D01*
X80820479Y-121794737D01*
X80896670Y-121832832D01*
X80934765Y-121870928D01*
X80972860Y-121947118D01*
X80972860Y-122137594D01*
X80934765Y-122213785D01*
X80896670Y-122251880D01*
X80820479Y-122289975D01*
X80591908Y-122289975D01*
X80515718Y-122251880D01*
X80477622Y-122213785D01*
X81315718Y-122213785D02*
X81353813Y-122251880D01*
X81315718Y-122289975D01*
X81277622Y-122251880D01*
X81315718Y-122213785D01*
X81315718Y-122289975D01*
X81620479Y-121489975D02*
X82115718Y-121489975D01*
X81849051Y-121794737D01*
X81963337Y-121794737D01*
X82039527Y-121832832D01*
X82077622Y-121870928D01*
X82115718Y-121947118D01*
X82115718Y-122137594D01*
X82077622Y-122213785D01*
X82039527Y-122251880D01*
X81963337Y-122289975D01*
X81734765Y-122289975D01*
X81658575Y-122251880D01*
X81620479Y-122213785D01*
X67326622Y-111589928D02*
X66793289Y-111589928D01*
X66526622Y-111589928D02*
X66564718Y-111628023D01*
X66602813Y-111589928D01*
X66564718Y-111551832D01*
X66526622Y-111589928D01*
X66602813Y-111589928D01*
X67250432Y-110751832D02*
X67288527Y-110789928D01*
X67326622Y-110904213D01*
X67326622Y-110980404D01*
X67288527Y-111094690D01*
X67212337Y-111170880D01*
X67136146Y-111208975D01*
X66983765Y-111247071D01*
X66869479Y-111247071D01*
X66717098Y-111208975D01*
X66640908Y-111170880D01*
X66564718Y-111094690D01*
X66526622Y-110980404D01*
X66526622Y-110904213D01*
X66564718Y-110789928D01*
X66602813Y-110751832D01*
X66907575Y-110408975D02*
X66907575Y-110142309D01*
X67326622Y-110028023D02*
X67326622Y-110408975D01*
X66526622Y-110408975D01*
X66526622Y-110028023D01*
X67326622Y-109075642D02*
X66526622Y-109075642D01*
X66526622Y-108770880D01*
X66564718Y-108694690D01*
X66602813Y-108656594D01*
X66679003Y-108618499D01*
X66793289Y-108618499D01*
X66869479Y-108656594D01*
X66907575Y-108694690D01*
X66945670Y-108770880D01*
X66945670Y-109075642D01*
X67326622Y-108275642D02*
X66526622Y-108275642D01*
X67098051Y-108008975D01*
X66526622Y-107742309D01*
X67326622Y-107742309D01*
X66526622Y-107208975D02*
X66526622Y-107056594D01*
X66564718Y-106980404D01*
X66640908Y-106904213D01*
X66793289Y-106866118D01*
X67059956Y-106866118D01*
X67212337Y-106904213D01*
X67288527Y-106980404D01*
X67326622Y-107056594D01*
X67326622Y-107208975D01*
X67288527Y-107285166D01*
X67212337Y-107361356D01*
X67059956Y-107399451D01*
X66793289Y-107399451D01*
X66640908Y-107361356D01*
X66564718Y-107285166D01*
X66526622Y-107208975D01*
X67326622Y-106523261D02*
X66526622Y-106523261D01*
X66526622Y-106332785D01*
X66564718Y-106218499D01*
X66640908Y-106142309D01*
X66717098Y-106104213D01*
X66869479Y-106066118D01*
X66983765Y-106066118D01*
X67136146Y-106104213D01*
X67212337Y-106142309D01*
X67288527Y-106218499D01*
X67326622Y-106332785D01*
X67326622Y-106523261D01*
X78058241Y-104205213D02*
X78096337Y-104167118D01*
X78172527Y-104129023D01*
X78324908Y-104205213D01*
X78401098Y-104167118D01*
X78439194Y-104129023D01*
X78705860Y-103786166D02*
X78743956Y-103748071D01*
X78820146Y-103709975D01*
X79010622Y-103709975D01*
X79086813Y-103748071D01*
X79124908Y-103786166D01*
X79163003Y-103862356D01*
X79163003Y-103938547D01*
X79124908Y-104052832D01*
X78667765Y-104509975D01*
X79163003Y-104509975D01*
X80991908Y-114377928D02*
X81106194Y-114416023D01*
X81144289Y-114454118D01*
X81182384Y-114530309D01*
X81182384Y-114644594D01*
X81144289Y-114720785D01*
X81106194Y-114758880D01*
X81030003Y-114796975D01*
X80725241Y-114796975D01*
X80725241Y-113996975D01*
X80991908Y-113996975D01*
X81068098Y-114035071D01*
X81106194Y-114073166D01*
X81144289Y-114149356D01*
X81144289Y-114225547D01*
X81106194Y-114301737D01*
X81068098Y-114339832D01*
X80991908Y-114377928D01*
X80725241Y-114377928D01*
X81449051Y-113996975D02*
X81944289Y-113996975D01*
X81677622Y-114301737D01*
X81791908Y-114301737D01*
X81868098Y-114339832D01*
X81906194Y-114377928D01*
X81944289Y-114454118D01*
X81944289Y-114644594D01*
X81906194Y-114720785D01*
X81868098Y-114758880D01*
X81791908Y-114796975D01*
X81563337Y-114796975D01*
X81487146Y-114758880D01*
X81449051Y-114720785D01*
X80477622Y-98629975D02*
X80972860Y-98629975D01*
X80706194Y-98934737D01*
X80820479Y-98934737D01*
X80896670Y-98972832D01*
X80934765Y-99010928D01*
X80972860Y-99087118D01*
X80972860Y-99277594D01*
X80934765Y-99353785D01*
X80896670Y-99391880D01*
X80820479Y-99429975D01*
X80591908Y-99429975D01*
X80515718Y-99391880D01*
X80477622Y-99353785D01*
X81315718Y-99353785D02*
X81353813Y-99391880D01*
X81315718Y-99429975D01*
X81277622Y-99391880D01*
X81315718Y-99353785D01*
X81315718Y-99429975D01*
X81620479Y-98629975D02*
X82115718Y-98629975D01*
X81849051Y-98934737D01*
X81963337Y-98934737D01*
X82039527Y-98972832D01*
X82077622Y-99010928D01*
X82115718Y-99087118D01*
X82115718Y-99277594D01*
X82077622Y-99353785D01*
X82039527Y-99391880D01*
X81963337Y-99429975D01*
X81734765Y-99429975D01*
X81658575Y-99391880D01*
X81620479Y-99353785D01*
X80706194Y-91086166D02*
X80744289Y-91048071D01*
X80820479Y-91009975D01*
X81010956Y-91009975D01*
X81087146Y-91048071D01*
X81125241Y-91086166D01*
X81163337Y-91162356D01*
X81163337Y-91238547D01*
X81125241Y-91352832D01*
X80668098Y-91809975D01*
X81163337Y-91809975D01*
X81658575Y-91009975D02*
X81734765Y-91009975D01*
X81810956Y-91048071D01*
X81849051Y-91086166D01*
X81887146Y-91162356D01*
X81925241Y-91314737D01*
X81925241Y-91505213D01*
X81887146Y-91657594D01*
X81849051Y-91733785D01*
X81810956Y-91771880D01*
X81734765Y-91809975D01*
X81658575Y-91809975D01*
X81582384Y-91771880D01*
X81544289Y-91733785D01*
X81506194Y-91657594D01*
X81468098Y-91505213D01*
X81468098Y-91314737D01*
X81506194Y-91162356D01*
X81544289Y-91086166D01*
X81582384Y-91048071D01*
X81658575Y-91009975D01*
X65669337Y-107049975D02*
X65821718Y-107049975D01*
X65897908Y-107011880D01*
X65936003Y-106973785D01*
X66012194Y-106859499D01*
X66050289Y-106707118D01*
X66050289Y-106402356D01*
X66012194Y-106326166D01*
X65974098Y-106288071D01*
X65897908Y-106249975D01*
X65745527Y-106249975D01*
X65669337Y-106288071D01*
X65631241Y-106326166D01*
X65593146Y-106402356D01*
X65593146Y-106592832D01*
X65631241Y-106669023D01*
X65669337Y-106707118D01*
X65745527Y-106745213D01*
X65897908Y-106745213D01*
X65974098Y-106707118D01*
X66012194Y-106669023D01*
X66050289Y-106592832D01*
X62824622Y-85929975D02*
X63319860Y-85929975D01*
X63053194Y-86234737D01*
X63167479Y-86234737D01*
X63243670Y-86272832D01*
X63281765Y-86310928D01*
X63319860Y-86387118D01*
X63319860Y-86577594D01*
X63281765Y-86653785D01*
X63243670Y-86691880D01*
X63167479Y-86729975D01*
X62938908Y-86729975D01*
X62862718Y-86691880D01*
X62824622Y-86653785D01*
X63662718Y-86653785D02*
X63700813Y-86691880D01*
X63662718Y-86729975D01*
X63624622Y-86691880D01*
X63662718Y-86653785D01*
X63662718Y-86729975D01*
X63967479Y-85929975D02*
X64462718Y-85929975D01*
X64196051Y-86234737D01*
X64310337Y-86234737D01*
X64386527Y-86272832D01*
X64424622Y-86310928D01*
X64462718Y-86387118D01*
X64462718Y-86577594D01*
X64424622Y-86653785D01*
X64386527Y-86691880D01*
X64310337Y-86729975D01*
X64081765Y-86729975D01*
X64005575Y-86691880D01*
X63967479Y-86653785D01*
X61859337Y-130722785D02*
X61821241Y-130760880D01*
X61706956Y-130798975D01*
X61630765Y-130798975D01*
X61516479Y-130760880D01*
X61440289Y-130684690D01*
X61402194Y-130608499D01*
X61364098Y-130456118D01*
X61364098Y-130341832D01*
X61402194Y-130189451D01*
X61440289Y-130113261D01*
X61516479Y-130037071D01*
X61630765Y-129998975D01*
X61706956Y-129998975D01*
X61821241Y-130037071D01*
X61859337Y-130075166D01*
X62202194Y-130798975D02*
X62202194Y-129998975D01*
X62659337Y-130798975D02*
X62316479Y-130341832D01*
X62659337Y-129998975D02*
X62202194Y-130456118D01*
X62716670Y-108789975D02*
X62983337Y-109589975D01*
X63250003Y-108789975D01*
X63516670Y-109589975D02*
X63516670Y-109056642D01*
X63516670Y-108789975D02*
X63478575Y-108828071D01*
X63516670Y-108866166D01*
X63554765Y-108828071D01*
X63516670Y-108789975D01*
X63516670Y-108866166D01*
X64011908Y-109589975D02*
X63935718Y-109551880D01*
X63897622Y-109513785D01*
X63859527Y-109437594D01*
X63859527Y-109209023D01*
X63897622Y-109132832D01*
X63935718Y-109094737D01*
X64011908Y-109056642D01*
X64126194Y-109056642D01*
X64202384Y-109094737D01*
X64240479Y-109132832D01*
X64278575Y-109209023D01*
X64278575Y-109437594D01*
X64240479Y-109513785D01*
X64202384Y-109551880D01*
X64126194Y-109589975D01*
X64011908Y-109589975D01*
X77505813Y-80751071D02*
X78267718Y-80751071D01*
X77658194Y-81738880D02*
X77772479Y-81776975D01*
X77962956Y-81776975D01*
X78039146Y-81738880D01*
X78077241Y-81700785D01*
X78115337Y-81624594D01*
X78115337Y-81548404D01*
X78077241Y-81472213D01*
X78039146Y-81434118D01*
X77962956Y-81396023D01*
X77810575Y-81357928D01*
X77734384Y-81319832D01*
X77696289Y-81281737D01*
X77658194Y-81205547D01*
X77658194Y-81129356D01*
X77696289Y-81053166D01*
X77734384Y-81015071D01*
X77810575Y-80976975D01*
X78001051Y-80976975D01*
X78115337Y-81015071D01*
X78267718Y-80751071D02*
X79029622Y-80751071D01*
X78420098Y-81738880D02*
X78534384Y-81776975D01*
X78724860Y-81776975D01*
X78801051Y-81738880D01*
X78839146Y-81700785D01*
X78877241Y-81624594D01*
X78877241Y-81548404D01*
X78839146Y-81472213D01*
X78801051Y-81434118D01*
X78724860Y-81396023D01*
X78572479Y-81357928D01*
X78496289Y-81319832D01*
X78458194Y-81281737D01*
X78420098Y-81205547D01*
X78420098Y-81129356D01*
X78458194Y-81053166D01*
X78496289Y-81015071D01*
X78572479Y-80976975D01*
X78762956Y-80976975D01*
X78877241Y-81015071D01*
X62907146Y-127331880D02*
X63021432Y-127369975D01*
X63211908Y-127369975D01*
X63288098Y-127331880D01*
X63326194Y-127293785D01*
X63364289Y-127217594D01*
X63364289Y-127141404D01*
X63326194Y-127065213D01*
X63288098Y-127027118D01*
X63211908Y-126989023D01*
X63059527Y-126950928D01*
X62983337Y-126912832D01*
X62945241Y-126874737D01*
X62907146Y-126798547D01*
X62907146Y-126722356D01*
X62945241Y-126646166D01*
X62983337Y-126608071D01*
X63059527Y-126569975D01*
X63250003Y-126569975D01*
X63364289Y-126608071D01*
X64164289Y-127293785D02*
X64126194Y-127331880D01*
X64011908Y-127369975D01*
X63935718Y-127369975D01*
X63821432Y-127331880D01*
X63745241Y-127255690D01*
X63707146Y-127179499D01*
X63669051Y-127027118D01*
X63669051Y-126912832D01*
X63707146Y-126760451D01*
X63745241Y-126684261D01*
X63821432Y-126608071D01*
X63935718Y-126569975D01*
X64011908Y-126569975D01*
X64126194Y-126608071D01*
X64164289Y-126646166D01*
X76588622Y-108237451D02*
X76207670Y-108504118D01*
X76588622Y-108694594D02*
X75788622Y-108694594D01*
X75788622Y-108389832D01*
X75826718Y-108313642D01*
X75864813Y-108275547D01*
X75941003Y-108237451D01*
X76055289Y-108237451D01*
X76131479Y-108275547D01*
X76169575Y-108313642D01*
X76207670Y-108389832D01*
X76207670Y-108694594D01*
X76588622Y-107894594D02*
X75788622Y-107894594D01*
X75788622Y-107589832D01*
X75826718Y-107513642D01*
X75864813Y-107475547D01*
X75941003Y-107437451D01*
X76055289Y-107437451D01*
X76131479Y-107475547D01*
X76169575Y-107513642D01*
X76207670Y-107589832D01*
X76207670Y-107894594D01*
X77876622Y-109570785D02*
X77076622Y-109570785D01*
X77076622Y-109266023D01*
X77114718Y-109189832D01*
X77152813Y-109151737D01*
X77229003Y-109113642D01*
X77343289Y-109113642D01*
X77419479Y-109151737D01*
X77457575Y-109189832D01*
X77495670Y-109266023D01*
X77495670Y-109570785D01*
X77876622Y-108770785D02*
X77076622Y-108770785D01*
X77648051Y-108504118D01*
X77076622Y-108237451D01*
X77876622Y-108237451D01*
X77076622Y-107704118D02*
X77076622Y-107551737D01*
X77114718Y-107475547D01*
X77190908Y-107399356D01*
X77343289Y-107361261D01*
X77609956Y-107361261D01*
X77762337Y-107399356D01*
X77838527Y-107475547D01*
X77876622Y-107551737D01*
X77876622Y-107704118D01*
X77838527Y-107780309D01*
X77762337Y-107856499D01*
X77609956Y-107894594D01*
X77343289Y-107894594D01*
X77190908Y-107856499D01*
X77114718Y-107780309D01*
X77076622Y-107704118D01*
X77876622Y-107018404D02*
X77076622Y-107018404D01*
X77076622Y-106827928D01*
X77114718Y-106713642D01*
X77190908Y-106637451D01*
X77267098Y-106599356D01*
X77419479Y-106561261D01*
X77533765Y-106561261D01*
X77686146Y-106599356D01*
X77762337Y-106637451D01*
X77838527Y-106713642D01*
X77876622Y-106827928D01*
X77876622Y-107018404D01*
X63180146Y-114136642D02*
X63180146Y-114669975D01*
X62989670Y-113831880D02*
X62799194Y-114403309D01*
X63294432Y-114403309D01*
X63942051Y-114136642D02*
X63942051Y-114669975D01*
X63751575Y-113831880D02*
X63561098Y-114403309D01*
X64056337Y-114403309D01*
X65428098Y-91136975D02*
X65923337Y-91136975D01*
X65656670Y-91441737D01*
X65770956Y-91441737D01*
X65847146Y-91479832D01*
X65885241Y-91517928D01*
X65923337Y-91594118D01*
X65923337Y-91784594D01*
X65885241Y-91860785D01*
X65847146Y-91898880D01*
X65770956Y-91936975D01*
X65542384Y-91936975D01*
X65466194Y-91898880D01*
X65428098Y-91860785D01*
X66685241Y-91936975D02*
X66228098Y-91936975D01*
X66456670Y-91936975D02*
X66456670Y-91136975D01*
X66380479Y-91251261D01*
X66304289Y-91327451D01*
X66228098Y-91365547D01*
X63233333Y-81484928D02*
X62966666Y-81484928D01*
X62966666Y-81903975D02*
X62966666Y-81103975D01*
X63347619Y-81103975D01*
X63614285Y-81180166D02*
X63652380Y-81142071D01*
X63728571Y-81103975D01*
X63919047Y-81103975D01*
X63995238Y-81142071D01*
X64033333Y-81180166D01*
X64071428Y-81256356D01*
X64071428Y-81332547D01*
X64033333Y-81446832D01*
X63576190Y-81903975D01*
X64071428Y-81903975D01*
X65847098Y-121756642D02*
X65847098Y-122289975D01*
X65656622Y-121451880D02*
X65466146Y-122023309D01*
X65961384Y-122023309D01*
D12*
X66882433Y-78557966D02*
X66882433Y-77668966D01*
X67094100Y-77668966D01*
X67221100Y-77711300D01*
X67305766Y-77795966D01*
X67348100Y-77880633D01*
X67390433Y-78049966D01*
X67390433Y-78176966D01*
X67348100Y-78346300D01*
X67305766Y-78430966D01*
X67221100Y-78515633D01*
X67094100Y-78557966D01*
X66882433Y-78557966D01*
X67686766Y-77668966D02*
X68237100Y-77668966D01*
X67940766Y-78007633D01*
X68067766Y-78007633D01*
X68152433Y-78049966D01*
X68194766Y-78092300D01*
X68237100Y-78176966D01*
X68237100Y-78388633D01*
X68194766Y-78473300D01*
X68152433Y-78515633D01*
X68067766Y-78557966D01*
X67813766Y-78557966D01*
X67729100Y-78515633D01*
X67686766Y-78473300D01*
X73640833Y-77639333D02*
X73683166Y-77512333D01*
X73683166Y-77300666D01*
X73640833Y-77216000D01*
X73598500Y-77173666D01*
X73513833Y-77131333D01*
X73429166Y-77131333D01*
X73344500Y-77173666D01*
X73302166Y-77216000D01*
X73259833Y-77300666D01*
X73217500Y-77470000D01*
X73175166Y-77554666D01*
X73132833Y-77597000D01*
X73048166Y-77639333D01*
X72963500Y-77639333D01*
X72878833Y-77597000D01*
X72836500Y-77554666D01*
X72794166Y-77470000D01*
X72794166Y-77258333D01*
X72836500Y-77131333D01*
X72794166Y-76835000D02*
X73683166Y-76623333D01*
X73048166Y-76454000D01*
X73683166Y-76284666D01*
X72794166Y-76073000D01*
X72878833Y-75776666D02*
X72836500Y-75734333D01*
X72794166Y-75649666D01*
X72794166Y-75438000D01*
X72836500Y-75353333D01*
X72878833Y-75311000D01*
X72963500Y-75268666D01*
X73048166Y-75268666D01*
X73175166Y-75311000D01*
X73683166Y-75819000D01*
X73683166Y-75268666D01*
X77691984Y-130204237D02*
X77691984Y-130839237D01*
X77649651Y-130966237D01*
X77564984Y-131050904D01*
X77437984Y-131093237D01*
X77353318Y-131093237D01*
X78580984Y-131093237D02*
X78072984Y-131093237D01*
X78326984Y-131093237D02*
X78326984Y-130204237D01*
X78242318Y-130331237D01*
X78157651Y-130415904D01*
X78072984Y-130458237D01*
X67447318Y-103898304D02*
X67574318Y-103940637D01*
X67785984Y-103940637D01*
X67870651Y-103898304D01*
X67912984Y-103855971D01*
X67955318Y-103771304D01*
X67955318Y-103686637D01*
X67912984Y-103601971D01*
X67870651Y-103559637D01*
X67785984Y-103517304D01*
X67616651Y-103474971D01*
X67531984Y-103432637D01*
X67489651Y-103390304D01*
X67447318Y-103305637D01*
X67447318Y-103220971D01*
X67489651Y-103136304D01*
X67531984Y-103093971D01*
X67616651Y-103051637D01*
X67828318Y-103051637D01*
X67955318Y-103093971D01*
X68590318Y-103051637D02*
X68590318Y-103686637D01*
X68547984Y-103813637D01*
X68463318Y-103898304D01*
X68336318Y-103940637D01*
X68251651Y-103940637D01*
X69436984Y-103051637D02*
X69013651Y-103051637D01*
X68971318Y-103474971D01*
X69013651Y-103432637D01*
X69098318Y-103390304D01*
X69309984Y-103390304D01*
X69394651Y-103432637D01*
X69436984Y-103474971D01*
X69479318Y-103559637D01*
X69479318Y-103771304D01*
X69436984Y-103855971D01*
X69394651Y-103898304D01*
X69309984Y-103940637D01*
X69098318Y-103940637D01*
X69013651Y-103898304D01*
X68971318Y-103855971D01*
X70093151Y-75111637D02*
X70093151Y-74222637D01*
X70304818Y-74222637D01*
X70431818Y-74264971D01*
X70516484Y-74349637D01*
X70558818Y-74434304D01*
X70601151Y-74603637D01*
X70601151Y-74730637D01*
X70558818Y-74899971D01*
X70516484Y-74984637D01*
X70431818Y-75069304D01*
X70304818Y-75111637D01*
X70093151Y-75111637D01*
X70939818Y-74307304D02*
X70982151Y-74264971D01*
X71066818Y-74222637D01*
X71278484Y-74222637D01*
X71363151Y-74264971D01*
X71405484Y-74307304D01*
X71447818Y-74391971D01*
X71447818Y-74476637D01*
X71405484Y-74603637D01*
X70897484Y-75111637D01*
X71447818Y-75111637D01*
X70554584Y-121525904D02*
X70681584Y-121568237D01*
X70893251Y-121568237D01*
X70977918Y-121525904D01*
X71020251Y-121483571D01*
X71062584Y-121398904D01*
X71062584Y-121314237D01*
X71020251Y-121229571D01*
X70977918Y-121187237D01*
X70893251Y-121144904D01*
X70723918Y-121102571D01*
X70639251Y-121060237D01*
X70596918Y-121017904D01*
X70554584Y-120933237D01*
X70554584Y-120848571D01*
X70596918Y-120763904D01*
X70639251Y-120721571D01*
X70723918Y-120679237D01*
X70935584Y-120679237D01*
X71062584Y-120721571D01*
X71358918Y-120679237D02*
X71570584Y-121568237D01*
X71739918Y-120933237D01*
X71909251Y-121568237D01*
X72120918Y-120679237D01*
X72925251Y-121568237D02*
X72417251Y-121568237D01*
X72671251Y-121568237D02*
X72671251Y-120679237D01*
X72586584Y-120806237D01*
X72501918Y-120890904D01*
X72417251Y-120933237D01*
X73653384Y-108106237D02*
X73653384Y-108825904D01*
X73695718Y-108910571D01*
X73738051Y-108952904D01*
X73822718Y-108995237D01*
X73992051Y-108995237D01*
X74076718Y-108952904D01*
X74119051Y-108910571D01*
X74161384Y-108825904D01*
X74161384Y-108106237D01*
X74500051Y-108106237D02*
X75050384Y-108106237D01*
X74754051Y-108444904D01*
X74881051Y-108444904D01*
X74965718Y-108487237D01*
X75008051Y-108529571D01*
X75050384Y-108614237D01*
X75050384Y-108825904D01*
X75008051Y-108910571D01*
X74965718Y-108952904D01*
X74881051Y-108995237D01*
X74627051Y-108995237D01*
X74542384Y-108952904D01*
X74500051Y-108910571D01*
X73704184Y-89284837D02*
X73704184Y-90004504D01*
X73746518Y-90089171D01*
X73788851Y-90131504D01*
X73873518Y-90173837D01*
X74042851Y-90173837D01*
X74127518Y-90131504D01*
X74169851Y-90089171D01*
X74212184Y-90004504D01*
X74212184Y-89284837D01*
X75016518Y-89284837D02*
X74847184Y-89284837D01*
X74762518Y-89327171D01*
X74720184Y-89369504D01*
X74635518Y-89496504D01*
X74593184Y-89665837D01*
X74593184Y-90004504D01*
X74635518Y-90089171D01*
X74677851Y-90131504D01*
X74762518Y-90173837D01*
X74931851Y-90173837D01*
X75016518Y-90131504D01*
X75058851Y-90089171D01*
X75101184Y-90004504D01*
X75101184Y-89792837D01*
X75058851Y-89708171D01*
X75016518Y-89665837D01*
X74931851Y-89623504D01*
X74762518Y-89623504D01*
X74677851Y-89665837D01*
X74635518Y-89708171D01*
X74593184Y-89792837D01*
X69606318Y-80555704D02*
X69733318Y-80598037D01*
X69944984Y-80598037D01*
X70029651Y-80555704D01*
X70071984Y-80513371D01*
X70114318Y-80428704D01*
X70114318Y-80344037D01*
X70071984Y-80259371D01*
X70029651Y-80217037D01*
X69944984Y-80174704D01*
X69775651Y-80132371D01*
X69690984Y-80090037D01*
X69648651Y-80047704D01*
X69606318Y-79963037D01*
X69606318Y-79878371D01*
X69648651Y-79793704D01*
X69690984Y-79751371D01*
X69775651Y-79709037D01*
X69987318Y-79709037D01*
X70114318Y-79751371D01*
X70749318Y-79709037D02*
X70749318Y-80344037D01*
X70706984Y-80471037D01*
X70622318Y-80555704D01*
X70495318Y-80598037D01*
X70410651Y-80598037D01*
X71638318Y-80598037D02*
X71130318Y-80598037D01*
X71384318Y-80598037D02*
X71384318Y-79709037D01*
X71299651Y-79836037D01*
X71214984Y-79920704D01*
X71130318Y-79963037D01*
D10*
X69645800Y-78411041D02*
X69645800Y-78103759D01*
X68885800Y-78411041D02*
X68885800Y-78103759D01*
X72724600Y-107803836D02*
X72724600Y-107588164D01*
X72004600Y-107803836D02*
X72004600Y-107588164D01*
X77636900Y-120565142D02*
X77636900Y-121039658D01*
X76591900Y-120565142D02*
X76591900Y-121039658D01*
X68154436Y-98573000D02*
X67938764Y-98573000D01*
X68154436Y-99293000D02*
X67938764Y-99293000D01*
X76703600Y-116630564D02*
X76703600Y-116846236D01*
X77423600Y-116630564D02*
X77423600Y-116846236D01*
X70337000Y-118687964D02*
X70337000Y-118903636D01*
X69617000Y-118687964D02*
X69617000Y-118903636D01*
X68154436Y-100258200D02*
X67938764Y-100258200D01*
X68154436Y-99538200D02*
X67938764Y-99538200D01*
X68299000Y-74715000D02*
X66829000Y-74715000D01*
X68299000Y-77000000D02*
X68299000Y-74715000D01*
X66829000Y-74715000D02*
X66829000Y-77000000D01*
X67265436Y-111958800D02*
X67049764Y-111958800D01*
X67265436Y-112678800D02*
X67049764Y-112678800D01*
X69703836Y-88625000D02*
X69488164Y-88625000D01*
X69703836Y-87905000D02*
X69488164Y-87905000D01*
X75957077Y-99238800D02*
X76264359Y-99238800D01*
X75957077Y-99998800D02*
X76264359Y-99998800D01*
X69703836Y-88844800D02*
X69488164Y-88844800D01*
X69703836Y-89564800D02*
X69488164Y-89564800D01*
X77031964Y-119105000D02*
X77247636Y-119105000D01*
X77031964Y-118385000D02*
X77247636Y-118385000D01*
X71141000Y-107803836D02*
X71141000Y-107588164D01*
X71861000Y-107803836D02*
X71861000Y-107588164D01*
D13*
X75981000Y-75004000D02*
X77181000Y-75004000D01*
X75981000Y-77904000D02*
X77181000Y-77904000D01*
D10*
X72414400Y-119533641D02*
X72414400Y-119226359D01*
X71654400Y-119533641D02*
X71654400Y-119226359D01*
X74905324Y-122721900D02*
X74395876Y-122721900D01*
X74905324Y-121676900D02*
X74395876Y-121676900D01*
X71506401Y-119533641D02*
X71506401Y-119226359D01*
X70746401Y-119533641D02*
X70746401Y-119226359D01*
X68559000Y-118687964D02*
X68559000Y-118903636D01*
X67839000Y-118687964D02*
X67839000Y-118903636D01*
X67974800Y-116554364D02*
X67974800Y-116770036D01*
X67254800Y-116554364D02*
X67254800Y-116770036D01*
X71855600Y-78411041D02*
X71855600Y-78103759D01*
X71095600Y-78411041D02*
X71095600Y-78103759D01*
X78043518Y-92915035D02*
X78043518Y-93130707D01*
X77323518Y-92915035D02*
X77323518Y-93130707D01*
X67690000Y-134837000D02*
X77090000Y-134837000D01*
X77090000Y-132937000D02*
X77090000Y-134837000D01*
X67690000Y-129037000D02*
X67690000Y-131037000D01*
X77090000Y-129037000D02*
X77090000Y-131037000D01*
X67690000Y-132937000D02*
X67690000Y-134837000D01*
X75975800Y-105467036D02*
X75975800Y-105251364D01*
X75255800Y-105467036D02*
X75255800Y-105251364D01*
X78053200Y-110514159D02*
X78053200Y-110821441D01*
X77293200Y-110514159D02*
X77293200Y-110821441D01*
X67753000Y-100777800D02*
X69153000Y-100777800D01*
X69853000Y-101477800D02*
X69853000Y-102077800D01*
X67053000Y-102077800D02*
X67053000Y-101477800D01*
X69153000Y-102777800D02*
X67753000Y-102777800D01*
X69853000Y-101477800D02*
G75*
G03*
X69153000Y-100777800I-700000J0D01*
G01*
X69153000Y-102777800D02*
G75*
G03*
X69853000Y-102077800I0J700000D01*
G01*
X67053000Y-102077800D02*
G75*
G03*
X67753000Y-102777800I699999J-1D01*
G01*
X67753000Y-100777800D02*
G75*
G03*
X67053000Y-101477800I-1J-699999D01*
G01*
X74393976Y-124115300D02*
X74903424Y-124115300D01*
X74393976Y-125160300D02*
X74903424Y-125160300D01*
X77964400Y-122452000D02*
X77964400Y-125002000D01*
X76264400Y-122452000D02*
X76264400Y-125002000D01*
X77964400Y-122452000D02*
X76264400Y-122452000D01*
X77313200Y-112769764D02*
X77313200Y-112985436D01*
X78033200Y-112769764D02*
X78033200Y-112985436D01*
X71789000Y-75825000D02*
G75*
G03*
X71789000Y-75825000I-125000J0D01*
G01*
X70277400Y-107803836D02*
X70277400Y-107588164D01*
X70997400Y-107803836D02*
X70997400Y-107588164D01*
X65787000Y-76353641D02*
X65787000Y-76046359D01*
X66547000Y-76353641D02*
X66547000Y-76046359D01*
X76094000Y-90864636D02*
X76094000Y-90648964D01*
X76814000Y-90864636D02*
X76814000Y-90648964D01*
X69493400Y-107849641D02*
X69493400Y-107542359D01*
X68733400Y-107849641D02*
X68733400Y-107542359D01*
X67001959Y-114502200D02*
X67309241Y-114502200D01*
X67001959Y-113742200D02*
X67309241Y-113742200D01*
X72457364Y-89564800D02*
X72673036Y-89564800D01*
X72457364Y-88844800D02*
X72673036Y-88844800D01*
D13*
X66876000Y-122209000D02*
X66876000Y-123409000D01*
X69776000Y-122209000D02*
X69776000Y-123409000D01*
D10*
X70738000Y-78411041D02*
X70738000Y-78103759D01*
X69978000Y-78411041D02*
X69978000Y-78103759D01*
X72449877Y-99500871D02*
X72757159Y-99500871D01*
X72449877Y-100260871D02*
X72757159Y-100260871D01*
X70974918Y-83501871D02*
X70974918Y-84001871D01*
X68694918Y-83501871D02*
X68694918Y-84001871D01*
X76478159Y-79172800D02*
X76785441Y-79172800D01*
X76478159Y-79932800D02*
X76785441Y-79932800D01*
X68754600Y-116995600D02*
X68754600Y-116345600D01*
X69404600Y-116995600D02*
X68754600Y-116995600D01*
X68754600Y-109775600D02*
X68754600Y-110425600D01*
X75324600Y-109775600D02*
X75974600Y-109775600D01*
X75974600Y-109775600D02*
X75974600Y-110425600D01*
X75324600Y-116995600D02*
X75974600Y-116995600D01*
X69404600Y-109775600D02*
X68754600Y-109775600D01*
X74905324Y-123941100D02*
X74395876Y-123941100D01*
X74905324Y-122896100D02*
X74395876Y-122896100D01*
X72450118Y-86978912D02*
X72450118Y-86671630D01*
X71690118Y-86978912D02*
X71690118Y-86671630D01*
X71726600Y-103302800D02*
X71726600Y-106602800D01*
X74526600Y-103302800D02*
X71726600Y-103302800D01*
X78247800Y-89825600D02*
X78247800Y-91675600D01*
X77047800Y-91675600D02*
X78247800Y-91675600D01*
X77047800Y-89825600D02*
X77047800Y-91675600D01*
X67713200Y-91149800D02*
X67713200Y-90674800D01*
X74933200Y-91149800D02*
X74933200Y-90674800D01*
X74933200Y-90674800D02*
X74458200Y-90674800D01*
X67713200Y-97419800D02*
X67713200Y-97894800D01*
X74933200Y-97894800D02*
X74458200Y-97894800D01*
X74933200Y-97419800D02*
X74933200Y-97894800D01*
X67713200Y-90674800D02*
X68188200Y-90674800D01*
X77120636Y-88540000D02*
X76904964Y-88540000D01*
X77120636Y-89260000D02*
X76904964Y-89260000D01*
X68728000Y-118687964D02*
X68728000Y-118903636D01*
X69448000Y-118687964D02*
X69448000Y-118903636D01*
X70429800Y-104197036D02*
X70429800Y-103981364D01*
X71149800Y-104197036D02*
X71149800Y-103981364D01*
X72434564Y-87879600D02*
X72650236Y-87879600D01*
X72434564Y-88599600D02*
X72650236Y-88599600D01*
X67003959Y-113587800D02*
X67311241Y-113587800D01*
X67003959Y-112827800D02*
X67311241Y-112827800D01*
X70409800Y-106071641D02*
X70409800Y-105764359D01*
X71169800Y-106071641D02*
X71169800Y-105764359D01*
X74395876Y-120457700D02*
X74905324Y-120457700D01*
X74395876Y-121502700D02*
X74905324Y-121502700D01*
X76358318Y-92915035D02*
X76358318Y-93130707D01*
X77078318Y-92915035D02*
X77078318Y-93130707D01*
X74029800Y-81187800D02*
X72629800Y-81187800D01*
X71929800Y-80487800D02*
X71929800Y-79887800D01*
X72629800Y-79187800D02*
X74029800Y-79187800D01*
X74729800Y-79887800D02*
X74729800Y-80487800D01*
X74729800Y-79887800D02*
G75*
G03*
X74029800Y-79187800I-700000J0D01*
G01*
X72629800Y-79187800D02*
G75*
G03*
X71929800Y-79887800I-1J-699999D01*
G01*
X74029800Y-81187800D02*
G75*
G03*
X74729800Y-80487800I0J700000D01*
G01*
X71929800Y-80487800D02*
G75*
G03*
X72629800Y-81187800I699999J-1D01*
G01*
X73044164Y-78642800D02*
X73259836Y-78642800D01*
X73044164Y-77922800D02*
X73259836Y-77922800D01*
M02*
