M48
; DRILL file {KiCad (6.0.5)} date Fri Oct 28 12:11:35 2022
; FORMAT={-:-/ absolute / inch / decimal}
; #@! TF.CreationDate,2022-10-28T12:11:35-07:00
; #@! TF.GenerationSoftware,Kicad,Pcbnew,(6.0.5)
; #@! TF.FileFunction,Plated,1,4,PTH
FMAT,2
INCH
; #@! TA.AperFunction,Plated,PTH,ViaDrill
T1C0.0100
; #@! TA.AperFunction,Plated,PTH,ComponentDrill
T2C0.0138
; #@! TA.AperFunction,Plated,PTH,ComponentDrill
T3C0.0236
; #@! TA.AperFunction,Plated,PTH,ComponentDrill
T4C0.0394
%
G90
G05
T1
X2.4738Y-4.5007
X2.4743Y-3.9002
X2.4744Y-4.2003
X2.5764Y-4.5003
X2.5784Y-4.1003
X2.5854Y-4.6003
X2.5864Y-4.4093
X2.5914Y-4.6993
X2.601Y-5.097
X2.6024Y-4.3053
X2.6024Y-4.3323
X2.603Y-4.273
X2.6054Y-2.9503
X2.6104Y-3.1363
X2.6104Y-4.5473
X2.6114Y-3.7193
X2.6144Y-3.2843
X2.6183Y-4.5212
X2.625Y-4.394
X2.6254Y-3.6713
X2.6264Y-3.4233
X2.6324Y-3.6423
X2.6324Y-4.5823
X2.6386Y-3.5975
X2.641Y-3.345
X2.651Y-4.658
X2.651Y-4.696
X2.6594Y-4.0803
X2.6604Y-3.8543
X2.6624Y-4.2423
X2.663Y-4.393
X2.667Y-3.556
X2.668Y-3.345
X2.6694Y-3.9623
X2.6704Y-3.2263
X2.6733Y-4.3347
X2.689Y-4.612
X2.6924Y-4.2203
X2.6927Y-4.3137
X2.695Y-3.345
X2.695Y-3.512
X2.6954Y-3.1043
X2.6994Y-2.9633
X2.6994Y-4.1233
X2.6994Y-4.3403
X2.7Y-4.179
X2.7034Y-3.0223
X2.7054Y-3.374
X2.7134Y-3.6173
X2.7134Y-3.6797
X2.7134Y-3.742
X2.7134Y-3.8043
X2.7134Y-4.0523
X2.714Y-4.586
X2.7194Y-4.3173
X2.72Y-4.628
X2.7204Y-3.2263
X2.7244Y-4.0973
X2.731Y-3.938
X2.739Y-3.886
X2.7394Y-3.2473
X2.742Y-3.913
X2.75Y-4.3621
X2.7504Y-3.9593
X2.7506Y-4.221
X2.7509Y-4.3912
X2.751Y-4.553
X2.751Y-4.634
X2.7514Y-4.1133
X2.754Y-4.945
X2.7544Y-3.5413
X2.755Y-4.727
X2.7604Y-3.9853
X2.77Y-3.351
X2.77Y-4.534
X2.7704Y-3.6173
X2.7704Y-3.6797
X2.7704Y-3.742
X2.7704Y-3.7763
X2.771Y-4.459
X2.7714Y-3.2443
X2.778Y-4.633
X2.779Y-3.888
X2.781Y-4.919
X2.7882Y-4.3672
X2.7974Y-3.1283
X2.8054Y-3.3173
X2.8064Y-3.3983
X2.815Y-4.286
X2.8164Y-3.5403
X2.817Y-4.167
X2.823Y-4.815
X2.823Y-4.8475
X2.823Y-4.88
X2.8302Y-4.3681
X2.8314Y-4.6343
X2.8354Y-3.2763
X2.8354Y-3.3293
X2.8375Y-3.8843
X2.849Y-4.286
X2.85Y-5.088
X2.8534Y-2.9673
X2.8555Y-3.9043
X2.857Y-4.648
X2.8644Y-3.2063
X2.8682Y-3.4403
X2.8722Y-4.0091
X2.8752Y-3.8853
X2.8854Y-3.1103
X2.8884Y-3.9883
X2.8944Y-2.9663
X2.8944Y-3.3803
X2.899Y-3.8994
X2.901Y-5.088
X2.903Y-4.691
X2.903Y-4.725
X2.9214Y-3.1123
X2.9264Y-4.3623
X2.93Y-4.69
X2.9304Y-3.9733
X2.9324Y-4.4693
X2.9334Y-4.4393
X2.9374Y-3.9363
X2.9404Y-3.5463
X2.9444Y-4.4943
X2.945Y-3.374
X2.946Y-4.131
X2.946Y-4.945
X2.9464Y-4.3813
X2.9514Y-3.1033
X2.9514Y-3.1823
X2.9529Y-4.2293
X2.956Y-4.689
X2.9724Y-3.8493
X2.975Y-4.725
X2.9784Y-3.5443
X2.9784Y-3.8223
X2.9854Y-3.4943
X2.989Y-4.945
X2.99Y-4.65
X2.99Y-4.675
X2.9944Y-3.1823
X2.995Y-3.3707
X2.9987Y-4.2563
X3.0004Y-4.2283
X3.0164Y-3.7334
X3.0174Y-3.7823
X3.0208Y-3.8273
X3.0224Y-4.4543
X3.023Y-4.879
X3.0234Y-4.3983
X3.0244Y-4.2393
X3.03Y-4.425
X3.0344Y-2.9493
X3.036Y-4.949
X3.045Y-4.14
X3.0452Y-3.3685
X3.0464Y-3.1803
X3.0504Y-3.7943
X3.0504Y-3.8213
X3.0511Y-3.9563
X3.0511Y-4.2383
X3.0554Y-3.1063
X3.0564Y-3.7663
X3.058Y-4.491
X3.064Y-4.949
X3.065Y-4.58
X3.065Y-4.615
X3.0674Y-3.1403
X3.0714Y-3.7233
X3.0864Y-3.6434
X3.0864Y-3.6814
X3.0884Y-3.5363
X3.0941Y-3.7069
X3.0984Y-3.3003
X3.0994Y-3.602
X3.1039Y-4.7138
X3.1174Y-3.3993
X3.1754Y-3.9003
X3.1994Y-4.3003
X3.1994Y-4.8003
X3.2014Y-4.0013
T2
X2.7988Y-4.4138
X2.7988Y-4.464
X2.7988Y-4.5142
X2.849Y-4.4138
X2.849Y-4.464
X2.849Y-4.5142
X2.8992Y-4.4138
X2.8992Y-4.464
X2.8992Y-4.5142
T4
X2.45Y-3.15
X2.45Y-3.25
X2.45Y-3.35
X2.45Y-3.45
X2.45Y-3.55
X2.45Y-3.65
X2.45Y-3.75
X2.45Y-3.85
X2.45Y-3.95
X2.45Y-4.05
X2.45Y-4.15
X2.45Y-4.25
X2.45Y-4.35
X2.45Y-4.45
X2.45Y-4.55
X2.45Y-4.65
X2.45Y-4.75
X2.45Y-4.85
X2.45Y-4.95
X2.45Y-5.05
X2.55Y-3.15
X2.55Y-3.25
X2.55Y-3.35
X2.55Y-3.45
X2.55Y-3.55
X2.55Y-3.65
X2.55Y-3.75
X2.55Y-3.85
X2.55Y-3.95
X2.55Y-4.05
X2.55Y-4.15
X2.55Y-4.25
X2.55Y-4.35
X2.55Y-4.45
X2.55Y-4.55
X2.55Y-4.65
X2.55Y-4.75
X2.55Y-4.85
X2.55Y-4.95
X2.55Y-5.05
X3.15Y-3.15
X3.15Y-3.25
X3.15Y-3.35
X3.15Y-3.45
X3.15Y-3.55
X3.15Y-3.65
X3.15Y-3.75
X3.15Y-3.85
X3.15Y-3.95
X3.15Y-4.05
X3.15Y-4.15
X3.15Y-4.25
X3.15Y-4.35
X3.15Y-4.45
X3.15Y-4.55
X3.15Y-4.65
X3.15Y-4.75
X3.15Y-4.85
X3.15Y-4.95
X3.15Y-5.05
X3.25Y-3.15
X3.25Y-3.25
X3.25Y-3.35
X3.25Y-3.45
X3.25Y-3.55
X3.25Y-3.65
X3.25Y-3.75
X3.25Y-3.85
X3.25Y-3.95
X3.25Y-4.05
X3.25Y-4.15
X3.25Y-4.25
X3.25Y-4.35
X3.25Y-4.45
X3.25Y-4.55
X3.25Y-4.65
X3.25Y-4.75
X3.25Y-4.85
X3.25Y-4.95
X3.25Y-5.05
T3
G00X2.6799Y-5.0101
M15
G01X2.6799Y-5.0534
M16
G05
G00X2.6799Y-5.1845
M15
G01X2.6799Y-5.2081
M16
G05
G00X3.0201Y-5.0101
M15
G01X3.0201Y-5.0534
M16
G05
G00X3.0201Y-5.1845
M15
G01X3.0201Y-5.2081
M16
G05
T0
M30
